<?xml version="1.0" encoding="UTF-8"?>
<svg xmlns="http://www.w3.org/2000/svg" width="200" height="200" viewBox="0 0 200 200">
<path fill="black" fill-rule="evenodd" d="M100 57 C88 49 74 49 62 54 C48 50 36 59 30 73
C20 88 18 108 22 124 C26 144 40 164 60 162
C73 172 87 174 101 168 C116 173 130 169 140 162
C157 164 172 152 178 135 C185 116 182 97 175 81
C170 64 157 55 143 56 C129 48 113 50 100 57 Z M100 63 C87 55 75 55 64 60 C51 56 41 63 35 77
C26 91 23 108 28 124 C31 142 43 158 62 157
C75 166 87 168 100 163 C113 167 129 164 139 157
C154 159 167 148 172 132 C179 115 176 98 169 84
C165 70 155 60 142 62 C128 55 115 56 100 63 Z"/>
<path fill="black" fill-rule="nonzero" d="M93 61 C97 51 99 42 93 33 C91 30 91 27 94 26
C100 26 107 28 113 31 C116 33 116 35 113 38
C108 44 107 53 108 61 L103 62 C101 53 102 42 107 35
C105 34 101 33 99 33 C103 41 103 51 99 61 Z"/>
<path fill="black" fill-rule="nonzero" d="M58 65 C49 79 46 91 47 107 C46 126 49 139 58 151
C46 141 38 126 39 109 C38 93 46 75 58 65 Z"/>
<path fill="black" fill-rule="nonzero" d="M146 68 C158 82 163 96 162 112 C163 128 153 143 145 150
C152 136 154 124 153 110 C154 95 151 79 146 68 Z"/>
<path fill="black" fill-rule="nonzero" d="M83 64 C80 70 78 76 77 79 L80 79 C82 72 83 69 85 66 Z"/>
<path fill="black" fill-rule="nonzero" d="M115 65 C119 70 121 75 122 78 L125 78 C123 71 120 67 117 65 Z"/>
<path fill="black" fill-rule="nonzero" d="M63 105 C67 98 73 87 78 82 C82 89 87 99 90 108
C81 107 72 109 63 105 Z"/>
<path fill="black" fill-rule="nonzero" d="M111 108 C115 98 120 87 125 81 C130 86 137 97 141 103
C133 107 122 107 111 108 Z"/>
<path fill="black" fill-rule="nonzero" d="M99 105 C102 109 105 113 106 117 C102 118 96 118 93 116
C95 112 96 109 99 105 Z"/>
<path fill="black" fill-rule="nonzero" d="M60 118 C66 122 70 124 76 125 L78 133 L86 134 L87 128
C94 130 102 130 109 128 L110 135 L119 132 L119 125
C128 123 135 121 141 116 C137 128 131 137 122 142
C115 148 106 151 98 150 C88 150 78 146 72 139
C66 133 63 127 60 118 Z"/>
</svg>
