<?xml version="1.0" encoding="UTF-8"?>
<!-- Created by grConvert v0.1-0 -->
<svg xmlns="http://www.w3.org/2000/svg" xmlns:xlink="http://www.w3.org/1999/xlink" width="2000" height="2000" viewBox="0 0 2000 2000">
<path fill-rule="nonzero" fill="rgb(0%, 79.215688%, 93.725491%)" fill-opacity="1" d="M 947.117188 1265.539062 C 947.117188 1326.71875 947.140625 1387.855469 947.140625 1449.011719 C 932.761719 1447.308594 918.511719 1444.988281 904.320312 1442.050781 C 884.460938 1437.636719 864.929688 1432.050781 845.75 1425.25 C 826.402344 1418.125 807.53125 1409.808594 789.191406 1400.320312 C 772.289062 1391.324219 755.941406 1381.386719 740.191406 1370.5 C 724.027344 1359.042969 708.605469 1346.65625 693.921875 1333.351562 C 680.101562 1320.554688 667.039062 1307.023438 655.273438 1293.34375 C 655.003906 1293.035156 654.757812 1292.730469 654.511719 1292.421875 C 654.511719 1292.421875 654.164062 1292.011719 654.164062 1292.011719 C 642.027344 1277.511719 630.75 1262.335938 620.359375 1246.542969 C 610.113281 1230.625 600.828125 1214.15625 592.472656 1197.171875 C 583.824219 1179.058594 576.328125 1160.472656 569.921875 1141.457031 C 563.925781 1122.808594 559.015625 1103.875 555.21875 1084.632812 C 551.582031 1064.667969 549.117188 1044.585938 547.867188 1024.316406 C 546.960938 1004.742188 547.1875 985.214844 548.503906 965.664062 C 550.226562 945.023438 553.207031 924.570312 557.457031 904.300781 C 561.851562 884.542969 567.417969 865.136719 574.195312 846.078125 C 581.195312 827.101562 589.328125 808.621094 598.589844 790.628906 C 607.730469 773.378906 617.835938 756.722656 628.945312 740.664062 C 640.382812 724.542969 652.746094 709.121094 666.035156 694.4375 C 679.199219 680.265625 693.164062 666.855469 707.90625 654.265625 C 723.125 641.636719 739.019531 629.929688 753.046875 620.792969 C 768.984375 610.585938 785.390625 601.34375 802.335938 592.984375 C 820.878906 584.175781 839.855469 576.535156 859.34375 570.023438 C 877.785156 564.171875 896.496094 559.347656 915.511719 555.628906 C 925.964844 553.738281 936.460938 552.160156 946.996094 550.945312 C 946.996094 614.199219 947.015625 677.453125 947.035156 740.726562 C 947.054688 829.667969 947.054688 918.613281 947.078125 1007.578125 C 947.097656 1093.566406 947.097656 1179.550781 947.117188 1265.539062 Z M 947.117188 1265.539062 "/>
</svg>
