<?xml version="1.0" encoding="UTF-8"?>
<!-- Created by grConvert v0.1-0 -->
<svg xmlns="http://www.w3.org/2000/svg" xmlns:xlink="http://www.w3.org/1999/xlink" width="2000" height="2000" viewBox="0 0 2000 2000">
<path fill-rule="nonzero" fill="rgb(0%, 79.215688%, 93.725491%)" fill-opacity="1" d="M 1451.496094 965.664062 C 1452.8125 985.214844 1453.039062 1004.742188 1452.132812 1024.316406 C 1450.882812 1044.585938 1448.417969 1064.667969 1444.78125 1084.632812 C 1440.984375 1103.875 1436.074219 1122.808594 1430.078125 1141.457031 C 1423.671875 1160.472656 1416.175781 1179.058594 1407.527344 1197.171875 C 1399.171875 1214.15625 1389.886719 1230.625 1379.640625 1246.542969 C 1369.25 1262.335938 1357.972656 1277.511719 1345.835938 1292.011719 C 1345.835938 1292.011719 1345.488281 1292.421875 1345.488281 1292.421875 C 1345.242188 1292.730469 1344.996094 1293.035156 1344.726562 1293.34375 C 1332.960938 1307.023438 1319.898438 1320.554688 1306.078125 1333.351562 C 1291.394531 1346.65625 1275.972656 1359.042969 1259.808594 1370.5 C 1244.058594 1381.386719 1227.710938 1391.324219 1210.808594 1400.320312 C 1192.46875 1409.808594 1173.597656 1418.125 1154.25 1425.25 C 1135.070312 1432.050781 1115.539062 1437.636719 1095.679688 1442.050781 C 1081.488281 1444.988281 1067.238281 1447.308594 1052.859375 1449.011719 C 1052.859375 1387.855469 1052.882812 1326.71875 1052.882812 1265.539062 C 1052.902344 1179.550781 1052.902344 1093.566406 1052.921875 1007.578125 C 1052.945312 918.613281 1052.945312 829.667969 1052.964844 740.726562 C 1052.984375 677.453125 1053.003906 614.199219 1053.003906 550.945312 C 1063.539062 552.160156 1074.035156 553.738281 1084.488281 555.628906 C 1103.503906 559.347656 1122.214844 564.171875 1140.65625 570.023438 C 1160.144531 576.535156 1179.121094 584.175781 1197.664062 592.984375 C 1214.609375 601.34375 1231.015625 610.585938 1246.953125 620.792969 C 1260.980469 629.929688 1276.875 641.636719 1292.09375 654.265625 C 1306.835938 666.855469 1320.800781 680.265625 1333.964844 694.4375 C 1347.253906 709.121094 1359.617188 724.542969 1371.054688 740.664062 C 1382.164062 756.722656 1392.269531 773.378906 1401.410156 790.628906 C 1410.671875 808.621094 1418.804688 827.101562 1425.804688 846.078125 C 1432.582031 865.136719 1438.148438 884.542969 1442.542969 904.300781 C 1446.792969 924.570312 1449.773438 945.023438 1451.496094 965.664062 Z M 1451.496094 965.664062 "/>
</svg>
