<?xml version="1.0" encoding="UTF-8"?>
<!-- Created by grConvert v0.1-0 -->
<svg xmlns="http://www.w3.org/2000/svg" xmlns:xlink="http://www.w3.org/1999/xlink" width="2000" height="2000" viewBox="0 0 2000 2000">
<path fill-rule="nonzero" fill="rgb(0%, 0%, 0%)" fill-opacity="1" d="M 828.464844 1375.292969 C 828.570312 1375.300781 828.671875 1375.300781 828.773438 1375.296875 C 829.027344 1375.40625 829.300781 1375.472656 829.578125 1375.492188 C 829.53125 1375.496094 829.484375 1375.496094 829.4375 1375.496094 C 829.101562 1375.496094 828.765625 1375.421875 828.464844 1375.292969 Z M 828.464844 1375.292969 "/>
<path fill-rule="nonzero" fill="rgb(0%, 79.215688%, 93.725491%)" fill-opacity="1" d="M 1196.851562 967.234375 C 1196.851562 967.234375 1196.832031 967.234375 1196.832031 967.234375 C 1190.292969 967.8125 1184.761719 968.054688 1176.949219 968.46875 C 1115.683594 972.429688 1054.941406 982.464844 993.511719 984.429688 C 936.824219 988.335938 877.953125 992.242188 820.910156 987.25 C 802.800781 985.566406 784.113281 984.578125 766.75 978.839844 C 764.355469 959.90625 761.125 941.105469 759.722656 922.0625 C 758.957031 909.183594 759.777344 896.398438 760.449219 883.542969 C 761.085938 871.449219 761.21875 859.339844 762 847.246094 C 762.394531 841.285156 763.085938 833.753906 764.523438 826.296875 C 765.535156 821.605469 766.804688 817.007812 768.300781 812.445312 C 769.703125 808.523438 771.367188 804.710938 773.195312 800.972656 C 774.878906 797.71875 776.636719 794.542969 778.636719 791.476562 C 780.972656 788.167969 783.496094 784.972656 786.148438 781.90625 C 787.625 780.300781 789.121094 778.710938 790.652344 777.160156 C 790.652344 777.160156 790.671875 777.160156 790.671875 777.160156 C 792.390625 777.945312 794.464844 778.339844 796.894531 778.207031 C 840.03125 806.261719 889.464844 824.988281 941.328125 825.773438 C 982.277344 827.714844 1023.207031 823.902344 1063.839844 818.820312 C 1092.65625 815.550781 1121.421875 810.183594 1147.230469 796.375 C 1151.640625 794.355469 1157.453125 791.886719 1161.679688 788.46875 C 1161.679688 788.46875 1161.699219 788.449219 1161.699219 788.449219 C 1162.40625 789.421875 1163.097656 790.394531 1163.773438 791.382812 C 1163.773438 791.382812 1163.847656 791.496094 1163.847656 791.496094 C 1164.015625 791.738281 1164.164062 791.960938 1164.332031 792.1875 C 1166.558594 795.625 1168.910156 799.644531 1171.042969 803.8125 C 1173.695312 809.214844 1176.257812 814.707031 1178.292969 820.390625 C 1179.453125 823.867188 1180.386719 827.398438 1181.152344 830.988281 C 1183.65625 843.808594 1185.453125 856.796875 1187.433594 869.691406 C 1189.582031 883.746094 1191.113281 897.875 1192.066406 912.0625 C 1193.265625 929.984375 1194.011719 948.75 1196.851562 967.234375 Z M 1196.851562 967.234375 "/>
<path fill-rule="nonzero" fill="rgb(0%, 79.215688%, 93.725491%)" fill-opacity="1" d="M 1045.765625 594.84375 C 1061.203125 598.898438 1067.707031 574.0625 1055.914062 566.265625 C 1050.101562 561.855469 1042.867188 563.035156 1036.085938 562.960938 C 1027.804688 561.929688 1019.882812 558.847656 1011.394531 559.5 C 1002.070312 560.25 993.191406 563.667969 984.277344 566.324219 C 980.070312 566.941406 976.015625 569.613281 974.503906 573.6875 C 972.410156 579.386719 974.257812 585.441406 979.492188 588.675781 C 989.359375 593.367188 1000.125 584.902344 1010.164062 583.667969 C 1019.46875 582.285156 1028.273438 587.347656 1037.578125 586.9375 C 1038.792969 590.65625 1041.785156 593.757812 1045.765625 594.84375 Z M 1158.089844 636.484375 C 1158.875 649.042969 1155.566406 662.03125 1148.859375 672.6875 C 1141.0625 679.46875 1129.699219 677.226562 1120.167969 677.171875 C 1111.910156 676.515625 1104.28125 674.910156 1096.453125 672.59375 C 1095.949219 667.398438 1095.667969 662.144531 1095.125 656.988281 C 1094.285156 649.097656 1093.011719 641.289062 1092.472656 633.382812 C 1092.359375 631.8125 1092.191406 628.578125 1092.339844 625.363281 C 1092.378906 624.914062 1092.414062 624.464844 1092.488281 624.019531 C 1093.144531 622.542969 1093.519531 620.914062 1093.519531 619.214844 C 1093.519531 615.402344 1091.648438 611.964844 1088.808594 609.757812 C 1086.957031 607.871094 1084.492188 606.617188 1081.875 606.261719 C 1078.921875 605.871094 1076.265625 606.617188 1073.820312 608.074219 C 1073.820312 608.074219 1073.574219 608.1875 1073.574219 608.1875 C 1073.296875 608.320312 1073.015625 608.429688 1072.734375 608.542969 C 1071.78125 608.824219 1070.808594 609.085938 1069.839844 609.308594 C 1066.363281 609.964844 1062.847656 610.355469 1059.335938 610.597656 C 1051.953125 610.992188 1044.550781 610.972656 1037.167969 610.933594 C 1025.132812 610.878906 1013.097656 610.785156 1001.078125 610.039062 C 984.949219 608.824219 969.046875 605.925781 953.195312 602.75 C 949.980469 602.078125 946.765625 601.386719 943.589844 600.582031 C 943.421875 600.542969 943.253906 600.488281 943.085938 600.449219 C 941.367188 596.246094 939.515625 592.039062 939.140625 587.480469 C 939.328125 578.058594 941.382812 568.585938 943.402344 559.40625 C 950.765625 541.296875 971.941406 535.542969 988.519531 528.738281 C 1013.300781 519.132812 1040.757812 524.871094 1063.96875 536.195312 C 1080.304688 545.464844 1095.949219 555.914062 1113.609375 562.605469 C 1122.710938 566.265625 1132.859375 568.863281 1139.214844 576.902344 C 1152.242188 593.535156 1155.117188 616.113281 1158.089844 636.484375 Z M 1158.089844 636.484375 "/>
</svg>
