<?xml version="1.0" encoding="UTF-8"?>
<!-- Created by grConvert v0.1-0 -->
<svg xmlns="http://www.w3.org/2000/svg" xmlns:xlink="http://www.w3.org/1999/xlink" width="2000" height="2000" viewBox="0 0 2000 2000">
<path fill-rule="nonzero" fill="rgb(0%, 0%, 0%)" fill-opacity="1" d="M 839.046875 1500 C 805.097656 1494.941406 771.292969 1489.605469 737.203125 1496.859375 C 701.523438 1497.929688 645.550781 1505.585938 617.035156 1481.292969 C 583.023438 1446.507812 593.609375 1396.121094 593.414062 1352.390625 C 589.136719 1314.449219 592.597656 1276.339844 592.441406 1238.28125 C 593.800781 1209.058594 590.011719 1179.960938 590.871094 1150.785156 C 596.976562 1100.429688 589.21875 1050.050781 593.363281 999.683594 C 593.945312 964.871094 591.398438 929.351562 599.566406 895.210938 C 607.539062 868.726562 625.410156 846.585938 645.945312 828.5625 C 660.1875 814.875 679.421875 802.382812 682.539062 781.46875 C 686.5625 765.71875 683 749.617188 681.210938 733.804688 C 678.746094 714.113281 675.980469 694.277344 669.273438 675.507812 C 668.75 673.988281 668.171875 672.554688 667.488281 671.117188 C 659.152344 661.050781 665.488281 644.0625 678.839844 642.640625 C 701.5625 641.285156 703.746094 670.792969 709.199219 687.035156 C 714.757812 721.109375 724.089844 756.824219 716.382812 791.152344 C 706.675781 842.203125 641.589844 859.019531 631.863281 910.65625 C 628.023438 938.070312 628.265625 963.472656 628.832031 990.320312 C 626.355469 1023.324219 627.050781 1056.09375 628.773438 1089.082031 C 624.992188 1152.699219 628.296875 1216.148438 627.257812 1279.847656 C 623.679688 1318.496094 631.585938 1356.992188 627.023438 1395.605469 C 626.523438 1416.925781 626.089844 1450.863281 649.40625 1459.523438 C 686.59375 1466.632812 724.953125 1463.320312 762.191406 1458.347656 C 789.507812 1455.371094 816.535156 1462.414062 843.570312 1465.128906 C 930.125 1463.855469 1016.609375 1458.125 1103.21875 1456.800781 C 1165.320312 1452.027344 1227.230469 1460.695312 1289.25 1460.332031 C 1312.582031 1458.007812 1335.621094 1453.648438 1359.132812 1453.238281 C 1370.46875 1437.347656 1369.792969 1415.347656 1372.058594 1396.542969 C 1377.804688 1347.929688 1369.542969 1300.019531 1365.007812 1251.78125 C 1362.15625 1177.09375 1366.3125 1102.234375 1367.113281 1027.511719 C 1368.804688 997.792969 1367.761719 968.082031 1368.816406 938.351562 C 1374.773438 903.460938 1361.671875 889.332031 1337.554688 866.714844 C 1330.84375 859.785156 1324.40625 852.660156 1317.96875 845.476562 C 1300.398438 828 1278.660156 811.339844 1278.714844 784.007812 C 1276.765625 763.878906 1280.925781 744.9375 1279.847656 725.316406 C 1276.496094 700.355469 1275.191406 672.761719 1291.609375 651.730469 C 1305.816406 633.976562 1333.296875 654.652344 1319.460938 673.214844 C 1308.761719 688.578125 1313.9375 707.441406 1314.984375 724.675781 C 1317.46875 755.246094 1301.902344 790.207031 1332.214844 809.820312 C 1423.75 902.476562 1402.585938 882.0625 1403.144531 1006.53125 C 1400.890625 1081.742188 1398.910156 1157.023438 1399.296875 1232.253906 C 1401.839844 1287.9375 1414.007812 1340.925781 1407.226562 1396.644531 C 1405.253906 1434.007812 1399.148438 1494.464844 1348.722656 1488.828125 C 1320.390625 1490.910156 1292.40625 1497.761719 1263.820312 1495.539062 C 1224.703125 1493.910156 1185.667969 1489.863281 1146.511719 1490.675781 C 1043.976562 1492.199219 941.523438 1499.054688 839.046875 1500 Z M 839.046875 1500 "/>
<path fill-rule="nonzero" fill="rgb(0%, 0%, 0%)" fill-opacity="1" d="M 772.765625 661.367188 C 752.570312 658.425781 731.925781 655.351562 711.828125 659.679688 C 700.71875 659.835938 690.03125 655.121094 678.972656 654.183594 C 655.269531 650.507812 638.871094 659.402344 627.039062 630.671875 C 618.929688 605.289062 617.660156 575.5625 625.351562 549.949219 C 632.101562 534.992188 645.246094 522.476562 660.25 515.957031 C 699.097656 505.671875 740.21875 505.457031 780.21875 503.738281 C 829.304688 497.308594 880.480469 500.144531 929.027344 504.992188 C 993.828125 507.65625 1058.664062 502.746094 1123.429688 508.164062 C 1155.132812 509.941406 1186.8125 508.800781 1218.480469 507.144531 C 1260.3125 507.539062 1307.332031 493.070312 1344.933594 517.253906 C 1377.15625 540.941406 1380.089844 585.132812 1379.550781 621.957031 C 1381.453125 669.1875 1330.449219 662.316406 1298.203125 657.246094 C 1258.921875 650.785156 1219.007812 652.769531 1179.363281 651.714844 C 1135.925781 650.980469 1092.625 654.011719 1049.339844 656.640625 C 1019.394531 655.816406 989.429688 655.113281 959.472656 655.835938 C 897.203125 655.492188 834.964844 666.9375 772.765625 661.367188 Z M 816.828125 627.511719 C 860.355469 626.683594 902.789062 621.949219 946.183594 620.800781 C 984.636719 619.191406 1023.09375 621.785156 1061.515625 620.953125 C 1137.042969 615.207031 1213.421875 614.324219 1288.9375 620.445312 C 1307.289062 622.777344 1325.699219 626.648438 1344.292969 625.261719 C 1345.519531 591.585938 1344.542969 538.828125 1299.902344 538.703125 C 1255.65625 538.738281 1211.464844 544.035156 1167.175781 544.316406 C 1117.894531 544.480469 1068.71875 539.125 1019.390625 540.15625 C 987.054688 541.175781 954.726562 542.386719 922.4375 539.703125 C 890.382812 537.152344 854.175781 533.289062 823.226562 535.308594 C 793.648438 538.167969 764.074219 539.945312 734.363281 540.558594 C 670.886719 548.175781 643.324219 539.636719 659.871094 617.890625 C 675.703125 616.347656 691.457031 620.726562 706.859375 623.867188 C 708.921875 623.007812 711.171875 622.507812 713.515625 622.449219 C 714.125 622.433594 714.734375 622.421875 715.34375 622.410156 C 717.070312 621.101562 719.027344 620.109375 721.089844 619.542969 C 726.285156 618.109375 731.84375 619.292969 736.015625 622.492188 C 763.078125 623.207031 789.617188 629.980469 816.828125 627.511719 Z M 816.828125 627.511719 "/>
</svg>
