<?xml version="1.0" encoding="UTF-8"?>
<!-- Created by grConvert v0.1-0 -->
<svg xmlns="http://www.w3.org/2000/svg" xmlns:xlink="http://www.w3.org/1999/xlink" width="2000" height="2000" viewBox="0 0 2000 2000">
<path fill-rule="nonzero" fill="rgb(0%, 79.215688%, 93.725491%)" fill-opacity="1" d="M 762.191406 1458.363281 C 724.941406 1463.328125 686.59375 1466.644531 649.402344 1459.539062 C 626.085938 1450.863281 626.515625 1416.929688 627.027344 1395.617188 C 631.578125 1356.992188 623.691406 1318.503906 627.261719 1279.863281 C 628.300781 1216.15625 624.984375 1152.703125 628.773438 1089.09375 C 627.046875 1056.101562 626.359375 1023.328125 628.832031 990.335938 C 628.261719 963.484375 628.027344 938.070312 631.875 910.671875 C 641.589844 859.035156 706.667969 842.214844 716.386719 791.167969 C 718.796875 780.398438 719.539062 769.492188 719.242188 758.542969 C 753.261719 759.988281 787.285156 761.128906 821.308594 762.628906 C 843.777344 764.023438 866.015625 766.261719 888.332031 769.480469 C 913.902344 773.152344 939.242188 778.410156 964.851562 781.882812 C 995.136719 786.003906 1025.460938 789.261719 1056.015625 790.714844 C 1066.773438 791.226562 1077.488281 791.480469 1088.222656 791.480469 C 1108.578125 791.480469 1128.910156 790.539062 1149.28125 788.636719 C 1176.269531 786.105469 1203.058594 781.765625 1229.828125 777.605469 C 1245.945312 775.527344 1262.054688 774.066406 1278.183594 773.066406 C 1278.203125 776.6875 1278.355469 780.335938 1278.714844 784.023438 C 1278.65625 811.34375 1300.402344 828.003906 1317.96875 845.492188 C 1324.40625 852.675781 1330.84375 859.800781 1337.554688 866.726562 C 1361.675781 889.339844 1374.769531 903.46875 1368.820312 938.363281 C 1367.761719 968.097656 1368.800781 997.792969 1367.113281 1027.527344 C 1366.308594 1102.242188 1362.148438 1177.097656 1365.011719 1251.796875 C 1369.546875 1300.039062 1377.808594 1347.945312 1372.058594 1396.558594 C 1369.78125 1415.359375 1370.46875 1437.363281 1359.125 1453.238281 C 1335.613281 1453.652344 1312.570312 1458.007812 1289.257812 1460.34375 C 1264.332031 1460.480469 1239.445312 1459.167969 1214.558594 1457.851562 C 1177.464844 1455.910156 1140.371094 1453.945312 1103.21875 1456.8125 C 1016.609375 1458.125 930.113281 1463.859375 843.5625 1465.132812 C 816.539062 1462.425781 789.511719 1455.378906 762.191406 1458.363281 Z M 762.191406 1458.363281 "/>
</svg>
