<?xml version="1.0" encoding="UTF-8"?>
<!-- Created by grConvert v0.1-0 -->
<svg xmlns="http://www.w3.org/2000/svg" xmlns:xlink="http://www.w3.org/1999/xlink" width="2000" height="2000" viewBox="0 0 2000 2000">
<path fill-rule="nonzero" fill="rgb(0%, 0%, 0%)" fill-opacity="1" d="M 839.003906 1499.699219 C 828.894531 1499.382812 818.800781 1498.636719 808.726562 1497.8125 C 793.605469 1496.597656 778.542969 1494.671875 764.453125 1488.75 C 757.367188 1485.757812 750.84375 1481.722656 744.769531 1477.03125 C 739.445312 1472.898438 734.269531 1468.488281 729.707031 1463.515625 C 721.875 1454.957031 714.867188 1444.472656 712.71875 1432.902344 C 710.644531 1421.652344 713.632812 1410.085938 719.167969 1400.273438 C 724.042969 1391.65625 730.640625 1384.253906 736.828125 1376.59375 C 737.40625 1375.882812 737.988281 1375.152344 738.527344 1374.386719 C 738.921875 1373.789062 739.296875 1373.152344 739.632812 1372.519531 C 739.761719 1372.238281 739.894531 1371.9375 740.023438 1371.640625 C 740.082031 1371.433594 740.136719 1371.246094 740.171875 1371.0625 C 740.25 1370.59375 740.324219 1370.105469 740.359375 1369.640625 C 740.398438 1368.632812 740.398438 1367.640625 740.359375 1366.632812 C 740.230469 1365.230469 740.023438 1363.808594 739.78125 1362.425781 C 739.40625 1360.761719 738.957031 1359.136719 738.433594 1357.53125 C 735.875 1350.425781 732.453125 1343.605469 729.257812 1337.234375 C 727.6875 1334.113281 726.136719 1330.972656 724.773438 1328.28125 C 720.550781 1319.964844 716.082031 1311.757812 711.746094 1303.515625 C 709.878906 1299.964844 708.027344 1296.394531 706.382812 1292.714844 C 704.421875 1288.304688 702.925781 1283.667969 701.617188 1279.015625 C 697.449219 1264.136719 695.972656 1248.644531 694.589844 1233.300781 C 694.253906 1229.394531 693.9375 1225.488281 693.824219 1221.5625 C 693.691406 1216.722656 694.140625 1211.808594 694.8125 1207.023438 C 696.328125 1196.144531 699.300781 1185.53125 703.132812 1175.25 C 706.699219 1165.605469 711.726562 1156.394531 716.382812 1147.253906 C 721.296875 1137.628906 726.585938 1128.171875 731.464844 1118.527344 C 734.15625 1113.109375 736.660156 1107.613281 738.753906 1101.96875 C 740.210938 1097.671875 741.386719 1093.296875 742.378906 1088.867188 C 744.230469 1079.429688 745.257812 1069.878906 745.96875 1060.292969 C 746.660156 1049.5625 746.863281 1038.816406 746.660156 1028.070312 C 746.546875 1023.210938 746.304688 1018.371094 746.023438 1013.53125 C 745.984375 1013.007812 745.949219 1012.484375 745.910156 1011.960938 C 745.648438 1010.035156 745.648438 1008.015625 745.5 1006.128906 C 745.277344 1003.289062 745.03125 1000.449219 744.769531 997.605469 C 743.6875 986.09375 742.191406 974.636719 740.527344 963.199219 C 738.957031 952.246094 737.3125 941.3125 736.417969 930.289062 C 735.5 919.167969 735.203125 908.140625 735.800781 897 C 736.34375 886.777344 736.976562 876.574219 737.277344 866.332031 C 737.59375 855.359375 738.042969 844.371094 739.21875 833.457031 C 741.464844 812.507812 748.828125 791.59375 761.347656 774.566406 C 767.3125 766.492188 774.355469 759.148438 781.925781 752.585938 C 789.140625 746.34375 797.066406 741.167969 805.304688 736.441406 C 822.464844 726.570312 841.023438 719.226562 859.75 712.964844 C 868.53125 710.03125 877.410156 707.359375 886.363281 704.984375 C 892.457031 703.378906 898.734375 702.199219 904.734375 700.257812 C 905.707031 699.882812 906.679688 699.507812 907.632812 699.0625 C 908.230469 698.742188 908.808594 698.386719 909.40625 698.03125 C 909.800781 697.734375 910.191406 697.433594 910.585938 697.117188 C 910.753906 696.949219 910.941406 696.761719 911.109375 696.59375 C 911.875 695.660156 912.585938 694.707031 913.277344 693.714844 C 913.722656 693.003906 914.152344 692.277344 914.546875 691.546875 C 915.59375 689.304688 916.492188 686.96875 917.3125 684.632812 C 918.675781 680.558594 919.835938 676.425781 920.75 672.222656 C 921.292969 669.4375 921.6875 666.632812 921.949219 663.792969 C 922.171875 659.269531 922.042969 654.746094 921.761719 650.226562 C 921.386719 645.214844 920.917969 640.207031 920.152344 635.21875 C 919.554688 631.292969 918.734375 627.386719 918.042969 623.460938 C 917.613281 621.050781 917.238281 618.640625 916.9375 616.210938 C 916.378906 611.726562 915.910156 607.632812 918.078125 603.40625 C 920.097656 599.5 924.65625 597.109375 928.9375 597.109375 C 931.03125 597.109375 933.050781 597.578125 935.03125 598.195312 C 937.871094 599.054688 940.710938 599.855469 943.589844 600.585938 C 946.765625 601.390625 949.980469 602.082031 953.195312 602.753906 C 969.046875 605.929688 984.949219 608.828125 1001.078125 610.042969 C 1013.097656 610.789062 1025.132812 610.882812 1037.167969 610.941406 C 1044.550781 610.976562 1051.953125 610.996094 1059.335938 610.601562 C 1062.847656 610.359375 1066.363281 609.96875 1069.835938 609.3125 C 1070.808594 609.089844 1071.78125 608.828125 1072.734375 608.546875 C 1073.015625 608.433594 1073.296875 608.324219 1073.574219 608.191406 C 1073.574219 608.191406 1073.820312 608.082031 1073.820312 608.082031 C 1076.265625 606.621094 1078.921875 605.875 1081.875 606.265625 C 1084.492188 606.621094 1086.957031 607.875 1088.808594 609.761719 C 1091.648438 611.96875 1093.515625 615.40625 1093.515625 619.21875 C 1093.515625 620.917969 1093.144531 622.546875 1092.488281 624.023438 C 1092.414062 624.472656 1092.378906 624.917969 1092.339844 625.367188 C 1092.191406 628.582031 1092.359375 631.816406 1092.472656 633.386719 C 1093.011719 641.292969 1094.285156 649.105469 1095.125 656.992188 C 1095.964844 665.066406 1096.171875 673.324219 1097.628906 681.324219 C 1098.023438 683.007812 1098.488281 684.667969 1099.03125 686.296875 C 1099.722656 688.222656 1100.488281 690.109375 1101.386719 691.941406 C 1102.507812 694.125 1103.742188 696.238281 1105.085938 698.292969 C 1106.523438 700.367188 1108.113281 702.332031 1109.738281 704.238281 C 1113.421875 708.367188 1117.382812 712.21875 1121.515625 715.863281 C 1132.804688 725.65625 1144.503906 734.832031 1155.304688 745.148438 C 1166.386719 755.726562 1176.460938 767.222656 1184.910156 780.023438 C 1190.046875 787.835938 1194.160156 796.265625 1197.878906 804.824219 C 1201.859375 813.964844 1204.160156 823.457031 1205.878906 833.25 C 1207.765625 844.074219 1209.355469 854.96875 1211.035156 865.828125 C 1212.792969 877.132812 1214.160156 888.496094 1215.113281 899.917969 C 1215.859375 908.644531 1216.34375 917.390625 1216.8125 924.511719 C 1217.578125 935.800781 1218.363281 947.089844 1219.765625 958.320312 C 1221.128906 969.273438 1223.484375 980.09375 1225.296875 990.992188 C 1227.128906 1002.035156 1229.148438 1013.0625 1230.625 1024.164062 C 1231.96875 1034.21875 1232.734375 1044.347656 1234.15625 1054.386719 C 1234.640625 1057.878906 1235.222656 1061.320312 1235.726562 1063.972656 C 1235.800781 1064.367188 1235.875 1064.738281 1235.96875 1065.132812 C 1235.96875 1065.132812 1235.988281 1065.226562 1235.988281 1065.226562 C 1238.269531 1076.027344 1241.390625 1086.71875 1244.902344 1097.183594 C 1250.230469 1112.398438 1256.902344 1127.070312 1264.023438 1141.367188 C 1264.097656 1141.554688 1264.191406 1141.722656 1264.285156 1141.910156 C 1264.433594 1142.1875 1264.5625 1142.46875 1264.636719 1142.601562 C 1273.125 1159.53125 1281.289062 1176.839844 1286.207031 1195.191406 C 1288.300781 1203.0625 1289.886719 1211.039062 1291.550781 1218.984375 C 1293.121094 1226.480469 1295.007812 1233.898438 1296.617188 1241.375 C 1298.914062 1252.066406 1300.242188 1262.867188 1300.242188 1273.820312 C 1300.242188 1283.21875 1299.308594 1292.566406 1298.636719 1301.910156 C 1297.960938 1312.226562 1297.550781 1322.542969 1297.496094 1332.878906 C 1297.476562 1336.746094 1297.476562 1340.617188 1297.476562 1344.464844 C 1297.476562 1349.4375 1297.308594 1354.425781 1297.550781 1359.378906 C 1297.570312 1359.605469 1297.605469 1359.847656 1297.625 1360.070312 C 1298.820312 1361.359375 1300.035156 1362.632812 1301.140625 1363.996094 C 1303.625 1367.078125 1304.839844 1370.742188 1305.605469 1374.574219 C 1306.558594 1379.320312 1306.148438 1384.421875 1305.847656 1389.246094 C 1305.382812 1396.90625 1304.410156 1404.457031 1303.457031 1412.066406 C 1302.859375 1416.792969 1302.277344 1421.523438 1301.496094 1426.230469 C 1300.632812 1431.316406 1298.933594 1435.96875 1296.207031 1440.359375 C 1287.308594 1454.601562 1271.179688 1462.621094 1255.648438 1467.480469 C 1238.4375 1472.863281 1220.664062 1475.179688 1202.886719 1477.796875 C 1180.703125 1481.046875 1158.519531 1484.523438 1136.222656 1486.933594 C 1113.832031 1489.363281 1091.40625 1490.578125 1068.902344 1490.917969 C 1055.183594 1491.101562 1041.484375 1491.570312 1027.785156 1492.28125 C 1012.535156 1493.085938 997.265625 1493.363281 982.015625 1494.316406 C 971.792969 1495.066406 961.589844 1496.148438 951.382812 1497.027344 C 938.84375 1498.09375 926.300781 1498.636719 913.742188 1499.066406 C 896.847656 1499.644531 879.933594 1499.925781 863.039062 1499.980469 C 861.9375 1500 860.8125 1500 859.710938 1500 C 852.816406 1500 845.917969 1499.925781 839.003906 1499.699219 Z M 944.300781 635.011719 C 945.984375 647.945312 947.027344 661.4375 944.675781 674.335938 C 943.179688 682.632812 940.804688 690.855469 937.570312 698.648438 C 934.65625 705.675781 930.097656 712.683594 923.796875 717.113281 C 918.339844 720.964844 912.265625 723.132812 905.835938 724.777344 C 897.390625 726.925781 888.921875 729 880.550781 731.503906 C 874.496094 733.320312 868.476562 735.226562 862.515625 737.261719 C 849.824219 741.671875 837.453125 746.773438 825.679688 752.585938 C 825.585938 752.644531 825.492188 752.699219 825.398438 752.738281 C 825.398438 752.738281 825.25 752.8125 825.25 752.8125 C 819.117188 755.953125 813.042969 759.390625 807.566406 762.996094 C 807.304688 763.183594 807.042969 763.351562 806.78125 763.539062 C 806.78125 763.539062 806.632812 763.632812 806.632812 763.632812 C 803.363281 765.894531 800.242188 768.378906 797.214844 770.941406 C 793.328125 774.417969 789.644531 778.078125 786.148438 781.910156 C 783.496094 784.976562 780.972656 788.171875 778.636719 791.480469 C 776.636719 794.546875 774.878906 797.722656 773.199219 800.972656 C 771.367188 804.710938 769.703125 808.523438 768.300781 812.449219 C 766.804688 817.011719 765.535156 821.609375 764.527344 826.300781 C 763.085938 833.757812 762.394531 841.289062 762.003906 847.25 C 761.21875 859.34375 761.085938 871.453125 760.453125 883.542969 C 759.777344 896.402344 758.957031 909.1875 759.722656 922.0625 C 761.3125 943.78125 765.3125 965.199219 767.703125 986.824219 C 770.039062 1007.980469 771.292969 1029.378906 770.433594 1050.683594 C 769.628906 1070.289062 768.019531 1090.476562 761.554688 1109.144531 C 758.058594 1119.21875 753.199219 1128.769531 748.230469 1138.171875 C 743.648438 1146.785156 739.035156 1155.363281 734.773438 1163.792969 C 734.566406 1164.207031 734.359375 1164.597656 734.175781 1164.988281 C 734.136719 1165.066406 734.097656 1165.121094 734.097656 1165.160156 C 730.34375 1172.652344 726.71875 1180.183594 723.894531 1188.070312 C 722.136719 1193.304688 720.71875 1198.648438 719.578125 1204.070312 C 718.773438 1208.21875 718.175781 1212.367188 717.859375 1216.574219 C 717.707031 1219.246094 717.726562 1221.898438 717.859375 1224.554688 C 718.308594 1230.851562 719 1237.148438 719.671875 1243.429688 C 720.363281 1250.121094 721.128906 1256.8125 722.417969 1263.390625 C 723.519531 1268.566406 724.847656 1273.6875 726.53125 1278.695312 C 727.6875 1281.816406 729.035156 1284.847656 730.511719 1287.816406 C 732.976562 1292.640625 735.574219 1297.40625 738.117188 1302.171875 C 741.835938 1309.140625 745.40625 1316.167969 748.863281 1323.046875 C 752.210938 1329.71875 755.574219 1336.390625 758.507812 1343.269531 C 760.414062 1347.71875 762.078125 1352.257812 763.050781 1357.007812 C 764.152344 1362.351562 764.621094 1367.734375 764.058594 1373.171875 C 763.367188 1379.714844 760.171875 1385.65625 756.152344 1390.742188 C 751.5 1396.609375 746.585938 1402.160156 742.339844 1408.289062 C 741.035156 1410.289062 739.800781 1412.328125 738.695312 1414.4375 C 738.175781 1415.542969 737.707031 1416.644531 737.296875 1417.785156 C 737.015625 1418.679688 736.773438 1419.578125 736.546875 1420.496094 C 736.34375 1421.710938 736.191406 1422.90625 736.082031 1424.121094 C 736.023438 1425.09375 736.023438 1426.046875 736.0625 1427.015625 C 736.136719 1427.820312 736.25 1428.625 736.378906 1429.410156 C 736.546875 1430.101562 736.734375 1430.773438 736.941406 1431.425781 C 737.296875 1432.378906 737.707031 1433.316406 738.15625 1434.25 C 739.257812 1436.34375 740.472656 1438.378906 741.78125 1440.378906 C 743.238281 1442.453125 744.769531 1444.453125 746.414062 1446.378906 C 748.433594 1448.585938 750.546875 1450.679688 752.769531 1452.675781 C 756.320312 1455.761719 760.023438 1458.734375 763.910156 1461.441406 C 766.058594 1462.824219 768.28125 1464.058594 770.5625 1465.238281 C 773.140625 1466.488281 775.796875 1467.554688 778.523438 1468.527344 C 781.71875 1469.589844 784.992188 1470.46875 788.28125 1471.21875 C 800.617188 1473.589844 813.25 1474.28125 824.125 1475.011719 C 841.378906 1476.171875 858.644531 1476.132812 875.914062 1475.964844 C 894.269531 1475.796875 912.640625 1475.328125 930.976562 1474.46875 C 933.722656 1474.339844 936.488281 1474.1875 939.253906 1474.003906 C 950.394531 1473.21875 961.476562 1472.003906 972.613281 1471.085938 C 983.042969 1470.207031 993.492188 1469.761719 1003.957031 1469.40625 C 1024.910156 1468.695312 1045.804688 1467.347656 1066.753906 1467.011719 C 1080.472656 1466.808594 1094.171875 1466.433594 1106.246094 1465.628906 C 1127.832031 1464.132812 1149.285156 1461.386719 1170.6875 1458.285156 C 1181.636719 1456.695312 1192.589844 1455.105469 1203.523438 1453.519531 C 1213.128906 1452.136719 1222.738281 1450.808594 1232.25 1448.941406 C 1238.921875 1447.539062 1245.519531 1445.726562 1251.96875 1443.558594 C 1255.011719 1442.492188 1258.003906 1441.277344 1260.902344 1439.875 C 1262.824219 1438.886719 1264.675781 1437.78125 1266.46875 1436.605469 C 1268.453125 1435.242188 1270.339844 1433.78125 1272.171875 1432.230469 C 1272.730469 1431.707031 1273.292969 1431.164062 1273.832031 1430.605469 C 1274.339844 1429.96875 1274.824219 1429.316406 1275.292969 1428.660156 C 1275.796875 1427.875 1276.28125 1427.074219 1276.75 1426.25 C 1276.917969 1425.894531 1277.066406 1425.539062 1277.214844 1425.167969 C 1277.402344 1424.570312 1277.554688 1423.96875 1277.703125 1423.371094 C 1278.84375 1417 1279.476562 1410.570312 1280.375 1404.179688 C 1281.027344 1399.414062 1281.535156 1394.628906 1281.890625 1389.824219 C 1282.09375 1386.589844 1282.300781 1383.300781 1282.1875 1380.050781 C 1282.152344 1379.488281 1282.074219 1378.949219 1282 1378.386719 C 1282 1378.386719 1282 1378.386719 1281.984375 1378.367188 C 1281.964844 1378.332031 1281.925781 1378.292969 1281.90625 1378.257812 C 1280.617188 1376.855469 1279.253906 1375.488281 1278.078125 1373.976562 C 1275.890625 1371.210938 1274.824219 1368.03125 1274.132812 1364.632812 C 1273.570312 1361.808594 1273.589844 1358.835938 1273.570312 1355.960938 C 1273.554688 1352.933594 1273.554688 1349.921875 1273.554688 1346.914062 C 1273.535156 1338.558594 1273.515625 1330.1875 1273.757812 1321.832031 C 1274.113281 1309.648438 1275.140625 1297.515625 1275.851562 1286.996094 C 1276.339844 1279.800781 1276.523438 1272.566406 1276.09375 1265.371094 C 1275.628906 1259.671875 1274.785156 1253.988281 1273.664062 1248.382812 C 1271.664062 1238.71875 1269.253906 1229.113281 1267.253906 1219.433594 C 1265.292969 1210.144531 1263.179688 1200.910156 1260.171875 1191.882812 C 1255.835938 1179.550781 1250.472656 1167.679688 1244.621094 1155.980469 C 1234.25 1135.273438 1224.773438 1114.304688 1218.234375 1092.046875 C 1215.113281 1081.390625 1212.363281 1070.609375 1210.738281 1059.617188 C 1209.261719 1049.601562 1208.457031 1039.507812 1207.1875 1029.453125 C 1204.777344 1010.390625 1201.058594 991.457031 1197.710938 972.527344 C 1194.140625 952.339844 1193.375 931.6875 1192.066406 912.066406 C 1191.113281 897.878906 1189.582031 883.75 1187.433594 869.695312 C 1185.449219 856.800781 1183.65625 843.8125 1181.152344 830.988281 C 1180.386719 827.402344 1179.453125 823.871094 1178.292969 820.394531 C 1176.257812 814.710938 1173.695312 809.214844 1171.042969 803.816406 C 1168.910156 799.648438 1166.554688 795.628906 1164.332031 792.191406 C 1164.164062 791.964844 1164.015625 791.742188 1163.847656 791.5 C 1163.847656 791.5 1163.769531 791.386719 1163.769531 791.386719 C 1160.035156 785.96875 1155.976562 780.769531 1151.679688 775.761719 C 1144.464844 767.632812 1136.578125 760.101562 1128.410156 752.925781 C 1117.289062 743.28125 1105.253906 734.476562 1095.179688 723.730469 C 1089.984375 718.199219 1085.257812 712.3125 1081.59375 705.640625 C 1078.917969 700.824219 1076.824219 695.757812 1075.328125 690.492188 C 1075.40625 690.25 1075.449219 689.996094 1075.445312 689.734375 C 1075.4375 689.128906 1075.199219 688.582031 1074.824219 688.164062 C 1074.847656 687.804688 1074.820312 687.4375 1074.789062 687.082031 C 1074.679688 686.054688 1074.527344 685.007812 1074.359375 683.976562 C 1074.042969 682.070312 1073.78125 680.148438 1073.3125 678.277344 C 1073.21875 677.902344 1073.128906 677.550781 1073.050781 677.175781 C 1073.050781 677.15625 1073.050781 677.136719 1073.070312 677.121094 C 1073.183594 676.578125 1073.109375 676.035156 1073.035156 675.492188 C 1072.996094 675.027344 1072.941406 674.578125 1072.882812 674.109375 C 1072.789062 673.304688 1072.808594 672.390625 1072.472656 671.625 C 1072.4375 671.175781 1072.398438 670.726562 1072.359375 670.277344 C 1071.96875 665.664062 1071.539062 661.046875 1070.996094 656.449219 C 1070.082031 648.878906 1069.015625 641.347656 1068.566406 633.722656 C 1063.839844 634.339844 1059.074219 634.582031 1054.308594 634.710938 C 1045.429688 634.957031 1036.550781 634.882812 1027.675781 634.769531 C 1016.871094 634.65625 1006.070312 634.433594 995.304688 633.535156 C 982.96875 632.507812 970.800781 630.414062 958.652344 628.132812 C 953.269531 627.144531 947.90625 626.097656 942.582031 624.917969 C 943.214844 628.265625 943.851562 631.628906 944.300781 635.011719 Z M 944.300781 635.011719 "/>
<path fill-rule="nonzero" fill="rgb(0%, 0%, 0%)" fill-opacity="1" d="M 1110.730469 700.214844 C 1099.796875 698.664062 1089.066406 695.671875 1078.675781 691.917969 C 1077.394531 691.742188 1076.222656 691.378906 1075.171875 690.867188 C 1075.347656 690.527344 1075.449219 690.144531 1075.441406 689.75 C 1075.433594 689.144531 1075.203125 688.601562 1074.832031 688.1875 C 1074.847656 687.824219 1074.828125 687.453125 1074.789062 687.09375 C 1074.675781 686.066406 1074.527344 685.019531 1074.359375 683.992188 C 1074.042969 682.085938 1073.78125 680.160156 1073.3125 678.292969 C 1073.21875 677.898438 1073.144531 677.527344 1073.050781 677.152344 C 1073.050781 677.132812 1073.050781 677.132812 1073.050781 677.113281 C 1073.164062 676.574219 1073.089844 676.03125 1073.011719 675.488281 C 1072.976562 675.019531 1072.921875 674.574219 1072.863281 674.105469 C 1072.769531 673.207031 1072.789062 672.144531 1072.304688 671.320312 C 1072.976562 670.683594 1073.742188 670.125 1074.601562 669.636719 C 1078.601562 666.964844 1083.796875 667.808594 1087.851562 669.808594 C 1098.859375 673.621094 1108.933594 676.292969 1120.167969 677.171875 C 1129.699219 677.226562 1141.0625 679.46875 1148.855469 672.683594 C 1155.566406 662.03125 1158.875 649.042969 1158.089844 636.484375 C 1155.117188 616.113281 1152.238281 593.535156 1139.210938 576.902344 C 1132.855469 568.863281 1122.707031 566.265625 1113.605469 562.605469 C 1095.945312 555.914062 1080.300781 545.464844 1063.96875 536.195312 C 1040.753906 524.871094 1013.300781 519.132812 988.519531 528.738281 C 971.941406 535.542969 950.765625 541.296875 943.402344 559.40625 C 941.382812 568.585938 939.328125 578.058594 939.140625 587.480469 C 939.644531 593.574219 942.765625 599.03125 944.730469 604.730469 C 950.429688 619.382812 929.011719 628.371094 922.695312 614.039062 C 916.246094 600.375 912.882812 585.085938 917.144531 570.304688 C 918.28125 555.632812 923.199219 541.148438 934.207031 530.945312 C 963.34375 507.375 1004.199219 493.621094 1041.351562 502.945312 C 1064.828125 507.449219 1084.675781 520.609375 1104.917969 532.363281 C 1133.195312 545.988281 1157.507812 548.960938 1169.863281 582.320312 C 1180.460938 612.484375 1188.851562 647.265625 1173.582031 677.320312 C 1166.421875 696.4375 1147.417969 701.558594 1128.707031 701.578125 C 1122.539062 701.578125 1116.410156 701.019531 1110.730469 700.214844 Z M 1110.730469 700.214844 "/>
<path fill-rule="nonzero" fill="rgb(0%, 0%, 0%)" fill-opacity="1" d="M 1045.769531 594.847656 C 1041.789062 593.757812 1038.796875 590.660156 1037.585938 586.941406 C 1028.265625 587.347656 1019.46875 582.28125 1010.171875 583.671875 C 1000.128906 584.90625 989.363281 593.371094 979.496094 588.679688 C 974.261719 585.449219 972.414062 579.390625 974.507812 573.691406 C 976.019531 569.621094 980.078125 566.953125 984.285156 566.335938 C 993.203125 563.675781 1002.074219 560.261719 1011.398438 559.507812 C 1019.878906 558.851562 1027.808594 561.9375 1036.078125 562.960938 C 1042.875 563.042969 1050.105469 561.859375 1055.917969 566.273438 C 1067.714844 574.070312 1061.210938 598.90625 1045.769531 594.847656 Z M 1045.769531 594.847656 "/>
<path fill-rule="nonzero" fill="rgb(0%, 0%, 0%)" fill-opacity="1" d="M 1000.28125 727.941406 C 977.105469 725.625 953.894531 722.296875 931.277344 716.671875 C 925.203125 715.382812 918.066406 713.738281 916.347656 706.710938 C 913.449219 696.1875 925.113281 688.46875 934.363281 692.730469 C 969.910156 700.84375 1007.363281 708.785156 1043.714844 701.683594 C 1053.835938 699.453125 1063.816406 696.367188 1073.292969 692.140625 C 1073.804688 692.085938 1074.269531 691.863281 1074.636719 691.53125 C 1080.558594 688.808594 1087.84375 692.0625 1090.308594 697.910156 C 1092.90625 704.058594 1089.859375 710.859375 1083.953125 713.589844 C 1062.207031 723.539062 1038.238281 728.515625 1014.332031 728.515625 C 1009.636719 728.515625 1004.949219 728.324219 1000.28125 727.941406 Z M 1000.28125 727.941406 "/>
<path fill-rule="nonzero" fill="rgb(0%, 0%, 0%)" fill-opacity="1" d="M 1165.496094 772.734375 C 1169.195312 779.613281 1166.464844 784.660156 1161.683594 788.472656 C 1157.457031 791.890625 1151.644531 794.359375 1147.234375 796.378906 C 1121.425781 810.1875 1092.660156 815.554688 1063.84375 818.824219 C 1023.210938 823.90625 982.28125 827.71875 941.332031 825.777344 C 889.46875 824.992188 840.035156 806.265625 796.902344 778.210938 C 794.472656 778.34375 792.378906 777.949219 790.65625 777.164062 C 779.59375 772.230469 782.769531 751.878906 798.394531 754.71875 C 803.21875 755.410156 807.589844 757.765625 811.851562 760.269531 C 813.925781 761.503906 816 762.753906 818.074219 763.859375 C 835.363281 774.023438 853.53125 782.714844 872.40625 789.5 C 912.8125 803.871094 956.621094 803.5 998.933594 801.3125 C 1037.003906 797.742188 1075.824219 795.609375 1112.789062 785.238281 C 1122.863281 781.386719 1133.03125 776.714844 1142.636719 772.042969 C 1143.796875 771.277344 1145.011719 770.546875 1146.246094 769.875 C 1152.992188 766.269531 1160.449219 764.753906 1165.496094 772.734375 Z M 1165.496094 772.734375 "/>
<path fill-rule="nonzero" fill="rgb(0%, 0%, 0%)" fill-opacity="1" d="M 1201.042969 966.84375 C 1216.480469 965.179688 1219.917969 988.152344 1204.277344 990.5625 C 1203.171875 990.65625 1202.070312 990.75 1200.984375 990.839844 C 1199.285156 990.992188 1197.585938 991.121094 1195.882812 991.234375 C 1192.144531 991.515625 1188.445312 991.738281 1184.800781 991.945312 C 1184.277344 991.980469 1183.734375 992.019531 1183.210938 992.039062 C 1181.382812 992.148438 1179.550781 992.242188 1177.753906 992.355469 C 1175.4375 992.488281 1173.15625 992.617188 1170.933594 992.746094 C 1169.4375 992.839844 1167.980469 992.933594 1166.542969 993.027344 C 1111.425781 997.757812 1055.246094 1005.886719 1000.074219 1007.90625 C 953.425781 1010.539062 906.777344 1015.34375 860.035156 1013.082031 C 853.082031 1012.578125 844.558594 1012.277344 835.25 1011.886719 C 834.410156 1011.847656 833.589844 1011.8125 832.726562 1011.773438 C 832.410156 1011.753906 832.09375 1011.738281 831.773438 1011.738281 C 830.804688 1011.679688 829.832031 1011.644531 828.839844 1011.605469 C 822.953125 1011.324219 816.824219 1010.988281 810.675781 1010.539062 C 809.648438 1010.464844 808.617188 1010.390625 807.589844 1010.296875 C 805.535156 1010.148438 803.480469 1009.960938 801.441406 1009.773438 C 799.742188 1009.605469 798.023438 1009.4375 796.339844 1009.25 C 795.964844 1009.214844 795.609375 1009.175781 795.238281 1009.121094 C 793.238281 1008.894531 791.238281 1008.652344 789.273438 1008.371094 C 788.285156 1008.261719 787.292969 1008.109375 786.304688 1007.960938 C 785.3125 1007.8125 784.324219 1007.664062 783.351562 1007.492188 C 782.378906 1007.34375 781.40625 1007.195312 780.453125 1007.007812 C 779.5 1006.839844 778.546875 1006.671875 777.613281 1006.484375 C 775.726562 1006.128906 773.875 1005.738281 772.0625 1005.308594 C 771.144531 1005.101562 770.25 1004.878906 769.371094 1004.652344 C 759.914062 1002.261719 751.746094 999.027344 745.859375 994.578125 C 745.09375 993.609375 744.53125 992.597656 744.140625 991.570312 C 744.140625 991.570312 744.140625 991.570312 744.140625 991.550781 C 743.449219 989.738281 743.28125 987.851562 743.542969 986.074219 C 743.542969 986.058594 743.542969 986.058594 743.542969 986.039062 C 744.605469 978.542969 752.925781 972.339844 760.847656 976.695312 C 762.792969 977.480469 764.753906 978.1875 766.734375 978.84375 C 784.097656 984.582031 802.804688 985.570312 820.917969 987.253906 C 877.957031 992.242188 936.828125 988.335938 993.515625 984.429688 C 1054.945312 982.46875 1115.6875 972.433594 1176.953125 968.46875 C 1184.765625 968.058594 1190.296875 967.816406 1196.835938 967.238281 C 1198.183594 967.125 1199.585938 966.992188 1201.042969 966.84375 Z M 1201.042969 966.84375 "/>
<path fill-rule="nonzero" fill="rgb(0%, 0%, 0%)" fill-opacity="1" d="M 809.832031 1414.023438 C 809.832031 1407.5 815.273438 1402.0625 821.792969 1402.0625 C 828.316406 1402.0625 833.757812 1407.5 833.757812 1414.023438 C 833.757812 1420.546875 828.316406 1425.984375 821.792969 1425.984375 C 815.273438 1425.984375 809.832031 1420.546875 809.832031 1414.023438 Z M 809.832031 1414.023438 "/>
<path fill-rule="nonzero" fill="rgb(0%, 0%, 0%)" fill-opacity="1" d="M 783.457031 1487.992188 C 775.214844 1487.527344 767.085938 1486.125 759.070312 1484.105469 C 744.050781 1479.589844 750.160156 1457.285156 765.441406 1461.042969 C 787.617188 1466.949219 843.109375 1466.925781 844.515625 1435.621094 C 845.433594 1423.179688 841.988281 1409.59375 831.703125 1401.71875 C 846.65625 1412.46875 843.144531 1436.390625 828.015625 1445.253906 C 813.820312 1451.953125 791.679688 1458.019531 779.214844 1445.234375 C 761.652344 1424.515625 772.964844 1391.992188 796.296875 1381.015625 C 824.078125 1364.816406 856.910156 1380.320312 865.429688 1410.542969 C 882.394531 1469.253906 833.644531 1490.105469 783.457031 1487.992188 Z M 798.964844 1428.625 C 804.949219 1427.257812 816.140625 1428.390625 817.539062 1420.816406 C 812.480469 1414.914062 805.511719 1408.648438 810.96875 1400.457031 C 799.9375 1404.59375 790.1875 1416.835938 796.457031 1428.605469 C 796.460938 1428.609375 796.464844 1428.613281 796.46875 1428.621094 C 797.296875 1428.714844 798.128906 1428.648438 798.964844 1428.625 Z M 798.964844 1428.625 "/>
<path fill-rule="nonzero" fill="rgb(0%, 0%, 0%)" fill-opacity="1" d="M 1047.410156 1400.882812 C 983.875 1401.257812 920.507812 1395.144531 856.960938 1397.179688 C 842.613281 1405.617188 828.085938 1381.652344 846.402344 1376.082031 C 922.121094 1368.609375 998.292969 1379.746094 1074.191406 1376.550781 C 1128.574219 1372.574219 1184.242188 1372.855469 1238.117188 1366.230469 C 1255.828125 1364.109375 1272.179688 1349.132812 1290.28125 1353.601562 C 1296.316406 1356.046875 1299.15625 1363.335938 1296.652344 1369.28125 C 1294.453125 1374.441406 1289 1377.210938 1283.699219 1376.390625 C 1273.390625 1378.957031 1263.921875 1384.058594 1253.703125 1386.941406 C 1223.933594 1395.007812 1192.664062 1393.453125 1162.125 1395.820312 C 1123.855469 1397.128906 1085.71875 1401.109375 1047.410156 1400.882812 Z M 1047.410156 1400.882812 "/>
<path fill-rule="nonzero" fill="rgb(0%, 0%, 0%)" fill-opacity="1" d="M 828.46875 1375.292969 C 828.574219 1375.300781 828.675781 1375.300781 828.777344 1375.296875 C 829.03125 1375.40625 829.304688 1375.472656 829.582031 1375.492188 C 829.535156 1375.496094 829.488281 1375.5 829.441406 1375.5 C 829.105469 1375.5 828.769531 1375.425781 828.46875 1375.292969 Z M 828.46875 1375.292969 "/>
</svg>
