<?xml version="1.0" encoding="UTF-8"?>
<!-- Created by grConvert v0.1-0 -->
<svg xmlns="http://www.w3.org/2000/svg" xmlns:xlink="http://www.w3.org/1999/xlink" width="2000" height="2000" viewBox="0 0 2000 2000">
<path fill-rule="nonzero" fill="rgb(0%, 79.215688%, 93.725491%)" fill-opacity="1" d="M 1443.210938 996.1875 C 1443.617188 1029.746094 1444.046875 1063.277344 1444.476562 1096.835938 C 1381.234375 1097.554688 1318.015625 1098.269531 1254.75 1099.011719 C 1213.902344 1099.488281 1173.007812 1099.871094 1132.136719 1100.421875 C 1131.945312 1100.421875 1131.753906 1100.421875 1131.5625 1100.421875 C 1131.539062 1100.421875 1131.539062 1100.421875 1131.515625 1100.421875 C 1131.230469 1100.445312 1130.941406 1100.445312 1130.65625 1100.445312 C 1130.585938 1100.445312 1130.535156 1100.445312 1130.464844 1100.445312 C 1123.175781 1100.539062 1116.457031 1102.429688 1110.890625 1107.375 C 1105.390625 1112.277344 1102.023438 1119.328125 1101.6875 1126.6875 C 1101.566406 1129.484375 1101.902344 1132.28125 1102.667969 1134.980469 C 1102.355469 1155.273438 1102.09375 1175.519531 1101.808594 1195.785156 C 1100.898438 1259.050781 1100.015625 1322.320312 1099.128906 1385.585938 C 1098.890625 1402.792969 1098.652344 1420.003906 1098.390625 1437.1875 C 1064.640625 1437.640625 1030.917969 1438.09375 997.167969 1438.597656 C 966.050781 1439.027344 934.90625 1439.457031 903.738281 1439.886719 C 903.238281 1405.804688 902.6875 1371.746094 902.160156 1337.6875 C 901.132812 1269.089844 900.105469 1200.496094 899.03125 1131.898438 C 899.03125 1131.300781 898.984375 1130.726562 898.933594 1130.152344 C 899.125 1129.175781 899.222656 1128.171875 899.269531 1127.167969 C 899.988281 1112.777344 888.179688 1098.222656 873.144531 1098.269531 C 860.859375 1098.316406 848.574219 1098.390625 836.289062 1098.4375 C 765.636719 1098.746094 695.011719 1099.058594 624.359375 1099.34375 C 601.75 1099.464844 579.160156 1099.535156 556.574219 1099.632812 C 556.433594 1081.0625 556.3125 1062.488281 556.191406 1043.894531 C 555.882812 998.890625 555.59375 953.90625 555.261719 908.925781 C 560.230469 908.878906 565.203125 908.828125 570.199219 908.78125 C 622.089844 908.304688 673.976562 907.824219 725.867188 907.347656 C 775.34375 906.917969 824.816406 906.007812 874.292969 906.007812 C 881.558594 906.007812 888.347656 904.074219 893.914062 899.199219 C 899.4375 894.34375 902.855469 887.292969 903.238281 879.933594 C 903.378906 877.257812 903.070312 874.53125 902.351562 871.902344 C 902.375 871.351562 902.375 870.828125 902.375 870.277344 C 901.96875 832.226562 901.539062 794.175781 901.132812 756.125 C 900.65625 712.101562 900.203125 668.050781 899.722656 624 C 899.484375 603.0625 899.269531 582.148438 899.03125 561.210938 C 929.121094 561.019531 959.1875 560.804688 989.304688 560.613281 C 1024.941406 560.375 1060.601562 560.160156 1096.261719 559.921875 C 1096.261719 563.746094 1096.285156 567.546875 1096.285156 571.347656 C 1096.40625 624.550781 1096.550781 677.753906 1096.667969 730.957031 C 1096.789062 782.34375 1096.929688 833.757812 1097.050781 885.144531 C 1097.050781 888.945312 1098.773438 895.636719 1103.601562 901.300781 C 1108.378906 906.917969 1115.40625 910.429688 1122.769531 910.910156 C 1123.292969 910.933594 1123.820312 910.957031 1124.347656 910.957031 C 1126.066406 910.957031 1127.789062 910.789062 1129.484375 910.429688 C 1129.507812 910.429688 1129.507812 910.429688 1129.53125 910.429688 C 1149.5625 910.480469 1169.566406 910.503906 1189.621094 910.574219 C 1241.199219 910.695312 1292.777344 910.8125 1344.355469 910.910156 C 1376.933594 910.980469 1409.535156 911.125 1442.109375 911.195312 C 1442.515625 939.519531 1442.875 967.839844 1443.210938 996.1875 Z M 1443.210938 996.1875 "/>
</svg>
