<?xml version="1.0" encoding="UTF-8"?>
<!-- Created by grConvert v0.1-0 -->
<svg xmlns="http://www.w3.org/2000/svg" xmlns:xlink="http://www.w3.org/1999/xlink" width="2000" height="2000" viewBox="0 0 2000 2000">
<path fill-rule="nonzero" fill="rgb(0%, 79.215688%, 93.725491%)" fill-opacity="1" d="M 1430.863281 1285.976562 C 1411.011719 1306.914062 1391.183594 1327.875 1371.351562 1348.8125 C 1345.390625 1376.257812 1319.410156 1403.679688 1293.449219 1431.125 C 1288.402344 1426.175781 1283.355469 1421.222656 1278.289062 1416.273438 C 1241.105469 1379.890625 1203.921875 1343.484375 1166.714844 1307.105469 C 1117.789062 1259.238281 1068.863281 1211.421875 1019.984375 1163.535156 C 1019.960938 1163.535156 1019.960938 1163.511719 1019.960938 1163.511719 C 1019.609375 1163.15625 1019.230469 1162.804688 1018.878906 1162.449219 C 1013.738281 1157.425781 1007.042969 1154.738281 1000.273438 1154.503906 C 1000.25 1154.503906 1000.203125 1154.503906 1000.15625 1154.503906 C 992.351562 1153.796875 984.289062 1156.390625 978.417969 1162.285156 C 978.0625 1162.636719 977.710938 1162.992188 977.355469 1163.347656 C 977.261719 1163.441406 977.167969 1163.511719 977.097656 1163.605469 C 977.050781 1163.675781 977.003906 1163.722656 976.929688 1163.769531 C 961.582031 1179.191406 946.207031 1194.585938 930.835938 1210.007812 C 886.390625 1254.617188 841.921875 1299.207031 797.476562 1343.816406 C 767.4375 1373.949219 737.421875 1404.152344 707.3125 1434.285156 C 689.792969 1417.050781 672.296875 1399.816406 654.753906 1382.554688 C 625.492188 1353.742188 596.257812 1324.859375 566.949219 1296.09375 C 571.003906 1291.988281 575.082031 1287.886719 579.164062 1283.785156 C 636.035156 1226.511719 692.882812 1169.265625 749.730469 1112.015625 C 775.925781 1085.632812 802.050781 1059.152344 828.316406 1032.839844 C 829.496094 1031.328125 830.769531 1029.867188 831.996094 1028.382812 C 832.324219 1028.003906 832.632812 1027.628906 832.960938 1027.25 C 833.644531 1026.425781 834.351562 1025.601562 835.058594 1024.796875 C 835.296875 1024.515625 835.53125 1024.234375 835.765625 1023.949219 C 838.148438 1021.050781 840.554688 1018.148438 842.980469 1015.273438 C 845.410156 1012.394531 847.886719 1009.542969 850.386719 1006.714844 C 850.457031 1006.621094 850.550781 1006.523438 850.621094 1006.429688 C 852.058594 997.847656 849.347656 988.675781 842.792969 982.121094 C 834.328125 973.632812 825.863281 965.121094 817.375 956.632812 C 781.347656 920.488281 745.296875 884.339844 709.246094 848.195312 C 661.898438 800.683594 614.484375 753.199219 567.136719 705.664062 C 579.941406 692.484375 592.742188 679.28125 605.546875 666.097656 C 637.660156 633.019531 669.632812 599.796875 701.839844 566.761719 C 715.117188 579.824219 728.367188 592.886719 741.640625 605.972656 C 783.046875 646.742188 824.425781 687.507812 865.828125 728.277344 C 901.480469 763.40625 937.15625 798.5625 972.828125 833.671875 C 972.851562 833.71875 972.875 833.789062 972.898438 833.835938 C 972.992188 833.882812 973.066406 833.953125 973.160156 834 C 973.605469 834.285156 974.054688 834.589844 974.480469 834.898438 C 974.761719 835.015625 975.046875 835.15625 975.328125 835.296875 C 975.871094 835.582031 976.390625 835.886719 976.90625 836.21875 C 976.90625 836.21875 976.929688 836.21875 976.929688 836.21875 C 977.449219 836.570312 977.945312 836.925781 978.417969 837.300781 C 979.171875 837.84375 979.902344 838.457031 980.632812 839.046875 C 982.875 840.886719 985.066406 842.84375 987.210938 844.824219 C 988.671875 846.027344 990.113281 847.230469 991.550781 848.429688 C 992.140625 848.925781 992.730469 849.421875 993.320312 849.917969 C 993.742188 850.269531 994.167969 850.648438 994.566406 851 C 997.160156 851.78125 999.851562 852.15625 1002.539062 852.15625 C 1002.65625 852.15625 1002.796875 852.15625 1002.914062 852.15625 C 1004.847656 850.363281 1006.804688 848.597656 1008.785156 846.851562 C 1008.808594 846.851562 1008.808594 846.828125 1008.832031 846.828125 C 1012.324219 843.738281 1015.859375 840.699219 1019.371094 837.65625 C 1021.519531 835.792969 1023.617188 833.953125 1025.761719 832.066406 C 1025.761719 832.066406 1025.785156 832.066406 1025.785156 832.066406 C 1027.082031 830.792969 1028.378906 829.5 1029.675781 828.203125 C 1030.453125 827.445312 1031.257812 826.667969 1032.035156 825.914062 C 1033.921875 824.074219 1035.785156 822.140625 1037.742188 820.300781 C 1068.203125 790.335938 1098.644531 760.34375 1129.082031 730.375 C 1165.535156 694.488281 1202.011719 658.578125 1238.464844 622.691406 C 1255.863281 605.527344 1273.242188 588.382812 1290.667969 571.265625 C 1292.035156 572.679688 1293.425781 574.097656 1294.816406 575.511719 C 1324.855469 606.257812 1354.917969 636.957031 1384.980469 667.679688 C 1399.363281 682.367188 1413.746094 697.082031 1428.128906 711.769531 C 1380.738281 758.832031 1333.296875 805.847656 1285.902344 852.886719 C 1245.347656 893.113281 1204.839844 933.433594 1164.214844 973.585938 C 1163.789062 973.988281 1163.390625 974.386719 1162.988281 974.8125 C 1162.964844 974.8125 1162.941406 974.835938 1162.941406 974.859375 C 1162.800781 975 1162.660156 975.140625 1162.519531 975.285156 C 1162.519531 975.285156 1162.492188 975.285156 1162.492188 975.285156 C 1162.375 975.425781 1162.234375 975.542969 1162.117188 975.683594 C 1154.761719 982.992188 1152.519531 993.792969 1155.46875 1003.222656 C 1156.082031 1009.214844 1158.628906 1015.039062 1163.128906 1019.515625 C 1163.128906 1019.515625 1163.152344 1019.539062 1163.179688 1019.5625 C 1191.847656 1048.117188 1220.566406 1076.671875 1249.285156 1105.25 C 1292.082031 1147.832031 1334.851562 1190.414062 1377.648438 1232.996094 C 1395.378906 1250.632812 1413.109375 1268.316406 1430.863281 1285.976562 Z M 1430.863281 1285.976562 "/>
</svg>
