<?xml version="1.0" encoding="UTF-8"?>
<!-- Created by grConvert v0.1-0 -->
<svg xmlns="http://www.w3.org/2000/svg" xmlns:xlink="http://www.w3.org/1999/xlink" width="2000" height="2000" viewBox="0 0 2000 2000">
<path fill-rule="nonzero" fill="rgb(0%, 0%, 0%)" fill-opacity="1" d="M 511.894531 1313.117188 C 501.378906 1302.742188 501.210938 1285.203125 511.632812 1274.710938 C 511.800781 1274.519531 511.988281 1274.355469 512.152344 1274.167969 C 512.246094 1274.074219 512.316406 1274 512.414062 1273.90625 C 512.90625 1273.414062 513.402344 1272.917969 513.898438 1272.398438 C 514.085938 1272.210938 514.273438 1272.019531 514.464844 1271.832031 C 566.429688 1219.394531 618.492188 1167.097656 670.507812 1114.703125 C 708.210938 1076.71875 745.933594 1038.734375 783.636719 1000.75 C 787.199219 997.164062 790.757812 993.558594 794.34375 989.972656 C 794.53125 989.785156 794.695312 989.621094 794.882812 989.429688 C 794.976562 989.335938 795.074219 989.242188 795.167969 989.148438 C 795.710938 988.605469 796.273438 988.039062 796.816406 987.472656 C 807.261719 976.980469 824.664062 976.792969 835.226562 987.214844 C 843.425781 995.285156 845.347656 1007.738281 840.859375 1017.804688 C 839.152344 1019.847656 837.453125 1021.898438 835.769531 1023.949219 C 835.535156 1024.234375 835.296875 1024.515625 835.0625 1024.800781 C 834.023438 1025.976562 833.011719 1027.179688 831.996094 1028.382812 C 830.769531 1029.863281 829.5 1031.324219 828.316406 1032.847656 C 802.035156 1059.152344 775.921875 1085.625 749.730469 1112.015625 C 692.882812 1169.265625 636.035156 1226.515625 579.164062 1283.785156 C 570.320312 1292.699219 561.480469 1301.589844 552.660156 1310.476562 C 552.636719 1310.5 552.613281 1310.523438 552.589844 1310.546875 C 552.09375 1311.066406 551.601562 1311.5625 551.105469 1312.035156 C 551.011719 1312.128906 550.941406 1312.222656 550.84375 1312.316406 C 550.65625 1312.480469 550.492188 1312.671875 550.304688 1312.835938 C 545.023438 1318.140625 537.972656 1320.828125 530.898438 1320.828125 C 524.011719 1320.828125 517.128906 1318.28125 511.894531 1313.117188 Z M 511.894531 1313.117188 "/>
<path fill-rule="nonzero" fill="rgb(0%, 0%, 0%)" fill-opacity="1" d="M 687.945312 1492.183594 C 677.476562 1481.738281 677.429688 1464.265625 687.875 1453.773438 C 724.46875 1417.179688 760.945312 1380.46875 797.46875 1343.828125 C 841.914062 1299.214844 886.382812 1254.628906 930.828125 1210.019531 C 946.203125 1194.597656 961.578125 1179.199219 976.933594 1163.78125 C 976.984375 1163.726562 977.035156 1163.667969 977.089844 1163.617188 C 977.167969 1163.519531 977.257812 1163.441406 977.339844 1163.363281 C 977.699219 1163 978.046875 1162.640625 978.410156 1162.296875 C 988.855469 1151.800781 1006.328125 1151.753906 1016.820312 1162.199219 C 1027.3125 1172.667969 1027.335938 1190.117188 1016.890625 1200.632812 C 988.972656 1228.714844 960.988281 1256.726562 933.023438 1284.785156 C 887.796875 1330.152344 842.574219 1375.539062 797.328125 1420.90625 C 773.679688 1444.648438 750.050781 1468.414062 726.378906 1492.113281 C 721.128906 1497.363281 714.117188 1500 707.109375 1500 C 700.148438 1500 693.1875 1497.398438 687.945312 1492.183594 Z M 687.945312 1492.183594 "/>
<path fill-rule="nonzero" fill="rgb(0%, 0%, 0%)" fill-opacity="1" d="M 685.75 1489.316406 C 670.988281 1474.792969 656.253906 1460.269531 641.492188 1445.746094 C 609.875 1414.621094 578.253906 1383.496094 546.636719 1352.351562 C 534.601562 1340.527344 522.613281 1328.679688 510.578125 1316.855469 C 510.570312 1316.851562 510.566406 1316.847656 510.558594 1316.839844 C 510.558594 1316.839844 510.535156 1316.839844 510.535156 1316.816406 C 500.019531 1306.394531 500.375 1288.6875 510.820312 1278.40625 C 521.5 1267.867188 538.6875 1268.339844 549.253906 1278.691406 C 584.480469 1313.257812 619.585938 1347.941406 654.742188 1382.554688 C 675.703125 1403.183594 696.640625 1423.792969 717.582031 1444.425781 C 719.867188 1446.664062 722.179688 1448.929688 724.464844 1451.167969 C 735.003906 1461.566406 734.582031 1479.320312 724.160156 1489.601562 C 718.921875 1494.769531 712.097656 1497.296875 705.261719 1497.296875 C 698.191406 1497.296875 691.109375 1494.59375 685.75 1489.316406 Z M 685.75 1489.316406 "/>
<path fill-rule="nonzero" fill="rgb(0%, 0%, 0%)" fill-opacity="1" d="M 1272.425781 1486.535156 C 1247.335938 1462.085938 1222.34375 1437.539062 1197.304688 1413.039062 C 1151.960938 1368.6875 1106.597656 1324.3125 1061.253906 1279.9375 C 1034.582031 1253.847656 1007.90625 1227.777344 981.253906 1201.683594 C 981.253906 1201.679688 981.25 1201.679688 981.25 1201.679688 C 980.882812 1201.320312 980.511719 1200.957031 980.144531 1200.597656 C 969.558594 1190.222656 970.03125 1172.421875 980.425781 1162.164062 C 991.109375 1151.625 1008.296875 1152.121094 1018.859375 1162.445312 C 1019.226562 1162.804688 1019.59375 1163.164062 1019.960938 1163.523438 C 1019.964844 1163.527344 1019.964844 1163.53125 1019.96875 1163.53125 C 1019.972656 1163.535156 1019.976562 1163.539062 1019.980469 1163.542969 C 1068.863281 1211.417969 1117.792969 1259.25 1166.699219 1307.101562 C 1203.90625 1343.484375 1241.089844 1379.890625 1278.273438 1416.269531 C 1289.238281 1426.976562 1300.152344 1437.703125 1311.117188 1448.410156 C 1321.726562 1458.734375 1321.210938 1476.585938 1310.835938 1486.816406 C 1305.585938 1491.996094 1298.785156 1494.511719 1291.976562 1494.511719 C 1284.898438 1494.515625 1277.808594 1491.796875 1272.425781 1486.535156 Z M 1272.425781 1486.535156 "/>
<path fill-rule="nonzero" fill="rgb(0%, 0%, 0%)" fill-opacity="1" d="M 1450.871094 1305.871094 C 1450.5625 1305.566406 1450.242188 1305.257812 1449.925781 1304.9375 C 1425.792969 1281.007812 1401.726562 1256.964844 1377.636719 1232.992188 C 1334.839844 1190.410156 1292.070312 1147.824219 1249.273438 1105.242188 C 1220.574219 1076.683594 1191.847656 1048.125 1163.171875 1019.566406 C 1163.171875 1019.5625 1163.167969 1019.558594 1163.164062 1019.558594 C 1163.140625 1019.535156 1163.117188 1019.511719 1163.117188 1019.511719 C 1152.625 1009.066406 1152.789062 991.453125 1163.234375 981.078125 C 1173.777344 970.609375 1191.199219 970.773438 1201.667969 981.21875 C 1201.691406 981.21875 1201.691406 981.242188 1201.714844 981.265625 C 1244.472656 1023.855469 1287.273438 1066.398438 1330.03125 1108.96875 C 1369.21875 1147.941406 1408.382812 1186.917969 1447.546875 1225.894531 C 1460.980469 1239.28125 1474.390625 1252.671875 1487.867188 1266.039062 C 1488 1266.164062 1488.132812 1266.292969 1488.265625 1266.425781 C 1488.667969 1266.828125 1489.042969 1267.203125 1489.445312 1267.605469 C 1499.9375 1278.027344 1499.75 1295.640625 1489.304688 1306.015625 C 1484.066406 1311.214844 1477.160156 1313.785156 1470.246094 1313.785156 C 1463.214844 1313.789062 1456.175781 1311.128906 1450.871094 1305.871094 Z M 1450.871094 1305.871094 "/>
<path fill-rule="nonzero" fill="rgb(0%, 0%, 0%)" fill-opacity="1" d="M 1280.574219 1483.402344 C 1269.84375 1472.816406 1270.199219 1455.746094 1280.335938 1444.992188 C 1280.382812 1444.921875 1280.429688 1444.875 1280.476562 1444.828125 C 1280.691406 1444.597656 1280.914062 1444.371094 1281.136719 1444.148438 C 1311.171875 1412.339844 1341.292969 1380.601562 1371.351562 1348.816406 C 1393.207031 1325.734375 1415.066406 1302.648438 1436.921875 1279.566406 C 1439.304688 1277.066406 1441.683594 1274.542969 1444.066406 1272.019531 C 1454.230469 1261.292969 1472.125 1261.550781 1482.476562 1271.785156 C 1493.179688 1282.371094 1492.875 1299.46875 1482.710938 1310.21875 C 1466.160156 1327.691406 1449.609375 1345.1875 1433.078125 1362.65625 C 1402.308594 1395.171875 1371.539062 1427.664062 1340.769531 1460.15625 C 1333.742188 1467.59375 1326.714844 1475.007812 1319.6875 1482.421875 C 1319.511719 1482.625 1319.332031 1482.828125 1319.148438 1483.027344 C 1319.101562 1483.074219 1319.027344 1483.121094 1318.980469 1483.167969 C 1313.90625 1488.539062 1306.894531 1491.15625 1299.863281 1491.15625 C 1292.8125 1491.15625 1285.742188 1488.527344 1280.574219 1483.402344 Z M 1280.574219 1483.402344 "/>
<path fill-rule="nonzero" fill="rgb(0%, 0%, 0%)" fill-opacity="1" d="M 1161.992188 1014.097656 C 1151.546875 1003.605469 1151.640625 986.113281 1162.109375 975.691406 C 1162.226562 975.546875 1162.367188 975.429688 1162.488281 975.289062 C 1162.488281 975.289062 1162.511719 975.289062 1162.511719 975.289062 C 1162.652344 975.148438 1162.792969 975.007812 1162.933594 974.863281 C 1162.933594 974.839844 1162.957031 974.816406 1162.980469 974.816406 C 1163.382812 974.394531 1163.785156 973.992188 1164.207031 973.589844 C 1204.832031 933.4375 1245.339844 893.117188 1285.898438 852.890625 C 1342.015625 797.199219 1398.203125 741.507812 1454.296875 685.789062 C 1454.296875 685.789062 1454.296875 685.789062 1454.320312 685.789062 C 1454.34375 685.742188 1454.390625 685.695312 1454.4375 685.671875 C 1459.335938 680.839844 1465.730469 678.257812 1472.203125 677.929688 C 1473.089844 678.902344 1473.984375 679.867188 1474.902344 680.816406 C 1476.316406 682.253906 1477.707031 683.691406 1479.171875 685.082031 C 1479.957031 685.824219 1480.722656 686.566406 1481.527344 687.285156 C 1483.308594 689.296875 1485.117188 691.28125 1487 693.195312 C 1488.601562 694.84375 1490.230469 696.496094 1491.878906 698.074219 C 1491.976562 698.167969 1492.074219 698.257812 1492.171875 698.347656 C 1492.183594 698.367188 1492.199219 698.386719 1492.210938 698.40625 C 1492.679688 699.136719 1493.152344 699.890625 1493.625 700.621094 C 1495.25 704.890625 1497.304688 709.039062 1499.261719 713.140625 C 1499.289062 713.199219 1499.316406 713.257812 1499.34375 713.316406 C 1498.128906 717.164062 1496.039062 720.789062 1493.105469 723.824219 C 1493.058594 723.871094 1493.011719 723.917969 1492.941406 723.988281 C 1492.871094 724.058594 1492.800781 724.128906 1492.726562 724.222656 C 1492.679688 724.246094 1492.632812 724.292969 1492.609375 724.34375 C 1492.585938 724.34375 1492.585938 724.34375 1492.585938 724.367188 C 1492.5625 724.367188 1492.5625 724.367188 1492.539062 724.390625 C 1432.625 783.902344 1372.617188 843.34375 1312.683594 902.832031 C 1275.5 939.707031 1238.433594 976.75 1201.132812 1013.511719 C 1200.894531 1013.746094 1200.636719 1013.980469 1200.402344 1014.242188 C 1195.167969 1019.40625 1188.210938 1022 1181.253906 1022 C 1174.230469 1022 1167.226562 1019.355469 1161.992188 1014.097656 Z M 1161.992188 1014.097656 "/>
<path fill-rule="nonzero" fill="rgb(0%, 0%, 0%)" fill-opacity="1" d="M 1462.960938 737.484375 C 1455.648438 737.015625 1449.496094 733.617188 1444.449219 728.453125 C 1424.621094 708.222656 1404.8125 687.945312 1384.984375 667.691406 C 1354.921875 636.96875 1324.859375 606.269531 1294.820312 575.523438 C 1286.78125 567.34375 1278.738281 559.160156 1270.746094 550.929688 C 1260.394531 540.320312 1262.257812 522.117188 1272.9375 512.59375 C 1284.351562 502.40625 1300.972656 504.199219 1311.300781 514.785156 C 1339.476562 543.738281 1367.820312 572.554688 1396.066406 601.414062 C 1422.757812 628.695312 1449.449219 655.972656 1476.140625 683.253906 C 1479.109375 686.273438 1482.058594 689.289062 1485.003906 692.308594 C 1495.378906 702.894531 1493.445312 721.144531 1482.8125 730.671875 C 1477.847656 735.09375 1471.332031 737.542969 1464.703125 737.542969 C 1464.125 737.542969 1463.542969 737.523438 1462.960938 737.484375 Z M 1462.960938 737.484375 "/>
<path fill-rule="nonzero" fill="rgb(0%, 0%, 0%)" fill-opacity="1" d="M 991.546875 848.429688 C 990.101562 847.21875 988.65625 846.019531 987.203125 844.835938 C 985.058594 842.855469 982.867188 840.898438 980.625 839.058594 C 978.714844 837.476562 976.757812 835.875 974.472656 834.910156 C 973.957031 834.542969 973.429688 834.179688 972.894531 833.839844 C 970.851562 829.59375 969.902344 824.832031 970.226562 820.101562 C 970.746094 812.816406 974.164062 806.753906 979.28125 801.734375 C 979.824219 801.191406 980.367188 800.671875 980.886719 800.128906 C 981.097656 799.917969 981.308594 799.707031 981.546875 799.492188 C 1014.71875 766.835938 1047.871094 734.15625 1081.046875 701.523438 C 1118.984375 664.175781 1156.898438 626.851562 1194.8125 589.503906 C 1219.097656 565.59375 1243.363281 541.707031 1267.625 517.800781 C 1268.097656 517.351562 1268.566406 516.878906 1269.039062 516.433594 C 1279.601562 506.058594 1297.898438 508.039062 1307.378906 518.671875 C 1312.210938 524.09375 1314.6875 531.40625 1314.191406 538.667969 C 1313.671875 545.929688 1310.253906 552.011719 1305.136719 557.035156 C 1304.714844 557.433594 1304.3125 557.835938 1303.886719 558.261719 C 1303.582031 558.566406 1303.25 558.875 1302.945312 559.203125 C 1302.875 559.273438 1302.804688 559.34375 1302.734375 559.414062 C 1302.566406 559.582031 1302.378906 559.746094 1302.214844 559.886719 C 1280.945312 580.800781 1259.703125 601.738281 1238.457031 622.699219 C 1202.003906 658.585938 1165.527344 694.496094 1129.078125 730.382812 C 1098.636719 760.351562 1068.195312 790.34375 1037.734375 820.3125 C 1035.777344 822.152344 1033.914062 824.085938 1032.027344 825.925781 C 1029.929688 827.953125 1027.851562 830.027344 1025.777344 832.078125 C 1023.632812 833.941406 1021.511719 835.804688 1019.363281 837.667969 C 1015.851562 840.707031 1012.316406 843.75 1008.824219 846.839844 C 1005.429688 848.394531 1001.679688 849.148438 997.933594 849.148438 C 995.789062 849.148438 993.644531 848.90625 991.546875 848.429688 Z M 991.546875 848.429688 "/>
<path fill-rule="nonzero" fill="rgb(0%, 0%, 0%)" fill-opacity="1" d="M 1002.535156 852.167969 C 999.839844 852.167969 997.152344 851.78125 994.574219 850.996094 C 994.152344 850.640625 993.734375 850.285156 993.316406 849.925781 C 991.289062 848.207031 989.238281 846.507812 987.207031 844.835938 C 985.0625 842.851562 982.871094 840.894531 980.605469 839.058594 C 978.695312 837.5 976.738281 835.875 974.476562 834.90625 C 974.035156 834.605469 973.597656 834.304688 973.152344 834.015625 C 937.359375 798.785156 901.605469 763.527344 865.828125 728.285156 C 824.421875 687.519531 783.042969 646.75 741.636719 605.984375 C 725.511719 590.089844 709.40625 574.222656 693.277344 558.355469 C 682.738281 547.980469 681.796875 530.886719 692.121094 519.945312 C 702.097656 509.359375 719.96875 508.390625 730.53125 518.765625 C 749.84375 537.792969 769.175781 556.84375 788.511719 575.871094 C 834.019531 620.71875 879.550781 665.566406 925.054688 710.390625 C 956.957031 741.820312 988.835938 773.25 1020.761719 804.65625 C 1020.972656 804.84375 1021.1875 805.035156 1021.375 805.246094 C 1021.375 805.269531 1021.398438 805.269531 1021.398438 805.292969 C 1027.644531 811.492188 1030.523438 820.003906 1029.675781 828.210938 C 1028.355469 829.507812 1027.058594 830.78125 1025.761719 832.078125 C 1023.613281 833.941406 1021.492188 835.804688 1019.371094 837.640625 C 1013.851562 842.429688 1008.265625 847.191406 1002.914062 852.167969 C 1002.792969 852.167969 1002.652344 852.167969 1002.535156 852.167969 Z M 1002.535156 852.167969 "/>
<path fill-rule="nonzero" fill="rgb(0%, 0%, 0%)" fill-opacity="1" d="M 508.558594 726.554688 C 497.972656 716.039062 498.113281 698.757812 508.417969 688.144531 C 534.449219 661.335938 560.457031 634.503906 586.488281 607.695312 C 618.390625 574.835938 650.15625 541.796875 682.214844 509.070312 C 682.371094 508.902344 682.527344 508.734375 682.6875 508.570312 C 682.761719 508.507812 682.828125 508.4375 682.898438 508.371094 C 682.992188 508.273438 683.082031 508.179688 683.179688 508.082031 C 683.234375 508.023438 683.292969 507.96875 683.347656 507.910156 C 693.699219 497.347656 711.335938 497.417969 721.757812 507.792969 C 732.34375 518.308594 732.179688 535.59375 721.898438 546.203125 C 682.898438 585.980469 644.324219 626.132812 605.539062 666.101562 C 586.015625 686.210938 566.492188 706.324219 546.96875 726.4375 C 541.820312 731.738281 534.816406 734.355469 527.804688 734.355469 C 520.78125 734.355469 513.75 731.734375 508.558594 726.554688 Z M 508.558594 726.554688 "/>
<path fill-rule="nonzero" fill="rgb(0%, 0%, 0%)" fill-opacity="1" d="M 805.132812 1021.289062 C 786.742188 1002.851562 768.375 984.414062 749.984375 965.972656 C 701.53125 917.378906 653.050781 868.785156 604.597656 820.164062 C 574.015625 789.511719 543.433594 758.882812 512.878906 728.183594 C 512.804688 728.113281 512.734375 728.042969 512.664062 727.972656 C 502.171875 717.527344 501.535156 700.363281 511.910156 689.5625 C 522.027344 679.023438 539.828125 678.363281 550.320312 688.808594 C 550.816406 689.304688 551.308594 689.796875 551.804688 690.292969 C 551.875 690.363281 551.945312 690.433594 552.019531 690.503906 C 604.386719 743.109375 656.847656 795.644531 709.238281 848.199219 C 745.292969 884.34375 781.34375 920.492188 817.371094 956.636719 C 825.859375 965.125 834.324219 973.636719 842.789062 982.125 C 849.335938 988.6875 852.054688 997.851562 850.617188 1006.445312 C 850.539062 1006.535156 850.457031 1006.625 850.382812 1006.71875 C 847.882812 1009.546875 845.40625 1012.402344 842.976562 1015.277344 C 840.550781 1018.152344 838.144531 1021.054688 835.761719 1023.953125 C 835.527344 1024.238281 835.292969 1024.519531 835.054688 1024.78125 C 834.347656 1025.601562 833.648438 1026.421875 832.953125 1027.246094 C 829.988281 1028.265625 826.863281 1028.789062 823.738281 1028.789062 C 816.945312 1028.789062 810.179688 1026.335938 805.132812 1021.289062 Z M 805.132812 1021.289062 "/>
</svg>
