<?xml version="1.0" encoding="UTF-8"?>
<!-- Created by grConvert v0.1-0 -->
<svg xmlns="http://www.w3.org/2000/svg" xmlns:xlink="http://www.w3.org/1999/xlink" width="2000" height="2000" viewBox="0 0 2000 2000">
<path fill-rule="nonzero" fill="rgb(0%, 0%, 0%)" fill-opacity="1" d="M 847.441406 874.304688 C 846.964844 829.875 846.460938 785.464844 845.984375 741.054688 C 845.554688 699.109375 845.101562 657.1875 844.644531 615.238281 C 844.359375 589.929688 844.121094 564.597656 843.8125 539.289062 C 843.808594 539.191406 843.808594 539.09375 843.808594 538.996094 C 843.738281 531.441406 845.554688 524.488281 850.667969 518.726562 C 855.378906 513.371094 862.164062 510.050781 869.265625 509.523438 C 883.535156 508.449219 898.566406 519.96875 898.734375 534.957031 C 898.757812 535.148438 898.757812 535.335938 898.757812 535.527344 C 898.761719 535.890625 898.761719 536.25 898.753906 536.613281 C 899.105469 565.742188 899.386719 594.855469 899.714844 623.988281 C 900.191406 668.039062 900.648438 712.089844 901.125 756.113281 C 901.53125 794.164062 901.960938 832.214844 902.367188 870.265625 C 902.441406 877.820312 900.625 884.773438 895.507812 890.535156 C 890.800781 895.890625 884.011719 899.210938 876.914062 899.761719 C 876.308594 899.804688 875.699219 899.828125 875.09375 899.828125 C 861.414062 899.828125 847.578125 888.65625 847.441406 874.304688 Z M 847.441406 874.304688 "/>
<path fill-rule="nonzero" fill="rgb(0%, 0%, 0%)" fill-opacity="1" d="M 1122.769531 910.894531 C 1115.410156 910.417969 1108.382812 906.902344 1103.601562 901.285156 C 1098.773438 895.621094 1097.050781 888.929688 1097.050781 885.128906 C 1096.933594 833.742188 1096.789062 782.328125 1096.667969 730.941406 C 1096.550781 677.738281 1096.40625 624.535156 1096.289062 571.328125 C 1096.261719 559.640625 1096.238281 547.929688 1096.191406 536.21875 C 1096.195312 536.21875 1096.203125 536.21875 1096.207031 536.21875 C 1096.191406 535.039062 1096.191406 533.847656 1096.191406 532.65625 C 1096.191406 519.058594 1108.90625 507.800781 1121.886719 506.960938 C 1136.15625 506.007812 1151.117188 517.648438 1151.164062 532.65625 C 1151.261719 562.4375 1151.308594 592.242188 1151.378906 622.023438 C 1151.523438 681.800781 1151.667969 741.578125 1151.808594 801.355469 C 1151.882812 829.296875 1152.023438 857.238281 1152.023438 885.175781 C 1152.023438 899.632812 1138.097656 910.945312 1124.34375 910.945312 C 1123.816406 910.945312 1123.292969 910.929688 1122.769531 910.894531 Z M 1122.769531 910.894531 "/>
<path fill-rule="nonzero" fill="rgb(0%, 0%, 0%)" fill-opacity="1" d="M 846.90625 533.84375 C 846.90625 518.761719 859.453125 506.402344 874.441406 506.308594 C 875.347656 506.285156 876.257812 506.285156 877.164062 506.285156 C 877.292969 506.28125 877.425781 506.285156 877.554688 506.285156 C 907.132812 506.082031 936.6875 505.894531 966.246094 505.6875 C 1012.253906 505.398438 1058.242188 505.089844 1104.226562 504.777344 C 1110.464844 504.730469 1116.679688 504.707031 1122.917969 504.660156 C 1137.929688 504.539062 1150.429688 517.277344 1150.453125 532.191406 C 1150.453125 547.273438 1137.902344 559.609375 1122.917969 559.726562 C 1078.367188 560.0625 1033.835938 560.324219 989.308594 560.613281 C 955.15625 560.828125 921.023438 561.066406 886.890625 561.28125 C 882.996094 561.324219 879.082031 561.347656 875.164062 561.371094 C 874.921875 561.375 874.679688 561.375 874.441406 561.375 C 874.382812 561.375 874.328125 561.375 874.273438 561.375 C 859.335938 561.378906 846.929688 548.699219 846.90625 533.84375 Z M 846.90625 533.84375 "/>
<path fill-rule="nonzero" fill="rgb(0%, 0%, 0%)" fill-opacity="1" d="M 1344.34375 910.910156 C 1292.765625 910.8125 1241.1875 910.695312 1189.605469 910.574219 C 1167.929688 910.503906 1146.273438 910.480469 1124.621094 910.40625 C 1109.609375 910.382812 1097.132812 897.8125 1097.15625 882.824219 C 1097.179688 867.816406 1109.777344 855.292969 1124.761719 855.339844 C 1163.9375 855.457031 1203.085938 855.53125 1242.261719 855.625 C 1293.648438 855.746094 1345.039062 855.839844 1396.449219 855.960938 C 1421.019531 856.03125 1445.589844 856.128906 1470.183594 856.128906 C 1482.117188 856.164062 1492.449219 864.121094 1496.171875 874.910156 C 1496.171875 875.292969 1496.175781 875.679688 1496.1875 876.0625 C 1495.757812 876.585938 1495.496094 877.234375 1495.472656 877.949219 C 1495.402344 880.625 1496.09375 883.304688 1496.453125 886.003906 C 1496.476562 886.242188 1496.476562 886.480469 1496.476562 886.722656 C 1496.5 887.605469 1496.453125 888.585938 1496.738281 889.398438 C 1496.796875 889.550781 1496.859375 889.699219 1496.933594 889.839844 C 1494.066406 901.996094 1482.941406 911.21875 1470.042969 911.21875 C 1428.140625 911.21875 1386.242188 911.003906 1344.34375 910.910156 Z M 1344.34375 910.910156 "/>
<path fill-rule="nonzero" fill="rgb(0%, 0%, 0%)" fill-opacity="1" d="M 503.738281 880.195312 C 504.121094 872.859375 507.539062 865.804688 513.058594 860.953125 C 518.675781 856.03125 525.390625 854.214844 532.683594 854.144531 C 561.101562 853.878906 589.519531 853.617188 617.9375 853.355469 C 677.835938 852.804688 737.753906 852.277344 797.675781 851.730469 C 824.160156 851.488281 850.664062 851.324219 877.148438 851.011719 C 892.183594 850.820312 903.964844 865.6875 903.222656 879.933594 C 902.839844 887.292969 899.425781 894.34375 893.902344 899.195312 C 888.332031 904.074219 881.546875 906.007812 874.28125 906.007812 C 824.804688 906.007812 775.328125 906.917969 725.851562 907.347656 C 673.960938 907.824219 622.074219 908.304688 570.183594 908.78125 C 556.886719 908.898438 543.59375 909.015625 530.296875 909.136719 C 530.214844 909.136719 530.136719 909.140625 530.054688 909.140625 C 529.980469 909.140625 529.886719 909.140625 529.8125 909.140625 C 529.742188 909.140625 529.667969 909.140625 529.597656 909.140625 C 514.664062 909.140625 503 894.421875 503.738281 880.195312 Z M 503.738281 880.195312 "/>
<path fill-rule="nonzero" fill="rgb(0%, 0%, 0%)" fill-opacity="1" d="M 501.835938 1125.871094 C 502.191406 1118.511719 505.609375 1111.460938 511.132812 1106.605469 C 516.675781 1101.683594 523.441406 1099.773438 530.730469 1099.746094 C 531.46875 1099.746094 532.210938 1099.742188 532.949219 1099.738281 C 533.90625 1099.730469 534.863281 1099.722656 535.820312 1099.722656 C 535.875 1099.722656 535.929688 1099.722656 535.984375 1099.722656 C 565.445312 1099.589844 594.886719 1099.476562 624.351562 1099.339844 C 695.003906 1099.054688 765.632812 1098.742188 836.285156 1098.433594 C 848.570312 1098.386719 860.855469 1098.3125 873.140625 1098.265625 C 888.175781 1098.21875 899.984375 1112.773438 899.265625 1127.164062 C 898.90625 1134.523438 895.488281 1141.574219 889.96875 1146.425781 C 884.398438 1151.351562 877.660156 1153.214844 870.367188 1153.285156 C 869.316406 1153.300781 868.253906 1153.296875 867.195312 1153.300781 C 866.792969 1153.300781 866.382812 1153.300781 865.980469 1153.304688 C 865.714844 1153.304688 865.449219 1153.308594 865.183594 1153.308594 C 865.09375 1153.3125 865.003906 1153.308594 864.914062 1153.308594 C 797.871094 1153.566406 730.808594 1153.867188 663.765625 1154.171875 C 621.460938 1154.363281 579.132812 1154.53125 536.824219 1154.71875 C 535.667969 1154.730469 534.511719 1154.734375 533.359375 1154.742188 C 533.265625 1154.742188 533.167969 1154.742188 533.074219 1154.746094 C 532.828125 1154.746094 532.585938 1154.746094 532.34375 1154.746094 C 530.882812 1154.75 529.425781 1154.757812 527.957031 1154.769531 C 527.933594 1154.769531 527.910156 1154.769531 527.886719 1154.769531 C 512.886719 1154.769531 501.117188 1140.214844 501.835938 1125.871094 Z M 501.835938 1125.871094 "/>
<path fill-rule="nonzero" fill="rgb(0%, 0%, 0%)" fill-opacity="1" d="M 1127.90625 1155.476562 C 1127.835938 1155.476562 1127.742188 1155.476562 1127.667969 1155.476562 C 1112.777344 1155.476562 1101.019531 1140.945312 1101.6875 1126.699219 C 1102.023438 1119.335938 1105.394531 1112.285156 1110.890625 1107.386719 C 1116.460938 1102.4375 1123.175781 1100.550781 1130.464844 1100.453125 C 1130.535156 1100.453125 1130.585938 1100.453125 1130.65625 1100.453125 C 1130.941406 1100.453125 1131.230469 1100.453125 1131.515625 1100.429688 C 1131.539062 1100.429688 1131.539062 1100.429688 1131.566406 1100.429688 C 1131.753906 1100.429688 1131.945312 1100.429688 1132.136719 1100.429688 C 1173.007812 1099.882812 1213.90625 1099.5 1254.753906 1099.019531 C 1326.765625 1098.183594 1398.734375 1097.347656 1470.75 1096.535156 C 1472.277344 1096.511719 1473.808594 1096.511719 1475.335938 1096.464844 C 1486.734375 1096.28125 1496.324219 1104.742188 1500 1115.082031 C 1499.96875 1115.257812 1499.9375 1115.433594 1499.90625 1115.609375 C 1499.382812 1118.8125 1498.953125 1122.0625 1498.523438 1125.289062 C 1498.234375 1127.4375 1497.996094 1129.589844 1497.78125 1131.742188 C 1497.519531 1132.292969 1497.300781 1132.863281 1497.113281 1133.367188 C 1496.753906 1134.179688 1496.441406 1135.039062 1496.179688 1135.898438 C 1496.011719 1136.402344 1495.917969 1136.878906 1495.917969 1137.335938 C 1495.390625 1138.71875 1494.886719 1140.105469 1494.433594 1141.492188 C 1494.265625 1142.015625 1494.09375 1142.539062 1493.921875 1143.058594 C 1493.421875 1143.585938 1492.898438 1144.089844 1492.355469 1144.578125 C 1486.785156 1149.523438 1480.09375 1151.363281 1472.78125 1151.484375 C 1405.402344 1152.65625 1337.976562 1153.039062 1270.574219 1153.828125 C 1223.777344 1154.375 1176.976562 1154.902344 1130.203125 1155.453125 C 1129.796875 1155.453125 1129.367188 1155.453125 1128.960938 1155.476562 C 1128.601562 1155.476562 1128.265625 1155.476562 1127.90625 1155.476562 Z M 1127.90625 1155.476562 "/>
<path fill-rule="nonzero" fill="rgb(0%, 0%, 0%)" fill-opacity="1" d="M 501.722656 1127.871094 C 501.722656 1127.347656 501.699219 1126.796875 501.699219 1126.246094 C 501.699219 1126.105469 501.699219 1125.960938 501.699219 1125.792969 C 501.699219 1125.578125 501.699219 1125.339844 501.699219 1125.125 C 501.363281 1080.644531 501.054688 1036.1875 500.765625 991.707031 C 500.503906 954.898438 500.289062 918.089844 500 881.257812 C 499.90625 869.195312 507.3125 858.511719 518.136719 854.503906 C 518.191406 854.5 518.25 854.496094 518.304688 854.492188 C 518.28125 854.496094 518.261719 854.5 518.238281 854.511719 C 518.332031 854.488281 518.40625 854.488281 518.5 854.464844 C 518.644531 854.464844 518.8125 854.441406 518.957031 854.441406 C 521.011719 854.585938 523.089844 854.511719 525.144531 854.394531 C 527.320312 854.25 529.566406 854.128906 531.789062 853.914062 C 532.195312 853.914062 532.578125 853.914062 532.984375 853.890625 C 533.03125 853.890625 533.058594 853.914062 533.082031 853.914062 C 533.871094 853.960938 534.691406 854.035156 535.515625 854.082031 C 546.394531 857.511719 554.953125 867.605469 555.046875 879.488281 C 555.476562 934.273438 555.8125 989.078125 556.195312 1043.882812 C 556.359375 1070.34375 556.550781 1096.777344 556.742188 1123.234375 C 556.742188 1123.5 556.765625 1123.761719 556.765625 1124.023438 C 556.765625 1124.71875 556.765625 1125.410156 556.765625 1126.105469 C 556.863281 1141.113281 545.414062 1153.996094 530.140625 1154.523438 C 529.855469 1154.546875 529.566406 1154.546875 529.28125 1154.546875 C 514.890625 1154.546875 501.84375 1142.570312 501.722656 1127.871094 Z M 501.722656 1127.871094 "/>
<path fill-rule="nonzero" fill="rgb(0%, 0%, 0%)" fill-opacity="1" d="M 1472.265625 1146.121094 C 1457.683594 1146.121094 1444.945312 1134.050781 1444.753906 1119.28125 C 1444.753906 1119.257812 1444.753906 1119.234375 1444.753906 1119.210938 C 1444.753906 1119.160156 1444.753906 1119.113281 1444.730469 1119.089844 C 1444.730469 1118.753906 1444.730469 1118.445312 1444.753906 1118.109375 C 1444.203125 1077.453125 1443.703125 1036.84375 1443.199219 996.1875 C 1442.769531 960.742188 1442.316406 925.320312 1441.835938 889.875 C 1441.835938 889.828125 1441.835938 889.804688 1441.835938 889.757812 C 1441.835938 889.707031 1441.835938 889.636719 1441.835938 889.589844 C 1441.835938 888.992188 1441.835938 888.371094 1441.8125 887.773438 C 1441.621094 872.785156 1453.574219 859.976562 1468.679688 859.59375 C 1480.75 859.28125 1491.71875 867.3125 1495.472656 878.402344 C 1495.496094 880.9375 1496.117188 883.445312 1496.453125 885.980469 C 1496.476562 886.242188 1496.476562 886.480469 1496.5 886.722656 C 1496.523438 887.605469 1496.476562 888.585938 1496.761719 889.398438 C 1496.8125 889.542969 1496.859375 889.660156 1496.90625 889.804688 C 1497.527344 937.34375 1498.125 984.859375 1498.722656 1032.375 C 1499.074219 1060.34375 1499.429688 1088.308594 1499.78125 1116.296875 C 1499.308594 1119.273438 1498.90625 1122.289062 1498.507812 1125.28125 C 1498.417969 1126 1498.332031 1126.722656 1498.246094 1127.445312 C 1494.5625 1137.980469 1484.71875 1145.824219 1472.933594 1146.121094 C 1472.71875 1146.121094 1472.480469 1146.121094 1472.265625 1146.121094 Z M 1472.265625 1146.121094 "/>
<path fill-rule="nonzero" fill="rgb(0%, 0%, 0%)" fill-opacity="1" d="M 1125.597656 1491.535156 C 1111.496094 1491.535156 1097.824219 1479.679688 1098.015625 1464.980469 C 1098.398438 1438.519531 1098.757812 1412.0625 1099.136719 1385.578125 C 1100.023438 1322.3125 1100.90625 1259.046875 1101.816406 1195.777344 C 1102.101562 1174.699219 1102.390625 1153.617188 1102.699219 1132.511719 C 1102.796875 1125.03125 1105.042969 1118.050781 1110.300781 1112.53125 C 1115.222656 1107.367188 1122.132812 1104.285156 1129.253906 1104.046875 C 1143.714844 1103.519531 1157.9375 1115.589844 1157.746094 1130.601562 C 1157.746094 1130.695312 1157.746094 1130.789062 1157.746094 1130.886719 C 1157.746094 1131.054688 1157.746094 1131.246094 1157.746094 1131.4375 C 1156.835938 1191.738281 1156.023438 1252.066406 1155.1875 1312.394531 C 1154.566406 1357.136719 1153.945312 1401.878906 1153.296875 1446.621094 C 1153.214844 1451.5 1153.148438 1456.375 1153.082031 1461.265625 C 1153.058594 1461.675781 1153.035156 1462.085938 1153.011719 1462.492188 C 1152.949219 1463.914062 1152.886719 1465.324219 1152.832031 1466.738281 C 1152.136719 1472.820312 1149.847656 1478.441406 1145.460938 1483.046875 C 1140.535156 1488.210938 1133.628906 1491.292969 1126.503906 1491.535156 C 1126.21875 1491.535156 1125.90625 1491.535156 1125.597656 1491.535156 Z M 1125.597656 1491.535156 "/>
<path fill-rule="nonzero" fill="rgb(0%, 0%, 0%)" fill-opacity="1" d="M 849.832031 1470.722656 C 849.785156 1469.910156 849.726562 1469.109375 849.6875 1468.328125 C 849.59375 1466.679688 849.546875 1464.980469 849.425781 1463.308594 C 849.425781 1462.6875 849.402344 1462.066406 849.402344 1461.445312 C 849.378906 1460.296875 849.496094 1458.957031 849.164062 1457.859375 C 849.085938 1457.632812 849 1457.410156 848.90625 1457.191406 C 848.488281 1428.851562 848.046875 1400.511719 847.609375 1372.171875 C 846.484375 1298.367188 845.363281 1224.558594 844.238281 1150.726562 C 844.167969 1145.132812 844.070312 1139.542969 843.976562 1133.925781 C 843.761719 1118.914062 855.28125 1105.960938 870.484375 1105.386719 C 885.253906 1104.835938 898.78125 1116.90625 899.019531 1131.894531 C 900.097656 1200.488281 901.125 1269.085938 902.152344 1337.683594 C 902.773438 1378.078125 903.417969 1418.46875 904.015625 1458.886719 C 904.015625 1460.152344 904.039062 1461.445312 904.066406 1462.710938 C 904.28125 1477.722656 892.78125 1490.675781 877.558594 1491.25 C 877.222656 1491.25 876.890625 1491.273438 876.578125 1491.273438 C 864.230469 1491.273438 852.90625 1482.492188 849.832031 1470.722656 Z M 849.832031 1470.722656 "/>
<path fill-rule="nonzero" fill="rgb(0%, 0%, 0%)" fill-opacity="1" d="M 875.222656 1495.34375 C 875.105469 1495.34375 874.984375 1495.34375 874.839844 1495.34375 C 864.171875 1495.34375 854.503906 1489.65625 849.652344 1480.785156 C 849.644531 1480.636719 849.632812 1480.484375 849.625 1480.332031 C 849.554688 1479.257812 849.53125 1478.109375 849.386719 1477.011719 C 849.554688 1476.769531 849.671875 1476.460938 849.71875 1476.101562 C 850.125 1473.59375 849.792969 1470.84375 849.671875 1468.308594 C 849.601562 1466.660156 849.554688 1464.988281 849.433594 1463.316406 C 849.410156 1462.667969 849.410156 1462.046875 849.386719 1461.425781 C 849.363281 1460.277344 849.480469 1458.941406 849.148438 1457.839844 C 849.042969 1457.511719 848.914062 1457.179688 848.761719 1456.859375 C 852.898438 1447.542969 861.972656 1440.472656 872.59375 1440.320312 C 872.714844 1440.320312 872.855469 1440.320312 872.976562 1440.320312 C 873.046875 1440.320312 873.144531 1440.296875 873.214844 1440.296875 C 873.527344 1440.296875 873.8125 1440.296875 874.125 1440.296875 C 915.164062 1439.746094 956.175781 1439.175781 997.167969 1438.601562 C 1034.882812 1438.050781 1072.578125 1437.550781 1110.292969 1437.023438 C 1115.574219 1436.953125 1120.855469 1436.878906 1126.140625 1436.808594 C 1138.472656 1436.617188 1149.515625 1444.050781 1153.457031 1455.234375 C 1153.292969 1457.648438 1153.148438 1460.0625 1153.003906 1462.5 C 1152.910156 1464.652344 1152.8125 1466.78125 1152.742188 1468.929688 C 1152.71875 1469.886719 1152.667969 1470.84375 1152.621094 1471.824219 C 1152.429688 1473.113281 1152.261719 1474.429688 1152.070312 1475.742188 C 1152.046875 1476.03125 1152 1476.316406 1151.976562 1476.605469 C 1147.578125 1485.230469 1138.878906 1491.660156 1128.769531 1491.828125 C 1100.398438 1492.210938 1072.050781 1492.617188 1043.703125 1493 C 998.050781 1493.644531 952.402344 1494.265625 906.75 1494.886719 C 896.351562 1495.054688 886.003906 1495.199219 875.605469 1495.34375 C 875.484375 1495.34375 875.367188 1495.34375 875.222656 1495.34375 Z M 875.222656 1495.34375 "/>
</svg>
