<?xml version="1.0" encoding="UTF-8"?>
<!-- Created by grConvert v0.1-0 -->
<svg xmlns="http://www.w3.org/2000/svg" xmlns:xlink="http://www.w3.org/1999/xlink" width="2000" height="2000" viewBox="0 0 2000 2000">
<path fill-rule="nonzero" fill="rgb(0%, 79.215688%, 93.725491%)" fill-opacity="1" d="M 1030.277344 712.601562 C 1031.25 741.886719 1031.148438 771.292969 1030.140625 800.714844 C 1029.972656 805.417969 1029.773438 810.15625 1029.554688 814.894531 C 1029.335938 819.515625 1029.082031 824.15625 1028.8125 828.792969 C 1028.664062 831.3125 1028.511719 833.816406 1028.34375 836.335938 C 1028.042969 840.941406 1027.703125 845.542969 1027.335938 850.164062 C 1027.320312 850.550781 1027.285156 850.921875 1027.25 851.308594 C 1026.898438 855.691406 1026.511719 860.078125 1026.109375 864.464844 C 1025.621094 869.503906 1025.101562 874.546875 1024.527344 879.570312 C 1023.707031 886.792969 1022.78125 894.019531 1021.757812 901.226562 C 1021.402344 903.632812 1021.050781 906.035156 1020.679688 908.4375 C 1020.3125 910.839844 1019.925781 913.226562 1019.523438 915.628906 C 1019.21875 917.390625 1018.917969 919.171875 1018.597656 920.9375 C 1018.226562 922.9375 1017.859375 924.9375 1017.472656 926.917969 C 1007.523438 924.582031 997.074219 924.265625 986.941406 925.929688 C 986.839844 925.425781 986.738281 924.921875 986.65625 924.433594 C 986.050781 921.207031 985.480469 917.980469 984.925781 914.753906 C 981.917969 896.992188 979.816406 879.148438 978.136719 861.355469 C 976.792969 846.738281 975.769531 832.101562 975.027344 817.515625 C 973.027344 778.28125 972.84375 739.234375 974.355469 700.539062 C 974.492188 697.007812 974.691406 692.691406 974.929688 688.070312 C 974.976562 687.179688 975.027344 686.273438 975.078125 685.363281 C 975.179688 683.5 975.28125 681.582031 975.398438 679.683594 C 975.667969 675.097656 975.96875 670.511719 976.304688 665.921875 C 976.339844 665.585938 976.355469 665.25 976.371094 664.914062 C 976.707031 660.34375 977.0625 655.792969 977.449219 651.238281 C 977.617188 649.171875 977.800781 647.105469 978.003906 645.039062 C 978.320312 641.441406 978.675781 637.847656 979.0625 634.25 C 979.449219 630.488281 979.867188 626.722656 980.320312 622.976562 C 980.992188 617.332031 981.734375 611.71875 982.539062 606.121094 C 983.347656 600.527344 984.238281 594.964844 985.195312 589.40625 C 986.992188 579.355469 989.042969 569.375 991.664062 559.597656 C 992.101562 557.964844 992.554688 556.335938 993.023438 554.707031 C 993.496094 553.09375 993.980469 551.464844 994.484375 549.867188 C 994.671875 549.3125 994.855469 548.777344 995.058594 548.238281 C 995.242188 547.683594 995.425781 547.144531 995.613281 546.609375 C 996.769531 543.347656 998.015625 540.15625 999.441406 537.011719 C 1000.265625 535.367188 1001.140625 533.753906 1002.082031 532.175781 C 1002.417969 532.746094 1002.734375 533.316406 1003.054688 533.886719 C 1004.265625 536.273438 1005.359375 538.710938 1006.367188 541.179688 C 1006.703125 542.003906 1007.019531 542.828125 1007.339844 543.652344 C 1007.691406 544.609375 1008.027344 545.582031 1008.363281 546.558594 C 1009.019531 548.507812 1009.660156 550.457031 1010.246094 552.421875 C 1010.550781 553.394531 1010.835938 554.386719 1011.121094 555.363281 C 1011.960938 558.320312 1012.75 561.292969 1013.507812 564.265625 C 1013.742188 565.277344 1013.992188 566.265625 1014.230469 567.257812 C 1019.976562 592.058594 1023.335938 617.398438 1025.839844 642.769531 C 1025.890625 643.273438 1025.941406 643.777344 1025.972656 644.28125 C 1027.050781 655.605469 1027.941406 666.980469 1028.644531 678.359375 C 1028.644531 678.375 1028.644531 678.375 1028.644531 678.375 C 1028.929688 682.929688 1029.183594 687.5 1029.417969 692.050781 C 1029.417969 692.050781 1029.417969 692.070312 1029.417969 692.070312 C 1029.773438 698.90625 1030.058594 705.746094 1030.277344 712.601562 Z M 1030.277344 712.601562 "/>
<path fill-rule="nonzero" fill="rgb(0%, 79.215688%, 93.725491%)" fill-opacity="1" d="M 1467.882812 1002.144531 C 1467.3125 1002.480469 1466.742188 1002.816406 1466.171875 1003.136719 C 1462.996094 1004.75 1459.71875 1006.144531 1456.40625 1007.402344 C 1448.695312 1010.210938 1440.765625 1012.394531 1432.800781 1014.292969 C 1408 1020.039062 1382.679688 1023.398438 1357.289062 1025.902344 C 1356.785156 1025.953125 1356.28125 1026.003906 1355.792969 1026.054688 C 1346.71875 1026.914062 1337.628906 1027.652344 1328.523438 1028.273438 C 1323.96875 1028.59375 1319.433594 1028.878906 1314.878906 1029.128906 C 1314.863281 1029.128906 1314.863281 1029.128906 1314.863281 1029.128906 C 1310.308594 1029.382812 1305.738281 1029.617188 1301.183594 1029.820312 C 1298.898438 1029.917969 1296.597656 1030.019531 1294.3125 1030.105469 C 1290.3125 1030.253906 1286.316406 1030.390625 1282.316406 1030.507812 C 1274.402344 1030.742188 1266.472656 1030.878906 1258.523438 1030.960938 C 1246.746094 1031.0625 1234.933594 1031.011719 1223.121094 1030.808594 C 1215.207031 1030.675781 1207.273438 1030.472656 1199.359375 1030.207031 C 1161.671875 1028.828125 1122.792969 1025.953125 1084.429688 1019.601562 C 1082.027344 1019.199219 1079.609375 1018.761719 1077.207031 1018.324219 C 1077.207031 1018.324219 1077.207031 1018.324219 1077.207031 1018.308594 C 1078.851562 1008.175781 1078.347656 997.457031 1075.308594 986.789062 C 1096.359375 982.789062 1117.582031 980.183594 1138.71875 978.203125 C 1142.382812 977.863281 1146.03125 977.5625 1149.675781 977.261719 C 1160.648438 976.371094 1171.601562 975.664062 1182.542969 975.09375 C 1187.933594 974.824219 1193.328125 974.570312 1198.707031 974.371094 C 1204.417969 974.152344 1210.132812 973.96875 1215.84375 973.832031 C 1239.585938 973.246094 1263.226562 973.3125 1286.75 973.984375 C 1291.003906 974.117188 1295.269531 974.253906 1299.523438 974.421875 C 1300.582031 974.453125 1301.707031 974.503906 1302.882812 974.554688 C 1303.671875 974.589844 1304.476562 974.640625 1305.320312 974.671875 C 1306.125 974.707031 1306.964844 974.757812 1307.820312 974.789062 C 1308.710938 974.839844 1309.621094 974.875 1310.542969 974.925781 C 1311.453125 974.976562 1312.375 975.027344 1313.300781 975.074219 C 1314.207031 975.125 1315.113281 975.175781 1316.039062 975.226562 C 1317.484375 975.3125 1318.929688 975.394531 1320.390625 975.480469 C 1350.785156 977.292969 1381.03125 980.132812 1410.65625 985.257812 C 1424.046875 987.644531 1437.320312 990.5 1450.191406 994.566406 C 1454.578125 996.011719 1458.878906 997.609375 1463.046875 999.507812 C 1464.691406 1000.332031 1466.304688 1001.203125 1467.882812 1002.144531 Z M 1467.882812 1002.144531 "/>
<path fill-rule="nonzero" fill="rgb(0%, 79.215688%, 93.725491%)" fill-opacity="1" d="M 1024.578125 1133.375 C 1029.453125 1185.058594 1030.511719 1237.414062 1028.730469 1289.804688 C 1027.351562 1327.496094 1024.480469 1366.375 1018.128906 1404.738281 C 1015.691406 1418.902344 1012.800781 1433.03125 1008.601562 1446.777344 C 1007.054688 1451.566406 1005.359375 1456.320312 1003.289062 1460.90625 C 1002.519531 1462.503906 1001.710938 1464.066406 1000.820312 1465.597656 C 1000.738281 1465.460938 1000.652344 1465.328125 1000.585938 1465.175781 C 1000.28125 1464.671875 999.996094 1464.167969 999.746094 1463.664062 C 999.660156 1463.53125 999.578125 1463.394531 999.511719 1463.261719 C 997.980469 1460.085938 996.636719 1456.824219 995.410156 1453.53125 C 992.46875 1445.179688 990.203125 1436.613281 988.21875 1428.007812 C 982.523438 1402.335938 979.160156 1376.324219 976.726562 1350.449219 C 975.398438 1335.828125 974.355469 1321.195312 973.617188 1306.609375 C 971.617188 1267.375 971.433594 1228.324219 972.945312 1189.628906 C 973.164062 1184.015625 973.535156 1176.386719 974.003906 1168.777344 C 975.820312 1138.382812 978.65625 1108.136719 983.78125 1078.496094 C 983.867188 1078.042969 983.949219 1077.570312 984.035156 1077.117188 C 995.796875 1079.957031 1007.003906 1080.226562 1017.320312 1078.445312 C 1020.480469 1096.121094 1022.664062 1113.984375 1024.429688 1131.863281 C 1024.480469 1132.367188 1024.527344 1132.871094 1024.578125 1133.375 Z M 1024.578125 1133.375 "/>
<path fill-rule="nonzero" fill="rgb(0%, 79.215688%, 93.725491%)" fill-opacity="1" d="M 921.429688 985.257812 C 923.34375 985.59375 925.257812 985.945312 927.15625 986.316406 C 925.5625 996.601562 925.914062 1007.285156 928.082031 1017.570312 C 908.253906 1021.402344 888.175781 1023.921875 868.046875 1025.902344 C 867.542969 1025.953125 867.054688 1026.003906 866.550781 1026.054688 C 857.476562 1026.914062 848.386719 1027.652344 839.28125 1028.273438 C 834.726562 1028.59375 830.191406 1028.878906 825.636719 1029.128906 C 825.621094 1029.128906 825.621094 1029.128906 825.621094 1029.128906 C 821.066406 1029.382812 816.496094 1029.617188 811.941406 1029.820312 C 809.65625 1029.917969 807.355469 1030.019531 805.070312 1030.105469 C 801.070312 1030.253906 797.070312 1030.390625 793.074219 1030.507812 C 785.160156 1030.742188 777.226562 1030.878906 769.28125 1030.960938 C 757.5 1031.0625 745.6875 1031.011719 733.875 1030.808594 C 725.960938 1030.675781 718.03125 1030.472656 710.117188 1030.207031 C 672.429688 1028.828125 633.546875 1025.953125 595.1875 1019.601562 C 589.878906 1018.695312 584.566406 1017.722656 579.277344 1016.628906 C 570.472656 1014.8125 561.734375 1012.695312 553.148438 1010.074219 C 550.140625 1009.101562 547.164062 1008.09375 544.226562 1006.949219 C 543.050781 1006.496094 541.890625 1006.027344 540.746094 1005.523438 C 540.160156 1005.285156 539.585938 1005.035156 539.015625 1004.765625 C 537.421875 1003.992188 535.839844 1003.1875 534.3125 1002.296875 C 535.085938 1001.84375 535.855469 1001.40625 536.664062 1000.984375 C 539.839844 999.457031 543.082031 998.113281 546.375 996.886719 C 554.742188 993.945312 563.3125 991.675781 571.898438 989.695312 C 597.589844 984 623.601562 980.636719 649.476562 978.203125 C 653.125 977.863281 656.785156 977.5625 660.433594 977.261719 C 671.40625 976.371094 682.359375 975.664062 693.296875 975.09375 C 698.691406 974.824219 704.085938 974.570312 709.460938 974.371094 C 715.242188 974.152344 721.023438 973.96875 726.785156 973.816406 C 750.460938 973.246094 774.035156 973.3125 797.507812 973.984375 C 801.757812 974.117188 806.027344 974.253906 810.277344 974.421875 C 811.335938 974.453125 812.460938 974.503906 813.640625 974.554688 C 814.429688 974.589844 815.234375 974.640625 816.074219 974.671875 C 816.882812 974.707031 817.722656 974.757812 818.578125 974.789062 C 819.46875 974.839844 820.375 974.875 821.300781 974.925781 C 822.207031 974.976562 823.132812 975.027344 824.058594 975.074219 C 824.964844 975.125 825.871094 975.175781 826.796875 975.226562 C 828.242188 975.3125 829.6875 975.394531 831.148438 975.480469 C 861.542969 977.292969 891.789062 980.132812 921.429688 985.257812 Z M 921.429688 985.257812 "/>
</svg>
