<?xml version="1.0" encoding="UTF-8"?>
<!-- Created by grConvert v0.1-0 -->
<svg xmlns="http://www.w3.org/2000/svg" xmlns:xlink="http://www.w3.org/1999/xlink" width="2000" height="2000" viewBox="0 0 2000 2000">
<path fill-rule="nonzero" fill="rgb(0%, 79.215688%, 93.725491%)" fill-opacity="1" d="M 1391.011719 537.753906 C 1390.839844 538.507812 1390.628906 539.21875 1390.433594 539.953125 C 1389.144531 543.84375 1387.640625 547.621094 1385.980469 551.34375 C 1383.976562 555.621094 1381.820312 559.785156 1379.542969 563.910156 C 1377.269531 568.035156 1374.878906 572.082031 1372.414062 576.070312 C 1356.953125 600.859375 1339.144531 624.121094 1320.585938 646.730469 C 1320.21875 647.191406 1319.851562 647.636719 1319.484375 648.078125 C 1281.515625 693.972656 1239.902344 737.28125 1195.957031 778.335938 C 1164.269531 807.785156 1130.425781 836.988281 1094.152344 862.949219 C 1092.472656 864.144531 1090.777344 865.320312 1089.082031 866.496094 C 1085.691406 868.847656 1082.277344 871.160156 1078.828125 873.433594 C 1075.300781 875.765625 1071.714844 878.058594 1068.113281 880.257812 C 1067.785156 879.8125 1067.457031 879.390625 1067.128906 878.964844 C 1062.597656 870.964844 1056.855469 864.238281 1050.265625 858.746094 C 1050.515625 858.363281 1050.746094 857.957031 1050.996094 857.570312 C 1067.226562 832.128906 1085.59375 808.304688 1104.597656 785.332031 C 1115.371094 772.398438 1126.398438 759.695312 1137.632812 747.265625 C 1167.835938 713.804688 1199.371094 682.003906 1231.960938 651.839844 C 1236.703125 647.464844 1243.199219 641.566406 1249.75 635.765625 C 1275.867188 612.578125 1302.71875 590.355469 1330.914062 570.480469 C 1343.695312 561.558594 1356.78125 553.097656 1370.523438 545.964844 C 1375.246094 543.59375 1380.027344 541.398438 1384.960938 539.546875 C 1386.964844 538.871094 1388.96875 538.273438 1391.011719 537.753906 Z M 1391.011719 537.753906 "/>
<path fill-rule="nonzero" fill="rgb(0%, 79.215688%, 93.725491%)" fill-opacity="1" d="M 1396.640625 1323.121094 C 1396.792969 1323.621094 1396.929688 1324.121094 1397.046875 1324.644531 C 1396.3125 1324.449219 1395.582031 1324.257812 1394.867188 1324.046875 C 1392.921875 1323.410156 1390.992188 1322.714844 1389.105469 1321.964844 C 1387.214844 1321.210938 1385.328125 1320.421875 1383.476562 1319.59375 C 1374.9375 1315.601562 1366.746094 1310.957031 1358.746094 1306.042969 C 1355.644531 1304.117188 1352.578125 1302.148438 1349.515625 1300.144531 C 1346.46875 1298.140625 1343.445312 1296.097656 1340.4375 1294.035156 C 1338.933594 1292.996094 1337.429688 1291.953125 1335.925781 1290.914062 C 1332.9375 1288.8125 1329.972656 1286.691406 1327.023438 1284.535156 C 1322.589844 1281.296875 1318.195312 1278.019531 1313.839844 1274.683594 C 1310.929688 1272.46875 1308.054688 1270.210938 1305.164062 1267.957031 C 1302.292969 1265.703125 1299.441406 1263.429688 1296.589844 1261.132812 C 1293.734375 1258.839844 1290.902344 1256.546875 1288.070312 1254.214844 C 1287.855469 1254.023438 1287.625 1253.847656 1287.414062 1253.65625 C 1287.183594 1253.464844 1286.96875 1253.289062 1286.738281 1253.097656 C 1280.996094 1248.355469 1275.308594 1243.554688 1269.644531 1238.699219 C 1261.164062 1231.414062 1252.757812 1223.992188 1244.453125 1216.476562 C 1230.613281 1203.949219 1217.003906 1191.09375 1203.628906 1177.964844 C 1200.949219 1175.324219 1198.289062 1172.703125 1195.628906 1170.042969 C 1182.351562 1156.804688 1169.300781 1143.3125 1156.484375 1129.589844 C 1127.03125 1097.902344 1097.832031 1064.035156 1071.871094 1027.761719 C 1065.625 1018.933594 1059.554688 1009.953125 1053.964844 1000.71875 C 1061.097656 995.324219 1067.28125 988.847656 1072.3125 981.582031 C 1073.972656 982.582031 1075.609375 983.605469 1077.246094 984.625 C 1078.828125 985.648438 1080.429688 986.667969 1082.007812 987.691406 C 1085.148438 989.753906 1088.292969 991.835938 1091.394531 993.957031 C 1094.5 996.074219 1097.582031 998.234375 1100.648438 1000.414062 C 1103.710938 1002.589844 1106.757812 1004.789062 1109.78125 1007.023438 C 1112.789062 1009.238281 1115.796875 1011.496094 1118.785156 1013.769531 C 1121.769531 1016.023438 1124.71875 1018.316406 1127.667969 1020.632812 C 1130.617188 1022.945312 1133.546875 1025.257812 1136.476562 1027.609375 C 1137.921875 1028.785156 1139.386719 1029.960938 1140.832031 1031.136719 C 1143.722656 1033.488281 1146.617188 1035.859375 1149.488281 1038.226562 C 1162.421875 1049.003906 1175.121094 1060.027344 1187.554688 1071.246094 C 1220.996094 1101.449219 1252.816406 1132.980469 1282.980469 1165.59375 C 1287.355469 1170.332031 1293.234375 1176.808594 1299.054688 1183.363281 C 1300.5 1185 1301.964844 1186.640625 1303.390625 1188.296875 C 1306.28125 1191.554688 1309.15625 1194.851562 1311.988281 1198.144531 C 1314.839844 1201.441406 1317.65625 1204.757812 1320.46875 1208.089844 C 1324.671875 1213.082031 1328.832031 1218.113281 1332.9375 1223.164062 C 1335.675781 1226.554688 1338.375 1229.929688 1341.054688 1233.339844 C 1349.109375 1243.574219 1356.878906 1253.945312 1364.335938 1264.527344 C 1373.261719 1277.324219 1381.703125 1290.410156 1388.855469 1304.136719 C 1391.222656 1308.855469 1393.421875 1313.636719 1395.273438 1318.570312 C 1395.464844 1319.148438 1395.636719 1319.707031 1395.8125 1320.285156 C 1396.121094 1321.230469 1396.390625 1322.175781 1396.640625 1323.121094 Z M 1396.640625 1323.121094 "/>
<path fill-rule="nonzero" fill="rgb(0%, 79.215688%, 93.725491%)" fill-opacity="1" d="M 1025.726562 1079.53125 C 1031.316406 1138.820312 1032.53125 1198.878906 1030.488281 1258.976562 C 1028.90625 1302.207031 1025.613281 1346.808594 1018.328125 1390.8125 C 1015.53125 1407.058594 1012.214844 1423.269531 1007.398438 1439.035156 C 1005.625 1444.527344 1003.679688 1449.984375 1001.308594 1455.246094 C 1000.421875 1457.074219 999.496094 1458.867188 998.472656 1460.621094 C 998.378906 1460.46875 998.28125 1460.3125 998.203125 1460.140625 C 997.859375 1459.5625 997.53125 1458.984375 997.242188 1458.40625 C 997.144531 1458.25 997.046875 1458.097656 996.972656 1457.941406 C 995.21875 1454.300781 993.675781 1450.5625 992.269531 1446.785156 C 988.894531 1437.203125 986.292969 1427.375 984.019531 1417.507812 C 977.484375 1388.054688 973.628906 1358.21875 970.835938 1328.535156 C 969.3125 1311.769531 968.117188 1294.980469 967.269531 1278.25 C 964.976562 1233.246094 964.761719 1188.453125 966.5 1144.0625 C 966.75 1137.625 967.171875 1128.875 967.710938 1120.144531 C 969.792969 1085.277344 973.050781 1050.582031 978.929688 1016.582031 C 979.027344 1016.0625 979.121094 1015.523438 979.21875 1015.003906 C 992.710938 1018.261719 1005.566406 1018.570312 1017.402344 1016.527344 C 1021.023438 1036.800781 1023.53125 1057.289062 1025.554688 1077.796875 C 1025.613281 1078.375 1025.671875 1078.953125 1025.726562 1079.53125 Z M 1025.726562 1079.53125 "/>
<path fill-rule="nonzero" fill="rgb(0%, 79.215688%, 93.725491%)" fill-opacity="1" d="M 947.589844 1000.835938 C 947.417969 1001.664062 947.261719 1002.492188 947.089844 1003.324219 C 947.089844 1003.34375 947.089844 1003.34375 947.089844 1003.34375 C 931.824219 1027.664062 914.285156 1050.523438 896.03125 1072.785156 C 895.664062 1073.230469 895.300781 1073.671875 894.933594 1074.117188 C 892.5625 1076.988281 890.171875 1079.839844 887.761719 1082.695312 C 882.964844 1088.378906 878.105469 1094.046875 873.191406 1099.65625 C 870.742188 1102.46875 868.277344 1105.265625 865.789062 1108.058594 C 855.863281 1119.21875 845.726562 1130.203125 835.414062 1141.054688 C 822.5 1154.625 809.316406 1167.945312 795.863281 1181.050781 C 787.808594 1188.894531 779.652344 1196.679688 771.40625 1204.371094 C 761.515625 1213.566406 751.398438 1222.738281 741.066406 1231.816406 C 724.53125 1246.3125 707.433594 1260.535156 689.738281 1274.066406 C 685.328125 1277.460938 680.855469 1280.792969 676.363281 1284.089844 C 674.128906 1285.726562 671.871094 1287.367188 669.597656 1288.984375 C 666.226562 1291.355469 662.832031 1293.726562 659.421875 1296.039062 C 656.011719 1298.351562 652.558594 1300.628906 649.089844 1302.84375 C 645.601562 1305.058594 642.09375 1307.21875 638.546875 1309.320312 C 638.546875 1309.320312 638.527344 1309.320312 638.527344 1309.320312 C 634.980469 1311.402344 631.398438 1313.425781 627.753906 1315.351562 C 626.464844 1316.027344 625.191406 1316.664062 623.878906 1317.320312 C 622.589844 1317.953125 621.277344 1318.570312 619.96875 1319.167969 C 618.65625 1319.785156 617.347656 1320.363281 616.015625 1320.921875 C 614.6875 1321.480469 613.355469 1322.023438 612.007812 1322.523438 C 610.078125 1323.195312 608.152344 1323.8125 606.1875 1324.335938 C 606.1875 1324.335938 606.167969 1324.335938 606.167969 1324.335938 C 606.300781 1323.832031 606.4375 1323.332031 606.570312 1322.851562 C 606.726562 1322.347656 606.859375 1321.847656 607.015625 1321.367188 C 607.34375 1320.421875 607.691406 1319.457031 608.054688 1318.511719 C 609.136719 1315.679688 610.332031 1312.90625 611.582031 1310.148438 C 615.976562 1300.992188 621.085938 1292.203125 626.445312 1283.609375 C 642.671875 1258.167969 661.039062 1234.34375 680.046875 1211.386719 C 690.820312 1198.433594 701.84375 1185.753906 713.082031 1173.300781 C 716.859375 1169.121094 720.65625 1164.976562 724.472656 1160.832031 C 732.105469 1152.582031 739.816406 1144.429688 747.601562 1136.371094 C 751.496094 1132.34375 755.40625 1128.335938 759.339844 1124.363281 C 775.085938 1108.445312 791.101562 1092.949219 807.410156 1077.875 C 811.265625 1074.328125 816.273438 1069.78125 821.519531 1065.078125 C 822.328125 1064.363281 823.136719 1063.652344 823.945312 1062.898438 C 823.945312 1062.898438 823.964844 1062.898438 823.964844 1062.898438 C 824.371094 1062.515625 824.773438 1062.167969 825.179688 1061.800781 C 828.457031 1058.910156 831.734375 1056.019531 835.011719 1053.164062 C 835.011719 1053.164062 835.027344 1053.164062 835.027344 1053.164062 C 838.324219 1050.273438 841.621094 1047.441406 844.917969 1044.628906 C 844.917969 1044.628906 844.9375 1044.628906 844.9375 1044.628906 C 848.25 1041.773438 851.566406 1038.980469 854.921875 1036.203125 C 856.597656 1034.796875 858.273438 1033.410156 859.949219 1032.042969 C 863.304688 1029.285156 866.675781 1026.546875 870.070312 1023.851562 C 871.765625 1022.480469 873.460938 1021.132812 875.175781 1019.800781 C 885.390625 1011.746094 895.78125 1003.957031 906.34375 996.519531 C 907.941406 995.402344 909.542969 994.300781 911.160156 993.203125 C 917.175781 989.097656 923.265625 985.109375 929.472656 981.351562 C 934.464844 988.789062 940.535156 995.421875 947.589844 1000.835938 Z M 947.589844 1000.835938 "/>
<path fill-rule="nonzero" fill="rgb(0%, 79.215688%, 93.725491%)" fill-opacity="1" d="M 932.554688 835.445312 C 937.335938 842.304688 942 849.246094 946.375 856.335938 C 938.800781 861.792969 932.132812 868.652344 926.871094 876.882812 C 902.121094 861.445312 878.878906 843.65625 856.289062 825.113281 C 856.097656 824.941406 855.882812 824.785156 855.691406 824.632812 C 855.441406 824.417969 855.210938 824.207031 854.957031 824.015625 C 850.542969 820.351562 846.148438 816.671875 841.773438 812.953125 C 839.152344 810.714844 836.550781 808.480469 833.949219 806.207031 C 829.613281 802.484375 825.316406 798.707031 821.035156 794.890625 C 809.875 784.964844 798.871094 774.828125 788.019531 764.496094 C 783.953125 760.621094 779.90625 756.730469 775.875 752.796875 C 775.875 752.796875 775.855469 752.796875 775.855469 752.796875 C 771.828125 748.882812 767.839844 744.933594 763.867188 740.960938 C 750.570312 727.722656 737.519531 714.230469 724.703125 700.503906 C 695.253906 668.820312 666.050781 634.953125 640.089844 598.679688 C 634.132812 590.277344 628.351562 581.71875 622.953125 572.929688 C 620.796875 569.421875 618.695312 565.875 616.691406 562.269531 C 615.667969 560.480469 614.6875 558.667969 613.722656 556.855469 C 612.71875 554.929688 611.757812 552.980469 610.832031 551.015625 C 610.195312 549.703125 609.597656 548.414062 609.019531 547.082031 C 608.441406 545.773438 607.882812 544.441406 607.34375 543.113281 C 607.34375 543.09375 607.34375 543.09375 607.34375 543.09375 C 607.074219 542.417969 606.804688 541.761719 606.550781 541.089844 C 606.226562 540.125 605.898438 539.160156 605.589844 538.199219 C 605.300781 537.234375 605.011719 536.25 604.761719 535.269531 C 605.742188 535.519531 606.726562 535.808594 607.710938 536.117188 C 611.527344 537.445312 615.265625 538.988281 618.925781 540.664062 C 623.515625 542.863281 628.003906 545.234375 632.417969 547.738281 C 636.832031 550.226562 641.1875 552.847656 645.46875 555.523438 C 648.648438 557.550781 651.808594 559.613281 654.929688 561.710938 C 656.492188 562.753906 658.054688 563.8125 659.613281 564.875 C 662.082031 566.570312 664.546875 568.265625 666.976562 569.980469 C 669.15625 571.503906 671.292969 573.046875 673.453125 574.605469 C 675.84375 576.339844 678.214844 578.09375 680.585938 579.867188 C 693.265625 589.292969 705.601562 599.125 717.707031 609.144531 C 730.640625 619.902344 743.339844 630.945312 755.773438 642.164062 C 789.234375 672.367188 821.035156 703.898438 851.199219 736.511719 C 855.574219 741.230469 861.472656 747.726562 867.273438 754.28125 C 890.460938 780.398438 912.683594 807.246094 932.554688 835.445312 Z M 932.554688 835.445312 "/>
</svg>
