<?xml version="1.0" encoding="UTF-8"?>
<!-- Created by grConvert v0.1-0 -->
<svg xmlns="http://www.w3.org/2000/svg" xmlns:xlink="http://www.w3.org/1999/xlink" width="2000" height="2000" viewBox="0 0 2000 2000">
<path fill-rule="nonzero" fill="rgb(0%, 0%, 0%)" fill-opacity="1" d="M 986.566406 1496.074219 C 974.460938 1487.9375 968.511719 1473.363281 963.957031 1459.929688 C 957.9375 1442.210938 954.425781 1423.710938 951.464844 1405.464844 C 947.558594 1381.46875 945.160156 1357.351562 943.398438 1333.332031 C 940.453125 1293.175781 939.671875 1253.167969 940.558594 1213.507812 C 941.371094 1178.089844 943.417969 1142.867188 947.609375 1108.15625 C 949.503906 1092.484375 951.851562 1076.917969 954.929688 1061.5625 C 957.648438 1048.074219 960.949219 1034.675781 965.707031 1021.875 C 969.421875 1011.859375 974.414062 1001 982.976562 994.398438 C 983.269531 994.175781 983.566406 993.964844 983.867188 993.769531 C 988.871094 990.335938 994.636719 988.503906 1000.875 989.394531 C 1015.515625 991.5 1024.003906 1006.386719 1029.144531 1018.867188 C 1036.429688 1036.566406 1040.515625 1055.511719 1043.882812 1074.226562 C 1047.15625 1092.433594 1049.496094 1110.824219 1051.332031 1129.265625 C 1056.488281 1181.203125 1057.933594 1233.789062 1056.382812 1286.457031 C 1054.972656 1334.167969 1051.648438 1382.546875 1042.066406 1429.648438 C 1039.324219 1443.09375 1035.960938 1456.582031 1030.929688 1469.28125 C 1028.722656 1474.890625 1026.105469 1480.246094 1022.878906 1485.257812 C 1020.839844 1488.425781 1018.363281 1491.210938 1015.605469 1493.703125 C 1011.125 1497.773438 1005.316406 1500 999.429688 1500 C 995.007812 1500 990.546875 1498.746094 986.566406 1496.074219 Z M 998.667969 1465.683594 C 999.558594 1464.15625 1000.375 1462.582031 1001.148438 1460.980469 C 1003.21875 1456.402344 1004.914062 1451.648438 1006.445312 1446.84375 C 1010.648438 1433.113281 1013.554688 1418.96875 1015.980469 1404.796875 C 1022.335938 1366.433594 1025.203125 1327.546875 1026.582031 1289.855469 C 1028.375 1237.457031 1027.3125 1185.101562 1022.429688 1133.398438 C 1022.382812 1132.898438 1022.335938 1132.394531 1022.289062 1131.894531 C 1019.78125 1106.507812 1016.417969 1081.179688 1010.675781 1056.375 C 1008.765625 1048.40625 1006.585938 1040.484375 1003.785156 1032.765625 C 1002.515625 1029.445312 1001.121094 1026.179688 999.507812 1023 C 999.191406 1022.421875 998.863281 1021.847656 998.523438 1021.28125 C 997.578125 1022.859375 996.707031 1024.476562 995.890625 1026.121094 C 993.984375 1030.296875 992.386719 1034.601562 990.933594 1038.976562 C 986.878906 1051.847656 984.023438 1065.128906 981.632812 1078.515625 C 976.503906 1108.152344 973.65625 1138.402344 971.84375 1168.804688 C 971.386719 1176.421875 971.011719 1184.050781 970.792969 1189.667969 C 969.289062 1228.367188 969.464844 1267.421875 971.464844 1306.664062 C 972.210938 1321.257812 973.238281 1335.882812 974.574219 1350.5 C 977.011719 1376.382812 980.378906 1402.398438 986.0625 1428.085938 C 988.050781 1436.683594 990.320312 1445.25 993.261719 1453.613281 C 994.484375 1456.90625 995.832031 1460.164062 997.363281 1463.335938 C 997.78125 1464.128906 998.214844 1464.914062 998.667969 1465.683594 Z M 998.667969 1465.683594 "/>
<path fill-rule="nonzero" fill="rgb(0%, 0%, 0%)" fill-opacity="1" d="M 987.972656 1006.90625 C 975.867188 998.769531 969.917969 984.195312 965.363281 970.757812 C 959.34375 953.039062 955.832031 934.539062 952.871094 916.292969 C 948.964844 892.296875 946.566406 868.179688 944.804688 844.160156 C 941.859375 804.007812 941.078125 764 941.964844 724.339844 C 942.777344 688.917969 944.824219 653.695312 949.015625 618.984375 C 950.910156 603.316406 953.257812 587.746094 956.335938 572.394531 C 959.054688 558.902344 962.355469 545.507812 967.113281 532.707031 C 970.828125 522.691406 975.820312 511.828125 984.382812 505.230469 C 984.675781 505.007812 984.972656 504.796875 985.273438 504.597656 C 990.277344 501.167969 996.042969 499.332031 1002.28125 500.226562 C 1016.921875 502.332031 1025.410156 517.214844 1030.550781 529.695312 C 1037.835938 547.398438 1041.921875 566.339844 1045.289062 585.054688 C 1048.5625 603.265625 1050.902344 621.65625 1052.738281 640.09375 C 1057.894531 692.03125 1059.339844 744.617188 1057.789062 797.289062 C 1056.378906 844.996094 1053.054688 893.378906 1043.472656 940.476562 C 1040.730469 953.921875 1037.367188 967.414062 1032.335938 980.113281 C 1030.128906 985.722656 1027.507812 991.078125 1024.285156 996.085938 C 1022.246094 999.257812 1019.769531 1002.042969 1017.011719 1004.535156 C 1012.53125 1008.605469 1006.722656 1010.828125 1000.835938 1010.828125 C 996.414062 1010.828125 991.953125 1009.574219 987.972656 1006.90625 Z M 1000.074219 976.515625 C 1000.964844 974.984375 1001.78125 973.410156 1002.554688 971.8125 C 1004.625 967.234375 1006.320312 962.476562 1007.851562 957.671875 C 1012.054688 943.941406 1014.960938 929.796875 1017.386719 915.628906 C 1023.742188 877.261719 1026.609375 838.378906 1027.988281 800.6875 C 1029.78125 748.289062 1028.71875 695.929688 1023.835938 644.230469 C 1023.789062 643.726562 1023.742188 643.226562 1023.691406 642.726562 C 1021.1875 617.335938 1017.824219 592.007812 1012.082031 567.203125 C 1010.171875 559.234375 1007.992188 551.316406 1005.191406 543.59375 C 1003.921875 540.277344 1002.527344 537.011719 1000.914062 533.828125 C 1000.597656 533.253906 1000.269531 532.679688 999.929688 532.109375 C 998.984375 533.6875 998.113281 535.304688 997.296875 536.953125 C 995.390625 541.128906 993.792969 545.433594 992.339844 549.804688 C 988.285156 562.679688 985.429688 575.960938 983.039062 589.34375 C 977.910156 618.980469 975.0625 649.234375 973.25 679.632812 C 972.792969 687.253906 972.417969 694.882812 972.199219 700.5 C 970.695312 739.199219 970.871094 778.253906 972.871094 817.496094 C 973.617188 832.085938 974.644531 846.710938 975.980469 861.332031 C 978.417969 887.210938 981.785156 913.230469 987.46875 938.917969 C 989.457031 947.511719 991.726562 956.078125 994.667969 964.445312 C 995.890625 967.738281 997.238281 970.992188 998.769531 974.167969 C 999.1875 974.960938 999.621094 975.742188 1000.074219 976.515625 Z M 1000.074219 976.515625 "/>
<path fill-rule="nonzero" fill="rgb(0%, 0%, 0%)" fill-opacity="1" d="M 969.992188 1017.476562 C 945.953125 999.070312 966.859375 968.234375 993.941406 974.40625 C 1009.222656 978.75 1013.09375 1001.511719 1002.847656 1012.554688 C 995.175781 1020.390625 979.457031 1022.890625 969.992188 1017.476562 Z M 969.992188 1017.476562 "/>
<path fill-rule="nonzero" fill="rgb(0%, 0%, 0%)" fill-opacity="1" d="M 1003.777344 1009.136719 C 998.914062 1009.976562 993.734375 1008.953125 989.605469 1005.6875 C 988.847656 1005.082031 988.132812 1004.425781 987.472656 1003.71875 C 953.070312 1002.574219 968.433594 952.757812 996.648438 955.488281 C 1016.550781 955.730469 1037.277344 979.648438 1028.675781 999.113281 C 1024.171875 1007.792969 1013.007812 1012.332031 1003.777344 1009.136719 Z M 1003.777344 1009.136719 "/>
<path fill-rule="nonzero" fill="rgb(0%, 0%, 0%)" fill-opacity="1" d="M 986.019531 1041.769531 C 981.347656 1039.25 977.671875 1035.667969 975.003906 1031.460938 C 965.679688 1026.863281 958.636719 1018.324219 956.324219 1008.234375 C 952.410156 1004.199219 951.070312 998.542969 950.777344 993.085938 C 950.933594 978.800781 962.535156 963.683594 977.558594 963.671875 C 994.074219 946.925781 1030.492188 953.453125 1037.097656 977.085938 C 1052.511719 1007.914062 1022.90625 1059.257812 986.019531 1041.769531 Z M 986.019531 1041.769531 "/>
<path fill-rule="nonzero" fill="rgb(0%, 0%, 0%)" fill-opacity="1" d="M 979.941406 1076.660156 C 930.800781 1066.242188 910.011719 1001.796875 933.980469 960.507812 C 959.238281 914.429688 1032.375 912.257812 1058.527344 958.527344 C 1104.753906 1017.746094 1052.507812 1095.691406 979.941406 1076.660156 Z M 979.941406 1076.660156 "/>
</svg>
