<?xml version="1.0" encoding="UTF-8"?>
<!-- Created by grConvert v0.1-0 -->
<svg xmlns="http://www.w3.org/2000/svg" xmlns:xlink="http://www.w3.org/1999/xlink" width="2000" height="2000" viewBox="0 0 2000 2000">
<path fill-rule="nonzero" fill="rgb(0%, 79.215688%, 93.725491%)" fill-opacity="1" d="M 1030.277344 712.601562 C 1031.25 741.886719 1031.148438 771.292969 1030.140625 800.714844 C 1029.972656 805.417969 1029.773438 810.15625 1029.554688 814.894531 C 1029.335938 819.515625 1029.082031 824.15625 1028.8125 828.792969 C 1028.664062 831.3125 1028.511719 833.816406 1028.34375 836.335938 C 1028.042969 840.941406 1027.703125 845.542969 1027.335938 850.164062 C 1027.320312 850.550781 1027.285156 850.921875 1027.25 851.308594 C 1026.898438 855.691406 1026.511719 860.078125 1026.109375 864.464844 C 1025.621094 869.503906 1025.101562 874.546875 1024.527344 879.570312 C 1023.707031 886.792969 1022.78125 894.019531 1021.757812 901.226562 C 1021.402344 903.632812 1021.050781 906.035156 1020.679688 908.4375 C 1020.3125 910.839844 1019.925781 913.226562 1019.523438 915.628906 C 1019.21875 917.390625 1018.917969 919.171875 1018.597656 920.9375 C 1018.226562 922.9375 1017.859375 924.9375 1017.472656 926.917969 C 1007.523438 924.582031 997.074219 924.265625 986.941406 925.929688 C 986.839844 925.425781 986.738281 924.921875 986.65625 924.433594 C 986.050781 921.207031 985.480469 917.980469 984.925781 914.753906 C 981.917969 896.992188 979.816406 879.148438 978.136719 861.355469 C 976.792969 846.738281 975.769531 832.101562 975.027344 817.515625 C 973.027344 778.28125 972.84375 739.234375 974.355469 700.539062 C 974.492188 697.007812 974.691406 692.691406 974.929688 688.070312 C 974.976562 687.179688 975.027344 686.273438 975.078125 685.363281 C 975.179688 683.5 975.28125 681.582031 975.398438 679.683594 C 975.667969 675.097656 975.96875 670.511719 976.304688 665.921875 C 976.339844 665.585938 976.355469 665.25 976.371094 664.914062 C 976.707031 660.34375 977.0625 655.792969 977.449219 651.238281 C 977.617188 649.171875 977.800781 647.105469 978.003906 645.039062 C 978.320312 641.441406 978.675781 637.847656 979.0625 634.25 C 979.449219 630.488281 979.867188 626.722656 980.320312 622.976562 C 980.992188 617.332031 981.734375 611.71875 982.539062 606.121094 C 983.347656 600.527344 984.238281 594.964844 985.195312 589.40625 C 986.992188 579.355469 989.042969 569.375 991.664062 559.597656 C 992.101562 557.964844 992.554688 556.335938 993.023438 554.707031 C 993.496094 553.09375 993.980469 551.464844 994.484375 549.867188 C 994.671875 549.3125 994.855469 548.777344 995.058594 548.238281 C 995.242188 547.683594 995.425781 547.144531 995.613281 546.609375 C 996.769531 543.347656 998.015625 540.15625 999.441406 537.011719 C 1000.265625 535.367188 1001.140625 533.753906 1002.082031 532.175781 C 1002.417969 532.746094 1002.734375 533.316406 1003.054688 533.886719 C 1004.265625 536.273438 1005.359375 538.710938 1006.367188 541.179688 C 1006.703125 542.003906 1007.019531 542.828125 1007.339844 543.652344 C 1007.691406 544.609375 1008.027344 545.582031 1008.363281 546.558594 C 1009.019531 548.507812 1009.660156 550.457031 1010.246094 552.421875 C 1010.550781 553.394531 1010.835938 554.386719 1011.121094 555.363281 C 1011.960938 558.320312 1012.75 561.292969 1013.507812 564.265625 C 1013.742188 565.277344 1013.992188 566.265625 1014.230469 567.257812 C 1019.976562 592.058594 1023.335938 617.398438 1025.839844 642.769531 C 1025.890625 643.273438 1025.941406 643.777344 1025.972656 644.28125 C 1027.050781 655.605469 1027.941406 666.980469 1028.644531 678.359375 C 1028.644531 678.375 1028.644531 678.375 1028.644531 678.375 C 1028.929688 682.929688 1029.183594 687.5 1029.417969 692.050781 C 1029.417969 692.050781 1029.417969 692.070312 1029.417969 692.070312 C 1029.773438 698.90625 1030.058594 705.746094 1030.277344 712.601562 Z M 1030.277344 712.601562 "/>
<path fill-rule="nonzero" fill="rgb(0%, 79.215688%, 93.725491%)" fill-opacity="1" d="M 1343.023438 661.066406 C 1342.871094 661.722656 1342.6875 662.34375 1342.519531 662.984375 C 1341.394531 666.378906 1340.082031 669.671875 1338.636719 672.914062 C 1336.890625 676.644531 1335.007812 680.273438 1333.027344 683.867188 C 1331.042969 687.464844 1328.960938 690.992188 1326.808594 694.472656 C 1313.332031 716.078125 1297.808594 736.359375 1281.625 756.070312 C 1281.308594 756.472656 1280.988281 756.859375 1280.667969 757.246094 C 1247.566406 797.253906 1211.289062 835.007812 1172.980469 870.796875 C 1145.355469 896.472656 1115.851562 921.929688 1084.230469 944.5625 C 1082.765625 945.605469 1081.289062 946.628906 1079.808594 947.652344 C 1076.851562 949.703125 1073.878906 951.71875 1070.871094 953.703125 C 1068.234375 955.449219 1065.5625 957.164062 1062.855469 958.828125 C 1062.285156 958.945312 1061.730469 959.0625 1061.160156 959.179688 C 1061.007812 958.960938 1060.839844 958.742188 1060.671875 958.523438 C 1056.722656 951.550781 1051.714844 945.6875 1045.96875 940.898438 C 1046.1875 940.5625 1046.390625 940.210938 1046.609375 939.875 C 1060.753906 917.695312 1076.769531 896.925781 1093.335938 876.898438 C 1102.730469 865.625 1112.339844 854.550781 1122.136719 843.710938 C 1148.464844 814.542969 1175.953125 786.820312 1204.367188 760.523438 C 1208.5 756.707031 1214.164062 751.566406 1219.878906 746.507812 C 1242.644531 726.296875 1266.050781 706.921875 1290.632812 689.597656 C 1301.773438 681.820312 1313.183594 674.441406 1325.164062 668.226562 C 1329.277344 666.160156 1333.445312 664.242188 1337.746094 662.628906 C 1339.496094 662.042969 1341.242188 661.519531 1343.023438 661.066406 Z M 1343.023438 661.066406 "/>
<path fill-rule="nonzero" fill="rgb(0%, 79.215688%, 93.725491%)" fill-opacity="1" d="M 1467.882812 1002.144531 C 1467.3125 1002.480469 1466.742188 1002.816406 1466.171875 1003.136719 C 1462.996094 1004.75 1459.71875 1006.144531 1456.40625 1007.402344 C 1448.695312 1010.210938 1440.765625 1012.394531 1432.800781 1014.292969 C 1408 1020.039062 1382.679688 1023.398438 1357.289062 1025.902344 C 1356.785156 1025.953125 1356.28125 1026.003906 1355.792969 1026.054688 C 1346.71875 1026.914062 1337.628906 1027.652344 1328.523438 1028.273438 C 1323.96875 1028.59375 1319.433594 1028.878906 1314.878906 1029.128906 C 1314.863281 1029.128906 1314.863281 1029.128906 1314.863281 1029.128906 C 1310.308594 1029.382812 1305.738281 1029.617188 1301.183594 1029.820312 C 1298.898438 1029.917969 1296.597656 1030.019531 1294.3125 1030.105469 C 1290.3125 1030.253906 1286.316406 1030.390625 1282.316406 1030.507812 C 1274.402344 1030.742188 1266.472656 1030.878906 1258.523438 1030.960938 C 1246.746094 1031.0625 1234.933594 1031.011719 1223.121094 1030.808594 C 1215.207031 1030.675781 1207.273438 1030.472656 1199.359375 1030.207031 C 1161.671875 1028.828125 1122.792969 1025.953125 1084.429688 1019.601562 C 1082.027344 1019.199219 1079.609375 1018.761719 1077.207031 1018.324219 C 1077.207031 1018.324219 1077.207031 1018.324219 1077.207031 1018.308594 C 1078.835938 1008.195312 1078.347656 997.492188 1075.324219 986.835938 C 1075.375 986.820312 1075.40625 986.789062 1075.457031 986.753906 C 1096.476562 982.789062 1117.632812 980.183594 1138.71875 978.203125 C 1142.382812 977.863281 1146.03125 977.5625 1149.675781 977.261719 C 1160.648438 976.371094 1171.601562 975.664062 1182.542969 975.09375 C 1187.933594 974.824219 1193.328125 974.570312 1198.707031 974.371094 C 1204.417969 974.152344 1210.132812 973.96875 1215.84375 973.832031 C 1239.585938 973.246094 1263.226562 973.3125 1286.75 973.984375 C 1291.003906 974.117188 1295.269531 974.253906 1299.523438 974.421875 C 1300.582031 974.453125 1301.707031 974.503906 1302.882812 974.554688 C 1303.671875 974.589844 1304.476562 974.640625 1305.320312 974.671875 C 1306.125 974.707031 1306.964844 974.757812 1307.820312 974.789062 C 1308.710938 974.839844 1309.621094 974.875 1310.542969 974.925781 C 1311.453125 974.976562 1312.375 975.027344 1313.300781 975.074219 C 1314.207031 975.125 1315.113281 975.175781 1316.039062 975.226562 C 1317.484375 975.3125 1318.929688 975.394531 1320.390625 975.480469 C 1350.785156 977.292969 1381.03125 980.132812 1410.65625 985.257812 C 1424.046875 987.644531 1437.320312 990.5 1450.191406 994.566406 C 1454.578125 996.011719 1458.878906 997.609375 1463.046875 999.507812 C 1464.691406 1000.332031 1466.304688 1001.203125 1467.882812 1002.144531 Z M 1467.882812 1002.144531 "/>
<path fill-rule="nonzero" fill="rgb(0%, 79.215688%, 93.725491%)" fill-opacity="1" d="M 1347.929688 1345.726562 C 1348.066406 1346.164062 1348.183594 1346.597656 1348.28125 1347.054688 C 1347.644531 1346.886719 1347.007812 1346.71875 1346.382812 1346.53125 C 1344.6875 1345.976562 1343.007812 1345.371094 1341.359375 1344.71875 C 1339.714844 1344.0625 1338.066406 1343.375 1336.453125 1342.652344 C 1329.011719 1339.171875 1321.871094 1335.125 1314.894531 1330.839844 C 1312.191406 1329.160156 1309.519531 1327.445312 1306.847656 1325.695312 C 1304.191406 1323.949219 1301.554688 1322.167969 1298.933594 1320.371094 C 1297.621094 1319.464844 1296.3125 1318.554688 1295 1317.648438 C 1292.398438 1315.816406 1289.808594 1313.96875 1287.238281 1312.085938 C 1283.375 1309.265625 1279.542969 1306.40625 1275.746094 1303.5 C 1273.207031 1301.570312 1270.707031 1299.601562 1268.183594 1297.636719 C 1265.679688 1295.671875 1263.195312 1293.6875 1260.707031 1291.6875 C 1258.222656 1289.6875 1255.75 1287.6875 1253.28125 1285.65625 C 1253.097656 1285.488281 1252.894531 1285.335938 1252.710938 1285.167969 C 1252.507812 1285 1252.324219 1284.851562 1252.121094 1284.683594 C 1247.113281 1280.546875 1242.15625 1276.363281 1237.21875 1272.128906 C 1229.824219 1265.777344 1222.5 1259.308594 1215.257812 1252.757812 C 1203.191406 1241.835938 1191.328125 1230.628906 1179.667969 1219.183594 C 1177.332031 1216.882812 1175.015625 1214.597656 1172.695312 1212.277344 C 1161.117188 1200.734375 1149.742188 1188.972656 1138.570312 1177.011719 C 1112.894531 1149.386719 1087.4375 1119.863281 1064.804688 1088.242188 C 1059.359375 1080.546875 1054.070312 1072.714844 1049.195312 1064.667969 C 1055.414062 1059.964844 1060.804688 1054.316406 1065.191406 1047.984375 C 1066.636719 1048.855469 1068.066406 1049.746094 1069.492188 1050.636719 C 1070.871094 1051.527344 1072.265625 1052.417969 1073.644531 1053.308594 C 1076.382812 1055.105469 1079.121094 1056.921875 1081.828125 1058.769531 C 1084.53125 1060.617188 1087.21875 1062.5 1089.890625 1064.398438 C 1092.5625 1066.296875 1095.21875 1068.214844 1097.855469 1070.164062 C 1100.476562 1072.09375 1103.097656 1074.058594 1105.703125 1076.042969 C 1108.308594 1078.007812 1110.878906 1080.007812 1113.449219 1082.023438 C 1116.019531 1084.042969 1118.574219 1086.058594 1121.128906 1088.105469 C 1122.386719 1089.132812 1123.664062 1090.15625 1124.925781 1091.183594 C 1127.445312 1093.230469 1129.964844 1095.300781 1132.46875 1097.367188 C 1143.746094 1106.757812 1154.816406 1116.371094 1165.65625 1126.148438 C 1194.808594 1152.476562 1222.546875 1179.96875 1248.84375 1208.398438 C 1252.660156 1212.53125 1257.785156 1218.175781 1262.859375 1223.890625 C 1264.117188 1225.316406 1265.394531 1226.746094 1266.640625 1228.191406 C 1269.160156 1231.03125 1271.664062 1233.902344 1274.132812 1236.777344 C 1276.621094 1239.652344 1279.074219 1242.539062 1281.527344 1245.449219 C 1285.1875 1249.800781 1288.820312 1254.183594 1292.398438 1258.585938 C 1294.785156 1261.542969 1297.136719 1264.484375 1299.472656 1267.460938 C 1306.496094 1276.382812 1313.265625 1285.421875 1319.769531 1294.644531 C 1327.546875 1305.800781 1334.90625 1317.210938 1341.140625 1329.175781 C 1343.207031 1333.292969 1345.125 1337.457031 1346.738281 1341.761719 C 1346.90625 1342.265625 1347.054688 1342.75 1347.207031 1343.253906 C 1347.476562 1344.078125 1347.710938 1344.902344 1347.929688 1345.726562 Z M 1347.929688 1345.726562 "/>
<path fill-rule="nonzero" fill="rgb(0%, 79.215688%, 93.725491%)" fill-opacity="1" d="M 1024.578125 1133.375 C 1029.453125 1185.058594 1030.511719 1237.414062 1028.730469 1289.804688 C 1027.351562 1327.496094 1024.480469 1366.375 1018.128906 1404.738281 C 1015.691406 1418.902344 1012.800781 1433.03125 1008.601562 1446.777344 C 1007.054688 1451.566406 1005.359375 1456.320312 1003.289062 1460.90625 C 1002.519531 1462.503906 1001.710938 1464.066406 1000.820312 1465.597656 C 1000.738281 1465.460938 1000.652344 1465.328125 1000.585938 1465.175781 C 1000.28125 1464.671875 999.996094 1464.167969 999.746094 1463.664062 C 999.660156 1463.53125 999.578125 1463.394531 999.511719 1463.261719 C 997.980469 1460.085938 996.636719 1456.824219 995.410156 1453.53125 C 992.46875 1445.179688 990.203125 1436.613281 988.21875 1428.007812 C 982.523438 1402.335938 979.160156 1376.324219 976.726562 1350.449219 C 975.398438 1335.828125 974.355469 1321.195312 973.617188 1306.609375 C 971.617188 1267.375 971.433594 1228.324219 972.945312 1189.628906 C 973.164062 1184.015625 973.535156 1176.386719 974.003906 1168.777344 C 975.820312 1138.382812 978.65625 1108.136719 983.78125 1078.496094 C 983.867188 1078.042969 983.949219 1077.570312 984.035156 1077.117188 C 995.796875 1079.957031 1007.003906 1080.226562 1017.320312 1078.445312 C 1020.480469 1096.121094 1022.664062 1113.984375 1024.429688 1131.863281 C 1024.480469 1132.367188 1024.527344 1132.871094 1024.578125 1133.375 Z M 1024.578125 1133.375 "/>
<path fill-rule="nonzero" fill="rgb(0%, 79.215688%, 93.725491%)" fill-opacity="1" d="M 956.460938 1064.769531 C 956.308594 1065.492188 956.175781 1066.214844 956.023438 1066.9375 C 956.023438 1066.953125 956.023438 1066.953125 956.023438 1066.953125 C 942.71875 1088.15625 927.425781 1108.085938 911.515625 1127.492188 C 911.195312 1127.878906 910.875 1128.265625 910.558594 1128.652344 C 908.488281 1131.15625 906.40625 1133.644531 904.304688 1136.128906 C 900.121094 1141.085938 895.886719 1146.027344 891.601562 1150.914062 C 889.46875 1153.367188 887.320312 1155.804688 885.152344 1158.242188 C 876.496094 1167.96875 867.660156 1177.546875 858.671875 1187.007812 C 847.414062 1198.835938 835.917969 1210.449219 824.191406 1221.875 C 817.167969 1228.710938 810.058594 1235.5 802.867188 1242.203125 C 794.25 1250.21875 785.425781 1258.21875 776.421875 1266.132812 C 762.003906 1278.765625 747.101562 1291.167969 731.675781 1302.964844 C 727.828125 1305.921875 723.929688 1308.828125 720.015625 1311.699219 C 718.066406 1313.128906 716.097656 1314.558594 714.117188 1315.96875 C 711.175781 1318.035156 708.21875 1320.101562 705.246094 1322.117188 C 702.269531 1324.132812 699.261719 1326.117188 696.238281 1328.050781 C 693.199219 1329.980469 690.140625 1331.863281 687.046875 1333.695312 C 687.046875 1333.695312 687.03125 1333.695312 687.03125 1333.695312 C 683.9375 1335.511719 680.8125 1337.273438 677.636719 1338.953125 C 676.511719 1339.542969 675.402344 1340.097656 674.261719 1340.667969 C 673.136719 1341.222656 671.992188 1341.761719 670.851562 1342.28125 C 669.707031 1342.820312 668.566406 1343.324219 667.40625 1343.808594 C 666.246094 1344.296875 665.085938 1344.769531 663.910156 1345.203125 C 662.230469 1345.792969 660.550781 1346.332031 658.835938 1346.785156 C 658.835938 1346.785156 658.820312 1346.785156 658.820312 1346.785156 C 658.9375 1346.347656 659.054688 1345.910156 659.171875 1345.492188 C 659.304688 1345.054688 659.425781 1344.617188 659.558594 1344.195312 C 659.84375 1343.375 660.148438 1342.535156 660.464844 1341.710938 C 661.40625 1339.238281 662.449219 1336.820312 663.539062 1334.417969 C 667.371094 1326.4375 671.824219 1318.773438 676.496094 1311.28125 C 690.644531 1289.101562 706.65625 1268.332031 723.222656 1248.320312 C 732.617188 1237.03125 742.226562 1225.972656 752.023438 1215.117188 C 755.316406 1211.472656 758.628906 1207.859375 761.953125 1204.246094 C 768.609375 1197.054688 775.328125 1189.949219 782.117188 1182.925781 C 785.511719 1179.414062 788.921875 1175.917969 792.351562 1172.457031 C 806.078125 1158.578125 820.039062 1145.070312 834.257812 1131.929688 C 837.617188 1128.835938 841.984375 1124.871094 846.554688 1120.773438 C 847.261719 1120.148438 847.96875 1119.527344 848.671875 1118.875 C 848.671875 1118.875 848.6875 1118.875 848.6875 1118.875 C 849.042969 1118.535156 849.394531 1118.234375 849.746094 1117.914062 C 852.605469 1115.394531 855.460938 1112.875 858.316406 1110.386719 C 858.316406 1110.386719 858.335938 1110.386719 858.335938 1110.386719 C 861.207031 1107.867188 864.082031 1105.398438 866.953125 1102.945312 C 866.953125 1102.945312 866.972656 1102.945312 866.972656 1102.945312 C 869.859375 1100.457031 872.75 1098.019531 875.675781 1095.601562 C 877.136719 1094.375 878.597656 1093.164062 880.058594 1091.972656 C 882.984375 1089.570312 885.925781 1087.183594 888.882812 1084.832031 C 890.359375 1083.636719 891.839844 1082.460938 893.335938 1081.300781 C 902.238281 1074.277344 911.296875 1067.492188 920.503906 1061.003906 C 921.898438 1060.03125 923.292969 1059.074219 924.703125 1058.113281 C 929.945312 1054.535156 935.257812 1051.058594 940.667969 1047.78125 C 945.019531 1054.265625 950.3125 1060.046875 956.460938 1064.769531 Z M 956.460938 1064.769531 "/>
<path fill-rule="nonzero" fill="rgb(0%, 79.215688%, 93.725491%)" fill-opacity="1" d="M 921.429688 985.257812 C 923.34375 985.59375 925.257812 985.945312 927.15625 986.316406 C 925.5625 996.601562 925.914062 1007.285156 928.082031 1017.570312 C 908.253906 1021.402344 888.175781 1023.921875 868.046875 1025.902344 C 867.542969 1025.953125 867.054688 1026.003906 866.550781 1026.054688 C 857.476562 1026.914062 848.386719 1027.652344 839.28125 1028.273438 C 834.726562 1028.59375 830.191406 1028.878906 825.636719 1029.128906 C 825.621094 1029.128906 825.621094 1029.128906 825.621094 1029.128906 C 821.066406 1029.382812 816.496094 1029.617188 811.941406 1029.820312 C 809.65625 1029.917969 807.355469 1030.019531 805.070312 1030.105469 C 801.070312 1030.253906 797.070312 1030.390625 793.074219 1030.507812 C 785.160156 1030.742188 777.226562 1030.878906 769.28125 1030.960938 C 757.5 1031.0625 745.6875 1031.011719 733.875 1030.808594 C 725.960938 1030.675781 718.03125 1030.472656 710.117188 1030.207031 C 672.429688 1028.828125 633.546875 1025.953125 595.1875 1019.601562 C 589.878906 1018.695312 584.566406 1017.722656 579.277344 1016.628906 C 570.472656 1014.8125 561.734375 1012.695312 553.148438 1010.074219 C 550.140625 1009.101562 547.164062 1008.09375 544.226562 1006.949219 C 543.050781 1006.496094 541.890625 1006.027344 540.746094 1005.523438 C 540.160156 1005.285156 539.585938 1005.035156 539.015625 1004.765625 C 537.421875 1003.992188 535.839844 1003.1875 534.3125 1002.296875 C 535.085938 1001.84375 535.855469 1001.40625 536.664062 1000.984375 C 539.839844 999.457031 543.082031 998.113281 546.375 996.886719 C 554.742188 993.945312 563.3125 991.675781 571.898438 989.695312 C 597.589844 984 623.601562 980.636719 649.476562 978.203125 C 653.125 977.863281 656.785156 977.5625 660.433594 977.261719 C 671.40625 976.371094 682.359375 975.664062 693.296875 975.09375 C 698.691406 974.824219 704.085938 974.570312 709.460938 974.371094 C 715.242188 974.152344 721.023438 973.96875 726.785156 973.816406 C 750.460938 973.246094 774.035156 973.3125 797.507812 973.984375 C 801.757812 974.117188 806.027344 974.253906 810.277344 974.421875 C 811.335938 974.453125 812.460938 974.503906 813.640625 974.554688 C 814.429688 974.589844 815.234375 974.640625 816.074219 974.671875 C 816.882812 974.707031 817.722656 974.757812 818.578125 974.789062 C 819.46875 974.839844 820.375 974.875 821.300781 974.925781 C 822.207031 974.976562 823.132812 975.027344 824.058594 975.074219 C 824.964844 975.125 825.871094 975.175781 826.796875 975.226562 C 828.242188 975.3125 829.6875 975.394531 831.148438 975.480469 C 861.542969 977.292969 891.789062 980.132812 921.429688 985.257812 Z M 921.429688 985.257812 "/>
<path fill-rule="nonzero" fill="rgb(0%, 79.215688%, 93.725491%)" fill-opacity="1" d="M 943.355469 920.585938 C 947.523438 926.566406 951.589844 932.617188 955.402344 938.800781 C 948.800781 943.554688 942.984375 949.535156 938.398438 956.710938 C 916.824219 943.25 896.558594 927.742188 876.867188 911.578125 C 876.699219 911.425781 876.515625 911.292969 876.347656 911.160156 C 876.128906 910.972656 875.925781 910.789062 875.707031 910.621094 C 871.859375 907.429688 868.027344 904.21875 864.214844 900.976562 C 861.929688 899.027344 859.660156 897.078125 857.394531 895.09375 C 853.613281 891.851562 849.867188 888.558594 846.136719 885.230469 C 836.40625 876.578125 826.8125 867.742188 817.351562 858.734375 C 813.808594 855.355469 810.277344 851.960938 806.765625 848.535156 C 806.765625 848.535156 806.75 848.535156 806.75 848.535156 C 803.238281 845.125 799.761719 841.679688 796.296875 838.21875 C 784.703125 826.675781 773.328125 814.914062 762.15625 802.949219 C 736.480469 775.324219 711.023438 745.804688 688.390625 714.179688 C 683.199219 706.855469 678.160156 699.394531 673.453125 691.734375 C 671.574219 688.675781 669.742188 685.582031 667.992188 682.441406 C 667.101562 680.878906 666.246094 679.296875 665.40625 677.71875 C 664.53125 676.039062 663.691406 674.34375 662.886719 672.628906 C 662.332031 671.484375 661.808594 670.359375 661.304688 669.199219 C 660.800781 668.058594 660.316406 666.898438 659.84375 665.738281 C 659.84375 665.722656 659.84375 665.722656 659.84375 665.722656 C 659.609375 665.132812 659.375 664.5625 659.15625 663.972656 C 658.871094 663.132812 658.585938 662.292969 658.316406 661.453125 C 658.0625 660.613281 657.8125 659.757812 657.59375 658.898438 C 658.449219 659.117188 659.304688 659.371094 660.164062 659.640625 C 663.492188 660.800781 666.75 662.144531 669.941406 663.605469 C 673.941406 665.519531 677.855469 667.585938 681.703125 669.773438 C 685.550781 671.9375 689.351562 674.222656 693.078125 676.558594 C 695.851562 678.324219 698.609375 680.121094 701.328125 681.953125 C 702.691406 682.859375 704.050781 683.785156 705.414062 684.710938 C 707.5625 686.1875 709.714844 687.667969 711.832031 689.160156 C 713.730469 690.488281 715.59375 691.832031 717.476562 693.195312 C 719.5625 694.707031 721.628906 696.234375 723.695312 697.78125 C 734.75 705.996094 745.503906 714.566406 756.054688 723.304688 C 767.332031 732.679688 778.402344 742.308594 789.242188 752.085938 C 818.410156 778.417969 846.136719 805.90625 872.429688 834.335938 C 876.246094 838.453125 881.386719 844.117188 886.445312 849.828125 C 906.660156 872.597656 926.03125 896.003906 943.355469 920.585938 Z M 943.355469 920.585938 "/>
</svg>
