<?xml version="1.0" encoding="UTF-8"?>
<!-- Created by grConvert v0.1-0 -->
<svg xmlns="http://www.w3.org/2000/svg" xmlns:xlink="http://www.w3.org/1999/xlink" width="2000" height="2000" viewBox="0 0 2000 2000">
<path fill-rule="nonzero" fill="rgb(0%, 0%, 0%)" fill-opacity="1" d="M 986.566406 1496.074219 C 974.460938 1487.9375 968.511719 1473.363281 963.957031 1459.929688 C 957.9375 1442.210938 954.425781 1423.710938 951.464844 1405.464844 C 947.558594 1381.46875 945.160156 1357.351562 943.398438 1333.332031 C 940.453125 1293.175781 939.671875 1253.167969 940.558594 1213.507812 C 941.371094 1178.089844 943.417969 1142.867188 947.609375 1108.15625 C 949.503906 1092.484375 951.851562 1076.917969 954.929688 1061.5625 C 957.648438 1048.074219 960.949219 1034.675781 965.707031 1021.875 C 969.421875 1011.859375 974.414062 1001 982.976562 994.398438 C 983.269531 994.175781 983.566406 993.964844 983.867188 993.769531 C 988.871094 990.335938 994.636719 988.503906 1000.875 989.394531 C 1015.515625 991.5 1024.003906 1006.386719 1029.144531 1018.867188 C 1036.429688 1036.566406 1040.515625 1055.511719 1043.882812 1074.226562 C 1047.15625 1092.433594 1049.496094 1110.824219 1051.332031 1129.265625 C 1056.488281 1181.203125 1057.933594 1233.789062 1056.382812 1286.457031 C 1054.972656 1334.167969 1051.648438 1382.546875 1042.066406 1429.648438 C 1039.324219 1443.09375 1035.960938 1456.582031 1030.929688 1469.28125 C 1028.722656 1474.890625 1026.101562 1480.246094 1022.878906 1485.257812 C 1020.839844 1488.425781 1018.363281 1491.210938 1015.605469 1493.703125 C 1011.125 1497.773438 1005.316406 1500 999.429688 1500 C 995.007812 1500 990.546875 1498.746094 986.566406 1496.074219 Z M 998.667969 1465.683594 C 999.558594 1464.15625 1000.375 1462.582031 1001.148438 1460.980469 C 1003.21875 1456.402344 1004.914062 1451.648438 1006.445312 1446.84375 C 1010.648438 1433.113281 1013.554688 1418.96875 1015.980469 1404.796875 C 1022.335938 1366.433594 1025.203125 1327.546875 1026.582031 1289.855469 C 1028.375 1237.457031 1027.3125 1185.101562 1022.429688 1133.398438 C 1022.382812 1132.898438 1022.335938 1132.394531 1022.289062 1131.894531 C 1019.78125 1106.507812 1016.417969 1081.179688 1010.675781 1056.375 C 1008.765625 1048.40625 1006.585938 1040.484375 1003.785156 1032.765625 C 1002.515625 1029.445312 1001.121094 1026.179688 999.507812 1023 C 999.191406 1022.421875 998.863281 1021.847656 998.523438 1021.28125 C 997.578125 1022.859375 996.707031 1024.476562 995.890625 1026.121094 C 993.984375 1030.296875 992.386719 1034.601562 990.933594 1038.976562 C 986.878906 1051.847656 984.023438 1065.128906 981.632812 1078.515625 C 976.503906 1108.152344 973.65625 1138.402344 971.84375 1168.804688 C 971.386719 1176.421875 971.011719 1184.050781 970.792969 1189.667969 C 969.289062 1228.367188 969.464844 1267.421875 971.464844 1306.664062 C 972.210938 1321.257812 973.238281 1335.882812 974.574219 1350.5 C 977.011719 1376.382812 980.378906 1402.398438 986.0625 1428.085938 C 988.050781 1436.683594 990.320312 1445.25 993.261719 1453.613281 C 994.484375 1456.90625 995.832031 1460.164062 997.363281 1463.335938 C 997.78125 1464.128906 998.214844 1464.914062 998.667969 1465.683594 Z M 998.667969 1465.683594 "/>
<path fill-rule="nonzero" fill="rgb(0%, 0%, 0%)" fill-opacity="1" d="M 987.972656 1006.90625 C 975.867188 998.769531 969.917969 984.195312 965.363281 970.757812 C 959.34375 953.039062 955.832031 934.539062 952.871094 916.292969 C 948.964844 892.296875 946.566406 868.179688 944.804688 844.160156 C 941.859375 804.007812 941.078125 764 941.964844 724.339844 C 942.777344 688.917969 944.824219 653.695312 949.015625 618.984375 C 950.910156 603.316406 953.257812 587.746094 956.335938 572.394531 C 959.054688 558.902344 962.355469 545.507812 967.113281 532.707031 C 970.828125 522.691406 975.820312 511.828125 984.382812 505.230469 C 984.675781 505.007812 984.972656 504.796875 985.273438 504.597656 C 990.277344 501.167969 996.042969 499.332031 1002.28125 500.226562 C 1016.921875 502.332031 1025.410156 517.214844 1030.550781 529.695312 C 1037.835938 547.398438 1041.921875 566.339844 1045.289062 585.054688 C 1048.5625 603.265625 1050.902344 621.65625 1052.738281 640.09375 C 1057.894531 692.03125 1059.339844 744.617188 1057.789062 797.289062 C 1056.378906 844.996094 1053.054688 893.378906 1043.472656 940.476562 C 1040.730469 953.921875 1037.367188 967.414062 1032.335938 980.113281 C 1030.128906 985.722656 1027.507812 991.078125 1024.285156 996.085938 C 1022.246094 999.257812 1019.769531 1002.042969 1017.011719 1004.535156 C 1012.53125 1008.605469 1006.722656 1010.828125 1000.835938 1010.828125 C 996.414062 1010.828125 991.953125 1009.574219 987.972656 1006.90625 Z M 1000.074219 976.515625 C 1000.964844 974.984375 1001.78125 973.410156 1002.554688 971.8125 C 1004.625 967.234375 1006.320312 962.476562 1007.851562 957.671875 C 1012.054688 943.941406 1014.960938 929.796875 1017.386719 915.628906 C 1023.742188 877.261719 1026.609375 838.378906 1027.988281 800.6875 C 1029.78125 748.289062 1028.71875 695.929688 1023.835938 644.230469 C 1023.789062 643.726562 1023.742188 643.226562 1023.691406 642.726562 C 1021.1875 617.335938 1017.824219 592.007812 1012.082031 567.203125 C 1010.171875 559.234375 1007.992188 551.316406 1005.191406 543.59375 C 1003.921875 540.277344 1002.527344 537.011719 1000.914062 533.828125 C 1000.597656 533.253906 1000.269531 532.679688 999.929688 532.109375 C 998.984375 533.6875 998.113281 535.304688 997.296875 536.953125 C 995.390625 541.128906 993.792969 545.433594 992.339844 549.804688 C 988.285156 562.679688 985.429688 575.960938 983.039062 589.34375 C 977.910156 618.980469 975.0625 649.234375 973.25 679.632812 C 972.792969 687.253906 972.417969 694.882812 972.199219 700.5 C 970.695312 739.199219 970.871094 778.253906 972.871094 817.496094 C 973.617188 832.085938 974.644531 846.710938 975.980469 861.332031 C 978.417969 887.210938 981.785156 913.230469 987.46875 938.917969 C 989.457031 947.511719 991.726562 956.078125 994.667969 964.445312 C 995.890625 967.738281 997.238281 970.992188 998.769531 974.167969 C 999.1875 974.960938 999.621094 975.742188 1000.074219 976.515625 Z M 1000.074219 976.515625 "/>
<path fill-rule="nonzero" fill="rgb(0%, 0%, 0%)" fill-opacity="1" d="M 996.75 988.300781 C 993.945312 973.988281 1000.042969 959.476562 1006.324219 946.753906 C 1014.59375 929.96875 1025.191406 914.40625 1036 899.410156 C 1050.207031 879.679688 1065.5625 860.929688 1081.300781 842.699219 C 1107.617188 812.226562 1135.351562 783.382812 1164.023438 755.964844 C 1189.640625 731.492188 1215.996094 708.035156 1243.503906 686.457031 C 1255.925781 676.714844 1268.59375 667.363281 1281.625 658.6875 C 1293.085938 651.070312 1304.890625 643.929688 1317.308594 638.242188 C 1327.019531 633.789062 1338.230469 629.636719 1348.949219 631.027344 C 1349.3125 631.074219 1349.671875 631.136719 1350.027344 631.210938 C 1355.992188 632.320312 1361.367188 635.101562 1365.144531 640.140625 C 1374.007812 651.984375 1369.484375 668.511719 1364.296875 680.972656 C 1356.929688 698.640625 1346.425781 714.925781 1335.570312 730.539062 C 1325.011719 745.730469 1313.660156 760.386719 1301.921875 774.726562 C 1268.839844 815.09375 1232.679688 853.300781 1194.339844 889.449219 C 1159.605469 922.183594 1123.046875 954.046875 1082.964844 980.574219 C 1071.519531 988.144531 1059.601562 995.304688 1047.066406 1000.726562 C 1041.539062 1003.132812 1035.898438 1005.066406 1030.078125 1006.332031 C 1026.394531 1007.128906 1022.671875 1007.347656 1018.960938 1007.160156 C 1012.914062 1006.867188 1007.234375 1004.335938 1003.070312 1000.171875 C 999.945312 997.046875 997.675781 993.003906 996.75 988.300781 Z M 1026.796875 975.371094 C 1028.507812 974.917969 1030.199219 974.382812 1031.875 973.796875 C 1036.574219 972.023438 1041.136719 969.859375 1045.617188 967.546875 C 1058.300781 960.808594 1070.355469 952.859375 1082.089844 944.558594 C 1113.710938 921.925781 1143.238281 896.457031 1170.863281 870.78125 C 1209.183594 834.996094 1245.453125 797.222656 1278.558594 757.210938 C 1278.878906 756.820312 1279.203125 756.433594 1279.523438 756.046875 C 1295.703125 736.324219 1311.234375 716.035156 1324.714844 694.433594 C 1328.996094 687.449219 1333.058594 680.308594 1336.535156 672.867188 C 1337.984375 669.621094 1339.304688 666.328125 1340.417969 662.9375 C 1340.597656 662.304688 1340.773438 661.667969 1340.9375 661.027344 C 1339.152344 661.476562 1337.390625 662 1335.648438 662.585938 C 1331.347656 664.191406 1327.175781 666.105469 1323.058594 668.171875 C 1311.085938 674.40625 1299.675781 681.777344 1288.523438 689.554688 C 1263.9375 706.882812 1240.535156 726.261719 1217.753906 746.476562 C 1212.046875 751.542969 1206.386719 756.667969 1202.257812 760.488281 C 1173.828125 786.789062 1146.339844 814.527344 1120.003906 843.691406 C 1110.214844 854.539062 1100.601562 865.605469 1091.207031 876.886719 C 1074.628906 896.910156 1058.613281 917.6875 1044.46875 939.871094 C 1039.796875 947.355469 1035.34375 955.015625 1031.507812 963.011719 C 1030.042969 966.203125 1028.695312 969.460938 1027.535156 972.785156 C 1027.269531 973.644531 1027.023438 974.503906 1026.796875 975.371094 Z M 1026.796875 975.371094 "/>
<path fill-rule="nonzero" fill="rgb(0%, 0%, 0%)" fill-opacity="1" d="M 626.578125 1359.773438 C 623.769531 1345.460938 629.871094 1330.949219 636.148438 1318.226562 C 644.421875 1301.441406 655.019531 1285.875 665.828125 1270.878906 C 680.035156 1251.152344 695.390625 1232.398438 711.128906 1214.171875 C 737.441406 1183.695312 765.179688 1154.851562 793.851562 1127.4375 C 819.46875 1102.964844 845.824219 1079.507812 873.332031 1057.925781 C 885.75 1048.183594 898.417969 1038.835938 911.453125 1030.15625 C 922.914062 1022.539062 934.71875 1015.398438 947.136719 1009.710938 C 956.847656 1005.257812 968.054688 1001.109375 978.777344 1002.496094 C 979.140625 1002.542969 979.5 1002.605469 979.851562 1002.679688 C 985.820312 1003.792969 991.191406 1006.574219 994.972656 1011.613281 C 1003.835938 1023.457031 999.3125 1039.984375 994.121094 1052.441406 C 986.757812 1070.113281 976.253906 1086.394531 965.398438 1102.011719 C 954.835938 1117.199219 943.488281 1131.859375 931.75 1146.195312 C 898.667969 1186.566406 862.507812 1224.773438 824.167969 1260.917969 C 789.433594 1293.65625 752.875 1325.519531 712.792969 1352.046875 C 701.347656 1359.617188 689.429688 1366.773438 676.890625 1372.195312 C 671.367188 1374.605469 665.726562 1376.539062 659.902344 1377.800781 C 656.222656 1378.597656 652.5 1378.820312 648.789062 1378.628906 C 642.738281 1378.339844 637.058594 1375.804688 632.898438 1371.644531 C 629.769531 1368.515625 627.503906 1364.472656 626.578125 1359.773438 Z M 656.621094 1346.839844 C 658.335938 1346.390625 660.023438 1345.851562 661.703125 1345.269531 C 666.402344 1343.496094 670.964844 1341.332031 675.445312 1339.015625 C 688.125 1332.28125 700.183594 1324.332031 711.917969 1316.027344 C 743.539062 1293.394531 773.066406 1267.925781 800.691406 1242.25 C 839.011719 1206.464844 875.28125 1168.691406 908.386719 1128.679688 C 908.707031 1128.292969 909.027344 1127.90625 909.351562 1127.515625 C 925.53125 1107.792969 941.0625 1087.507812 954.542969 1065.90625 C 958.824219 1058.921875 962.886719 1051.777344 966.363281 1044.335938 C 967.808594 1041.09375 969.132812 1037.796875 970.242188 1034.410156 C 970.425781 1033.777344 970.601562 1033.140625 970.761719 1032.496094 C 968.980469 1032.945312 967.21875 1033.472656 965.476562 1034.058594 C 961.175781 1035.664062 957.003906 1037.578125 952.882812 1039.644531 C 940.914062 1045.875 929.503906 1053.25 918.347656 1061.027344 C 893.765625 1078.355469 870.363281 1097.734375 847.582031 1117.949219 C 841.871094 1123.011719 836.214844 1128.140625 832.085938 1131.957031 C 803.65625 1158.257812 776.164062 1186 749.832031 1215.160156 C 740.042969 1226.007812 730.425781 1237.074219 721.035156 1248.359375 C 704.457031 1268.378906 688.441406 1289.160156 674.296875 1311.34375 C 669.625 1318.824219 665.171875 1326.488281 661.335938 1334.480469 C 659.871094 1337.675781 658.523438 1340.929688 657.359375 1344.257812 C 657.097656 1345.113281 656.851562 1345.976562 656.621094 1346.839844 Z M 656.621094 1346.839844 "/>
<path fill-rule="nonzero" fill="rgb(0%, 0%, 0%)" fill-opacity="1" d="M 642.453125 628.804688 C 656.765625 625.996094 671.277344 632.097656 684 638.375 C 700.785156 646.644531 716.351562 657.246094 731.34375 668.054688 C 751.074219 682.261719 769.824219 697.617188 788.054688 713.355469 C 818.53125 739.667969 847.375 767.402344 874.789062 796.074219 C 899.261719 821.695312 922.71875 848.050781 944.300781 875.558594 C 954.042969 887.976562 963.390625 900.644531 972.066406 913.679688 C 979.683594 925.140625 986.824219 936.945312 992.511719 949.363281 C 996.96875 959.070312 1001.117188 970.28125 999.726562 981.003906 C 999.679688 981.367188 999.621094 981.726562 999.546875 982.078125 C 998.433594 988.046875 995.652344 993.417969 990.613281 997.195312 C 978.769531 1006.0625 962.242188 1001.535156 949.78125 996.347656 C 932.113281 988.984375 915.832031 978.476562 900.214844 967.625 C 885.023438 957.0625 870.367188 945.710938 856.03125 933.972656 C 815.660156 900.894531 777.453125 864.730469 741.308594 826.390625 C 708.570312 791.660156 676.707031 755.097656 650.179688 715.019531 C 642.609375 703.574219 635.449219 691.65625 630.027344 679.117188 C 627.621094 673.589844 625.6875 667.953125 624.425781 662.128906 C 623.625 658.445312 623.40625 654.726562 623.59375 651.011719 C 623.886719 644.964844 626.421875 639.285156 630.582031 635.125 C 633.707031 631.996094 637.75 629.730469 642.453125 628.804688 Z M 655.382812 658.847656 C 655.835938 660.558594 656.371094 662.25 656.957031 663.929688 C 658.730469 668.628906 660.894531 673.191406 663.207031 677.671875 C 669.945312 690.351562 677.894531 702.410156 686.199219 714.144531 C 708.832031 745.765625 734.296875 775.289062 759.972656 802.917969 C 795.757812 841.234375 833.53125 877.507812 873.542969 910.613281 C 873.933594 910.933594 874.320312 911.253906 874.707031 911.574219 C 894.429688 927.757812 914.71875 943.289062 936.320312 956.765625 C 943.304688 961.050781 950.445312 965.109375 957.886719 968.585938 C 961.132812 970.035156 964.425781 971.359375 967.816406 972.46875 C 968.449219 972.652344 969.085938 972.828125 969.726562 972.988281 C 969.28125 971.203125 968.753906 969.445312 968.167969 967.703125 C 966.5625 963.398438 964.648438 959.226562 962.582031 955.109375 C 956.347656 943.140625 948.976562 931.730469 941.199219 920.574219 C 923.871094 895.992188 904.492188 872.585938 884.277344 849.808594 C 879.214844 844.097656 874.085938 838.4375 870.269531 834.3125 C 843.96875 805.882812 816.226562 778.390625 787.066406 752.054688 C 776.21875 742.265625 765.152344 732.652344 753.867188 723.257812 C 733.84375 706.683594 713.066406 690.664062 690.882812 676.519531 C 683.398438 671.847656 675.738281 667.394531 667.742188 663.558594 C 664.550781 662.097656 661.296875 660.746094 657.96875 659.585938 C 657.109375 659.320312 656.25 659.074219 655.382812 658.847656 Z M 655.382812 658.847656 "/>
<path fill-rule="nonzero" fill="rgb(0%, 0%, 0%)" fill-opacity="1" d="M 1018.921875 1002.929688 C 1033.234375 1000.121094 1047.746094 1006.21875 1060.46875 1012.5 C 1077.253906 1020.769531 1092.820312 1031.371094 1107.8125 1042.175781 C 1127.542969 1056.382812 1146.292969 1071.742188 1164.523438 1087.480469 C 1195 1113.792969 1223.839844 1141.527344 1251.257812 1170.199219 C 1275.730469 1195.816406 1299.1875 1222.171875 1320.765625 1249.683594 C 1330.511719 1262.101562 1339.859375 1274.769531 1348.535156 1287.804688 C 1356.152344 1299.261719 1363.292969 1311.070312 1368.980469 1323.484375 C 1373.433594 1333.195312 1377.585938 1344.40625 1376.195312 1355.125 C 1376.148438 1355.488281 1376.089844 1355.847656 1376.015625 1356.203125 C 1374.902344 1362.167969 1372.121094 1367.542969 1367.082031 1371.320312 C 1355.238281 1380.1875 1338.710938 1375.660156 1326.25 1370.472656 C 1308.582031 1363.105469 1292.300781 1352.601562 1276.683594 1341.75 C 1261.492188 1331.1875 1246.835938 1319.835938 1232.496094 1308.097656 C 1192.128906 1275.015625 1153.921875 1238.855469 1117.777344 1200.515625 C 1085.039062 1165.785156 1053.175781 1129.222656 1026.648438 1089.144531 C 1019.078125 1077.699219 1011.917969 1065.777344 1006.496094 1053.242188 C 1004.089844 1047.714844 1002.15625 1042.074219 1000.894531 1036.253906 C 1000.09375 1032.570312 999.875 1028.847656 1000.0625 1025.136719 C 1000.355469 1019.089844 1002.890625 1013.410156 1007.050781 1009.246094 C 1010.175781 1006.121094 1014.21875 1003.851562 1018.921875 1002.929688 Z M 1031.851562 1032.972656 C 1032.304688 1034.683594 1032.839844 1036.375 1033.425781 1038.050781 C 1035.199219 1042.753906 1037.363281 1047.3125 1039.675781 1051.796875 C 1046.414062 1064.476562 1054.363281 1076.53125 1062.667969 1088.265625 C 1085.300781 1119.890625 1110.765625 1149.414062 1136.441406 1177.039062 C 1172.226562 1215.359375 1210 1251.632812 1250.011719 1284.734375 C 1250.402344 1285.058594 1250.789062 1285.378906 1251.175781 1285.699219 C 1270.898438 1301.878906 1291.1875 1317.410156 1312.789062 1330.890625 C 1319.773438 1335.175781 1326.914062 1339.234375 1334.355469 1342.710938 C 1337.601562 1344.160156 1340.894531 1345.480469 1344.285156 1346.59375 C 1344.917969 1346.777344 1345.554688 1346.949219 1346.195312 1347.113281 C 1345.75 1345.328125 1345.222656 1343.566406 1344.636719 1341.824219 C 1343.03125 1337.523438 1341.117188 1333.351562 1339.050781 1329.234375 C 1332.816406 1317.261719 1325.445312 1305.851562 1317.667969 1294.699219 C 1300.339844 1270.113281 1280.960938 1246.710938 1260.746094 1223.933594 C 1255.683594 1218.222656 1250.554688 1212.5625 1246.738281 1208.433594 C 1220.4375 1180.003906 1192.695312 1152.515625 1163.53125 1126.179688 C 1152.6875 1116.390625 1141.617188 1106.777344 1130.335938 1097.382812 C 1110.3125 1080.804688 1089.535156 1064.789062 1067.351562 1050.644531 C 1059.867188 1045.972656 1052.207031 1041.519531 1044.210938 1037.683594 C 1041.019531 1036.21875 1037.765625 1034.871094 1034.4375 1033.710938 C 1033.578125 1033.445312 1032.71875 1033.199219 1031.851562 1032.972656 Z M 1031.851562 1032.972656 "/>
<path fill-rule="nonzero" fill="rgb(0%, 0%, 0%)" fill-opacity="1" d="M 969.992188 1017.476562 C 945.953125 999.070312 966.859375 968.234375 993.941406 974.40625 C 1009.222656 978.75 1013.09375 1001.511719 1002.847656 1012.554688 C 995.175781 1020.390625 979.457031 1022.890625 969.992188 1017.476562 Z M 969.992188 1017.476562 "/>
<path fill-rule="nonzero" fill="rgb(0%, 0%, 0%)" fill-opacity="1" d="M 1003.777344 1009.136719 C 998.914062 1009.976562 993.734375 1008.953125 989.605469 1005.6875 C 988.847656 1005.082031 988.132812 1004.425781 987.472656 1003.71875 C 953.070312 1002.574219 968.433594 952.757812 996.648438 955.488281 C 1016.550781 955.730469 1037.277344 979.648438 1028.675781 999.113281 C 1024.167969 1007.792969 1013.007812 1012.332031 1003.777344 1009.136719 Z M 1003.777344 1009.136719 "/>
<path fill-rule="nonzero" fill="rgb(0%, 0%, 0%)" fill-opacity="1" d="M 986.019531 1041.769531 C 981.347656 1039.25 977.671875 1035.667969 975.003906 1031.460938 C 965.679688 1026.863281 958.636719 1018.324219 956.324219 1008.234375 C 952.410156 1004.199219 951.070312 998.542969 950.777344 993.085938 C 950.933594 978.800781 962.535156 963.683594 977.558594 963.671875 C 994.074219 946.925781 1030.492188 953.453125 1037.097656 977.085938 C 1052.511719 1007.914062 1022.90625 1059.257812 986.019531 1041.769531 Z M 986.019531 1041.769531 "/>
<path fill-rule="nonzero" fill="rgb(0%, 0%, 0%)" fill-opacity="1" d="M 979.941406 1076.660156 C 930.800781 1066.242188 910.011719 1001.796875 933.976562 960.507812 C 959.238281 914.429688 1032.375 912.257812 1058.527344 958.527344 C 1104.753906 1017.746094 1052.507812 1095.691406 979.941406 1076.660156 Z M 979.941406 1076.660156 "/>
</svg>
