<?xml version="1.0" encoding="UTF-8"?>
<!-- Created by grConvert v0.1-0 -->
<svg xmlns="http://www.w3.org/2000/svg" xmlns:xlink="http://www.w3.org/1999/xlink" width="2000" height="2000" viewBox="0 0 2000 2000">
<path fill-rule="nonzero" fill="rgb(0%, 79.215688%, 93.725491%)" fill-opacity="1" d="M 1086.269531 1000.746094 C 1086.269531 952.1875 1045.742188 911.660156 997.1875 911.660156 C 948.632812 911.660156 908.101562 952.1875 908.101562 1000.746094 C 908.101562 1049.300781 948.632812 1089.828125 997.1875 1089.828125 C 1045.742188 1089.828125 1086.269531 1049.300781 1086.269531 1000.746094 Z M 912.164062 890.34375 C 1062.671875 782.761719 1222.535156 995.726562 1081.804688 1110.09375 C 1051.328125 1132.429688 1015.410156 1143.078125 978.152344 1137.753906 C 857.75 1122.34375 814.699219 963.082031 912.164062 890.34375 Z M 912.164062 890.34375 "/>
<path fill-rule="nonzero" fill="rgb(0%, 79.215688%, 93.725491%)" fill-opacity="1" d="M 500.800781 1497.003906 C 500.800781 1495.871094 501.738281 1494.933594 502.871094 1494.933594 C 504.003906 1494.933594 504.941406 1495.871094 504.941406 1497.003906 C 504.941406 1498.136719 504.003906 1499.074219 502.871094 1499.074219 C 501.738281 1499.074219 500.800781 1498.136719 500.800781 1497.003906 Z M 500.800781 1497.003906 "/>
<path fill-rule="nonzero" fill="rgb(0%, 79.215688%, 93.725491%)" fill-opacity="1" d="M 1494.941406 1497.8125 C 1495.007812 1496.632812 1496.011719 1495.855469 1497.128906 1495.855469 C 1498.261719 1495.855469 1499.152344 1496.972656 1499.085938 1498.042969 C 1499.023438 1499.222656 1498.019531 1500 1496.902344 1500 C 1495.769531 1500 1494.878906 1498.882812 1494.941406 1497.8125 Z M 1494.941406 1497.8125 "/>
<path fill-rule="nonzero" fill="rgb(0%, 79.215688%, 93.725491%)" fill-opacity="1" d="M 500.773438 501.957031 C 500.835938 500.777344 501.839844 500 502.957031 500 C 504.089844 500 504.980469 501.117188 504.914062 502.1875 C 504.851562 503.367188 503.847656 504.144531 502.730469 504.144531 C 501.597656 504.144531 500.707031 503.027344 500.773438 501.957031 Z M 500.773438 501.957031 "/>
<path fill-rule="nonzero" fill="rgb(0%, 79.215688%, 93.725491%)" fill-opacity="1" d="M 1495.085938 502.5625 C 1495.152344 501.398438 1496.136719 500.605469 1497.269531 500.605469 C 1498.402344 500.605469 1499.277344 501.707031 1499.230469 502.789062 C 1499.164062 503.953125 1498.175781 504.746094 1497.042969 504.746094 C 1495.910156 504.746094 1495.039062 503.648438 1495.085938 502.5625 Z M 1495.085938 502.5625 "/>
</svg>
