<?xml version="1.0" encoding="UTF-8"?>
<!-- Created by grConvert v0.1-0 -->
<svg xmlns="http://www.w3.org/2000/svg" xmlns:xlink="http://www.w3.org/1999/xlink" width="2000" height="2000" viewBox="0 0 2000 2000">
<path fill-rule="nonzero" fill="rgb(0%, 0%, 0%)" fill-opacity="1" d="M 672.710938 1490.71875 C 670.773438 1490.484375 668.839844 1490.246094 666.886719 1490.027344 C 658.195312 1479.382812 649.414062 1468.804688 640.613281 1458.257812 C 640.582031 1458.226562 640.566406 1458.179688 640.535156 1458.148438 C 639.777344 1456.746094 639.007812 1455.347656 638.234375 1453.960938 C 637.464844 1452.558594 636.675781 1451.160156 635.90625 1449.742188 C 635.023438 1447.960938 634.125 1446.183594 633.183594 1444.421875 C 632.789062 1443.695312 632.410156 1442.941406 632 1442.183594 C 631.765625 1440.691406 631.246094 1439.179688 630.617188 1437.683594 C 631.542969 1430.316406 628.285156 1423.230469 623.863281 1417.105469 C 623.894531 1416.050781 623.800781 1414.996094 623.59375 1414.039062 C 629.167969 1408.859375 635.070312 1404.007812 640.769531 1399.003906 C 645.304688 1395.019531 649.820312 1391.054688 654.039062 1386.722656 C 657.03125 1383.671875 659.929688 1380.554688 662.949219 1377.515625 C 671.5625 1369.1875 680.535156 1361.222656 688.863281 1352.578125 C 693.191406 1348.109375 697.175781 1343.324219 701.519531 1338.867188 C 705.535156 1334.996094 709.722656 1331.359375 713.703125 1327.484375 C 717.214844 1324.054688 720.097656 1320.417969 721.71875 1315.898438 C 721.828125 1315.804688 721.953125 1315.726562 722.078125 1315.632812 C 725.652344 1314.59375 729.289062 1313.695312 732.910156 1312.859375 C 734.910156 1312.46875 736.925781 1312.152344 738.957031 1311.917969 C 742.9375 1312.765625 746.859375 1313.789062 750.9375 1314.183594 C 756.554688 1314.71875 762.285156 1314.671875 767.90625 1313.976562 C 772.410156 1313.441406 776.832031 1312.417969 781.351562 1311.933594 C 785.082031 1311.726562 788.765625 1311.710938 792.449219 1310.910156 C 798.761719 1309.523438 803.71875 1304.753906 807.417969 1299.714844 C 813.921875 1290.851562 820.515625 1282.019531 826.78125 1273 C 830.339844 1267.867188 833.613281 1262.53125 837 1257.289062 C 839.566406 1253.324219 841.988281 1249.324219 844.082031 1245.105469 C 845.640625 1241.941406 847.121094 1238.636719 848.773438 1235.453125 C 852.285156 1234.351562 855.8125 1233.28125 859.324219 1232.195312 C 859.292969 1232.195312 859.257812 1232.210938 859.242188 1232.210938 C 868.25 1229.503906 877.535156 1228.148438 886.714844 1226.136719 C 894.820312 1224.355469 902.757812 1221.964844 910.910156 1220.375 C 915.742188 1219.429688 920.5625 1218.40625 925.410156 1217.507812 C 928.480469 1216.925781 931.46875 1216.3125 934.273438 1214.800781 C 935.25 1214.265625 936.175781 1213.667969 937.105469 1213.054688 C 939.796875 1212.296875 942.488281 1211.527344 945.167969 1210.753906 C 948.582031 1209.824219 952.015625 1209.039062 955.507812 1208.457031 C 960.910156 1207.828125 966.355469 1207.527344 971.738281 1206.820312 C 976.179688 1206.253906 980.539062 1205.621094 984.347656 1203.023438 C 990.519531 1198.820312 992.691406 1192.824219 994.21875 1185.960938 C 996.40625 1176.089844 998.800781 1166.25 1001.304688 1156.460938 C 1003.933594 1146.242188 1006.765625 1136.105469 1008.578125 1125.714844 C 1009.019531 1122.910156 1009.441406 1120.09375 1009.898438 1117.292969 C 1009.945312 1117.101562 1009.992188 1116.898438 1010.042969 1116.710938 C 1011.363281 1113.890625 1012.558594 1111.089844 1013.582031 1108.050781 C 1014.355469 1105.722656 1014.574219 1103.234375 1014.9375 1100.824219 C 1015.300781 1098.355469 1015.785156 1095.898438 1016.210938 1093.441406 C 1017.769531 1084.34375 1020.007812 1075.355469 1020.933594 1066.160156 C 1021.390625 1061.625 1021.40625 1057.3125 1021.21875 1052.792969 C 1021.234375 1049.613281 1021.40625 1046.449219 1021.34375 1043.253906 C 1021.265625 1040.671875 1021.171875 1038.058594 1021.140625 1035.460938 C 1021.21875 1032.171875 1021.53125 1028.867188 1021.941406 1025.59375 C 1022.050781 1024.898438 1022.195312 1024.207031 1022.351562 1023.53125 C 1023.390625 1020.144531 1024.554688 1016.808594 1025.183594 1013.296875 C 1025.546875 1011.1875 1025.863281 1009.078125 1026.144531 1006.953125 C 1027.199219 1006.246094 1028.253906 1005.535156 1029.292969 1004.828125 C 1029.199219 1004.890625 1029.121094 1004.953125 1029.027344 1005.015625 C 1034.046875 1001.632812 1039.210938 998.609375 1044.578125 995.855469 C 1058.71875 989.085938 1073.230469 982.882812 1086.582031 974.648438 C 1086.597656 974.648438 1086.597656 974.632812 1086.613281 974.632812 C 1086.613281 974.632812 1086.628906 974.632812 1086.628906 974.632812 C 1086.644531 974.632812 1086.660156 974.617188 1086.675781 974.601562 C 1086.691406 974.601562 1086.691406 974.601562 1086.691406 974.585938 C 1086.800781 974.523438 1086.910156 974.445312 1087.023438 974.382812 C 1087.132812 974.320312 1087.242188 974.238281 1087.351562 974.175781 C 1087.382812 974.160156 1087.414062 974.128906 1087.445312 974.113281 C 1087.476562 974.097656 1087.492188 974.097656 1087.511719 974.082031 C 1087.511719 974.082031 1087.527344 974.066406 1087.527344 974.066406 C 1087.574219 974.035156 1087.621094 974.019531 1087.652344 973.988281 C 1087.667969 973.988281 1087.667969 973.972656 1087.683594 973.972656 C 1087.683594 973.972656 1087.683594 973.972656 1087.699219 973.957031 C 1087.761719 973.925781 1087.824219 973.878906 1087.886719 973.847656 C 1087.902344 973.832031 1087.917969 973.832031 1087.933594 973.816406 C 1087.980469 973.785156 1088.011719 973.75 1088.0625 973.71875 C 1088.0625 973.71875 1088.078125 973.71875 1088.078125 973.71875 C 1088.078125 973.71875 1088.09375 973.71875 1088.09375 973.703125 C 1088.140625 973.6875 1088.1875 973.65625 1088.234375 973.625 C 1088.234375 973.609375 1088.25 973.609375 1088.25 973.609375 C 1088.25 973.609375 1088.234375 973.625 1088.234375 973.625 C 1088.25 973.609375 1088.28125 973.59375 1088.3125 973.578125 C 1088.3125 973.578125 1088.328125 973.5625 1088.328125 973.5625 C 1088.328125 973.5625 1088.34375 973.5625 1088.34375 973.546875 C 1088.359375 973.546875 1088.359375 973.546875 1088.359375 973.546875 C 1088.375 973.53125 1088.40625 973.515625 1088.421875 973.5 C 1088.421875 973.5 1088.4375 973.5 1088.4375 973.5 C 1088.484375 973.46875 1088.515625 973.453125 1088.566406 973.421875 C 1089.035156 973.136719 1089.523438 972.839844 1089.996094 972.539062 C 1089.777344 972.664062 1089.570312 972.792969 1089.351562 972.917969 C 1089.382812 972.902344 1089.414062 972.886719 1089.445312 972.871094 C 1089.398438 972.902344 1089.351562 972.933594 1089.304688 972.964844 C 1089.148438 973.058594 1088.988281 973.152344 1088.832031 973.25 C 1088.832031 973.25 1088.847656 973.234375 1088.847656 973.234375 C 1088.847656 973.234375 1088.863281 973.234375 1088.878906 973.214844 C 1088.863281 973.214844 1088.863281 973.234375 1088.847656 973.234375 C 1090.910156 971.941406 1092.847656 970.601562 1094.578125 969.011719 C 1095.492188 968.414062 1096.371094 967.769531 1097.222656 967 C 1098.386719 965.945312 1099.519531 964.859375 1100.734375 963.835938 C 1100.765625 963.820312 1100.78125 963.785156 1100.8125 963.769531 C 1100.8125 963.769531 1100.796875 963.785156 1100.796875 963.785156 C 1100.8125 963.785156 1100.8125 963.769531 1100.828125 963.769531 C 1100.828125 963.769531 1100.8125 963.769531 1100.8125 963.769531 C 1100.890625 963.707031 1100.953125 963.644531 1101.03125 963.582031 C 1100.921875 963.660156 1100.828125 963.753906 1100.71875 963.835938 C 1105.347656 959.992188 1109.15625 955.773438 1112.273438 950.453125 C 1116.933594 942.488281 1120.238281 933.953125 1122.929688 925.125 C 1124 921.582031 1124.976562 918.007812 1126.238281 914.527344 C 1127.636719 910.625 1129.023438 906.734375 1129.871094 902.660156 C 1131.429688 895.023438 1131.855469 887.246094 1132.832031 879.515625 C 1133.070312 878.195312 1133.335938 876.886719 1133.667969 875.582031 C 1134.847656 873.820312 1136.011719 872.070312 1137.003906 870.214844 C 1137.839844 869.867188 1138.6875 869.535156 1139.523438 869.207031 C 1140.355469 868.9375 1141.191406 868.703125 1142.027344 868.464844 C 1147.519531 867.601562 1153.078125 867.285156 1158.570312 866.292969 C 1162.066406 865.664062 1165.5625 865.003906 1169.023438 864.136719 C 1174.140625 862.863281 1179.101562 861.257812 1184.121094 859.652344 C 1184.925781 859.414062 1185.742188 859.195312 1186.5625 859.003906 C 1188.640625 858.691406 1190.71875 858.390625 1192.78125 858.042969 C 1194.511719 857.824219 1196.226562 857.730469 1197.976562 857.667969 C 1198.085938 857.667969 1198.210938 857.652344 1198.320312 857.652344 C 1198.351562 857.652344 1198.382812 857.652344 1198.414062 857.652344 C 1198.429688 857.652344 1198.445312 857.652344 1198.460938 857.652344 C 1198.496094 857.636719 1198.527344 857.636719 1198.542969 857.636719 C 1198.886719 857.636719 1199.21875 857.621094 1199.566406 857.605469 C 1205.847656 857.398438 1212.0625 856.972656 1218.34375 856.28125 C 1222.941406 855.777344 1227.664062 855.714844 1232.246094 855.085938 C 1236.070312 854.550781 1239.816406 853.714844 1243.015625 851.355469 C 1246.179688 849.007812 1248.445312 846.269531 1250.269531 842.804688 C 1251.925781 839.65625 1253.355469 836.367188 1254.679688 833.078125 C 1258.441406 823.664062 1260.378906 813.605469 1263.808594 804.0625 C 1263.839844 803.984375 1263.871094 803.90625 1263.90625 803.8125 C 1263.921875 803.78125 1263.9375 803.765625 1263.9375 803.734375 C 1263.953125 803.71875 1263.96875 803.6875 1263.96875 803.671875 C 1263.96875 803.65625 1263.984375 803.65625 1263.984375 803.640625 C 1264.0625 803.417969 1264.15625 803.214844 1264.25 802.992188 C 1264.359375 802.726562 1264.472656 802.457031 1264.582031 802.191406 C 1264.582031 802.175781 1264.582031 802.160156 1264.597656 802.144531 C 1264.628906 802.082031 1264.644531 802.015625 1264.675781 801.953125 C 1264.644531 802.03125 1264.613281 802.113281 1264.582031 802.191406 C 1269.035156 792.273438 1274.734375 782.734375 1277.976562 772.28125 C 1279.742188 766.613281 1281.15625 760.773438 1281.851562 754.867188 C 1282.164062 752.316406 1282.308594 749.753906 1282.605469 747.203125 C 1283.789062 745.628906 1284.808594 743.960938 1285.472656 741.976562 C 1285.519531 741.816406 1285.566406 741.660156 1285.613281 741.503906 C 1285.769531 741.3125 1285.945312 741.109375 1286.101562 740.890625 C 1286.652344 740.148438 1287.140625 739.378906 1287.566406 738.589844 C 1288.933594 737.503906 1290.320312 736.433594 1291.644531 735.285156 C 1294.839844 732.53125 1297.828125 729.585938 1300.914062 726.722656 C 1301.8125 725.996094 1302.742188 725.304688 1303.6875 724.613281 C 1307.714844 722.109375 1311.917969 719.792969 1316.167969 717.683594 C 1316.800781 717.402344 1317.445312 717.148438 1318.089844 716.898438 C 1323.550781 715.214844 1329.535156 713.183594 1333.390625 708.917969 C 1339.78125 701.832031 1342.144531 693.0625 1345.339844 684.359375 C 1349.652344 673.984375 1354.816406 663.765625 1360.121094 653.863281 C 1362.4375 649.820312 1364.988281 645.898438 1367.617188 642.027344 C 1368.78125 640.292969 1369.726562 638.546875 1370.464844 636.753906 C 1375.140625 633.335938 1380.019531 630.21875 1384.804688 627.007812 C 1390.144531 623.417969 1395.480469 619.765625 1401.054688 616.554688 C 1403.210938 615.3125 1405.367188 614.082031 1407.507812 612.808594 C 1410.105469 614.664062 1413.128906 615.925781 1416.355469 616.382812 C 1417.386719 616.925781 1418.46875 617.382812 1419.589844 617.746094 C 1420.914062 619.40625 1422.238281 621.074219 1423.785156 622.503906 C 1425.707031 624.316406 1427.59375 626.109375 1429.46875 627.953125 C 1432.253906 630.738281 1434.851562 633.730469 1437.8125 636.34375 C 1439.496094 637.824219 1441.242188 639.191406 1442.945312 640.625 C 1444.40625 641.902344 1445.855469 643.191406 1447.335938 644.449219 C 1447.667969 644.75 1447.996094 645.050781 1448.3125 645.347656 C 1449.257812 646.765625 1450.375 648.101562 1451.429688 649.394531 C 1452.121094 650.257812 1452.859375 651.0625 1453.601562 651.867188 C 1454.691406 653.488281 1455.742188 655.308594 1456.960938 656.960938 C 1457.121094 657.269531 1457.28125 657.574219 1457.441406 657.878906 C 1457.472656 658.117188 1457.503906 658.335938 1457.550781 658.570312 C 1457.835938 660.144531 1458.386719 661.625 1458.96875 663.089844 C 1459.757812 665.027344 1460.667969 666.914062 1461.582031 668.789062 C 1462.292969 670.253906 1463 671.78125 1463.832031 673.210938 C 1464.304688 675.070312 1465.046875 676.925781 1465.769531 678.691406 C 1465.925781 679.621094 1466.101562 680.546875 1466.289062 681.476562 C 1465.582031 682.546875 1464.871094 683.617188 1464.164062 684.6875 C 1462.746094 686.859375 1461.425781 689.128906 1460.132812 691.394531 C 1458.6875 693.960938 1457.046875 696.589844 1455.898438 699.3125 C 1454.671875 700.542969 1453.445312 701.753906 1452.183594 702.964844 C 1451.839844 703.3125 1451.492188 703.660156 1451.175781 704.019531 C 1450.089844 704.695312 1449.050781 705.453125 1448.089844 706.320312 C 1445.382812 708.726562 1442.753906 711.167969 1440.265625 713.8125 C 1436.550781 717.777344 1433.058594 721.964844 1429.609375 726.1875 C 1425.074219 727.082031 1420.855469 729.476562 1417.898438 733.175781 C 1414.96875 734.765625 1412.007812 736.199219 1409.363281 738.449219 C 1406.46875 740.90625 1403.933594 743.566406 1401.964844 746.839844 C 1401.226562 748.066406 1400.566406 749.328125 1399.824219 750.539062 C 1397.824219 753.828125 1395.84375 757.039062 1394.238281 760.535156 C 1393.230469 762.738281 1392.410156 765.039062 1391.464844 767.273438 C 1391.433594 767.351562 1391.386719 767.429688 1391.355469 767.492188 C 1389.75 769.242188 1388.050781 770.894531 1386.316406 772.515625 C 1383.28125 775.253906 1380.148438 777.996094 1377.925781 781.457031 C 1375.25 785.582031 1373.347656 790.039062 1371.378906 794.523438 C 1363.820312 798.332031 1355.558594 800.726562 1348.472656 805.511719 C 1340.222656 811.054688 1338.351562 820.074219 1334.855469 828.605469 C 1334.824219 828.699219 1334.777344 828.796875 1334.746094 828.890625 C 1334.777344 828.796875 1334.824219 828.699219 1334.855469 828.605469 C 1334.964844 828.355469 1335.058594 828.101562 1335.171875 827.867188 C 1333.691406 831.441406 1332.480469 834.871094 1331.488281 838.632812 C 1331.628906 838.035156 1331.785156 837.421875 1331.960938 836.824219 C 1331.660156 837.910156 1331.296875 838.964844 1330.90625 840.035156 C 1329.25 844.003906 1327.457031 848 1325.472656 851.8125 C 1323.789062 854.863281 1322.136719 857.917969 1320.734375 861.128906 C 1319.664062 863.539062 1318.671875 865.980469 1317.523438 868.371094 C 1314.3125 873.929688 1310.660156 879.1875 1307.242188 884.601562 C 1304.722656 888.585938 1302.566406 892.835938 1301.105469 897.320312 C 1300.519531 899.132812 1300 900.957031 1299.417969 902.769531 C 1299.136719 903.476562 1298.820312 904.171875 1298.507812 904.847656 C 1298.269531 905.289062 1298.019531 905.730469 1297.75 906.152344 C 1297.152344 906.972656 1296.539062 907.773438 1295.910156 908.5625 C 1292.839844 911.976562 1289.644531 915.316406 1286.304688 918.464844 C 1284.324219 920.101562 1282.246094 921.597656 1280.152344 923.078125 C 1275.851562 923.234375 1271.539062 923.171875 1267.242188 923.234375 C 1259.8125 923.3125 1252.382812 923.566406 1244.964844 923.863281 C 1236.703125 924.210938 1228.359375 924.636719 1220.15625 925.707031 C 1214.457031 926.445312 1208.554688 927.878906 1204.207031 931.910156 C 1198.824219 936.898438 1196.824219 942.753906 1196.652344 949.933594 C 1196.667969 949.066406 1196.699219 948.203125 1196.730469 947.351562 C 1196.667969 948.785156 1196.527344 950.21875 1196.351562 951.648438 C 1195.722656 955.003906 1194.90625 958.339844 1194.148438 961.660156 C 1192.464844 965.535156 1190.765625 969.265625 1189.648438 973.4375 C 1188.308594 978.492188 1188.324219 983.574219 1188.339844 988.722656 C 1188.277344 990.40625 1188.136719 992.078125 1187.976562 993.761719 C 1187.632812 996.296875 1187.222656 998.8125 1186.6875 1001.332031 C 1186.246094 1002.984375 1185.757812 1004.621094 1185.222656 1006.246094 C 1182.375 1008.527344 1179.523438 1010.824219 1176.957031 1013.40625 C 1173.101562 1017.25 1169.621094 1021.421875 1166.097656 1025.574219 C 1162.757812 1029.246094 1159.105469 1032.785156 1156.320312 1036.847656 C 1155.375 1038.203125 1154.527344 1039.539062 1153.738281 1040.925781 C 1151.519531 1041.710938 1149.285156 1042.4375 1147.078125 1043.253906 C 1141.144531 1045.441406 1135.273438 1047.914062 1129.527344 1050.542969 C 1125.132812 1052.574219 1120.929688 1054.871094 1116.902344 1057.5 C 1113.832031 1059.5 1110.808594 1061.769531 1108.777344 1064.871094 C 1107.738281 1066.445312 1107.046875 1067.875 1106.339844 1069.449219 C 1106.433594 1069.261719 1106.511719 1069.058594 1106.605469 1068.867188 C 1106.511719 1069.058594 1106.433594 1069.261719 1106.339844 1069.464844 C 1106.257812 1069.640625 1106.179688 1069.828125 1106.101562 1070.015625 C 1105.203125 1072.0625 1104.101562 1074.015625 1103.109375 1076.03125 C 1101.425781 1079.398438 1100.167969 1082.878906 1099.269531 1086.546875 C 1097.773438 1092.558594 1096.925781 1098.90625 1096.214844 1105.074219 C 1096.027344 1106.257812 1095.820312 1107.421875 1095.570312 1108.585938 C 1093.773438 1115.417969 1091.539062 1122.109375 1089.761719 1128.957031 C 1087.683594 1136.859375 1085.558594 1144.746094 1082.929688 1152.492188 C 1080.425781 1159.167969 1077.402344 1165.636719 1074.898438 1172.34375 C 1072.460938 1178.859375 1069.753906 1185.300781 1066.996094 1191.691406 C 1064.589844 1196.839844 1061.816406 1201.796875 1059.472656 1206.960938 C 1056.84375 1212.769531 1054.828125 1218.769531 1052.578125 1224.71875 C 1049.824219 1231.265625 1046.625 1237.578125 1044.484375 1244.398438 C 1042.140625 1251.828125 1040.078125 1259.320312 1037.464844 1266.671875 C 1036.929688 1268.105469 1036.394531 1269.523438 1035.78125 1270.921875 C 1032.035156 1271.992188 1028.253906 1272.828125 1024.445312 1273.597656 C 1020.855469 1274.308594 1017.394531 1275.425781 1013.898438 1276.464844 C 1001.242188 1280.242188 988.347656 1283.3125 975.453125 1286.113281 C 969.207031 1287.359375 962.890625 1288.285156 956.625 1289.484375 C 947.230469 1291.277344 937.5 1292.882812 928.433594 1295.984375 C 922.542969 1298 916.941406 1300.769531 913.257812 1306.011719 C 911.839844 1308.027344 910.691406 1310.214844 909.621094 1312.433594 C 908.503906 1314.734375 907.449219 1317.0625 906.21875 1319.316406 C 904.265625 1322.289062 902.078125 1325.125 900.144531 1328.128906 C 896.851562 1333.199219 894.128906 1338.488281 891.53125 1343.9375 C 889.453125 1348.3125 887.296875 1352.5625 885.675781 1357.144531 C 884.96875 1359.160156 884.398438 1361.222656 883.847656 1363.285156 C 883.1875 1363.394531 882.542969 1363.503906 881.898438 1363.597656 C 879.171875 1363.960938 876.449219 1364.292969 873.726562 1364.683594 C 869.144531 1365.332031 864.613281 1366.273438 860.03125 1367.0625 C 852.332031 1368.039062 844.523438 1368.101562 836.875 1369.519531 C 832.433594 1370.351562 827.996094 1371.40625 823.746094 1372.964844 C 819.476562 1374.539062 815.824219 1376.902344 812.363281 1379.828125 C 806.679688 1384.644531 801.34375 1389.824219 796.511719 1395.492188 C 793.707031 1398.765625 791.140625 1402.230469 788.199219 1405.363281 C 782.105469 1411.410156 775.777344 1417.265625 769.496094 1423.105469 C 767.527344 1424.929688 765.984375 1427.039062 764.867188 1429.339844 C 763.199219 1430.992188 761.546875 1432.660156 759.910156 1434.34375 C 752.902344 1441.492188 746.261719 1449.03125 739.445312 1456.335938 C 740.058594 1455.691406 740.671875 1455.046875 741.285156 1454.402344 C 734.59375 1461.46875 727.921875 1468.554688 720.945312 1475.355469 C 716.050781 1480.15625 709.847656 1484.59375 706.070312 1490.4375 C 705.457031 1490.875 704.824219 1491.332031 704.210938 1491.773438 C 702.164062 1491.757812 700.117188 1491.757812 698.074219 1491.789062 C 693.414062 1491.820312 688.753906 1491.914062 684.09375 1491.996094 C 680.285156 1491.570312 676.503906 1491.128906 672.710938 1490.71875 Z M 672.710938 1490.71875 "/>
<path fill-rule="nonzero" fill="rgb(0%, 0%, 0%)" fill-opacity="1" d="M 671.890625 1490.632812 C 672.167969 1490.664062 672.445312 1490.695312 672.722656 1490.726562 C 673.332031 1490.800781 673.941406 1490.875 674.550781 1490.949219 C 673.671875 1490.839844 672.789062 1490.746094 671.890625 1490.632812 Z M 671.890625 1490.632812 "/>
<path fill-rule="nonzero" fill="rgb(0%, 0%, 0%)" fill-opacity="1" d="M 591.460938 1378.570312 C 589.902344 1378.253906 588.328125 1378.128906 586.753906 1378.175781 C 586.03125 1377.5625 585.277344 1377.011719 584.488281 1376.523438 C 583.558594 1375.957031 582.566406 1375.5625 581.542969 1375.324219 C 581.039062 1374.964844 580.523438 1374.617188 579.984375 1374.316406 C 579.417969 1373.988281 578.820312 1373.71875 578.238281 1373.5 C 577.339844 1372.632812 576.460938 1371.753906 575.578125 1370.871094 C 573.972656 1369.265625 572.382812 1367.566406 570.210938 1366.746094 C 569.753906 1366.574219 569.28125 1366.429688 568.824219 1366.304688 C 567.472656 1364.886719 566.070312 1363.519531 564.433594 1362.464844 C 563.078125 1360.921875 561.628906 1359.441406 560.214844 1357.960938 C 559.820312 1357.519531 559.425781 1357.097656 559.03125 1356.671875 C 558.042969 1355.632812 556.859375 1354.890625 555.570312 1354.433594 C 554.546875 1353.332031 553.445312 1352.292969 552.515625 1351.320312 C 550.753906 1349.476562 549.035156 1347.507812 547.085938 1345.871094 C 546.894531 1345.714844 546.707031 1345.554688 546.503906 1345.398438 C 545.792969 1344.519531 545.085938 1343.636719 544.375 1342.753906 C 550.203125 1335.589844 555.882812 1328.320312 561.613281 1321.078125 C 565.472656 1316.242188 569.21875 1311.300781 573.027344 1306.40625 C 573.65625 1305.777344 574.257812 1305.082031 574.808594 1304.328125 C 575.578125 1303.289062 576.351562 1302.234375 577.136719 1301.179688 C 581.355469 1296.644531 586.753906 1291.921875 588.878906 1286.128906 C 589.007812 1285.78125 589.117188 1285.4375 589.226562 1285.089844 C 595.632812 1276.652344 602.074219 1268.230469 608.324219 1259.679688 C 618.304688 1246.03125 628.550781 1232.714844 639.871094 1220.136719 C 645.363281 1214.027344 650.921875 1208 656.210938 1201.71875 C 661.15625 1195.878906 666.507812 1190.492188 671.6875 1184.875 C 676.660156 1179.488281 681.589844 1174.121094 686.765625 1168.957031 C 687.648438 1168.089844 688.484375 1167.226562 689.316406 1166.359375 C 693.144531 1167.242188 696.96875 1168.027344 701.015625 1168.074219 C 706.304688 1168.171875 711.324219 1166.421875 716.253906 1164.644531 C 720.660156 1163.132812 724.941406 1162.078125 728.660156 1158.960938 C 731.097656 1156.929688 733.539062 1154.914062 736.089844 1153.042969 C 737.082031 1152.445312 738.089844 1151.894531 739.109375 1151.375 C 745.769531 1148.066406 752.601562 1144.980469 759.058594 1141.296875 C 764.09375 1138.433594 768.785156 1134.921875 773.886719 1132.199219 C 774.878906 1131.773438 775.855469 1131.378906 776.863281 1131.019531 C 785.960938 1128.261719 795.21875 1125.777344 804.425781 1123.492188 C 812.800781 1121.429688 821.113281 1119.070312 828.875 1115.246094 C 831.707031 1113.84375 834.480469 1112.253906 837.3125 1110.851562 C 839.625 1110.316406 841.972656 1109.9375 844.253906 1109.371094 C 848.488281 1108.347656 852.660156 1107.167969 856.832031 1105.925781 C 862.074219 1104.351562 867.175781 1102.226562 872.417969 1100.636719 C 873.550781 1100.351562 874.683594 1100.101562 875.789062 1099.707031 C 880.429688 1098.070312 884.777344 1094.746094 887.230469 1090.433594 C 890.507812 1084.6875 893.074219 1078.910156 894.882812 1072.566406 C 897.527344 1061.703125 897.214844 1050.9375 896.09375 1039.835938 C 895.261719 1031.558594 894.804688 1023.308594 894.679688 1014.980469 C 894.566406 1006.890625 894.582031 998.8125 894.582031 990.722656 C 894.582031 985.730469 894.503906 980.710938 894.742188 975.71875 C 895.070312 972.035156 895.65625 968.398438 896.363281 964.792969 C 896.804688 962.824219 897.292969 960.90625 897.90625 959 C 898.550781 957.410156 899.257812 955.867188 900.015625 954.339844 C 900.785156 952.96875 901.605469 951.632812 902.457031 950.308594 C 902.878906 949.773438 903.320312 949.238281 903.761719 948.703125 C 905.070312 947.476562 906.390625 946.328125 907.761719 945.195312 C 911.050781 942.660156 914.386719 940.15625 917.441406 937.308594 C 918.480469 936.363281 919.472656 935.339844 920.527344 934.378906 C 921.03125 934.160156 921.550781 933.9375 922.085938 933.71875 C 921.582031 933.921875 921.078125 934.128906 920.589844 934.316406 C 927.675781 931.496094 934.507812 928.269531 941.339844 924.855469 C 946.125 922.460938 950.753906 919.816406 954.832031 916.320312 C 966.449219 906.371094 978.316406 896.675781 990.203125 887.042969 C 997.792969 880.902344 1004.78125 873.785156 1008.085938 864.339844 C 1011.234375 855.351562 1013.390625 846.046875 1014.746094 836.601562 C 1016.085938 827.21875 1016.730469 817.726562 1016.902344 808.265625 C 1017.058594 800.207031 1016.714844 792.050781 1017.421875 784.007812 C 1017.578125 783.125 1017.753906 782.242188 1017.941406 781.363281 C 1019.105469 777.269531 1020.679688 773.332031 1022.269531 769.367188 C 1022.617188 768.609375 1022.964844 767.886719 1023.339844 767.148438 C 1023.355469 767.128906 1023.375 767.113281 1023.390625 767.082031 C 1023.4375 767.019531 1023.5 766.957031 1023.5625 766.894531 C 1023.957031 766.546875 1024.347656 766.21875 1024.742188 765.886719 C 1025.074219 765.683594 1025.402344 765.476562 1025.75 765.273438 C 1025.90625 765.195312 1026.082031 765.132812 1026.238281 765.054688 C 1026.820312 764.863281 1027.402344 764.691406 1028 764.535156 C 1032.882812 763.605469 1037.824219 763.070312 1042.71875 762.15625 C 1047.035156 761.386719 1051.332031 760.660156 1055.675781 760.140625 C 1064.632812 759.054688 1073.574219 757.683594 1082.4375 756 C 1091.632812 754.253906 1100.371094 750.882812 1109.546875 749.011719 C 1115.796875 747.734375 1121.859375 746.128906 1127.933594 744.335938 C 1128.109375 744.289062 1128.28125 744.242188 1128.4375 744.195312 C 1128.53125 744.164062 1128.628906 744.132812 1128.722656 744.097656 C 1131.160156 743.390625 1133.539062 742.761719 1135.804688 741.550781 C 1138.324219 740.179688 1140.261719 738.257812 1142.402344 736.417969 C 1145.769531 733.519531 1149.234375 730.75 1152.507812 727.726562 C 1158.363281 722.34375 1163.671875 716.535156 1168.234375 710 C 1172.03125 704.554688 1175.429688 698.871094 1178.703125 693.09375 C 1178.925781 692.699219 1179.144531 692.308594 1179.367188 691.914062 C 1179.429688 691.789062 1179.492188 691.675781 1179.554688 691.566406 C 1182.027344 687.066406 1184.355469 682.53125 1186.402344 677.808594 C 1187.566406 675.132812 1188.796875 672.503906 1190.226562 669.953125 C 1191.03125 668.597656 1191.832031 667.230469 1192.621094 665.859375 C 1193.628906 664.238281 1194.730469 662.679688 1195.863281 661.152344 C 1196.554688 660.332031 1197.265625 659.5625 1198.003906 658.792969 C 1204.617188 652.777344 1211.984375 647.691406 1218.328125 641.347656 C 1224.75 634.957031 1230.542969 628.125 1236.023438 620.929688 C 1240.683594 614.804688 1245.484375 608.949219 1249.292969 602.226562 C 1252.582031 596.449219 1254.929688 590.328125 1257.714844 584.34375 C 1257.777344 584.28125 1257.824219 584.234375 1257.875 584.171875 C 1259.039062 582.976562 1260.25 581.84375 1261.507812 580.722656 C 1262.359375 580.046875 1263.242188 579.402344 1264.136719 578.789062 C 1264.722656 578.488281 1265.289062 578.191406 1265.871094 577.890625 C 1270.074219 576.097656 1274.324219 574.441406 1278.558594 572.726562 C 1285.484375 569.925781 1291.925781 566.019531 1298.742188 562.949219 C 1302.960938 561.0625 1307.117188 559.078125 1311.128906 556.78125 C 1316.324219 553.789062 1321 550.089844 1326.117188 546.972656 C 1328.667969 545.414062 1330.683594 543.273438 1332.128906 540.800781 C 1332.289062 540.738281 1332.460938 540.660156 1332.617188 540.582031 C 1342.347656 536.171875 1352.027344 531.511719 1361.554688 526.664062 C 1363.089844 525.882812 1364.613281 525.113281 1366.125 524.332031 C 1367.203125 527.070312 1368.203125 529.847656 1369.140625 532.613281 C 1369.136719 532.589844 1369.128906 532.566406 1369.121094 532.542969 C 1369.132812 532.574219 1369.144531 532.609375 1369.15625 532.640625 C 1369.148438 532.632812 1369.144531 532.621094 1369.140625 532.613281 C 1369.15625 532.664062 1369.175781 532.714844 1369.195312 532.765625 C 1369.199219 532.773438 1369.203125 532.78125 1369.203125 532.789062 C 1369.230469 532.867188 1369.261719 532.945312 1369.289062 533.023438 C 1369.3125 533.097656 1369.335938 533.167969 1369.359375 533.238281 C 1369.371094 533.273438 1369.382812 533.3125 1369.394531 533.347656 C 1370.503906 536.6875 1371.695312 539.914062 1373.21875 543.097656 C 1374.523438 545.824219 1375.894531 548.484375 1377.34375 551.097656 C 1378.523438 553.363281 1379.5 555.757812 1380.648438 558.054688 C 1381.324219 559.398438 1381.984375 560.761719 1382.632812 562.128906 C 1382.210938 563.269531 1381.867188 564.433594 1381.640625 565.628906 C 1381.324219 567.265625 1381.230469 568.917969 1381.324219 570.539062 C 1379.53125 572.363281 1377.988281 574.441406 1376.777344 576.789062 C 1375.359375 579.542969 1374.730469 582.519531 1374.761719 585.460938 C 1371.34375 587.585938 1367.992188 589.792969 1364.65625 592.027344 C 1358.640625 596.089844 1352.3125 599.882812 1346.566406 604.355469 C 1342.613281 607.421875 1339.074219 610.398438 1336.128906 614.523438 C 1334.726562 616.492188 1333.878906 618.695312 1333.3125 620.992188 C 1331.894531 623.132812 1330.398438 625.242188 1329.042969 627.417969 C 1325.265625 633.492188 1321.992188 639.867188 1318.828125 646.308594 C 1316.042969 651.957031 1313.175781 657.59375 1310.578125 663.339844 C 1308.25 668.488281 1306.484375 673.777344 1304.628906 679.082031 C 1302.378906 679.886719 1300.171875 680.765625 1297.953125 681.839844 C 1295.511719 683.019531 1293.152344 684.355469 1290.773438 685.648438 C 1285.707031 688.386719 1280.558594 691.234375 1276.148438 694.984375 C 1272.890625 697.769531 1269.882812 700.792969 1266.734375 703.671875 C 1264.234375 705.765625 1261.667969 707.796875 1259.117188 709.84375 C 1256.945312 711.605469 1255.195312 713.511719 1253.84375 715.636719 C 1252.757812 716.566406 1251.765625 717.636719 1250.882812 718.878906 C 1248.882812 721.667969 1247.828125 724.625 1247.277344 727.742188 C 1245.640625 730.546875 1244.414062 733.535156 1243.625 736.84375 C 1242.429688 741.753906 1242.289062 746.808594 1241.625 751.78125 C 1241.203125 754.066406 1240.699219 756.332031 1240.117188 758.582031 C 1239.515625 760.425781 1238.871094 762.234375 1238.164062 764.046875 C 1234.371094 772.546875 1230.007812 780.765625 1226.402344 789.359375 C 1226.371094 789.4375 1226.339844 789.515625 1226.308594 789.59375 C 1222.972656 798.160156 1220.972656 807.101562 1218.140625 815.804688 C 1212.203125 816.4375 1206.285156 817.191406 1200.304688 817.414062 C 1197.738281 817.445312 1195.171875 817.492188 1192.621094 817.632812 C 1189.550781 817.804688 1186.574219 818.371094 1183.585938 818.9375 C 1180.734375 819.332031 1177.886719 819.570312 1175.097656 820.371094 C 1172.296875 821.191406 1169.542969 822.167969 1166.769531 823.078125 C 1162.789062 824.277344 1158.742188 825.269531 1154.679688 826.117188 C 1150.003906 826.9375 1145.28125 827.488281 1140.558594 828.007812 C 1134.6875 828.667969 1129.148438 830.070312 1123.636719 832.195312 C 1119.199219 833.894531 1114.363281 835.753906 1110.460938 838.476562 C 1106.507812 841.230469 1103.296875 844.617188 1101.597656 849.195312 C 1101.171875 850.34375 1100.890625 851.464844 1100.667969 852.597656 C 1099.738281 853.964844 1098.796875 855.320312 1098.007812 856.785156 C 1096.371094 859.808594 1095.222656 863.144531 1094.417969 866.464844 C 1092.484375 874.351562 1092.058594 882.476562 1091.160156 890.503906 C 1090.84375 892.347656 1090.484375 894.171875 1090.058594 896 C 1088.75 899.996094 1087.242188 903.933594 1086.027344 907.964844 C 1084.691406 912.402344 1083.335938 916.824219 1081.808594 921.203125 C 1080.753906 923.753906 1079.621094 926.253906 1078.363281 928.710938 C 1077.761719 929.703125 1077.164062 930.695312 1076.519531 931.65625 C 1076.472656 931.71875 1076.425781 931.78125 1076.378906 931.84375 C 1076.0625 932.128906 1075.734375 932.394531 1075.402344 932.664062 C 1075.574219 932.519531 1075.765625 932.378906 1075.9375 932.238281 C 1074.410156 933.464844 1072.929688 934.726562 1071.480469 936.015625 C 1070.191406 936.757812 1068.949219 937.574219 1067.910156 938.660156 C 1067.6875 938.898438 1067.46875 939.117188 1067.261719 939.355469 C 1067.246094 939.355469 1067.246094 939.355469 1067.246094 939.371094 C 1067.042969 939.480469 1066.855469 939.605469 1066.648438 939.730469 C 1066.855469 939.605469 1067.042969 939.480469 1067.246094 939.371094 C 1066.175781 940.03125 1065.121094 940.691406 1064.066406 941.367188 C 1061.515625 942.957031 1058.777344 944.265625 1056.085938 945.617188 C 1052.71875 947.320312 1049.378906 949.066406 1046.011719 950.75 C 1038.421875 954.402344 1030.628906 957.679688 1023.183594 961.597656 C 1016.242188 965.25 1009.789062 969.5 1003.347656 973.941406 C 1001.820312 974.996094 1000.246094 975.953125 998.6875 976.945312 C 994.203125 979.796875 990.359375 983.636719 988.675781 988.800781 C 987.261719 993.066406 986.835938 997.554688 986.253906 1001.976562 C 986 1003.707031 985.71875 1005.441406 985.324219 1007.15625 C 984.550781 1009.691406 983.671875 1012.179688 983.058594 1014.761719 C 982.207031 1018.332031 981.828125 1022.015625 981.480469 1025.667969 C 980.867188 1032.0625 980.980469 1038.390625 981.152344 1044.796875 C 981.167969 1047 981.074219 1049.203125 980.996094 1051.410156 C 980.914062 1053.265625 981.105469 1055.0625 981.214844 1056.886719 C 981.199219 1058.304688 981.121094 1059.703125 981.027344 1061.121094 C 980.066406 1069.039062 978.238281 1076.800781 976.871094 1084.671875 C 976.144531 1088.78125 975.5 1092.90625 974.824219 1097.03125 C 974.539062 1097.769531 974.226562 1098.511719 973.894531 1099.25 C 972.539062 1101.925781 971.359375 1104.664062 970.792969 1107.640625 C 970.039062 1111.542969 969.488281 1115.464844 968.871094 1119.367188 C 966.9375 1130.277344 963.710938 1140.984375 961 1151.703125 C 959.664062 1157.054688 958.417969 1162.425781 957.175781 1167.792969 C 955.160156 1167.980469 953.144531 1168.1875 951.148438 1168.4375 C 942.820312 1169.507812 934.851562 1171.886719 926.824219 1174.214844 C 924.335938 1174.890625 921.898438 1175.601562 919.535156 1176.6875 C 918.511719 1177.160156 917.582031 1177.726562 916.65625 1178.339844 C 907.746094 1180.324219 898.660156 1181.503906 889.8125 1183.820312 C 881.800781 1185.914062 873.789062 1187.722656 865.648438 1189.296875 C 857.902344 1190.808594 850.441406 1192.855469 842.964844 1195.214844 C 835.421875 1197.5 827.410156 1199.246094 821.367188 1204.597656 C 817.933594 1207.652344 815.902344 1211.792969 813.824219 1215.808594 C 811.511719 1220.308594 809.355469 1224.90625 806.914062 1229.34375 C 803.71875 1235.125 800.003906 1240.648438 796.382812 1246.175781 C 792.589844 1251.777344 788.574219 1257.195312 784.574219 1262.625 C 782.339844 1265.679688 780.199219 1268.796875 777.980469 1271.867188 C 776.136719 1271.992188 774.3125 1272.148438 772.5 1272.417969 C 768.925781 1272.953125 765.402344 1273.722656 761.8125 1274.132812 C 760.191406 1274.226562 758.570312 1274.257812 756.949219 1274.242188 C 755.359375 1274.132812 753.785156 1273.945312 752.207031 1273.707031 C 747.910156 1272.730469 743.738281 1271.597656 739.269531 1271.597656 C 739.09375 1271.597656 738.921875 1271.597656 738.75 1271.597656 C 733.523438 1271.707031 728.25 1272.652344 723.164062 1273.800781 C 717.75 1275.046875 712.238281 1276.398438 706.964844 1278.164062 C 700.792969 1280.242188 695.789062 1284.019531 692.511719 1289.671875 C 692.105469 1290.363281 691.757812 1291.085938 691.441406 1291.8125 C 690.058594 1292.742188 688.75 1293.875 687.570312 1295.195312 C 686.390625 1296.535156 685.414062 1298.015625 684.640625 1299.605469 C 680.1875 1303.792969 675.574219 1307.820312 671.292969 1312.230469 C 666.332031 1317.28125 661.816406 1322.714844 656.839844 1327.75 C 651.535156 1332.976562 646.152344 1338.109375 640.703125 1343.164062 C 635.085938 1348.375 629.84375 1353.914062 624.492188 1359.410156 C 616.351562 1367.28125 607.488281 1374.367188 599.050781 1381.921875 C 596.832031 1380.316406 594.265625 1379.136719 591.460938 1378.570312 Z M 591.460938 1378.570312 "/>
<path fill-rule="nonzero" fill="rgb(0%, 0%, 0%)" fill-opacity="1" d="M 733 1046.988281 C 733.1875 1046.925781 733.390625 1046.847656 733.582031 1046.785156 C 733.535156 1047.035156 733.488281 1047.273438 733.421875 1047.523438 C 732.683594 1048.15625 731.929688 1048.769531 731.1875 1049.398438 C 731.785156 1048.59375 732.398438 1047.792969 733 1046.988281 Z M 733 1046.988281 "/>
<path fill-rule="nonzero" fill="rgb(0%, 0%, 0%)" fill-opacity="1" d="M 762.105469 507.714844 C 761.679688 508.125 761.242188 508.519531 760.800781 508.925781 C 761.242188 508.519531 761.679688 508.109375 762.105469 507.714844 Z M 762.105469 507.714844 "/>
<path fill-rule="nonzero" fill="rgb(0%, 0%, 0%)" fill-opacity="1" d="M 1050.078125 1308.730469 C 1050.464844 1308.59375 1050.847656 1308.449219 1051.230469 1308.300781 C 1051.128906 1308.683594 1051.027344 1309.070312 1050.933594 1309.457031 C 1050.652344 1309.207031 1050.371094 1308.964844 1050.078125 1308.730469 Z M 1050.078125 1308.730469 "/>
<path fill-rule="nonzero" fill="rgb(0%, 0%, 0%)" fill-opacity="1" d="M 1202.152344 1045.367188 C 1202.167969 1045.351562 1202.183594 1045.335938 1202.183594 1045.320312 C 1202.214844 1045.289062 1202.246094 1045.257812 1202.277344 1045.226562 C 1202.261719 1045.242188 1202.261719 1045.242188 1202.246094 1045.257812 C 1202.261719 1045.242188 1202.261719 1045.242188 1202.277344 1045.226562 C 1202.726562 1044.75 1203.179688 1044.28125 1203.636719 1043.8125 C 1203.796875 1043.914062 1203.957031 1044.011719 1204.121094 1044.109375 C 1203.113281 1044.929688 1202.109375 1045.753906 1201.105469 1046.582031 C 1201.453125 1046.175781 1201.804688 1045.773438 1202.152344 1045.367188 Z M 1202.152344 1045.367188 "/>
<path fill-rule="nonzero" fill="rgb(0%, 0%, 0%)" fill-opacity="1" d="M 1374.609375 837.125 C 1375.402344 836.742188 1376.203125 836.371094 1377.003906 836.007812 C 1375.863281 837.238281 1374.746094 838.5 1373.628906 839.757812 C 1373.957031 838.882812 1374.28125 838.003906 1374.609375 837.125 Z M 1374.609375 837.125 "/>
<path fill-rule="nonzero" fill="rgb(0%, 0%, 0%)" fill-opacity="1" d="M 696.378906 1158.371094 C 695.90625 1158.953125 695.449219 1159.503906 694.960938 1160.070312 C 694.960938 1160.085938 694.945312 1160.101562 694.929688 1160.101562 C 695.417969 1159.535156 695.890625 1158.96875 696.378906 1158.371094 Z M 696.378906 1158.371094 "/>
<path fill-rule="nonzero" fill="rgb(0%, 0%, 0%)" fill-opacity="1" d="M 896.261719 965.210938 C 896.214844 965.480469 896.152344 965.730469 896.089844 966 C 896.152344 965.730469 896.214844 965.464844 896.261719 965.210938 Z M 896.261719 965.210938 "/>
<path fill-rule="nonzero" fill="rgb(0%, 0%, 0%)" fill-opacity="1" d="M 1331.507812 838.671875 C 1331.574219 838.515625 1331.636719 838.34375 1331.714844 838.183594 C 1331.636719 838.34375 1331.574219 838.515625 1331.507812 838.6875 C 1331.507812 838.671875 1331.507812 838.671875 1331.507812 838.671875 Z M 1331.507812 838.671875 "/>
<path fill-rule="nonzero" fill="rgb(0%, 0%, 0%)" fill-opacity="1" d="M 1023.027344 767.46875 C 1023.035156 767.464844 1023.039062 767.453125 1023.050781 767.453125 C 1022.703125 767.894531 1022.359375 768.320312 1021.996094 768.761719 C 1022.351562 768.328125 1022.6875 767.898438 1023.027344 767.46875 Z M 1023.027344 767.46875 "/>
<path fill-rule="nonzero" fill="rgb(0%, 0%, 0%)" fill-opacity="1" d="M 1128.640625 744.128906 C 1128.644531 744.125 1128.648438 744.125 1128.652344 744.125 C 1128.582031 744.148438 1128.511719 744.171875 1128.4375 744.191406 C 1128.4375 744.191406 1128.433594 744.191406 1128.433594 744.191406 C 1128.292969 744.234375 1128.148438 744.277344 1128.007812 744.316406 C 1128.21875 744.253906 1128.429688 744.191406 1128.640625 744.128906 Z M 1128.640625 744.128906 "/>
<path fill-rule="nonzero" fill="rgb(0%, 0%, 0%)" fill-opacity="1" d="M 1129.535156 743.855469 C 1129.800781 743.777344 1130.054688 743.699219 1130.304688 743.621094 C 1130.117188 743.679688 1129.929688 743.738281 1129.738281 743.796875 C 1129.675781 743.816406 1129.613281 743.835938 1129.550781 743.855469 C 1129.582031 743.847656 1129.613281 743.835938 1129.644531 743.828125 C 1129.417969 743.898438 1129.191406 743.964844 1128.964844 744.03125 C 1129.15625 743.964844 1129.34375 743.917969 1129.535156 743.855469 Z M 1129.535156 743.855469 "/>
<path fill-rule="nonzero" fill="rgb(0%, 0%, 0%)" fill-opacity="1" d="M 1129.738281 743.796875 C 1130.101562 743.6875 1130.460938 743.570312 1130.824219 743.460938 C 1130.429688 743.59375 1130.039062 743.710938 1129.644531 743.828125 C 1129.675781 743.816406 1129.707031 743.808594 1129.738281 743.796875 Z M 1129.738281 743.796875 "/>
<path fill-rule="nonzero" fill="rgb(0%, 0%, 0%)" fill-opacity="1" d="M 1179.609375 691.449219 C 1179.589844 691.488281 1179.566406 691.527344 1179.546875 691.566406 C 1179.484375 691.679688 1179.421875 691.796875 1179.355469 691.910156 C 1179.136719 692.308594 1178.914062 692.707031 1178.695312 693.101562 C 1178.570312 693.308594 1178.460938 693.511719 1178.335938 693.714844 C 1178.761719 692.960938 1179.183594 692.207031 1179.609375 691.449219 Z M 1179.609375 691.449219 "/>
<path fill-rule="nonzero" fill="rgb(0%, 0%, 0%)" fill-opacity="1" d="M 1035.691406 1271.183594 C 1035.691406 1271.183594 1035.691406 1271.199219 1035.691406 1271.199219 C 1035.347656 1271.417969 1034.984375 1271.625 1034.621094 1271.84375 C 1034.984375 1271.625 1035.347656 1271.402344 1035.691406 1271.183594 Z M 1035.691406 1271.183594 "/>
<path fill-rule="nonzero" fill="rgb(0%, 0%, 0%)" fill-opacity="1" d="M 1203.035156 1044.363281 C 1202.878906 1044.539062 1202.722656 1044.714844 1202.570312 1044.886719 C 1202.722656 1044.714844 1202.878906 1044.539062 1203.035156 1044.363281 Z M 1203.035156 1044.363281 "/>
<path fill-rule="nonzero" fill="rgb(0%, 0%, 0%)" fill-opacity="1" d="M 1236.945312 948.746094 C 1236.929688 949.234375 1236.914062 949.722656 1236.898438 950.191406 C 1236.882812 950.289062 1236.867188 950.382812 1236.851562 950.492188 C 1236.898438 949.910156 1236.929688 949.328125 1236.945312 948.746094 Z M 1236.945312 948.746094 "/>
<path fill-rule="nonzero" fill="rgb(0%, 0%, 0%)" fill-opacity="1" d="M 1331.464844 838.78125 C 1331.472656 838.761719 1331.484375 838.742188 1331.492188 838.71875 C 1331.496094 838.714844 1331.496094 838.707031 1331.5 838.699219 C 1331.5 838.695312 1331.503906 838.695312 1331.507812 838.6875 C 1331.445312 838.910156 1331.382812 839.128906 1331.335938 839.351562 C 1331.378906 839.167969 1331.421875 838.96875 1331.464844 838.78125 Z M 1331.464844 838.78125 "/>
<path fill-rule="nonzero" fill="rgb(0%, 0%, 0%)" fill-opacity="1" d="M 1088.835938 973.300781 C 1088.839844 973.296875 1088.84375 973.292969 1088.851562 973.289062 C 1088.851562 973.289062 1088.851562 973.289062 1088.855469 973.289062 C 1089.011719 973.191406 1089.167969 973.09375 1089.324219 972.996094 C 1089.34375 972.984375 1089.363281 972.976562 1089.382812 972.964844 C 1089.1875 973.085938 1088.992188 973.203125 1088.796875 973.324219 C 1088.808594 973.316406 1088.820312 973.308594 1088.835938 973.300781 Z M 1088.835938 973.300781 "/>
<path fill-rule="nonzero" fill="rgb(0%, 0%, 0%)" fill-opacity="1" d="M 1185.703125 859.1875 C 1185.339844 859.3125 1184.960938 859.421875 1184.585938 859.546875 C 1184.960938 859.421875 1185.324219 859.3125 1185.703125 859.1875 Z M 1185.703125 859.1875 "/>
<path fill-rule="nonzero" fill="rgb(0%, 0%, 0%)" fill-opacity="1" d="M 1264.253906 803.066406 C 1264.167969 803.273438 1264.085938 803.476562 1264 803.683594 C 1263.992188 803.691406 1263.988281 803.695312 1263.988281 803.695312 C 1264.078125 803.484375 1264.164062 803.273438 1264.253906 803.066406 Z M 1264.253906 803.066406 "/>
<path fill-rule="nonzero" fill="rgb(0%, 0%, 0%)" fill-opacity="1" d="M 1246.800781 731.734375 C 1246.800781 731.6875 1246.816406 731.65625 1246.816406 731.609375 C 1246.800781 731.800781 1246.789062 732 1246.78125 732.195312 C 1246.785156 732.042969 1246.792969 731.890625 1246.800781 731.734375 Z M 1246.800781 731.734375 "/>
<path fill-rule="nonzero" fill="rgb(0%, 0%, 0%)" fill-opacity="1" d="M 1250.59375 723.4375 C 1250.609375 723.375 1250.640625 723.328125 1250.65625 723.265625 C 1250.609375 723.4375 1250.5625 723.628906 1250.53125 723.800781 C 1250.546875 723.675781 1250.578125 723.5625 1250.59375 723.4375 Z M 1250.59375 723.4375 "/>
<path fill-rule="nonzero" fill="rgb(0%, 0%, 0%)" fill-opacity="1" d="M 1372.707031 628.257812 C 1372.613281 628.90625 1372.535156 629.550781 1372.457031 630.179688 C 1372.390625 630.433594 1372.328125 630.667969 1372.25 630.917969 C 1372.441406 630.054688 1372.582031 629.171875 1372.707031 628.257812 Z M 1372.707031 628.257812 "/>
<path fill-rule="nonzero" fill="rgb(0%, 0%, 0%)" fill-opacity="1" d="M 1332.753906 623.582031 C 1332.769531 623.503906 1332.800781 623.410156 1332.816406 623.332031 C 1332.738281 623.789062 1332.675781 624.261719 1332.609375 624.71875 C 1332.660156 624.339844 1332.707031 623.960938 1332.753906 623.582031 Z M 1332.753906 623.582031 "/>
<path fill-rule="nonzero" fill="rgb(0%, 0%, 0%)" fill-opacity="1" d="M 658.171875 1326.453125 C 657.777344 1326.847656 657.371094 1327.242188 656.960938 1327.636719 C 657.371094 1327.242188 657.761719 1326.847656 658.171875 1326.453125 Z M 658.171875 1326.453125 "/>
<path fill-rule="nonzero" fill="rgb(0%, 0%, 0%)" fill-opacity="1" d="M 559.996094 1307.542969 C 560.601562 1281.90625 598.46875 1281.910156 599.070312 1307.542969 C 598.464844 1333.179688 560.597656 1333.175781 559.996094 1307.542969 Z M 559.996094 1307.542969 "/>
<path fill-rule="nonzero" fill="rgb(0%, 0%, 0%)" fill-opacity="1" d="M 555.1875 1327.949219 C 544.953125 1292.746094 591.0625 1290.847656 593.503906 1316.363281 C 598.152344 1339.535156 564 1349.789062 555.1875 1327.949219 Z M 555.1875 1327.949219 "/>
<path fill-rule="nonzero" fill="rgb(0%, 0%, 0%)" fill-opacity="1" d="M 563.523438 1352.535156 C 546.53125 1348.902344 533.84375 1328.351562 546.683594 1313.589844 C 543.082031 1301.957031 552.558594 1292.617188 560.375 1285.488281 C 574.746094 1271.441406 590.277344 1258.722656 605.703125 1245.871094 C 624.722656 1229.109375 642.523438 1210.878906 662.039062 1194.75 C 677.613281 1175.875 707.847656 1188.597656 699.382812 1213.308594 C 686.410156 1239.59375 659.097656 1254.921875 640.21875 1276.949219 C 638.613281 1286.683594 630.242188 1293.640625 623.03125 1299.671875 C 610.570312 1310.53125 600.648438 1319.058594 589.183594 1330.269531 C 587.703125 1342.644531 576.660156 1354.339844 563.523438 1352.535156 Z M 580.363281 1346.820312 C 583.035156 1344.230469 584.941406 1340.90625 585.796875 1337.375 C 585.320312 1339.203125 584.601562 1340.933594 583.683594 1342.519531 C 583.074219 1343.210938 582.429688 1343.875 581.746094 1344.503906 C 582.046875 1344.238281 582.351562 1343.96875 582.652344 1343.695312 C 582.988281 1343.3125 583.324219 1342.929688 583.664062 1342.546875 C 582.75 1344.121094 581.636719 1345.554688 580.363281 1346.820312 Z M 580.363281 1346.820312 "/>
<path fill-rule="nonzero" fill="rgb(0%, 0%, 0%)" fill-opacity="1" d="M 698.683594 1202.167969 C 683.375 1191.148438 692.539062 1165.300781 711.175781 1166.125 C 709.382812 1166.011719 707.554688 1166.402344 705.796875 1166.777344 C 747.074219 1151.820312 758.269531 1199.828125 723.964844 1204.417969 C 715.4375 1205.652344 706.015625 1208.597656 698.683594 1202.167969 Z M 698.683594 1202.167969 "/>
<path fill-rule="nonzero" fill="rgb(0%, 0%, 0%)" fill-opacity="1" d="M 544.71875 1342.878906 C 542.011719 1339.667969 538.894531 1336.710938 536.816406 1333.011719 C 538.183594 1331.324219 539.316406 1329.421875 540.183594 1327.34375 C 542.417969 1321.976562 542.480469 1316.132812 541.191406 1310.578125 C 541.285156 1309.300781 541.316406 1308.042969 541.253906 1306.847656 C 540.988281 1302.058594 540.625 1297.070312 539.144531 1292.441406 C 540.78125 1291.828125 542.480469 1291.417969 544.214844 1291.214844 C 545.820312 1285.375 550.371094 1281.140625 555.203125 1277.753906 C 596.039062 1241.230469 637.09375 1204.882812 679.191406 1169.808594 C 706.09375 1151.640625 741.859375 1159.765625 772.023438 1154.425781 C 842.613281 1102.949219 860.164062 1150.933594 869.390625 1071.636719 C 873.34375 1050.589844 871.957031 1029.210938 872.601562 1007.976562 C 873.421875 990.644531 874.648438 971.785156 883.558594 956.433594 C 891.367188 942.992188 905.300781 935.324219 918.066406 927.246094 C 943.175781 911.378906 970.316406 896.878906 994.070312 879.296875 C 998.304688 862.042969 1001.722656 845.230469 1003.234375 827.753906 C 1004.554688 808.675781 1000.242188 787.832031 1008.285156 769.855469 C 1014.078125 759.480469 1025.714844 758.222656 1036.167969 756.238281 C 1052.933594 752.632812 1069.066406 746.839844 1085.25 741.28125 C 1104.03125 733.617188 1127.363281 731.191406 1143.859375 720.140625 C 1161.460938 700.273438 1165.996094 671.355469 1187.484375 654.621094 C 1196.738281 645.519531 1210.027344 641.144531 1217.945312 630.925781 C 1235.105469 600.261719 1234.835938 579.214844 1268.273438 558.78125 C 1292.234375 541.179688 1314.589844 521.613281 1338.769531 504.328125 C 1341.003906 504.578125 1343.238281 504.796875 1345.476562 505.019531 C 1348.117188 505.261719 1350.730469 505.433594 1353.375 505.542969 C 1353.484375 505.597656 1353.597656 505.652344 1353.710938 505.710938 C 1355.097656 507.964844 1356.597656 510.039062 1358.367188 512.023438 C 1358.070312 511.695312 1357.769531 511.347656 1357.453125 511 C 1358.933594 512.667969 1360.289062 514.417969 1361.59375 516.226562 C 1362.398438 517.34375 1363.265625 518.398438 1364.097656 519.46875 C 1364.160156 519.613281 1364.222656 519.738281 1364.285156 519.878906 C 1366.050781 523.957031 1367.609375 528.160156 1369.058594 532.363281 C 1336.644531 556.101562 1304.371094 580.722656 1273.847656 606.589844 C 1261.976562 633.019531 1252.75 663.152344 1224.824219 676.925781 C 1217.269531 682.328125 1208.828125 687.695312 1204.375 696.117188 C 1193.214844 718 1182.824219 742.574219 1162.34375 757.308594 C 1145.78125 765.414062 1127.535156 769.730469 1110.0625 775.539062 C 1088.039062 782.449219 1066.566406 791.4375 1043.769531 795.65625 C 1043.597656 818.183594 1043.992188 841.578125 1038.652344 863.476562 C 1035.097656 878.019531 1034.859375 894.425781 1024.800781 906.230469 C 998.164062 927.5625 967.59375 943.574219 938.75 961.820312 C 918.695312 972.726562 913.925781 979.246094 913.21875 1002.417969 C 911.910156 1050.828125 915.515625 1167.824219 845.210938 1163.839844 C 840.171875 1165.289062 835.167969 1166.878906 830.238281 1168.546875 C 827.042969 1169.699219 823.878906 1171.003906 820.746094 1172.390625 C 815.898438 1203.246094 734.003906 1193.265625 709.164062 1199.859375 C 687.675781 1210.894531 671.035156 1231.769531 651.40625 1246.363281 C 650.679688 1250.1875 648.871094 1253.808594 645.941406 1256.628906 C 642.414062 1260.027344 638.699219 1263.253906 634.921875 1266.417969 C 634.464844 1275.738281 626.28125 1281.769531 619.761719 1287.4375 C 606.191406 1299.542969 592.132812 1311.050781 578.34375 1322.902344 C 582.816406 1336.867188 570.613281 1348.800781 558.226562 1348.800781 C 553.4375 1348.800781 548.621094 1347.019531 544.71875 1342.878906 Z M 544.71875 1342.878906 "/>
<path fill-rule="nonzero" fill="rgb(0%, 0%, 0%)" fill-opacity="1" d="M 1339.921875 530.671875 C 1339.246094 517.855469 1345.824219 510.0625 1354.355469 506.742188 C 1355.570312 508.597656 1356.875 510.347656 1358.371094 512.03125 C 1358.074219 511.699219 1357.773438 511.355469 1357.457031 511.007812 C 1358.9375 512.675781 1360.292969 514.421875 1361.597656 516.234375 C 1362.398438 517.347656 1363.257812 518.410156 1364.097656 519.488281 C 1364.160156 519.621094 1364.226562 519.753906 1364.289062 519.886719 C 1366.085938 524.027344 1367.691406 528.339844 1369.140625 532.605469 C 1369.132812 532.578125 1369.125 532.550781 1369.117188 532.519531 C 1369.132812 532.566406 1369.144531 532.609375 1369.160156 532.652344 C 1369.152344 532.636719 1369.148438 532.621094 1369.140625 532.605469 C 1369.148438 532.628906 1369.160156 532.652344 1369.167969 532.675781 C 1369.179688 532.710938 1369.191406 532.746094 1369.203125 532.78125 C 1369.21875 532.828125 1369.234375 532.875 1369.25 532.921875 C 1369.246094 532.902344 1369.238281 532.882812 1369.234375 532.867188 C 1369.300781 533.058594 1369.367188 533.25 1369.421875 533.441406 C 1369.414062 533.414062 1369.402344 533.386719 1369.394531 533.359375 C 1369.382812 533.320312 1369.367188 533.28125 1369.355469 533.238281 C 1369.320312 533.132812 1369.289062 533.027344 1369.25 532.921875 C 1369.285156 533.027344 1369.320312 533.132812 1369.355469 533.238281 C 1369.367188 533.28125 1369.382812 533.320312 1369.394531 533.359375 C 1370.503906 536.695312 1371.695312 539.910156 1373.214844 543.105469 C 1373.644531 543.992188 1374.078125 544.875 1374.519531 545.75 C 1373.960938 545.914062 1373.390625 546.058594 1372.824219 546.175781 C 1369.265625 549.355469 1364.953125 550.773438 1360.636719 550.773438 C 1350.121094 550.773438 1339.589844 542.351562 1339.921875 530.671875 Z M 1339.921875 530.671875 "/>
<path fill-rule="nonzero" fill="rgb(0%, 0%, 0%)" fill-opacity="1" d="M 690.847656 1488.28125 C 679.90625 1486.785156 672.238281 1476.457031 673.625 1465.578125 C 677.308594 1450.089844 693.585938 1441.917969 703.816406 1430.851562 C 714.019531 1421.660156 724.535156 1412.859375 734.878906 1403.820312 C 744.859375 1395.917969 753.878906 1382.789062 767.90625 1383.402344 C 795.0625 1358.925781 830.875 1351.949219 866.1875 1348.15625 C 881.519531 1328.855469 893.183594 1306.660156 910.027344 1288.617188 C 944.191406 1263.195312 990.644531 1265.066406 1029.9375 1251.84375 C 1052.75 1190.464844 1081.386719 1131.382812 1094.453125 1067.4375 C 1096.640625 1049.773438 1110.886719 1037.335938 1126.347656 1030.410156 C 1141.332031 1023.058594 1159.894531 1022.726562 1169.261719 1006.984375 C 1179.570312 990.21875 1179.242188 970.289062 1181.492188 951.398438 C 1183.917969 905.070312 1255.089844 908.769531 1288.699219 897.671875 C 1304.441406 866.042969 1307.210938 828.890625 1329.140625 800.304688 C 1345.089844 781.710938 1364.972656 766.898438 1381.089844 748.414062 C 1392.378906 732.75 1406.011719 719.292969 1419.566406 705.613281 C 1427.246094 698.007812 1434.742188 690.105469 1440.945312 681.226562 C 1443.792969 677.085938 1447.632812 673.890625 1452.609375 672.535156 C 1456.347656 671.355469 1460.054688 671.464844 1463.441406 672.53125 C 1463.570312 672.765625 1463.699219 673 1463.832031 673.230469 C 1464.304688 675.085938 1465.046875 676.929688 1465.769531 678.691406 C 1466.039062 680.25 1466.304688 681.792969 1466.730469 683.320312 C 1467.140625 684.785156 1467.566406 686.25 1467.941406 687.726562 C 1468.886719 691.429688 1469.941406 695.128906 1470.679688 698.84375 C 1470.824219 699.867188 1470.902344 700.90625 1470.964844 701.929688 C 1470.953125 701.769531 1470.949219 701.605469 1470.945312 701.445312 C 1470.957031 701.667969 1470.964844 701.890625 1470.976562 702.113281 C 1470.96875 702.046875 1470.964844 701.984375 1470.964844 701.929688 C 1470.964844 702.039062 1470.980469 702.164062 1470.980469 702.289062 C 1471.027344 703.1875 1471.042969 704.085938 1471.027344 704.980469 C 1470.574219 706.644531 1469.988281 708.242188 1469.816406 709.972656 C 1463.484375 718.28125 1456.238281 725.941406 1448.878906 733.289062 C 1430.867188 749.847656 1416.746094 769.605469 1399.855469 787.15625 C 1384.351562 804.441406 1362.8125 817.019531 1352.992188 838.699219 C 1341.421875 864.832031 1337.089844 893.71875 1323.015625 918.984375 C 1317.335938 931.105469 1305.007812 936.332031 1292.382812 938.035156 C 1268.972656 944.269531 1244.070312 945.8125 1221.605469 955.113281 C 1219.414062 990.550781 1212.960938 1029.703125 1181.507812 1051.316406 C 1167.605469 1061.957031 1148.179688 1061 1134.707031 1072.457031 C 1122.300781 1134.199219 1096.46875 1191.597656 1073.796875 1249.988281 C 1069.609375 1261.054688 1066.351562 1273.253906 1057.820312 1281.898438 C 1036.550781 1297.136719 1007.710938 1296.804688 983.074219 1303.859375 C 967.898438 1307.761719 951.558594 1310.011719 937.796875 1317.804688 C 918.230469 1338.804688 907.949219 1369.300781 883.628906 1385.417969 C 860.628906 1391.558594 835.378906 1390.738281 813.226562 1400.691406 C 788.070312 1417.3125 764.617188 1436.425781 742.261719 1456.667969 C 731.636719 1465.546875 722.238281 1478.015625 708.492188 1481.792969 C 704.730469 1485.933594 699.144531 1488.453125 693.445312 1488.453125 C 692.578125 1488.453125 691.710938 1488.40625 690.847656 1488.28125 Z M 690.847656 1488.28125 "/>
<path fill-rule="nonzero" fill="rgb(0%, 0%, 0%)" fill-opacity="1" d="M 1128.789062 758.925781 C 1128.789062 754.363281 1130.378906 750.09375 1133.023438 746.695312 C 1134.21875 744.804688 1135.367188 742.902344 1136.453125 740.964844 C 1132.914062 733.660156 1134.992188 724.84375 1136.894531 717.351562 C 1141.507812 698.996094 1146.167969 680.625 1150.828125 662.285156 C 1155.753906 635.695312 1185.128906 630.46875 1203.40625 616 C 1216.898438 603.296875 1221.101562 584.105469 1231.710938 569.246094 C 1243.820312 552.683594 1260.898438 540.4375 1276.671875 527.589844 C 1284.207031 521.746094 1292.273438 516.667969 1300.257812 511.472656 C 1300.996094 511.105469 1301.734375 510.738281 1302.476562 510.371094 C 1303.183594 510.070312 1303.875 509.753906 1304.585938 509.457031 C 1306.597656 508.601562 1308.8125 507.808594 1310.75 506.652344 C 1313.300781 505.882812 1315.828125 505.046875 1318.328125 504.136719 C 1320.042969 504.355469 1321.773438 504.449219 1323.445312 504.464844 C 1327.789062 504.480469 1332.148438 504.433594 1336.464844 504.070312 C 1339.46875 504.402344 1342.476562 504.71875 1345.484375 505.015625 C 1348.101562 505.261719 1350.738281 505.433594 1353.375 505.542969 C 1353.476562 505.59375 1353.574219 505.640625 1353.675781 505.691406 C 1355.070312 507.953125 1356.585938 510.03125 1358.359375 512.039062 C 1358.0625 511.707031 1357.761719 511.359375 1357.449219 511.015625 C 1358.925781 512.683594 1360.28125 514.429688 1361.589844 516.242188 C 1362.390625 517.328125 1363.242188 518.367188 1364.058594 519.4375 C 1364.136719 519.59375 1364.21875 519.734375 1364.28125 519.894531 C 1366.042969 523.953125 1367.632812 528.175781 1369.066406 532.378906 C 1369.097656 532.457031 1369.128906 532.535156 1369.144531 532.597656 C 1369.144531 532.613281 1369.144531 532.613281 1369.160156 532.613281 C 1369.160156 532.660156 1369.175781 532.691406 1369.175781 532.722656 C 1369.191406 532.738281 1369.191406 532.769531 1369.191406 532.785156 C 1369.207031 532.816406 1369.222656 532.847656 1369.238281 532.882812 C 1369.238281 532.929688 1369.253906 532.960938 1369.269531 532.992188 C 1369.347656 533.226562 1369.429688 533.464844 1369.507812 533.699219 C 1363.445312 545.820312 1345.089844 551.675781 1334.621094 536.816406 C 1309.683594 553.722656 1283.082031 569.875 1263.875 593.519531 C 1255.246094 607.71875 1249.691406 623.808594 1239.207031 636.859375 C 1226.769531 653.4375 1206.714844 659.65625 1190.324219 670.878906 C 1187.304688 680.371094 1185.523438 690.289062 1182.925781 699.910156 C 1191.316406 714.925781 1174.929688 760.847656 1163.34375 773.09375 C 1159.535156 777.1875 1154.574219 779.015625 1149.601562 779.015625 C 1139.050781 779.015625 1128.472656 770.828125 1128.789062 758.925781 Z M 1128.789062 758.925781 "/>
<path fill-rule="nonzero" fill="rgb(0%, 0%, 0%)" fill-opacity="1" d="M 1299.585938 591.636719 C 1296.910156 583.484375 1299.808594 575.09375 1305.933594 569.929688 C 1298.769531 550.992188 1299.570312 549.382812 1309.472656 532.304688 C 1304.167969 522.648438 1308.554688 511.503906 1316.042969 503.964844 C 1316.9375 503.679688 1317.828125 503.386719 1318.714844 503.085938 C 1320.164062 502.613281 1321.613281 502.140625 1323.058594 501.667969 C 1324.855469 501.246094 1326.679688 500.757812 1328.347656 500 C 1329.78125 500.046875 1331.214844 500.109375 1332.648438 500.15625 C 1333.71875 500.1875 1334.773438 500.222656 1335.828125 500.253906 C 1336.109375 500.316406 1336.378906 500.363281 1336.644531 500.410156 C 1339.886719 500.976562 1343.132812 501.386719 1346.34375 502.09375 C 1346.46875 502.132812 1346.59375 502.167969 1346.71875 502.207031 C 1347.234375 502.394531 1347.757812 502.5625 1348.285156 502.71875 C 1349.980469 503.863281 1351.871094 504.800781 1353.71875 505.703125 C 1355.113281 507.960938 1356.613281 510.03125 1358.386719 512.027344 C 1358.085938 511.695312 1357.789062 511.351562 1357.472656 511.003906 C 1358.953125 512.671875 1360.304688 514.421875 1361.613281 516.230469 C 1362.398438 517.316406 1363.234375 518.355469 1364.054688 519.410156 C 1364.132812 519.570312 1364.210938 519.726562 1364.289062 519.882812 C 1364.652344 520.734375 1365.011719 521.582031 1365.359375 522.433594 C 1364.589844 529.15625 1361.992188 536.066406 1359.550781 541.9375 C 1363.691406 541.875 1368.398438 541.96875 1372.996094 542.617188 C 1373.074219 542.789062 1373.152344 542.945312 1373.230469 543.101562 C 1374.539062 545.8125 1375.90625 548.472656 1377.355469 551.101562 C 1378.519531 553.367188 1379.511719 555.746094 1380.660156 558.058594 C 1381.859375 560.46875 1383.039062 562.9375 1384.140625 565.378906 C 1384.265625 565.695312 1384.375 566.007812 1384.488281 566.324219 C 1385.039062 568.402344 1385.558594 570.449219 1386.660156 572.320312 C 1387.746094 574.195312 1388.910156 576.050781 1390.136719 577.832031 C 1387.871094 580.207031 1385.039062 582.066406 1381.761719 583.058594 C 1365.738281 585.953125 1338.847656 605.160156 1319.296875 605.160156 C 1310.875 605.160156 1303.824219 601.601562 1299.585938 591.636719 Z M 1299.585938 591.636719 "/>
<path fill-rule="nonzero" fill="rgb(0%, 0%, 0%)" fill-opacity="1" d="M 1397.84375 691.84375 C 1388.207031 686.804688 1384.101562 674.320312 1389.308594 664.65625 C 1392.300781 658.199219 1397.953125 652.488281 1399.226562 645.433594 C 1398.332031 634.304688 1395.339844 623.191406 1405.964844 615.902344 C 1405.964844 615.902344 1405.933594 615.757812 1405.933594 615.757812 C 1408.328125 613.558594 1411.160156 612.15625 1414.125 611.46875 C 1415.628906 613.121094 1417.132812 614.789062 1418.589844 616.5 C 1420.261719 618.5625 1421.851562 620.703125 1423.785156 622.511719 C 1425.707031 624.324219 1427.597656 626.117188 1429.46875 627.960938 C 1432.257812 630.746094 1434.851562 633.738281 1437.8125 636.351562 C 1438.25 636.734375 1438.6875 637.109375 1439.128906 637.480469 C 1439.105469 639.257812 1439.148438 641.039062 1439.417969 642.820312 C 1441.101562 657.902344 1432.398438 670.96875 1425.03125 683.308594 C 1421.394531 690.140625 1414.246094 694.09375 1406.972656 694.09375 C 1403.871094 694.09375 1400.738281 693.371094 1397.84375 691.84375 Z M 1397.84375 691.84375 "/>
<path fill-rule="nonzero" fill="rgb(0%, 0%, 0%)" fill-opacity="1" d="M 686.164062 1499.933594 C 678.246094 1499.195312 669.996094 1495.242188 666.027344 1488.125 C 664.484375 1485.984375 663.242188 1483.8125 662.34375 1481.199219 C 662.457031 1481.636719 662.605469 1482.058594 662.769531 1482.472656 C 658.15625 1472.3125 653.140625 1462.132812 645.988281 1453.476562 C 642.996094 1449.882812 638.523438 1448.546875 634.339844 1446.625 C 633.964844 1445.890625 633.582031 1445.15625 633.1875 1444.425781 C 632.796875 1443.703125 632.417969 1442.945312 632.007812 1442.191406 C 631.378906 1438.394531 629.082031 1434.523438 627.128906 1431.125 C 626.90625 1430.273438 626.671875 1429.4375 626.371094 1428.605469 C 625.851562 1427.125 625.253906 1425.660156 624.765625 1424.164062 C 624.3125 1422.605469 623.933594 1421 623.601562 1419.410156 C 623.964844 1417.601562 623.964844 1415.523438 623.539062 1413.820312 C 623.535156 1413.804688 623.53125 1413.785156 623.523438 1413.769531 C 630.566406 1403.269531 647.351562 1400.316406 656.628906 1412.640625 C 662.691406 1415.160156 668.359375 1418.230469 672.984375 1423.21875 C 673.144531 1423.394531 673.300781 1423.582031 673.472656 1423.753906 C 683.785156 1415.097656 700.898438 1419.945312 705.699219 1432.507812 C 710.707031 1443.183594 707.699219 1455.601562 700.535156 1464.167969 C 715.699219 1475.738281 705.761719 1499.996094 687.792969 1500 C 687.257812 1500 686.714844 1499.976562 686.164062 1499.933594 Z M 682.285156 1497.496094 C 680.40625 1497.269531 678.59375 1496.851562 676.875 1496.25 C 678.523438 1497.136719 680.414062 1497.296875 682.285156 1497.496094 Z M 698.441406 1496.234375 C 698.628906 1496.109375 698.820312 1495.980469 699.007812 1495.871094 C 698.992188 1495.886719 698.976562 1495.886719 698.976562 1495.902344 C 699.636719 1495.335938 700.300781 1494.785156 700.976562 1494.234375 C 700.960938 1494.234375 700.945312 1494.25 700.945312 1494.25 C 701.527344 1493.621094 702.109375 1492.992188 702.691406 1492.363281 C 702.691406 1492.363281 702.675781 1492.378906 702.675781 1492.394531 C 702.914062 1492.046875 703.148438 1491.699219 703.386719 1491.371094 C 701.96875 1493.257812 700.300781 1494.894531 698.441406 1496.234375 Z M 692.949219 1496.09375 C 694.601562 1495.460938 696.035156 1494.296875 697.402344 1493.132812 C 695.96875 1494.328125 694.492188 1495.304688 692.949219 1496.09375 Z M 639.171875 1406.046875 C 639.1875 1406.046875 639.203125 1406.046875 639.21875 1406.046875 C 637.832031 1406.265625 636.527344 1406.40625 635.234375 1406.878906 C 637.816406 1406.125 640.542969 1405.886719 643.390625 1406.125 C 642.871094 1406.078125 642.335938 1406.03125 641.800781 1405.964844 C 640.933594 1406 640.054688 1406.015625 639.171875 1406.046875 Z M 639.171875 1406.046875 "/>
<path fill-rule="nonzero" fill="rgb(0%, 0%, 0%)" fill-opacity="1" d="M 662.769531 1482.472656 C 663.125 1483.25 663.476562 1484.027344 663.824219 1484.804688 C 663.464844 1484.023438 663.082031 1483.257812 662.769531 1482.472656 Z M 662.769531 1482.472656 "/>
<path fill-rule="nonzero" fill="rgb(0%, 0%, 0%)" fill-opacity="1" d="M 594.8125 1382.25 C 593.128906 1380.675781 591.503906 1379.445312 589.238281 1378.738281 C 588.484375 1378.488281 587.710938 1378.34375 586.925781 1378.3125 C 586.152344 1377.652344 585.335938 1377.039062 584.484375 1376.519531 C 583.554688 1375.953125 582.5625 1375.558594 581.539062 1375.324219 C 581.035156 1374.960938 580.515625 1374.613281 579.980469 1374.316406 C 579.414062 1373.984375 578.832031 1373.714844 578.234375 1373.496094 C 577.335938 1372.628906 576.457031 1371.75 575.574219 1370.867188 C 573.96875 1369.261719 572.378906 1367.5625 570.207031 1366.742188 C 569.75 1366.570312 569.277344 1366.429688 568.820312 1366.300781 C 567.851562 1365.285156 566.855469 1364.292969 565.765625 1363.425781 C 565.800781 1362.660156 565.882812 1361.890625 566.019531 1361.121094 C 565.859375 1360.714844 565.46875 1356.226562 565.515625 1355.519531 C 563.972656 1353.296875 562.507812 1351.046875 561.625 1348.402344 C 560.996094 1346.496094 560.304688 1344.484375 559.785156 1342.421875 C 556.511719 1341.871094 553.394531 1340.484375 550.796875 1338.1875 C 550.71875 1338.121094 550.652344 1338.058594 550.574219 1337.996094 C 531.257812 1336.941406 522.773438 1310.824219 533.96875 1296.34375 C 542.847656 1283.8125 563.4375 1284.046875 570.046875 1298.53125 C 585.617188 1306.148438 597.347656 1321.988281 603.4375 1337.871094 C 605.578125 1345.191406 605.140625 1353.015625 607.105469 1360.273438 C 609.683594 1369.410156 604.496094 1378.542969 596.789062 1382.789062 C 596.152344 1382.539062 595.496094 1382.355469 594.8125 1382.25 Z M 599.171875 1378.847656 C 602.210938 1376.203125 604.367188 1372.644531 605.3125 1368.789062 C 604.304688 1372.597656 602.320312 1375.984375 599.171875 1378.847656 Z M 599.171875 1378.847656 "/>
<path fill-rule="nonzero" fill="rgb(0%, 0%, 0%)" fill-opacity="1" d="M 627.121094 1431.136719 C 626.917969 1430.289062 626.664062 1429.453125 626.382812 1428.621094 C 625.847656 1427.140625 625.261719 1425.675781 624.757812 1424.179688 C 624.320312 1422.605469 623.941406 1421.015625 623.609375 1419.425781 C 623.957031 1417.617188 623.972656 1415.539062 623.546875 1413.835938 C 623.5 1413.632812 623.4375 1413.445312 623.375 1413.253906 C 660.605469 1409.207031 695.632812 1394.664062 729.574219 1379.535156 C 760.382812 1364.121094 792.527344 1351.070312 820.800781 1331.046875 C 837.769531 1319.273438 853.261719 1305.609375 869.777344 1293.25 C 901.164062 1269.902344 937.183594 1253.988281 969.535156 1232.074219 C 992.804688 1215.371094 1019.03125 1197.851562 1031.386719 1171.167969 C 1039.210938 1155.03125 1042.1875 1138.613281 1050.027344 1122.773438 C 1058.90625 1103.820312 1070.066406 1086.09375 1080.566406 1068.039062 C 1095.539062 1041.195312 1110.257812 1014.074219 1130.738281 990.945312 C 1180.65625 932.210938 1156.429688 923.347656 1234.75 884.023438 C 1251.484375 871.980469 1263.96875 855.167969 1278.8125 841.046875 C 1290.949219 829.207031 1304.03125 818.253906 1315.320312 805.609375 C 1324.621094 795.347656 1330.433594 782.691406 1337.375 770.867188 C 1346.0625 755.976562 1357.164062 742.515625 1364.640625 726.929688 C 1374.730469 707.535156 1384.902344 688.140625 1396.597656 669.675781 C 1404.609375 657.945312 1412.167969 645.808594 1414.199219 631.453125 C 1414.6875 625.632812 1416 619.601562 1416.125 613.675781 C 1416.953125 614.605469 1417.777344 615.546875 1418.589844 616.496094 C 1420.257812 618.558594 1421.847656 620.699219 1423.785156 622.511719 C 1425.707031 624.320312 1427.59375 626.113281 1429.46875 627.957031 C 1431.117188 629.605469 1432.699219 631.324219 1434.328125 632.996094 C 1433.359375 638.207031 1432.097656 643.335938 1430.742188 648.265625 C 1428.113281 658.136719 1422.589844 666.667969 1416.921875 675.058594 C 1408.121094 688.722656 1400.3125 702.953125 1392.503906 717.183594 C 1384.320312 732.203125 1377.234375 747.835938 1367.191406 761.753906 C 1356.140625 776.976562 1348.285156 794.054688 1337.847656 809.640625 C 1326.417969 825.367188 1311.226562 837.820312 1297.308594 851.28125 C 1279.757812 867.132812 1265.730469 886.859375 1246.257812 900.539062 C 1209.089844 922.246094 1196.179688 922.875 1175.304688 963.980469 C 1161.703125 988.066406 1141.460938 1007.367188 1125.96875 1030.144531 C 1106.9375 1061.300781 1088.957031 1093.179688 1071.261719 1125.136719 C 1057.757812 1151.867188 1053.554688 1183.351562 1032.503906 1205.972656 C 999.492188 1241.628906 955.667969 1264.441406 914.027344 1288.371094 C 888.382812 1302.726562 866.25 1322.027344 843.058594 1339.847656 C 818.171875 1358.40625 790.84375 1373.332031 762.460938 1385.800781 C 737.933594 1397.90625 672.804688 1429.675781 628.222656 1433.042969 C 627.859375 1432.398438 627.484375 1431.769531 627.121094 1431.136719 Z M 627.121094 1431.136719 "/>
<path fill-rule="nonzero" fill="rgb(0%, 0%, 0%)" fill-opacity="1" d="M 594.800781 1382.242188 C 593.132812 1380.667969 591.496094 1379.457031 589.246094 1378.734375 C 588.488281 1378.480469 587.703125 1378.355469 586.929688 1378.308594 C 586.144531 1377.648438 585.339844 1377.035156 584.492188 1376.515625 C 583.5625 1375.960938 582.570312 1375.554688 581.546875 1375.316406 C 581.042969 1374.957031 580.523438 1374.609375 579.988281 1374.308594 C 579.40625 1373.980469 578.824219 1373.710938 578.242188 1373.507812 C 577.34375 1372.625 576.460938 1371.742188 575.578125 1370.863281 C 575.28125 1370.5625 574.996094 1370.28125 574.699219 1369.980469 C 574.949219 1366.140625 575.785156 1362.234375 576.398438 1358.757812 C 578.601562 1342.398438 587.292969 1328.246094 595.824219 1314.488281 C 611.835938 1289.882812 630.113281 1266.347656 654.96875 1250.148438 C 689.746094 1225.921875 725.210938 1202.339844 762.507812 1182.140625 C 789.332031 1168.113281 817.226562 1156.246094 845.328125 1145.066406 C 866.21875 1135.859375 894.757812 1127.828125 902.457031 1103.773438 C 904.265625 1091.730469 899.84375 1079.816406 899.214844 1067.820312 C 895.042969 1034.554688 909.164062 1001.71875 933.375 979.109375 C 946.09375 967.144531 961.238281 958.21875 974.398438 946.777344 C 994.015625 930.105469 1007.929688 907.734375 1015.976562 883.394531 C 1021.421875 864.378906 1027.308594 844.574219 1042.03125 830.453125 C 1072.082031 800.765625 1114.570312 784.015625 1141.648438 751.222656 C 1169.339844 718.761719 1196.558594 685.921875 1225.554688 654.609375 C 1253.546875 622.765625 1286.351562 594.632812 1324.542969 575.757812 C 1342.746094 566.796875 1362.1875 558.226562 1380.515625 557.789062 C 1380.558594 557.878906 1380.605469 557.972656 1380.652344 558.0625 C 1381.847656 560.472656 1383.027344 562.941406 1384.128906 565.382812 C 1384.253906 565.699219 1384.367188 566.011719 1384.476562 566.328125 C 1385.027344 568.40625 1385.5625 570.453125 1386.648438 572.324219 C 1387.75 574.214844 1388.929688 576.101562 1390.175781 577.898438 C 1390.476562 578.328125 1390.785156 578.753906 1391.097656 579.175781 C 1390.402344 578.921875 1389.691406 578.695312 1388.976562 578.496094 C 1386.445312 578.023438 1383.910156 577.820312 1381.40625 577.820312 C 1364.421875 577.820312 1348.347656 587.5625 1332.980469 594.035156 C 1266.800781 627.21875 1222.3125 688.898438 1174.707031 743.460938 C 1161.292969 759.691406 1147.644531 775.890625 1131.210938 789.226562 C 1109.390625 807.296875 1083.953125 820.300781 1062.449219 838.8125 C 1043.667969 853.203125 1039.511719 876.753906 1032.160156 897.816406 C 1021.707031 926.199219 1002.894531 951.027344 978.777344 969.222656 C 962.027344 981.945312 943.6875 993.40625 932.351562 1011.683594 C 901.386719 1055.601562 936.382812 1088.929688 916.246094 1122.492188 C 899.90625 1147.414062 869.632812 1156.703125 843.4375 1167.515625 C 821.917969 1176.269531 800.585938 1185.480469 779.808594 1195.867188 C 746.984375 1212.492188 716.113281 1233.242188 685.542969 1253.4375 C 668.273438 1265.214844 651.960938 1275.652344 638.503906 1290.527344 C 623.328125 1309.828125 607.363281 1329.476562 598.4375 1352.585938 C 601.601562 1354.300781 603.789062 1357.671875 603.789062 1361.464844 C 603.773438 1366.375 599.273438 1369.539062 599.210938 1374.453125 C 598.53125 1377.472656 598.3125 1380.527344 598.40625 1383.582031 C 597.289062 1382.921875 596.09375 1382.449219 594.800781 1382.242188 Z M 594.800781 1382.242188 "/>
</svg>
