<?xml version="1.0" encoding="UTF-8"?>
<!-- Created by grConvert v0.1-0 -->
<svg xmlns="http://www.w3.org/2000/svg" xmlns:xlink="http://www.w3.org/1999/xlink" width="2000" height="2000" viewBox="0 0 2000 2000">
<path fill-rule="nonzero" fill="rgb(0%, 79.215688%, 93.725491%)" fill-opacity="1" d="M 1263.757812 606.519531 C 1264.109375 589.652344 1289.164062 589.398438 1289.621094 606.480469 C 1289.179688 623.4375 1264.085938 623.511719 1263.757812 606.519531 Z M 1263.757812 606.519531 "/>
<path fill-rule="nonzero" fill="rgb(0%, 79.215688%, 93.725491%)" fill-opacity="1" d="M 1252.011719 609.304688 C 1252.011719 596.625 1262.589844 586.042969 1275.269531 586.042969 C 1287.949219 586.042969 1298.527344 596.625 1298.527344 609.304688 C 1298.527344 621.980469 1287.949219 632.5625 1275.269531 632.5625 C 1262.589844 632.5625 1252.011719 621.980469 1252.011719 609.304688 Z M 1252.011719 609.304688 "/>
<path fill-rule="nonzero" fill="rgb(0%, 79.215688%, 93.725491%)" fill-opacity="1" d="M 1409.886719 773.65625 C 1409.886719 760.976562 1420.464844 750.394531 1433.144531 750.394531 C 1445.824219 750.394531 1456.402344 760.976562 1456.402344 773.65625 C 1456.402344 786.332031 1445.824219 796.914062 1433.144531 796.914062 C 1420.464844 796.914062 1409.886719 786.332031 1409.886719 773.65625 Z M 1409.886719 773.65625 "/>
<path fill-rule="nonzero" fill="rgb(0%, 79.215688%, 93.725491%)" fill-opacity="1" d="M 1448.902344 998.136719 C 1448.902344 985.457031 1459.480469 974.878906 1472.160156 974.878906 C 1484.839844 974.878906 1495.417969 985.457031 1495.417969 998.136719 C 1495.417969 1010.816406 1484.839844 1021.398438 1472.160156 1021.398438 C 1459.480469 1021.398438 1448.902344 1010.816406 1448.902344 998.136719 Z M 1448.902344 998.136719 "/>
<path fill-rule="nonzero" fill="rgb(0%, 79.215688%, 93.725491%)" fill-opacity="1" d="M 1411.414062 1182.988281 C 1411.414062 1170.308594 1421.992188 1159.730469 1434.671875 1159.730469 C 1447.351562 1159.730469 1457.929688 1170.308594 1457.929688 1182.988281 C 1457.929688 1195.667969 1447.351562 1206.25 1434.671875 1206.25 C 1421.992188 1206.25 1411.414062 1195.667969 1411.414062 1182.988281 Z M 1411.414062 1182.988281 "/>
<path fill-rule="nonzero" fill="rgb(0%, 79.215688%, 93.725491%)" fill-opacity="1" d="M 1315.867188 1342.246094 C 1315.867188 1329.570312 1326.445312 1318.988281 1339.125 1318.988281 C 1351.804688 1318.988281 1362.386719 1329.570312 1362.386719 1342.246094 C 1362.386719 1354.925781 1351.804688 1365.507812 1339.125 1365.507812 C 1326.445312 1365.507812 1315.867188 1354.925781 1315.867188 1342.246094 Z M 1315.867188 1342.246094 "/>
<path fill-rule="nonzero" fill="rgb(0%, 79.215688%, 93.725491%)" fill-opacity="1" d="M 1169.945312 1444.8125 C 1169.945312 1432.132812 1180.527344 1421.554688 1193.203125 1421.554688 C 1205.882812 1421.554688 1216.464844 1432.132812 1216.464844 1444.8125 C 1216.464844 1457.492188 1205.882812 1468.070312 1193.203125 1468.070312 C 1180.527344 1468.070312 1169.945312 1457.492188 1169.945312 1444.8125 Z M 1169.945312 1444.8125 "/>
<path fill-rule="nonzero" fill="rgb(0%, 79.215688%, 93.725491%)" fill-opacity="1" d="M 979.332031 1476.742188 C 979.332031 1464.0625 989.910156 1453.480469 1002.589844 1453.480469 C 1015.269531 1453.480469 1025.847656 1464.0625 1025.847656 1476.742188 C 1025.847656 1489.417969 1015.269531 1500 1002.589844 1500 C 989.910156 1500 979.332031 1489.417969 979.332031 1476.742188 Z M 979.332031 1476.742188 "/>
<path fill-rule="nonzero" fill="rgb(0%, 79.215688%, 93.725491%)" fill-opacity="1" d="M 807.683594 1443.792969 C 807.683594 1431.113281 818.265625 1420.535156 830.945312 1420.535156 C 843.625 1420.535156 854.203125 1431.113281 854.203125 1443.792969 C 854.203125 1456.472656 843.625 1467.054688 830.945312 1467.054688 C 818.265625 1467.054688 807.683594 1456.472656 807.683594 1443.792969 Z M 807.683594 1443.792969 "/>
<path fill-rule="nonzero" fill="rgb(0%, 79.215688%, 93.725491%)" fill-opacity="1" d="M 609.074219 1306.882812 C 609.074219 1294.203125 619.65625 1283.625 632.335938 1283.625 C 645.011719 1283.625 655.59375 1294.203125 655.59375 1306.882812 C 655.59375 1319.5625 645.011719 1330.140625 632.335938 1330.140625 C 619.65625 1330.140625 609.074219 1319.5625 609.074219 1306.882812 Z M 609.074219 1306.882812 "/>
<path fill-rule="nonzero" fill="rgb(0%, 79.215688%, 93.725491%)" fill-opacity="1" d="M 525.460938 1142.019531 C 525.460938 1129.339844 536.039062 1118.761719 548.71875 1118.761719 C 561.398438 1118.761719 571.976562 1129.339844 571.976562 1142.019531 C 571.976562 1154.699219 561.398438 1165.28125 548.71875 1165.28125 C 536.039062 1165.28125 525.460938 1154.699219 525.460938 1142.019531 Z M 525.460938 1142.019531 "/>
<path fill-rule="nonzero" fill="rgb(0%, 79.215688%, 93.725491%)" fill-opacity="1" d="M 504.582031 1000.78125 C 504.582031 988.101562 515.160156 977.519531 527.839844 977.519531 C 540.519531 977.519531 551.097656 988.101562 551.097656 1000.78125 C 551.097656 1013.460938 540.519531 1024.039062 527.839844 1024.039062 C 515.160156 1024.039062 504.582031 1013.460938 504.582031 1000.78125 Z M 504.582031 1000.78125 "/>
<path fill-rule="nonzero" fill="rgb(0%, 79.215688%, 93.725491%)" fill-opacity="1" d="M 535.695312 817.011719 C 535.695312 804.332031 546.277344 793.75 558.957031 793.75 C 571.636719 793.75 582.214844 804.332031 582.214844 817.011719 C 582.214844 829.691406 571.636719 840.269531 558.957031 840.269531 C 546.277344 840.269531 535.695312 829.691406 535.695312 817.011719 Z M 535.695312 817.011719 "/>
<path fill-rule="nonzero" fill="rgb(0%, 79.215688%, 93.725491%)" fill-opacity="1" d="M 658.421875 644.605469 C 658.421875 631.925781 669.003906 621.347656 681.683594 621.347656 C 694.363281 621.347656 704.941406 631.925781 704.941406 644.605469 C 704.941406 657.285156 694.363281 667.863281 681.683594 667.863281 C 669.003906 667.863281 658.421875 657.285156 658.421875 644.605469 Z M 658.421875 644.605469 "/>
<path fill-rule="nonzero" fill="rgb(0%, 79.215688%, 93.725491%)" fill-opacity="1" d="M 817.707031 544.078125 C 817.707031 531.398438 828.289062 520.820312 840.964844 520.820312 C 853.644531 520.820312 864.226562 531.398438 864.226562 544.078125 C 864.226562 556.757812 853.644531 567.335938 840.964844 567.335938 C 828.289062 567.335938 817.707031 556.757812 817.707031 544.078125 Z M 817.707031 544.078125 "/>
<path fill-rule="nonzero" fill="rgb(0%, 79.215688%, 93.725491%)" fill-opacity="1" d="M 980.644531 523.257812 C 980.644531 510.582031 991.222656 500 1003.902344 500 C 1016.582031 500 1027.160156 510.582031 1027.160156 523.257812 C 1027.160156 535.9375 1016.582031 546.519531 1003.902344 546.519531 C 991.222656 546.519531 980.644531 535.9375 980.644531 523.257812 Z M 980.644531 523.257812 "/>
<path fill-rule="nonzero" fill="rgb(0%, 79.215688%, 93.725491%)" fill-opacity="1" d="M 1102.460938 538.824219 C 1102.460938 526.144531 1113.042969 515.566406 1125.722656 515.566406 C 1138.398438 515.566406 1148.980469 526.144531 1148.980469 538.824219 C 1148.980469 551.503906 1138.398438 562.085938 1125.722656 562.085938 C 1113.042969 562.085938 1102.460938 551.503906 1102.460938 538.824219 Z M 1102.460938 538.824219 "/>
<path fill-rule="nonzero" fill="rgb(0%, 79.215688%, 93.725491%)" fill-opacity="1" d="M 983.480469 1003.390625 C 983.480469 990.710938 994.0625 980.132812 1006.742188 980.132812 C 1019.421875 980.132812 1030 990.710938 1030 1003.390625 C 1030 1016.070312 1019.421875 1026.648438 1006.742188 1026.648438 C 994.0625 1026.648438 983.480469 1016.070312 983.480469 1003.390625 Z M 983.480469 1003.390625 "/>
</svg>
