<?xml version="1.0" encoding="UTF-8"?>
<!-- Created by grConvert v0.1-0 -->
<svg xmlns="http://www.w3.org/2000/svg" xmlns:xlink="http://www.w3.org/1999/xlink" width="2000" height="2000" viewBox="0 0 2000 2000">
<path fill-rule="nonzero" fill="rgb(0%, 0%, 0%)" fill-opacity="1" d="M 1003.066406 1006.117188 C 995.6875 1006.078125 989.75 999.933594 989.730469 992.613281 C 989.730469 992.207031 989.714844 991.796875 989.710938 991.375 C 989.710938 991.347656 989.710938 991.320312 989.710938 991.292969 C 989.710938 991.25 989.710938 991.207031 989.710938 991.144531 C 989.710938 990.949219 989.714844 990.757812 989.722656 990.5625 C 989.644531 967.402344 989.582031 944.242188 989.519531 921.082031 C 989.414062 880.566406 989.289062 840.054688 989.183594 799.539062 C 989.058594 750.96875 988.933594 702.402344 988.785156 653.835938 C 988.703125 621.582031 988.597656 589.328125 988.515625 557.078125 C 988.472656 542.753906 988.429688 528.429688 988.410156 514.109375 C 988.386719 513.855469 988.386719 513.625 988.386719 513.394531 C 988.367188 506.078125 994.636719 500.015625 1001.894531 500.058594 C 1009.273438 500.101562 1015.210938 506.246094 1015.230469 513.5625 C 1015.273438 527.382812 1015.3125 541.203125 1015.355469 555.023438 C 1015.441406 586.058594 1015.523438 617.09375 1015.609375 648.109375 C 1015.753906 696.300781 1015.878906 744.488281 1016.007812 792.660156 C 1016.132812 834.117188 1016.238281 875.554688 1016.363281 917.015625 C 1016.425781 941.675781 1016.488281 966.335938 1016.550781 991 C 1016.550781 991.113281 1016.550781 991.226562 1016.550781 991.339844 C 1016.554688 991.816406 1016.574219 992.308594 1016.574219 992.78125 C 1016.574219 1000.074219 1010.386719 1006.117188 1003.144531 1006.117188 C 1003.117188 1006.117188 1003.09375 1006.117188 1003.066406 1006.117188 Z M 1003.066406 1006.117188 "/>
<path fill-rule="nonzero" fill="rgb(0%, 0%, 0%)" fill-opacity="1" d="M 1078.402344 702.136719 C 1071.3125 700.144531 1067.222656 692.640625 1069.132812 685.570312 C 1074.648438 665.105469 1080.121094 644.617188 1085.617188 624.148438 C 1090.375 606.386719 1095.136719 588.644531 1099.894531 570.882812 C 1103.984375 555.617188 1108.074219 540.328125 1112.183594 525.042969 C 1112.289062 524.644531 1112.394531 524.246094 1112.5 523.847656 C 1114.40625 516.78125 1122.082031 512.605469 1129.066406 514.578125 C 1136.152344 516.570312 1140.242188 524.078125 1138.335938 531.125 C 1134.457031 545.59375 1130.574219 560.0625 1126.695312 574.53125 C 1121.894531 592.503906 1117.070312 610.457031 1112.246094 628.425781 C 1106.628906 649.375 1101.027344 670.304688 1095.410156 691.234375 C 1095.261719 691.777344 1095.113281 692.324219 1094.96875 692.871094 C 1093.378906 698.75 1087.796875 702.625 1081.945312 702.625 C 1080.765625 702.628906 1079.574219 702.46875 1078.402344 702.136719 Z M 1078.402344 702.136719 "/>
<path fill-rule="nonzero" fill="rgb(0%, 0%, 0%)" fill-opacity="1" d="M 1236.695312 667.910156 C 1231.515625 665.3125 1226.335938 662.710938 1221.21875 660.003906 C 1219.675781 659.195312 1218.140625 658.382812 1216.601562 657.574219 C 1217.015625 656.691406 1217.535156 655.847656 1218.15625 655.054688 C 1222.140625 650.003906 1226.148438 644.925781 1230.152344 639.875 C 1237.910156 630.058594 1245.941406 620.414062 1253.40625 610.390625 C 1254.898438 608.101562 1256.15625 605.671875 1257.476562 603.28125 C 1258.085938 602.191406 1258.671875 601.097656 1259.28125 600.03125 C 1260.683594 597.492188 1262.613281 595.4375 1264.898438 593.78125 C 1265.382812 588.957031 1268.550781 584.449219 1273.164062 582.5625 C 1280.039062 579.710938 1287.738281 583.167969 1290.695312 589.839844 C 1291.175781 590.90625 1291.617188 592 1292.097656 593.066406 C 1293.316406 594.808594 1294.132812 596.800781 1294.320312 598.917969 C 1294.867188 604.851562 1291.824219 610.789062 1286.121094 613.03125 C 1284.632812 613.617188 1283.144531 614.3125 1281.675781 615.023438 C 1279.285156 619.425781 1276.9375 623.914062 1273.832031 627.859375 C 1269.074219 633.898438 1264.292969 639.9375 1259.53125 645.957031 C 1253.242188 653.941406 1246.9375 661.894531 1240.664062 669.875 C 1239.339844 669.226562 1238.015625 668.570312 1236.695312 667.910156 Z M 1236.695312 667.910156 "/>
<path fill-rule="nonzero" fill="rgb(0%, 0%, 0%)" fill-opacity="1" d="M 1272.273438 859.941406 C 1268.773438 853.605469 1271.078125 845.136719 1277.515625 841.695312 C 1310.796875 823.828125 1344.097656 806.023438 1377.316406 788.03125 C 1395.015625 778.449219 1412.714844 768.886719 1430.433594 759.300781 C 1431.3125 758.800781 1432.214844 758.316406 1433.117188 757.835938 C 1439.535156 754.355469 1447.777344 756.640625 1451.363281 763.078125 C 1454.863281 769.429688 1452.535156 777.863281 1446.121094 781.320312 C 1431.839844 789.039062 1417.578125 796.777344 1403.296875 804.492188 C 1367.375 823.933594 1331.390625 843.269531 1295.363281 862.582031 C 1293.746094 863.441406 1292.132812 864.300781 1290.519531 865.183594 C 1288.484375 866.273438 1286.273438 866.796875 1284.089844 866.796875 C 1279.351562 866.796875 1274.726562 864.347656 1272.273438 859.941406 Z M 1272.273438 859.941406 "/>
<path fill-rule="nonzero" fill="rgb(0%, 0%, 0%)" fill-opacity="1" d="M 1486.660156 1010.03125 C 1463.78125 1009.714844 1440.90625 1009.378906 1418.003906 1009.046875 C 1372.730469 1008.375 1327.433594 1007.722656 1282.15625 1007.074219 C 1254.117188 1006.660156 1226.097656 1006.269531 1198.074219 1005.835938 C 1197.609375 1005.835938 1197.148438 1005.832031 1196.703125 1005.816406 C 1189.382812 1005.710938 1183.238281 999.921875 1183.175781 992.5 C 1183.136719 985.285156 1189.195312 978.890625 1196.515625 978.972656 C 1196.976562 978.980469 1197.4375 978.988281 1197.898438 978.996094 C 1197.984375 978.996094 1198.066406 978.996094 1198.148438 978.996094 C 1198.230469 978.996094 1198.3125 979 1198.394531 979 C 1237.695312 979.597656 1276.996094 980.15625 1316.277344 980.714844 C 1357.777344 981.320312 1399.257812 981.929688 1440.757812 982.539062 C 1456.003906 982.75 1471.25 982.980469 1486.472656 983.1875 C 1493.792969 983.292969 1499.9375 989.101562 1500 996.527344 C 1500.039062 1003.660156 1494.078125 1010.03125 1486.839844 1010.03125 C 1486.78125 1010.03125 1486.722656 1010.03125 1486.660156 1010.03125 Z M 1486.660156 1010.03125 "/>
<path fill-rule="nonzero" fill="rgb(0%, 0%, 0%)" fill-opacity="1" d="M 1441.683594 1198.546875 C 1441.621094 1198.527344 1441.558594 1198.503906 1441.515625 1198.484375 C 1441.386719 1198.433594 1441.257812 1198.378906 1441.128906 1198.324219 C 1417.804688 1188.984375 1394.398438 1179.808594 1371.054688 1170.507812 C 1356.230469 1164.617188 1341.421875 1158.703125 1326.640625 1152.746094 C 1318.355469 1149.433594 1310.074219 1146.101562 1301.808594 1142.703125 C 1297.175781 1140.804688 1292.484375 1138.976562 1287.941406 1136.875 C 1285.644531 1136.398438 1283.484375 1135.292969 1281.679688 1133.496094 C 1277.988281 1129.828125 1276.855469 1124.164062 1278.867188 1119.363281 C 1280.839844 1114.644531 1285.578125 1111.476562 1290.71875 1111.457031 C 1293.105469 1111.445312 1295.265625 1112.078125 1297.128906 1113.191406 C 1304.050781 1115.421875 1310.824219 1118.308594 1317.582031 1120.914062 C 1328.441406 1125.109375 1339.285156 1129.34375 1350.125 1133.582031 C 1366.859375 1140.125 1383.574219 1146.707031 1400.289062 1153.3125 C 1417.546875 1160.128906 1434.785156 1166.988281 1452.042969 1173.78125 C 1458.835938 1176.445312 1462.023438 1184.707031 1459.234375 1191.332031 C 1457.050781 1196.578125 1452.050781 1199.476562 1446.789062 1199.476562 C 1445.085938 1199.476562 1443.355469 1199.171875 1441.683594 1198.546875 Z M 1441.683594 1198.546875 "/>
<path fill-rule="nonzero" fill="rgb(0%, 0%, 0%)" fill-opacity="1" d="M 1338.339844 1360.222656 C 1335.96875 1358.355469 1333.621094 1356.488281 1331.253906 1354.601562 C 1328.0625 1352.082031 1324.9375 1349.28125 1321.601562 1346.914062 C 1317.371094 1344.222656 1312.917969 1341.796875 1309.171875 1338.433594 C 1307.28125 1336.757812 1305.6875 1334.660156 1303.992188 1332.773438 C 1300.78125 1329.164062 1297.550781 1325.558594 1294.363281 1321.929688 C 1289.289062 1316.144531 1284.234375 1310.332031 1279.183594 1304.546875 C 1277.964844 1303.160156 1276.792969 1301.863281 1275.785156 1300.308594 C 1271.84375 1294.226562 1273.667969 1285.859375 1279.222656 1281.476562 C 1282.976562 1278.523438 1288.242188 1277.871094 1292.644531 1279.71875 C 1296.359375 1281.273438 1299.027344 1284.363281 1300.226562 1288.085938 C 1301.546875 1289.585938 1302.953125 1291.035156 1304.242188 1292.507812 C 1308.425781 1297.277344 1312.570312 1302.082031 1316.550781 1306.601562 C 1316.65625 1306.71875 1316.757812 1306.832031 1316.863281 1306.949219 C 1316.863281 1306.949219 1317.242188 1307.375 1317.242188 1307.375 C 1319.445312 1309.839844 1321.648438 1312.289062 1323.847656 1314.757812 C 1325.066406 1316.132812 1326.253906 1317.597656 1327.574219 1318.902344 C 1327.792969 1319.066406 1328.011719 1319.226562 1328.230469 1319.382812 C 1331.378906 1321.414062 1334.703125 1323.238281 1337.710938 1325.472656 C 1339.953125 1327.152344 1342.113281 1328.957031 1344.296875 1330.695312 C 1347.753906 1333.441406 1351.214844 1336.191406 1354.675781 1338.9375 C 1360.402344 1343.488281 1361.679688 1351.898438 1357.152344 1357.75 C 1354.5625 1361.128906 1350.464844 1362.96875 1346.367188 1362.96875 C 1343.523438 1362.96875 1340.683594 1362.085938 1338.339844 1360.222656 Z M 1338.339844 1360.222656 "/>
<path fill-rule="nonzero" fill="rgb(0%, 0%, 0%)" fill-opacity="1" d="M 1179.421875 1455.910156 C 1179.195312 1455.339844 1178.96875 1454.765625 1178.742188 1454.195312 C 1178.507812 1453.601562 1178.273438 1453.007812 1178.039062 1452.410156 C 1178.035156 1452.40625 1178.035156 1452.40625 1178.035156 1452.40625 C 1173.828125 1441.761719 1169.648438 1431.109375 1165.433594 1420.449219 C 1155.472656 1395.203125 1145.53125 1369.953125 1135.613281 1344.683594 C 1125.234375 1318.304688 1114.8125 1291.921875 1104.765625 1265.414062 C 1094.53125 1238.382812 1084.027344 1211.417969 1074.484375 1184.113281 C 1073.058594 1180.003906 1071.632812 1175.890625 1070.417969 1171.699219 C 1069.765625 1169.515625 1069.285156 1167.316406 1069.261719 1165.007812 C 1069.222656 1159.914062 1073.644531 1154.753906 1079.015625 1155.109375 C 1082.347656 1155.320312 1085.179688 1156.746094 1087.214844 1159.386719 C 1088.347656 1160.855469 1089.226562 1162.492188 1090.046875 1164.128906 C 1091.765625 1167.503906 1093.316406 1170.945312 1094.867188 1174.402344 C 1097.761719 1180.839844 1100.488281 1187.363281 1103.234375 1193.863281 C 1109.085938 1207.683594 1114.769531 1221.566406 1120.453125 1235.425781 C 1131.230469 1261.703125 1141.84375 1288.042969 1152.347656 1314.421875 C 1162.519531 1339.921875 1172.585938 1365.488281 1182.671875 1391.007812 C 1189.296875 1407.804688 1195.925781 1424.601562 1202.550781 1441.378906 C 1202.664062 1441.660156 1202.773438 1441.941406 1202.886719 1442.222656 C 1202.890625 1442.230469 1202.890625 1442.238281 1202.894531 1442.246094 C 1203.347656 1443.382812 1203.792969 1444.519531 1204.230469 1445.65625 C 1206.914062 1452.453125 1203.808594 1460.355469 1196.972656 1463.1875 C 1195.355469 1463.859375 1193.648438 1464.175781 1191.953125 1464.175781 C 1186.648438 1464.175781 1181.457031 1461.0625 1179.421875 1455.910156 Z M 1179.421875 1455.910156 "/>
<path fill-rule="nonzero" fill="rgb(0%, 0%, 0%)" fill-opacity="1" d="M 997.453125 1499.863281 C 993.972656 1499.464844 990.742188 1497.660156 988.539062 1494.933594 C 986.191406 1492.039062 985.457031 1488.621094 985.644531 1484.972656 C 986.003906 1478.722656 986.296875 1472.496094 986.632812 1466.246094 C 986.925781 1460.417969 987.238281 1454.585938 987.554688 1448.757812 C 987.636719 1446.890625 987.742188 1445.023438 987.847656 1443.160156 C 988.007812 1440 988.648438 1436.914062 989.292969 1433.835938 C 988.980469 1431.945312 988.792969 1430.027344 988.5625 1428.121094 C 988.121094 1424.496094 987.679688 1420.847656 987.238281 1417.195312 C 986.820312 1413.777344 986.402344 1410.359375 985.980469 1406.941406 C 985.101562 1399.707031 989.734375 1392.765625 997.136719 1391.59375 C 1004.164062 1390.480469 1011.609375 1395.492188 1012.488281 1402.75 C 1012.886719 1405.871094 1013.265625 1408.976562 1013.640625 1412.101562 C 1014.375 1418.222656 1014.753906 1424.558594 1015.929688 1430.363281 C 1016.292969 1432.164062 1016.453125 1433.890625 1016.222656 1435.839844 C 1015.933594 1438.285156 1015.300781 1440.714844 1014.792969 1443.132812 C 1014.292969 1446.988281 1014.261719 1450.953125 1014.0625 1454.839844 C 1013.746094 1460.625 1013.453125 1466.414062 1013.160156 1472.183594 C 1012.867188 1477.488281 1012.613281 1482.773438 1012.320312 1488.054688 C 1011.949219 1494.882812 1005.351562 1499.941406 998.851562 1499.941406 C 998.382812 1499.941406 997.917969 1499.917969 997.453125 1499.863281 Z M 997.453125 1499.863281 "/>
<path fill-rule="nonzero" fill="rgb(0%, 0%, 0%)" fill-opacity="1" d="M 822.003906 1460.078125 C 815.273438 1457.140625 812.1875 1449.128906 815.0625 1442.398438 C 830.453125 1406.476562 845.929688 1370.597656 861.363281 1334.695312 C 866.960938 1321.640625 872.5625 1308.5625 878.199219 1295.507812 C 878.214844 1295.46875 878.230469 1295.433594 878.246094 1295.394531 C 878.308594 1295.25 878.371094 1295.082031 878.457031 1294.914062 C 881.351562 1288.222656 889.445312 1285.078125 896.132812 1287.992188 C 902.867188 1290.949219 905.925781 1298.960938 903.054688 1305.671875 C 903.027344 1305.746094 902.996094 1305.8125 902.960938 1305.882812 C 894.855469 1324.644531 886.835938 1343.425781 878.75 1362.207031 C 865.976562 1391.929688 853.160156 1421.65625 840.40625 1451.417969 C 840.363281 1451.53125 840.316406 1451.640625 840.269531 1451.75 C 840.078125 1452.214844 839.871094 1452.695312 839.660156 1453.15625 C 837.519531 1458.160156 832.460938 1461.167969 827.265625 1461.167969 C 825.492188 1461.167969 823.699219 1460.820312 822.003906 1460.078125 Z M 822.003906 1460.078125 "/>
<path fill-rule="nonzero" fill="rgb(0%, 0%, 0%)" fill-opacity="1" d="M 612.535156 1318.34375 C 608.046875 1312.386719 609.472656 1304.101562 615.199219 1299.550781 C 615.367188 1299.40625 615.535156 1299.28125 615.722656 1299.132812 C 615.804688 1299.070312 615.882812 1299.007812 615.964844 1298.945312 C 647.625 1273.835938 679.246094 1248.707031 710.886719 1223.578125 C 723.15625 1213.824219 735.445312 1204.09375 747.710938 1194.34375 C 753.4375 1189.792969 762.179688 1191.28125 766.5 1197.007812 C 770.988281 1202.960938 769.5625 1211.246094 763.839844 1215.796875 C 743.433594 1232.007812 723.007812 1248.214844 702.582031 1264.425781 C 678.976562 1283.179688 655.390625 1301.929688 631.785156 1320.640625 C 631.636719 1320.769531 631.472656 1320.894531 631.324219 1321.003906 C 629.027344 1322.832031 626.242188 1323.6875 623.453125 1323.6875 C 619.292969 1323.6875 615.121094 1321.78125 612.535156 1318.34375 Z M 612.535156 1318.34375 "/>
<path fill-rule="nonzero" fill="rgb(0%, 0%, 0%)" fill-opacity="1" d="M 523.628906 1145.746094 C 521.785156 1138.449219 526.335938 1131.507812 533.339844 1129.429688 C 533.820312 1129.285156 534.304688 1129.136719 534.785156 1128.992188 C 534.945312 1128.945312 535.109375 1128.902344 535.269531 1128.859375 C 573.820312 1117.453125 612.390625 1106.046875 650.941406 1094.664062 C 664.425781 1090.679688 677.910156 1086.695312 691.371094 1082.710938 C 698.398438 1080.632812 705.945312 1085.519531 707.707031 1092.398438 C 709.554688 1099.695312 705.023438 1106.65625 698 1108.734375 C 679.523438 1114.1875 661.027344 1119.660156 642.554688 1125.113281 C 608.96875 1135.035156 575.40625 1144.980469 541.820312 1154.886719 C 541.683594 1154.933594 541.550781 1154.976562 541.410156 1155.015625 C 541.050781 1155.125 540.691406 1155.222656 540.328125 1155.328125 C 540.207031 1155.363281 540.085938 1155.398438 539.964844 1155.433594 C 538.855469 1155.761719 537.730469 1155.917969 536.621094 1155.917969 C 530.699219 1155.917969 525.113281 1151.539062 523.628906 1145.746094 Z M 523.628906 1145.746094 "/>
<path fill-rule="nonzero" fill="rgb(0%, 0%, 0%)" fill-opacity="1" d="M 513.867188 1010.265625 C 513.746094 1010.265625 513.625 1010.265625 513.503906 1010.265625 C 513.484375 1010.265625 513.464844 1010.265625 513.441406 1010.265625 C 506.144531 1010.328125 500.023438 1004.183594 500 996.886719 C 499.980469 989.546875 506.0625 983.507812 513.378906 983.421875 C 513.394531 983.421875 513.40625 983.421875 513.421875 983.421875 C 513.449219 983.421875 513.480469 983.421875 513.507812 983.421875 C 513.652344 983.421875 513.800781 983.421875 513.945312 983.421875 C 539.65625 983.257812 565.34375 983.109375 591.054688 982.921875 C 592.070312 982.921875 593.078125 982.914062 594.085938 982.90625 C 594.199219 982.902344 594.316406 982.898438 594.429688 982.898438 C 594.890625 982.898438 595.351562 982.898438 595.816406 982.898438 C 603.113281 982.859375 609.234375 988.980469 609.257812 996.277344 C 609.277344 1003.597656 603.195312 1009.699219 595.878906 1009.742188 C 577.78125 1009.804688 559.683594 1009.972656 541.605469 1010.097656 C 532.507812 1010.160156 523.425781 1010.203125 514.328125 1010.265625 C 514.289062 1010.265625 514.253906 1010.265625 514.21875 1010.265625 C 514.148438 1010.265625 514.078125 1010.265625 514.007812 1010.265625 C 513.972656 1010.265625 513.933594 1010.265625 513.898438 1010.265625 C 513.886719 1010.265625 513.878906 1010.265625 513.867188 1010.265625 Z M 513.867188 1010.265625 "/>
<path fill-rule="nonzero" fill="rgb(0%, 0%, 0%)" fill-opacity="1" d="M 698.285156 888.765625 C 680.585938 881.65625 662.863281 874.546875 645.164062 867.417969 C 610.910156 853.652344 576.675781 839.84375 542.402344 826.113281 C 542.285156 826.070312 542.167969 826.027344 542.054688 825.980469 C 541.933594 825.929688 541.816406 825.882812 541.699219 825.832031 C 541.226562 825.644531 540.761719 825.457031 540.292969 825.269531 C 533.519531 822.542969 530.203125 814.488281 532.972656 807.757812 C 535.761719 800.941406 543.6875 797.710938 550.484375 800.417969 C 550.640625 800.480469 550.796875 800.542969 550.953125 800.605469 C 591.269531 816.753906 631.546875 833.007812 671.839844 849.214844 C 684.042969 854.125 696.25 859.03125 708.476562 863.9375 C 715.25 866.664062 718.5625 874.714844 715.792969 881.449219 C 713.671875 886.613281 708.582031 889.730469 703.28125 889.730469 C 701.605469 889.730469 699.914062 889.421875 698.285156 888.765625 Z M 698.285156 888.765625 "/>
<path fill-rule="nonzero" fill="rgb(0%, 0%, 0%)" fill-opacity="1" d="M 856.113281 850.789062 C 853.996094 849.132812 852.234375 847.015625 850.367188 845.066406 C 848.648438 843.242188 846.929688 841.417969 845.1875 839.59375 C 842.210938 836.445312 839.230469 833.300781 836.253906 830.15625 C 824.785156 818.035156 813.3125 805.914062 801.839844 793.8125 C 769 759.148438 736.183594 724.484375 703.363281 689.820312 C 689.417969 675.101562 675.496094 660.378906 661.550781 645.679688 C 656.515625 640.371094 656.074219 632.066406 661.316406 626.699219 C 666.289062 621.605469 675.285156 621.164062 680.296875 626.46875 C 711.019531 658.867188 741.699219 691.289062 772.398438 723.710938 C 799.785156 752.648438 827.195312 781.589844 854.601562 810.507812 C 857.644531 813.734375 860.707031 816.964844 863.746094 820.171875 C 865.464844 822 867.207031 823.824219 868.925781 825.648438 C 870.84375 827.667969 872.996094 829.632812 874.679688 831.875 C 876.382812 834.335938 877.503906 836.902344 877.523438 839.96875 C 877.566406 843.492188 876.183594 846.933594 873.726562 849.46875 C 871.167969 852.085938 867.621094 853.460938 864.074219 853.460938 C 861.253906 853.460938 858.433594 852.59375 856.113281 850.789062 Z M 856.113281 850.789062 "/>
<path fill-rule="nonzero" fill="rgb(0%, 0%, 0%)" fill-opacity="1" d="M 710.320312 1143.683594 C 707.363281 1136.71875 710.824219 1129.234375 717.410156 1126.066406 C 750.417969 1110.277344 783.402344 1094.464844 816.390625 1078.652344 C 819.597656 1077.121094 822.785156 1075.589844 825.996094 1074.058594 C 832.601562 1070.894531 840.839844 1074.648438 843.609375 1081.148438 C 846.566406 1088.109375 843.105469 1095.597656 836.519531 1098.761719 C 807.875 1112.5 779.207031 1126.214844 750.542969 1139.949219 C 743.695312 1143.230469 736.828125 1146.511719 729.976562 1149.792969 C 729.871094 1149.847656 729.761719 1149.902344 729.65625 1149.953125 C 729.441406 1150.050781 729.230469 1150.152344 729.019531 1150.25 C 728.660156 1150.425781 728.296875 1150.597656 727.9375 1150.769531 C 726.304688 1151.554688 724.570312 1151.914062 722.84375 1151.914062 C 717.589844 1151.914062 712.40625 1148.578125 710.320312 1143.683594 Z M 710.320312 1143.683594 "/>
<path fill-rule="nonzero" fill="rgb(0%, 0%, 0%)" fill-opacity="1" d="M 876.910156 701.933594 C 870.851562 684.320312 864.789062 666.726562 858.75 649.109375 C 851.242188 627.300781 843.738281 605.46875 836.230469 583.660156 C 831.132812 568.878906 826.039062 554.113281 820.960938 539.328125 C 818.59375 532.410156 823.332031 524.671875 830.105469 522.699219 C 837.382812 520.582031 844.367188 524.921875 846.734375 531.824219 C 846.820312 532.03125 846.882812 532.222656 846.945312 532.429688 C 846.949219 532.4375 846.949219 532.445312 846.953125 532.457031 C 854.242188 553.632812 861.53125 574.792969 868.816406 595.949219 C 876.011719 616.878906 883.222656 637.828125 890.417969 658.757812 C 894.488281 670.597656 898.5625 682.4375 902.65625 694.28125 C 902.664062 694.308594 902.675781 694.335938 902.683594 694.363281 C 902.683594 694.367188 902.683594 694.367188 902.683594 694.367188 C 902.691406 694.386719 902.699219 694.40625 902.707031 694.425781 C 905.074219 701.328125 900.335938 709.085938 893.5625 711.058594 C 892.304688 711.421875 891.054688 711.597656 889.835938 711.597656 C 884.007812 711.597656 878.890625 707.640625 876.910156 701.933594 Z M 876.910156 701.933594 "/>
<path fill-rule="nonzero" fill="rgb(0%, 0%, 0%)" fill-opacity="1" d="M 956.730469 1194.976562 C 906.359375 1183.925781 861.105469 1154.253906 831.410156 1111.996094 C 809.640625 1081.023438 796.472656 1044.054688 794.1875 1006.222656 C 793.074219 987.601562 794.3125 968.851562 798.214844 950.609375 C 802.46875 930.644531 809.601562 911.582031 819.308594 893.652344 C 830.957031 872.15625 846.753906 852.75 865.386719 836.683594 C 865.550781 837.164062 865.714844 837.644531 865.886719 838.121094 C 868.863281 846.542969 872.40625 854.648438 877.304688 862.140625 C 874.203125 865.0625 871.191406 868.085938 868.277344 871.214844 C 863.074219 876.917969 858.210938 882.894531 853.933594 888.828125 C 849.484375 895.183594 845.398438 901.769531 841.707031 908.605469 C 838.035156 915.566406 834.808594 922.757812 831.996094 930.097656 C 829.207031 937.734375 826.859375 945.492188 825.433594 951.65625 C 823.546875 959.898438 822.160156 968.203125 821.34375 976.613281 C 820.628906 984.726562 820.441406 992.863281 820.695312 999.929688 C 820.714844 1000.328125 820.734375 1000.726562 820.757812 1001.148438 C 820.757812 1001.148438 820.757812 1001.1875 820.757812 1001.1875 C 821.175781 1009.054688 822.035156 1016.894531 823.378906 1024.675781 C 824.761719 1032.246094 826.628906 1039.710938 828.871094 1047.09375 C 831.304688 1054.558594 834.113281 1061.878906 837.070312 1068.335938 C 837.175781 1068.589844 837.300781 1068.839844 837.429688 1069.089844 C 837.429688 1069.089844 837.492188 1069.21875 837.492188 1069.21875 C 840.867188 1076.328125 844.664062 1083.203125 848.855469 1089.875 C 853.050781 1096.375 857.644531 1102.582031 862.59375 1108.578125 C 867.605469 1114.449219 872.910156 1120.007812 878.53125 1125.273438 C 884.023438 1130.261719 889.769531 1134.917969 895.746094 1139.28125 C 902.121094 1143.746094 908.707031 1147.835938 915.542969 1151.570312 C 922.378906 1155.132812 929.382812 1158.320312 936.578125 1161.132812 C 944.273438 1163.984375 952.09375 1166.351562 960.085938 1168.238281 C 967.992188 1170 975.980469 1171.261719 984.03125 1172.058594 C 991.875 1172.707031 999.699219 1172.894531 1007.5625 1172.644531 C 1015.71875 1172.246094 1023.835938 1171.363281 1031.910156 1170 C 1039.941406 1168.472656 1047.824219 1166.5 1055.648438 1164.046875 C 1062.757812 1161.675781 1069.71875 1158.949219 1076.535156 1155.804688 C 1083.578125 1152.429688 1090.417969 1148.675781 1097.042969 1144.523438 C 1103.585938 1140.246094 1109.875 1135.632812 1115.6875 1130.828125 C 1121.578125 1125.796875 1127.199219 1120.425781 1132.503906 1114.765625 C 1137.410156 1109.335938 1142.046875 1103.652344 1146.34375 1097.714844 C 1150.875 1091.339844 1154.964844 1084.695312 1158.71875 1077.816406 C 1162.429688 1070.75 1165.679688 1063.535156 1168.53125 1056.109375 C 1171.238281 1048.667969 1173.542969 1041.097656 1175.367188 1033.378906 C 1177.109375 1025.558594 1178.386719 1017.628906 1179.183594 1009.640625 C 1179.835938 1001.902344 1180.066406 994.183594 1179.835938 986.425781 C 1179.4375 978.078125 1178.554688 969.777344 1177.148438 961.535156 C 1175.640625 953.355469 1173.605469 945.304688 1171.089844 937.375 C 1168.636719 930.058594 1165.785156 922.886719 1163.269531 917.476562 C 1159.746094 910.03125 1155.761719 902.835938 1151.378906 895.875 C 1147.246094 889.585938 1142.800781 883.542969 1138.019531 877.757812 C 1132.945312 871.800781 1127.535156 866.117188 1121.808594 860.769531 C 1116.316406 855.820312 1110.609375 851.1875 1104.632812 846.847656 C 1098.34375 842.421875 1091.84375 838.394531 1085.109375 834.726562 C 1077.769531 830.867188 1070.222656 827.449219 1064.117188 825.164062 C 1056.484375 822.3125 1048.726562 819.941406 1040.800781 818.054688 C 1034.53125 816.667969 1028.195312 815.746094 1021.863281 814.742188 C 1020.226562 814.53125 1018.570312 814.363281 1017.375 814.238281 C 1017.144531 814.214844 1016.933594 814.195312 1016.703125 814.175781 C 1016.703125 814.175781 1016.453125 814.152344 1016.453125 814.152344 C 1009.476562 813.589844 1002.488281 813.375 995.507812 813.519531 C 995.492188 812.792969 995.484375 812.074219 995.484375 811.363281 C 995.503906 807.714844 995.523438 804.066406 995.566406 800.398438 C 995.617188 795.820312 995.691406 791.246094 995.800781 786.667969 C 1005.855469 786.445312 1015.9375 786.953125 1025.910156 788.191406 C 1025.933594 788.191406 1025.953125 788.210938 1025.972656 788.210938 C 1026.015625 788.210938 1026.058594 788.210938 1026.097656 788.234375 C 1028.15625 788.484375 1030.1875 788.757812 1032.203125 789.09375 C 1032.222656 789.09375 1032.222656 789.09375 1032.222656 789.09375 C 1032.242188 789.09375 1032.265625 789.09375 1032.285156 789.09375 C 1032.433594 789.113281 1032.578125 789.136719 1032.746094 789.175781 C 1032.914062 789.199219 1033.105469 789.21875 1033.292969 789.261719 C 1033.753906 789.324219 1034.214844 789.429688 1034.675781 789.554688 C 1036.878906 789.910156 1039.101562 790.289062 1041.304688 790.75 C 1049.167969 792.34375 1056.945312 794.378906 1064.582031 796.894531 C 1081.859375 802.578125 1098.425781 810.484375 1113.609375 820.507812 C 1136.277344 835.460938 1155.90625 854.773438 1171.171875 877.234375 C 1182.457031 893.839844 1191.117188 912.023438 1197.21875 931.125 C 1211.269531 975.121094 1209.65625 1023.691406 1193.171875 1066.765625 C 1175.765625 1112.269531 1142.382812 1150.476562 1099.789062 1174.070312 C 1069.425781 1190.886719 1034.71875 1199.613281 1000.011719 1199.613281 C 985.480469 1199.613281 970.945312 1198.082031 956.730469 1194.976562 Z M 956.730469 1194.976562 "/>
<path fill-rule="nonzero" fill="rgb(0%, 0%, 0%)" fill-opacity="1" d="M 1000.382812 1323.644531 C 960.46875 1323.644531 920.824219 1315.996094 883.652344 1301.734375 C 885.023438 1299.273438 886.375 1296.796875 887.710938 1294.308594 C 890.617188 1288.894531 893.269531 1283.320312 895.675781 1277.65625 C 898.070312 1278.566406 900.476562 1279.445312 902.894531 1280.300781 C 915.476562 1284.554688 928.265625 1288.058594 941.289062 1290.785156 C 954.394531 1293.363281 967.628906 1295.144531 980.964844 1296.132812 C 994.554688 1296.972656 1008.144531 1296.972656 1021.734375 1296.152344 C 1034.984375 1295.144531 1048.132812 1293.386719 1061.21875 1290.828125 C 1074.894531 1287.953125 1088.355469 1284.285156 1099.910156 1280.277344 C 1109.242188 1276.984375 1118.425781 1273.296875 1127.425781 1269.183594 C 1125.894531 1272.707031 1125.851562 1276.839844 1127.675781 1280.488281 C 1128.09375 1281.304688 1128.578125 1282.082031 1129.121094 1282.773438 C 1128.492188 1284.179688 1127.988281 1285.605469 1127.65625 1287.09375 C 1126.859375 1290.785156 1127.90625 1294.453125 1130.066406 1297.347656 C 1089.53125 1314.566406 1045.742188 1323.476562 1001.601562 1323.644531 C 1001.203125 1323.644531 1000.804688 1323.644531 1000.382812 1323.644531 Z M 1000.382812 1323.644531 "/>
<path fill-rule="nonzero" fill="rgb(0%, 0%, 0%)" fill-opacity="1" d="M 726.089844 1174.289062 C 709.933594 1149.652344 697.347656 1122.804688 688.464844 1094.765625 C 689.582031 1094.121094 690.679688 1093.457031 691.761719 1092.800781 C 692.078125 1092.609375 692.371094 1092.421875 692.664062 1092.234375 C 697.171875 1090.179688 701.703125 1088.1875 706.273438 1086.296875 C 708.585938 1085.527344 710.890625 1084.753906 713.195312 1083.972656 C 714.171875 1087.175781 715.199219 1090.359375 716.277344 1093.535156 C 720.617188 1105.949219 725.714844 1118.070312 731.542969 1129.894531 C 737.351562 1141.429688 743.851562 1152.566406 750.25 1162.273438 C 750.519531 1162.671875 750.792969 1163.050781 751.046875 1163.449219 C 758.195312 1173.933594 765.914062 1183.980469 774.21875 1193.582031 C 771.386719 1196.539062 768.746094 1199.664062 766.269531 1202.9375 C 763.269531 1202.601562 760.273438 1202.832031 757.335938 1204.40625 C 755.175781 1205.558594 753.5 1207.234375 752.324219 1209.164062 C 742.847656 1198.132812 734.082031 1186.472656 726.089844 1174.289062 Z M 726.089844 1174.289062 "/>
<path fill-rule="nonzero" fill="rgb(0%, 0%, 0%)" fill-opacity="1" d="M 709.734375 894.398438 C 709.019531 894.292969 708.285156 894.207031 707.574219 894.125 C 706.671875 893.707031 705.75 893.347656 704.804688 893.054688 C 703.234375 891.566406 701.367188 890.351562 699.375 889.363281 C 696.871094 888.128906 694.214844 887.257812 691.5 886.585938 C 691.75 885.855469 692.007812 885.125 692.265625 884.394531 C 708.664062 838.089844 736.074219 795.417969 771.15625 761.046875 C 805.148438 727.785156 846.042969 702.140625 890.792969 686.054688 C 891.148438 685.929688 891.484375 685.824219 891.820312 685.699219 C 890.226562 688.046875 889.21875 690.710938 889.09375 693.960938 C 888.96875 697.421875 890.480469 700.988281 892.933594 703.542969 C 892.429688 706.773438 892.238281 710.003906 892.554688 713.402344 C 892.574219 713.609375 892.617188 713.820312 892.636719 714.03125 C 883.789062 717.492188 875.105469 721.285156 866.570312 725.5 C 854.871094 731.414062 843.546875 738.042969 832.640625 745.296875 C 822.261719 752.425781 812.300781 760.082031 802.757812 768.300781 C 792.859375 777.089844 783.507812 786.421875 774.699219 796.339844 C 766.5625 805.734375 758.929688 815.570312 752.179688 825.363281 C 752.011719 825.636719 751.84375 825.886719 751.652344 826.160156 C 751.652344 826.160156 751.421875 826.515625 751.421875 826.515625 C 744.460938 836.9375 738.128906 847.71875 732.589844 858.476562 C 726.6875 870.238281 721.542969 882.289062 717.09375 894.644531 C 714.667969 894.347656 712.207031 894.304688 709.734375 894.398438 Z M 709.734375 894.398438 "/>
<path fill-rule="nonzero" fill="rgb(0%, 0%, 0%)" fill-opacity="1" d="M 1290.953125 1132.320312 C 1290.703125 1132.070312 1290.429688 1131.839844 1290.179688 1131.648438 C 1289.675781 1131.273438 1289.191406 1130.914062 1288.710938 1130.578125 C 1286.59375 1127.726562 1283.71875 1125.464844 1280.46875 1124.414062 C 1278.492188 1123.78125 1276.488281 1123.300781 1274.453125 1123.144531 C 1278.921875 1113.519531 1282.921875 1103.6875 1286.445312 1093.652344 C 1290.535156 1081.613281 1293.910156 1069.347656 1296.59375 1056.890625 C 1299.34375 1043.300781 1301.230469 1029.628906 1302.257812 1015.828125 C 1303.074219 1002.511719 1303.117188 989.238281 1302.339844 976.195312 C 1301.398438 962.417969 1299.59375 948.722656 1296.910156 935.175781 C 1294.246094 922.40625 1290.808594 909.824219 1286.65625 897.472656 C 1282.167969 884.617188 1276.882812 872.078125 1270.84375 859.871094 C 1270.359375 858.886719 1269.859375 857.921875 1269.355469 856.976562 C 1272.058594 857 1274.742188 856.242188 1276.964844 854.546875 C 1281.160156 851.359375 1285.144531 847.898438 1288.941406 844.25 C 1289.800781 843.429688 1290.660156 842.59375 1291.542969 841.710938 C 1301.566406 860.648438 1309.765625 880.570312 1316.015625 901.203125 C 1330.523438 949.015625 1333.480469 1000.394531 1325.21875 1049.65625 C 1320.238281 1079.371094 1311.109375 1108.320312 1298.261719 1135.527344 C 1296.097656 1133.855469 1293.5625 1132.941406 1290.953125 1132.320312 Z M 1290.953125 1132.320312 "/>
<path fill-rule="nonzero" fill="rgb(0%, 0%, 0%)" fill-opacity="1" d="M 1062.890625 700.003906 C 1062.636719 699.960938 1062.386719 699.898438 1062.132812 699.855469 C 1062.132812 699.855469 1061.796875 699.792969 1061.796875 699.792969 C 1056.554688 698.746094 1051.3125 697.800781 1046.027344 697.023438 C 1045.902344 697.003906 1045.757812 696.984375 1045.609375 696.960938 C 1037.765625 695.789062 1029.882812 694.96875 1021.976562 694.363281 C 1011.59375 693.734375 1001.195312 693.585938 990.8125 693.921875 C 990.605469 692.011719 990.414062 690.105469 990.246094 688.175781 C 991.609375 687.839844 992.972656 687.484375 994.316406 687.023438 C 999.601562 685.21875 1003.667969 679.890625 1003.480469 674.230469 C 1003.417969 671.484375 1002.621094 668.988281 1001.277344 666.933594 C 1015.914062 666.910156 1030.574219 667.855469 1045.085938 669.761719 C 1047.285156 670.058594 1049.488281 670.371094 1051.667969 670.726562 C 1051.835938 670.75 1051.984375 670.769531 1052.132812 670.8125 C 1067.414062 673.214844 1082.523438 676.683594 1097.316406 681.191406 C 1096.277344 683.320312 1095.226562 685.425781 1094.15625 687.546875 C 1093.066406 689.496094 1091.976562 691.445312 1090.863281 693.398438 C 1090.046875 694.613281 1089.289062 695.871094 1088.597656 697.171875 C 1088.429688 697.464844 1088.285156 697.757812 1088.117188 698.050781 C 1088.074219 698.136719 1088.011719 698.242188 1087.96875 698.324219 C 1087.214844 699.582031 1086.480469 700.863281 1085.746094 702.140625 C 1085.097656 703.15625 1084.457031 704.171875 1083.832031 705.203125 C 1076.847656 703.21875 1069.84375 701.480469 1062.890625 700.003906 Z M 1062.890625 700.003906 "/>
<path fill-rule="nonzero" fill="rgb(0%, 0%, 0%)" fill-opacity="1" d="M 990.058594 1422.371094 C 990.066406 1422.234375 990.070312 1422.101562 990.074219 1421.964844 C 990.066406 1422.101562 990.0625 1422.238281 990.054688 1422.371094 C 990.054688 1422.371094 990.050781 1422.371094 990.050781 1422.371094 C 990.058594 1422.191406 990.066406 1422.015625 990.074219 1421.839844 C 990.074219 1421.878906 990.074219 1421.921875 990.074219 1421.964844 C 990.074219 1421.929688 990.074219 1421.878906 990.074219 1421.839844 C 990.074219 1421.824219 990.074219 1421.808594 990.078125 1421.792969 C 990.078125 1421.742188 990.082031 1421.691406 990.085938 1421.644531 C 990.089844 1421.601562 990.09375 1421.558594 990.09375 1421.515625 C 990.285156 1418.328125 990.613281 1415.195312 991.082031 1412.023438 C 991.730469 1409.003906 992.421875 1406.027344 993.199219 1403.027344 C 993.84375 1400.554688 994.582031 1398.109375 995.210938 1395.628906 C 1006.800781 1395.867188 1018.390625 1395.640625 1029.980469 1394.953125 C 1029.980469 1394.953125 1029.710938 1394.976562 1029.710938 1394.976562 C 1048.078125 1393.695312 1066.324219 1391.285156 1084.378906 1387.65625 C 1101.21875 1384.132812 1117.785156 1379.582031 1134.078125 1374.066406 C 1151.003906 1368.152344 1167.484375 1361.253906 1183.550781 1353.285156 C 1198.941406 1345.464844 1213.832031 1336.71875 1228.195312 1327.136719 C 1241.953125 1317.71875 1255.121094 1307.550781 1267.722656 1296.644531 C 1272.527344 1292.429688 1277.203125 1288.089844 1281.773438 1283.664062 C 1281.984375 1284.019531 1282.234375 1284.375 1282.464844 1284.710938 C 1282.445312 1286.894531 1282.445312 1289.074219 1282.53125 1291.253906 C 1282.613281 1293.476562 1282.90625 1295.597656 1283.410156 1297.777344 C 1284.039062 1300.417969 1285.738281 1302.472656 1287.542969 1304.402344 C 1289.492188 1306.5 1292.21875 1307.78125 1295.050781 1308.179688 C 1265.332031 1335.878906 1231.53125 1359.261719 1195.25 1377.402344 C 1151.527344 1399.253906 1104.300781 1413.449219 1055.796875 1419.46875 C 1038.746094 1421.585938 1021.574219 1422.613281 1004.398438 1422.613281 C 999.617188 1422.613281 994.835938 1422.53125 990.058594 1422.371094 Z M 990.058594 1422.371094 "/>
<path fill-rule="nonzero" fill="rgb(0%, 0%, 0%)" fill-opacity="1" d="M 990.09375 1421.527344 C 990.09375 1421.539062 990.09375 1421.550781 990.089844 1421.566406 C 990.089844 1421.550781 990.09375 1421.539062 990.09375 1421.527344 Z M 990.09375 1421.527344 "/>
<path fill-rule="nonzero" fill="rgb(0%, 0%, 0%)" fill-opacity="1" d="M 847.511719 1392.925781 C 849.277344 1388.546875 851.046875 1384.164062 852.933594 1379.824219 C 853.9375 1377.453125 854.945312 1375.0625 855.972656 1372.671875 C 856.847656 1371.246094 857.703125 1369.796875 858.53125 1368.332031 C 861.101562 1369.34375 863.660156 1370.324219 866.207031 1371.265625 C 866.207031 1371.289062 866.207031 1371.308594 866.207031 1371.332031 C 865.621094 1372.945312 865.09375 1374.558594 864.59375 1376.195312 C 863.5625 1379.53125 862.640625 1382.90625 861.71875 1386.28125 C 860.796875 1389.761719 859.851562 1393.246094 858.929688 1396.726562 C 858.886719 1396.871094 858.847656 1397.019531 858.804688 1397.1875 C 855.019531 1395.820312 851.257812 1394.398438 847.511719 1392.925781 Z M 847.511719 1392.925781 "/>
<path fill-rule="nonzero" fill="rgb(0%, 0%, 0%)" fill-opacity="1" d="M 672.820312 1265.15625 C 677.03125 1262.667969 681.304688 1260.289062 685.488281 1257.785156 C 688.316406 1256.085938 691.085938 1254.28125 693.875 1252.480469 C 694.601562 1252 695.328125 1251.507812 696.039062 1250.992188 C 696.304688 1251.3125 696.566406 1251.636719 696.832031 1251.953125 C 696.140625 1252.582031 695.46875 1253.210938 694.796875 1253.800781 C 693.015625 1255.351562 691.171875 1256.839844 689.324219 1258.328125 C 686.535156 1260.363281 683.746094 1262.335938 680.8125 1264.160156 C 680.707031 1264.222656 680.578125 1264.285156 680.476562 1264.328125 C 679.195312 1264.789062 677.980469 1265.355469 676.722656 1266.066406 C 676.007812 1266.464844 675.359375 1266.96875 674.769531 1267.535156 C 674.117188 1266.746094 673.46875 1265.953125 672.820312 1265.15625 Z M 672.820312 1265.15625 "/>
<path fill-rule="nonzero" fill="rgb(0%, 0%, 0%)" fill-opacity="1" d="M 577.359375 1011.503906 C 576.984375 1001.757812 576.957031 991.996094 577.261719 982.25 C 577.414062 982.265625 577.5625 982.28125 577.714844 982.292969 C 578.03125 982.691406 578.386719 983.089844 578.765625 983.46875 C 578.804688 983.507812 578.847656 983.570312 578.910156 983.613281 C 579.394531 984.097656 579.917969 984.515625 580.460938 984.914062 C 580.253906 985.230469 580.0625 985.5625 579.898438 985.898438 C 576.667969 992.316406 578.46875 1000.640625 585.140625 1004.144531 C 587.445312 1005.359375 589.710938 1005.90625 592.144531 1005.90625 C 592.980469 1005.90625 593.820312 1005.84375 594.703125 1005.71875 C 596.796875 1005.421875 598.875 1004.730469 600.886719 1004.1875 C 601.933594 1003.90625 602.96875 1003.617188 603.980469 1003.300781 C 604.097656 1009.71875 604.359375 1016.140625 604.765625 1022.554688 C 606.046875 1040.382812 608.457031 1058.082031 611.9375 1075.613281 C 614.726562 1088.90625 618.125 1102.054688 621.984375 1114.617188 C 621.417969 1114.429688 620.808594 1114.300781 620.179688 1114.199219 C 615.167969 1113.421875 610.410156 1115.6875 605.941406 1117.65625 C 602.839844 1119.019531 599.734375 1120.425781 596.632812 1121.851562 C 596.503906 1121.914062 596.378906 1121.976562 596.253906 1122.039062 C 585.203125 1086.222656 578.804688 1049.0625 577.359375 1011.503906 Z M 577.359375 1011.503906 "/>
<path fill-rule="nonzero" fill="rgb(0%, 0%, 0%)" fill-opacity="1" d="M 624.195312 846.929688 C 622.308594 843.722656 619.539062 841.332031 615.765625 840.410156 C 612.347656 839.570312 608.824219 840.15625 605.78125 841.855469 C 605.761719 841.855469 605.71875 841.875 605.699219 841.898438 C 607.460938 837.351562 609.304688 832.835938 611.21875 828.359375 C 612.269531 829.4375 613.507812 830.363281 614.90625 831.078125 C 620.484375 833.804688 625.871094 836.824219 631.617188 839.191406 C 632.796875 839.6875 633.992188 840.15625 635.199219 840.59375 C 633.40625 844.84375 631.691406 849.09375 630.066406 853.328125 C 628.890625 850.621094 626.773438 848.355469 624.195312 846.929688 Z M 624.195312 846.929688 "/>
<path fill-rule="nonzero" fill="rgb(0%, 0%, 0%)" fill-opacity="1" d="M 713.136719 687.953125 C 711.480469 687.59375 709.949219 687.40625 708.417969 687.449219 C 711.703125 684.300781 715.042969 681.207031 718.429688 678.167969 C 717.871094 678.871094 717.359375 679.601562 716.933594 680.382812 C 715.90625 682.289062 715.546875 684.238281 715.234375 686.335938 C 715.117188 687.082031 715.082031 687.835938 715.121094 688.585938 C 714.476562 688.316406 713.816406 688.101562 713.136719 687.953125 Z M 713.136719 687.953125 "/>
<path fill-rule="nonzero" fill="rgb(0%, 0%, 0%)" fill-opacity="1" d="M 1225.179688 662.078125 C 1211.613281 653.175781 1197.566406 645.042969 1183.089844 637.714844 C 1167.632812 630.0625 1151.738281 623.328125 1136.113281 617.855469 C 1133.386719 616.890625 1130.640625 615.988281 1127.894531 615.089844 C 1127.832031 615.066406 1127.746094 615.046875 1127.683594 615.023438 C 1127.664062 615.023438 1127.664062 615.023438 1127.640625 615.003906 C 1127.621094 614.984375 1127.601562 614.984375 1127.578125 614.984375 C 1127.558594 614.960938 1127.539062 614.960938 1127.515625 614.960938 C 1127.453125 614.941406 1127.371094 614.898438 1127.285156 614.878906 C 1126.027344 614.4375 1124.851562 613.851562 1123.804688 613.136719 C 1120.574219 612.195312 1117.347656 611.3125 1114.09375 610.453125 C 1109.441406 609.214844 1104.785156 608.019531 1100.085938 606.886719 C 1100.757812 605.609375 1101.386719 604.289062 1101.996094 602.96875 C 1102.289062 602.316406 1102.5625 601.644531 1102.855469 600.976562 C 1102.960938 600.953125 1103.085938 600.933594 1103.210938 600.910156 C 1108.476562 599.90625 1112.542969 594.914062 1113.277344 589.777344 C 1113.613281 587.363281 1113.277344 585.015625 1112.417969 582.898438 C 1117.03125 584.15625 1121.625 585.539062 1126.175781 587.007812 C 1127.746094 587.511719 1129.300781 588.015625 1130.851562 588.539062 C 1132.128906 588.519531 1133.429688 588.6875 1134.710938 589.105469 C 1134.730469 589.105469 1134.75 589.105469 1134.773438 589.125 C 1134.773438 589.125 1134.773438 589.125 1134.792969 589.125 C 1134.8125 589.125 1134.835938 589.148438 1134.855469 589.148438 C 1135.003906 589.1875 1135.148438 589.253906 1135.316406 589.292969 C 1165.828125 599.296875 1195.167969 612.464844 1222.804688 628.90625 C 1232.472656 634.652344 1241.890625 640.796875 1251.054688 647.320312 C 1250.195312 648.429688 1249.375 649.542969 1248.515625 650.613281 C 1246.710938 652.835938 1244.886719 655.078125 1243.0625 657.28125 C 1240.316406 660.113281 1237.820312 663.257812 1235.347656 666.171875 C 1235.128906 666.421875 1234.917969 666.671875 1234.707031 666.917969 C 1231.523438 665.316406 1228.34375 663.714844 1225.179688 662.078125 Z M 1225.179688 662.078125 "/>
<path fill-rule="nonzero" fill="rgb(0%, 0%, 0%)" fill-opacity="1" d="M 1004.957031 595.453125 C 1005.050781 595.226562 1005.140625 595.003906 1005.230469 594.777344 C 1005.808594 595.039062 1006.414062 595.265625 1007.050781 595.457031 C 1006.351562 595.453125 1005.65625 595.453125 1004.957031 595.453125 Z M 1004.957031 595.453125 "/>
<path fill-rule="nonzero" fill="rgb(0%, 0%, 0%)" fill-opacity="1" d="M 1004.476562 568.734375 C 1005.738281 568.734375 1007.007812 568.738281 1008.269531 568.75 C 1008.085938 568.878906 1007.90625 569.011719 1007.726562 569.15625 C 1006.871094 569.347656 1006.042969 569.628906 1005.242188 569.988281 C 1005.003906 569.5625 1004.75 569.140625 1004.476562 568.734375 Z M 1004.476562 568.734375 "/>
<path fill-rule="nonzero" fill="rgb(0%, 0%, 0%)" fill-opacity="1" d="M 850.226562 623.332031 C 853.160156 615.738281 853.414062 607.226562 846.261719 601.835938 C 845.339844 601.125 844.332031 600.535156 843.261719 600.054688 C 849.304688 597.585938 855.40625 595.261719 861.550781 593.078125 C 860.921875 593.398438 860.296875 593.730469 859.683594 594.078125 C 852.804688 598.019531 851.988281 607.457031 856.117188 613.390625 C 855.992188 613.578125 855.84375 613.746094 855.71875 613.9375 C 853.917969 616.578125 853.015625 620.164062 853.183594 623.371094 C 853.210938 623.914062 853.273438 624.453125 853.371094 624.984375 C 852.515625 625.332031 851.664062 625.683594 850.8125 626.035156 C 850.625 625.132812 850.433594 624.234375 850.226562 623.332031 Z M 850.226562 623.332031 "/>
<path fill-rule="nonzero" fill="rgb(0%, 0%, 0%)" fill-opacity="1" d="M 1391.375 1171.851562 C 1386.320312 1166.441406 1379.253906 1161.851562 1371.558594 1162.269531 C 1371.539062 1162.207031 1371.496094 1162.144531 1371.453125 1162.082031 C 1370.765625 1161.0625 1369.960938 1160.195312 1369.066406 1159.464844 C 1370.179688 1156.976562 1371.269531 1154.484375 1372.335938 1151.996094 C 1373.363281 1152.328125 1374.390625 1152.625 1375.457031 1152.875 C 1375.5 1152.917969 1375.542969 1152.980469 1375.585938 1153.042969 C 1380.679688 1160.296875 1389.425781 1160.824219 1397.601562 1161.304688 C 1397.519531 1161.515625 1397.4375 1161.722656 1397.351562 1161.933594 C 1395.78125 1165.683594 1394.15625 1169.40625 1392.472656 1173.101562 C 1392.117188 1172.671875 1391.75 1172.253906 1391.375 1171.851562 Z M 1391.375 1171.851562 "/>
<path fill-rule="nonzero" fill="rgb(0%, 0%, 0%)" fill-opacity="1" d="M 1404.074219 989.179688 C 1404.894531 989.179688 1405.691406 989.15625 1406.488281 989.15625 C 1407.953125 990.164062 1409.632812 990.898438 1411.371094 991.253906 C 1412.839844 991.570312 1414.328125 991.714844 1415.859375 991.695312 C 1420.683594 991.695312 1425.738281 990.394531 1430.289062 989.449219 C 1430.519531 989.410156 1430.769531 989.347656 1431 989.28125 C 1431.035156 991.613281 1431.046875 993.949219 1431.042969 996.277344 C 1430.964844 996.246094 1430.890625 996.214844 1430.8125 996.183594 C 1426.472656 994.421875 1421.878906 995.132812 1417.371094 995.679688 C 1414.160156 996.097656 1410.953125 996.582031 1407.765625 997.167969 C 1406.554688 997.398438 1405.328125 997.625 1404.121094 997.933594 C 1404.136719 995.015625 1404.121094 992.097656 1404.074219 989.179688 Z M 1404.074219 989.179688 "/>
<path fill-rule="nonzero" fill="rgb(0%, 0%, 0%)" fill-opacity="1" d="M 1420.238281 904.980469 C 1420.554688 904.71875 1420.863281 904.457031 1421.160156 904.183594 C 1421.222656 904.464844 1421.285156 904.746094 1421.347656 905.023438 C 1420.980469 905.007812 1420.613281 904.996094 1420.238281 904.980469 Z M 1420.238281 904.980469 "/>
<path fill-rule="nonzero" fill="rgb(0%, 0%, 0%)" fill-opacity="1" d="M 1361.519531 815.710938 C 1361.480469 815.644531 1361.457031 815.582031 1361.414062 815.519531 C 1361.414062 815.519531 1361.289062 815.269531 1361.289062 815.269531 C 1360.449219 813.652344 1359.613281 812.039062 1358.773438 810.445312 C 1359.253906 810.152344 1359.71875 809.878906 1360.199219 809.628906 C 1361.582031 808.871094 1362.96875 808.097656 1364.351562 807.320312 C 1365.167969 807.175781 1365.964844 806.945312 1366.742188 806.609375 C 1369.613281 805.414062 1372.214844 803.714844 1374.628906 801.742188 C 1376.890625 799.875 1379.28125 797.84375 1381.210938 795.492188 C 1382.753906 798.40625 1384.261719 801.332031 1385.734375 804.277344 C 1385.285156 804.347656 1384.839844 804.445312 1384.398438 804.574219 C 1381.105469 805.558594 1377.898438 807.089844 1374.773438 808.703125 C 1372.507812 809.648438 1370.328125 810.949219 1368.253906 812.1875 C 1366.015625 813.363281 1363.769531 814.5625 1361.578125 815.828125 C 1361.558594 815.789062 1361.539062 815.75 1361.519531 815.710938 Z M 1361.519531 815.710938 "/>
<path fill-rule="nonzero" fill="rgb(0%, 0%, 0%)" fill-opacity="1" d="M 688.660156 1097.367188 C 688.660156 1090.046875 694.765625 1083.945312 702.082031 1083.945312 C 709.402344 1083.945312 715.503906 1090.046875 715.503906 1097.367188 C 715.503906 1104.683594 709.402344 1110.789062 702.082031 1110.789062 C 694.765625 1110.789062 688.660156 1104.683594 688.660156 1097.367188 Z M 688.660156 1097.367188 "/>
<path fill-rule="nonzero" fill="rgb(0%, 0%, 0%)" fill-opacity="1" d="M 687.890625 1105.898438 C 677.757812 1091.40625 697.039062 1071.890625 709.949219 1086.792969 C 720.425781 1101.289062 700.386719 1120.714844 687.890625 1105.898438 Z M 687.890625 1105.898438 "/>
<path fill-rule="nonzero" fill="rgb(0%, 0%, 0%)" fill-opacity="1" d="M 689.726562 1098.523438 C 689.726562 1091.207031 695.828125 1085.101562 703.148438 1085.101562 C 710.46875 1085.101562 716.570312 1091.207031 716.570312 1098.523438 C 716.570312 1105.84375 710.46875 1111.945312 703.148438 1111.945312 C 695.828125 1111.945312 689.726562 1105.84375 689.726562 1098.523438 Z M 689.726562 1098.523438 "/>
<path fill-rule="nonzero" fill="rgb(0%, 0%, 0%)" fill-opacity="1" d="M 689.828125 1094.753906 C 689.828125 1087.4375 695.929688 1081.332031 703.246094 1081.332031 C 710.566406 1081.332031 716.667969 1087.4375 716.667969 1094.753906 C 716.667969 1102.074219 710.566406 1108.175781 703.246094 1108.175781 C 695.929688 1108.175781 689.828125 1102.074219 689.828125 1094.753906 Z M 689.828125 1094.753906 "/>
<path fill-rule="nonzero" fill="rgb(0%, 0%, 0%)" fill-opacity="1" d="M 750.226562 1201.78125 C 750.226562 1194.460938 756.332031 1188.359375 763.648438 1188.359375 C 770.96875 1188.359375 777.070312 1194.460938 777.070312 1201.78125 C 777.070312 1209.097656 770.96875 1215.203125 763.648438 1215.203125 C 756.332031 1215.203125 750.226562 1209.097656 750.226562 1201.78125 Z M 750.226562 1201.78125 "/>
<path fill-rule="nonzero" fill="rgb(0%, 0%, 0%)" fill-opacity="1" d="M 856.753906 847.277344 C 856.753906 839.957031 862.859375 833.855469 870.175781 833.855469 C 877.496094 833.855469 883.597656 839.957031 883.597656 847.277344 C 883.597656 854.59375 877.496094 860.699219 870.175781 860.699219 C 862.859375 860.699219 856.753906 854.59375 856.753906 847.277344 Z M 856.753906 847.277344 "/>
<path fill-rule="nonzero" fill="rgb(0%, 0%, 0%)" fill-opacity="1" d="M 859.058594 853.160156 C 859.058594 845.84375 865.164062 839.742188 872.480469 839.742188 C 879.800781 839.742188 885.902344 845.84375 885.902344 853.160156 C 885.902344 860.480469 879.800781 866.582031 872.480469 866.582031 C 865.164062 866.582031 859.058594 860.480469 859.058594 853.160156 Z M 859.058594 853.160156 "/>
<path fill-rule="nonzero" fill="rgb(0%, 0%, 0%)" fill-opacity="1" d="M 888.804688 1307.875 C 872.324219 1303.253906 879.386719 1276.980469 896.125 1281.433594 C 912.851562 1286.226562 905.308594 1312.285156 888.804688 1307.875 Z M 888.804688 1307.875 "/>
<path fill-rule="nonzero" fill="rgb(0%, 0%, 0%)" fill-opacity="1" d="M 890.445312 1302.871094 C 870.585938 1296.316406 884.636719 1267.886719 902.035156 1279.167969 C 914.945312 1287.832031 904.808594 1306.804688 890.445312 1302.871094 Z M 890.445312 1302.871094 "/>
</svg>
