<?xml version="1.0" encoding="UTF-8"?>
<!-- Created by grConvert v0.1-0 -->
<svg xmlns="http://www.w3.org/2000/svg" xmlns:xlink="http://www.w3.org/1999/xlink" width="2000" height="2000" viewBox="0 0 2000 2000">
<path fill-rule="nonzero" fill="rgb(0%, 79.215688%, 93.725491%)" fill-opacity="1" d="M 1216.183594 1050.570312 C 1236.203125 1073.703125 1246.613281 1104.414062 1241.734375 1134.890625 C 1236.117188 1156.8125 1219.011719 1174.050781 1201.171875 1187.007812 C 1161.234375 1212.582031 1113.609375 1221.308594 1070.996094 1241.003906 C 1059.808594 1246.320312 1049.679688 1253.382812 1040.519531 1261.738281 C 1038.296875 1263.53125 1036.09375 1265.347656 1033.890625 1267.183594 C 1032.851562 1268.046875 1031.835938 1268.910156 1030.824219 1269.796875 C 1029.136719 1271.242188 1027.453125 1272.734375 1025.789062 1274.265625 C 1025.097656 1274.871094 1024.429688 1275.5 1023.738281 1276.144531 C 1019.136719 1280.421875 1014.730469 1284.894531 1010.605469 1289.625 C 1009.914062 1290.421875 1009.222656 1291.242188 1008.53125 1292.0625 C 1007.863281 1292.84375 1007.214844 1293.664062 1006.566406 1294.460938 C 1005.875 1295.324219 1005.183594 1296.210938 1004.515625 1297.097656 C 1003.867188 1297.960938 1003.21875 1298.824219 1002.613281 1299.6875 C 1001.621094 1301.050781 1000.671875 1302.433594 999.742188 1303.835938 C 999.527344 1303.792969 999.308594 1303.792969 999.074219 1303.792969 C 998.402344 1302.800781 997.734375 1301.828125 997.019531 1300.875 C 996.351562 1299.925781 995.636719 1298.976562 994.902344 1298.046875 C 992.3125 1294.632812 989.546875 1291.375 986.632812 1288.21875 C 985.960938 1287.484375 985.269531 1286.75 984.578125 1286.015625 C 983.976562 1285.390625 983.390625 1284.765625 982.765625 1284.160156 C 982.140625 1283.488281 981.46875 1282.820312 980.800781 1282.171875 C 978.058594 1279.449219 975.207031 1276.792969 972.3125 1274.222656 C 971.339844 1273.359375 970.367188 1272.496094 969.375 1271.652344 C 966.136719 1268.824219 962.808594 1266.082031 959.460938 1263.402344 C 950.324219 1255.066406 940.171875 1247.980469 928.984375 1242.691406 C 886.394531 1222.96875 838.769531 1214.246094 798.832031 1188.671875 C 780.96875 1175.734375 763.863281 1158.5 758.25 1136.574219 C 753.386719 1106.078125 763.777344 1075.367188 783.820312 1052.253906 C 800.601562 1033.660156 824.792969 1025.386719 847.558594 1016.617188 C 879.265625 1001.777344 914.707031 995.34375 944.492188 976.574219 C 984.386719 950.613281 1009.742188 892.664062 968.164062 856.203125 C 945.140625 833.675781 908.464844 832.554688 887.40625 807.585938 C 878.984375 798.6875 872.398438 787.414062 877.753906 775.082031 C 886.78125 751.320312 917.257812 750.738281 936.867188 739.894531 C 948.703125 733.957031 959.957031 726.398438 970.28125 718.125 C 973.003906 716.222656 976.308594 713.460938 979.851562 710.089844 C 980.734375 709.246094 981.640625 708.363281 982.550781 707.433594 C 982.65625 707.324219 982.765625 707.21875 982.875 707.109375 C 983.910156 706.074219 984.96875 704.972656 986.003906 703.828125 C 987.882812 701.816406 989.761719 699.703125 991.597656 697.476562 C 992.203125 696.785156 992.789062 696.074219 993.347656 695.359375 C 993.933594 694.648438 994.515625 693.914062 995.078125 693.179688 C 995.507812 692.617188 995.941406 692.054688 996.351562 691.515625 C 997.238281 691.625 998.121094 691.667969 999.007812 691.667969 C 1000.929688 691.667969 1002.808594 691.472656 1004.601562 691.105469 C 1008.921875 696.71875 1013.566406 701.902344 1017.929688 706.246094 C 1018.488281 706.808594 1019.03125 707.347656 1019.570312 707.84375 C 1023.347656 711.492188 1026.847656 714.453125 1029.722656 716.460938 C 1040.046875 724.710938 1051.277344 732.292969 1063.132812 738.210938 C 1082.722656 749.054688 1113.222656 749.636719 1122.226562 773.394531 C 1127.605469 785.726562 1120.996094 797.023438 1112.574219 805.902344 C 1091.515625 830.890625 1054.839844 832.015625 1031.816406 854.542969 C 990.238281 890.976562 1015.59375 948.925781 1055.488281 974.910156 C 1085.273438 993.65625 1120.738281 1000.09375 1152.445312 1014.933594 C 1175.1875 1023.722656 1199.398438 1031.972656 1216.183594 1050.570312 Z M 1216.183594 1050.570312 "/>
</svg>
