<?xml version="1.0" encoding="UTF-8"?>
<!-- Created by grConvert v0.1-0 -->
<svg xmlns="http://www.w3.org/2000/svg" xmlns:xlink="http://www.w3.org/1999/xlink" width="2000" height="2000" viewBox="0 0 2000 2000">
<path fill-rule="nonzero" fill="rgb(0%, 0%, 0%)" fill-opacity="1" d="M 671.894531 1490.628906 C 672.171875 1490.660156 672.449219 1490.691406 672.726562 1490.722656 C 673.335938 1490.796875 673.945312 1490.871094 674.554688 1490.945312 C 673.675781 1490.835938 672.792969 1490.738281 671.894531 1490.628906 Z M 671.894531 1490.628906 "/>
<path fill-rule="nonzero" fill="rgb(0%, 0%, 0%)" fill-opacity="1" d="M 733 1046.988281 C 733.191406 1046.925781 733.394531 1046.847656 733.585938 1046.785156 C 733.535156 1047.035156 733.488281 1047.273438 733.425781 1047.523438 C 732.6875 1048.152344 731.929688 1048.769531 731.191406 1049.398438 C 731.789062 1048.59375 732.402344 1047.792969 733 1046.988281 Z M 733 1046.988281 "/>
<path fill-rule="nonzero" fill="rgb(0%, 0%, 0%)" fill-opacity="1" d="M 762.109375 507.71875 C 761.683594 508.128906 761.242188 508.523438 760.800781 508.929688 C 761.242188 508.523438 761.683594 508.113281 762.109375 507.71875 Z M 762.109375 507.71875 "/>
<path fill-rule="nonzero" fill="rgb(0%, 0%, 0%)" fill-opacity="1" d="M 1050.078125 1308.726562 C 1050.464844 1308.589844 1050.847656 1308.449219 1051.230469 1308.300781 C 1051.128906 1308.683594 1051.03125 1309.066406 1050.933594 1309.453125 C 1050.65625 1309.203125 1050.371094 1308.960938 1050.078125 1308.726562 Z M 1050.078125 1308.726562 "/>
<path fill-rule="nonzero" fill="rgb(0%, 0%, 0%)" fill-opacity="1" d="M 1202.152344 1045.367188 C 1202.167969 1045.351562 1202.183594 1045.335938 1202.183594 1045.320312 C 1202.214844 1045.289062 1202.246094 1045.257812 1202.277344 1045.226562 C 1202.261719 1045.242188 1202.261719 1045.242188 1202.246094 1045.257812 C 1202.261719 1045.242188 1202.261719 1045.242188 1202.277344 1045.226562 C 1202.726562 1044.75 1203.179688 1044.28125 1203.636719 1043.8125 C 1203.792969 1043.914062 1203.953125 1044.011719 1204.117188 1044.109375 C 1203.113281 1044.929688 1202.109375 1045.753906 1201.105469 1046.582031 C 1201.453125 1046.175781 1201.804688 1045.773438 1202.152344 1045.367188 Z M 1202.152344 1045.367188 "/>
<path fill-rule="nonzero" fill="rgb(0%, 0%, 0%)" fill-opacity="1" d="M 1374.609375 837.128906 C 1375.402344 836.746094 1376.199219 836.375 1377 836.007812 C 1375.859375 837.242188 1374.742188 838.5 1373.628906 839.761719 C 1373.953125 838.882812 1374.277344 838.003906 1374.609375 837.128906 Z M 1374.609375 837.128906 "/>
<path fill-rule="nonzero" fill="rgb(0%, 0%, 0%)" fill-opacity="1" d="M 696.382812 1158.371094 C 695.910156 1158.953125 695.453125 1159.503906 694.964844 1160.070312 C 694.964844 1160.085938 694.949219 1160.101562 694.933594 1160.101562 C 695.421875 1159.535156 695.894531 1158.96875 696.382812 1158.371094 Z M 696.382812 1158.371094 "/>
<path fill-rule="nonzero" fill="rgb(0%, 0%, 0%)" fill-opacity="1" d="M 896.261719 965.210938 C 896.214844 965.480469 896.152344 965.730469 896.089844 966 C 896.152344 965.730469 896.214844 965.464844 896.261719 965.210938 Z M 896.261719 965.210938 "/>
<path fill-rule="nonzero" fill="rgb(0%, 0%, 0%)" fill-opacity="1" d="M 1331.507812 838.675781 C 1331.570312 838.515625 1331.632812 838.34375 1331.710938 838.1875 C 1331.632812 838.34375 1331.570312 838.515625 1331.507812 838.691406 C 1331.507812 838.675781 1331.507812 838.675781 1331.507812 838.675781 Z M 1331.507812 838.675781 "/>
<path fill-rule="nonzero" fill="rgb(0%, 0%, 0%)" fill-opacity="1" d="M 1023.027344 767.46875 C 1023.035156 767.464844 1023.039062 767.457031 1023.050781 767.457031 C 1022.707031 767.898438 1022.359375 768.320312 1021.996094 768.761719 C 1022.351562 768.332031 1022.691406 767.902344 1023.027344 767.46875 Z M 1023.027344 767.46875 "/>
<path fill-rule="nonzero" fill="rgb(0%, 0%, 0%)" fill-opacity="1" d="M 1203.035156 1044.363281 C 1202.878906 1044.539062 1202.722656 1044.714844 1202.570312 1044.886719 C 1202.722656 1044.714844 1202.878906 1044.539062 1203.035156 1044.363281 Z M 1203.035156 1044.363281 "/>
<path fill-rule="nonzero" fill="rgb(0%, 0%, 0%)" fill-opacity="1" d="M 1331.460938 838.785156 C 1331.472656 838.765625 1331.480469 838.742188 1331.492188 838.722656 C 1331.492188 838.714844 1331.496094 838.707031 1331.496094 838.699219 C 1331.5 838.699219 1331.503906 838.695312 1331.507812 838.691406 C 1331.445312 838.910156 1331.382812 839.132812 1331.335938 839.351562 C 1331.375 839.167969 1331.417969 838.972656 1331.460938 838.785156 Z M 1331.460938 838.785156 "/>
<path fill-rule="nonzero" fill="rgb(0%, 0%, 0%)" fill-opacity="1" d="M 1088.835938 973.300781 C 1088.839844 973.296875 1088.84375 973.292969 1088.851562 973.289062 C 1088.851562 973.289062 1088.851562 973.289062 1088.855469 973.289062 C 1089.011719 973.191406 1089.167969 973.09375 1089.324219 972.996094 C 1089.34375 972.984375 1089.363281 972.976562 1089.382812 972.964844 C 1089.1875 973.085938 1088.992188 973.203125 1088.796875 973.324219 C 1088.808594 973.316406 1088.820312 973.308594 1088.835938 973.300781 Z M 1088.835938 973.300781 "/>
<path fill-rule="nonzero" fill="rgb(0%, 0%, 0%)" fill-opacity="1" d="M 1185.703125 859.1875 C 1185.339844 859.3125 1184.960938 859.421875 1184.585938 859.550781 C 1184.960938 859.421875 1185.324219 859.3125 1185.703125 859.1875 Z M 1185.703125 859.1875 "/>
<path fill-rule="nonzero" fill="rgb(0%, 0%, 0%)" fill-opacity="1" d="M 1264.25 803.066406 C 1264.167969 803.273438 1264.082031 803.480469 1264 803.683594 C 1263.988281 803.695312 1263.988281 803.695312 1263.988281 803.695312 C 1264.078125 803.484375 1264.164062 803.277344 1264.25 803.066406 Z M 1264.25 803.066406 "/>
<path fill-rule="nonzero" fill="rgb(0%, 0%, 0%)" fill-opacity="1" d="M 1246.796875 731.738281 C 1246.796875 731.691406 1246.8125 731.660156 1246.8125 731.609375 C 1246.800781 731.804688 1246.789062 732 1246.777344 732.195312 C 1246.785156 732.042969 1246.792969 731.890625 1246.796875 731.738281 Z M 1246.796875 731.738281 "/>
<path fill-rule="nonzero" fill="rgb(0%, 0%, 0%)" fill-opacity="1" d="M 1250.589844 723.441406 C 1250.609375 723.378906 1250.640625 723.332031 1250.65625 723.265625 C 1250.609375 723.441406 1250.558594 723.628906 1250.527344 723.804688 C 1250.542969 723.675781 1250.574219 723.566406 1250.589844 723.441406 Z M 1250.589844 723.441406 "/>
<path fill-rule="nonzero" fill="rgb(0%, 0%, 0%)" fill-opacity="1" d="M 1372.707031 628.261719 C 1372.609375 628.90625 1372.53125 629.554688 1372.453125 630.183594 C 1372.390625 630.433594 1372.328125 630.671875 1372.25 630.921875 C 1372.4375 630.058594 1372.578125 629.175781 1372.707031 628.261719 Z M 1372.707031 628.261719 "/>
<path fill-rule="nonzero" fill="rgb(0%, 0%, 0%)" fill-opacity="1" d="M 1332.75 623.585938 C 1332.765625 623.507812 1332.796875 623.414062 1332.8125 623.335938 C 1332.734375 623.792969 1332.671875 624.265625 1332.609375 624.71875 C 1332.65625 624.34375 1332.703125 623.964844 1332.75 623.585938 Z M 1332.75 623.585938 "/>
<path fill-rule="nonzero" fill="rgb(0%, 0%, 0%)" fill-opacity="1" d="M 658.175781 1326.453125 C 657.78125 1326.84375 657.371094 1327.238281 656.964844 1327.632812 C 657.371094 1327.238281 657.765625 1326.84375 658.175781 1326.453125 Z M 658.175781 1326.453125 "/>
<path fill-rule="nonzero" fill="rgb(0%, 79.215688%, 93.725491%)" fill-opacity="1" d="M 1413.78125 611.089844 C 1413.902344 611.210938 1414.003906 611.332031 1414.125 611.46875 C 1412.265625 611.898438 1410.460938 612.605469 1408.808594 613.617188 C 1408.808594 613.617188 1408.792969 613.617188 1408.792969 613.617188 C 1408.363281 613.378906 1407.933594 613.101562 1407.535156 612.808594 C 1405.386719 614.082031 1403.238281 615.304688 1401.070312 616.542969 C 1395.496094 619.757812 1390.164062 623.40625 1384.835938 627 C 1380.035156 630.214844 1375.167969 633.328125 1370.488281 636.75 C 1369.75 638.539062 1368.804688 640.292969 1367.636719 642.015625 C 1365.003906 645.902344 1362.457031 649.804688 1360.152344 653.863281 C 1354.839844 663.753906 1349.679688 673.972656 1345.363281 684.359375 C 1342.164062 693.0625 1339.804688 701.832031 1333.410156 708.902344 C 1329.554688 713.167969 1323.570312 715.214844 1318.117188 716.882812 C 1317.464844 717.140625 1316.828125 717.398438 1316.191406 717.675781 C 1311.945312 719.789062 1307.746094 722.09375 1303.707031 724.605469 C 1302.757812 725.292969 1301.832031 726 1300.9375 726.722656 C 1297.859375 729.574219 1294.863281 732.515625 1291.664062 735.285156 C 1290.339844 736.421875 1288.964844 737.503906 1287.589844 738.589844 C 1287.160156 739.378906 1286.679688 740.136719 1286.128906 740.875 C 1285.972656 741.101562 1285.800781 741.304688 1285.628906 741.496094 C 1285.59375 741.648438 1285.542969 741.804688 1285.492188 741.976562 C 1284.835938 743.953125 1283.804688 745.625 1282.636719 747.1875 C 1282.328125 749.75 1282.1875 752.3125 1281.878906 754.859375 C 1281.175781 760.757812 1279.765625 766.605469 1278.007812 772.265625 C 1274.757812 782.703125 1269.082031 792.234375 1264.628906 802.140625 C 1264.628906 802.15625 1264.609375 802.175781 1264.609375 802.191406 C 1264.492188 802.449219 1264.386719 802.722656 1264.265625 802.984375 C 1264.25 803 1264.25 803.035156 1264.25 803.050781 C 1264.164062 803.257812 1264.078125 803.429688 1264.007812 803.636719 C 1264.007812 803.652344 1263.992188 803.652344 1263.992188 803.671875 C 1263.992188 803.6875 1263.976562 803.703125 1263.957031 803.722656 C 1263.957031 803.757812 1263.941406 803.773438 1263.921875 803.808594 C 1263.890625 803.894531 1263.871094 803.980469 1263.835938 804.050781 C 1260.398438 813.59375 1258.472656 823.65625 1254.703125 833.0625 C 1253.378906 836.367188 1251.953125 839.652344 1250.300781 842.800781 C 1248.460938 846.257812 1246.207031 849.007812 1243.042969 851.347656 C 1239.84375 853.703125 1236.09375 854.546875 1232.277344 855.078125 C 1227.683594 855.714844 1222.972656 855.765625 1218.363281 856.265625 C 1212.085938 856.972656 1205.875 857.382812 1199.582031 857.589844 C 1199.238281 857.605469 1198.910156 857.625 1198.566406 857.625 C 1198.550781 857.625 1198.515625 857.625 1198.480469 857.640625 C 1198.464844 857.640625 1198.464844 857.640625 1198.445312 857.640625 C 1198.410156 857.640625 1198.378906 857.640625 1198.34375 857.640625 C 1198.238281 857.640625 1198.101562 857.660156 1198 857.660156 C 1196.246094 857.726562 1194.542969 857.8125 1192.804688 858.039062 C 1190.742188 858.382812 1188.660156 858.691406 1186.578125 859 C 1186.046875 859.121094 1185.511719 859.242188 1184.996094 859.414062 C 1184.722656 859.480469 1184.429688 859.566406 1184.152344 859.636719 C 1179.132812 861.253906 1174.160156 862.851562 1169.050781 864.125 C 1165.578125 865.003906 1162.085938 865.65625 1158.59375 866.292969 C 1153.109375 867.273438 1147.554688 867.601562 1142.050781 868.460938 C 1141.222656 868.699219 1140.382812 868.925781 1139.554688 869.199219 C 1138.710938 869.527344 1137.871094 869.851562 1137.027344 870.214844 C 1136.03125 872.070312 1134.878906 873.808594 1133.691406 875.582031 C 1133.363281 876.886719 1133.089844 878.195312 1132.863281 879.503906 C 1131.882812 887.242188 1131.453125 895.015625 1129.890625 902.652344 C 1129.046875 906.726562 1127.652344 910.617188 1126.261719 914.519531 C 1125.003906 917.992188 1124.023438 921.570312 1122.957031 925.113281 C 1120.257812 933.953125 1116.957031 942.484375 1112.292969 950.449219 C 1109.183594 955.761719 1105.378906 959.976562 1100.753906 963.828125 C 1099.550781 964.84375 1098.414062 965.929688 1097.246094 966.996094 C 1096.402344 967.769531 1095.507812 968.40625 1094.597656 969.007812 C 1093.015625 970.46875 1091.242188 971.707031 1089.367188 972.910156 C 1089.214844 972.996094 1089.058594 973.101562 1088.902344 973.203125 C 1088.886719 973.222656 1088.871094 973.222656 1088.851562 973.238281 C 1088.765625 973.308594 1088.679688 973.359375 1088.59375 973.410156 C 1088.542969 973.445312 1088.507812 973.460938 1088.457031 973.496094 C 1088.457031 973.496094 1088.4375 973.496094 1088.4375 973.496094 C 1088.4375 973.511719 1088.40625 973.53125 1088.386719 973.546875 C 1088.386719 973.546875 1088.386719 973.546875 1088.371094 973.546875 C 1088.371094 973.546875 1088.351562 973.546875 1088.351562 973.546875 C 1088.351562 973.546875 1088.335938 973.566406 1088.335938 973.566406 C 1088.300781 973.582031 1088.265625 973.597656 1088.265625 973.617188 C 1088.214844 973.652344 1088.164062 973.683594 1088.113281 973.703125 C 1088.113281 973.71875 1088.09375 973.71875 1088.09375 973.71875 C 1088.09375 973.71875 1088.078125 973.71875 1088.078125 973.71875 C 1088.042969 973.738281 1088.007812 973.769531 1087.957031 973.804688 C 1087.941406 973.824219 1087.921875 973.824219 1087.90625 973.839844 C 1087.855469 973.875 1087.785156 973.910156 1087.71875 973.941406 C 1087.699219 973.960938 1087.699219 973.960938 1087.699219 973.960938 C 1087.699219 973.960938 1087.699219 973.976562 1087.683594 973.976562 C 1087.648438 974.011719 1087.597656 974.027344 1087.546875 974.0625 C 1087.546875 974.0625 1087.527344 974.082031 1087.527344 974.082031 C 1087.511719 974.097656 1087.511719 974.097656 1087.476562 974.097656 C 1087.441406 974.113281 1087.40625 974.148438 1087.371094 974.167969 C 1087.269531 974.234375 1087.148438 974.304688 1087.046875 974.375 C 1086.941406 974.441406 1086.824219 974.511719 1086.71875 974.578125 C 1086.71875 974.597656 1086.71875 974.597656 1086.703125 974.597656 C 1086.683594 974.613281 1086.667969 974.632812 1086.652344 974.632812 C 1086.652344 974.632812 1086.632812 974.632812 1086.632812 974.632812 C 1086.617188 974.632812 1086.617188 974.648438 1086.597656 974.648438 C 1073.253906 982.871094 1058.734375 989.078125 1044.597656 995.835938 C 1039.230469 998.605469 1034.074219 1001.617188 1029.050781 1005.003906 C 1028.105469 1005.660156 1027.125 1006.296875 1026.179688 1006.949219 C 1025.886719 1009.0625 1025.574219 1011.179688 1025.214844 1013.296875 C 1024.578125 1016.804688 1023.410156 1020.140625 1022.378906 1023.527344 C 1022.222656 1024.199219 1022.085938 1024.886719 1021.964844 1025.574219 C 1021.550781 1028.859375 1021.242188 1032.164062 1021.171875 1035.449219 C 1021.191406 1038.042969 1021.292969 1040.660156 1021.363281 1043.238281 C 1021.429688 1046.4375 1021.257812 1049.601562 1021.242188 1052.785156 C 1021.429688 1057.308594 1021.414062 1061.625 1020.964844 1066.148438 C 1020.039062 1075.351562 1017.800781 1084.328125 1016.238281 1093.425781 C 1015.808594 1095.886719 1015.324219 1098.34375 1014.964844 1100.820312 C 1014.601562 1103.230469 1014.378906 1105.707031 1013.605469 1108.046875 C 1012.589844 1111.074219 1011.386719 1113.875 1010.0625 1116.695312 C 1010.027344 1116.886719 1009.976562 1117.09375 1009.925781 1117.28125 C 1009.460938 1120.085938 1009.046875 1122.90625 1008.601562 1125.710938 C 1006.792969 1136.097656 1003.957031 1146.226562 1001.324219 1156.445312 C 998.832031 1166.246094 996.441406 1176.085938 994.238281 1185.957031 C 992.726562 1192.820312 990.542969 1198.804688 984.367188 1203.019531 C 980.566406 1205.617188 976.195312 1206.234375 971.757812 1206.804688 C 966.375 1207.507812 960.941406 1207.820312 955.539062 1208.4375 C 952.03125 1209.023438 948.609375 1209.8125 945.1875 1210.742188 C 942.519531 1211.515625 939.820312 1212.289062 937.136719 1213.046875 C 936.207031 1213.648438 935.28125 1214.25 934.300781 1214.785156 C 931.496094 1216.296875 928.503906 1216.917969 925.441406 1217.5 C 920.59375 1218.394531 915.777344 1219.410156 910.941406 1220.355469 C 902.789062 1221.957031 894.84375 1224.347656 886.742188 1226.117188 C 877.59375 1228.148438 868.324219 1229.472656 859.34375 1232.191406 C 855.835938 1233.273438 852.3125 1234.339844 848.800781 1235.441406 C 847.152344 1238.621094 845.671875 1241.925781 844.105469 1245.089844 C 842.027344 1249.320312 839.601562 1253.3125 837.019531 1257.285156 C 833.648438 1262.53125 830.363281 1267.859375 826.804688 1272.988281 C 820.542969 1282.015625 813.957031 1290.839844 807.457031 1299.695312 C 803.738281 1304.738281 798.785156 1309.519531 792.476562 1310.894531 C 788.792969 1311.703125 785.113281 1311.71875 781.382812 1311.925781 C 776.859375 1312.40625 772.4375 1313.4375 767.929688 1313.972656 C 762.308594 1314.660156 756.578125 1314.710938 750.957031 1314.179688 C 746.878906 1313.78125 742.957031 1312.75 738.984375 1311.910156 C 736.957031 1312.148438 734.941406 1312.457031 732.929688 1312.855469 C 729.320312 1313.679688 725.671875 1314.574219 722.113281 1315.625 C 721.976562 1315.710938 721.855469 1315.796875 721.75 1315.882812 C 720.117188 1320.40625 717.246094 1324.035156 713.738281 1327.472656 C 709.746094 1331.34375 705.566406 1334.988281 701.542969 1338.859375 C 697.207031 1343.3125 693.21875 1348.09375 688.882812 1352.566406 C 680.558594 1361.203125 671.597656 1369.183594 662.980469 1377.507812 C 659.953125 1380.535156 657.066406 1383.664062 654.070312 1386.707031 C 649.859375 1391.042969 645.335938 1395.015625 640.792969 1398.988281 C 637.886719 1401.535156 634.945312 1404.027344 632.003906 1406.574219 C 628.839844 1408.035156 626.039062 1410.269531 623.972656 1413.125 C 623.765625 1413.160156 623.5625 1413.195312 623.371094 1413.210938 C 622.855469 1411.59375 621.976562 1410.167969 620.824219 1409 C 620.792969 1408.964844 620.773438 1408.914062 620.738281 1408.84375 C 619.140625 1405.507812 615.871094 1403.390625 612.382812 1403.03125 C 612.039062 1402.460938 611.675781 1401.914062 611.296875 1401.363281 C 611.28125 1401.191406 611.261719 1401 611.230469 1400.8125 C 610.644531 1396.183594 607.136719 1392.832031 604.261719 1389.425781 C 603.25 1388.222656 602.320312 1386.863281 601.21875 1385.777344 C 600.359375 1384.9375 599.429688 1384.179688 598.414062 1383.578125 C 598.398438 1382.976562 598.382812 1382.390625 598.398438 1381.789062 C 598.484375 1381.738281 598.570312 1381.667969 598.65625 1381.632812 C 598.792969 1381.703125 598.929688 1381.804688 599.050781 1381.890625 C 607.480469 1374.339844 616.355469 1367.253906 624.488281 1359.378906 C 629.839844 1353.890625 635.085938 1348.355469 640.707031 1343.140625 C 646.144531 1338.085938 651.527344 1332.960938 656.839844 1327.730469 C 661.8125 1322.691406 666.335938 1317.257812 671.289062 1312.199219 C 675.570312 1307.796875 680.179688 1303.773438 684.636719 1299.578125 C 685.410156 1297.996094 686.390625 1296.515625 687.578125 1295.171875 C 688.746094 1293.847656 690.054688 1292.714844 691.445312 1291.785156 C 691.753906 1291.0625 692.101562 1290.339844 692.511719 1289.652344 C 695.78125 1283.992188 700.785156 1280.210938 706.960938 1278.128906 C 712.238281 1276.375 717.742188 1275.015625 723.160156 1273.777344 C 728.253906 1272.625 733.515625 1271.679688 738.746094 1271.578125 C 738.917969 1271.578125 739.089844 1271.578125 739.261719 1271.578125 C 743.730469 1271.578125 747.910156 1272.710938 752.210938 1273.675781 C 753.777344 1273.914062 755.359375 1274.105469 756.941406 1274.226562 C 758.574219 1274.226562 760.191406 1274.207031 761.808594 1274.105469 C 765.402344 1273.691406 768.929688 1272.933594 772.507812 1272.382812 C 774.3125 1272.125 776.136719 1271.972656 777.976562 1271.835938 C 780.195312 1268.773438 782.34375 1265.660156 784.582031 1262.597656 C 788.570312 1257.164062 792.578125 1251.746094 796.378906 1246.15625 C 800.007812 1240.617188 803.722656 1235.097656 806.90625 1229.316406 C 809.347656 1224.878906 811.515625 1220.289062 813.820312 1215.78125 C 815.898438 1211.773438 817.929688 1207.628906 821.371094 1204.566406 C 827.40625 1199.21875 835.421875 1197.480469 842.953125 1195.195312 C 850.4375 1192.839844 857.902344 1190.792969 865.640625 1189.277344 C 873.792969 1187.695312 881.789062 1185.890625 889.804688 1183.792969 C 898.664062 1181.488281 907.742188 1180.300781 916.652344 1178.320312 C 917.582031 1177.703125 918.511719 1177.136719 919.527344 1176.671875 C 921.898438 1175.570312 924.339844 1174.863281 926.816406 1174.195312 C 934.851562 1171.855469 942.8125 1169.480469 951.136719 1168.414062 C 953.148438 1168.15625 955.164062 1167.949219 957.175781 1167.761719 C 958.414062 1162.394531 959.652344 1157.027344 960.992188 1151.679688 C 963.710938 1140.964844 966.925781 1130.25 968.871094 1119.34375 C 969.488281 1115.441406 970.039062 1111.519531 970.796875 1107.617188 C 971.363281 1104.640625 972.535156 1101.90625 973.890625 1099.222656 C 974.21875 1098.484375 974.527344 1097.742188 974.820312 1097.003906 C 975.492188 1092.875 976.144531 1088.765625 976.867188 1084.65625 C 978.242188 1076.777344 980.066406 1069.019531 981.03125 1061.089844 C 981.117188 1059.679688 981.203125 1058.289062 981.21875 1056.859375 C 981.097656 1055.039062 980.910156 1053.25 980.996094 1051.390625 C 981.0625 1049.171875 981.167969 1046.972656 981.152344 1044.769531 C 980.976562 1038.371094 980.859375 1032.042969 981.476562 1025.644531 C 981.820312 1021.996094 982.199219 1018.316406 983.058594 1014.738281 C 983.660156 1012.160156 984.554688 1009.664062 985.3125 1007.136719 C 985.707031 1005.417969 986 1003.679688 986.242188 1001.960938 C 986.828125 997.523438 987.257812 993.050781 988.667969 988.785156 C 990.351562 983.609375 994.203125 979.773438 998.675781 976.917969 C 1000.242188 975.9375 1001.824219 974.976562 1003.335938 973.910156 C 1009.789062 969.472656 1016.238281 965.222656 1023.183594 961.578125 C 1030.632812 957.65625 1038.425781 954.386719 1046.007812 950.722656 C 1049.378906 949.039062 1052.714844 947.300781 1056.085938 945.597656 C 1058.769531 944.238281 1061.503906 942.933594 1064.066406 941.351562 C 1065.117188 940.664062 1066.167969 940.007812 1067.25 939.339844 C 1067.25 939.339844 1067.25 939.339844 1067.265625 939.339844 C 1067.457031 939.097656 1067.679688 938.875 1067.902344 938.632812 C 1068.933594 937.550781 1070.191406 936.742188 1071.480469 936 C 1072.753906 934.847656 1074.0625 933.730469 1075.402344 932.648438 C 1075.730469 932.371094 1076.054688 932.097656 1076.367188 931.820312 C 1076.417969 931.753906 1076.46875 931.703125 1076.519531 931.632812 C 1077.15625 930.667969 1077.757812 929.671875 1078.359375 928.691406 C 1079.617188 926.230469 1080.75 923.738281 1081.800781 921.175781 C 1083.332031 916.808594 1084.691406 912.386719 1086.03125 907.933594 C 1087.234375 903.90625 1088.75 899.96875 1090.054688 895.980469 C 1090.484375 894.15625 1090.847656 892.332031 1091.15625 890.476562 C 1092.050781 882.460938 1092.480469 874.324219 1094.40625 866.449219 C 1095.214844 863.128906 1096.367188 859.792969 1098.003906 856.765625 C 1098.792969 855.300781 1099.738281 853.945312 1100.667969 852.566406 C 1100.890625 851.433594 1101.167969 850.332031 1101.597656 849.179688 C 1103.300781 844.585938 1106.5 841.214844 1110.453125 838.449219 C 1114.359375 835.730469 1119.191406 833.871094 1123.628906 832.167969 C 1129.148438 830.054688 1134.6875 828.644531 1140.554688 827.992188 C 1145.28125 827.472656 1149.996094 826.90625 1154.671875 826.097656 C 1158.734375 825.238281 1162.792969 824.257812 1166.765625 823.054688 C 1169.535156 822.140625 1172.285156 821.164062 1175.089844 820.355469 C 1177.875 819.546875 1180.730469 819.304688 1183.585938 818.925781 C 1186.578125 818.359375 1189.554688 817.792969 1192.617188 817.617188 C 1195.160156 817.464844 1197.722656 817.429688 1200.304688 817.394531 C 1206.269531 817.171875 1212.207031 816.414062 1218.140625 815.777344 C 1220.960938 807.074219 1222.972656 798.132812 1226.308594 789.566406 C 1226.34375 789.5 1226.359375 789.414062 1226.394531 789.34375 C 1230.007812 780.742188 1234.359375 772.523438 1238.160156 764.027344 C 1238.863281 762.21875 1239.519531 760.398438 1240.101562 758.558594 C 1240.6875 756.304688 1241.203125 754.050781 1241.617188 751.761719 C 1242.285156 746.792969 1242.425781 741.734375 1243.628906 736.816406 C 1244.402344 733.515625 1245.640625 730.523438 1247.273438 727.71875 C 1247.824219 724.605469 1248.875 721.648438 1250.867188 718.859375 C 1251.761719 717.621094 1252.742188 716.539062 1253.84375 715.609375 C 1255.1875 713.496094 1256.941406 711.585938 1259.109375 709.832031 C 1261.652344 707.785156 1264.234375 705.738281 1266.726562 703.65625 C 1269.875 700.765625 1272.882812 697.742188 1276.152344 694.953125 C 1280.554688 691.222656 1285.699219 688.367188 1290.769531 685.632812 C 1293.144531 684.34375 1295.5 683 1297.945312 681.8125 C 1300.164062 680.746094 1302.363281 679.871094 1304.617188 679.0625 C 1306.472656 673.765625 1308.246094 668.46875 1310.566406 663.324219 C 1313.164062 657.582031 1316.035156 651.9375 1318.824219 646.28125 C 1321.988281 639.847656 1325.257812 633.464844 1329.039062 627.394531 C 1330.398438 625.226562 1331.894531 623.113281 1333.304688 620.980469 C 1333.871094 618.675781 1334.714844 616.472656 1336.125 614.496094 C 1339.066406 610.386719 1342.609375 607.410156 1346.566406 604.332031 C 1352.308594 599.859375 1358.640625 596.074219 1364.640625 592 C 1367.980469 589.78125 1371.332031 587.5625 1374.753906 585.445312 C 1374.753906 585.308594 1374.753906 585.171875 1374.753906 585.035156 C 1377.25 584.140625 1379.605469 583.453125 1381.738281 583.074219 C 1384.660156 582.160156 1387.242188 580.613281 1389.339844 578.601562 C 1389.941406 578.773438 1390.527344 578.960938 1391.113281 579.167969 C 1392.074219 580.492188 1393.105469 581.765625 1394.15625 583.019531 C 1394.707031 583.691406 1395.308594 584.328125 1395.894531 584.949219 C 1396.238281 585.480469 1396.582031 585.996094 1396.941406 586.511719 C 1397.921875 588.265625 1398.953125 590.003906 1400.039062 591.707031 C 1402.273438 595.234375 1404.578125 598.742188 1407.074219 602.113281 C 1409.324219 605.140625 1411.234375 608.285156 1413.78125 611.089844 Z M 1413.78125 611.089844 "/>
</svg>
