<?xml version='1.0' encoding='utf-8'?>
<svg xmlns="http://www.w3.org/2000/svg" width="200" height="200" viewBox="0 0 200 200">
  <g id="surface1">
    <path fill-rule="evenodd" fill="rgb(0%, 0%, 0%)" fill-opacity="1" d="M 82 34 C 91 28 106 29 117 33 C 125 37 125 47 121 53 L 115 59 L 114 66 C 104 70 92 69 83 65 L 83 58 C 75 55 73 48 75 41 C 76 38 78 36 82 34 Z M 90.648438 47 C 90.671875 48.476562 89.746094 50.507812 88.804688 51.453125 C 87.863281 52.394531 86.304688 52.699219 85 52.664062 C 83.695312 52.632812 81.859375 52.199219 80.976562 51.253906 C 80.097656 50.308594 79.65625 48.425781 79.710938 47 C 79.761719 45.574219 80.410156 43.652344 81.292969 42.710938 C 82.175781 41.769531 83.769531 41.371094 85 41.347656 C 86.230469 41.324219 87.742188 41.640625 88.683594 42.582031 C 89.625 43.523438 90.628906 45.523438 90.648438 47 Z M 118.039062 47 C 118.023438 48.304688 117.203125 49.722656 116.363281 50.664062 C 115.523438 51.605469 114.144531 52.550781 113 52.648438 C 111.855469 52.746094 110.300781 52.1875 109.496094 51.246094 C 108.695312 50.304688 108.226562 48.324219 108.191406 47 C 108.152344 45.675781 108.46875 44.273438 109.273438 43.300781 C 110.074219 42.324219 111.804688 41.230469 113 41.152344 C 114.195312 41.070312 115.609375 41.851562 116.449219 42.824219 C 117.289062 43.800781 118.054688 45.695312 118.039062 47 Z M 98 49 C 95 53 94 57 97 59 C 100 60 104 58 103 55 L 101 49 Z M 91.09375 61.152344 C 90.960938 62.199219 91.644531 66.199219 92.109375 67.148438 C 92.574219 68.097656 93.757812 67.902344 93.890625 66.851562 C 94.023438 65.800781 93.375 61.800781 92.90625 60.847656 C 92.441406 59.898438 91.226562 60.101562 91.09375 61.152344 Z M 102.078125 62 C 101.773438 63 101.792969 67 102.097656 68 C 102.402344 69 103.597656 69 103.902344 68 C 104.207031 67 104.226562 63 103.921875 62 C 103.617188 61 102.382812 61 102.078125 62 Z M 102.078125 62 " />
    <path fill-rule="evenodd" fill="rgb(0%, 0%, 0%)" fill-opacity="1" d="M 98.03125 75.074219 C 97.878906 77.253906 99.007812 83.347656 99.046875 88 C 99.089844 92.652344 98.265625 98.15625 98.273438 103 C 98.285156 107.84375 98.675781 114.742188 99.109375 117.0625 C 99.546875 119.386719 100.785156 119.28125 100.890625 116.9375 C 100.992188 114.59375 99.714844 107.824219 99.726562 103 C 99.734375 98.175781 100.910156 92.679688 100.953125 88 C 100.992188 83.320312 100.457031 77.078125 99.96875 74.925781 C 99.480469 72.769531 98.183594 72.894531 98.03125 75.074219 Z M 98.03125 75.074219 " />
    <path fill-rule="evenodd" fill="rgb(0%, 0%, 0%)" fill-opacity="1" d="M 95.339844 83.152344 C 93.738281 82.195312 88.535156 79.1875 85.046875 79.105469 C 81.554688 79.027344 75.476562 80.570312 74.402344 82.671875 C 73.328125 84.777344 75.191406 89.691406 78.597656 91.734375 C 82 93.777344 92.0625 94.710938 94.824219 94.933594 C 97.589844 95.15625 97.746094 93.84375 95.175781 93.066406 C 92.605469 92.289062 82.667969 91.890625 79.402344 90.265625 C 76.140625 88.640625 74.671875 84.886719 75.597656 83.328125 C 76.523438 81.765625 81.777344 80.640625 84.953125 80.894531 C 88.132812 81.148438 92.929688 84.472656 94.660156 84.847656 C 96.390625 85.226562 96.941406 84.109375 95.339844 83.152344 Z M 95.339844 83.152344 " />
    <path fill-rule="evenodd" fill="rgb(0%, 0%, 0%)" fill-opacity="1" d="M 106.261719 84.875 C 107.960938 84.667969 112.5625 81.65625 115.914062 81.890625 C 119.269531 82.125 125.585938 84.726562 126.378906 86.28125 C 127.171875 87.839844 124.097656 89.933594 120.671875 91.230469 C 117.242188 92.527344 108.226562 93.285156 105.8125 94.066406 C 103.398438 94.851562 103.601562 96.148438 106.1875 95.933594 C 108.773438 95.714844 117.757812 94.472656 121.328125 92.769531 C 124.902344 91.066406 128.496094 87.828125 127.621094 85.71875 C 126.746094 83.609375 119.730469 80.539062 116.085938 80.109375 C 112.4375 79.675781 107.375 82.332031 105.738281 83.125 C 104.101562 83.917969 104.566406 85.082031 106.261719 84.875 Z M 106.261719 84.875 " />
    <path fill-rule="evenodd" fill="rgb(0%, 0%, 0%)" fill-opacity="1" d="M 94.269531 97.128906 C 92.117188 96.167969 83.628906 92.394531 80.835938 93.121094 C 78.042969 93.847656 75.535156 99.203125 77.519531 101.480469 C 79.5 103.761719 90.109375 106.175781 92.734375 106.796875 C 95.359375 107.414062 95.640625 106.25 93.265625 105.203125 C 90.890625 104.160156 80.5 102.238281 78.480469 100.519531 C 76.464844 98.796875 78.621094 95.152344 81.164062 94.878906 C 83.707031 94.605469 91.546875 98.5 93.730469 98.871094 C 95.914062 99.246094 96.417969 98.085938 94.269531 97.128906 Z M 94.269531 97.128906 " />
    <path fill-rule="evenodd" fill="rgb(0%, 0%, 0%)" fill-opacity="1" d="M 107.203125 98.890625 C 109.371094 98.683594 117.230469 95.429688 119.78125 95.867188 C 122.335938 96.304688 124.527344 99.796875 122.519531 101.519531 C 120.511719 103.242188 110.109375 105.160156 107.734375 106.203125 C 105.359375 107.25 105.640625 108.414062 108.265625 107.796875 C 110.890625 107.175781 121.488281 104.757812 123.480469 102.480469 C 125.472656 100.203125 122.996094 95.027344 120.21875 94.132812 C 117.4375 93.234375 108.964844 96.316406 106.796875 97.109375 C 104.625 97.902344 105.039062 99.097656 107.203125 98.890625 Z M 107.203125 98.890625 " />
    <path fill-rule="evenodd" fill="rgb(0%, 0%, 0%)" fill-opacity="1" d="M 94.289062 109.132812 C 92.792969 108.347656 86.542969 105.421875 84.742188 106.144531 C 82.945312 106.863281 81.84375 111.355469 83.496094 113.460938 C 85.148438 115.5625 92.679688 118.132812 94.652344 118.761719 C 96.628906 119.394531 97.039062 118.273438 95.347656 117.238281 C 93.65625 116.199219 86.1875 114.105469 84.503906 112.539062 C 82.824219 110.976562 83.722656 108.136719 85.257812 107.855469 C 86.792969 107.578125 92.207031 110.652344 93.710938 110.867188 C 95.214844 111.078125 95.785156 109.921875 94.289062 109.132812 Z M 94.289062 109.132812 " />
    <path fill-rule="evenodd" fill="rgb(0%, 0%, 0%)" fill-opacity="1" d="M 107.199219 110.890625 C 108.675781 110.847656 114.117188 108.390625 115.667969 108.832031 C 117.21875 109.273438 118.164062 111.972656 116.496094 113.539062 C 114.824219 115.109375 107.34375 117.199219 105.652344 118.238281 C 103.960938 119.273438 104.371094 120.394531 106.347656 119.761719 C 108.320312 119.132812 115.839844 116.558594 117.503906 114.460938 C 119.167969 112.359375 118.117188 108.0625 116.332031 107.167969 C 114.550781 106.277344 108.324219 108.488281 106.800781 109.109375 C 105.277344 109.730469 105.722656 110.9375 107.199219 110.890625 Z M 107.199219 110.890625 " />
    <path fill-rule="evenodd" fill="rgb(0%, 0%, 0%)" fill-opacity="1" d="M 83 124 C 89 123 96 126 100 128 C 108 124 113 122 118 125 L 115 133 C 109 135 104 130 101 128 C 96 134 89 136 84 132 Z M 83 124 " />
    <path fill-rule="evenodd" fill="rgb(0%, 0%, 0%)" fill-opacity="1" d="M 73.160156 79.738281 C 70.824219 80.707031 64.203125 83.773438 60.839844 88.070312 C 57.476562 92.367188 53.945312 102.449219 52.976562 105.519531 C 52.007812 108.585938 53.328125 109.078125 55.023438 106.480469 C 56.722656 103.882812 59.855469 93.964844 63.160156 89.929688 C 66.464844 85.890625 73.175781 83.960938 74.839844 82.261719 C 76.507812 80.5625 75.492188 78.769531 73.160156 79.738281 Z M 73.160156 79.738281 " />
    <path fill-rule="evenodd" fill="rgb(0%, 0%, 0%)" fill-opacity="1" d="M 50.5625 110.519531 C 49.242188 112.960938 45.109375 121.433594 45.519531 126.109375 C 45.929688 130.785156 51.445312 136.683594 53.023438 138.570312 C 54.597656 140.457031 55.734375 139.542969 54.976562 137.429688 C 54.222656 135.316406 48.738281 130.214844 48.480469 125.890625 C 48.226562 121.566406 53.09375 114.039062 53.4375 111.480469 C 53.785156 108.917969 51.882812 108.082031 50.5625 110.519531 Z M 50.5625 110.519531 " />
    <path fill-rule="evenodd" fill="rgb(0%, 0%, 0%)" fill-opacity="1" d="M 126.160156 87.261719 C 128.332031 89.300781 137.25 92.945312 140.886719 96.980469 C 144.519531 101.019531 146.449219 109.222656 147.976562 111.480469 C 149.496094 113.734375 150.835938 113.265625 150.023438 110.519531 C 149.214844 107.777344 146.8125 99.316406 143.113281 95.019531 C 139.417969 90.722656 130.667969 86.03125 127.839844 84.738281 C 125.015625 83.445312 123.984375 85.222656 126.160156 87.261719 Z M 126.160156 87.261719 " />
    <path fill-rule="evenodd" fill="rgb(0%, 0%, 0%)" fill-opacity="1" d="M 148.691406 114.234375 C 147.121094 115.945312 144.617188 122.871094 141.894531 126.007812 C 139.171875 129.148438 133.726562 131.585938 132.351562 133.074219 C 130.976562 134.558594 131.691406 135.773438 133.648438 134.925781 C 135.609375 134.078125 141.164062 131.183594 144.105469 127.992188 C 147.050781 124.796875 150.546875 118.054688 151.308594 115.765625 C 152.074219 113.472656 150.261719 112.527344 148.691406 114.234375 Z M 148.691406 114.234375 " />
    <path fill-rule="evenodd" fill="rgb(0%, 0%, 0%)" fill-opacity="1" d="M 85.828125 141.039062 C 83.894531 142.644531 77.558594 148.878906 76.570312 152.59375 C 75.585938 156.304688 78.996094 161.644531 79.914062 163.324219 C 80.835938 165.007812 82.164062 164.328125 82.085938 162.675781 C 82.003906 161.023438 78.414062 156.695312 79.429688 153.40625 C 80.441406 150.121094 87.105469 145.019531 88.171875 142.960938 C 89.238281 140.898438 87.761719 139.433594 85.828125 141.039062 Z M 85.828125 141.039062 " />
    <path fill-rule="evenodd" fill="rgb(0%, 0%, 0%)" fill-opacity="1" d="M 79.574219 166.519531 C 79.761719 168.398438 83.929688 173.976562 83.535156 176.757812 C 83.140625 179.535156 77.988281 181.859375 77.199219 183.199219 C 76.410156 184.539062 77.257812 185.792969 78.800781 184.800781 C 80.34375 183.808594 85.859375 180.464844 86.464844 177.242188 C 87.070312 174.023438 83.574219 167.269531 82.425781 165.480469 C 81.277344 163.695312 79.390625 164.640625 79.574219 166.519531 Z M 79.574219 166.519531 " />
    <path fill-rule="evenodd" fill="rgb(0%, 0%, 0%)" fill-opacity="1" d="M 112.722656 143.8125 C 113.433594 145.839844 118.691406 151.015625 119.554688 154.34375 C 120.414062 157.671875 117.796875 162.132812 117.890625 163.777344 C 117.984375 165.425781 119.351562 165.910156 120.109375 164.222656 C 120.867188 162.535156 123.25 157.328125 122.445312 153.65625 C 121.640625 149.984375 116.898438 143.824219 115.277344 142.1875 C 113.65625 140.546875 112.007812 141.789062 112.722656 143.8125 Z M 112.722656 143.8125 " />
    <path fill-rule="evenodd" fill="rgb(0%, 0%, 0%)" fill-opacity="1" d="M 117.699219 167.21875 C 116.238281 168.710938 111.992188 174.84375 111.539062 177.726562 C 111.089844 180.605469 114.074219 183.546875 114.988281 184.507812 C 115.898438 185.46875 117.101562 184.53125 117.011719 183.492188 C 116.925781 182.453125 113.910156 180.726562 114.460938 178.273438 C 115.007812 175.820312 119.761719 170.621094 120.300781 168.78125 C 120.839844 166.9375 119.160156 165.730469 117.699219 167.21875 Z M 117.699219 167.21875 " />
  </g>
</svg>