<?xml version="1.0" encoding="UTF-8"?>
<!-- Created by grConvert v0.1-0 -->
<svg xmlns="http://www.w3.org/2000/svg" xmlns:xlink="http://www.w3.org/1999/xlink" width="2000" height="2000" viewBox="0 0 2000 2000">
<path fill-rule="nonzero" fill="rgb(0%, 0%, 0%)" fill-opacity="1" d="M 1059.277344 1490.933594 C 1051.222656 1488.582031 1043.480469 1483.28125 1035.046875 1487.632812 C 1016.589844 1496.269531 996.949219 1501.339844 976.59375 1497.363281 C 963.621094 1501.761719 949.804688 1500.707031 937.839844 1493.820312 C 926.308594 1488.246094 917.519531 1478.816406 908.289062 1470.253906 C 904.4375 1467.25 899.839844 1463.15625 894.601562 1464.550781 C 883.15625 1468.785156 871.96875 1474.070312 859.5 1474.109375 C 833.0625 1479.125 766.984375 1411.667969 808.496094 1398.621094 C 820.664062 1397.042969 824.757812 1406.972656 827.835938 1416.460938 C 836.640625 1431.054688 853.070312 1449.761719 871.601562 1440.382812 C 927.03125 1412.558594 933.8125 1475.964844 967.421875 1467.640625 C 976.773438 1464.867188 986.214844 1467.917969 995.65625 1467.9375 C 1008.402344 1466.917969 1019.246094 1459.433594 1031.46875 1456.480469 C 1039.050781 1454.609375 1046.652344 1454.492188 1054.230469 1456.429688 C 1062.097656 1459.089844 1070.78125 1464.492188 1077.03125 1455.820312 C 1084.375 1445.445312 1086.699219 1432.097656 1087.914062 1419.671875 C 1088.617188 1405.738281 1087.40625 1390.261719 1097.789062 1379.410156 C 1110.347656 1365.964844 1126.554688 1367.648438 1142.175781 1369.582031 C 1156.246094 1371.3125 1169.863281 1373.257812 1179.898438 1364.527344 C 1209.785156 1337.132812 1191.015625 1294.785156 1175.472656 1264.898438 C 1168.003906 1248.644531 1154.625 1235.105469 1150.316406 1217.519531 C 1148.332031 1179.027344 1192.117188 1186.273438 1234.894531 1193.929688 C 1276.894531 1201.46875 1317.9375 1209.414062 1313.75 1174.902344 C 1292.71875 1092.929688 1226.800781 1029.976562 1167.199219 974.25 C 1157.382812 965.976562 1147.644531 957.667969 1137.976562 949.214844 C 1129.96875 941.707031 1118.46875 935.160156 1116.59375 923.4375 C 1114.96875 911.773438 1125.378906 902.921875 1136.207031 901.800781 C 1166.777344 893.429688 1198.394531 902.964844 1229.046875 897.949219 C 1278.1875 875.945312 1250.453125 823.007812 1212.289062 806.144531 C 1164.355469 785.988281 1110.132812 788.058594 1061.441406 769.636719 C 1043.511719 765.238281 1037.273438 744.050781 1053.421875 733.046875 C 1060.144531 728.148438 1067.988281 725.753906 1075.839844 723.375 C 1080.484375 721.953125 1085.148438 720.542969 1089.589844 718.605469 C 1112.585938 707.957031 1091.601562 684.070312 1079.105469 673.789062 C 1041.414062 642.097656 965.207031 656.65625 953.515625 596.902344 C 952.53125 594.640625 951.414062 593.601562 950.128906 591.691406 C 946.039062 587.382812 942.023438 582.949219 938.1875 578.363281 C 938.457031 578.285156 938.722656 578.207031 938.992188 578.132812 C 939.871094 577.867188 940.808594 577.597656 941.742188 577.332031 C 942.667969 577.292969 943.585938 577.234375 944.507812 577.15625 C 945.945312 577.628906 947.8125 577.503906 949.183594 577.546875 C 950.875 577.59375 952.566406 577.5625 954.261719 577.53125 C 954.648438 577.519531 955.019531 577.507812 955.414062 577.507812 C 955.863281 577.535156 956.316406 577.554688 956.769531 577.554688 C 957.085938 577.878906 957.445312 578.140625 957.859375 578.320312 C 960.707031 579.542969 963.691406 580.386719 966.660156 581.273438 C 967.269531 581.558594 967.882812 581.855469 968.507812 582.132812 C 970.351562 582.976562 972.335938 583.984375 974.363281 584.433594 C 974.738281 584.910156 975.132812 585.398438 975.523438 585.867188 C 976.105469 586.574219 976.695312 587.296875 977.285156 588.023438 C 978.210938 590.757812 980.261719 592.75 982.238281 594.832031 C 983.324219 595.960938 984.421875 597.085938 985.546875 598.179688 C 985.800781 598.429688 986.0625 598.730469 986.359375 599.035156 C 992.4375 608.34375 1003.347656 612.457031 1013.503906 615.824219 C 1044.671875 626.324219 1080.164062 629.648438 1104 654.679688 C 1136.765625 681.820312 1143.789062 730.347656 1098.667969 748.273438 C 1144.128906 760.894531 1194.394531 759.296875 1235.882812 783.816406 C 1260.855469 799.304688 1282.664062 823.964844 1286.0625 854.089844 C 1290.8125 886.449219 1266.519531 919.648438 1235.558594 928.246094 C 1211.386719 934.035156 1186.390625 927.3125 1161.941406 929.207031 C 1208.332031 967.835938 1251.753906 1010.5625 1288.910156 1058.214844 C 1320.988281 1102.882812 1390.683594 1211.019531 1299.8125 1230.453125 C 1260.789062 1235.3125 1222.835938 1218.546875 1184.042969 1218.769531 C 1216.0625 1267.472656 1253.375 1343.222656 1198.28125 1389.46875 C 1188.683594 1397.636719 1176.398438 1401.890625 1163.859375 1402.074219 C 1149.429688 1403.417969 1134.191406 1395.753906 1120.214844 1400.695312 C 1119.28125 1430.945312 1113.261719 1476.101562 1084.417969 1488.421875 C 1077.457031 1491.398438 1069.152344 1492.453125 1059.277344 1490.933594 Z M 1059.277344 1490.933594 "/>
<path fill-rule="nonzero" fill="rgb(0%, 0%, 0%)" fill-opacity="1" d="M 809.894531 1420.640625 C 801.335938 1421.800781 793.953125 1415.671875 792.519531 1407.398438 C 789.527344 1395.042969 791.101562 1382.710938 794.355469 1370.613281 C 796.234375 1347.890625 802.773438 1323.738281 799.851562 1301.191406 C 775.886719 1286.53125 728.738281 1328.855469 694.789062 1306.984375 C 674.167969 1296.722656 659.386719 1277.3125 656.730469 1254.238281 C 649.917969 1213.535156 667.339844 1174.964844 685.226562 1139.496094 C 704.28125 1101.542969 744.082031 1078.351562 763.339844 1041.226562 C 749.664062 1029.839844 730.132812 1029.59375 714.617188 1021.371094 C 688.785156 1009.890625 659.949219 984.351562 663.921875 953.535156 C 670.375 931.332031 685.945312 912.960938 702.128906 897.027344 C 740.746094 857.242188 791.539062 834.152344 843.449219 817.09375 C 829.691406 812.808594 821.628906 796.527344 829.792969 783.8125 C 838.761719 768.46875 859.789062 759.839844 861.421875 740.578125 C 842.648438 716.554688 839.949219 684.613281 849.085938 655.921875 C 857.003906 623.363281 874.640625 594.375 909.054688 585.878906 C 914.640625 584.691406 922.625 582.089844 931.078125 579.976562 C 931.507812 579.886719 931.921875 579.804688 932.328125 579.742188 C 934.3125 579.382812 936.308594 578.921875 938.257812 578.351562 C 940.507812 577.90625 942.75 577.53125 944.949219 577.261719 C 946.316406 577.585938 947.957031 577.488281 949.195312 577.523438 C 950.882812 577.570312 952.574219 577.542969 954.269531 577.511719 C 954.648438 577.519531 955.019531 577.511719 955.414062 577.511719 C 955.867188 577.539062 956.320312 577.554688 956.773438 577.554688 C 957.085938 577.875 957.4375 578.140625 957.84375 578.328125 C 960.691406 579.550781 963.675781 580.394531 966.660156 581.277344 C 967.074219 581.453125 967.480469 581.65625 967.875 581.84375 C 969.222656 583.105469 970.34375 584.632812 971.230469 586.484375 C 976.074219 598.835938 965.273438 608.925781 953.164062 607.574219 C 931.03125 611.949219 905.933594 613.726562 891.726562 632.621094 C 879.691406 654.957031 870.125 682.425781 877.734375 707.660156 C 879.480469 712.273438 882.242188 715.617188 884.933594 719.378906 C 902.921875 743.175781 884.84375 773.457031 865.414062 790.082031 C 875.191406 790.40625 885.65625 789.046875 894.726562 793.382812 C 905.15625 798.53125 907.253906 813.179688 899.667969 821.667969 C 880.132812 840.589844 851.230469 845.925781 826.679688 856.058594 C 774.375 875.253906 718.601562 908.328125 694.109375 960.378906 C 707.320312 1001.785156 759.734375 993.808594 785.953125 1019.941406 C 820.878906 1059.246094 733.753906 1112.988281 716.441406 1147.519531 C 700.375 1176.847656 684.167969 1208.691406 686.441406 1243.066406 C 686.761719 1261.152344 698.003906 1277.464844 715.757812 1282.199219 C 746.964844 1281.765625 777.363281 1258.035156 809 1270.246094 C 837.4375 1280.933594 832.570312 1315.714844 829.074219 1339.878906 C 827.789062 1357.980469 824.371094 1375.789062 821.660156 1393.617188 C 824.101562 1403.769531 824.207031 1415.125 814.296875 1419.359375 C 813.011719 1419.90625 811.550781 1420.34375 809.894531 1420.640625 Z M 809.894531 1420.640625 "/>
<path fill-rule="nonzero" fill="rgb(0%, 0%, 0%)" fill-opacity="1" d="M 965.351562 603.210938 C 954.589844 611.988281 969.613281 631.183594 971.027344 642.523438 C 983.484375 676.992188 987.042969 713.40625 995.476562 748.636719 C 998.84375 794.390625 995.117188 840.273438 991.960938 885.855469 C 993.078125 925.074219 987.03125 963.902344 985.679688 1002.996094 C 983.675781 1058.433594 989.433594 1114.140625 991.953125 1169.148438 C 990.6875 1195.453125 989.292969 1221.644531 988.914062 1247.964844 C 987.910156 1271.117188 995.308594 1293.703125 995.714844 1316.722656 C 994.207031 1330.359375 993.792969 1344.132812 992.582031 1357.757812 C 987.179688 1378.121094 986.03125 1398.734375 981.460938 1419.15625 C 980.429688 1424.339844 980.453125 1430.050781 979.757812 1434.960938 C 974.324219 1420.441406 974.871094 1404.832031 971.90625 1389.765625 C 970.605469 1366.847656 971.164062 1343.617188 971.914062 1320.664062 C 972.859375 1305.148438 970.539062 1289.789062 968.015625 1274.535156 C 964.21875 1248.574219 966.578125 1219.777344 968.230469 1194.152344 C 971.984375 1139.652344 959.929688 1085.0625 962.328125 1030.542969 C 960.132812 994.988281 965.058594 959.957031 968.507812 924.714844 C 969.183594 899.347656 968.53125 873.886719 970.691406 848.640625 C 970.78125 848.292969 970.855469 847.957031 970.90625 847.636719 C 971.039062 846.867188 971.179688 845.71875 971.054688 844.671875 C 971.257812 842.597656 971.480469 840.523438 971.726562 838.453125 C 971.878906 837.75 971.972656 837.035156 971.984375 836.335938 C 972.113281 835.34375 972.242188 834.347656 972.378906 833.355469 C 972.410156 832.703125 972.4375 832.054688 972.464844 831.402344 C 972.59375 830.847656 972.703125 830.292969 972.804688 829.742188 C 973.164062 827.902344 973.714844 825.546875 972.949219 823.757812 C 972.898438 823.636719 972.84375 823.523438 972.78125 823.410156 C 973.621094 799.925781 973.609375 776.511719 972.183594 753.015625 C 965.921875 726.253906 962.40625 698.839844 959.195312 671.488281 C 957.164062 658.308594 957.003906 645.027344 956.527344 631.75 C 955.492188 622.21875 953.632812 607.203125 964.625 603.21875 C 964.578125 603.203125 964.527344 603.167969 964.480469 603.148438 C 964.300781 603.078125 964.601562 602.988281 964.734375 603.078125 C 964.730469 603.117188 964.972656 603.070312 964.980469 603.085938 C 965.128906 603.023438 965.285156 603.011719 965.335938 603.128906 C 965.34375 603.152344 965.351562 603.179688 965.351562 603.210938 Z M 965.351562 603.210938 "/>
<path fill-rule="nonzero" fill="rgb(0%, 0%, 0%)" fill-opacity="1" d="M 967.457031 1012.183594 C 967.457031 1012.183594 967.449219 1012.164062 967.433594 1012.171875 C 967.433594 1012.171875 967.433594 1012.171875 967.449219 1012.164062 C 967.371094 1012.171875 967.203125 1012.164062 967.132812 1012.207031 C 967.132812 1012.210938 967.128906 1012.214844 967.125 1012.21875 C 967.625 1014.234375 967.992188 1015.734375 967.070312 1017.859375 C 958.566406 1041.992188 941.304688 1061.109375 927.144531 1081.957031 C 915.109375 1099.605469 908.921875 1120.945312 894.867188 1137.171875 C 887.914062 1144.746094 879.246094 1150.460938 872.582031 1158.320312 C 864.050781 1168.460938 856.921875 1179.847656 846.574219 1188.308594 C 833.570312 1200.035156 824.53125 1216.417969 808.769531 1224.828125 C 790.132812 1231.644531 775.410156 1246.066406 755.671875 1249.726562 C 751 1250.398438 745.878906 1252.050781 741.363281 1251.695312 C 746.789062 1249.28125 752.519531 1245.585938 757.4375 1242.578125 C 765.933594 1236.527344 773.382812 1229.304688 780.421875 1221.675781 C 786.625 1216.09375 794.113281 1212.316406 800.367188 1206.75 C 813.246094 1192.503906 824.925781 1177.191406 839.195312 1164.203125 C 852.535156 1148.761719 864.496094 1135.105469 878.886719 1121.125 C 888.460938 1109.589844 894.878906 1096.019531 902.695312 1083.335938 C 919.285156 1056.15625 952 1037.808594 967.457031 1012.183594 Z M 967.457031 1012.183594 "/>
<path fill-rule="nonzero" fill="rgb(0%, 0%, 0%)" fill-opacity="1" d="M 981.675781 853.976562 C 977.441406 855.785156 972.691406 855.152344 969.074219 852.734375 C 969.214844 852.359375 969.359375 852 969.503906 851.640625 C 969.511719 851.617188 969.503906 851.601562 969.519531 851.59375 C 970.242188 850.253906 970.722656 848.832031 970.925781 847.636719 C 971.070312 846.65625 971.261719 845.09375 970.894531 843.882812 C 971.042969 842.730469 971.1875 841.582031 971.148438 840.4375 C 971.757812 838.789062 972.167969 836.8125 971.933594 835.074219 C 971.890625 834.847656 971.851562 834.621094 971.804688 834.378906 C 971.855469 834.058594 971.898438 833.722656 971.917969 833.414062 C 972.320312 832.210938 972.574219 830.957031 972.824219 829.746094 C 972.867188 829.515625 972.910156 829.277344 972.957031 829.035156 C 979.199219 827.335938 986.050781 830.503906 988.652344 836.59375 C 991.488281 843.238281 988.320312 851.136719 981.675781 853.976562 Z M 981.675781 853.976562 "/>
<path fill-rule="nonzero" fill="rgb(0%, 0%, 0%)" fill-opacity="1" d="M 970.089844 848.40625 C 970.023438 848.734375 969.9375 849.054688 969.871094 849.382812 C 969.9375 849.054688 970.019531 848.71875 970.089844 848.40625 Z M 970.089844 848.40625 "/>
<path fill-rule="nonzero" fill="rgb(0%, 0%, 0%)" fill-opacity="1" d="M 972.347656 849.425781 C 975.367188 858.636719 970.054688 868.105469 967.507812 876.84375 C 957.6875 909.335938 920.636719 919.78125 891.558594 928.792969 C 868.894531 937.105469 844.824219 940.714844 822.476562 949.71875 C 807.054688 953.25 790.632812 956.910156 775.746094 961.734375 C 768.316406 964.890625 760 966.753906 752.199219 967.40625 C 766.386719 959.84375 778.453125 949.15625 793.089844 942.25 C 830.742188 922.019531 873.515625 915.050781 913.40625 900.445312 C 925.714844 895.597656 939.042969 891.722656 949.398438 883.175781 C 954.339844 878.457031 958.125 872.226562 961.851562 866.640625 C 964.644531 861.84375 968.519531 857.304688 969.453125 851.761719 C 969.472656 851.71875 969.488281 851.675781 969.503906 851.632812 C 969.515625 851.609375 969.515625 851.609375 969.523438 851.585938 C 970.234375 850.269531 970.722656 848.824219 970.910156 847.636719 C 970.925781 847.539062 970.945312 847.4375 970.960938 847.328125 C 971.507812 847.953125 972 848.609375 972.320312 849.359375 C 972.332031 849.378906 972.339844 849.402344 972.347656 849.425781 Z M 972.347656 849.425781 "/>
<path fill-rule="nonzero" fill="rgb(0%, 0%, 0%)" fill-opacity="1" d="M 969.855469 849.382812 C 969.9375 849.054688 970.007812 848.75 970.085938 848.421875 C 970.097656 848.417969 970.097656 848.417969 970.097656 848.417969 C 970.011719 848.734375 969.945312 849.0625 969.855469 849.382812 Z M 969.855469 849.382812 "/>
<path fill-rule="nonzero" fill="rgb(0%, 0%, 0%)" fill-opacity="1" d="M 969.773438 850.992188 C 969.769531 850.976562 969.777344 850.953125 969.785156 850.929688 C 969.777344 850.953125 969.785156 850.96875 969.773438 850.992188 Z M 969.773438 850.992188 "/>
<path fill-rule="nonzero" fill="rgb(0%, 0%, 0%)" fill-opacity="1" d="M 974.769531 711.679688 C 974.339844 711.863281 973.902344 711.8125 973.480469 711.65625 C 971.894531 712.851562 971.652344 715.03125 971.257812 716.710938 C 970.164062 727.878906 959.835938 734.417969 951.097656 739.792969 C 943.347656 744.960938 933.976562 746.8125 926.167969 751.671875 C 924.421875 756.632812 921.734375 761.15625 919.382812 765.8125 C 919.359375 759.417969 917.289062 751.761719 919.867188 745.65625 C 928.621094 735.15625 942.722656 730.09375 954.273438 723.539062 C 962.035156 721.152344 964.59375 713.207031 970.953125 709.242188 C 972.539062 708.066406 977.558594 709.53125 974.769531 711.679688 Z M 974.769531 711.679688 "/>
<path fill-rule="nonzero" fill="rgb(0%, 0%, 0%)" fill-opacity="1" d="M 1230.03125 1160.65625 C 1220.125 1160.726562 1211.390625 1154.585938 1202.90625 1150.136719 C 1190.96875 1144.304688 1178.5625 1137.179688 1167.984375 1129.589844 C 1145.792969 1115.96875 1124.484375 1101.929688 1103.539062 1086.535156 C 1089.410156 1076.519531 1074.550781 1067.351562 1061.664062 1055.710938 C 1049.277344 1043.484375 1037.738281 1028.054688 1026.765625 1015.546875 C 1011.308594 997.421875 990.824219 981.164062 983.660156 957.703125 C 983.316406 956.023438 982.757812 953.660156 983.5 952.28125 C 984.109375 955.511719 986.46875 958.234375 988.433594 960.820312 C 1002.734375 975.8125 1020.386719 987.042969 1035.976562 1000.585938 C 1051.597656 1013.28125 1063.613281 1029.480469 1078.285156 1043.128906 C 1086.925781 1049.996094 1096.078125 1056.269531 1105.148438 1062.558594 C 1128.351562 1079.046875 1152.574219 1094.265625 1174.832031 1112.027344 C 1186.992188 1123.5625 1199.492188 1134.625 1211.875 1145.894531 C 1217.34375 1151.367188 1222.9375 1157.75 1230.03125 1160.65625 Z M 1230.03125 1160.65625 "/>
<path fill-rule="nonzero" fill="rgb(0%, 0%, 0%)" fill-opacity="1" d="M 1201.8125 861.902344 C 1195.246094 864.054688 1188.46875 863.511719 1181.699219 863.453125 C 1170.179688 864.449219 1158.039062 866.390625 1146.683594 863.839844 C 1131.042969 863.75 1117.105469 855 1101.554688 854.125 C 1074.132812 854.527344 1048.496094 842.769531 1024.601562 830.359375 C 1012.675781 822.628906 1001.109375 812.097656 995.507812 798.816406 C 994.957031 797.253906 993.125 796.421875 992.382812 795.410156 C 995.308594 795.957031 997.519531 797.722656 999.335938 800.027344 C 1005.847656 806.203125 1014.140625 810.230469 1021.992188 814.445312 C 1049.164062 824.273438 1077.839844 830.035156 1106.566406 832.691406 C 1122.425781 834.226562 1135.160156 845.050781 1150.625 847.902344 C 1159.957031 852.082031 1169.839844 854 1179.761719 855.890625 C 1187.25 857.753906 1194.402344 861.296875 1201.8125 861.902344 Z M 1201.8125 861.902344 "/>
<path fill-rule="nonzero" fill="rgb(0%, 0%, 0%)" fill-opacity="1" d="M 1055.109375 707.648438 C 1041.328125 715.964844 1025.839844 708.566406 1011.191406 707.179688 C 997.144531 708.925781 988.433594 696.335938 976.773438 691.308594 C 976.777344 691.308594 976.777344 691.304688 976.777344 691.304688 C 976.777344 691.304688 976.777344 691.308594 976.773438 691.308594 C 976.769531 691.3125 976.765625 691.3125 976.765625 691.316406 C 976.769531 691.3125 976.769531 691.3125 976.773438 691.308594 C 976.117188 692.054688 975.335938 690.773438 975.828125 690.964844 C 975.871094 691.027344 976.019531 691.101562 976.144531 691.089844 C 984.464844 686.890625 995.226562 694.8125 1004.128906 694.695312 C 1022.746094 690.6875 1037.636719 706.617188 1055.109375 707.648438 Z M 1055.109375 707.648438 "/>
<path fill-rule="nonzero" fill="rgb(0%, 0%, 0%)" fill-opacity="1" d="M 1138.222656 1323.519531 C 1116.148438 1313.886719 1097.8125 1298.332031 1080.382812 1282.019531 C 1063.460938 1266.5625 1046.167969 1250.964844 1036.0625 1229.984375 C 1030.046875 1219.046875 1020.667969 1210.5 1013.804688 1200.136719 C 1008.757812 1192.980469 1006.027344 1184.636719 1002.394531 1176.75 C 996.292969 1166.976562 990.324219 1156.550781 985.292969 1146.480469 C 996.1875 1156.269531 1008.820312 1165.910156 1017.109375 1177.722656 C 1025.144531 1190.582031 1037.699219 1199.234375 1047.808594 1210.210938 C 1054.652344 1218.398438 1058.820312 1228.207031 1064.527344 1237.125 C 1072.820312 1248.710938 1082.441406 1259.367188 1091.628906 1270.242188 C 1106.679688 1288.332031 1122.003906 1306.890625 1138.222656 1323.519531 Z M 1138.222656 1323.519531 "/>
<path fill-rule="nonzero" fill="rgb(0%, 0%, 0%)" fill-opacity="1" d="M 973.324219 1148.058594 C 964.925781 1154.4375 954.90625 1158.542969 947.335938 1165.972656 C 940.429688 1179.167969 933.117188 1192.085938 927.613281 1205.953125 C 915.394531 1229.382812 894.535156 1246.675781 871.542969 1258.914062 C 864.699219 1263.140625 857.179688 1266.421875 848.964844 1266.066406 C 847.871094 1266.050781 845.875 1266.042969 845.191406 1265.128906 C 845.277344 1265.136719 845.347656 1265.152344 845.449219 1265.167969 C 856.886719 1263.109375 863.828125 1252.421875 871.5625 1244.65625 C 876.269531 1239.871094 881.109375 1235.269531 885.519531 1230.445312 C 904.667969 1207.253906 914.8125 1178.933594 936.898438 1157.902344 C 947.25 1150.382812 961.429688 1150.488281 973.324219 1148.058594 Z M 973.324219 1148.058594 "/>
<path fill-rule="nonzero" fill="rgb(0%, 0%, 0%)" fill-opacity="1" d="M 964.773438 1245.1875 C 961.464844 1261.613281 948.628906 1275.085938 940.535156 1288.878906 C 933.65625 1301.984375 919.992188 1309.71875 912.140625 1321.949219 C 897.484375 1346.738281 884.5 1372.804688 867.851562 1396.304688 C 866.960938 1398.34375 866.304688 1400.511719 866.300781 1402.726562 C 864.160156 1399.457031 864.953125 1394.300781 865.75 1390.507812 C 870.8125 1374.535156 874.265625 1357.957031 880.867188 1342.5 C 888.164062 1322.476562 896.726562 1301.40625 915.824219 1289.894531 C 925.089844 1283.390625 931.503906 1273.699219 940.328125 1266.710938 C 949.792969 1261.015625 958.074219 1253.457031 964.773438 1245.1875 Z M 964.773438 1245.1875 "/>
<path fill-rule="nonzero" fill="rgb(0%, 0%, 0%)" fill-opacity="1" d="M 1045.265625 1390.132812 C 1047.753906 1398.140625 1052.253906 1406.179688 1053.15625 1414.347656 C 1035.398438 1397.480469 1023.992188 1375.550781 1009.0625 1356.792969 C 999.886719 1347.195312 996.203125 1333.398438 992.25 1321.207031 C 1005.929688 1335.386719 1021.667969 1347.863281 1033.125 1363.953125 C 1038.242188 1372.03125 1041.933594 1381.1875 1045.265625 1390.132812 Z M 1045.265625 1390.132812 "/>
<path fill-rule="nonzero" fill="rgb(0%, 0%, 0%)" fill-opacity="1" d="M 962.136719 607.71875 C 938.433594 588.175781 973.28125 574.332031 985.355469 562.425781 C 984.503906 548.867188 984.132812 535.972656 986.566406 522.605469 C 975.785156 496.988281 1015.972656 490.285156 1017.316406 517.519531 C 1018.195312 527.238281 1014.828125 536.65625 1015.414062 546.375 C 1017.597656 561.148438 1016.796875 577.648438 1004.125 587.597656 C 997.5625 593.511719 989.367188 597.101562 982.777344 602.957031 C 978.375 609.53125 969.015625 611.921875 962.136719 607.71875 Z M 962.136719 607.71875 "/>
</svg>
