<?xml version="1.0" encoding="UTF-8"?>
<!-- Created by grConvert v0.1-0 -->
<svg xmlns="http://www.w3.org/2000/svg" xmlns:xlink="http://www.w3.org/1999/xlink" width="2000" height="2000" viewBox="0 0 2000 2000">
<path fill-rule="nonzero" fill="rgb(0%, 79.215688%, 93.725491%)" fill-opacity="1" d="M 1321.882812 1003.675781 C 1321.835938 1019.109375 1323.746094 1034.554688 1323.050781 1050 C 1306.484375 1055.234375 1301.414062 1064.847656 1302.351562 1079.59375 C 1301.949219 1085.105469 1301.625 1090.648438 1301.300781 1096.191406 C 1297.945312 1076.046875 1293.796875 1056.027344 1286.339844 1036.675781 C 1265.851562 984.550781 1240.246094 934.066406 1214.878906 883.65625 C 1170.144531 802.425781 1129.382812 716.085938 1059.492188 648.742188 C 1080.304688 650.394531 1098.699219 653.019531 1120.386719 657.671875 C 1146.464844 662.273438 1172.542969 667.671875 1194.992188 680.6875 C 1234.945312 703.765625 1274.878906 729.925781 1300.3125 766.039062 C 1336.8125 831.859375 1346.015625 906.074219 1352.113281 978.3125 C 1337.960938 981.878906 1321.476562 988.71875 1321.882812 1003.675781 Z M 1321.882812 1003.675781 "/>
<path fill-rule="nonzero" fill="rgb(0%, 79.215688%, 93.725491%)" fill-opacity="1" d="M 1275.433594 1143.566406 C 1275.949219 1146.046875 1276.972656 1148.105469 1278.332031 1149.777344 C 1269.582031 1152.613281 1262.871094 1157.667969 1260.859375 1167.765625 C 1255.449219 1179.417969 1249.582031 1190.847656 1244.425781 1202.53125 C 1242.140625 1196.242188 1239.644531 1190.035156 1236.824219 1183.910156 C 1202.753906 1112.5625 1165.152344 1042.105469 1115.832031 977.679688 C 1103.335938 962.867188 1062.6875 898.8125 1036.671875 891.066406 C 1036.785156 828.792969 1036.429688 766.523438 1036.949219 704.269531 C 1036.996094 692.679688 1037.011719 681.074219 1036.964844 669.488281 C 1104.910156 738.660156 1145.996094 823.800781 1190.046875 905.667969 C 1212.804688 952.316406 1236.582031 998.085938 1255.171875 1046.273438 C 1267.183594 1077.683594 1269.792969 1111.007812 1275.433594 1143.566406 Z M 1275.433594 1143.566406 "/>
<path fill-rule="nonzero" fill="rgb(0%, 79.215688%, 93.725491%)" fill-opacity="1" d="M 1216.160156 1220.457031 C 1216.824219 1222.273438 1217.730469 1223.796875 1218.832031 1225.09375 C 1207.585938 1227.929688 1199.140625 1234.882812 1197.34375 1247.28125 C 1195.414062 1253.085938 1192.886719 1258.660156 1190.097656 1264.136719 C 1177.375 1242.386719 1163.566406 1220.976562 1147.421875 1201.007812 C 1130.453125 1178.851562 1109.851562 1159.289062 1087.515625 1141.152344 C 1076.398438 1131.769531 1065.472656 1122.222656 1054 1113.179688 C 1047.128906 1108.492188 1040.96875 1100.8125 1032.71875 1098.105469 C 1035.296875 1041.570312 1036.21875 985.007812 1036.542969 928.441406 C 1043.335938 935.621094 1049.574219 943.222656 1055.863281 950.695312 C 1084.535156 987.484375 1112.25 1024.957031 1136.496094 1064.132812 C 1166.464844 1114.703125 1195.65625 1166.339844 1216.160156 1220.457031 Z M 1216.160156 1220.457031 "/>
<path fill-rule="nonzero" fill="rgb(0%, 79.215688%, 93.725491%)" fill-opacity="1" d="M 1170.097656 1284.203125 C 1170.015625 1284.269531 1169.917969 1284.351562 1169.835938 1284.445312 C 1153.191406 1282.84375 1147.179688 1292.292969 1139.578125 1306.847656 C 1124.097656 1328.433594 1112.753906 1352.246094 1094.535156 1372.328125 C 1066.59375 1363.589844 1057.484375 1385.179688 1048.261719 1403.378906 C 1043.609375 1411.972656 1039.167969 1420.640625 1034.890625 1429.378906 C 1024.839844 1331.222656 1032.378906 1232.535156 1031.210938 1134.054688 C 1052.328125 1151.039062 1072.769531 1168.691406 1092.882812 1186.582031 C 1120.191406 1213.585938 1141.199219 1244.105469 1160.210938 1276.441406 C 1162.527344 1280.734375 1166.125 1283.199219 1170.097656 1284.203125 Z M 1170.097656 1284.203125 "/>
<path fill-rule="nonzero" fill="rgb(0%, 79.215688%, 93.725491%)" fill-opacity="1" d="M 998.050781 1167.394531 C 997.984375 1184.882812 998.050781 1202.371094 998.148438 1219.859375 C 996.394531 1286.847656 994.726562 1353.914062 1000.886719 1420.691406 C 993.414062 1407.222656 985.894531 1393.769531 978.082031 1380.429688 C 971.386719 1366.347656 959.507812 1347.429688 939.019531 1357.429688 C 931.839844 1346.152344 926.507812 1335.273438 920.234375 1322.015625 C 917.253906 1314.902344 913.234375 1306.085938 907.285156 1299.957031 C 907.285156 1299.957031 907.285156 1299.941406 907.285156 1299.941406 C 911.9375 1294.203125 913.816406 1286.359375 917.449219 1280.199219 C 925.730469 1260.898438 932.941406 1244.300781 945.859375 1225.871094 C 951.078125 1215.335938 977.59375 1190.960938 998.050781 1167.394531 Z M 998.050781 1167.394531 "/>
<path fill-rule="nonzero" fill="rgb(0%, 79.215688%, 93.725491%)" fill-opacity="1" d="M 1003.429688 982.574219 C 1003.105469 1004.8125 1002.507812 1027.066406 1001.519531 1049.320312 C 1000.15625 1071.085938 999.28125 1092.871094 998.761719 1114.667969 C 991.5 1119.191406 986.996094 1129.222656 982.570312 1135.917969 C 965.210938 1159.96875 943.769531 1177.734375 924.480469 1201.691406 C 905.390625 1225.304688 894.222656 1252.582031 882.277344 1279.292969 C 880.835938 1282.015625 879.261719 1284.691406 877.882812 1287.445312 C 877.851562 1287.527344 877.804688 1287.589844 877.785156 1287.671875 C 864.480469 1268.027344 851.675781 1248.109375 839.78125 1227.785156 C 835.96875 1221.105469 832.566406 1215.09375 828.578125 1210.359375 C 837.136719 1203.179688 837.851562 1187.003906 843.378906 1177.929688 C 860.867188 1130.699219 890.511719 1087.910156 930.980469 1052.105469 C 954.726562 1030.648438 975.292969 1006.726562 999.539062 985.703125 C 1000.675781 984.488281 1002.003906 983.464844 1003.429688 982.574219 Z M 1003.429688 982.574219 "/>
<path fill-rule="nonzero" fill="rgb(0%, 79.215688%, 93.725491%)" fill-opacity="1" d="M 1003.1875 797.433594 C 1003.253906 848.714844 1004.015625 899.945312 1003.738281 951.195312 C 978.164062 952.332031 942.359375 1000.890625 926.847656 1013.242188 C 904.609375 1034.957031 880.105469 1055.105469 862.324219 1079.96875 C 833.636719 1114.976562 815.304688 1155.335938 801.804688 1196.503906 C 801.464844 1197.652344 801.335938 1198.789062 801.351562 1199.921875 C 798.917969 1200.183594 796.308594 1200.652344 793.488281 1201.316406 C 774.640625 1180.796875 771.445312 1149.5 750.976562 1130.359375 C 754.234375 1125.398438 755.726562 1118.707031 757.214844 1113.179688 C 768.871094 1080.519531 781.980469 1048.136719 797.316406 1016.628906 C 824.105469 965.136719 851.789062 914.0625 884.253906 865.066406 C 917.171875 808.777344 949.605469 751.839844 994.792969 702.03125 C 997.140625 699.066406 1000.464844 695.355469 1004.046875 691.171875 C 1003.917969 726.585938 1003.332031 762.019531 1003.1875 797.433594 Z M 1003.1875 797.433594 "/>
<path fill-rule="nonzero" fill="rgb(0%, 79.215688%, 93.725491%)" fill-opacity="1" d="M 932.683594 652.972656 C 953.234375 650.441406 974.0625 648.320312 994.953125 647.363281 C 978.242188 679.859375 947.546875 705.128906 927.238281 736.085938 C 900.898438 771.222656 880.414062 809.265625 858.175781 846.414062 C 812.90625 917.355469 770.410156 990.242188 739.890625 1067.117188 C 733.324219 1084.035156 726.128906 1100.910156 721.574219 1118.347656 C 720.585938 1117.941406 719.664062 1117.390625 718.851562 1116.679688 C 714.425781 1090.890625 710.195312 1064.199219 696.597656 1040.730469 C 690.828125 1032.269531 678.65625 1032.511719 670.113281 1027.503906 C 669.660156 1010.078125 676.078125 992.867188 674.832031 975.574219 C 672.804688 963.871094 658.609375 962.800781 648.414062 959.058594 C 652.109375 936.1875 650.277344 912.621094 657.539062 890.238281 C 671.152344 855.214844 693.128906 823.171875 711.039062 789.765625 C 729.875 753.847656 744.378906 737.898438 781.445312 715.648438 C 802.710938 696.699219 830.65625 686.8125 858.46875 677.414062 C 883.605469 668.757812 906.152344 659.535156 932.683594 652.972656 Z M 932.683594 652.972656 "/>
</svg>
