<?xml version="1.0" encoding="UTF-8"?>
<!-- Created by grConvert v0.1-0 -->
<svg xmlns="http://www.w3.org/2000/svg" xmlns:xlink="http://www.w3.org/1999/xlink" width="2000" height="2000" viewBox="0 0 2000 2000">
<path fill-rule="nonzero" fill="rgb(0%, 0%, 0%)" fill-opacity="1" d="M 706.8125 737.085938 C 717.152344 722.855469 731.402344 711.476562 747.492188 702.351562 C 759.566406 694.578125 770.125 685.226562 782.230469 677.523438 C 804.613281 663.976562 830.730469 656.257812 855.757812 647.257812 C 880.863281 638.863281 905.449219 628.328125 931.929688 623.664062 C 984.3125 617.890625 1037.59375 615.097656 1089.917969 622.898438 C 1137.046875 630.332031 1185.921875 637.929688 1225.195312 663.507812 C 1280.453125 695.9375 1332.664062 738.042969 1349.925781 796.148438 C 1366.964844 840.417969 1375.660156 886.617188 1380.605469 932.996094 C 1380.863281 950.140625 1397.40625 997.613281 1369.230469 1000.316406 C 1367.179688 1002.996094 1364.101562 1005.121094 1361.753906 1005.785156 C 1359.503906 1006.535156 1357.175781 1007.25 1354.902344 1008.050781 C 1355.460938 1019.433594 1356.125 1030.816406 1356.210938 1042.207031 C 1357.503906 1057.269531 1354.109375 1071.90625 1335.46875 1076.671875 C 1334.265625 1100.230469 1332.953125 1123.886719 1329.078125 1147.246094 C 1326.28125 1167.117188 1314.167969 1174.257812 1292.441406 1176.363281 C 1286.390625 1191.71875 1276.757812 1205.761719 1271.835938 1221.492188 C 1265.085938 1243.804688 1258.332031 1254.136719 1229.875 1252.609375 C 1225.175781 1269.101562 1215.667969 1283.316406 1208.503906 1298.125 C 1202.785156 1311.742188 1188.800781 1320.175781 1172.390625 1314.460938 C 1154.320312 1341.054688 1139.851562 1369.851562 1117.066406 1393.824219 C 1110.082031 1402.886719 1097.527344 1403.574219 1086.542969 1400.28125 C 1070.839844 1426.265625 1060.191406 1454.15625 1045.664062 1480.523438 C 1040.042969 1491.335938 1028.636719 1504.867188 1013.296875 1498.25 C 1003.265625 1493.390625 1000.082031 1482.554688 994.355469 1474.480469 C 977.230469 1445.253906 961.632812 1415.371094 944.574219 1386.113281 C 927.226562 1390.414062 914.570312 1381.652344 908.265625 1368.09375 C 899.175781 1353.609375 892.425781 1338.238281 884.871094 1323.121094 C 870.492188 1325.4375 858.152344 1317.480469 852.128906 1306.527344 C 834.964844 1281.308594 819.191406 1255.378906 803.367188 1229.523438 C 750.878906 1236.867188 750.828125 1173.945312 725.289062 1148.34375 C 694.882812 1146.359375 684.636719 1128.394531 683.273438 1104.085938 C 680.886719 1088.632812 676.453125 1073.488281 670.066406 1058.925781 C 625.976562 1048.75 637.148438 1017.929688 641.394531 987.585938 C 623.074219 983.316406 609.648438 972.476562 615.882812 954.871094 C 617.488281 943.921875 617.71875 932.867188 618.671875 921.863281 C 619.527344 891.726562 631.914062 863.546875 647.480469 837.042969 C 667.039062 803.644531 683.753906 768.8125 706.8125 737.085938 Z M 711.046875 789.773438 C 693.128906 823.179688 671.15625 855.210938 657.539062 890.234375 C 650.28125 912.621094 652.105469 936.195312 648.410156 959.058594 C 658.617188 962.796875 672.816406 963.878906 674.839844 975.566406 C 676.082031 992.867188 669.660156 1010.078125 670.117188 1027.5 C 678.65625 1032.507812 690.828125 1032.269531 696.601562 1040.730469 C 710.207031 1064.195312 714.425781 1090.902344 718.855469 1116.683594 C 723.714844 1120.976562 732.183594 1118.78125 738.042969 1121.339844 C 770.8125 1137.859375 771.242188 1177.109375 793.488281 1201.324219 C 821.082031 1194.757812 828.777344 1208.472656 839.78125 1227.789062 C 853.019531 1250.390625 867.386719 1272.511719 882.292969 1294.296875 C 904.054688 1286.410156 914.230469 1307.683594 920.234375 1322.015625 C 926.507812 1335.273438 931.835938 1346.15625 939.03125 1357.429688 C 959.511719 1347.433594 971.394531 1366.351562 978.078125 1380.4375 C 993.097656 1406.070312 1007.070312 1432.164062 1021.613281 1457.976562 C 1029.765625 1439.496094 1038.566406 1421.296875 1048.261719 1403.378906 C 1057.484375 1385.183594 1066.59375 1363.585938 1094.535156 1372.335938 C 1112.757812 1352.25 1124.109375 1328.441406 1139.585938 1306.84375 C 1148.375 1290.007812 1155.046875 1279.988281 1178.515625 1286.035156 C 1184.984375 1273.121094 1192.859375 1260.851562 1197.34375 1247.285156 C 1200 1229.046875 1217.019531 1222.578125 1236.25 1223.667969 C 1242.488281 1204.328125 1252.242188 1186.332031 1260.871094 1167.769531 C 1264.058594 1151.691406 1279.222656 1148.359375 1295.441406 1146.507812 C 1300.433594 1124.550781 1300.714844 1101.902344 1302.351562 1079.601562 C 1301.421875 1064.84375 1306.484375 1055.230469 1323.058594 1050.007812 C 1323.753906 1034.550781 1321.84375 1019.101562 1321.886719 1003.671875 C 1321.472656 988.714844 1337.957031 981.875 1352.113281 978.316406 C 1346.023438 906.070312 1336.816406 831.863281 1300.308594 766.039062 C 1274.886719 729.929688 1234.941406 703.761719 1195 680.695312 C 1172.539062 667.679688 1146.460938 662.277344 1120.394531 657.679688 C 1096.859375 652.613281 1077.1875 649.964844 1054.097656 648.3125 C 1013.777344 644.699219 972.683594 648.050781 932.683594 652.972656 C 906.148438 659.539062 883.605469 668.765625 858.476562 677.417969 C 830.652344 686.816406 802.722656 696.707031 781.457031 715.648438 C 744.375 737.898438 729.878906 753.84375 711.046875 789.773438 Z M 711.046875 789.773438 "/>
<path fill-rule="nonzero" fill="rgb(0%, 0%, 0%)" fill-opacity="1" d="M 1004.042969 1449.492188 C 994.25 1373.203125 996.132812 1296.480469 998.144531 1219.867188 C 997.8125 1163.007812 997.957031 1106.132812 1001.519531 1049.320312 C 1005.261719 965.320312 1003.308594 881.433594 1003.195312 797.429688 C 1003.425781 736.144531 1005.03125 674.816406 1003.238281 613.628906 C 1003.824219 613.914062 1004.421875 614.179688 1005.039062 614.425781 C 1008.210938 615.164062 1010.757812 615.488281 1013.414062 615.488281 C 1015.550781 615.488281 1017.746094 615.277344 1020.382812 614.890625 C 1021.769531 614.699219 1023.039062 614.230469 1024.347656 613.878906 C 1025.53125 613.992188 1026.710938 614.152344 1027.871094 614.265625 C 1030.839844 614.5625 1033.582031 614.25 1036.109375 613.488281 C 1036.996094 643.726562 1037.070312 674.003906 1036.945312 704.269531 C 1035.785156 845.886719 1039.121094 987.632812 1031.171875 1129.121094 C 1032.742188 1235.53125 1023.628906 1342.214844 1037.054688 1448.191406 C 1037.371094 1457.832031 1028.777344 1463.015625 1020.253906 1463.015625 C 1012.492188 1463.015625 1004.78125 1458.6875 1004.042969 1449.492188 Z M 1004.042969 1449.492188 "/>
<path fill-rule="nonzero" fill="rgb(0%, 0%, 0%)" fill-opacity="1" d="M 1044.546875 635.007812 C 1123.753906 704.101562 1167.054688 796.808594 1214.875 883.664062 C 1240.242188 934.074219 1265.847656 984.558594 1286.34375 1036.675781 C 1299.019531 1069.597656 1302.179688 1104.445312 1308 1138.609375 C 1311.324219 1157.019531 1279.351562 1162.234375 1275.4375 1143.566406 C 1269.789062 1111.015625 1267.183594 1077.675781 1255.171875 1046.273438 C 1236.578125 998.09375 1212.800781 952.320312 1190.058594 905.664062 C 1143.367188 818.941406 1100.027344 728.535156 1024.574219 657.339844 C 1024.945312 657.6875 1025.3125 658.035156 1025.683594 658.382812 C 1025.929688 658.535156 1026.179688 658.691406 1026.425781 658.84375 C 1011.25 648.269531 1027.382812 626.878906 1044.546875 635.007812 Z M 1044.546875 635.007812 "/>
<path fill-rule="nonzero" fill="rgb(0%, 0%, 0%)" fill-opacity="1" d="M 1027.648438 891.023438 C 1052.023438 881.929688 1101.761719 961 1115.832031 977.6875 C 1165.15625 1042.113281 1202.75 1112.558594 1236.824219 1183.914062 C 1241.058594 1193.0625 1244.519531 1202.460938 1247.714844 1211.914062 C 1253.785156 1229.835938 1222.785156 1238.496094 1216.15625 1220.460938 C 1195.65625 1166.335938 1166.476562 1114.710938 1136.503906 1064.128906 C 1112.257812 1024.960938 1084.535156 987.484375 1055.871094 950.6875 C 1046.40625 939.4375 1037.019531 927.902344 1025.769531 917.945312 C 1012.25 913.265625 1013.328125 894.125 1027.648438 891.023438 Z M 1030.945312 919.097656 C 1031.082031 919.117188 1031.21875 919.136719 1031.351562 919.15625 C 1031.339844 919.15625 1031.324219 919.15625 1031.3125 919.160156 C 1033.375 919.269531 1035.453125 919.070312 1037.4375 918.574219 C 1035.246094 919.042969 1033.078125 919.246094 1030.945312 919.097656 Z M 1030.945312 919.097656 "/>
<path fill-rule="nonzero" fill="rgb(0%, 0%, 0%)" fill-opacity="1" d="M 858.175781 846.410156 C 880.414062 809.261719 900.902344 771.230469 927.242188 736.082031 C 947.859375 704.664062 979.191406 679.082031 995.714844 645.875 C 1001.757812 637.464844 1018.410156 638.382812 1023.246094 646.644531 C 1033.015625 662.324219 1004.914062 689.292969 994.796875 702.03125 C 949.609375 751.835938 917.175781 808.773438 884.25 865.070312 C 851.789062 914.066406 824.117188 965.132812 797.316406 1016.628906 C 781.992188 1048.132812 768.882812 1080.519531 757.222656 1113.1875 C 754.21875 1124.304688 751.183594 1140.175781 733.757812 1137.15625 C 724.953125 1135.476562 719.195312 1127.644531 721.136719 1119.96875 C 725.699219 1101.960938 733.113281 1084.554688 739.902344 1067.117188 C 770.40625 990.238281 812.902344 917.359375 858.175781 846.410156 Z M 858.175781 846.410156 "/>
<path fill-rule="nonzero" fill="rgb(0%, 0%, 0%)" fill-opacity="1" d="M 862.324219 1079.972656 C 880.109375 1055.113281 904.621094 1034.957031 926.851562 1013.242188 C 944.464844 999.222656 988.253906 938.511719 1013.515625 953.554688 C 1020.304688 958.058594 1022.011719 965.355469 1018.535156 972.015625 C 1014.570312 978.761719 1004.9375 979.910156 999.542969 985.707031 C 975.296875 1006.71875 954.722656 1030.652344 930.984375 1052.109375 C 890.511719 1087.910156 860.867188 1130.703125 843.382812 1177.9375 C 835.734375 1190.5 837.3125 1216.71875 814.433594 1213.699219 C 805.859375 1212.050781 799.589844 1204.128906 801.8125 1196.507812 C 815.308594 1155.328125 833.632812 1114.980469 862.324219 1079.972656 Z M 862.324219 1079.972656 "/>
<path fill-rule="nonzero" fill="rgb(0%, 0%, 0%)" fill-opacity="1" d="M 1024.027344 1097.308594 C 1037.078125 1095.5625 1044.917969 1106.984375 1053.996094 1113.175781 C 1065.484375 1122.222656 1076.398438 1131.769531 1087.515625 1141.152344 C 1109.847656 1159.285156 1130.449219 1178.859375 1147.429688 1201.015625 C 1163.652344 1221.074219 1177.503906 1242.601562 1190.273438 1264.441406 C 1198.980469 1281.609375 1169.410156 1293.527344 1160.210938 1276.441406 C 1141.207031 1244.109375 1120.191406 1213.59375 1092.890625 1186.582031 C 1068.871094 1165.222656 1044.371094 1144.191406 1018.835938 1124.199219 C 1005.257812 1118.207031 1008.875 1099.289062 1024.027344 1097.308594 Z M 1024.027344 1097.308594 "/>
<path fill-rule="nonzero" fill="rgb(0%, 0%, 0%)" fill-opacity="1" d="M 1167.125 1287.546875 C 1183.253906 1265.488281 1214.425781 1296.0625 1188.761719 1308.3125 C 1174.398438 1314.296875 1159.65625 1299.410156 1167.125 1287.546875 Z M 1167.125 1287.546875 "/>
<path fill-rule="nonzero" fill="rgb(0%, 0%, 0%)" fill-opacity="1" d="M 924.492188 1201.683594 C 943.773438 1177.742188 965.207031 1159.976562 982.574219 1135.917969 C 989.582031 1125.347656 996.761719 1106.382812 1014.75 1114.101562 C 1050.382812 1129.585938 956.21875 1204.949219 945.859375 1225.871094 C 932.941406 1244.296875 925.742188 1260.894531 917.441406 1280.203125 C 912.414062 1288.777344 910.71875 1300.59375 900.292969 1305.488281 C 887.828125 1311.019531 872.300781 1298.859375 877.894531 1287.445312 C 879.269531 1284.695312 880.839844 1282.019531 882.277344 1279.296875 C 894.21875 1252.585938 905.398438 1225.3125 924.492188 1201.683594 Z M 924.492188 1201.683594 "/>
<path fill-rule="nonzero" fill="rgb(0%, 0%, 0%)" fill-opacity="1" d="M 1002.101562 649.328125 C 1002.101562 649.226562 1002.105469 649.113281 1002.109375 649.007812 C 1002.402344 636.1875 1002.546875 623.351562 1002.765625 610.53125 C 1003.027344 596.332031 1003.265625 582.152344 1003.503906 567.953125 C 1003.746094 554.527344 1003.964844 541.101562 1004.207031 527.65625 C 1004.28125 523.261719 1004.351562 518.882812 1004.425781 514.488281 C 1004.574219 506.632812 1011.75 500.03125 1020.894531 500 C 1029.765625 499.96875 1037.621094 506.503906 1037.476562 514.359375 C 1037.347656 522.652344 1037.199219 530.925781 1037.050781 539.199219 C 1036.773438 555.621094 1036.480469 572.058594 1036.203125 588.476562 C 1036 600.535156 1035.796875 612.59375 1035.574219 624.667969 C 1035.433594 632.574219 1035.339844 640.480469 1035.167969 648.386719 C 1035.171875 648.511719 1035.171875 648.636719 1035.171875 648.765625 C 1035.164062 648.8125 1035.160156 648.855469 1035.15625 648.902344 C 1035.15625 649.003906 1035.152344 649.101562 1035.152344 649.199219 C 1034.984375 657.054688 1027.867188 663.65625 1018.703125 663.6875 C 1018.679688 663.6875 1018.65625 663.6875 1018.636719 663.6875 C 1009.773438 663.6875 1001.992188 657.164062 1002.101562 649.328125 Z M 1002.101562 649.328125 "/>
</svg>
