<?xml version="1.0" encoding="UTF-8"?>
<!-- Created by grConvert v0.1-0 -->
<svg xmlns="http://www.w3.org/2000/svg" xmlns:xlink="http://www.w3.org/1999/xlink" width="2000" height="2000" viewBox="0 0 2000 2000">
<path fill-rule="nonzero" fill="rgb(0%, 0%, 0%)" fill-opacity="1" d="M 970.097656 848.40625 C 970.03125 848.734375 969.941406 849.054688 969.875 849.382812 C 969.941406 849.054688 970.023438 848.71875 970.097656 848.40625 Z M 970.097656 848.40625 "/>
<path fill-rule="nonzero" fill="rgb(0%, 0%, 0%)" fill-opacity="1" d="M 969.863281 849.382812 C 969.941406 849.054688 970.015625 848.75 970.09375 848.421875 C 970.105469 848.417969 970.105469 848.417969 970.105469 848.417969 C 970.015625 848.734375 969.949219 849.0625 969.863281 849.382812 Z M 969.863281 849.382812 "/>
<path fill-rule="nonzero" fill="rgb(0%, 0%, 0%)" fill-opacity="1" d="M 969.78125 850.992188 C 969.773438 850.976562 969.785156 850.953125 969.792969 850.933594 C 969.785156 850.953125 969.789062 850.96875 969.78125 850.992188 Z M 969.78125 850.992188 "/>
<path fill-rule="nonzero" fill="rgb(0%, 79.215688%, 93.725491%)" fill-opacity="1" d="M 964.777344 1245.179688 C 958.089844 1253.457031 949.792969 1261.011719 940.328125 1266.71875 C 931.515625 1273.703125 925.101562 1283.390625 915.824219 1289.894531 C 896.738281 1301.410156 888.167969 1322.484375 880.875 1342.5 C 874.269531 1357.953125 870.820312 1374.539062 865.75 1390.507812 C 864.957031 1394.300781 864.164062 1399.457031 866.300781 1402.730469 C 866.300781 1400.507812 866.976562 1398.335938 867.855469 1396.300781 C 884.511719 1372.796875 897.496094 1346.742188 912.152344 1321.949219 C 919.996094 1309.722656 933.65625 1301.980469 940.550781 1288.875 C 948.640625 1275.082031 961.46875 1261.613281 964.777344 1245.179688 Z M 969.984375 848.882812 C 970.019531 848.726562 970.070312 848.570312 970.105469 848.414062 C 970.105469 848.414062 970.105469 848.414062 970.089844 848.414062 C 970.054688 848.570312 970.019531 848.726562 969.984375 848.882812 Z M 1313.761719 1174.898438 C 1317.953125 1209.417969 1276.898438 1201.46875 1234.894531 1193.933594 C 1192.128906 1186.277344 1148.332031 1179.035156 1150.332031 1217.523438 C 1154.625 1235.109375 1168.007812 1248.648438 1175.472656 1264.90625 C 1191.027344 1294.789062 1209.785156 1337.140625 1179.902344 1364.519531 C 1169.867188 1373.261719 1156.246094 1371.316406 1142.175781 1369.574219 C 1126.554688 1367.640625 1110.34375 1365.96875 1097.792969 1379.417969 C 1087.410156 1390.265625 1088.617188 1405.734375 1087.910156 1419.664062 C 1086.703125 1432.097656 1084.378906 1445.445312 1077.03125 1455.824219 C 1070.789062 1464.496094 1062.097656 1459.082031 1054.234375 1456.425781 C 1046.667969 1454.496094 1039.0625 1454.617188 1031.476562 1456.480469 C 1019.25 1459.425781 1008.402344 1466.910156 995.660156 1467.945312 C 986.230469 1467.929688 976.78125 1464.859375 967.433594 1467.636719 C 933.828125 1475.964844 927.03125 1412.5625 871.613281 1440.390625 C 853.078125 1449.773438 836.644531 1431.0625 827.851562 1416.457031 C 826.574219 1412.527344 825.125 1408.507812 823.003906 1405.285156 C 823.175781 1401.523438 822.589844 1397.488281 821.660156 1393.628906 C 824.382812 1375.796875 827.796875 1357.984375 829.074219 1339.878906 C 832.574219 1315.722656 837.4375 1280.925781 809.003906 1270.253906 C 777.363281 1258.027344 746.960938 1281.769531 715.769531 1282.203125 C 698.007812 1277.460938 686.765625 1261.148438 686.4375 1243.058594 C 684.179688 1208.695312 700.390625 1176.847656 716.441406 1147.515625 C 733.753906 1112.996094 820.882812 1059.25 785.964844 1019.933594 C 759.738281 993.808594 707.320312 1001.777344 694.113281 960.375 C 718.597656 908.335938 774.378906 875.261719 826.695312 856.054688 C 851.230469 845.933594 880.132812 840.585938 899.667969 821.671875 C 907.253906 813.171875 905.167969 798.53125 894.738281 793.394531 C 885.667969 789.046875 875.199219 790.410156 865.421875 790.082031 C 884.855469 773.460938 902.925781 743.179688 884.941406 719.386719 C 882.253906 715.609375 879.492188 712.28125 877.734375 707.660156 C 870.128906 682.433594 879.699219 654.964844 891.734375 632.617188 C 905.945312 613.71875 931.035156 611.941406 953.171875 607.582031 C 954.328125 607.703125 955.484375 607.734375 956.605469 607.667969 C 956.898438 608.441406 957.207031 609.21875 957.554688 609.960938 C 954.761719 616.324219 955.828125 625.289062 956.535156 631.753906 C 957 645.03125 957.175781 658.308594 959.207031 671.484375 C 960.898438 685.96875 962.691406 700.46875 964.933594 714.886719 C 961.949219 718.386719 959.121094 722.058594 954.277344 723.539062 C 942.722656 730.09375 928.636719 735.164062 919.878906 745.664062 C 917.289062 751.769531 919.359375 759.425781 919.394531 765.820312 C 921.738281 761.164062 924.429688 756.628906 926.171875 751.664062 C 933.980469 746.820312 943.34375 744.957031 951.105469 739.800781 C 956.675781 736.371094 962.898438 732.472656 966.949219 727.195312 C 968.46875 735.851562 970.191406 744.457031 972.191406 753.007812 C 973.625 776.511719 973.625 799.929688 972.796875 823.414062 C 972.847656 823.515625 972.898438 823.636719 972.953125 823.757812 C 973.726562 825.550781 973.175781 827.898438 972.8125 829.742188 C 972.761719 830.015625 972.710938 830.292969 972.660156 830.570312 C 972.589844 830.84375 972.539062 831.121094 972.46875 831.398438 C 972.46875 831.414062 972.46875 831.414062 972.46875 831.429688 C 972.3125 832.105469 972.140625 832.757812 971.917969 833.414062 C 971.898438 833.726562 971.867188 834.050781 971.8125 834.378906 C 971.867188 834.621094 971.898438 834.84375 971.933594 835.070312 C 971.984375 835.464844 972.003906 835.878906 971.984375 836.292969 C 971.984375 836.3125 971.984375 836.328125 971.984375 836.347656 C 971.984375 836.378906 971.984375 836.414062 971.984375 836.449219 C 971.984375 836.707031 971.96875 836.949219 971.933594 837.207031 C 971.898438 837.621094 971.8125 838.035156 971.726562 838.449219 C 971.726562 838.464844 971.726562 838.464844 971.726562 838.484375 C 971.570312 839.171875 971.382812 839.828125 971.160156 840.433594 C 971.191406 841.585938 971.054688 842.726562 970.898438 843.882812 C 970.96875 844.140625 971.019531 844.398438 971.054688 844.675781 C 971.125 845.175781 971.125 845.691406 971.089844 846.175781 C 971.054688 846.589844 971.019531 846.984375 970.96875 847.328125 C 970.953125 847.449219 970.933594 847.535156 970.917969 847.640625 C 970.882812 847.847656 970.832031 848.070312 970.777344 848.3125 C 970.761719 848.414062 970.726562 848.535156 970.691406 848.640625 C 970.691406 848.65625 970.691406 848.675781 970.691406 848.691406 C 970.519531 849.3125 970.296875 849.949219 970.019531 850.589844 C 969.863281 850.933594 969.691406 851.261719 969.519531 851.589844 C 969.519531 851.605469 969.519531 851.605469 969.519531 851.605469 C 969.519531 851.625 969.519531 851.640625 969.503906 851.640625 C 969.363281 852.003906 969.226562 852.363281 969.070312 852.726562 C 969.125 852.761719 969.191406 852.796875 969.246094 852.832031 C 968.019531 857.898438 964.484375 862.160156 961.863281 866.640625 C 958.140625 872.230469 954.347656 878.453125 949.398438 883.179688 C 939.050781 891.730469 925.722656 895.59375 913.410156 900.4375 C 873.527344 915.042969 830.746094 922.011719 793.089844 942.253906 C 778.464844 949.152344 766.394531 959.839844 752.203125 967.410156 C 760 966.757812 768.328125 964.894531 775.757812 961.738281 C 790.640625 956.910156 807.054688 953.253906 822.488281 949.71875 C 844.835938 940.71875 868.90625 937.113281 891.5625 928.785156 C 920.636719 919.785156 957.691406 909.335938 967.519531 876.851562 C 968.054688 874.988281 968.726562 873.089844 969.398438 871.175781 C 968.8125 888.988281 968.984375 906.886719 968.519531 924.71875 C 965.398438 956.546875 961.070312 988.207031 961.898438 1020.246094 C 945.121094 1041.882812 917.496094 1059.09375 902.703125 1083.335938 C 894.890625 1096.027344 888.460938 1109.597656 878.890625 1121.117188 C 864.507812 1135.101562 852.542969 1148.757812 839.195312 1164.207031 C 824.9375 1177.191406 813.246094 1192.503906 800.382812 1206.746094 C 794.121094 1212.316406 786.621094 1216.09375 780.429688 1221.679688 C 773.394531 1229.300781 765.949219 1236.523438 757.445312 1242.578125 C 752.53125 1245.578125 746.789062 1249.285156 741.375 1251.699219 C 745.894531 1252.042969 751.015625 1250.40625 755.671875 1249.734375 C 775.414062 1246.0625 790.140625 1231.644531 808.78125 1224.835938 C 824.539062 1216.417969 833.574219 1200.039062 846.578125 1188.3125 C 856.921875 1179.847656 864.0625 1168.464844 872.597656 1158.328125 C 879.253906 1150.464844 887.925781 1144.738281 894.875 1137.171875 C 908.929688 1120.945312 915.117188 1099.613281 927.152344 1081.957031 C 939 1064.507812 953.035156 1048.265625 962.261719 1029.28125 C 962.277344 1029.695312 962.296875 1030.125 962.328125 1030.539062 C 960.589844 1069.992188 966.417969 1109.460938 968.363281 1148.929688 C 957.640625 1150.601562 945.84375 1151.394531 936.894531 1157.894531 C 914.824219 1178.933594 904.667969 1207.261719 885.527344 1230.4375 C 881.113281 1235.265625 876.269531 1239.871094 871.5625 1244.664062 C 863.835938 1252.421875 856.886719 1263.113281 845.457031 1265.167969 C 845.351562 1265.148438 845.28125 1265.132812 845.195312 1265.132812 C 845.886719 1266.046875 847.871094 1266.046875 848.972656 1266.0625 C 857.179688 1266.425781 864.699219 1263.132812 871.542969 1258.925781 C 894.546875 1246.679688 915.394531 1229.386719 927.621094 1205.953125 C 933.121094 1192.089844 940.429688 1179.175781 947.34375 1165.964844 C 953.5 1159.929688 961.277344 1156.085938 968.484375 1151.414062 C 969.125 1165.65625 969.226562 1179.914062 968.246094 1194.160156 C 966.589844 1219.78125 964.226562 1248.578125 968.019531 1274.527344 C 970.539062 1289.789062 972.867188 1305.152344 971.917969 1320.671875 C 971.175781 1343.621094 970.605469 1366.847656 971.917969 1389.765625 C 974.882812 1404.835938 974.332031 1420.441406 979.761719 1434.960938 C 980.453125 1430.046875 980.433594 1424.335938 981.46875 1419.148438 C 986.039062 1398.730469 987.195312 1378.125 992.589844 1357.761719 C 993.453125 1348.105469 993.902344 1338.363281 994.644531 1328.65625 C 997.902344 1338.742188 1001.730469 1349.105469 1009.074219 1356.796875 C 1023.992188 1375.558594 1035.40625 1397.472656 1053.167969 1414.355469 C 1052.253906 1406.179688 1047.753906 1398.144531 1045.269531 1390.128906 C 1041.941406 1381.195312 1038.25 1372.023438 1033.128906 1363.953125 C 1022.441406 1348.933594 1008.007812 1337.054688 995.003906 1324 C 995.210938 1321.570312 995.453125 1319.136719 995.710938 1316.722656 C 995.316406 1293.703125 987.917969 1271.113281 988.917969 1247.957031 C 989.296875 1221.644531 990.695312 1195.453125 991.953125 1169.15625 C 991.78125 1165.464844 991.609375 1161.777344 991.402344 1158.070312 C 994.886719 1164.378906 998.625 1170.691406 1002.402344 1176.742188 C 1006.023438 1184.640625 1008.765625 1192.984375 1013.816406 1200.140625 C 1020.679688 1210.503906 1030.0625 1219.039062 1036.0625 1229.988281 C 1046.167969 1250.976562 1063.460938 1266.5625 1080.394531 1282.03125 C 1097.828125 1298.324219 1116.15625 1313.894531 1138.226562 1323.515625 C 1122 1306.894531 1106.691406 1288.339844 1091.636719 1270.234375 C 1082.445312 1259.371094 1072.824219 1248.714844 1064.53125 1237.128906 C 1058.824219 1228.214844 1054.648438 1218.402344 1047.820312 1210.210938 C 1037.699219 1199.226562 1025.148438 1190.589844 1017.113281 1177.726562 C 1010.25 1167.949219 1000.402344 1159.65625 991.039062 1151.515625 C 988.296875 1102.253906 983.882812 1052.523438 985.675781 1003 C 986.074219 991.328125 986.902344 979.671875 987.832031 968.015625 C 996.988281 986.207031 1013.679688 1000.207031 1026.765625 1015.554688 C 1037.75 1028.054688 1049.289062 1043.488281 1061.667969 1055.714844 C 1074.566406 1067.351562 1089.410156 1076.527344 1103.550781 1086.527344 C 1124.484375 1101.925781 1145.796875 1115.976562 1167.988281 1129.582031 C 1178.578125 1137.1875 1190.972656 1144.308594 1202.90625 1150.136719 C 1211.390625 1154.585938 1220.132812 1160.722656 1230.03125 1160.65625 C 1222.941406 1157.742188 1217.355469 1151.359375 1211.871094 1145.894531 C 1199.492188 1134.636719 1187.007812 1123.566406 1174.835938 1112.03125 C 1152.574219 1094.269531 1128.363281 1079.042969 1105.15625 1062.558594 C 1096.085938 1056.265625 1086.929688 1049.988281 1078.289062 1043.125 C 1063.617188 1029.488281 1051.597656 1013.277344 1035.976562 1000.585938 C 1020.386719 987.050781 1002.746094 975.808594 988.4375 960.824219 C 988.4375 960.824219 988.417969 960.808594 988.417969 960.808594 C 990.453125 935.875 992.679688 910.941406 991.972656 885.851562 C 993.917969 857.746094 996.074219 829.550781 996.644531 801.324219 C 1002.574219 813.429688 1013.4375 823.121094 1024.613281 830.363281 C 1048.492188 842.761719 1074.132812 854.519531 1101.570312 854.125 C 1117.105469 855.003906 1131.054688 863.746094 1146.695312 863.832031 C 1158.039062 866.382812 1170.179688 864.453125 1181.699219 863.453125 C 1188.472656 863.503906 1195.25 864.054688 1201.820312 861.898438 C 1194.40625 861.296875 1187.25 857.746094 1179.765625 855.898438 C 1169.851562 854.003906 1159.972656 852.089844 1150.625 847.898438 C 1135.15625 845.054688 1122.433594 834.226562 1106.570312 832.691406 C 1077.84375 830.035156 1049.167969 824.277344 1021.992188 814.445312 C 1014.144531 810.238281 1005.851562 806.203125 999.332031 800.03125 C 998.558594 799.03125 997.695312 798.136719 996.730469 797.410156 C 996.988281 781.132812 996.679688 764.871094 995.488281 748.628906 C 991.332031 731.265625 988.351562 713.609375 984.902344 696.019531 C 993.003906 701.625 1000.574219 708.488281 1011.195312 707.175781 C 1025.855469 708.574219 1041.339844 715.972656 1055.117188 707.644531 C 1037.648438 706.625 1022.75 690.691406 1004.128906 694.691406 C 997.746094 694.78125 990.417969 690.726562 983.710938 690.003906 C 980.453125 673.96875 976.640625 658.050781 971.039062 642.515625 C 970.226562 636.101562 965.089844 627.1875 962.710938 619.066406 C 987.074219 653.34375 1047.046875 646.824219 1079.117188 673.792969 C 1091.601562 684.070312 1112.585938 707.953125 1089.601562 718.609375 C 1085.152344 720.539062 1080.496094 721.953125 1075.839844 723.367188 C 1067.996094 725.75 1060.148438 728.144531 1053.425781 733.042969 C 1037.285156 744.058594 1043.511719 765.234375 1061.445312 769.632812 C 1110.136719 788.066406 1164.367188 785.996094 1212.285156 806.136719 C 1250.464844 823.015625 1278.191406 875.9375 1229.046875 897.957031 C 1198.40625 902.972656 1166.78125 893.421875 1136.210938 901.800781 C 1125.382812 902.921875 1114.964844 911.765625 1116.605469 923.441406 C 1118.484375 935.167969 1129.96875 941.703125 1137.984375 949.21875 C 1147.640625 957.667969 1157.382812 965.980469 1167.195312 974.257812 C 1226.804688 1029.988281 1292.726562 1092.925781 1313.761719 1174.898438 Z M 1313.761719 1174.898438 "/>
</svg>
