<?xml version="1.0" encoding="UTF-8"?>
<!-- Created by grConvert v0.1-0 -->
<svg xmlns="http://www.w3.org/2000/svg" xmlns:xlink="http://www.w3.org/1999/xlink" width="2000" height="2000" viewBox="0 0 2000 2000">
<path fill-rule="nonzero" fill="rgb(0%, 0%, 0%)" fill-opacity="1" d="M 732.921875 569.035156 C 740.605469 567.007812 741.9375 580.671875 734.371094 580.574219 C 727.835938 580.992188 726.425781 570.367188 732.921875 569.035156 Z M 732.921875 569.035156 "/>
<path fill-rule="nonzero" fill="rgb(0%, 0%, 0%)" fill-opacity="1" d="M 850.921875 1496.941406 C 844.289062 1495.53125 838.449219 1491.917969 833.109375 1487.90625 C 829.394531 1486.953125 825.957031 1485.363281 822.878906 1482.863281 C 815.355469 1482.902344 807.847656 1482.625 800.339844 1482.363281 C 790.628906 1482.027344 780.898438 1481.667969 771.1875 1482.007812 C 768.746094 1481.867188 766.203125 1481.867188 763.640625 1481.886719 C 755.0625 1481.90625 746.125 1481.929688 739.15625 1476.746094 C 729.246094 1469.21875 730.339844 1453.511719 740.546875 1446.699219 C 759.492188 1435.957031 776.867188 1423.425781 792.535156 1408.210938 C 757.367188 1303.617188 750.199219 1193.183594 750.753906 1083.503906 C 733.753906 1113.210938 709.328125 1137.933594 694.375 1168.894531 C 685.753906 1189.289062 677.832031 1209.960938 668.539062 1230.140625 C 665.71875 1237.269531 662.382812 1244.457031 654.816406 1247.675781 C 629 1256.511719 621.851562 1223.546875 623.796875 1204.382812 C 623.894531 1167.386719 626.398438 1130.210938 635.691406 1094.265625 C 646.632812 1057.707031 660.792969 1020.96875 680.53125 988.261719 C 704.699219 958.730469 735.105469 934.820312 759.492188 905.328125 C 767.710938 897.40625 768.070312 885.570312 770.652344 875.085938 C 784.214844 821.109375 782.328125 801.132812 762.90625 749.261719 C 755.378906 724.496094 746.582031 700.230469 735.125 676.972656 C 730.039062 665.636719 718.621094 659.539062 708.929688 652.628906 C 690.183594 641.328125 674 625.441406 653.328125 617.65625 C 640.875 611.835938 618.652344 611.957031 604.613281 604.964844 C 604.535156 604.964844 604.433594 604.964844 604.355469 604.964844 C 601.277344 604.964844 598.359375 604.152344 595.816406 602.722656 C 592.460938 602.683594 589.023438 601.570312 585.90625 599.070312 C 577.226562 592.953125 575.859375 584.851562 578.417969 578.175781 C 578.417969 578.15625 578.417969 578.15625 578.417969 578.15625 C 578.71875 571.285156 583.085938 565.308594 589.125 562.628906 C 590.574219 560.046875 592.679688 557.78125 595.359375 556.09375 C 599.6875 553.632812 604.632812 553.136719 608.960938 550.671875 C 626.339844 544.019531 643.355469 536.515625 661.109375 530.894531 C 706.507812 513.515625 754.902344 494.195312 804.410156 501.640625 C 838.828125 505.214844 873.082031 516.636719 898.78125 540.546875 C 920.1875 557.40625 940.542969 577.542969 951.027344 603.179688 C 964.253906 636.9375 968.066406 672.226562 993.269531 698.78125 C 1019.066406 716.492188 1038.1875 741.316406 1058.742188 764.589844 C 1076.335938 783.65625 1087 807.007812 1096.175781 830.917969 C 1109.183594 841.148438 1123.5 851.292969 1139.410156 856.773438 C 1156.328125 862.316406 1173.585938 866.785156 1190.542969 872.144531 C 1223.292969 884.835938 1249.089844 910.554688 1281.992188 923.421875 C 1322.308594 941.59375 1354.4375 973.046875 1381.464844 1007.382812 C 1396.519531 1027.402344 1423.011719 1044.597656 1422.734375 1071.945312 C 1406.765625 1125.484375 1332.21875 1035.226562 1309.261719 1022.097656 C 1291.703125 1010.859375 1271.90625 1004.066406 1252.644531 996.34375 C 1237.828125 991.039062 1224.921875 981.289062 1209.648438 977.277344 C 1184.191406 975.628906 1157.777344 975.234375 1136.351562 959.027344 C 1146.578125 1017.609375 1162.425781 1074.921875 1168.5 1134.222656 C 1176.027344 1190.144531 1180.296875 1249.5 1160.4375 1303.378906 C 1147.332031 1329.472656 1138.496094 1358.40625 1116.789062 1379.039062 C 1103.066406 1396.753906 1082.234375 1407.101562 1067.898438 1424.039062 C 1077.90625 1441.355469 1102.648438 1445.25 1111.863281 1463.796875 C 1121.078125 1479.347656 1107.496094 1497.417969 1091.050781 1499.503906 C 1082.117188 1500.734375 1073.4375 1497.933594 1064.917969 1495.390625 C 1056.320312 1492.789062 1047.542969 1494.28125 1038.746094 1495.75 C 1031 1497.058594 1023.214844 1498.371094 1015.511719 1496.902344 C 990.886719 1493.007812 991.441406 1470.113281 990.507812 1450.472656 C 965.703125 1451.40625 943.046875 1459.410156 918.359375 1459.667969 C 926.445312 1473.25 918.898438 1491.5 904.320312 1496.742188 C 897.113281 1499.144531 889.585938 1500 881.960938 1500 C 871.554688 1500 861.007812 1498.390625 850.921875 1496.941406 Z M 971.066406 1433.730469 C 971.363281 1433.769531 971.683594 1433.832031 972 1433.832031 C 972.515625 1433.832031 973.011719 1433.691406 973.371094 1433.292969 C 973.507812 1433.117188 973.609375 1432.917969 973.648438 1432.71875 C 973.847656 1432.699219 974.023438 1432.679688 974.203125 1432.617188 C 975.972656 1432.023438 977.679688 1431.308594 979.445312 1430.671875 C 981.414062 1429.957031 983.378906 1429.261719 985.363281 1428.585938 C 987.070312 1427.992188 988.78125 1427.375 990.507812 1426.800781 C 990.667969 1426.761719 990.84375 1426.722656 991.003906 1426.699219 C 991.480469 1426.601562 991.957031 1426.503906 992.433594 1426.402344 C 992.773438 1426.421875 993.089844 1426.402344 993.40625 1426.324219 C 994.003906 1426.164062 994.578125 1425.984375 995.15625 1425.789062 C 995.929688 1425.609375 996.742188 1425.410156 997.496094 1425.113281 C 1000.078125 1424.4375 1002.640625 1423.644531 1005.125 1422.710938 C 1005.300781 1422.667969 1005.460938 1422.628906 1005.621094 1422.589844 C 1007.425781 1422.988281 1009.175781 1422.472656 1010.921875 1421.816406 C 1011.539062 1421.578125 1012.152344 1421.339844 1012.75 1421.121094 C 1013.246094 1421.019531 1013.742188 1420.921875 1014.238281 1420.804688 C 1015.429688 1420.542969 1016.839844 1420.386719 1017.4375 1419.214844 C 1017.4375 1419.195312 1017.457031 1419.175781 1017.457031 1419.15625 C 1017.734375 1419.035156 1018.03125 1418.917969 1018.308594 1418.796875 C 1019.621094 1418.222656 1021.167969 1417.664062 1022.203125 1416.632812 C 1022.359375 1416.472656 1022.453125 1416.273438 1022.5 1416.058594 C 1025.0625 1415.859375 1027.714844 1415.945312 1030.144531 1415.621094 C 1031.398438 1415.480469 1032.46875 1415.71875 1033.324219 1416.234375 C 1038.746094 1397.507812 1060.550781 1381.679688 1079.851562 1366.429688 C 1094.152344 1352.6875 1107.257812 1337.554688 1113.789062 1318.550781 C 1159.167969 1238.957031 1132.734375 1144.390625 1121.296875 1059.335938 C 1114.742188 1031.53125 1107.296875 1003.867188 1103.1875 975.53125 C 1101 957.121094 1090.914062 932.835938 1106.898438 918.160156 C 1130.871094 901.953125 1151.601562 932.140625 1173.746094 937.957031 C 1188.875 942.703125 1205.28125 938.535156 1220.550781 943.320312 C 1249.148438 954.480469 1276.75 968.339844 1305.46875 979.582031 C 1285.886719 963.515625 1262.59375 953.707031 1240.210938 942.328125 C 1217.574219 930.867188 1202.480469 915.320312 1180.058594 906.105469 C 1142.464844 895.816406 1104.753906 885.191406 1074.390625 859.535156 C 1061.285156 848.257812 1058.722656 830.203125 1050.996094 815.488281 C 1043.351562 800.238281 1031.695312 787.390625 1020.59375 774.582031 C 1017.613281 771.542969 1014.753906 768.402344 1011.957031 765.207031 C 949.261719 761.671875 904.183594 710.753906 859.082031 673.082031 C 843.75 659.9375 827.507812 646.351562 808.164062 640.335938 C 790.292969 637.914062 771.027344 637.4375 753.929688 643.3125 C 767.039062 657.75 774.226562 674.53125 784.234375 700.109375 C 812.277344 786.972656 826.953125 801.804688 802.703125 894.664062 C 799.863281 919.546875 779.410156 935.476562 763.839844 953.070312 C 748.449219 970.128906 730.972656 985.160156 715.265625 1001.882812 C 702.058594 1016.003906 696.738281 1035.027344 688.855469 1052.226562 C 673.503906 1084.613281 664.46875 1119.546875 661.371094 1155.230469 C 674 1128.542969 692.648438 1105.664062 709.863281 1081.933594 C 723.289062 1061.398438 734.707031 1038.601562 754.824219 1023.628906 C 758.976562 1019.539062 764.375 1017.632812 769.679688 1017.632812 C 779.984375 1017.632812 789.914062 1024.800781 789.515625 1036.953125 C 787.890625 1056.296875 785.527344 1075.636719 786.5 1095.101562 C 787.769531 1155.449219 786.816406 1216.097656 797.519531 1275.617188 C 803.179688 1305.226562 807.132812 1335.371094 816.445312 1364.125 C 824.25 1389.882812 832.332031 1405.015625 826.453125 1420.285156 C 830.070312 1421.398438 833.367188 1424.675781 837.335938 1424.179688 C 844.167969 1423.800781 867.027344 1415.0625 873.578125 1421.101562 C 877.367188 1418.527344 881.527344 1417.675781 885.894531 1417.769531 C 886.546875 1417.96875 887.203125 1418.160156 887.859375 1418.339844 C 888.214844 1418.417969 888.574219 1418.519531 888.949219 1418.617188 C 891.351562 1420.207031 894.511719 1421.019531 897.390625 1421.695312 C 898.203125 1422.292969 899.117188 1422.75 900.089844 1423.046875 C 901.0625 1423.324219 902.058594 1423.601562 903.050781 1423.859375 C 904.082031 1424.695312 905.3125 1425.351562 906.625 1425.527344 C 908.808594 1425.828125 910.992188 1426.105469 913.15625 1426.382812 C 914.328125 1426.660156 915.5 1426.9375 916.652344 1427.21875 C 919.472656 1427.851562 922.273438 1428.507812 925.113281 1429.0625 C 926.503906 1429.34375 927.894531 1429.621094 929.285156 1429.859375 C 930.714844 1430.097656 932.261719 1430.535156 933.710938 1430.277344 C 934.484375 1430.792969 935.359375 1431.230469 936.253906 1431.46875 C 937.542969 1431.804688 938.894531 1431.804688 940.207031 1431.683594 C 941.117188 1431.585938 942.050781 1431.507812 942.964844 1431.40625 C 943.503906 1431.585938 944.039062 1431.707031 944.632812 1431.804688 C 945.171875 1431.882812 945.6875 1431.964844 946.203125 1432.023438 C 947.15625 1432.140625 948.109375 1432.261719 949.0625 1432.359375 C 951.128906 1432.578125 953.191406 1432.757812 955.257812 1432.878906 C 957.660156 1433.015625 960.0625 1433.09375 962.488281 1433.117188 C 963.71875 1433.117188 964.949219 1433.074219 966.179688 1433.015625 C 966.457031 1432.996094 966.757812 1432.996094 967.074219 1432.976562 C 968.40625 1433.234375 969.734375 1433.492188 971.066406 1433.730469 Z M 733.160156 557.027344 C 731.371094 557.742188 729.625 558.597656 727.996094 559.648438 C 727.0625 559.988281 726.1875 560.402344 725.355469 560.921875 C 724.660156 561.375 724.003906 561.851562 723.367188 562.371094 C 721.9375 563.304688 720.726562 564.554688 719.613281 565.84375 C 718.761719 566.878906 717.886719 567.890625 717.113281 569.003906 C 715.839844 570.871094 714.730469 572.796875 713.855469 574.859375 C 713.757812 575.078125 713.65625 575.316406 713.578125 575.554688 C 713.457031 575.835938 713.359375 576.09375 713.28125 576.371094 C 713.261719 576.390625 713.261719 576.410156 713.238281 576.410156 C 711.632812 579.171875 710.460938 582.625 711.117188 585.84375 C 711.671875 588.425781 713.617188 590.488281 715.921875 591.582031 C 716.457031 592.199219 717.074219 592.714844 717.789062 593.191406 C 718.878906 593.90625 720.230469 594.261719 721.519531 594.441406 C 722.355469 594.5625 723.167969 594.621094 723.984375 594.621094 C 724.71875 594.621094 725.433594 594.5625 726.167969 594.441406 C 726.746094 594.34375 727.339844 594.242188 727.914062 594.105469 C 728.015625 594.125 728.09375 594.125 728.175781 594.125 C 728.195312 594.125 728.234375 594.125 728.253906 594.125 C 729.425781 594.003906 730.496094 593.628906 731.53125 593.070312 C 733.019531 592.773438 734.410156 592.175781 735.699219 591.34375 C 736.773438 591.144531 737.804688 590.847656 738.777344 590.46875 C 744.257812 588.445312 749.421875 584.828125 752.898438 580.0625 C 753.554688 579.230469 754.148438 578.335938 754.664062 577.363281 C 755.0625 576.707031 755.378906 576.09375 755.597656 575.457031 C 755.976562 574.664062 756.292969 573.828125 756.550781 572.996094 C 757.328125 570.890625 757.742188 568.664062 757.644531 566.421875 C 757.566406 564.574219 756.789062 562.609375 755.460938 561.257812 C 754.03125 559.011719 752.082031 557.34375 749.503906 556.472656 C 747.257812 555.71875 744.777344 555.757812 742.453125 556.234375 C 742.074219 556.152344 741.699219 556.113281 741.300781 556.09375 C 740.488281 555.875 739.671875 555.796875 738.859375 555.796875 C 736.933594 555.796875 734.984375 556.292969 733.160156 557.027344 Z M 733.160156 557.027344 "/>
<path fill-rule="nonzero" fill="rgb(0%, 0%, 0%)" fill-opacity="1" d="M 653.410156 1175.3125 C 645.507812 1173.597656 650.589844 1161.574219 649.777344 1155.832031 C 650.824219 1137.546875 653.953125 1119.449219 660.816406 1102.410156 C 665.726562 1080.140625 674.628906 1058.839844 685.464844 1038.84375 C 699.820312 1011.191406 721.894531 989.09375 743.09375 966.695312 C 755.15625 952.363281 770.898438 939.375 774.132812 919.949219 C 775.175781 917.128906 776.421875 914.050781 778.9375 912.242188 C 782.253906 910.179688 787.019531 912.5625 786.941406 916.574219 C 786.523438 920.109375 783.113281 922.269531 783.003906 926.136719 C 785.433594 927.769531 785.886719 931.144531 784.179688 933.453125 C 778.945312 940.519531 773.453125 947.417969 767.976562 954.304688 C 746.878906 977.992188 727.1875 1001.71875 708.414062 1027.136719 C 697.976562 1042.132812 691.191406 1057.683594 684.09375 1074.09375 C 677.433594 1088.871094 669.546875 1103.359375 667.96875 1119.746094 C 664.980469 1135.816406 661.390625 1151.535156 659.386719 1167.722656 C 659.742188 1171.445312 657.835938 1175.96875 653.410156 1175.3125 Z M 653.410156 1175.3125 "/>
<path fill-rule="nonzero" fill="rgb(0%, 0%, 0%)" fill-opacity="1" d="M 1315.589844 975.359375 C 1287.132812 960.726562 1258.433594 947.019531 1229.347656 933.933594 C 1212.667969 925.792969 1196.679688 916.082031 1179.242188 909.585938 C 1161.777344 902.105469 1142.628906 900.621094 1124.949219 893.738281 C 1110.578125 888.917969 1098.375 879.007812 1087.394531 868.816406 C 1084.21875 865.390625 1080.960938 862.066406 1077.914062 858.570312 C 1075.648438 855.925781 1077.035156 851.351562 1080.445312 850.484375 C 1085.679688 849.109375 1088.800781 856.453125 1091.984375 858.886719 C 1110.625 880.242188 1137.234375 888.882812 1164.25 893.738281 C 1200.839844 904.46875 1232.859375 926.144531 1268.050781 940.445312 C 1285.558594 948.996094 1303.042969 957.742188 1320.476562 966.441406 C 1326.195312 969.609375 1321.539062 978.519531 1315.589844 975.359375 Z M 1315.589844 975.359375 "/>
<path fill-rule="nonzero" fill="rgb(0%, 0%, 0%)" fill-opacity="1" d="M 651.164062 1129.324219 C 646.984375 1126.355469 650.261719 1121.625 651.339844 1117.925781 C 656.855469 1102.304688 663.554688 1087.152344 670.464844 1072.109375 C 671.617188 1069.609375 674.972656 1068.753906 677.335938 1069.988281 C 683.136719 1073.417969 677.628906 1079.929688 676.109375 1084.273438 C 671.132812 1095.421875 666.277344 1106.597656 662.085938 1118.066406 C 660.191406 1122.910156 658.5625 1133.53125 651.164062 1129.324219 Z M 651.164062 1129.324219 "/>
<path fill-rule="nonzero" fill="rgb(0%, 0%, 0%)" fill-opacity="1" d="M 648.941406 1133.289062 C 652.109375 1113.355469 661.941406 1094.585938 669.316406 1075.816406 C 672.632812 1068.230469 676.109375 1060.726562 679.605469 1053.238281 C 680.796875 1050.734375 684.113281 1049.863281 686.476562 1051.113281 C 689.015625 1052.464844 689.792969 1055.480469 688.601562 1057.984375 C 678.101562 1080.519531 668.011719 1103.421875 660.539062 1126.753906 C 658.9375 1130.441406 659.863281 1136.40625 654.859375 1137.378906 C 652.195312 1137.878906 649.410156 1136.019531 648.941406 1133.289062 Z M 648.941406 1133.289062 "/>
<path fill-rule="nonzero" fill="rgb(0%, 0%, 0%)" fill-opacity="1" d="M 654.777344 1122.140625 C 658.429688 1107.023438 666.742188 1093.148438 672.832031 1078.851562 C 676.109375 1071.675781 679.367188 1064.480469 682.699219 1057.324219 C 683.714844 1055.097656 686.613281 1054.167969 688.816406 1054.980469 C 691.238281 1055.894531 692.808594 1058.890625 691.734375 1061.355469 C 683.140625 1081.917969 672.601562 1101.554688 664.960938 1122.265625 C 664.410156 1128.496094 655.125 1128.480469 654.777344 1122.140625 Z M 654.777344 1122.140625 "/>
<path fill-rule="nonzero" fill="rgb(0%, 0%, 0%)" fill-opacity="1" d="M 657.804688 1121.136719 C 651.316406 1108.5 688.101562 1047.59375 695.359375 1031.871094 C 696.609375 1029.46875 699.707031 1028.515625 702.109375 1029.785156 C 704.535156 1031.058594 705.488281 1034.136719 704.214844 1036.558594 C 699.152344 1046.167969 694.027344 1055.761719 688.964844 1065.351562 C 681.023438 1080.507812 672.828125 1095.597656 667.78125 1112.023438 C 666.453125 1117.125 664.960938 1125.945312 657.804688 1121.136719 Z M 657.804688 1121.136719 "/>
<path fill-rule="nonzero" fill="rgb(0%, 0%, 0%)" fill-opacity="1" d="M 684.769531 1066.640625 C 682.347656 1065.371094 681.296875 1062.191406 682.644531 1059.769531 C 686.0625 1053.554688 689.457031 1047.339844 693.191406 1041.28125 C 697.480469 1034.390625 702.285156 1027.796875 706.972656 1021.183594 C 708.5625 1018.921875 711.777344 1018.34375 714.042969 1019.953125 C 716.304688 1021.542969 716.882812 1024.757812 715.273438 1027.023438 C 710.125 1034.324219 704.976562 1041.609375 700.378906 1048.945312 C 697.324219 1054.054688 694.5 1059.292969 691.621094 1064.515625 C 690.285156 1066.964844 687.199219 1067.941406 684.769531 1066.640625 Z M 684.769531 1066.640625 "/>
<path fill-rule="nonzero" fill="rgb(0%, 0%, 0%)" fill-opacity="1" d="M 693.175781 1049.613281 C 690.875 1047.984375 690.398438 1044.847656 691.945312 1042.542969 C 697.308594 1034.519531 703.207031 1026.816406 709.183594 1019.25 C 715.707031 1011.070312 722.273438 1002.910156 728.742188 994.703125 C 730.453125 992.578125 733.390625 991.84375 735.734375 993.492188 C 737.917969 995.042969 738.613281 998.320312 736.964844 1000.503906 C 724.851562 1016.570312 711.445312 1031.640625 700.265625 1048.382812 C 698.714844 1050.6875 695.398438 1051.179688 693.175781 1049.613281 Z M 693.175781 1049.613281 "/>
<path fill-rule="nonzero" fill="rgb(0%, 0%, 0%)" fill-opacity="1" d="M 708.042969 1025.664062 C 701.625 1019.242188 717.054688 1010.941406 720.355469 1005.507812 C 731.5 993.511719 741.164062 980.867188 750.460938 967.5 C 752.050781 965.234375 755.289062 964.679688 757.550781 966.289062 C 759.816406 967.875 760.371094 971.09375 758.785156 973.355469 C 752.371094 982.511719 745.757812 991.488281 738.605469 1000.066406 C 731.992188 1008.011719 725.003906 1015.558594 717.675781 1022.824219 C 715.359375 1025.695312 711.464844 1028.847656 708.042969 1025.664062 Z M 708.042969 1025.664062 "/>
<path fill-rule="nonzero" fill="rgb(0%, 0%, 0%)" fill-opacity="1" d="M 722.796875 1006.417969 C 718.507812 1000.960938 726.785156 996.765625 729.726562 993.507812 C 749.355469 973.855469 764.191406 951.265625 779.472656 928.390625 C 781.023438 926.070312 784.359375 925.59375 786.5625 927.160156 C 788.867188 928.789062 789.324219 931.925781 787.792969 934.230469 C 781.695312 943.40625 775.582031 952.558594 769.246094 961.558594 C 763.648438 968.328125 730.449219 1017.046875 722.796875 1006.417969 Z M 722.796875 1006.417969 "/>
<path fill-rule="nonzero" fill="rgb(0%, 0%, 0%)" fill-opacity="1" d="M 765.726562 957.949219 C 762.652344 955.335938 764.574219 951.066406 766.9375 948.953125 C 779.414062 933.558594 787.3125 915.480469 795 897.441406 C 797.410156 891.269531 806.820312 894.746094 804.53125 900.976562 C 800.78125 909.386719 776.648438 967.820312 765.726562 957.949219 Z M 765.726562 957.949219 "/>
<path fill-rule="nonzero" fill="rgb(0%, 0%, 0%)" fill-opacity="1" d="M 792.167969 919.28125 C 783.589844 918.175781 789.371094 901.035156 788.992188 894.855469 C 789.785156 887.746094 790.71875 880.636719 791.652344 873.527344 C 792.011719 870.785156 794.335938 868.679688 797.175781 868.941406 C 799.855469 869.179688 802.140625 871.71875 801.78125 874.460938 C 800.847656 881.570312 799.914062 888.679688 799.121094 895.789062 C 798.40625 902.082031 797.96875 908.359375 797.691406 914.695312 C 797.570312 917.453125 794.8125 919.519531 792.167969 919.28125 Z M 792.167969 919.28125 "/>
<path fill-rule="nonzero" fill="rgb(0%, 0%, 0%)" fill-opacity="1" d="M 794.589844 884.382812 C 791.769531 884.125 789.84375 881.601562 790.003906 878.839844 C 790.398438 871.851562 790.71875 864.859375 791.371094 857.890625 C 791.628906 855.128906 794.152344 853.042969 796.914062 853.304688 C 799.671875 853.542969 801.757812 856.082031 801.5 858.824219 C 800.84375 865.792969 800.527344 872.785156 800.128906 879.773438 C 799.972656 882.554688 797.265625 884.621094 794.589844 884.382812 Z M 794.589844 884.382812 "/>
<path fill-rule="nonzero" fill="rgb(0%, 0%, 0%)" fill-opacity="1" d="M 790.625 901.265625 C 787.824219 900.609375 786.316406 897.890625 786.792969 895.167969 C 788.195312 886.699219 789.953125 878.386719 790.347656 869.820312 C 791.472656 863.851562 786.503906 852.40625 794.972656 850.863281 C 797.675781 850.746094 800.253906 852.949219 800.277344 855.730469 C 800.335938 862.183594 800.890625 868.636719 800.195312 875.089844 C 799.402344 882.578125 798.011719 890.023438 796.722656 897.433594 C 796.242188 900.167969 793.222656 901.859375 790.625 901.265625 Z M 790.625 901.265625 "/>
<path fill-rule="nonzero" fill="rgb(0%, 0%, 0%)" fill-opacity="1" d="M 793.609375 897.257812 C 790.828125 896.621094 789.296875 893.902344 789.792969 891.179688 C 791.210938 883.726562 792.28125 876.992188 792.582031 869.5625 C 793.859375 863.589844 789.066406 850.816406 797.460938 849.535156 C 800.140625 849.417969 802.761719 851.621094 802.761719 854.402344 C 802.347656 861.566406 804.65625 900.316406 793.609375 897.257812 Z M 793.609375 897.257812 "/>
<path fill-rule="nonzero" fill="rgb(0%, 0%, 0%)" fill-opacity="1" d="M 799.066406 897.511719 C 796.386719 897.253906 794.121094 894.734375 794.476562 891.972656 C 797.058594 876.773438 796.871094 862.007812 797.238281 846.8125 C 797.890625 840.214844 807.855469 841.113281 807.367188 847.746094 C 807.027344 862.855469 807.1875 877.949219 804.585938 892.925781 C 804.261719 895.675781 801.832031 897.785156 799.066406 897.511719 Z M 799.066406 897.511719 "/>
<path fill-rule="nonzero" fill="rgb(0%, 0%, 0%)" fill-opacity="1" d="M 792.53125 911.582031 C 789.789062 910.945312 788.140625 908.1875 788.699219 905.484375 C 790.304688 897.898438 791.753906 890.273438 793.007812 883.304688 C 795.230469 872.519531 794.1875 861.660156 792.96875 850.875 C 792.753906 844.257812 802.765625 843.792969 803.132812 850.417969 C 805.1875 864.742188 804.863281 879.207031 801.488281 893.332031 C 799.277344 899.035156 801.363281 912.5 792.53125 911.582031 Z M 792.53125 911.582031 "/>
<path fill-rule="nonzero" fill="rgb(0%, 0%, 0%)" fill-opacity="1" d="M 1240.367188 924.863281 C 1228.015625 916.082031 1213.222656 910.78125 1200.210938 902.839844 C 1197.789062 901.511719 1197.015625 898.253906 1198.363281 895.890625 C 1199.773438 893.449219 1202.871094 892.710938 1205.296875 894.042969 C 1218.578125 901.828125 1233.046875 907.625 1245.902344 916.097656 C 1253.5625 920.671875 1246.992188 931.265625 1240.367188 924.863281 Z M 1240.367188 924.863281 "/>
<path fill-rule="nonzero" fill="rgb(0%, 0%, 0%)" fill-opacity="1" d="M 1237.902344 927.890625 C 1228.210938 925.128906 1218.8125 921.371094 1209.425781 917.722656 C 1204.53125 914.820312 1192.734375 914.050781 1194.910156 906.207031 C 1195.980469 903.644531 1198.800781 902.671875 1201.304688 903.5625 C 1214.390625 908.464844 1227.570312 914.460938 1240.808594 918.140625 C 1249.601562 918.863281 1246.222656 930.90625 1237.902344 927.890625 Z M 1237.902344 927.890625 "/>
<path fill-rule="nonzero" fill="rgb(0%, 0%, 0%)" fill-opacity="1" d="M 1229.800781 927.921875 C 1218.292969 924.261719 1206.863281 920.382812 1195.386719 916.621094 C 1192.785156 915.726562 1191.097656 913.183594 1191.851562 910.402344 C 1194.269531 901.691406 1210.75 912.183594 1216.972656 913.027344 C 1222.484375 914.726562 1227.859375 916.820312 1233.40625 918.367188 C 1235.027344 918.28125 1236.671875 918.960938 1237.746094 920.292969 C 1241.453125 925.867188 1235.113281 930.460938 1229.800781 927.921875 Z M 1229.800781 927.921875 "/>
<path fill-rule="nonzero" fill="rgb(0%, 0%, 0%)" fill-opacity="1" d="M 1232.554688 931.660156 C 1222.113281 928.308594 1211.214844 926.488281 1200.902344 922.707031 C 1198.558594 921.871094 1197.347656 919.03125 1197.980469 916.707031 C 1198.695312 914.125 1201.554688 912.378906 1204.179688 913.171875 C 1214.65625 916.585938 1225.445312 918.808594 1235.953125 922.050781 C 1235.191406 921.878906 1234.414062 921.847656 1233.707031 922.03125 C 1242.707031 920.914062 1241.191406 934.625 1232.554688 931.660156 Z M 1232.554688 931.660156 "/>
<path fill-rule="nonzero" fill="rgb(0%, 0%, 0%)" fill-opacity="1" d="M 1231.230469 933.1875 C 1210.445312 922.074219 1187.707031 916.289062 1165.996094 907.410156 C 1162.8125 906.199219 1158.339844 904.082031 1160.078125 899.960938 C 1162.878906 892.019531 1190.351562 906.796875 1197.171875 908.125 C 1204.03125 911.789062 1244.734375 921.714844 1238.160156 931.339844 C 1236.828125 933.652344 1233.535156 934.691406 1231.230469 933.1875 Z M 1231.230469 933.1875 "/>
<path fill-rule="nonzero" fill="rgb(0%, 0%, 0%)" fill-opacity="1" d="M 1194.988281 919.164062 C 1181.023438 914.390625 1166.269531 911.976562 1152.429688 906.671875 C 1147.132812 903.691406 1132.578125 902.675781 1134.914062 894.300781 C 1136.007812 891.71875 1138.847656 890.746094 1141.371094 891.636719 C 1160.609375 900.125 1180.582031 903.425781 1200.070312 910.347656 C 1205.796875 913.71875 1200.777344 922.382812 1194.988281 919.164062 Z M 1194.988281 919.164062 "/>
<path fill-rule="nonzero" fill="rgb(0%, 0%, 0%)" fill-opacity="1" d="M 1196.128906 916.011719 C 1196.148438 913.230469 1198.46875 910.96875 1201.25 910.96875 C 1204.011719 910.96875 1206.316406 913.332031 1206.292969 916.089844 C 1206.273438 918.871094 1203.953125 921.136719 1201.171875 921.136719 C 1198.410156 921.136719 1196.105469 918.773438 1196.128906 916.011719 Z M 1196.128906 916.011719 "/>
<path fill-rule="nonzero" fill="rgb(0%, 0%, 0%)" fill-opacity="1" d="M 1230.476562 923.605469 C 1209.878906 919.839844 1189.480469 916.0625 1169.371094 910.085938 C 1164.472656 908.101562 1154.027344 908.628906 1155.410156 900.988281 C 1156.125 898.347656 1159.007812 896.640625 1161.648438 897.414062 C 1175.421875 901.28125 1189.355469 905.027344 1203.285156 908.167969 C 1213.210938 910.417969 1223.28125 911.5625 1233.179688 913.796875 C 1235.839844 914.511719 1237.46875 917.390625 1236.734375 920.054688 C 1236.003906 922.75 1233.101562 924.324219 1230.476562 923.605469 Z M 1230.476562 923.605469 "/>
<path fill-rule="nonzero" fill="rgb(0%, 0%, 0%)" fill-opacity="1" d="M 1211.082031 924.722656 C 1199.894531 923.222656 1188.785156 920.628906 1178.019531 917.195312 C 1175.394531 916.300781 1173.6875 913.738281 1174.441406 910.941406 C 1175.15625 908.398438 1178.078125 906.492188 1180.699219 907.386719 C 1191.957031 911.050781 1203.382812 913.609375 1215.078125 914.925781 C 1221 900.808594 1244.457031 929.195312 1211.082031 924.722656 Z M 1211.082031 924.722656 "/>
<path fill-rule="nonzero" fill="rgb(0%, 0%, 0%)" fill-opacity="1" d="M 1206.199219 923.105469 C 1171.867188 917.695312 1137.476562 906.351562 1109.449219 885.375 C 1107.222656 883.746094 1106.867188 880.46875 1108.496094 878.324219 C 1110.222656 876.058594 1113.300781 875.820312 1115.542969 877.371094 C 1139.125 894.921875 1166.867188 904.652344 1195.261719 910.949219 C 1203.246094 912.609375 1210.242188 913.695312 1217.933594 913.414062 C 1224.53125 913.550781 1224.523438 923.585938 1217.855469 923.582031 C 1213.972656 923.601562 1210.074219 923.6875 1206.199219 923.105469 Z M 1206.199219 923.105469 "/>
<path fill-rule="nonzero" fill="rgb(0%, 0%, 0%)" fill-opacity="1" d="M 1153.242188 899.765625 C 1133.089844 895.074219 1116.847656 880.882812 1099.660156 870.074219 C 1095.210938 865.597656 1079.40625 860.890625 1084.390625 853.175781 C 1086.117188 850.890625 1089.238281 850.652344 1091.5 852.222656 C 1101.863281 859.351562 1112.304688 866.347656 1122.746094 873.34375 C 1133.390625 879.972656 1142.941406 887.027344 1154.976562 889.722656 C 1163.222656 889.859375 1161.191406 901.761719 1153.242188 899.765625 Z M 1153.242188 899.765625 "/>
</svg>
