<?xml version="1.0" encoding="UTF-8"?>
<!-- Created by grConvert v0.1-0 -->
<svg xmlns="http://www.w3.org/2000/svg" xmlns:xlink="http://www.w3.org/1999/xlink" width="2000" height="2000" viewBox="0 0 2000 2000">
<path fill-rule="nonzero" fill="rgb(0%, 79.215688%, 93.725491%)" fill-opacity="1" d="M 1037.222656 1213.480469 C 1037.742188 1237.773438 1032.429688 1262.070312 1031.046875 1286.441406 C 1028.5 1305.445312 1025.054688 1324.867188 1017.398438 1342.507812 C 1004.1875 1363.671875 986.289062 1389.308594 1003.808594 1413.34375 C 1003.867188 1413.441406 1003.925781 1413.542969 1004.007812 1413.644531 C 999.597656 1413.28125 995.167969 1412.980469 990.757812 1412.660156 C 983.824219 1412.339844 979.050781 1415.1875 975.125 1419.296875 C 969.332031 1419.796875 962.074219 1422.523438 958.066406 1421.621094 C 952.914062 1420.800781 950.710938 1416.992188 946.421875 1414.023438 C 932.230469 1407.027344 919.882812 1423.746094 910.28125 1432.042969 C 906.472656 1434.910156 902.683594 1439.5 897.511719 1439.140625 C 890.71875 1437.878906 882.898438 1439.101562 876.226562 1436.253906 C 872.335938 1434.550781 871.816406 1430.058594 869.429688 1426.972656 C 868.808594 1426.109375 868.105469 1425.328125 867.34375 1424.628906 C 867.207031 1422.484375 866.722656 1420.179688 865.902344 1417.691406 C 851.75 1396.105469 824.933594 1385.402344 811.421875 1362.730469 C 796.207031 1338.859375 786.746094 1311.796875 778.167969 1284.980469 C 769.949219 1261.988281 762.113281 1238.878906 758.085938 1214.722656 C 749.527344 1160.644531 735.433594 1107.949219 722.886719 1054.75 C 710.578125 1004.320312 706.46875 952.40625 708.515625 900.429688 C 713.765625 855.511719 723.910156 809.449219 733.890625 764.671875 C 743.652344 737.371094 761.472656 713.976562 773.238281 687.660156 C 782.257812 670.179688 782.679688 655.449219 777.667969 643 C 790.835938 633.078125 806.332031 625.664062 823.25 626.464844 C 849.304688 626.304688 876.042969 623.316406 898.734375 609.328125 C 903.164062 605.519531 918.257812 600.347656 915.292969 593.273438 C 927.296875 596.839844 939.304688 600.40625 951.371094 603.496094 C 954.71875 610.871094 957.464844 618.1875 959.730469 625.625 C 959.269531 625.984375 958.789062 626.324219 958.285156 626.605469 C 935.796875 640.4375 914.609375 656.492188 893.644531 672.488281 C 841.609375 705.738281 881.496094 712.957031 908.558594 741.199219 C 918.359375 752.382812 908.035156 766.914062 903.585938 778.300781 C 895.566406 796.019531 889.773438 814.839844 887.351562 834.164062 C 883.800781 861.402344 884.0625 891.953125 900.179688 915.382812 C 907.253906 926.585938 920.503906 936.007812 919.941406 950.441406 C 914.769531 975.414062 913.246094 1001.472656 914.269531 1027.070312 C 914.789062 1048.597656 913.46875 1070.546875 918.277344 1091.691406 C 923.128906 1112.078125 932.570312 1130.898438 939.785156 1150.441406 C 945.316406 1165.515625 945.339844 1181.871094 950.667969 1197.023438 C 958.507812 1224.605469 981.476562 1248.117188 1010.382812 1252.527344 C 1038.0625 1256.15625 1019.242188 1142.503906 1018.019531 1123.242188 C 1014.210938 1084.816406 1005.03125 1042.824219 1023.511719 1006.585938 C 1033.132812 1055.875 1030.425781 1107.246094 1034.777344 1157.398438 C 1034.996094 1176.179688 1033.433594 1194.960938 1037.222656 1213.480469 Z M 1037.222656 1213.480469 "/>
<path fill-rule="nonzero" fill="rgb(0%, 79.215688%, 93.725491%)" fill-opacity="1" d="M 845.738281 591.949219 C 849.867188 586.296875 841.667969 580.542969 836.738281 584.351562 C 829.78125 584.332031 823.347656 589.042969 829.363281 595.617188 C 831.246094 597.519531 834.351562 598.324219 836.839844 597.101562 C 840.425781 597.421875 843.773438 594.695312 845.738281 591.949219 Z M 907.773438 591.046875 C 907.675781 591.085938 907.59375 591.148438 907.496094 591.207031 C 890.4375 604.296875 869.289062 613.234375 847.5625 615.199219 C 827.417969 616.402344 806.230469 614.078125 788.050781 624.5 C 785.304688 625.921875 778.992188 629.453125 772.714844 633.78125 C 766.261719 624.21875 756.5 616.222656 745.335938 609.46875 C 746.019531 609.167969 746.679688 608.90625 747.339844 608.664062 C 748.121094 608.324219 748.785156 607.824219 749.285156 607.183594 C 754.855469 609.085938 764.898438 601.511719 770.070312 600.628906 C 776.363281 598.683594 782.800781 597.101562 789.253906 595.898438 C 792.097656 595.296875 794.246094 593.332031 794.425781 590.304688 C 794.324219 584.894531 787.808594 583.511719 783.820312 581.527344 C 775.582031 577.898438 767.144531 574.789062 758.847656 571.324219 C 758.324219 571.0625 757.804688 570.800781 757.300781 570.5 C 765.140625 567.234375 772.9375 563.804688 780.714844 560.378906 C 785.164062 562.082031 789.835938 563.425781 793.644531 565.230469 C 814.207031 571.464844 835.355469 573.105469 856.363281 577.757812 C 873.679688 581.144531 890.757812 585.996094 907.773438 591.046875 Z M 907.773438 591.046875 "/>
</svg>
