<?xml version="1.0" encoding="UTF-8"?>
<!-- Created by grConvert v0.1-0 -->
<svg xmlns="http://www.w3.org/2000/svg" xmlns:xlink="http://www.w3.org/1999/xlink" width="2000" height="2000" viewBox="0 0 2000 2000">
<path fill-rule="nonzero" fill="rgb(0%, 0%, 0%)" fill-opacity="1" d="M 977.410156 537.039062 C 977.410156 523.289062 988.878906 511.820312 1002.628906 511.820312 C 1016.375 511.820312 1027.847656 523.289062 1027.847656 537.039062 C 1027.847656 550.785156 1016.375 562.257812 1002.628906 562.257812 C 988.878906 562.257812 977.410156 550.785156 977.410156 537.039062 Z M 977.410156 537.039062 "/>
<path fill-rule="nonzero" fill="rgb(0%, 0%, 0%)" fill-opacity="1" d="M 1360.824219 734.890625 C 1360.824219 721.144531 1372.296875 709.671875 1386.042969 709.671875 C 1399.789062 709.671875 1411.261719 721.144531 1411.261719 734.890625 C 1411.261719 748.640625 1399.789062 760.109375 1386.042969 760.109375 C 1372.296875 760.109375 1360.824219 748.640625 1360.824219 734.890625 Z M 1360.824219 734.890625 "/>
<path fill-rule="nonzero" fill="rgb(0%, 0%, 0%)" fill-opacity="1" d="M 1448.136719 1139.675781 C 1448.136719 1125.929688 1459.605469 1114.457031 1473.355469 1114.457031 C 1487.101562 1114.457031 1498.574219 1125.929688 1498.574219 1139.675781 C 1498.574219 1153.425781 1487.101562 1164.894531 1473.355469 1164.894531 C 1459.605469 1164.894531 1448.136719 1153.425781 1448.136719 1139.675781 Z M 1448.136719 1139.675781 "/>
<path fill-rule="nonzero" fill="rgb(0%, 0%, 0%)" fill-opacity="1" d="M 1191.21875 1460.527344 C 1191.21875 1446.78125 1202.691406 1435.308594 1216.4375 1435.308594 C 1230.183594 1435.308594 1241.65625 1446.78125 1241.65625 1460.527344 C 1241.65625 1474.273438 1230.183594 1485.746094 1216.4375 1485.746094 C 1202.691406 1485.746094 1191.21875 1474.273438 1191.21875 1460.527344 Z M 1191.21875 1460.527344 "/>
<path fill-rule="nonzero" fill="rgb(0%, 0%, 0%)" fill-opacity="1" d="M 784.675781 1487.105469 C 784.027344 1486.3125 783.351562 1485.53125 782.664062 1484.761719 C 780.84375 1482.160156 778.742188 1479.726562 776.816406 1477.277344 C 775.503906 1475.613281 774.125 1473.992188 772.722656 1472.394531 C 772.003906 1471.566406 771.242188 1470.726562 770.414062 1469.980469 C 769.949219 1468.097656 769.703125 1466.132812 769.703125 1464.121094 C 769.703125 1450.371094 781.171875 1438.902344 794.921875 1438.902344 C 808.667969 1438.902344 820.140625 1450.371094 820.140625 1464.121094 C 820.140625 1477.867188 808.667969 1489.339844 794.921875 1489.339844 C 791.289062 1489.339844 787.816406 1488.539062 784.675781 1487.105469 Z M 784.675781 1487.105469 "/>
<path fill-rule="nonzero" fill="rgb(0%, 0%, 0%)" fill-opacity="1" d="M 513.046875 1167.003906 C 512.785156 1166.695312 512.5 1166.367188 512.214844 1166.0625 C 511.757812 1165.535156 511.230469 1165.097656 510.660156 1164.703125 C 510.640625 1164.660156 510.597656 1164.617188 510.550781 1164.550781 C 510.421875 1164.375 510.289062 1164.179688 510.15625 1164.003906 C 508.230469 1161.222656 506.304688 1158.445312 504.3125 1155.707031 C 503.195312 1154.175781 502.125 1152.554688 500.898438 1151.089844 C 500.777344 1150.9375 500.652344 1150.796875 500.527344 1150.65625 C 500.339844 1149.921875 500.171875 1149.179688 500 1148.441406 C 501.925781 1142.246094 502.824219 1135.675781 503.875 1129.261719 C 504.027344 1128.585938 504.1875 1127.90625 504.328125 1127.226562 C 508.976562 1122.027344 515.707031 1118.710938 523.097656 1118.710938 C 536.84375 1118.710938 548.3125 1130.183594 548.3125 1143.929688 C 548.3125 1157.679688 536.84375 1169.148438 523.097656 1169.148438 C 519.550781 1169.148438 516.132812 1168.382812 513.046875 1167.003906 Z M 513.046875 1167.003906 "/>
<path fill-rule="nonzero" fill="rgb(0%, 0%, 0%)" fill-opacity="1" d="M 583.796875 731.054688 C 583.839844 730.878906 583.863281 730.703125 583.882812 730.507812 C 583.972656 729.828125 584.039062 729.148438 584.039062 728.449219 C 584.234375 728.011719 584.410156 727.597656 584.5625 727.179688 C 585.023438 726.019531 585.328125 724.816406 585.417969 723.613281 C 585.484375 723.523438 585.546875 723.414062 585.613281 723.304688 C 586.203125 722.386719 586.46875 721.355469 586.753906 720.328125 C 586.773438 720.304688 586.796875 720.261719 586.796875 720.242188 C 587.882812 718.214844 589.378906 716.242188 590.609375 714.183594 C 592.085938 713.285156 593.597656 712.335938 594.71875 711.113281 C 594.839844 710.980469 594.957031 710.847656 595.066406 710.710938 C 595.25 710.625 595.433594 710.539062 595.617188 710.457031 C 597.761719 709.425781 599.84375 708.332031 601.945312 707.238281 C 603.585938 706.691406 605.183594 706.03125 606.761719 705.398438 C 607.679688 705.027344 608.644531 704.632812 609.628906 704.214844 C 623.070312 704.566406 634.167969 715.882812 634.167969 729.414062 C 634.167969 743.160156 622.699219 754.632812 608.949219 754.632812 C 595.769531 754.632812 584.671875 744.058594 583.796875 731.054688 Z M 583.796875 731.054688 "/>
<path fill-rule="nonzero" fill="rgb(0%, 0%, 0%)" fill-opacity="1" d="M 600.945312 751.082031 C 599.042969 749.878906 597.289062 748.433594 595.757812 746.75 C 594.578125 745.480469 593.546875 744.101562 592.671875 742.632812 C 592.386719 742.152344 592.125 741.648438 591.882812 741.144531 C 591.644531 740.664062 591.425781 740.183594 591.203125 739.699219 C 589.300781 735.167969 588.863281 729.957031 589.78125 725.011719 C 590.964844 718.53125 594.46875 712.511719 600.179688 708.988281 C 600.707031 708.660156 601.230469 708.351562 601.777344 708.089844 C 602.960938 707.5 604.121094 706.90625 605.28125 706.316406 C 605.542969 706.183594 605.804688 706.054688 606.070312 705.921875 C 606.179688 705.878906 606.265625 705.8125 606.375 705.769531 C 607.15625 705.375 607.9375 704.984375 608.71875 704.589844 C 610.390625 703.886719 612.128906 703.097656 613.65625 702.109375 C 625.371094 696.21875 637.085938 690.339844 648.800781 684.445312 C 677.457031 670.019531 706.113281 655.617188 734.765625 641.191406 C 786.058594 615.402344 837.328125 589.613281 888.617188 563.828125 C 921.105469 547.472656 953.589844 531.121094 986.101562 514.789062 C 987.304688 514.175781 988.53125 513.566406 989.734375 512.953125 C 989.757812 512.953125 989.757812 512.953125 989.757812 512.953125 C 990.71875 512.449219 991.683594 511.964844 992.644531 511.484375 C 996.015625 509.820312 999.671875 509.164062 1003.304688 509.363281 C 1004.136719 509.863281 1005.058594 510.304688 1006 510.632812 C 1007.464844 511.15625 1009.152344 511.769531 1010.75 511.902344 C 1010.925781 511.988281 1011.121094 512.074219 1011.320312 512.164062 C 1011.429688 512.207031 1011.539062 512.25 1011.648438 512.316406 C 1012.261719 512.578125 1012.851562 512.863281 1013.464844 513.148438 C 1013.507812 513.171875 1013.550781 513.191406 1013.59375 513.214844 C 1013.878906 513.367188 1014.1875 513.519531 1014.492188 513.675781 C 1014.535156 513.695312 1014.558594 513.695312 1014.601562 513.71875 C 1014.582031 513.71875 1014.582031 513.71875 1014.582031 513.71875 C 1015.5 514.132812 1016.484375 514.441406 1017.46875 514.59375 C 1020.207031 516.609375 1022.550781 519.125 1024.257812 521.992188 C 1030.867188 533.289062 1027.472656 550.320312 1015.195312 556.492188 C 1014.929688 556.625 1014.644531 556.777344 1014.363281 556.910156 C 1013.660156 557.238281 1012.960938 557.566406 1012.238281 557.851562 C 1012.261719 557.871094 1012.28125 557.917969 1012.28125 557.960938 C 983.691406 572.320312 955.101562 586.726562 926.492188 601.109375 C 875.175781 626.917969 823.863281 652.726562 772.550781 678.558594 C 724.0625 702.921875 675.617188 727.375 627.105469 751.71875 C 626.210938 752.242188 625.246094 752.726562 624.261719 753.140625 C 621.304688 754.628906 618.109375 755.308594 614.890625 755.308594 C 610.007812 755.308594 605.105469 753.734375 600.945312 751.082031 Z M 600.945312 751.082031 "/>
<path fill-rule="nonzero" fill="rgb(0%, 0%, 0%)" fill-opacity="1" d="M 1015.175781 556.492188 C 1015.164062 556.503906 1015.160156 556.511719 1015.160156 556.511719 C 1015.160156 556.511719 1015.164062 556.503906 1015.175781 556.492188 Z M 1015.175781 556.492188 "/>
<path fill-rule="nonzero" fill="rgb(0%, 0%, 0%)" fill-opacity="1" d="M 521.953125 1176.609375 C 521.453125 1176.542969 520.96875 1176.453125 520.488281 1176.367188 C 519.238281 1174.527344 517.75 1172.863281 516.371094 1171.132812 C 514.992188 1169.425781 513.679688 1167.652344 512.214844 1166.054688 C 511.753906 1165.53125 511.226562 1165.09375 510.660156 1164.699219 C 510.636719 1164.65625 510.59375 1164.609375 510.550781 1164.546875 C 510.417969 1164.371094 510.285156 1164.171875 510.15625 1164 C 508.230469 1161.21875 506.300781 1158.4375 504.308594 1155.703125 C 503.195312 1154.167969 502.121094 1152.550781 500.894531 1151.082031 C 500.785156 1150.929688 500.65625 1150.796875 500.523438 1150.644531 C 500.414062 1150.207031 500.304688 1149.746094 500.195312 1149.308594 C 500.261719 1148.9375 500.328125 1148.566406 500.390625 1148.191406 C 500.785156 1146.246094 501.179688 1144.296875 501.574219 1142.347656 C 501.792969 1141.363281 501.988281 1140.378906 502.164062 1139.371094 C 516.964844 1065.621094 531.761719 991.867188 546.558594 918.09375 C 555.25 874.773438 563.941406 831.449219 572.65625 788.105469 C 576.921875 766.78125 581.191406 745.460938 585.484375 724.140625 C 585.546875 723.832031 585.613281 723.503906 585.703125 723.199219 C 586.226562 722.300781 586.488281 721.316406 586.753906 720.328125 C 586.773438 720.308594 586.796875 720.265625 586.796875 720.21875 C 587.882812 718.214844 589.378906 716.246094 590.609375 714.1875 C 592.085938 713.285156 593.597656 712.335938 594.722656 711.113281 C 594.839844 710.984375 594.957031 710.847656 595.066406 710.710938 C 595.25 710.628906 595.433594 710.542969 595.617188 710.457031 C 597.765625 709.429688 599.84375 708.332031 601.945312 707.238281 C 603.585938 706.691406 605.183594 706.035156 606.761719 705.398438 C 608.773438 704.566406 611.050781 703.671875 613.066406 702.488281 C 613.351562 702.511719 613.636719 702.53125 613.898438 702.574219 C 626.878906 704.347656 638.152344 717.503906 635.460938 730.992188 C 629.351562 761.464844 623.222656 791.957031 617.117188 822.429688 C 604.8125 883.660156 592.53125 944.910156 580.25 1006.140625 C 570.355469 1055.460938 560.460938 1104.804688 550.542969 1154.148438 C 550.523438 1154.300781 550.5 1154.476562 550.457031 1154.652344 C 550.433594 1154.78125 550.390625 1154.914062 550.371094 1155.042969 C 549.054688 1161.632812 546.230469 1167.371094 540.804688 1171.574219 C 536.382812 1174.988281 530.863281 1176.828125 525.304688 1176.828125 C 524.1875 1176.828125 523.070312 1176.761719 521.953125 1176.609375 Z M 521.953125 1176.609375 "/>
<path fill-rule="nonzero" fill="rgb(0%, 0%, 0%)" fill-opacity="1" d="M 776.074219 1476.375 C 774.980469 1475.023438 773.847656 1473.703125 772.703125 1472.394531 C 772.304688 1471.925781 771.890625 1471.457031 771.457031 1471.003906 C 754.820312 1451.503906 738.203125 1431.980469 721.566406 1412.476562 C 691.878906 1377.691406 662.195312 1342.886719 632.511719 1308.078125 C 596.414062 1265.742188 560.292969 1223.402344 524.195312 1181.066406 C 523.273438 1179.972656 522.355469 1178.898438 521.4375 1177.824219 C 520.035156 1175.417969 518.152344 1173.316406 516.378906 1171.148438 C 515 1169.441406 513.6875 1167.667969 512.21875 1166.070312 C 511.757812 1165.546875 511.234375 1165.105469 510.664062 1164.714844 C 510.644531 1164.667969 510.597656 1164.625 510.554688 1164.582031 C 510.425781 1164.386719 510.292969 1164.1875 510.160156 1164.011719 C 508.234375 1161.234375 506.308594 1158.453125 504.316406 1155.714844 C 504.207031 1155.539062 504.097656 1155.386719 503.964844 1155.234375 C 500.3125 1145.273438 503.792969 1133.101562 512.21875 1126.511719 C 523.40625 1117.777344 538.707031 1120.449219 547.617188 1130.890625 C 547.75 1131.042969 547.878906 1131.199219 548.011719 1131.351562 C 548.035156 1131.394531 548.054688 1131.417969 548.078125 1131.4375 C 583.410156 1172.855469 618.71875 1214.273438 654.03125 1255.648438 C 684.242188 1291.070312 714.449219 1326.488281 744.660156 1361.886719 C 766.703125 1387.761719 788.75 1413.617188 810.792969 1439.46875 C 810.859375 1439.535156 810.902344 1439.601562 810.96875 1439.644531 C 812.5 1441.441406 814.03125 1443.234375 815.566406 1445.03125 C 824.496094 1455.492188 821.652344 1472.261719 811.1875 1480.429688 C 806.613281 1484.019531 801.335938 1485.683594 796.105469 1485.683594 C 788.6875 1485.683594 781.332031 1482.34375 776.074219 1476.375 Z M 776.074219 1476.375 "/>
<path fill-rule="nonzero" fill="rgb(0%, 0%, 0%)" fill-opacity="1" d="M 794.101562 1490.671875 C 792.472656 1490.671875 790.878906 1490.503906 789.332031 1490.1875 C 788.421875 1489.691406 787.464844 1489.277344 786.503906 1488.898438 C 786.308594 1488.832031 786.109375 1488.746094 785.890625 1488.679688 C 784.882812 1487.324219 783.789062 1486.03125 782.671875 1484.761719 C 780.835938 1482.179688 778.734375 1479.726562 776.804688 1477.273438 C 775.492188 1475.609375 774.113281 1473.992188 772.710938 1472.394531 C 771.722656 1471.253906 770.667969 1470.097656 769.453125 1469.195312 C 769.253906 1467.910156 769.15625 1466.601562 769.167969 1465.277344 C 769.253906 1451.378906 780.8125 1440.34375 794.558594 1440.234375 C 796.246094 1440.214844 797.953125 1440.214844 799.660156 1440.191406 C 799.75 1440.191406 799.835938 1440.191406 799.902344 1440.191406 C 882.761719 1439.535156 965.597656 1439.207031 1048.476562 1438.679688 C 1096.351562 1438.375 1144.226562 1438.089844 1192.125 1437.804688 C 1198.429688 1437.761719 1204.734375 1437.71875 1211.019531 1437.695312 C 1211.410156 1437.675781 1211.804688 1437.675781 1212.199219 1437.675781 C 1225.949219 1437.585938 1237.351562 1449.453125 1237.242188 1463.066406 C 1237.15625 1477.011719 1225.597656 1487.957031 1211.851562 1488.109375 C 1211.457031 1488.109375 1211.082031 1488.109375 1210.691406 1488.109375 C 1210.515625 1488.132812 1210.316406 1488.132812 1210.140625 1488.132812 C 1209.921875 1488.132812 1209.703125 1488.132812 1209.484375 1488.132812 C 1182.582031 1488.308594 1155.675781 1488.460938 1128.75 1488.613281 C 1042.914062 1489.140625 957.101562 1489.664062 871.265625 1490.191406 C 845.566406 1490.34375 819.886719 1490.453125 794.210938 1490.671875 C 794.167969 1490.671875 794.121094 1490.671875 794.101562 1490.671875 Z M 794.101562 1490.671875 "/>
<path fill-rule="nonzero" fill="rgb(0%, 0%, 0%)" fill-opacity="1" d="M 1201.6875 1480.492188 C 1190.960938 1472.171875 1188.574219 1455.839844 1197.179688 1445.113281 C 1197.179688 1445.070312 1197.222656 1445.050781 1197.265625 1445.003906 C 1250.441406 1378.542969 1303.65625 1312.058594 1356.898438 1245.597656 C 1383.253906 1212.675781 1409.609375 1179.75 1435.96875 1146.824219 C 1442.535156 1138.617188 1449.101562 1130.429688 1455.648438 1122.21875 C 1464.25 1111.515625 1480.035156 1109.195312 1491.046875 1117.710938 C 1494.117188 1120.089844 1496.503906 1123.132812 1498.144531 1126.515625 C 1498.136719 1127.457031 1498.175781 1128.394531 1498.25 1129.3125 C 1498.402344 1130.867188 1498.578125 1132.441406 1498.796875 1133.996094 C 1499.015625 1135.59375 1499.101562 1137.304688 1499.714844 1138.8125 C 1499.757812 1138.878906 1499.78125 1138.945312 1499.824219 1139.011719 C 1499.800781 1139.886719 1499.824219 1140.761719 1500 1141.59375 C 1499.5625 1142.863281 1499.210938 1144.15625 1498.859375 1145.425781 C 1498.6875 1146.058594 1498.53125 1146.738281 1498.402344 1147.417969 C 1497.832031 1148.445312 1497.351562 1149.539062 1496.867188 1150.570312 C 1496.605469 1151.148438 1496.347656 1151.746094 1496.113281 1152.359375 C 1495.933594 1152.601562 1495.746094 1152.847656 1495.554688 1153.085938 C 1477.976562 1175.042969 1460.375 1197.023438 1442.796875 1219 C 1402.890625 1268.824219 1363.003906 1318.671875 1323.097656 1368.515625 C 1294.484375 1404.242188 1265.894531 1439.949219 1237.285156 1475.675781 C 1237.238281 1475.71875 1237.195312 1475.785156 1237.175781 1475.828125 C 1237.152344 1475.871094 1237.109375 1475.914062 1237.066406 1475.960938 C 1232.007812 1482.265625 1224.457031 1485.65625 1216.859375 1485.65625 C 1211.5625 1485.65625 1206.21875 1483.992188 1201.6875 1480.492188 Z M 1201.6875 1480.492188 "/>
<path fill-rule="nonzero" fill="rgb(0%, 0%, 0%)" fill-opacity="1" d="M 1449.226562 1140.011719 C 1444.785156 1119.699219 1440.363281 1099.40625 1435.917969 1079.089844 C 1424.140625 1025.171875 1412.363281 971.277344 1400.585938 917.359375 C 1387.515625 857.640625 1374.425781 797.917969 1361.421875 738.179688 C 1361.378906 738.003906 1361.335938 737.808594 1361.292969 737.609375 C 1361.027344 736.363281 1360.742188 735.09375 1360.480469 733.84375 C 1359.015625 727.144531 1359.539062 720.445312 1363.109375 714.425781 C 1366.4375 708.824219 1371.929688 704.621094 1378.234375 702.914062 C 1391.019531 699.453125 1406.234375 707.246094 1409.167969 720.664062 C 1409.453125 721.914062 1409.714844 723.160156 1410 724.429688 C 1410.066406 724.714844 1410.109375 725 1410.175781 725.285156 C 1426.527344 800.414062 1443.011719 875.503906 1459.429688 950.609375 C 1469.476562 996.605469 1479.527344 1042.597656 1489.574219 1088.613281 C 1492.15625 1100.414062 1494.738281 1112.210938 1497.324219 1124.011719 C 1497.324219 1124.054688 1497.324219 1124.078125 1497.34375 1124.121094 C 1497.542969 1125.019531 1497.738281 1125.914062 1497.9375 1126.835938 C 1498.023438 1127.246094 1498.105469 1127.652344 1498.175781 1128.0625 C 1498.199219 1128.480469 1498.226562 1128.894531 1498.265625 1129.308594 C 1498.386719 1130.542969 1498.523438 1131.792969 1498.683594 1133.035156 C 1498.777344 1137.621094 1497.773438 1142.09375 1495.308594 1146.253906 C 1491.980469 1151.855469 1486.488281 1156.058594 1480.183594 1157.765625 C 1478.125 1158.3125 1476.023438 1158.578125 1473.898438 1158.578125 C 1462.824219 1158.578125 1451.703125 1151.289062 1449.226562 1140.011719 Z M 1449.226562 1140.011719 "/>
<path fill-rule="nonzero" fill="rgb(0%, 0%, 0%)" fill-opacity="1" d="M 1370.898438 742.710938 C 1351.414062 733.230469 1331.953125 723.773438 1312.472656 714.292969 C 1273.613281 695.402344 1234.757812 676.53125 1195.878906 657.640625 C 1150.125 635.398438 1104.375 613.15625 1058.621094 590.914062 C 1038.929688 581.351562 1019.242188 571.789062 999.554688 562.203125 C 999.277344 562.074219 999.003906 561.9375 998.726562 561.800781 C 986.402344 555.800781 979.964844 541.660156 985.613281 528.636719 C 990.910156 516.441406 1006.433594 509.523438 1018.800781 515.523438 C 1018.890625 515.566406 1018.984375 515.613281 1019.074219 515.65625 C 1019.300781 515.765625 1019.519531 515.867188 1019.734375 515.976562 C 1062.941406 537.035156 1106.195312 557.988281 1149.425781 579.007812 C 1193.425781 600.394531 1237.449219 621.804688 1281.449219 643.191406 C 1313.214844 658.625 1344.980469 674.058594 1376.742188 689.515625 C 1381.492188 691.8125 1386.222656 694.109375 1390.972656 696.410156 C 1403.320312 702.40625 1409.734375 716.570312 1404.085938 729.597656 C 1400.117188 738.730469 1390.410156 744.90625 1380.589844 744.90625 C 1377.300781 744.90625 1374 744.214844 1370.898438 742.710938 Z M 1370.898438 742.710938 "/>
</svg>
