<?xml version="1.0" encoding="UTF-8"?>
<!-- Created by grConvert v0.1-0 -->
<svg xmlns="http://www.w3.org/2000/svg" xmlns:xlink="http://www.w3.org/1999/xlink" width="2000" height="2000" viewBox="0 0 2000 2000">
<path fill-rule="nonzero" fill="rgb(0%, 0%, 0%)" fill-opacity="1" d="M 1015.171875 556.488281 C 1015.160156 556.5 1015.15625 556.503906 1015.15625 556.503906 C 1015.15625 556.503906 1015.160156 556.5 1015.171875 556.488281 Z M 1015.171875 556.488281 "/>
<path fill-rule="nonzero" fill="rgb(0%, 79.215688%, 93.725491%)" fill-opacity="1" d="M 1435.921875 1079.097656 C 1439.796875 1096.855469 1443.671875 1114.585938 1447.546875 1132.339844 C 1443.695312 1137.175781 1439.84375 1141.992188 1435.96875 1146.832031 C 1409.609375 1179.757812 1383.253906 1212.679688 1356.894531 1245.605469 C 1305.605469 1309.636719 1254.3125 1373.714844 1203.085938 1437.746094 C 1199.429688 1437.769531 1195.773438 1437.789062 1192.117188 1437.8125 C 1144.21875 1438.097656 1096.34375 1438.382812 1048.46875 1438.6875 C 969.417969 1439.191406 890.390625 1439.519531 811.363281 1440.109375 C 811.230469 1439.957031 811.097656 1439.804688 810.96875 1439.652344 C 810.902344 1439.605469 810.859375 1439.542969 810.792969 1439.476562 C 788.746094 1413.621094 766.703125 1387.769531 744.660156 1361.894531 C 714.449219 1326.496094 684.238281 1291.074219 654.027344 1255.652344 C 620.601562 1216.488281 587.195312 1177.304688 553.742188 1138.097656 C 562.589844 1094.09375 571.410156 1050.117188 580.234375 1006.136719 C 592.511719 944.90625 604.792969 883.652344 617.097656 822.421875 C 621.980469 798.078125 626.859375 773.714844 631.742188 749.371094 C 678.699219 725.816406 725.613281 702.128906 772.546875 678.554688 C 823.863281 652.722656 875.175781 626.910156 926.488281 601.101562 C 951.578125 588.492188 976.664062 575.859375 1001.730469 563.25 C 1020.710938 572.488281 1039.644531 581.707031 1058.625 590.921875 C 1104.378906 613.164062 1150.132812 635.40625 1195.882812 657.644531 C 1234.761719 676.539062 1273.621094 695.410156 1312.476562 714.300781 C 1328.65625 722.183594 1344.832031 730.042969 1361.011719 737.898438 C 1361.296875 740.242188 1361.910156 742.496094 1362.828125 744.621094 C 1362.828125 744.621094 1362.828125 744.644531 1362.828125 744.644531 C 1375.371094 802.238281 1388.003906 859.792969 1400.589844 917.367188 C 1412.367188 971.285156 1424.144531 1025.179688 1435.921875 1079.097656 Z M 1435.921875 1079.097656 "/>
</svg>
