<?xml version="1.0" encoding="UTF-8"?>
<!-- Created by grConvert v0.1-0 -->
<svg xmlns="http://www.w3.org/2000/svg" xmlns:xlink="http://www.w3.org/1999/xlink" width="2000" height="2000" viewBox="0 0 2000 2000">
<path fill-rule="nonzero" fill="rgb(0%, 0%, 0%)" fill-opacity="1" d="M 649.6875 677.585938 C 645.03125 666.398438 649.425781 653.34375 659.347656 646.976562 C 660.515625 646.59375 661.667969 646.171875 662.8125 645.734375 C 666.183594 644.421875 669.648438 643.054688 672.648438 641.019531 C 712.871094 624.222656 753.125 607.421875 793.347656 590.640625 C 841.003906 570.75 888.636719 550.855469 936.292969 530.964844 C 954.109375 523.527344 971.925781 516.109375 989.71875 508.652344 C 1002.261719 503.417969 1017.09375 509.558594 1022.304688 522.078125 C 1027.539062 534.640625 1021.398438 549.410156 1008.898438 554.664062 C 1008.746094 554.726562 1008.574219 554.792969 1008.421875 554.855469 C 982.542969 565.667969 956.679688 576.457031 930.800781 587.246094 C 878.90625 608.933594 826.992188 630.601562 775.074219 652.265625 C 744.761719 664.914062 714.425781 677.5625 684.089844 690.234375 C 684.023438 690.257812 683.960938 690.300781 683.894531 690.320312 C 683.441406 690.515625 682.988281 690.710938 682.511719 690.90625 C 682.511719 690.90625 682.511719 690.90625 682.488281 690.90625 C 682.382812 690.949219 682.273438 690.992188 682.144531 691.035156 C 679.136719 692.289062 676.003906 692.894531 672.890625 692.894531 C 663.09375 692.894531 653.644531 687.035156 649.6875 677.585938 Z M 649.6875 677.585938 "/>
<path fill-rule="nonzero" fill="rgb(0%, 0%, 0%)" fill-opacity="1" d="M 1316.121094 687.035156 C 1316.121094 687.035156 1316.101562 687.011719 1316.078125 687.011719 C 1313.832031 686.0625 1311.582031 685.128906 1309.3125 684.199219 C 1309.09375 684.113281 1308.878906 684.007812 1308.683594 683.921875 C 1265.503906 666.101562 1222.453125 647.984375 1179.339844 629.992188 C 1121.585938 605.929688 1063.832031 581.839844 1006.101562 557.777344 C 1002.707031 556.347656 999.3125 554.941406 995.894531 553.515625 C 995.789062 553.472656 995.65625 553.40625 995.527344 553.363281 C 994.964844 553.125 994.382812 552.890625 993.820312 552.652344 C 981.300781 547.417969 976.738281 530.921875 982.445312 519.308594 C 985.386719 513.320312 990.726562 508.671875 997.042969 506.617188 C 1003.464844 504.519531 1009.691406 505.382812 1015.789062 507.914062 C 1052.027344 523.027344 1088.265625 538.140625 1124.484375 553.234375 C 1179.46875 576.15625 1234.433594 599.09375 1289.398438 621.992188 C 1303.214844 627.746094 1317.03125 633.539062 1330.847656 639.292969 C 1331 639.355469 1331.148438 639.398438 1331.28125 639.464844 C 1333.355469 640.308594 1335.410156 641.171875 1337.464844 642.039062 C 1337.613281 642.101562 1337.746094 642.144531 1337.875 642.210938 C 1337.9375 642.230469 1337.980469 642.253906 1338.027344 642.277344 C 1338.046875 642.277344 1338.070312 642.296875 1338.070312 642.296875 C 1340.648438 643.371094 1342.886719 644.925781 1344.769531 646.8125 C 1345.390625 649.453125 1346.390625 652.039062 1347.691406 654.621094 C 1348.492188 656.199219 1349.269531 657.953125 1350.265625 659.445312 C 1350.707031 660.117188 1351.179688 660.769531 1351.675781 661.394531 C 1352.296875 666.261719 1351.601562 671.292969 1349.464844 675.636719 C 1346.523438 681.628906 1341.183594 686.277344 1334.847656 688.332031 C 1332.382812 689.152344 1329.9375 689.519531 1327.515625 689.519531 C 1323.667969 689.519531 1319.863281 688.589844 1316.121094 687.035156 Z M 1316.121094 687.035156 "/>
<path fill-rule="nonzero" fill="rgb(0%, 0%, 0%)" fill-opacity="1" d="M 1453.085938 1004.605469 C 1429.0625 951.609375 1404.910156 898.675781 1380.824219 845.703125 C 1358.183594 795.90625 1335.546875 746.132812 1312.90625 696.359375 C 1310.808594 691.730469 1308.710938 687.125 1306.59375 682.496094 C 1303.78125 676.3125 1302.832031 669.828125 1304.972656 663.210938 C 1306.960938 657.070312 1311.371094 651.859375 1317.082031 648.875 C 1326.875 643.730469 1340.324219 645.976562 1347.566406 654.410156 C 1347.613281 654.476562 1347.632812 654.5625 1347.675781 654.625 C 1348.476562 656.203125 1349.253906 657.957031 1350.25 659.449219 C 1350.703125 660.117188 1351.15625 660.765625 1351.65625 661.394531 C 1362.316406 684.8125 1372.953125 708.269531 1383.613281 731.6875 C 1415.179688 801.074219 1446.726562 870.4375 1478.273438 939.824219 C 1484.589844 953.707031 1490.902344 967.566406 1497.195312 981.449219 C 1499.128906 985.71875 1500.195312 990.117188 1499.96875 994.597656 C 1498.777344 997.394531 1497.808594 1000.328125 1496.847656 1003.070312 C 1496.847656 1003.070312 1496.847656 1003.046875 1496.847656 1003.046875 C 1496.835938 1003.070312 1496.832031 1003.097656 1496.828125 1003.128906 C 1496.8125 1003.164062 1496.796875 1003.191406 1496.785156 1003.222656 C 1496.777344 1003.238281 1496.773438 1003.257812 1496.765625 1003.273438 C 1495.636719 1005.21875 1494.625 1007.304688 1493.871094 1009.445312 C 1491.863281 1011.734375 1489.445312 1013.664062 1486.730469 1015.09375 C 1483.226562 1016.929688 1479.246094 1017.816406 1475.246094 1017.816406 C 1466.167969 1017.816406 1456.976562 1013.1875 1453.085938 1004.605469 Z M 1453.085938 1004.605469 "/>
<path fill-rule="nonzero" fill="rgb(0%, 0%, 0%)" fill-opacity="1" d="M 1496.464844 1004.128906 C 1496.464844 1004.136719 1496.460938 1004.144531 1496.460938 1004.152344 C 1496.460938 1004.136719 1496.460938 1004.132812 1496.464844 1004.128906 Z M 1496.464844 1004.128906 "/>
<path fill-rule="nonzero" fill="rgb(0%, 0%, 0%)" fill-opacity="1" d="M 1496.710938 1003.4375 C 1496.667969 1003.566406 1496.621094 1003.695312 1496.578125 1003.820312 C 1496.621094 1003.691406 1496.664062 1003.5625 1496.710938 1003.4375 Z M 1496.710938 1003.4375 "/>
<path fill-rule="nonzero" fill="rgb(0%, 0%, 0%)" fill-opacity="1" d="M 1496.785156 1003.222656 C 1496.785156 1003.222656 1496.792969 1003.222656 1496.792969 1003.222656 C 1496.789062 1003.226562 1496.785156 1003.234375 1496.785156 1003.242188 C 1496.785156 1003.242188 1496.785156 1003.222656 1496.785156 1003.222656 Z M 1496.785156 1003.222656 "/>
<path fill-rule="nonzero" fill="rgb(0%, 0%, 0%)" fill-opacity="1" d="M 1496.792969 1003.222656 C 1496.804688 1003.1875 1496.816406 1003.160156 1496.824219 1003.132812 C 1496.820312 1003.160156 1496.816406 1003.191406 1496.804688 1003.222656 C 1496.804688 1003.222656 1496.792969 1003.222656 1496.792969 1003.222656 Z M 1496.792969 1003.222656 "/>
<path fill-rule="nonzero" fill="rgb(0%, 0%, 0%)" fill-opacity="1" d="M 1496.828125 1003.128906 C 1496.832031 1003.109375 1496.839844 1003.09375 1496.847656 1003.070312 C 1496.839844 1003.09375 1496.832031 1003.113281 1496.824219 1003.132812 C 1496.828125 1003.128906 1496.828125 1003.128906 1496.828125 1003.128906 Z M 1496.828125 1003.128906 "/>
<path fill-rule="nonzero" fill="rgb(0%, 0%, 0%)" fill-opacity="1" d="M 1316.292969 1361.453125 C 1310.367188 1358.449219 1305.828125 1353.109375 1303.816406 1346.792969 C 1301.738281 1340.328125 1302.667969 1334.082031 1304.011719 1331.011719 C 1330.066406 1269.386719 1355.902344 1207.675781 1381.851562 1146.007812 C 1401.136719 1100.171875 1420.425781 1054.332031 1439.710938 1008.492188 C 1442.867188 1000.96875 1446.046875 993.464844 1449.203125 985.941406 C 1451.839844 979.648438 1455.863281 974.523438 1462.175781 971.582031 C 1468.015625 968.835938 1474.828125 968.492188 1480.921875 970.609375 C 1493.117188 974.867188 1501.53125 989.808594 1496.253906 1002.328125 C 1490.199219 1016.707031 1484.167969 1031.085938 1478.113281 1045.464844 C 1454.542969 1101.488281 1430.953125 1157.535156 1407.386719 1213.578125 C 1388.1875 1259.203125 1369.332031 1304.976562 1349.761719 1350.449219 C 1345.980469 1359.246094 1336.632812 1364.011719 1327.402344 1364.011719 C 1323.539062 1364.011719 1319.699219 1363.175781 1316.292969 1361.453125 Z M 1316.292969 1361.453125 "/>
<path fill-rule="nonzero" fill="rgb(0%, 0%, 0%)" fill-opacity="1" d="M 977.273438 1478.769531 C 972.214844 1466.207031 978.484375 1451.375 991.089844 1446.355469 C 991.285156 1446.269531 991.5 1446.183594 991.71875 1446.097656 C 991.933594 1446.011719 992.148438 1445.929688 992.363281 1445.847656 C 1066.882812 1416.179688 1141.335938 1386.359375 1215.832031 1356.601562 C 1249.09375 1343.320312 1282.375 1330.039062 1315.660156 1316.753906 C 1315.882812 1316.65625 1316.105469 1316.5625 1316.332031 1316.472656 C 1316.644531 1316.355469 1316.953125 1316.226562 1317.269531 1316.101562 C 1317.375 1316.058594 1317.480469 1316.015625 1317.585938 1315.972656 C 1317.808594 1315.886719 1318.035156 1315.804688 1318.257812 1315.722656 C 1330.742188 1311.074219 1345.097656 1317.300781 1350.128906 1329.726562 C 1354.726562 1341.136719 1349.972656 1354.421875 1339.613281 1360.519531 C 1338.539062 1361.164062 1337.398438 1361.726562 1336.203125 1362.203125 C 1335.828125 1362.351562 1335.449219 1362.5 1335.070312 1362.648438 C 1335.03125 1362.667969 1334.992188 1362.683594 1334.949219 1362.699219 C 1334.859375 1362.738281 1334.765625 1362.769531 1334.675781 1362.804688 C 1307.773438 1373.402344 1280.96875 1384.246094 1254.105469 1394.980469 C 1176.328125 1426.03125 1098.53125 1457.082031 1020.757812 1488.152344 C 1017.058594 1489.625 1013.382812 1491.09375 1009.6875 1492.5625 C 1006.71875 1493.746094 1003.632812 1494.304688 1000.585938 1494.304688 C 990.691406 1494.304688 981.175781 1488.40625 977.273438 1478.769531 Z M 977.273438 1478.769531 "/>
<path fill-rule="nonzero" fill="rgb(0%, 0%, 0%)" fill-opacity="1" d="M 987.382812 1492.476562 C 986.601562 1492.152344 985.800781 1491.828125 985.003906 1491.503906 C 956.4375 1480 927.960938 1468.21875 899.441406 1456.585938 C 843.789062 1433.878906 788.132812 1411.175781 732.453125 1388.472656 C 706.796875 1377.984375 681.121094 1367.5625 655.484375 1357.054688 C 655.375 1357.011719 655.265625 1356.972656 655.152344 1356.925781 C 654.722656 1356.753906 654.3125 1356.582031 653.898438 1356.40625 C 641.335938 1351.261719 636.300781 1335.152344 641.835938 1323.304688 C 644.644531 1317.273438 649.878906 1312.515625 656.171875 1310.308594 C 662.484375 1308.105469 668.839844 1308.753906 674.9375 1311.238281 C 736.519531 1336.492188 798.207031 1361.53125 859.832031 1386.679688 C 901.953125 1403.867188 944.070312 1421.035156 986.191406 1438.226562 C 992.808594 1440.929688 999.425781 1443.652344 1006.0625 1446.335938 C 1006.261719 1446.414062 1006.460938 1446.5 1006.65625 1446.585938 C 1007.25 1446.824219 1007.847656 1447.066406 1008.441406 1447.308594 C 1021.003906 1452.433594 1026.019531 1468.5625 1020.507812 1480.410156 C 1016.167969 1489.6875 1007.265625 1494.5625 997.902344 1494.5625 C 994.386719 1494.5625 990.808594 1493.875 987.382812 1492.476562 Z M 987.382812 1492.476562 "/>
<path fill-rule="nonzero" fill="rgb(0%, 0%, 0%)" fill-opacity="1" d="M 641.628906 1346.941406 C 641.609375 1346.875 641.585938 1346.832031 641.542969 1346.789062 C 641.5 1346.703125 641.457031 1346.636719 641.414062 1346.574219 C 640.960938 1345.773438 640.550781 1344.949219 640.183594 1344.085938 C 640.160156 1344.0625 640.160156 1344.042969 640.140625 1344 C 640.09375 1343.871094 640.03125 1343.738281 639.988281 1343.609375 C 625.953125 1310.3125 612.007812 1276.992188 598.019531 1243.695312 C 574.992188 1188.859375 551.964844 1134.023438 528.933594 1079.191406 C 521.71875 1062.019531 514.488281 1044.851562 507.28125 1027.679688 C 507.195312 1027.363281 507.113281 1027.050781 507.03125 1026.734375 C 506.082031 1023.082031 505.195312 1019.339844 502.792969 1016.3125 C 502.609375 1015.699219 502.414062 1015.085938 502.214844 1014.472656 C 499.734375 1003.109375 505.0625 991.058594 516.179688 986.0625 C 528.308594 980.59375 543.855469 986.085938 549.109375 998.605469 C 571.53125 1052.097656 594.019531 1105.546875 616.484375 1159.019531 C 633.347656 1199.214844 650.238281 1239.390625 667.101562 1279.566406 C 673.175781 1294.007812 679.230469 1308.472656 685.308594 1322.9375 C 685.414062 1323.15625 685.523438 1323.371094 685.609375 1323.609375 C 685.609375 1323.609375 685.632812 1323.632812 685.632812 1323.632812 C 685.632812 1323.632812 685.632812 1323.652344 685.632812 1323.652344 C 686.800781 1326.398438 687.449219 1329.253906 687.621094 1332.085938 C 688.269531 1342.226562 682.949219 1352.195312 673.113281 1356.625 C 669.933594 1358.054688 666.519531 1358.746094 663.144531 1358.746094 C 654.582031 1358.746094 646.128906 1354.421875 641.628906 1346.941406 Z M 641.628906 1346.941406 "/>
<path fill-rule="nonzero" fill="rgb(0%, 0%, 0%)" fill-opacity="1" d="M 513.902344 1033.109375 C 511.65625 1032.199219 509.601562 1030.988281 507.785156 1029.519531 C 507.523438 1028.589844 507.265625 1027.660156 507.027344 1026.75 C 506.078125 1023.097656 505.191406 1019.355469 502.789062 1016.328125 C 502.054688 1013.863281 501.167969 1011.441406 500.261719 1009.0625 C 500.171875 1008.71875 500.085938 1008.394531 500 1008.046875 C 500.171875 1006.878906 500.304688 1005.710938 500.390625 1004.566406 C 500.519531 1002.816406 500.628906 1001.042969 500.628906 999.269531 C 500.691406 999.160156 500.734375 999.054688 500.777344 998.945312 C 511.523438 973.429688 522.335938 947.917969 533.105469 922.421875 C 560.976562 856.433594 588.867188 790.441406 616.738281 724.449219 C 625.90625 702.742188 635.097656 681.03125 644.265625 659.34375 C 644.285156 659.28125 644.328125 659.195312 644.351562 659.105469 C 644.394531 658.976562 644.460938 658.871094 644.503906 658.761719 C 645.792969 655.707031 647.621094 653.007812 649.835938 650.75 C 650.367188 650.585938 650.898438 650.402344 651.421875 650.199219 C 653.496094 649.421875 655.59375 648.535156 657.605469 647.496094 C 659.378906 647.019531 661.109375 646.394531 662.816406 645.722656 C 664.859375 644.925781 666.9375 644.109375 668.929688 643.136719 C 671.578125 643.257812 674.253906 643.816406 676.871094 644.859375 C 689.28125 649.808594 696.050781 664.707031 690.773438 677.226562 C 662.730469 743.5625 634.707031 809.902344 606.683594 876.238281 C 589.582031 916.714844 572.476562 957.191406 555.398438 997.648438 C 552.628906 1004.21875 549.839844 1010.792969 547.074219 1017.34375 C 546.984375 1017.539062 546.898438 1017.757812 546.8125 1017.949219 C 546.640625 1018.363281 546.46875 1018.792969 546.273438 1019.203125 C 542.230469 1028.785156 532.886719 1034.859375 522.964844 1034.859375 C 519.957031 1034.859375 516.886719 1034.296875 513.902344 1033.109375 Z M 513.902344 1033.109375 "/>
</svg>
