<?xml version="1.0" encoding="UTF-8"?>
<!-- Created by grConvert v0.1-0 -->
<svg xmlns="http://www.w3.org/2000/svg" xmlns:xlink="http://www.w3.org/1999/xlink" width="2000" height="2000" viewBox="0 0 2000 2000">
<path fill-rule="nonzero" fill="rgb(0%, 0%, 0%)" fill-opacity="1" d="M 1004.929688 1495.976562 C 1005.074219 1493.820312 1005.199219 1491.644531 1005.261719 1489.488281 C 1005.382812 1485.09375 1005.464844 1480.71875 1005.527344 1476.324219 C 1005.589844 1471.992188 1005.527344 1467.65625 1005.261719 1463.324219 C 1005.1875 1462.214844 1005.113281 1461.105469 1005.035156 1459.996094 C 1005.054688 1459.414062 1005.078125 1458.832031 1005.09375 1458.25 C 1005.164062 1456.167969 1005.234375 1454.082031 1005.285156 1452 C 1015.875 1451.902344 1026.460938 1451.453125 1037.050781 1450.671875 C 1056.765625 1448.929688 1076.296875 1446.074219 1095.683594 1442.046875 C 1115.539062 1437.632812 1135.070312 1432.046875 1154.253906 1425.25 C 1173.597656 1418.125 1192.46875 1409.804688 1210.808594 1400.316406 C 1227.710938 1391.324219 1244.058594 1381.382812 1259.808594 1370.5 C 1275.972656 1359.039062 1291.394531 1346.65625 1306.078125 1333.347656 C 1319.898438 1320.554688 1332.960938 1307.019531 1344.726562 1293.34375 C 1344.996094 1293.035156 1345.242188 1292.726562 1345.488281 1292.417969 C 1345.488281 1292.417969 1345.835938 1292.007812 1345.835938 1292.007812 C 1357.972656 1277.507812 1369.25 1262.332031 1379.640625 1246.539062 C 1389.886719 1230.625 1399.171875 1214.15625 1407.527344 1197.171875 C 1416.175781 1179.058594 1423.671875 1160.472656 1430.078125 1141.457031 C 1436.074219 1122.808594 1440.984375 1103.875 1444.78125 1084.632812 C 1448.417969 1064.667969 1450.882812 1044.585938 1452.132812 1024.316406 C 1453.039062 1004.742188 1452.8125 985.214844 1451.496094 965.664062 C 1449.773438 945.023438 1446.792969 924.570312 1442.542969 904.300781 C 1438.148438 884.542969 1432.582031 865.136719 1425.804688 846.078125 C 1418.804688 827.101562 1410.671875 808.621094 1401.410156 790.628906 C 1392.269531 773.378906 1382.167969 756.726562 1371.054688 740.664062 C 1359.617188 724.542969 1347.253906 709.121094 1333.96875 694.4375 C 1320.804688 680.265625 1306.839844 666.855469 1292.09375 654.269531 C 1276.875 641.636719 1260.980469 629.933594 1246.953125 620.792969 C 1231.019531 610.585938 1214.609375 601.34375 1197.667969 592.988281 C 1179.121094 584.175781 1160.144531 576.539062 1140.65625 570.027344 C 1122.214844 564.175781 1103.507812 559.347656 1084.488281 555.632812 C 1065.125 552.121094 1045.632812 549.738281 1026.023438 548.503906 C 1019.449219 548.195312 1012.878906 547.992188 1006.328125 547.929688 C 1006.347656 546.921875 1006.328125 545.917969 1006.308594 544.910156 C 1006.226562 541.914062 1006.121094 538.914062 1006 535.894531 C 1005.898438 533.984375 1005.8125 532.054688 1005.671875 530.125 C 1005.710938 530 1005.753906 529.878906 1005.792969 529.753906 C 1006.347656 527.804688 1006 525.339844 1005.957031 523.347656 C 1005.917969 521.765625 1005.855469 520.183594 1005.710938 518.625 C 1005.8125 517.25 1005.957031 515.894531 1005.546875 514.578125 C 1005.628906 513.324219 1005.730469 512.054688 1005.8125 510.800781 C 1006.65625 508.644531 1006.59375 506.035156 1006.964844 503.796875 C 1007.148438 502.75 1007.355469 501.683594 1007.558594 500.632812 C 1022.46875 500.859375 1037.339844 501.722656 1052.164062 503.179688 C 1103.484375 508.273438 1154.109375 521.953125 1201.300781 542.632812 C 1249.398438 563.679688 1293.898438 592.453125 1333.125 627.324219 C 1370.007812 660.101562 1402.046875 698.605469 1427.59375 740.828125 C 1453.960938 784.429688 1473.574219 831.847656 1485.753906 881.339844 C 1498.585938 933.480469 1502.652344 987.617188 1498.339844 1041.113281 C 1494.109375 1093.707031 1481.191406 1145.542969 1460.757812 1194.171875 C 1441.394531 1240.257812 1414.882812 1283.34375 1382.679688 1321.582031 C 1351.75 1358.320312 1315.648438 1390.253906 1275.683594 1416.851562 C 1236.050781 1443.199219 1192.449219 1463.386719 1147.023438 1477.472656 C 1101.0625 1491.746094 1052.84375 1498.914062 1004.707031 1499.367188 C 1004.808594 1498.214844 1004.847656 1497.066406 1004.929688 1495.976562 Z M 1004.929688 1495.976562 "/>
<path fill-rule="nonzero" fill="rgb(0%, 0%, 0%)" fill-opacity="1" d="M 1029.066406 1491.207031 C 1016.066406 1491.125 1005.589844 1480.304688 1005.550781 1467.40625 C 1005.550781 1467.40625 1005.550781 1467.386719 1005.550781 1467.386719 C 1005.550781 1428.386719 1005.550781 1389.410156 1005.570312 1350.429688 C 1005.570312 1263.109375 1005.589844 1175.789062 1005.613281 1088.46875 C 1005.613281 1002.832031 1005.632812 917.191406 1005.632812 831.554688 C 1005.652344 745.035156 1005.671875 658.515625 1005.671875 571.996094 C 1005.671875 565.832031 1005.675781 559.671875 1005.679688 553.511719 C 1005.941406 552.914062 1006.109375 552.234375 1006.167969 551.457031 C 1006.308594 549.28125 1006.351562 547.105469 1006.289062 544.929688 C 1006.207031 541.929688 1006.105469 538.929688 1005.980469 535.914062 C 1005.890625 534.167969 1005.8125 532.425781 1005.691406 530.679688 C 1005.691406 530.457031 1005.691406 530.230469 1005.691406 530.007812 C 1005.71875 529.929688 1005.75 529.855469 1005.777344 529.773438 C 1006.332031 527.820312 1005.980469 525.355469 1005.941406 523.363281 C 1005.929688 522.964844 1005.917969 522.5625 1005.902344 522.160156 C 1007.464844 510.675781 1017.6875 501.644531 1029.496094 501.71875 C 1042.453125 501.800781 1053.011719 512.625 1053.011719 525.519531 C 1053.011719 525.542969 1053.011719 525.5625 1053.011719 525.601562 C 1053.011719 597.296875 1052.988281 669.007812 1052.96875 740.722656 C 1052.949219 829.667969 1052.949219 918.609375 1052.929688 1007.574219 C 1052.90625 1093.558594 1052.90625 1179.546875 1052.886719 1265.53125 C 1052.886719 1327.554688 1052.867188 1389.554688 1052.867188 1451.550781 C 1052.867188 1456.914062 1052.867188 1462.3125 1052.867188 1467.695312 C 1052.867188 1467.695312 1052.867188 1467.695312 1052.867188 1467.714844 C 1052.867188 1480.550781 1041.960938 1491.207031 1029.230469 1491.207031 C 1029.167969 1491.207031 1029.125 1491.207031 1029.066406 1491.207031 Z M 1029.066406 1491.207031 "/>
<path fill-rule="nonzero" fill="rgb(0%, 0%, 0%)" fill-opacity="1" d="M 995.070312 1495.976562 C 994.925781 1493.820312 994.800781 1491.644531 994.738281 1489.488281 C 994.617188 1485.09375 994.535156 1480.71875 994.472656 1476.324219 C 994.410156 1471.992188 994.472656 1467.65625 994.738281 1463.324219 C 994.8125 1462.214844 994.886719 1461.105469 994.964844 1459.996094 C 994.945312 1459.414062 994.921875 1458.832031 994.90625 1458.25 C 994.835938 1456.167969 994.765625 1454.082031 994.714844 1452 C 984.125 1451.902344 973.539062 1451.453125 962.949219 1450.671875 C 943.234375 1448.929688 923.703125 1446.074219 904.316406 1442.046875 C 884.460938 1437.632812 864.929688 1432.046875 845.746094 1425.25 C 826.402344 1418.125 807.53125 1409.804688 789.191406 1400.316406 C 772.289062 1391.324219 755.941406 1381.382812 740.191406 1370.5 C 724.027344 1359.039062 708.605469 1346.65625 693.921875 1333.347656 C 680.101562 1320.554688 667.039062 1307.019531 655.273438 1293.34375 C 655.003906 1293.035156 654.757812 1292.726562 654.511719 1292.417969 C 654.511719 1292.417969 654.164062 1292.007812 654.164062 1292.007812 C 642.027344 1277.507812 630.75 1262.332031 620.359375 1246.539062 C 610.113281 1230.625 600.828125 1214.15625 592.472656 1197.171875 C 583.824219 1179.058594 576.328125 1160.472656 569.921875 1141.457031 C 563.925781 1122.808594 559.015625 1103.875 555.21875 1084.632812 C 551.582031 1064.667969 549.117188 1044.585938 547.867188 1024.316406 C 546.960938 1004.742188 547.1875 985.214844 548.503906 965.664062 C 550.226562 945.023438 553.207031 924.570312 557.457031 904.300781 C 561.851562 884.542969 567.417969 865.136719 574.195312 846.078125 C 581.195312 827.101562 589.328125 808.621094 598.589844 790.628906 C 607.730469 773.378906 617.832031 756.726562 628.945312 740.664062 C 640.382812 724.542969 652.746094 709.121094 666.03125 694.4375 C 679.195312 680.265625 693.160156 666.855469 707.90625 654.269531 C 723.125 641.636719 739.019531 629.933594 753.046875 620.792969 C 768.980469 610.585938 785.390625 601.34375 802.332031 592.988281 C 820.878906 584.175781 839.855469 576.539062 859.34375 570.027344 C 877.785156 564.175781 896.492188 559.347656 915.511719 555.632812 C 934.875 552.121094 954.367188 549.738281 973.976562 548.503906 C 980.550781 548.195312 987.121094 547.992188 993.671875 547.929688 C 993.652344 546.921875 993.671875 545.917969 993.691406 544.910156 C 993.773438 541.914062 993.878906 538.914062 994 535.894531 C 994.101562 533.984375 994.1875 532.054688 994.328125 530.125 C 994.289062 530 994.246094 529.878906 994.207031 529.753906 C 993.652344 527.804688 994 525.339844 994.042969 523.347656 C 994.082031 521.765625 994.144531 520.183594 994.289062 518.625 C 994.1875 517.25 994.042969 515.894531 994.453125 514.578125 C 994.371094 513.324219 994.269531 512.054688 994.1875 510.800781 C 993.34375 508.644531 993.40625 506.035156 993.035156 503.796875 C 992.851562 502.75 992.644531 501.683594 992.441406 500.632812 C 977.53125 500.859375 962.660156 501.722656 947.835938 503.179688 C 896.515625 508.273438 845.890625 521.953125 798.699219 542.632812 C 750.601562 563.679688 706.097656 592.453125 666.875 627.324219 C 629.992188 660.101562 597.953125 698.605469 572.40625 740.828125 C 546.039062 784.429688 526.425781 831.847656 514.246094 881.339844 C 501.414062 933.480469 497.347656 987.617188 501.660156 1041.113281 C 505.890625 1093.707031 518.808594 1145.542969 539.242188 1194.171875 C 558.605469 1240.257812 585.117188 1283.34375 617.320312 1321.582031 C 648.25 1358.320312 684.351562 1390.253906 724.316406 1416.851562 C 763.949219 1443.199219 807.550781 1463.386719 852.976562 1477.472656 C 898.9375 1491.746094 947.15625 1498.914062 995.292969 1499.367188 C 995.191406 1498.214844 995.152344 1497.066406 995.070312 1495.976562 Z M 995.070312 1495.976562 "/>
<path fill-rule="nonzero" fill="rgb(0%, 0%, 0%)" fill-opacity="1" d="M 970.933594 1491.207031 C 983.933594 1491.125 994.410156 1480.304688 994.449219 1467.40625 C 994.449219 1467.40625 994.449219 1467.386719 994.449219 1467.386719 C 994.449219 1428.386719 994.449219 1389.410156 994.429688 1350.429688 C 994.429688 1263.109375 994.410156 1175.789062 994.386719 1088.46875 C 994.386719 1002.832031 994.367188 917.191406 994.367188 831.554688 C 994.347656 745.035156 994.328125 658.515625 994.328125 571.996094 C 994.328125 565.832031 994.324219 559.671875 994.320312 553.511719 C 994.058594 552.914062 993.890625 552.234375 993.832031 551.457031 C 993.691406 549.28125 993.648438 547.105469 993.710938 544.929688 C 993.792969 541.929688 993.894531 538.929688 994.019531 535.914062 C 994.109375 534.167969 994.1875 532.425781 994.308594 530.679688 C 994.308594 530.457031 994.308594 530.230469 994.308594 530.007812 C 994.28125 529.929688 994.25 529.855469 994.222656 529.773438 C 993.667969 527.820312 994.019531 525.355469 994.058594 523.363281 C 994.070312 522.964844 994.082031 522.5625 994.097656 522.160156 C 992.535156 510.675781 982.3125 501.644531 970.503906 501.71875 C 957.546875 501.800781 946.988281 512.625 946.988281 525.519531 C 946.988281 525.542969 946.988281 525.5625 946.988281 525.601562 C 946.988281 597.296875 947.011719 669.007812 947.03125 740.722656 C 947.050781 829.667969 947.050781 918.609375 947.070312 1007.574219 C 947.09375 1093.558594 947.09375 1179.546875 947.113281 1265.53125 C 947.113281 1327.554688 947.132812 1389.554688 947.132812 1451.550781 C 947.132812 1456.914062 947.132812 1462.3125 947.132812 1467.695312 C 947.132812 1467.695312 947.132812 1467.695312 947.132812 1467.714844 C 947.132812 1480.550781 958.039062 1491.207031 970.769531 1491.207031 C 970.832031 1491.207031 970.875 1491.207031 970.933594 1491.207031 Z M 970.933594 1491.207031 "/>
</svg>
