<?xml version="1.0" encoding="UTF-8"?>
<!-- Created by grConvert v0.1-0 -->
<svg xmlns="http://www.w3.org/2000/svg" xmlns:xlink="http://www.w3.org/1999/xlink" width="2000" height="2000" viewBox="0 0 2000 2000">
<path fill-rule="nonzero" fill="rgb(0%, 79.215688%, 93.725491%)" fill-opacity="1" d="M 1258.300781 613.117188 C 1258.648438 596.449219 1283.40625 596.195312 1283.859375 613.074219 C 1283.425781 629.832031 1258.625 629.90625 1258.300781 613.117188 Z M 1258.300781 613.117188 "/>
<path fill-rule="nonzero" fill="rgb(0%, 79.215688%, 93.725491%)" fill-opacity="1" d="M 1246.691406 615.867188 C 1246.691406 603.335938 1257.144531 592.882812 1269.675781 592.882812 C 1282.207031 592.882812 1292.660156 603.335938 1292.660156 615.867188 C 1292.660156 628.394531 1282.207031 638.851562 1269.675781 638.851562 C 1257.144531 638.851562 1246.691406 628.394531 1246.691406 615.867188 Z M 1246.691406 615.867188 "/>
<path fill-rule="nonzero" fill="rgb(0%, 79.215688%, 93.725491%)" fill-opacity="1" d="M 1402.707031 778.28125 C 1402.707031 765.753906 1413.164062 755.296875 1425.691406 755.296875 C 1438.222656 755.296875 1448.679688 765.753906 1448.679688 778.28125 C 1448.679688 790.8125 1438.222656 801.269531 1425.691406 801.269531 C 1413.164062 801.269531 1402.707031 790.8125 1402.707031 778.28125 Z M 1402.707031 778.28125 "/>
<path fill-rule="nonzero" fill="rgb(0%, 79.215688%, 93.725491%)" fill-opacity="1" d="M 1441.265625 1000.125 C 1441.265625 987.59375 1451.71875 977.140625 1464.25 977.140625 C 1476.78125 977.140625 1487.234375 987.59375 1487.234375 1000.125 C 1487.234375 1012.652344 1476.78125 1023.109375 1464.25 1023.109375 C 1451.71875 1023.109375 1441.265625 1012.652344 1441.265625 1000.125 Z M 1441.265625 1000.125 "/>
<path fill-rule="nonzero" fill="rgb(0%, 79.215688%, 93.725491%)" fill-opacity="1" d="M 1404.21875 1182.800781 C 1404.21875 1170.269531 1414.671875 1159.816406 1427.203125 1159.816406 C 1439.734375 1159.816406 1450.1875 1170.269531 1450.1875 1182.800781 C 1450.1875 1195.328125 1439.734375 1205.785156 1427.203125 1205.785156 C 1414.671875 1205.785156 1404.21875 1195.328125 1404.21875 1182.800781 Z M 1404.21875 1182.800781 "/>
<path fill-rule="nonzero" fill="rgb(0%, 79.215688%, 93.725491%)" fill-opacity="1" d="M 1309.796875 1340.183594 C 1309.796875 1327.652344 1320.25 1317.199219 1332.78125 1317.199219 C 1345.3125 1317.199219 1355.765625 1327.652344 1355.765625 1340.183594 C 1355.765625 1352.714844 1345.3125 1363.167969 1332.78125 1363.167969 C 1320.25 1363.167969 1309.796875 1352.714844 1309.796875 1340.183594 Z M 1309.796875 1340.183594 "/>
<path fill-rule="nonzero" fill="rgb(0%, 79.215688%, 93.725491%)" fill-opacity="1" d="M 1165.59375 1441.539062 C 1165.59375 1429.011719 1176.046875 1418.554688 1188.578125 1418.554688 C 1201.109375 1418.554688 1211.5625 1429.011719 1211.5625 1441.539062 C 1211.5625 1454.070312 1201.109375 1464.527344 1188.578125 1464.527344 C 1176.046875 1464.527344 1165.59375 1454.070312 1165.59375 1441.539062 Z M 1165.59375 1441.539062 "/>
<path fill-rule="nonzero" fill="rgb(0%, 79.215688%, 93.725491%)" fill-opacity="1" d="M 977.21875 1473.09375 C 977.21875 1460.5625 987.675781 1450.109375 1000.207031 1450.109375 C 1012.734375 1450.109375 1023.191406 1460.5625 1023.191406 1473.09375 C 1023.191406 1485.621094 1012.734375 1496.078125 1000.207031 1496.078125 C 987.675781 1496.078125 977.21875 1485.621094 977.21875 1473.09375 Z M 977.21875 1473.09375 "/>
<path fill-rule="nonzero" fill="rgb(0%, 79.215688%, 93.725491%)" fill-opacity="1" d="M 807.597656 1440.535156 C 807.597656 1428.003906 818.050781 1417.550781 830.582031 1417.550781 C 843.109375 1417.550781 853.566406 1428.003906 853.566406 1440.535156 C 853.566406 1453.0625 843.109375 1463.519531 830.582031 1463.519531 C 818.050781 1463.519531 807.597656 1453.0625 807.597656 1440.535156 Z M 807.597656 1440.535156 "/>
<path fill-rule="nonzero" fill="rgb(0%, 79.215688%, 93.725491%)" fill-opacity="1" d="M 611.324219 1305.234375 C 611.324219 1292.703125 621.777344 1282.25 634.308594 1282.25 C 646.839844 1282.25 657.292969 1292.703125 657.292969 1305.234375 C 657.292969 1317.761719 646.839844 1328.21875 634.308594 1328.21875 C 621.777344 1328.21875 611.324219 1317.761719 611.324219 1305.234375 Z M 611.324219 1305.234375 "/>
<path fill-rule="nonzero" fill="rgb(0%, 79.215688%, 93.725491%)" fill-opacity="1" d="M 528.691406 1142.3125 C 528.691406 1129.785156 539.148438 1119.328125 551.679688 1119.328125 C 564.207031 1119.328125 574.664062 1129.785156 574.664062 1142.3125 C 574.664062 1154.84375 564.207031 1165.296875 551.679688 1165.296875 C 539.148438 1165.296875 528.691406 1154.84375 528.691406 1142.3125 Z M 528.691406 1142.3125 "/>
<path fill-rule="nonzero" fill="rgb(0%, 79.215688%, 93.725491%)" fill-opacity="1" d="M 508.058594 1002.734375 C 508.058594 990.203125 518.515625 979.75 531.042969 979.75 C 543.574219 979.75 554.027344 990.203125 554.027344 1002.734375 C 554.027344 1015.265625 543.574219 1025.71875 531.042969 1025.71875 C 518.515625 1025.71875 508.058594 1015.265625 508.058594 1002.734375 Z M 508.058594 1002.734375 "/>
<path fill-rule="nonzero" fill="rgb(0%, 79.215688%, 93.725491%)" fill-opacity="1" d="M 538.808594 821.128906 C 538.808594 808.597656 549.265625 798.144531 561.792969 798.144531 C 574.324219 798.144531 584.78125 808.597656 584.78125 821.128906 C 584.78125 833.660156 574.324219 844.113281 561.792969 844.113281 C 549.265625 844.113281 538.808594 833.660156 538.808594 821.128906 Z M 538.808594 821.128906 "/>
<path fill-rule="nonzero" fill="rgb(0%, 79.215688%, 93.725491%)" fill-opacity="1" d="M 660.089844 650.753906 C 660.089844 638.222656 670.546875 627.769531 683.078125 627.769531 C 695.605469 627.769531 706.0625 638.222656 706.0625 650.753906 C 706.0625 663.28125 695.605469 673.738281 683.078125 673.738281 C 670.546875 673.738281 660.089844 663.28125 660.089844 650.753906 Z M 660.089844 650.753906 "/>
<path fill-rule="nonzero" fill="rgb(0%, 79.215688%, 93.725491%)" fill-opacity="1" d="M 817.5 551.410156 C 817.5 538.878906 827.957031 528.425781 840.484375 528.425781 C 853.015625 528.425781 863.46875 538.878906 863.46875 551.410156 C 863.46875 563.9375 853.015625 574.394531 840.484375 574.394531 C 827.957031 574.394531 817.5 563.9375 817.5 551.410156 Z M 817.5 551.410156 "/>
<path fill-rule="nonzero" fill="rgb(0%, 79.215688%, 93.725491%)" fill-opacity="1" d="M 978.515625 530.835938 C 978.515625 518.304688 988.972656 507.851562 1001.503906 507.851562 C 1014.03125 507.851562 1024.488281 518.304688 1024.488281 530.835938 C 1024.488281 543.367188 1014.03125 553.820312 1001.503906 553.820312 C 988.972656 553.820312 978.515625 543.367188 978.515625 530.835938 Z M 978.515625 530.835938 "/>
<path fill-rule="nonzero" fill="rgb(0%, 79.215688%, 93.725491%)" fill-opacity="1" d="M 1098.902344 546.21875 C 1098.902344 533.6875 1109.359375 523.234375 1121.886719 523.234375 C 1134.417969 523.234375 1144.875 533.6875 1144.875 546.21875 C 1144.875 558.75 1134.417969 569.203125 1121.886719 569.203125 C 1109.359375 569.203125 1098.902344 558.75 1098.902344 546.21875 Z M 1098.902344 546.21875 "/>
<path fill-rule="nonzero" fill="rgb(0%, 79.215688%, 93.725491%)" fill-opacity="1" d="M 981.324219 1005.3125 C 981.324219 992.785156 991.777344 982.328125 1004.308594 982.328125 C 1016.839844 982.328125 1027.292969 992.785156 1027.292969 1005.3125 C 1027.292969 1017.84375 1016.839844 1028.300781 1004.308594 1028.300781 C 991.777344 1028.300781 981.324219 1017.84375 981.324219 1005.3125 Z M 981.324219 1005.3125 "/>
<path fill-rule="nonzero" fill="rgb(0%, 79.215688%, 93.725491%)" fill-opacity="1" d="M 651.351562 652.949219 C 651.351562 634.851562 666.453125 619.746094 684.550781 619.746094 C 702.648438 619.746094 717.75 634.851562 717.75 652.949219 C 717.75 671.046875 702.648438 686.148438 684.550781 686.148438 C 666.453125 686.148438 651.351562 671.046875 651.351562 652.949219 Z M 651.351562 652.949219 "/>
<path fill-rule="nonzero" fill="rgb(0%, 79.215688%, 93.725491%)" fill-opacity="1" d="M 810.558594 548.738281 C 810.558594 530.640625 825.660156 515.535156 843.757812 515.535156 C 861.855469 515.535156 876.960938 530.640625 876.960938 548.738281 C 876.960938 566.832031 861.855469 581.9375 843.757812 581.9375 C 825.660156 581.9375 810.558594 566.832031 810.558594 548.738281 Z M 810.558594 548.738281 "/>
<path fill-rule="nonzero" fill="rgb(0%, 79.215688%, 93.725491%)" fill-opacity="1" d="M 969.042969 533.199219 C 969.042969 515.105469 984.144531 500 1002.242188 500 C 1020.339844 500 1035.441406 515.105469 1035.441406 533.199219 C 1035.441406 551.296875 1020.339844 566.402344 1002.242188 566.402344 C 984.144531 566.402344 969.042969 551.296875 969.042969 533.199219 Z M 969.042969 533.199219 "/>
<path fill-rule="nonzero" fill="rgb(0%, 79.215688%, 93.725491%)" fill-opacity="1" d="M 1089.140625 547.707031 C 1089.140625 529.609375 1104.246094 514.507812 1122.339844 514.507812 C 1140.4375 514.507812 1155.542969 529.609375 1155.542969 547.707031 C 1155.542969 565.804688 1140.4375 580.90625 1122.339844 580.90625 C 1104.246094 580.90625 1089.140625 565.804688 1089.140625 547.707031 Z M 1089.140625 547.707031 "/>
<path fill-rule="nonzero" fill="rgb(0%, 79.215688%, 93.725491%)" fill-opacity="1" d="M 1240.679688 615.574219 C 1240.679688 597.476562 1255.785156 582.371094 1273.882812 582.371094 C 1291.976562 582.371094 1307.082031 597.476562 1307.082031 615.574219 C 1307.082031 633.671875 1291.976562 648.773438 1273.882812 648.773438 C 1255.785156 648.773438 1240.679688 633.671875 1240.679688 615.574219 Z M 1240.679688 615.574219 "/>
<path fill-rule="nonzero" fill="rgb(0%, 79.215688%, 93.725491%)" fill-opacity="1" d="M 1400.925781 779.449219 C 1400.925781 761.351562 1416.027344 746.25 1434.125 746.25 C 1452.222656 746.25 1467.324219 761.351562 1467.324219 779.449219 C 1467.324219 797.546875 1452.222656 812.652344 1434.125 812.652344 C 1416.027344 812.652344 1400.925781 797.546875 1400.925781 779.449219 Z M 1400.925781 779.449219 "/>
<path fill-rule="nonzero" fill="rgb(0%, 79.215688%, 93.725491%)" fill-opacity="1" d="M 1433.59375 1002.925781 C 1433.59375 984.832031 1448.699219 969.726562 1466.796875 969.726562 C 1484.894531 969.726562 1499.996094 984.832031 1499.996094 1002.925781 C 1499.996094 1021.023438 1484.894531 1036.128906 1466.796875 1036.128906 C 1448.699219 1036.128906 1433.59375 1021.023438 1433.59375 1002.925781 Z M 1433.59375 1002.925781 "/>
<path fill-rule="nonzero" fill="rgb(0%, 79.215688%, 93.725491%)" fill-opacity="1" d="M 1397.957031 1182.144531 C 1397.957031 1164.050781 1413.0625 1148.945312 1431.160156 1148.945312 C 1449.257812 1148.945312 1464.359375 1164.050781 1464.359375 1182.144531 C 1464.359375 1200.242188 1449.257812 1215.347656 1431.160156 1215.347656 C 1413.0625 1215.347656 1397.957031 1200.242188 1397.957031 1182.144531 Z M 1397.957031 1182.144531 "/>
<path fill-rule="nonzero" fill="rgb(0%, 79.215688%, 93.725491%)" fill-opacity="1" d="M 1306.816406 1342.128906 C 1306.816406 1324.035156 1321.921875 1308.929688 1340.019531 1308.929688 C 1358.113281 1308.929688 1373.21875 1324.035156 1373.21875 1342.128906 C 1373.21875 1360.226562 1358.113281 1375.332031 1340.019531 1375.332031 C 1321.921875 1375.332031 1306.816406 1360.226562 1306.816406 1342.128906 Z M 1306.816406 1342.128906 "/>
<path fill-rule="nonzero" fill="rgb(0%, 79.215688%, 93.725491%)" fill-opacity="1" d="M 1162.367188 1439.007812 C 1162.367188 1420.914062 1177.46875 1405.808594 1195.566406 1405.808594 C 1213.664062 1405.808594 1228.769531 1420.914062 1228.769531 1439.007812 C 1228.769531 1457.105469 1213.664062 1472.210938 1195.566406 1472.210938 C 1177.46875 1472.210938 1162.367188 1457.105469 1162.367188 1439.007812 Z M 1162.367188 1439.007812 "/>
<path fill-rule="nonzero" fill="rgb(0%, 79.215688%, 93.725491%)" fill-opacity="1" d="M 973.769531 1466.800781 C 973.769531 1448.703125 988.871094 1433.597656 1006.96875 1433.597656 C 1025.066406 1433.597656 1040.167969 1448.703125 1040.167969 1466.800781 C 1040.167969 1484.894531 1025.066406 1500 1006.96875 1500 C 988.871094 1500 973.769531 1484.894531 973.769531 1466.800781 Z M 973.769531 1466.800781 "/>
<path fill-rule="nonzero" fill="rgb(0%, 79.215688%, 93.725491%)" fill-opacity="1" d="M 800.40625 1442.675781 C 800.40625 1424.578125 815.511719 1409.476562 833.609375 1409.476562 C 851.703125 1409.476562 866.808594 1424.578125 866.808594 1442.675781 C 866.808594 1460.773438 851.703125 1475.875 833.609375 1475.875 C 815.511719 1475.875 800.40625 1460.773438 800.40625 1442.675781 Z M 800.40625 1442.675781 "/>
<path fill-rule="nonzero" fill="rgb(0%, 79.215688%, 93.725491%)" fill-opacity="1" d="M 611.042969 1330 C 596.519531 1317.339844 600.9375 1292.03125 610.441406 1283.757812 C 634.527344 1255.777344 680.410156 1284.296875 665.792969 1318.488281 C 657.296875 1340.363281 627.488281 1346.878906 611.042969 1330 Z M 611.042969 1330 "/>
<path fill-rule="nonzero" fill="rgb(0%, 79.215688%, 93.725491%)" fill-opacity="1" d="M 519.773438 1140.234375 C 519.773438 1122.140625 534.878906 1107.035156 552.976562 1107.035156 C 571.070312 1107.035156 586.175781 1122.140625 586.175781 1140.234375 C 586.175781 1158.332031 571.070312 1173.4375 552.976562 1173.4375 C 534.878906 1173.4375 519.773438 1158.332031 519.773438 1140.234375 Z M 519.773438 1140.234375 "/>
<path fill-rule="nonzero" fill="rgb(0%, 79.215688%, 93.725491%)" fill-opacity="1" d="M 500.003906 1001.898438 C 500.003906 983.800781 515.105469 968.695312 533.203125 968.695312 C 551.300781 968.695312 566.40625 983.800781 566.40625 1001.898438 C 566.40625 1019.996094 551.300781 1035.097656 533.203125 1035.097656 C 515.105469 1035.097656 500.003906 1019.996094 500.003906 1001.898438 Z M 500.003906 1001.898438 "/>
<path fill-rule="nonzero" fill="rgb(0%, 79.215688%, 93.725491%)" fill-opacity="1" d="M 525.609375 816.953125 C 525.609375 798.855469 540.714844 783.753906 558.808594 783.753906 C 576.90625 783.753906 592.011719 798.855469 592.011719 816.953125 C 592.011719 835.050781 576.90625 850.152344 558.808594 850.152344 C 540.714844 850.152344 525.609375 835.050781 525.609375 816.953125 Z M 525.609375 816.953125 "/>
<path fill-rule="nonzero" fill="rgb(0%, 79.215688%, 93.725491%)" fill-opacity="1" d="M 647.757812 650.503906 C 647.757812 632.40625 662.863281 617.304688 680.957031 617.304688 C 699.054688 617.304688 714.160156 632.40625 714.160156 650.503906 C 714.160156 668.601562 699.054688 683.703125 680.957031 683.703125 C 662.863281 683.703125 647.757812 668.601562 647.757812 650.503906 Z M 647.757812 650.503906 "/>
<path fill-rule="nonzero" fill="rgb(0%, 79.215688%, 93.725491%)" fill-opacity="1" d="M 970.078125 1006.273438 C 970.078125 988.175781 985.183594 973.070312 1003.277344 973.070312 C 1021.375 973.070312 1036.480469 988.175781 1036.480469 1006.273438 C 1036.480469 1024.367188 1021.375 1039.472656 1003.277344 1039.472656 C 985.183594 1039.472656 970.078125 1024.367188 970.078125 1006.273438 Z M 970.078125 1006.273438 "/>
</svg>
