<?xml version="1.0" encoding="UTF-8"?>
<!-- Created by grConvert v0.1-0 -->
<svg xmlns="http://www.w3.org/2000/svg" xmlns:xlink="http://www.w3.org/1999/xlink" width="2000" height="2000" viewBox="0 0 2000 2000">
<path fill-rule="nonzero" fill="rgb(0%, 0%, 0%)" fill-opacity="1" d="M 1147.558594 1383.898438 C 1116.429688 1383.574219 1085.285156 1383.058594 1054.15625 1382.648438 C 999.894531 1381.917969 945.644531 1381.1875 891.382812 1380.453125 C 877.09375 1380.257812 862.785156 1380.0625 848.5 1379.867188 C 847.265625 1379.847656 846.019531 1379.847656 844.769531 1379.867188 C 841.542969 1379.902344 838.257812 1379.917969 835.136719 1379.507812 C 827.503906 1378.472656 820.777344 1373.335938 817.886719 1366.203125 C 816.566406 1362.953125 816.105469 1359.582031 816.03125 1356.105469 C 815.980469 1352.5 815.980469 1348.878906 815.941406 1345.277344 C 815.335938 1271.855469 814.730469 1198.414062 814.105469 1124.972656 C 813.480469 1048.890625 812.839844 972.792969 812.214844 896.710938 C 811.839844 851.757812 811.464844 806.808594 811.089844 761.871094 C 811.019531 752.738281 810.949219 743.625 810.859375 734.488281 C 810.859375 734.4375 810.859375 734.363281 810.859375 734.3125 C 810.859375 734.292969 810.859375 734.257812 810.859375 734.238281 C 810.859375 734.1875 810.859375 734.117188 810.859375 734.0625 C 810.859375 734.027344 810.859375 733.972656 810.859375 733.9375 C 811.039062 722.789062 820.3125 713.78125 831.410156 713.671875 C 895.949219 713.03125 960.488281 712.421875 1025.027344 711.78125 C 1055.65625 711.496094 1086.285156 711.191406 1116.914062 710.890625 C 1128.578125 710.78125 1140.226562 710.675781 1151.875 710.550781 C 1155.710938 710.515625 1159.527344 710.480469 1163.363281 710.445312 C 1166.789062 710.40625 1170.269531 710.621094 1173.441406 712.121094 C 1180.3125 715.367188 1184.769531 721.164062 1186 728.640625 C 1186.464844 731.5625 1186.214844 734.792969 1186.234375 737.738281 C 1186.25 742.765625 1186.269531 747.796875 1186.285156 752.828125 C 1186.339844 769.453125 1186.394531 786.097656 1186.445312 802.722656 C 1186.570312 838.613281 1186.695312 874.484375 1186.820312 910.375 C 1187.089844 985.90625 1187.339844 1061.414062 1187.605469 1136.941406 C 1187.839844 1202.730469 1188.050781 1268.519531 1188.285156 1334.289062 C 1188.300781 1338.390625 1188.265625 1342.496094 1188.285156 1346.578125 C 1188.535156 1346.972656 1188.785156 1347.363281 1188.996094 1347.773438 C 1189.035156 1348.503906 1189.070312 1349.238281 1189.140625 1349.96875 C 1189.085938 1351.484375 1188.996094 1353 1188.820312 1354.5 C 1188.910156 1353.820312 1188.996094 1353.144531 1189.085938 1352.464844 C 1189.085938 1352.484375 1189.085938 1352.5 1189.085938 1352.539062 C 1188.960938 1353.445312 1188.890625 1354.355469 1188.890625 1355.25 C 1188.820312 1355.910156 1188.785156 1356.585938 1188.785156 1357.246094 C 1188.339844 1359.136719 1188.035156 1361.082031 1188.265625 1362.917969 C 1188.300781 1363.132812 1188.339844 1363.367188 1188.375 1363.578125 C 1188.355469 1363.738281 1188.339844 1363.917969 1188.320312 1364.097656 C 1188.265625 1364.273438 1188.214844 1364.472656 1188.160156 1364.648438 C 1187.855469 1365.808594 1187.554688 1367.003906 1187.285156 1368.199219 C 1186.304688 1369.679688 1185.429688 1371.269531 1184.714844 1372.875 C 1181.363281 1375.851562 1177.386719 1377.421875 1172.980469 1378.6875 C 1170.160156 1379.507812 1167.359375 1380.367188 1164.578125 1381.273438 C 1162.007812 1382.09375 1159.546875 1382.878906 1156.890625 1383.398438 C 1154.640625 1383.824219 1152.320312 1383.914062 1150.003906 1383.914062 C 1149.183594 1383.914062 1148.378906 1383.914062 1147.558594 1383.898438 Z M 1133.964844 1342.621094 C 1138.371094 1342.691406 1142.796875 1342.867188 1147.21875 1342.867188 C 1147.183594 1335.679688 1147.167969 1328.472656 1147.132812 1321.265625 C 1147.023438 1289.300781 1146.917969 1257.316406 1146.808594 1225.332031 C 1146.542969 1147.304688 1146.273438 1069.28125 1146.007812 991.238281 C 1145.738281 918.441406 1145.507812 845.640625 1145.242188 772.84375 C 1145.222656 765.796875 1145.203125 758.75 1145.1875 751.703125 C 1143.867188 751.722656 1142.566406 751.738281 1141.261719 751.757812 C 1128.828125 751.882812 1116.414062 752.007812 1103.980469 752.113281 C 1075.558594 752.390625 1047.121094 752.667969 1018.6875 752.953125 C 1017.5625 752.738281 1016.398438 752.648438 1015.179688 752.703125 C 1013.628906 752.757812 1012.09375 752.828125 1010.542969 752.917969 C 1010.203125 752.933594 1009.882812 752.953125 1009.542969 752.988281 C 1008.636719 753.011719 1007.726562 753.039062 1006.816406 753.074219 C 1006.101562 753.082031 1005.386719 753.089844 1004.671875 753.09375 C 1002.703125 753.113281 1000.730469 753.132812 998.761719 753.152344 C 997.496094 752.875 996.171875 752.71875 994.808594 752.703125 C 992.152344 752.648438 989.476562 752.738281 986.835938 753.023438 C 986.210938 753.078125 985.585938 753.148438 984.980469 753.238281 C 981.589844 752.96875 978.128906 752.953125 974.8125 752.96875 C 972.316406 752.96875 969.78125 752.96875 967.300781 753.238281 C 966.792969 753.289062 966.285156 753.363281 965.777344 753.464844 C 927.898438 753.824219 890.011719 754.1875 852.136719 754.558594 C 852.261719 770.703125 852.40625 786.863281 852.53125 803.007812 C 853.03125 861.695312 853.511719 920.367188 853.992188 979.054688 C 854.652344 1058.578125 855.3125 1138.082031 855.992188 1217.589844 C 856.257812 1249.878906 856.527344 1282.164062 856.792969 1314.453125 C 856.863281 1322.585938 856.917969 1330.738281 856.988281 1338.890625 C 857.542969 1338.890625 858.09375 1338.910156 858.648438 1338.910156 C 866.355469 1339.015625 874.042969 1339.105469 881.75 1339.210938 C 901.691406 1339.480469 921.636719 1339.746094 941.578125 1340.03125 C 963.289062 1340.316406 984.996094 1340.601562 1006.726562 1340.90625 C 1008.8125 1340.996094 1010.882812 1341.050781 1012.988281 1341.066406 C 1013.109375 1341.066406 1013.21875 1341.066406 1013.324219 1341.066406 C 1014.074219 1341.066406 1014.839844 1341.050781 1015.589844 1341.03125 C 1055.050781 1341.550781 1094.507812 1342.085938 1133.964844 1342.621094 Z M 1133.964844 1342.621094 "/>
<path fill-rule="nonzero" fill="rgb(0%, 0%, 0%)" fill-opacity="1" d="M 848.8125 1055.328125 C 837.609375 1055.328125 828.316406 1045.820312 828.371094 1034.65625 C 828.421875 1023.417969 837.824219 1014.230469 849.027344 1014.230469 C 885.019531 1014.230469 921.011719 1014.214844 957.003906 1014.179688 C 958.261719 1014.289062 959.542969 1014.285156 960.8125 1014.175781 C 961.066406 1014.175781 961.316406 1014.175781 961.570312 1014.175781 C 963.335938 1014.695312 965.171875 1014.925781 967.027344 1014.925781 C 968.496094 1014.925781 969.980469 1014.777344 971.425781 1014.511719 C 972.066406 1014.449219 972.703125 1014.390625 973.34375 1014.335938 C 974.046875 1014.304688 974.753906 1014.246094 975.457031 1014.171875 C 985.550781 1014.160156 995.660156 1014.15625 1005.753906 1014.140625 C 1006.289062 1014.140625 1006.84375 1014.140625 1007.378906 1014.140625 C 1007.804688 1014.160156 1008.214844 1014.160156 1008.644531 1014.160156 C 1009.035156 1014.160156 1009.429688 1014.160156 1009.839844 1014.140625 C 1049.246094 1014.121094 1088.6875 1014.085938 1128.125 1014.070312 C 1137.011719 1014.070312 1145.894531 1014.050781 1154.777344 1014.050781 C 1165.980469 1014.050781 1175.273438 1023.558594 1175.21875 1034.726562 C 1175.167969 1045.964844 1165.765625 1055.152344 1154.5625 1055.152344 C 1128.535156 1055.152344 1102.511719 1055.1875 1076.484375 1055.203125 C 1025.039062 1055.222656 973.59375 1055.257812 922.144531 1055.277344 C 897.777344 1055.292969 873.394531 1055.328125 849.007812 1055.328125 C 848.9375 1055.328125 848.882812 1055.328125 848.8125 1055.328125 Z M 848.8125 1055.328125 "/>
<path fill-rule="nonzero" fill="rgb(0%, 0%, 0%)" fill-opacity="1" d="M 993.949219 1500 C 982.566406 1499.730469 973.878906 1490.171875 973.878906 1478.984375 C 973.878906 1450.25 973.878906 1421.527344 973.878906 1392.808594 C 973.878906 1375.304688 973.878906 1357.800781 973.878906 1340.296875 C 976.132812 1340.261719 978.394531 1340.160156 980.660156 1340.023438 C 983.011719 1339.972656 985.386719 1339.917969 987.757812 1339.898438 C 989.273438 1339.972656 990.808594 1340.023438 992.324219 1340.042969 C 993.003906 1340.058594 993.699219 1340.058594 994.375 1340.058594 C 996.589844 1340.273438 998.800781 1340.433594 1001.011719 1340.578125 C 1005.007812 1340.84375 1008.984375 1341.042969 1012.980469 1341.058594 C 1013.089844 1341.058594 1013.214844 1341.058594 1013.320312 1341.058594 C 1013.871094 1341.058594 1014.425781 1341.054688 1014.980469 1341.039062 C 1014.980469 1376.238281 1014.980469 1411.433594 1014.980469 1446.625 C 1014.980469 1457.742188 1014.980469 1468.835938 1014.980469 1479.929688 C 1014.980469 1490.992188 1005.222656 1500 994.394531 1500 C 994.25 1500 994.109375 1500 993.949219 1500 Z M 993.949219 1500 "/>
<path fill-rule="nonzero" fill="rgb(0%, 0%, 0%)" fill-opacity="1" d="M 988.164062 1055.96875 C 985.859375 1055.984375 983.578125 1055.984375 981.277344 1056.003906 C 978.796875 1055.628906 976.28125 1055.519531 973.875 1055.59375 C 973.875 1041.835938 973.875 1028.0625 973.875 1014.304688 C 974.800781 1014.246094 975.722656 1014.152344 976.640625 1014.046875 C 977.496094 1013.976562 978.332031 1013.90625 979.152344 1013.816406 C 979.671875 1013.816406 980.1875 1013.796875 980.707031 1013.796875 C 982.0625 1013.816406 983.398438 1013.796875 984.71875 1013.601562 C 984.738281 1013.601562 984.738281 1013.601562 984.753906 1013.601562 C 985.714844 1013.609375 986.675781 1013.601562 987.640625 1013.585938 C 988.769531 1013.675781 989.902344 1013.757812 991.035156 1013.796875 C 992.925781 1013.867188 994.832031 1013.816406 996.726562 1013.761719 C 997.671875 1013.761719 998.617188 1013.726562 999.5625 1013.726562 C 1002.574219 1013.816406 1005.625 1014.152344 1008.640625 1014.152344 C 1009.570312 1014.152344 1010.476562 1014.136719 1011.386719 1014.046875 C 1012.046875 1014.082031 1012.742188 1014.101562 1013.476562 1014.101562 C 1013.957031 1014.101562 1014.457031 1014.082031 1014.972656 1014.066406 C 1014.972656 1019.683594 1014.972656 1025.285156 1014.972656 1030.886719 C 1014.972656 1039.128906 1014.972656 1047.351562 1014.972656 1055.609375 C 1014.347656 1055.644531 1013.726562 1055.683594 1013.101562 1055.734375 C 1010.710938 1055.894531 1008.320312 1055.96875 1005.949219 1056.128906 C 1005.804688 1056.109375 1005.660156 1056.109375 1005.519531 1056.109375 C 1003.003906 1055.71875 1000.363281 1055.878906 997.832031 1056.003906 C 996.8125 1056.054688 995.796875 1056.109375 994.78125 1056.144531 C 992.570312 1055.914062 990.320312 1055.96875 988.164062 1055.96875 Z M 988.164062 1055.96875 "/>
<path fill-rule="nonzero" fill="rgb(0%, 0%, 0%)" fill-opacity="1" d="M 999.414062 753.324219 C 997.953125 752.929688 996.417969 752.714844 994.8125 752.699219 C 992.15625 752.644531 989.480469 752.734375 986.839844 753.019531 C 986.214844 753.074219 985.589844 753.160156 984.964844 753.25 C 981.59375 752.964844 978.117188 752.949219 974.816406 752.964844 C 974.503906 752.964844 974.1875 752.96875 973.871094 752.96875 C 973.871094 735.789062 973.871094 718.613281 973.871094 701.449219 C 973.871094 666.71875 973.871094 631.96875 973.871094 597.238281 C 973.871094 597.074219 973.871094 596.933594 973.871094 596.773438 C 973.871094 585.570312 983.894531 576.453125 994.902344 576.703125 C 1006.285156 576.972656 1014.972656 586.535156 1014.972656 597.71875 C 1014.972656 597.878906 1014.972656 598.019531 1014.972656 598.183594 C 1014.972656 649.679688 1014.972656 701.203125 1014.972656 752.707031 C 1013.492188 752.757812 1012.027344 752.828125 1010.546875 752.914062 C 1010.207031 752.929688 1009.867188 752.949219 1009.546875 752.984375 C 1007.425781 753.039062 1005.320312 753.109375 1003.214844 753.269531 C 1002.824219 753.285156 1002.449219 753.324219 1002.054688 753.375 C 1001.183594 753.324219 1000.308594 753.304688 999.414062 753.324219 Z M 999.414062 753.324219 "/>
<path fill-rule="nonzero" fill="rgb(0%, 0%, 0%)" fill-opacity="1" d="M 991.140625 541.5 C 966.757812 534.773438 974.515625 496.769531 999.628906 500.222656 C 1028.152344 504.988281 1019.132812 548.480469 991.140625 541.5 Z M 991.140625 541.5 "/>
<path fill-rule="nonzero" fill="rgb(0%, 0%, 0%)" fill-opacity="1" d="M 978.113281 523.148438 C 978.113281 511.945312 987.460938 502.597656 998.664062 502.597656 C 1009.867188 502.597656 1019.214844 511.945312 1019.214844 523.148438 C 1019.214844 534.351562 1009.867188 543.699219 998.664062 543.699219 C 987.460938 543.699219 978.113281 534.351562 978.113281 523.148438 Z M 978.113281 523.148438 "/>
<path fill-rule="nonzero" fill="rgb(0%, 0%, 0%)" fill-opacity="1" d="M 950.015625 1037.882812 C 948.636719 1033.601562 949.8125 1029.308594 951.449219 1025.324219 C 953.121094 1015.320312 965.378906 1012.421875 973.9375 1014.980469 C 985.847656 1016.972656 988.835938 1034.339844 978.292969 1040.035156 C 972.582031 1050.660156 953.449219 1050.441406 950.015625 1037.882812 Z M 950.015625 1037.882812 "/>
</svg>
