<?xml version="1.0" encoding="UTF-8"?>
<!-- Created by grConvert v0.1-0 -->
<svg xmlns="http://www.w3.org/2000/svg" xmlns:xlink="http://www.w3.org/1999/xlink" width="2000" height="2000" viewBox="0 0 2000 2000">
<path fill-rule="nonzero" fill="rgb(0%, 79.215688%, 93.725491%)" fill-opacity="1" d="M 1146.007812 991.246094 C 1146.027344 998.84375 1146.0625 1006.460938 1146.078125 1014.058594 C 1140.085938 1014.078125 1134.109375 1014.078125 1128.117188 1014.078125 C 1090.386719 1014.09375 1052.660156 1014.132812 1014.964844 1014.148438 C 1014.964844 1014.113281 1014.964844 1014.09375 1014.964844 1014.058594 C 1014.449219 1014.078125 1013.949219 1014.09375 1013.46875 1014.09375 C 1012.738281 1014.09375 1012.039062 1014.078125 1011.382812 1014.042969 C 1010.472656 1014.132812 1009.5625 1014.148438 1008.632812 1014.148438 C 1005.617188 1014.148438 1002.570312 1013.808594 999.554688 1013.722656 C 998.609375 1013.722656 997.664062 1013.757812 996.71875 1013.757812 C 994.828125 1013.808594 992.917969 1013.863281 991.027344 1013.792969 C 989.902344 1013.757812 988.761719 1013.683594 987.636719 1013.597656 C 986.675781 1013.597656 985.710938 1013.613281 984.75 1013.597656 C 984.730469 1013.597656 984.730469 1013.597656 984.710938 1013.597656 C 983.390625 1013.792969 982.054688 1013.808594 980.699219 1013.792969 C 980.179688 1013.792969 979.664062 1013.808594 979.148438 1013.808594 C 978.328125 1013.898438 977.488281 1013.972656 976.632812 1014.042969 C 975.722656 1014.148438 974.792969 1014.238281 973.867188 1014.308594 C 973.6875 1014.328125 973.511719 1014.34375 973.332031 1014.34375 C 972.8125 1014.382812 972.296875 1014.433594 971.761719 1014.46875 C 968.980469 1013.953125 965.980469 1013.972656 963.144531 1014.558594 C 962.609375 1014.46875 962.074219 1014.34375 961.558594 1014.183594 C 961.308594 1014.183594 961.058594 1014.183594 960.808594 1014.183594 C 959.542969 1014.292969 958.257812 1014.292969 956.992188 1014.183594 C 922.777344 1014.21875 888.527344 1014.238281 854.292969 1014.238281 C 854.1875 1002.519531 854.082031 990.78125 853.992188 979.0625 C 853.511719 920.371094 853.027344 861.699219 852.527344 803.011719 C 852.402344 786.867188 852.261719 770.707031 852.136719 754.5625 C 890.007812 754.1875 927.898438 753.832031 965.769531 753.457031 C 966.285156 753.367188 966.785156 753.296875 967.300781 753.242188 C 969.78125 752.976562 972.316406 752.976562 974.8125 752.976562 C 977.417969 752.957031 980.09375 752.976562 982.769531 753.101562 C 983.5 753.136719 984.25 753.1875 984.980469 753.242188 C 985.585938 753.152344 986.210938 753.082031 986.835938 753.027344 C 989.476562 752.742188 992.152344 752.652344 994.808594 752.707031 C 995.148438 752.707031 995.488281 752.726562 995.824219 752.742188 C 996.164062 752.761719 996.484375 752.796875 996.824219 752.832031 C 997.019531 752.851562 997.21875 752.886719 997.414062 752.902344 C 997.609375 752.921875 997.824219 752.957031 998.019531 753.011719 C 998.25 753.046875 998.5 753.101562 998.734375 753.152344 C 998.734375 753.152344 998.75 753.152344 998.75 753.152344 C 998.964844 753.207031 999.199219 753.261719 999.410156 753.3125 C 1000.304688 753.296875 1001.175781 753.3125 1002.050781 753.367188 C 1002.445312 753.3125 1002.820312 753.277344 1003.210938 753.261719 C 1004.246094 753.1875 1005.261719 753.117188 1006.296875 753.082031 C 1006.316406 753.082031 1006.351562 753.082031 1006.367188 753.082031 C 1006.511719 753.082031 1006.671875 753.082031 1006.8125 753.082031 C 1007.722656 753.046875 1008.632812 753.011719 1009.542969 752.992188 C 1009.882812 752.957031 1010.203125 752.941406 1010.542969 752.921875 C 1012.09375 752.832031 1013.628906 752.761719 1015.179688 752.707031 C 1016.394531 752.652344 1017.554688 752.742188 1018.675781 752.957031 C 1047.113281 752.671875 1075.5625 752.386719 1103.980469 752.117188 C 1116.414062 752.011719 1128.828125 751.886719 1141.261719 751.761719 C 1142.566406 751.746094 1143.867188 751.726562 1145.1875 751.707031 C 1145.207031 758.753906 1145.222656 765.800781 1145.242188 772.847656 C 1145.507812 845.644531 1145.742188 918.445312 1146.007812 991.246094 Z M 1146.007812 991.246094 "/>
<path fill-rule="nonzero" fill="rgb(0%, 79.215688%, 93.725491%)" fill-opacity="1" d="M 1147.132812 1321.273438 C 1147.167969 1328.480469 1147.1875 1335.6875 1147.222656 1342.878906 C 1142.796875 1342.878906 1138.375 1342.699219 1133.96875 1342.628906 C 1094.507812 1342.09375 1055.050781 1341.558594 1015.589844 1341.039062 C 1015.394531 1341.039062 1015.179688 1341.058594 1014.984375 1341.058594 C 1014.984375 1341.058594 1014.984375 1341.039062 1014.984375 1341.039062 C 1014.429688 1341.058594 1013.878906 1341.058594 1013.324219 1341.058594 C 1013.21875 1341.058594 1013.09375 1341.058594 1012.988281 1341.058594 C 1008.992188 1341.039062 1005.011719 1340.84375 1001.015625 1340.578125 C 998.804688 1340.433594 996.59375 1340.273438 994.382812 1340.058594 C 993.703125 1340.058594 993.007812 1340.058594 992.328125 1340.042969 C 990.8125 1340.023438 989.277344 1339.96875 987.761719 1339.898438 C 985.390625 1339.917969 983.019531 1339.96875 980.664062 1340.023438 C 978.398438 1340.167969 976.132812 1340.273438 973.882812 1340.308594 C 973.882812 1340.363281 973.882812 1340.414062 973.882812 1340.46875 C 963.109375 1340.328125 952.351562 1340.183594 941.578125 1340.042969 C 921.636719 1339.757812 901.691406 1339.488281 881.75 1339.222656 C 874.042969 1339.113281 866.355469 1339.023438 858.648438 1338.917969 C 858.09375 1338.917969 857.542969 1338.898438 856.988281 1338.898438 C 856.917969 1330.746094 856.863281 1322.59375 856.792969 1314.460938 C 856.523438 1282.171875 856.257812 1249.886719 855.988281 1217.597656 C 855.527344 1163.511719 855.078125 1109.425781 854.632812 1055.339844 C 877.144531 1055.339844 899.640625 1055.300781 922.136719 1055.285156 C 939.382812 1055.285156 956.617188 1055.265625 973.867188 1055.265625 C 973.867188 1055.375 973.867188 1055.480469 973.867188 1055.589844 C 976.273438 1055.515625 978.789062 1055.625 981.269531 1056 C 983.570312 1055.980469 985.855469 1055.980469 988.15625 1055.960938 C 990.3125 1055.960938 992.5625 1055.910156 994.773438 1056.140625 C 995.789062 1056.105469 996.808594 1056.050781 997.824219 1056 C 1000.355469 1055.875 1002.996094 1055.714844 1005.511719 1056.105469 C 1005.65625 1056.105469 1005.796875 1056.105469 1005.941406 1056.125 C 1008.3125 1055.960938 1010.703125 1055.890625 1013.09375 1055.730469 C 1013.71875 1055.675781 1014.34375 1055.640625 1014.964844 1055.605469 C 1014.964844 1055.480469 1014.964844 1055.375 1014.964844 1055.25 C 1035.464844 1055.230469 1055.976562 1055.214844 1076.472656 1055.214844 C 1099.71875 1055.195312 1122.980469 1055.160156 1146.222656 1055.160156 C 1146.417969 1111.886719 1146.613281 1168.613281 1146.8125 1225.339844 C 1146.917969 1257.324219 1147.023438 1289.308594 1147.132812 1321.273438 Z M 1147.132812 1321.273438 "/>
</svg>
