<?xml version="1.0" encoding="UTF-8"?>
<!-- Created by grConvert v0.1-0 -->
<svg xmlns="http://www.w3.org/2000/svg" xmlns:xlink="http://www.w3.org/1999/xlink" width="2000" height="2000" viewBox="0 0 2000 2000">
<path fill-rule="nonzero" fill="rgb(0%, 0%, 0%)" fill-opacity="1" d="M 1496.464844 1004.125 C 1496.464844 1004.132812 1496.460938 1004.140625 1496.457031 1004.144531 C 1496.457031 1004.132812 1496.460938 1004.125 1496.464844 1004.125 Z M 1496.464844 1004.125 "/>
<path fill-rule="nonzero" fill="rgb(0%, 0%, 0%)" fill-opacity="1" d="M 1496.710938 1003.429688 C 1496.664062 1003.5625 1496.621094 1003.691406 1496.574219 1003.816406 C 1496.617188 1003.6875 1496.664062 1003.558594 1496.710938 1003.429688 Z M 1496.710938 1003.429688 "/>
<path fill-rule="nonzero" fill="rgb(0%, 0%, 0%)" fill-opacity="1" d="M 1496.78125 1003.214844 C 1496.78125 1003.214844 1496.789062 1003.214844 1496.789062 1003.214844 C 1496.789062 1003.222656 1496.785156 1003.230469 1496.78125 1003.238281 C 1496.78125 1003.238281 1496.78125 1003.214844 1496.78125 1003.214844 Z M 1496.78125 1003.214844 "/>
<path fill-rule="nonzero" fill="rgb(0%, 79.215688%, 93.725491%)" fill-opacity="1" d="M 1446.996094 991.171875 C 1444.574219 996.945312 1442.132812 1002.71875 1439.710938 1008.492188 C 1420.421875 1054.332031 1401.136719 1100.171875 1381.847656 1146.011719 C 1357.523438 1203.828125 1333.304688 1261.667969 1308.894531 1319.445312 C 1277.84375 1331.835938 1246.839844 1344.222656 1215.832031 1356.589844 C 1143.441406 1385.5 1071.089844 1414.496094 998.679688 1443.320312 C 994.503906 1441.632812 990.351562 1439.925781 986.179688 1438.214844 C 944.058594 1421.027344 901.9375 1403.859375 859.820312 1386.667969 C 800.402344 1362.40625 740.917969 1338.277344 681.519531 1313.929688 C 676.71875 1302.472656 671.921875 1290.988281 667.097656 1279.550781 C 650.234375 1239.375 633.347656 1199.203125 616.480469 1159.007812 C 594.988281 1107.871094 573.496094 1056.730469 552.046875 1005.574219 C 553.171875 1002.9375 554.273438 1000.277344 555.398438 997.636719 C 572.480469 957.183594 589.582031 916.707031 606.683594 876.226562 C 632.957031 814.019531 659.226562 751.835938 685.519531 689.628906 C 715.382812 677.171875 745.242188 664.71875 775.082031 652.261719 C 826.996094 630.597656 878.910156 608.933594 930.804688 587.246094 C 955.128906 577.105469 979.433594 566.964844 1003.757812 556.800781 C 1004.539062 557.125 1005.316406 557.449219 1006.09375 557.773438 C 1063.828125 581.839844 1121.578125 605.925781 1179.332031 629.992188 C 1221.863281 647.746094 1264.332031 665.605469 1306.925781 683.183594 C 1308.9375 687.574219 1310.925781 691.960938 1312.917969 696.351562 C 1335.554688 746.125 1358.195312 795.902344 1380.832031 845.699219 C 1402.886719 894.195312 1424.984375 942.652344 1446.996094 991.171875 Z M 1446.996094 991.171875 "/>
</svg>
