<?xml version="1.0" encoding="UTF-8"?>
<!-- Created by grConvert v0.1-0 -->
<svg xmlns="http://www.w3.org/2000/svg" xmlns:xlink="http://www.w3.org/1999/xlink" width="2000" height="2000" viewBox="0 0 2000 2000">
<path fill-rule="nonzero" fill="rgb(0%, 0%, 0%)" fill-opacity="1" d="M 514.710938 910.277344 C 506.308594 899.363281 507.726562 882.925781 518.027344 873.855469 C 520.382812 872.574219 522.636719 871.027344 524.78125 869.355469 C 526.03125 868.382812 527.179688 867.335938 528.21875 866.21875 C 592.84375 818.464844 657.484375 770.753906 722.105469 723.042969 C 786.96875 675.136719 851.832031 627.253906 916.699219 579.347656 C 939.890625 562.226562 963.109375 545.152344 986.28125 527.984375 C 992.355469 523.476562 999.78125 521.816406 1006.789062 522.84375 C 1007.980469 523.59375 1009.21875 524.316406 1010.433594 525.039062 C 1012.535156 526.277344 1014.660156 527.515625 1016.785156 528.730469 C 1017.554688 529.339844 1018.328125 529.945312 1019.097656 530.554688 C 1021.175781 532.304688 1023.324219 533.917969 1025.636719 535.292969 C 1032.527344 546.691406 1030.054688 562.53125 1019.050781 570.65625 C 992.539062 590.300781 965.984375 609.851562 939.449219 629.449219 C 873.835938 677.894531 808.25 726.335938 742.636719 774.78125 C 679.3125 821.542969 615.96875 868.304688 552.644531 915.089844 C 552.296875 915.347656 551.945312 915.582031 551.59375 915.816406 C 546.851562 919.0625 541.386719 920.648438 535.96875 920.648438 C 527.910156 920.648438 519.96875 917.144531 514.710938 910.277344 Z M 514.710938 910.277344 "/>
<path fill-rule="nonzero" fill="rgb(0%, 0%, 0%)" fill-opacity="1" d="M 1456.933594 913.074219 C 1456.464844 912.746094 1456 912.394531 1455.53125 912.070312 C 1455.433594 912 1455.339844 911.925781 1455.246094 911.855469 C 1402.597656 873.886719 1349.90625 835.984375 1297.234375 798.035156 C 1234.449219 752.816406 1171.640625 707.570312 1108.855469 662.328125 C 1072.886719 636.425781 1036.9375 610.519531 1000.96875 584.617188 C 997.113281 581.835938 993.257812 579.058594 989.382812 576.277344 C 977.492188 567.707031 975.507812 550.023438 984.21875 538.578125 C 993.257812 526.667969 1010.007812 524.84375 1021.917969 533.394531 C 1021.964844 533.417969 1022.035156 533.464844 1022.082031 533.511719 C 1022.097656 533.519531 1022.109375 533.53125 1022.121094 533.539062 C 1049.035156 552.902344 1075.941406 572.308594 1102.851562 591.695312 C 1158.1875 631.566406 1213.546875 671.4375 1268.878906 711.308594 C 1330.730469 755.851562 1392.558594 800.394531 1454.386719 844.9375 C 1466.066406 853.347656 1477.765625 861.757812 1489.445312 870.1875 C 1501.335938 878.761719 1503.34375 896.417969 1494.632812 907.886719 C 1489.339844 914.859375 1481.414062 918.367188 1473.359375 918.367188 C 1467.652344 918.367188 1461.882812 916.609375 1456.933594 913.074219 Z M 1456.933594 913.074219 "/>
<path fill-rule="nonzero" fill="rgb(0%, 0%, 0%)" fill-opacity="1" d="M 1292.628906 1469.921875 C 1278.894531 1466.164062 1269.386719 1450.839844 1273.78125 1436.847656 C 1273.832031 1436.6875 1273.882812 1436.515625 1273.933594 1436.355469 C 1273.953125 1436.292969 1273.972656 1436.234375 1273.988281 1436.171875 C 1274.015625 1436.082031 1274.046875 1435.996094 1274.074219 1435.910156 C 1293.96875 1372.550781 1313.796875 1309.164062 1333.644531 1245.78125 C 1360.832031 1159.007812 1388.023438 1072.257812 1415.210938 985.484375 C 1425.300781 953.277344 1435.34375 921.070312 1445.492188 888.886719 C 1445.515625 888.820312 1445.53125 888.753906 1445.550781 888.691406 C 1445.878906 887.617188 1446.207031 886.566406 1446.554688 885.515625 C 1450.949219 871.546875 1465.054688 862.671875 1479.609375 866.664062 C 1493.34375 870.402344 1502.871094 885.722656 1498.457031 899.714844 C 1498.128906 900.765625 1497.804688 901.816406 1497.476562 902.890625 C 1497.375 903.207031 1497.269531 903.523438 1497.160156 903.832031 C 1480.316406 957.332031 1463.621094 1010.894531 1446.859375 1064.410156 C 1419.273438 1152.445312 1391.6875 1240.480469 1364.082031 1328.515625 C 1351.28125 1369.367188 1338.527344 1410.222656 1325.703125 1451.050781 C 1322.007812 1462.765625 1311.515625 1470.875 1299.660156 1470.875 C 1297.355469 1470.875 1295 1470.570312 1292.628906 1469.921875 Z M 1292.628906 1469.921875 "/>
<path fill-rule="nonzero" fill="rgb(0%, 0%, 0%)" fill-opacity="1" d="M 695.523438 1450.609375 C 695.476562 1435.824219 707.695312 1423.863281 722.339844 1423.632812 C 797.128906 1422.535156 871.921875 1421.808594 946.691406 1420.875 C 1031.246094 1419.847656 1115.800781 1418.820312 1200.355469 1417.769531 C 1231.050781 1417.382812 1261.730469 1417.105469 1292.425781 1416.636719 C 1292.589844 1416.632812 1292.757812 1416.625 1292.921875 1416.625 C 1293.046875 1416.625 1293.171875 1416.625 1293.300781 1416.625 C 1293.820312 1416.617188 1294.339844 1416.609375 1294.859375 1416.601562 C 1309.527344 1416.601562 1321.816406 1428.746094 1321.859375 1443.4375 C 1321.882812 1458.175781 1309.667969 1470.324219 1295.023438 1470.417969 C 1294.371094 1470.441406 1293.714844 1470.441406 1293.0625 1470.441406 C 1292.628906 1470.445312 1292.199219 1470.4375 1291.769531 1470.421875 C 1263.679688 1470.472656 1235.566406 1471.152344 1207.480469 1471.492188 C 1125.28125 1472.519531 1043.0625 1473.523438 960.867188 1474.527344 C 881.941406 1475.507812 803.039062 1476.464844 724.136719 1477.445312 C 723.578125 1477.445312 723.039062 1477.445312 722.503906 1477.445312 C 722.40625 1477.449219 722.3125 1477.449219 722.214844 1477.449219 C 707.671875 1477.449219 695.546875 1465.113281 695.523438 1450.609375 Z M 695.523438 1450.609375 "/>
<path fill-rule="nonzero" fill="rgb(0%, 0%, 0%)" fill-opacity="1" d="M 694.828125 1457.878906 C 676.820312 1406.492188 658.835938 1355.082031 640.847656 1303.695312 C 611.089844 1218.71875 581.355469 1133.746094 551.597656 1048.769531 C 535.273438 1002.101562 518.921875 955.363281 502.570312 908.691406 C 502.5 908.507812 502.429688 908.320312 502.359375 908.132812 C 502.246094 907.78125 502.128906 907.457031 502.011719 907.105469 C 499.582031 900.144531 499.089844 893.089844 502.011719 886.152344 C 502.082031 885.988281 502.152344 885.824219 502.246094 885.6875 C 502.78125 885.289062 503.320312 884.890625 503.855469 884.472656 C 506.261719 882.859375 508.550781 881.015625 510.792969 879.121094 C 512.3125 877.929688 513.828125 876.691406 515.347656 875.480469 C 515.644531 875.238281 515.941406 874.996094 516.234375 874.757812 C 518.945312 873.472656 521.539062 871.816406 523.988281 869.96875 C 535.371094 868.925781 547.6875 874.945312 551.597656 886.175781 C 551.738281 886.527344 551.855469 886.878906 551.972656 887.226562 C 552.042969 887.414062 552.113281 887.601562 552.160156 887.765625 C 579.183594 964.914062 606.1875 1042.042969 633.164062 1119.167969 C 664.089844 1207.507812 695.015625 1295.824219 725.941406 1384.140625 C 732.082031 1401.75 738.25 1419.363281 744.417969 1436.949219 C 746.847656 1443.910156 747.335938 1450.964844 744.417969 1457.902344 C 741.683594 1464.300781 736.476562 1469.511719 730.074219 1472.222656 C 726.898438 1473.574219 723.417969 1474.207031 719.914062 1474.207031 C 709.285156 1474.207031 698.472656 1468.273438 694.828125 1457.878906 Z M 694.828125 1457.878906 "/>
</svg>
