<?xml version="1.0" encoding="UTF-8"?>
<!-- Created by grConvert v0.1-0 -->
<svg xmlns="http://www.w3.org/2000/svg" xmlns:xlink="http://www.w3.org/1999/xlink" width="2000" height="2000" viewBox="0 0 2000 2000">
<path fill-rule="nonzero" fill="rgb(0%, 0%, 0%)" fill-opacity="1" d="M 555.023438 777.160156 C 548.617188 766.214844 551.644531 751.347656 561.933594 744.011719 C 562.628906 743.511719 563.351562 743.050781 564.109375 742.625 C 564.109375 742.625 564.132812 742.625 564.15625 742.601562 C 564.339844 742.496094 564.527344 742.398438 564.710938 742.296875 C 619.667969 711.621094 674.382812 680.511719 729.207031 649.640625 C 795.125 612.5 861.039062 575.382812 926.957031 538.261719 C 946.390625 527.316406 965.847656 516.347656 985.304688 505.398438 C 985.519531 505.269531 985.734375 505.140625 985.953125 505.019531 C 986.019531 504.976562 986.105469 504.933594 986.195312 504.886719 C 986.386719 504.777344 986.582031 504.675781 986.777344 504.570312 C 998.75 497.871094 1014.214844 501.667969 1021.234375 513.648438 C 1028.085938 525.363281 1024.144531 541.414062 1012.167969 548.160156 C 1012.015625 548.25 1011.867188 548.339844 1011.714844 548.421875 C 1011.691406 548.4375 1011.667969 548.453125 1011.640625 548.46875 C 1011.574219 548.511719 1011.488281 548.554688 1011.421875 548.597656 C 1011.160156 548.746094 1010.894531 548.886719 1010.632812 549.027344 C 976.980469 567.988281 943.332031 586.945312 909.679688 605.886719 C 836.316406 647.210938 762.953125 688.535156 689.59375 729.855469 C 656.449219 748.53125 623.390625 767.332031 590.160156 785.855469 C 589.976562 785.964844 589.789062 786.074219 589.601562 786.183594 C 589.597656 786.183594 589.597656 786.183594 589.59375 786.183594 C 589.589844 786.183594 589.578125 786.191406 589.578125 786.203125 C 585.699219 788.378906 581.453125 789.453125 577.25 789.511719 C 577.109375 789.511719 576.972656 789.511719 576.832031 789.511719 C 568.167969 789.515625 559.726562 785.191406 555.023438 777.160156 Z M 555.023438 777.160156 "/>
<path fill-rule="nonzero" fill="rgb(0%, 0%, 0%)" fill-opacity="1" d="M 579.046875 1261.363281 C 565.230469 1261.363281 553.929688 1249.867188 553.839844 1236.136719 C 553.359375 1155.636719 553.007812 1075.15625 552.570312 994.675781 C 552.265625 933.972656 551.9375 873.246094 551.628906 812.542969 C 551.542969 797.167969 551.453125 781.796875 551.390625 766.421875 C 551.324219 752.667969 562.953125 741.195312 576.640625 741.214844 C 590.433594 741.214844 601.777344 752.714844 601.84375 766.445312 C 601.933594 783.109375 602.019531 799.753906 602.105469 816.394531 C 602.4375 878.984375 602.765625 941.570312 603.09375 1004.136719 C 603.484375 1080.867188 603.917969 1157.601562 604.289062 1234.308594 C 604.292969 1234.480469 604.296875 1234.652344 604.296875 1234.820312 C 604.296875 1235.042969 604.296875 1235.261719 604.296875 1235.480469 C 604.296875 1235.707031 604.296875 1235.933594 604.296875 1236.15625 C 604.363281 1249.898438 592.757812 1261.363281 579.085938 1261.363281 C 579.074219 1261.363281 579.0625 1261.363281 579.046875 1261.363281 Z M 579.046875 1261.363281 "/>
<path fill-rule="nonzero" fill="rgb(0%, 0%, 0%)" fill-opacity="1" d="M 977.445312 1493.667969 C 977.074219 1493.472656 976.699219 1493.253906 976.328125 1493.035156 C 976.261719 1492.992188 976.21875 1492.96875 976.152344 1492.925781 C 945.339844 1475.316406 914.464844 1457.734375 883.652344 1440.125 C 813.550781 1400.136719 743.453125 1360.105469 673.375 1320.097656 C 636.652344 1299.140625 599.882812 1278.226562 563.203125 1257.226562 C 558.863281 1254.742188 555.546875 1251.078125 553.414062 1246.855469 C 553.464844 1244.558594 553.371094 1242.238281 553.238281 1239.945312 C 553.371094 1239.003906 553.433594 1238.042969 553.433594 1237.054688 C 553.433594 1234.84375 553.414062 1232.609375 553.371094 1230.375 C 553.371094 1229.917969 553.390625 1229.480469 553.371094 1229.039062 C 553.582031 1227.210938 553.574219 1225.304688 553.539062 1223.4375 C 553.660156 1223.210938 553.785156 1222.980469 553.917969 1222.753906 C 560.792969 1210.84375 576.449219 1206.660156 588.386719 1213.492188 C 658.550781 1253.675781 728.824219 1293.664062 799.054688 1333.738281 C 853.363281 1364.75 907.652344 1395.738281 961.960938 1426.722656 C 975.210938 1434.300781 988.460938 1441.835938 1001.6875 1449.410156 C 1001.996094 1449.585938 1002.324219 1449.785156 1002.628906 1449.957031 C 1014.542969 1456.792969 1018.769531 1472.515625 1011.894531 1484.40625 C 1007.25 1492.441406 998.644531 1496.953125 989.863281 1496.953125 C 985.613281 1496.953125 981.34375 1495.902344 977.445312 1493.667969 Z M 977.445312 1493.667969 "/>
<path fill-rule="nonzero" fill="rgb(0%, 0%, 0%)" fill-opacity="1" d="M 973.558594 1487.695312 C 966.75 1476.089844 970.558594 1459.796875 982.605469 1453.183594 C 982.625 1453.160156 982.648438 1453.136719 982.691406 1453.117188 C 982.96875 1452.960938 983.25 1452.8125 983.53125 1452.671875 C 1051.613281 1415.195312 1119.652344 1377.65625 1187.734375 1340.160156 C 1248.875 1306.480469 1310.015625 1272.800781 1371.160156 1239.117188 C 1382.570312 1232.832031 1393.980469 1226.527344 1405.386719 1220.265625 C 1417.433594 1213.628906 1432.828125 1217.199219 1439.921875 1229.285156 C 1446.734375 1240.894531 1442.921875 1257.1875 1430.878906 1263.800781 C 1395.992188 1283.003906 1361.128906 1302.230469 1326.246094 1321.460938 C 1254.042969 1361.226562 1181.84375 1400.996094 1109.617188 1440.789062 C 1075.878906 1459.371094 1042.132812 1478.003906 1008.371094 1496.566406 C 1008.308594 1496.601562 1008.246094 1496.640625 1008.183594 1496.675781 C 1008.136719 1496.695312 1008.117188 1496.71875 1008.09375 1496.71875 C 1004.054688 1498.925781 999.648438 1500 995.304688 1500 C 986.671875 1500 978.292969 1495.753906 973.558594 1487.695312 Z M 973.558594 1487.695312 "/>
<path fill-rule="nonzero" fill="rgb(0%, 0%, 0%)" fill-opacity="1" d="M 1406.277344 1254.179688 C 1401.453125 1249.292969 1398.652344 1242.835938 1398.617188 1235.839844 C 1398.609375 1234.449219 1398.726562 1233.085938 1398.949219 1231.753906 C 1398.925781 1229.074219 1398.984375 1226.386719 1398.945312 1223.816406 C 1398.789062 1214.113281 1398.726562 1204.390625 1398.636719 1194.667969 C 1398.417969 1170.316406 1398.265625 1145.941406 1398.132812 1121.570312 C 1397.914062 1078.800781 1397.738281 1036.007812 1397.542969 993.238281 C 1397.28125 931.617188 1397.058594 869.992188 1396.820312 808.367188 C 1396.777344 795.492188 1396.730469 782.613281 1396.6875 769.738281 C 1396.621094 755.984375 1408.273438 744.53125 1421.960938 744.554688 C 1435.777344 744.574219 1447.078125 756.074219 1447.144531 769.824219 C 1447.273438 802.761719 1447.363281 835.699219 1447.492188 868.632812 C 1447.757812 944.140625 1447.996094 1019.648438 1448.195312 1095.179688 C 1448.261719 1123.40625 1448.304688 1151.65625 1448.304688 1179.90625 C 1448.304688 1192.71875 1448.304688 1205.550781 1448.238281 1218.382812 C 1448.195312 1222.5 1448.171875 1226.597656 1448.105469 1230.714844 C 1448.105469 1230.824219 1448.105469 1230.9375 1448.105469 1231.050781 C 1448.429688 1232.632812 1448.601562 1234.261719 1448.609375 1235.925781 C 1448.644531 1241.867188 1446.519531 1247.386719 1442.945312 1251.894531 C 1443.449219 1251.136719 1443.96875 1250.363281 1444.472656 1249.609375 C 1444.4375 1249.601562 1444.398438 1249.59375 1444.359375 1249.585938 C 1443.746094 1250.636719 1443.058594 1251.640625 1442.714844 1252.179688 C 1442.117188 1252.910156 1441.484375 1253.613281 1440.816406 1254.285156 C 1437.9375 1257.277344 1434.28125 1259.527344 1429.996094 1260.695312 C 1427.886719 1261.269531 1425.777344 1261.542969 1423.707031 1261.542969 C 1416.890625 1261.542969 1410.488281 1258.570312 1405.804688 1253.5625 C 1405.804688 1253.5625 1406.277344 1254.179688 1406.277344 1254.179688 Z M 1406.277344 1254.179688 "/>
<path fill-rule="nonzero" fill="rgb(0%, 0%, 0%)" fill-opacity="1" d="M 1411.148438 790.023438 C 1411.148438 790.023438 1411.148438 790.023438 1411.125 790.023438 C 1410.929688 789.914062 1410.753906 789.78125 1410.554688 789.671875 C 1343.765625 751.347656 1277.148438 712.742188 1210.421875 674.308594 C 1157.601562 643.847656 1104.78125 613.382812 1051.957031 582.945312 C 1031.242188 570.964844 1010.589844 558.941406 989.808594 547.074219 C 989.65625 547.007812 989.523438 546.921875 989.394531 546.855469 C 977.5 539.980469 973.515625 524.078125 980.457031 512.296875 C 987.507812 500.363281 1003.058594 496.550781 1014.992188 503.363281 C 1043.089844 519.394531 1071.03125 535.6875 1099.0625 551.847656 C 1157.773438 585.683594 1216.488281 619.539062 1275.21875 653.394531 C 1328.894531 684.335938 1382.480469 715.390625 1436.199219 746.222656 C 1436.398438 746.3125 1436.574219 746.421875 1436.746094 746.53125 C 1436.746094 746.53125 1436.769531 746.550781 1436.769531 746.550781 C 1440.859375 748.898438 1444.011719 752.320312 1446.105469 756.28125 C 1446.109375 756.410156 1446.117188 756.539062 1446.121094 756.671875 C 1446.230469 759.453125 1446.492188 762.234375 1447.324219 764.816406 C 1447.0625 767.3125 1447.171875 769.898438 1447.585938 772.414062 C 1447.566406 772.832031 1447.566406 773.226562 1447.542969 773.621094 C 1447.507812 774.832031 1447.5 776.019531 1447.554688 777.195312 C 1447.058594 778.53125 1446.445312 779.832031 1445.703125 781.085938 C 1441.019531 789.035156 1432.519531 793.394531 1423.871094 793.394531 C 1419.511719 793.394531 1415.132812 792.300781 1411.148438 790.023438 Z M 1411.148438 790.023438 "/>
</svg>
