<?xml version="1.0" encoding="UTF-8"?>
<!-- Created by grConvert v0.1-0 -->
<svg xmlns="http://www.w3.org/2000/svg" xmlns:xlink="http://www.w3.org/1999/xlink" width="2000" height="2000" viewBox="0 0 2000 2000">
<path fill-rule="nonzero" fill="rgb(0%, 79.215688%, 93.725491%)" fill-opacity="1" d="M 1225.390625 1104.410156 C 1230.371094 1147.265625 1240.328125 1189.214844 1248.515625 1231.484375 C 1217.75 1219.546875 1187.269531 1235.558594 1156.390625 1237.859375 C 1128.191406 1240.597656 1100.050781 1235.03125 1071.792969 1237.710938 C 1022.976562 1238.578125 974.253906 1237.085938 926.855469 1224.65625 C 868.570312 1217.28125 810.945312 1235.410156 752.488281 1230.371094 C 746.605469 1111.765625 771.542969 993.78125 791.875 877.304688 C 796.515625 841.597656 799.15625 805.515625 809.058594 770.675781 C 815.773438 748.683594 823.980469 734.554688 846.707031 727.199219 C 864.742188 717.144531 883.886719 709.109375 904.390625 704.867188 C 924.457031 699.453125 943.546875 690.984375 963.503906 685.34375 C 1018.1875 676.628906 1062.777344 682.964844 1112.308594 708.410156 C 1155.675781 727.140625 1186.15625 732.121094 1192.230469 786.144531 C 1193.023438 840.390625 1197.265625 894.46875 1200.320312 948.832031 C 1201.207031 970.242188 1210.828125 990.5 1212.5625 1012.078125 C 1218.46875 1042.617188 1221.730469 1073.570312 1225.390625 1104.410156 Z M 1225.390625 1104.410156 "/>
</svg>
