<?xml version="1.0" encoding="UTF-8"?>
<!-- Created by grConvert v0.1-0 -->
<svg xmlns="http://www.w3.org/2000/svg" xmlns:xlink="http://www.w3.org/1999/xlink" width="2000" height="2000" viewBox="0 0 2000 2000">
<path fill-rule="nonzero" fill="rgb(0%, 0%, 0%)" fill-opacity="1" d="M 1204.929688 1497.90625 C 1162.113281 1490.660156 1119.910156 1487.070312 1077.265625 1479.921875 C 1043.074219 1475.976562 1009.566406 1467.027344 975.078125 1465.929688 C 931.808594 1467.226562 888.742188 1460.578125 845.578125 1462.390625 C 803.992188 1461.167969 761.789062 1470.835938 720.597656 1465.046875 C 666.007812 1447.535156 664.375 1347.917969 673.382812 1301.320312 C 676.0625 1287.402344 680.574219 1273.929688 683.210938 1259.992188 C 685.65625 1241.5625 696.117188 1219.175781 718.371094 1223.734375 C 715.8125 1160.691406 722.757812 1097.417969 730.347656 1034.902344 C 737.910156 977.164062 752.152344 920.140625 759.808594 862.535156 C 767.273438 812.289062 767.785156 726.753906 820.191406 702.300781 C 833.15625 696.554688 845.511719 689.617188 858.351562 683.644531 C 875.964844 676.09375 895.078125 673.035156 913.125 666.726562 C 929.882812 661.8125 945.671875 653.664062 963.054688 651.074219 C 1027.1875 642.410156 1073.933594 651.128906 1131.570312 680.007812 C 1183.035156 700.125 1213.394531 714.710938 1224.492188 773.128906 C 1228.414062 795.414062 1225.992188 818.234375 1227.394531 840.734375 C 1230.023438 871.582031 1230.652344 902.207031 1233.542969 932.988281 C 1232.796875 958.757812 1243.582031 982.746094 1246.222656 1008.328125 C 1258.632812 1083.65625 1264.335938 1160.339844 1284.5625 1234.160156 C 1307.886719 1232.277344 1311.398438 1261.0625 1314.105469 1278.34375 C 1317.140625 1299.59375 1321.117188 1320.726562 1325.273438 1341.796875 C 1332.035156 1378.253906 1336.796875 1422.324219 1312.730469 1453.503906 C 1298.359375 1469.851562 1280.949219 1484.613281 1262.101562 1495.472656 C 1243.917969 1502.332031 1223.804688 1499.875 1204.929688 1497.90625 Z M 1241.496094 1465.8125 C 1251.058594 1465.742188 1257.316406 1457.769531 1264.480469 1452.519531 C 1274.503906 1444.433594 1285.027344 1436.417969 1291.332031 1424.902344 C 1306.832031 1373.882812 1283.566406 1321.273438 1278.398438 1270.128906 C 1254.261719 1275.632812 1231.777344 1254.234375 1207.496094 1262.546875 C 1174.292969 1271.832031 1139.648438 1274.773438 1105.414062 1270.757812 C 1066.488281 1271.359375 1027.410156 1272.910156 988.578125 1269.441406 C 951.929688 1267.574219 917.085938 1252.589844 879.949219 1257.007812 C 843.238281 1259.277344 806.988281 1266.367188 769.996094 1264.6875 C 752.691406 1263.589844 734.402344 1265.886719 718.246094 1258.542969 C 704.300781 1313.121094 689.695312 1377.417969 722.765625 1427.996094 C 736.382812 1439.269531 758.894531 1430.984375 775.390625 1431.527344 C 808.6875 1429.476562 842.117188 1427.960938 875.457031 1428.148438 C 923.832031 1433.914062 972.28125 1428.59375 1020.285156 1436.621094 C 1063.925781 1444.152344 1107.609375 1451.316406 1151.625 1455.671875 C 1181.53125 1459.226562 1211.195312 1467.421875 1241.496094 1465.8125 Z M 1156.394531 1237.863281 C 1187.265625 1235.554688 1217.757812 1219.542969 1248.523438 1231.488281 C 1240.332031 1189.21875 1230.363281 1147.253906 1225.394531 1104.414062 C 1221.722656 1073.566406 1218.464844 1042.617188 1212.566406 1012.082031 C 1210.828125 990.492188 1201.21875 970.246094 1200.328125 948.835938 C 1197.273438 894.472656 1193.023438 840.386719 1192.234375 786.148438 C 1186.148438 732.113281 1155.667969 727.140625 1112.316406 708.414062 C 1062.78125 682.964844 1018.191406 676.621094 963.507812 685.332031 C 943.546875 690.988281 924.460938 699.453125 904.394531 704.867188 C 883.878906 709.105469 864.742188 717.140625 846.714844 727.203125 C 823.972656 734.542969 815.777344 748.679688 809.058594 770.675781 C 799.15625 805.519531 796.523438 841.605469 791.878906 877.308594 C 771.535156 993.777344 746.605469 1111.773438 752.488281 1230.378906 C 810.933594 1235.410156 868.566406 1217.277344 926.859375 1224.660156 C 974.253906 1237.089844 1022.972656 1238.582031 1071.796875 1237.714844 C 1100.050781 1235.03125 1128.1875 1240.589844 1156.394531 1237.863281 Z M 1156.394531 1237.863281 "/>
<path fill-rule="nonzero" fill="rgb(0%, 0%, 0%)" fill-opacity="1" d="M 918.910156 682.234375 C 903.035156 680.628906 904.554688 662.960938 899.039062 652.003906 C 896.710938 646.148438 891.636719 643.039062 886.011719 640.871094 C 878.597656 636.988281 873.730469 629.449219 871.691406 621.480469 C 866.941406 598.808594 864.660156 573.78125 869.75 551.117188 C 883.625 523.492188 939.210938 514.03125 967.441406 504.507812 C 1003.316406 500.585938 1041.324219 496.28125 1076.675781 505.492188 C 1093.871094 511.890625 1114.554688 517.421875 1126.265625 532.316406 C 1136.507812 552.546875 1130.09375 576.328125 1135.75 597.769531 C 1139.613281 614.691406 1131.65625 630.691406 1117.058594 639.566406 C 1102.460938 651.582031 1089.789062 661.898438 1073.128906 670.292969 C 1054.003906 681.355469 1036.953125 652.851562 1055.738281 641.285156 C 1073.191406 632.605469 1087.617188 619.929688 1102.644531 607.839844 C 1099.378906 589.023438 1099.714844 569.847656 1097.410156 550.964844 C 1071.59375 535.503906 1043.9375 531.6875 1014.691406 534.878906 C 975.191406 533.839844 936.042969 546.21875 901.253906 564.269531 C 900.859375 580.207031 900.457031 596.570312 904.195312 612.152344 C 926.964844 618.070312 956.855469 680.957031 918.910156 682.234375 Z M 918.910156 682.234375 "/>
<path fill-rule="nonzero" fill="rgb(0%, 0%, 0%)" fill-opacity="1" d="M 898.613281 629.757812 C 887.21875 627.027344 881.691406 612.847656 888.824219 603.464844 C 892.992188 596.945312 900.5 597.347656 906.96875 595.390625 C 930.691406 589.25 954.59375 584.035156 978.675781 579.519531 C 1026.90625 565.210938 1053.738281 552.808594 1104.648438 570.171875 C 1126 575.511719 1118.429688 607.921875 1096.878906 603.070312 C 1052.527344 587.085938 1030.292969 600.003906 988.417969 611.914062 C 965.207031 616.507812 942.015625 621.105469 919.070312 626.964844 C 912.417969 628.449219 905.53125 631.449219 898.613281 629.757812 Z M 898.613281 629.757812 "/>
</svg>
