<?xml version="1.0" encoding="UTF-8"?>
<!-- Created by grConvert v0.1-0 -->
<svg xmlns="http://www.w3.org/2000/svg" xmlns:xlink="http://www.w3.org/1999/xlink" width="2000" height="2000" viewBox="0 0 2000 2000">
<path fill-rule="nonzero" fill="rgb(0%, 0%, 0%)" fill-opacity="1" d="M 984.59375 1495.496094 C 970.707031 1486.167969 963.886719 1469.449219 958.664062 1454.039062 C 951.757812 1433.71875 947.730469 1412.5 944.332031 1391.574219 C 939.855469 1364.054688 937.101562 1336.390625 935.082031 1308.84375 C 931.707031 1262.789062 930.808594 1216.902344 931.828125 1171.417969 C 932.753906 1130.792969 935.105469 1090.394531 939.914062 1050.585938 C 942.085938 1032.613281 944.777344 1014.757812 948.308594 997.148438 C 951.425781 981.675781 955.210938 966.3125 960.667969 951.628906 C 964.929688 940.140625 970.65625 927.683594 980.476562 920.117188 C 980.808594 919.859375 981.148438 919.617188 981.496094 919.390625 C 987.238281 915.457031 993.851562 913.351562 1001.003906 914.375 C 1017.796875 916.789062 1027.53125 933.863281 1033.425781 948.175781 C 1041.785156 968.480469 1046.46875 990.203125 1050.332031 1011.671875 C 1054.085938 1032.554688 1056.765625 1053.648438 1058.875 1074.796875 C 1064.789062 1134.363281 1066.445312 1194.675781 1064.664062 1255.082031 C 1063.046875 1309.800781 1059.238281 1365.292969 1048.246094 1419.308594 C 1045.105469 1434.730469 1041.242188 1450.203125 1035.472656 1464.769531 C 1032.945312 1471.203125 1029.9375 1477.34375 1026.242188 1483.09375 C 1023.902344 1486.726562 1021.0625 1489.921875 1017.898438 1492.777344 C 1012.757812 1497.449219 1006.097656 1500 999.347656 1500 C 994.273438 1500 989.15625 1498.558594 984.59375 1495.496094 Z M 998.472656 1460.644531 C 999.492188 1458.890625 1000.429688 1457.082031 1001.316406 1455.25 C 1003.691406 1450 1005.636719 1444.542969 1007.390625 1439.035156 C 1012.210938 1423.285156 1015.542969 1407.0625 1018.328125 1390.808594 C 1025.617188 1346.808594 1028.90625 1302.210938 1030.488281 1258.984375 C 1032.542969 1198.886719 1031.328125 1138.835938 1025.722656 1079.535156 C 1025.671875 1078.960938 1025.617188 1078.386719 1025.5625 1077.8125 C 1022.691406 1048.695312 1018.832031 1019.644531 1012.246094 991.195312 C 1010.054688 982.058594 1007.554688 972.972656 1004.339844 964.117188 C 1002.882812 960.3125 1001.285156 956.566406 999.4375 952.917969 C 999.070312 952.253906 998.695312 951.597656 998.308594 950.945312 C 997.222656 952.757812 996.222656 954.613281 995.285156 956.5 C 993.097656 961.289062 991.265625 966.226562 989.601562 971.242188 C 984.949219 986.003906 981.675781 1001.238281 978.9375 1016.589844 C 973.050781 1050.582031 969.789062 1085.277344 967.707031 1120.144531 C 967.183594 1128.882812 966.753906 1137.632812 966.503906 1144.074219 C 964.777344 1188.460938 964.976562 1233.253906 967.269531 1278.261719 C 968.128906 1294.996094 969.308594 1311.769531 970.839844 1328.539062 C 973.632812 1358.21875 977.496094 1388.058594 984.015625 1417.523438 C 986.292969 1427.378906 988.898438 1437.207031 992.269531 1446.796875 C 993.671875 1450.578125 995.21875 1454.308594 996.976562 1457.949219 C 997.457031 1458.859375 997.953125 1459.757812 998.472656 1460.644531 Z M 998.472656 1460.644531 "/>
<path fill-rule="nonzero" fill="rgb(0%, 0%, 0%)" fill-opacity="1" d="M 996.273438 913.125 C 993.054688 896.707031 1000.050781 880.0625 1007.25 865.472656 C 1016.738281 846.21875 1028.894531 828.367188 1041.289062 811.167969 C 1057.585938 788.542969 1075.195312 767.035156 1093.246094 746.128906 C 1123.425781 711.175781 1155.238281 678.09375 1188.121094 646.652344 C 1217.503906 618.582031 1247.730469 591.679688 1279.28125 566.929688 C 1293.523438 555.753906 1308.054688 545.03125 1323.003906 535.078125 C 1336.148438 526.34375 1349.6875 518.152344 1363.929688 511.628906 C 1375.066406 506.523438 1387.921875 501.761719 1400.21875 503.355469 C 1400.636719 503.410156 1401.046875 503.480469 1401.453125 503.566406 C 1408.296875 504.839844 1414.457031 508.03125 1418.792969 513.808594 C 1428.960938 527.394531 1423.769531 546.347656 1417.816406 560.636719 C 1409.371094 580.902344 1397.320312 599.578125 1384.875 617.488281 C 1372.761719 634.910156 1359.742188 651.722656 1346.28125 668.167969 C 1308.339844 714.46875 1266.867188 758.289062 1222.890625 799.746094 C 1183.054688 837.292969 1141.125 873.835938 1095.15625 904.261719 C 1082.027344 912.941406 1068.359375 921.152344 1053.980469 927.371094 C 1047.640625 930.132812 1041.171875 932.351562 1034.496094 933.800781 C 1030.269531 934.714844 1026.003906 934.96875 1021.746094 934.75 C 1014.808594 934.417969 1008.296875 931.511719 1003.523438 926.738281 C 999.9375 923.152344 997.335938 918.515625 996.273438 913.125 Z M 1030.734375 898.292969 C 1032.695312 897.773438 1034.632812 897.15625 1036.558594 896.488281 C 1041.949219 894.453125 1047.183594 891.972656 1052.320312 889.316406 C 1066.863281 881.589844 1080.691406 872.472656 1094.152344 862.949219 C 1130.417969 836.992188 1164.285156 807.78125 1195.96875 778.335938 C 1239.917969 737.292969 1281.515625 693.96875 1319.484375 648.078125 C 1319.855469 647.632812 1320.222656 647.1875 1320.589844 646.742188 C 1339.148438 624.125 1356.960938 600.855469 1372.421875 576.082031 C 1377.335938 568.070312 1381.992188 559.875 1385.980469 551.34375 C 1387.640625 547.621094 1389.15625 543.84375 1390.429688 539.957031 C 1390.640625 539.230469 1390.839844 538.5 1391.027344 537.761719 C 1388.980469 538.277344 1386.960938 538.882812 1384.964844 539.554688 C 1380.03125 541.394531 1375.242188 543.589844 1370.519531 545.960938 C 1356.792969 553.109375 1343.703125 561.5625 1330.910156 570.484375 C 1302.714844 590.355469 1275.875 612.582031 1249.75 635.769531 C 1243.199219 641.578125 1236.707031 647.457031 1231.976562 651.835938 C 1199.367188 682 1167.839844 713.816406 1137.636719 747.265625 C 1126.40625 759.703125 1115.378906 772.398438 1104.605469 785.339844 C 1085.59375 808.304688 1067.222656 832.132812 1051 857.574219 C 1045.644531 866.160156 1040.535156 874.949219 1036.136719 884.117188 C 1034.457031 887.777344 1032.910156 891.511719 1031.578125 895.328125 C 1031.273438 896.3125 1030.992188 897.296875 1030.734375 898.292969 Z M 1030.734375 898.292969 "/>
<path fill-rule="nonzero" fill="rgb(0%, 0%, 0%)" fill-opacity="1" d="M 571.714844 1339.171875 C 568.496094 1322.753906 575.492188 1306.109375 582.691406 1291.519531 C 592.179688 1272.269531 604.335938 1254.414062 616.730469 1237.21875 C 633.023438 1214.589844 650.636719 1193.082031 668.6875 1172.175781 C 698.867188 1137.222656 730.679688 1104.140625 763.5625 1072.699219 C 792.945312 1044.628906 823.171875 1017.726562 854.722656 992.976562 C 868.964844 981.800781 883.496094 971.078125 898.445312 961.125 C 911.585938 952.390625 925.128906 944.203125 939.371094 937.679688 C 950.507812 932.570312 963.363281 927.8125 975.660156 929.402344 C 976.074219 929.457031 976.488281 929.527344 976.894531 929.613281 C 983.734375 930.886719 989.898438 934.078125 994.234375 939.859375 C 1004.402344 953.441406 999.210938 972.398438 993.257812 986.6875 C 984.8125 1006.953125 972.761719 1025.628906 960.316406 1043.539062 C 948.203125 1060.957031 935.183594 1077.769531 921.71875 1094.214844 C 883.78125 1140.515625 842.304688 1184.335938 798.332031 1225.792969 C 758.496094 1263.339844 716.566406 1299.882812 670.597656 1330.308594 C 657.46875 1338.988281 643.800781 1347.199219 629.421875 1353.417969 C 623.082031 1356.179688 616.613281 1358.398438 609.9375 1359.847656 C 605.710938 1360.761719 601.445312 1361.015625 597.1875 1360.800781 C 590.25 1360.464844 583.734375 1357.558594 578.960938 1352.785156 C 575.375 1349.199219 572.777344 1344.5625 571.714844 1339.171875 Z M 606.171875 1324.339844 C 608.136719 1323.820312 610.074219 1323.207031 612 1322.535156 C 617.390625 1320.5 622.621094 1318.019531 627.761719 1315.367188 C 642.304688 1307.636719 656.132812 1298.523438 669.59375 1288.996094 C 705.859375 1263.039062 739.722656 1233.832031 771.410156 1204.382812 C 815.355469 1163.339844 856.957031 1120.015625 894.925781 1074.125 C 895.296875 1073.679688 895.664062 1073.234375 896.03125 1072.792969 C 914.589844 1050.171875 932.402344 1026.902344 947.863281 1002.128906 C 952.777344 994.117188 957.433594 985.925781 961.421875 977.390625 C 963.082031 973.671875 964.597656 969.890625 965.871094 966.003906 C 966.082031 965.277344 966.28125 964.546875 966.46875 963.8125 C 964.421875 964.324219 962.402344 964.929688 960.402344 965.601562 C 955.46875 967.441406 950.683594 969.636719 945.960938 972.007812 C 932.234375 979.15625 919.144531 987.613281 906.351562 996.53125 C 878.15625 1016.40625 851.316406 1038.632812 825.1875 1061.816406 C 818.640625 1067.625 812.148438 1073.507812 807.414062 1077.882812 C 774.808594 1108.046875 743.28125 1139.863281 713.074219 1173.3125 C 701.847656 1185.753906 690.820312 1198.445312 680.046875 1211.386719 C 661.035156 1234.351562 642.664062 1258.179688 626.441406 1283.625 C 621.082031 1292.207031 615.976562 1300.996094 611.578125 1310.164062 C 609.898438 1313.828125 608.351562 1317.558594 607.019531 1321.375 C 606.714844 1322.359375 606.433594 1323.347656 606.171875 1324.339844 Z M 606.171875 1324.339844 "/>
<path fill-rule="nonzero" fill="rgb(0%, 0%, 0%)" fill-opacity="1" d="M 589.921875 500.804688 C 606.335938 497.585938 622.980469 504.582031 637.570312 511.785156 C 656.824219 521.269531 674.675781 533.425781 691.875 545.820312 C 714.5 562.117188 736.007812 579.730469 756.914062 597.78125 C 791.867188 627.957031 824.949219 659.769531 856.390625 692.652344 C 884.460938 722.035156 911.363281 752.265625 936.113281 783.8125 C 947.289062 798.058594 958.011719 812.585938 967.964844 827.535156 C 976.699219 840.679688 984.890625 854.21875 991.414062 868.460938 C 996.519531 879.597656 1001.28125 892.453125 999.6875 904.75 C 999.632812 905.167969 999.5625 905.578125 999.480469 905.984375 C 998.203125 912.828125 995.015625 918.992188 989.234375 923.324219 C 975.648438 933.492188 956.695312 928.300781 942.40625 922.351562 C 922.140625 913.902344 903.464844 901.855469 885.554688 889.40625 C 868.132812 877.292969 851.320312 864.277344 834.878906 850.8125 C 788.574219 812.871094 744.753906 771.398438 703.300781 727.421875 C 665.75 687.589844 629.207031 645.65625 598.785156 599.6875 C 590.101562 586.5625 581.890625 572.890625 575.671875 558.511719 C 572.910156 552.171875 570.691406 545.707031 569.242188 539.027344 C 568.328125 534.804688 568.078125 530.535156 568.292969 526.277344 C 568.628906 519.34375 571.535156 512.828125 576.304688 508.054688 C 579.890625 504.46875 584.527344 501.867188 589.921875 500.804688 Z M 604.753906 535.265625 C 605.269531 537.226562 605.886719 539.167969 606.554688 541.089844 C 608.589844 546.480469 611.070312 551.714844 613.726562 556.851562 C 621.453125 571.394531 630.570312 585.226562 640.09375 598.683594 C 666.050781 634.953125 695.261719 668.816406 724.707031 700.5 C 765.75 744.449219 809.074219 786.050781 854.964844 824.019531 C 855.410156 824.386719 855.855469 824.753906 856.300781 825.121094 C 878.921875 843.679688 902.191406 861.496094 926.964844 876.953125 C 934.972656 881.867188 943.167969 886.523438 951.703125 890.511719 C 955.421875 892.171875 959.199219 893.6875 963.089844 894.964844 C 963.8125 895.171875 964.542969 895.375 965.28125 895.558594 C 964.765625 893.511719 964.160156 891.492188 963.492188 889.496094 C 961.648438 884.5625 959.453125 879.777344 957.085938 875.054688 C 949.933594 861.324219 941.480469 848.238281 932.558594 835.445312 C 912.6875 807.25 890.460938 780.40625 867.277344 754.28125 C 861.46875 747.730469 855.585938 741.242188 851.207031 736.507812 C 821.042969 703.902344 789.226562 672.371094 755.78125 642.167969 C 743.339844 630.941406 730.644531 619.914062 717.703125 609.140625 C 694.742188 590.125 670.910156 571.757812 645.46875 555.535156 C 636.886719 550.175781 628.097656 545.070312 618.929688 540.667969 C 615.265625 538.988281 611.53125 537.441406 607.714844 536.109375 C 606.734375 535.808594 605.746094 535.527344 604.753906 535.265625 Z M 604.753906 535.265625 "/>
<path fill-rule="nonzero" fill="rgb(0%, 0%, 0%)" fill-opacity="1" d="M 1021.699219 929.898438 C 1038.117188 926.675781 1054.761719 933.671875 1069.351562 940.875 C 1088.605469 950.359375 1106.457031 962.515625 1123.652344 974.914062 C 1146.28125 991.207031 1167.789062 1008.820312 1188.695312 1026.871094 C 1223.648438 1057.050781 1256.730469 1088.859375 1288.171875 1121.746094 C 1316.242188 1151.128906 1343.144531 1181.355469 1367.894531 1212.90625 C 1379.070312 1227.148438 1389.792969 1241.675781 1399.746094 1256.628906 C 1408.480469 1269.769531 1416.671875 1283.3125 1423.191406 1297.550781 C 1428.300781 1308.6875 1433.0625 1321.546875 1431.46875 1333.84375 C 1431.414062 1334.257812 1431.34375 1334.667969 1431.257812 1335.074219 C 1429.984375 1341.917969 1426.792969 1348.082031 1421.011719 1352.414062 C 1407.429688 1362.582031 1388.476562 1357.390625 1374.183594 1351.441406 C 1353.917969 1342.992188 1335.246094 1330.945312 1317.332031 1318.496094 C 1299.914062 1306.382812 1283.101562 1293.367188 1266.65625 1279.902344 C 1220.355469 1241.960938 1176.535156 1200.488281 1135.078125 1156.515625 C 1097.53125 1116.679688 1060.988281 1074.746094 1030.5625 1028.78125 C 1021.882812 1015.652344 1013.671875 1001.984375 1007.453125 987.601562 C 1004.691406 981.265625 1002.472656 974.796875 1001.023438 968.117188 C 1000.109375 963.894531 999.855469 959.625 1000.074219 955.371094 C 1000.40625 948.433594 1003.3125 941.917969 1008.085938 937.144531 C 1011.671875 933.558594 1016.308594 930.957031 1021.699219 929.898438 Z M 1036.53125 964.355469 C 1037.050781 966.320312 1037.664062 968.257812 1038.335938 970.183594 C 1040.371094 975.574219 1042.851562 980.804688 1045.503906 985.945312 C 1053.234375 1000.488281 1062.347656 1014.316406 1071.875 1027.773438 C 1097.832031 1064.042969 1127.042969 1097.90625 1156.488281 1129.589844 C 1197.53125 1173.539062 1240.855469 1215.140625 1286.746094 1253.109375 C 1287.191406 1253.476562 1287.636719 1253.84375 1288.082031 1254.214844 C 1310.699219 1272.773438 1333.96875 1290.585938 1358.742188 1306.046875 C 1366.753906 1310.957031 1374.945312 1315.613281 1383.480469 1319.601562 C 1387.203125 1321.261719 1390.980469 1322.78125 1394.867188 1324.054688 C 1395.59375 1324.265625 1396.324219 1324.464844 1397.058594 1324.648438 C 1396.546875 1322.605469 1395.941406 1320.585938 1395.269531 1318.585938 C 1393.429688 1313.652344 1391.234375 1308.867188 1388.863281 1304.144531 C 1381.714844 1290.414062 1373.261719 1277.328125 1364.339844 1264.535156 C 1344.464844 1236.339844 1322.238281 1209.496094 1299.054688 1183.371094 C 1293.246094 1176.824219 1287.363281 1170.332031 1282.988281 1165.597656 C 1252.824219 1132.992188 1221.007812 1101.460938 1187.558594 1071.257812 C 1175.117188 1060.03125 1162.425781 1049.003906 1149.484375 1038.230469 C 1126.519531 1019.21875 1102.691406 1000.847656 1077.246094 984.625 C 1068.664062 979.265625 1059.875 974.160156 1050.707031 969.761719 C 1047.042969 968.082031 1043.3125 966.535156 1039.496094 965.203125 C 1038.511719 964.898438 1037.527344 964.617188 1036.53125 964.355469 Z M 1036.53125 964.355469 "/>
<path fill-rule="nonzero" fill="rgb(0%, 0%, 0%)" fill-opacity="1" d="M 965.585938 946.585938 C 938.015625 925.472656 961.988281 890.109375 993.050781 897.183594 C 1010.578125 902.167969 1015.015625 928.273438 1003.265625 940.9375 C 994.464844 949.925781 976.4375 952.792969 965.585938 946.585938 Z M 965.585938 946.585938 "/>
<path fill-rule="nonzero" fill="rgb(0%, 0%, 0%)" fill-opacity="1" d="M 1004.332031 937.019531 C 998.753906 937.984375 992.8125 936.808594 988.078125 933.058594 C 987.207031 932.367188 986.390625 931.613281 985.632812 930.804688 C 946.175781 929.492188 963.796875 872.355469 996.152344 875.488281 C 1018.984375 875.765625 1042.753906 903.195312 1032.890625 925.523438 C 1027.722656 935.476562 1014.917969 940.683594 1004.332031 937.019531 Z M 1004.332031 937.019531 "/>
<path fill-rule="nonzero" fill="rgb(0%, 0%, 0%)" fill-opacity="1" d="M 983.964844 974.445312 C 978.605469 971.558594 974.394531 967.445312 971.332031 962.621094 C 960.636719 957.351562 952.558594 947.554688 949.910156 935.980469 C 945.417969 931.355469 943.878906 924.867188 943.546875 918.609375 C 943.726562 902.222656 957.03125 884.886719 974.261719 884.875 C 993.203125 865.664062 1034.972656 873.152344 1042.546875 900.261719 C 1060.226562 935.617188 1026.273438 994.503906 983.964844 974.445312 Z M 983.964844 974.445312 "/>
<path fill-rule="nonzero" fill="rgb(0%, 0%, 0%)" fill-opacity="1" d="M 976.996094 1014.464844 C 920.632812 1002.511719 896.789062 928.601562 924.277344 881.242188 C 953.25 828.394531 1037.132812 825.90625 1067.128906 878.972656 C 1120.144531 946.890625 1060.222656 1036.289062 976.996094 1014.464844 Z M 976.996094 1014.464844 "/>
</svg>
