<?xml version="1.0" encoding="UTF-8"?>
<!-- Created by grConvert v0.1-0 -->
<svg xmlns="http://www.w3.org/2000/svg" xmlns:xlink="http://www.w3.org/1999/xlink" width="2000" height="2000" viewBox="0 0 2000 2000">
<path fill-rule="nonzero" fill="rgb(0%, 79.215688%, 93.725491%)" fill-opacity="1" d="M 1028.128906 712.558594 C 1029.105469 741.847656 1029.003906 771.257812 1027.996094 800.683594 C 1027.828125 805.390625 1027.625 810.128906 1027.40625 814.867188 C 1027.1875 819.488281 1026.9375 824.128906 1026.667969 828.765625 C 1026.515625 831.285156 1026.363281 833.789062 1026.195312 836.3125 C 1025.894531 840.917969 1025.558594 845.519531 1025.1875 850.140625 C 1025.171875 850.527344 1025.136719 850.898438 1025.105469 851.285156 C 1024.75 855.671875 1024.363281 860.058594 1023.960938 864.445312 C 1023.472656 869.484375 1022.953125 874.527344 1022.382812 879.550781 C 1021.558594 886.777344 1020.632812 894.003906 1019.609375 901.214844 C 1019.257812 903.617188 1018.902344 906.019531 1018.535156 908.421875 C 1018.164062 910.824219 1017.777344 913.210938 1017.375 915.617188 C 1017.070312 917.378906 1016.769531 919.160156 1016.449219 920.925781 C 1016.078125 922.925781 1015.710938 924.925781 1015.324219 926.910156 C 1005.375 924.574219 994.921875 924.253906 984.789062 925.917969 C 984.6875 925.414062 984.585938 924.910156 984.503906 924.421875 C 983.898438 921.195312 983.328125 917.96875 982.773438 914.742188 C 979.765625 896.976562 977.664062 879.132812 975.984375 861.335938 C 974.636719 846.714844 973.613281 832.078125 972.875 817.488281 C 970.875 778.25 970.6875 739.195312 972.203125 700.492188 C 972.335938 696.960938 972.539062 692.644531 972.773438 688.023438 C 972.824219 687.132812 972.875 686.222656 972.925781 685.316406 C 973.023438 683.453125 973.125 681.535156 973.242188 679.636719 C 973.511719 675.046875 973.816406 670.460938 974.152344 665.875 C 974.183594 665.535156 974.203125 665.199219 974.21875 664.863281 C 974.554688 660.292969 974.90625 655.738281 975.292969 651.183594 C 975.460938 649.117188 975.648438 647.050781 975.847656 644.984375 C 976.167969 641.386719 976.519531 637.792969 976.90625 634.195312 C 977.292969 630.429688 977.714844 626.667969 978.167969 622.917969 C 978.839844 617.273438 979.578125 611.660156 980.386719 606.0625 C 981.191406 600.46875 982.082031 594.90625 983.039062 589.34375 C 984.839844 579.292969 986.890625 569.308594 989.511719 559.53125 C 989.949219 557.898438 990.402344 556.269531 990.871094 554.640625 C 991.34375 553.027344 991.828125 551.394531 992.335938 549.800781 C 992.519531 549.246094 992.703125 548.707031 992.90625 548.167969 C 993.089844 547.613281 993.273438 547.078125 993.460938 546.539062 C 994.621094 543.277344 995.863281 540.085938 997.292969 536.945312 C 998.113281 535.296875 998.988281 533.683594 999.929688 532.105469 C 1000.265625 532.675781 1000.585938 533.246094 1000.90625 533.816406 C 1002.113281 536.203125 1003.207031 538.640625 1004.214844 541.113281 C 1004.550781 541.933594 1004.871094 542.757812 1005.191406 543.582031 C 1005.542969 544.539062 1005.878906 545.515625 1006.214844 546.488281 C 1006.871094 548.4375 1007.507812 550.386719 1008.097656 552.355469 C 1008.398438 553.328125 1008.6875 554.320312 1008.972656 555.296875 C 1009.8125 558.253906 1010.601562 561.226562 1011.359375 564.203125 C 1011.59375 565.210938 1011.84375 566.203125 1012.082031 567.191406 C 1017.828125 591.996094 1021.1875 617.339844 1023.691406 642.714844 C 1023.742188 643.21875 1023.792969 643.722656 1023.828125 644.226562 C 1024.902344 655.554688 1025.792969 666.933594 1026.5 678.308594 C 1026.5 678.324219 1026.5 678.324219 1026.5 678.324219 C 1026.785156 682.878906 1027.035156 687.449219 1027.273438 692.003906 C 1027.273438 692.003906 1027.273438 692.023438 1027.273438 692.023438 C 1027.625 698.863281 1027.910156 705.703125 1028.128906 712.558594 Z M 1028.128906 712.558594 "/>
<path fill-rule="nonzero" fill="rgb(0%, 79.215688%, 93.725491%)" fill-opacity="1" d="M 1340.925781 661.015625 C 1340.773438 661.671875 1340.589844 662.292969 1340.421875 662.933594 C 1339.292969 666.328125 1337.984375 669.621094 1336.539062 672.863281 C 1334.789062 676.59375 1332.910156 680.226562 1330.925781 683.820312 C 1328.941406 687.417969 1326.859375 690.945312 1324.707031 694.425781 C 1311.230469 716.035156 1295.703125 736.320312 1279.519531 756.03125 C 1279.199219 756.4375 1278.878906 756.824219 1278.558594 757.210938 C 1245.453125 797.222656 1209.171875 834.984375 1170.855469 870.777344 C 1143.226562 896.457031 1113.71875 921.917969 1082.089844 944.554688 C 1080.628906 945.597656 1079.148438 946.621094 1077.671875 947.644531 C 1074.714844 949.695312 1071.738281 951.714844 1068.730469 953.695312 C 1065.65625 955.730469 1062.53125 957.730469 1059.386719 959.644531 C 1059.101562 959.257812 1058.816406 958.890625 1058.53125 958.519531 C 1054.582031 951.542969 1049.574219 945.679688 1043.824219 940.890625 C 1044.042969 940.554688 1044.246094 940.203125 1044.464844 939.867188 C 1058.613281 917.683594 1074.628906 896.910156 1091.199219 876.878906 C 1100.59375 865.601562 1110.207031 854.527344 1120.003906 843.6875 C 1146.335938 814.515625 1173.832031 786.785156 1202.246094 760.488281 C 1206.382812 756.671875 1212.046875 751.53125 1217.757812 746.472656 C 1240.53125 726.253906 1263.941406 706.878906 1288.527344 689.550781 C 1299.667969 681.769531 1311.078125 674.394531 1323.058594 668.175781 C 1327.179688 666.109375 1331.34375 664.191406 1335.648438 662.578125 C 1337.394531 661.992188 1339.144531 661.46875 1340.925781 661.015625 Z M 1340.925781 661.015625 "/>
<path fill-rule="nonzero" fill="rgb(0%, 79.215688%, 93.725491%)" fill-opacity="1" d="M 1345.832031 1345.777344 C 1345.964844 1346.214844 1346.082031 1346.652344 1346.183594 1347.105469 C 1345.546875 1346.9375 1344.90625 1346.769531 1344.285156 1346.585938 C 1342.589844 1346.03125 1340.90625 1345.425781 1339.261719 1344.769531 C 1337.613281 1344.113281 1335.96875 1343.425781 1334.355469 1342.703125 C 1326.910156 1339.222656 1319.765625 1335.175781 1312.792969 1330.890625 C 1310.085938 1329.207031 1307.414062 1327.492188 1304.742188 1325.746094 C 1302.085938 1324 1299.449219 1322.21875 1296.828125 1320.417969 C 1295.515625 1319.511719 1294.207031 1318.605469 1292.894531 1317.695312 C 1290.289062 1315.863281 1287.703125 1314.015625 1285.132812 1312.132812 C 1281.265625 1309.3125 1277.433594 1306.453125 1273.636719 1303.546875 C 1271.097656 1301.613281 1268.59375 1299.648438 1266.074219 1297.679688 C 1263.570312 1295.714844 1261.082031 1293.730469 1258.597656 1291.734375 C 1256.109375 1289.734375 1253.636719 1287.734375 1251.167969 1285.699219 C 1250.984375 1285.53125 1250.78125 1285.378906 1250.597656 1285.210938 C 1250.394531 1285.042969 1250.210938 1284.894531 1250.007812 1284.726562 C 1245 1280.589844 1240.042969 1276.40625 1235.101562 1272.171875 C 1227.707031 1265.820312 1220.378906 1259.347656 1213.136719 1252.792969 C 1201.070312 1241.871094 1189.207031 1230.664062 1177.542969 1219.21875 C 1175.207031 1216.914062 1172.890625 1214.628906 1170.570312 1212.3125 C 1158.992188 1200.765625 1147.613281 1189.003906 1136.4375 1177.035156 C 1110.761719 1149.410156 1085.300781 1119.882812 1062.664062 1088.253906 C 1057.21875 1080.558594 1051.925781 1072.726562 1047.050781 1064.675781 C 1053.269531 1059.972656 1058.664062 1054.324219 1063.050781 1047.988281 C 1064.496094 1048.863281 1065.925781 1049.753906 1067.351562 1050.644531 C 1068.730469 1051.535156 1070.125 1052.425781 1071.503906 1053.316406 C 1074.242188 1055.117188 1076.980469 1056.929688 1079.6875 1058.777344 C 1082.394531 1060.628906 1085.082031 1062.507812 1087.753906 1064.410156 C 1090.425781 1066.308594 1093.082031 1068.222656 1095.71875 1070.171875 C 1098.339844 1072.105469 1100.964844 1074.070312 1103.566406 1076.054688 C 1106.171875 1078.019531 1108.742188 1080.019531 1111.316406 1082.039062 C 1113.886719 1084.054688 1116.441406 1086.070312 1118.996094 1088.121094 C 1120.253906 1089.144531 1121.53125 1090.171875 1122.792969 1091.195312 C 1125.3125 1093.246094 1127.835938 1095.3125 1130.339844 1097.378906 C 1141.613281 1106.773438 1152.6875 1116.386719 1163.527344 1126.167969 C 1192.6875 1152.5 1220.429688 1179.996094 1246.730469 1208.429688 C 1250.546875 1212.5625 1255.671875 1218.210938 1260.746094 1223.921875 C 1262.007812 1225.351562 1263.285156 1226.78125 1264.527344 1228.226562 C 1267.046875 1231.066406 1269.554688 1233.941406 1272.023438 1236.8125 C 1274.511719 1239.6875 1276.964844 1242.578125 1279.417969 1245.484375 C 1283.082031 1249.835938 1286.710938 1254.222656 1290.289062 1258.625 C 1292.675781 1261.585938 1295.03125 1264.523438 1297.367188 1267.5 C 1304.390625 1276.421875 1311.164062 1285.464844 1317.667969 1294.691406 C 1325.445312 1305.847656 1332.808594 1317.257812 1339.042969 1329.226562 C 1341.109375 1333.34375 1343.023438 1337.511719 1344.636719 1341.8125 C 1344.804688 1342.316406 1344.957031 1342.804688 1345.109375 1343.308594 C 1345.378906 1344.132812 1345.613281 1344.953125 1345.832031 1345.777344 Z M 1345.832031 1345.777344 "/>
<path fill-rule="nonzero" fill="rgb(0%, 79.215688%, 93.725491%)" fill-opacity="1" d="M 1022.433594 1133.394531 C 1027.304688 1185.085938 1028.363281 1237.453125 1026.582031 1289.851562 C 1025.207031 1327.542969 1022.332031 1366.433594 1015.980469 1404.796875 C 1013.542969 1418.964844 1010.652344 1433.097656 1006.449219 1446.84375 C 1004.90625 1451.632812 1003.207031 1456.390625 1001.140625 1460.976562 C 1000.367188 1462.574219 999.558594 1464.136719 998.667969 1465.667969 C 998.585938 1465.53125 998.5 1465.398438 998.433594 1465.246094 C 998.132812 1464.742188 997.847656 1464.238281 997.59375 1463.734375 C 997.511719 1463.597656 997.425781 1463.464844 997.359375 1463.332031 C 995.828125 1460.15625 994.484375 1456.894531 993.257812 1453.601562 C 990.316406 1445.25 988.046875 1436.675781 986.066406 1428.074219 C 980.367188 1402.394531 977.007812 1376.378906 974.570312 1350.5 C 973.242188 1335.878906 972.203125 1321.242188 971.460938 1306.65625 C 969.460938 1267.414062 969.277344 1228.359375 970.789062 1189.65625 C 971.007812 1184.042969 971.378906 1176.414062 971.847656 1168.800781 C 973.664062 1138.402344 976.503906 1108.152344 981.628906 1078.507812 C 981.714844 1078.054688 981.796875 1077.582031 981.882812 1077.128906 C 993.644531 1079.96875 1004.855469 1080.238281 1015.171875 1078.457031 C 1018.332031 1096.136719 1020.515625 1114 1022.28125 1131.882812 C 1022.332031 1132.386719 1022.382812 1132.890625 1022.433594 1133.394531 Z M 1022.433594 1133.394531 "/>
<path fill-rule="nonzero" fill="rgb(0%, 79.215688%, 93.725491%)" fill-opacity="1" d="M 954.304688 1064.777344 C 954.152344 1065.5 954.019531 1066.222656 953.867188 1066.945312 C 953.867188 1066.964844 953.867188 1066.964844 953.867188 1066.964844 C 940.558594 1088.171875 925.265625 1108.101562 909.351562 1127.511719 C 909.03125 1127.898438 908.710938 1128.285156 908.390625 1128.671875 C 906.324219 1131.175781 904.242188 1133.664062 902.140625 1136.148438 C 897.957031 1141.109375 893.722656 1146.046875 889.4375 1150.9375 C 887.300781 1153.390625 885.152344 1155.828125 882.984375 1158.265625 C 874.328125 1167.996094 865.488281 1177.574219 856.496094 1187.035156 C 845.238281 1198.867188 833.742188 1210.480469 822.011719 1221.90625 C 814.988281 1228.746094 807.878906 1235.535156 800.6875 1242.242188 C 792.066406 1250.257812 783.242188 1258.257812 774.234375 1266.171875 C 759.816406 1278.808594 744.910156 1291.210938 729.484375 1303.007812 C 725.636719 1305.964844 721.738281 1308.875 717.820312 1311.746094 C 715.871094 1313.175781 713.90625 1314.605469 711.921875 1316.015625 C 708.980469 1318.082031 706.023438 1320.148438 703.050781 1322.167969 C 700.074219 1324.183594 697.066406 1326.167969 694.042969 1328.097656 C 691 1330.03125 687.941406 1331.914062 684.847656 1333.746094 C 684.847656 1333.746094 684.832031 1333.746094 684.832031 1333.746094 C 681.742188 1335.558594 678.613281 1337.324219 675.4375 1339.003906 C 674.3125 1339.59375 673.203125 1340.148438 672.058594 1340.71875 C 670.933594 1341.273438 669.792969 1341.8125 668.648438 1342.332031 C 667.507812 1342.871094 666.363281 1343.375 665.203125 1343.863281 C 664.042969 1344.351562 662.886719 1344.820312 661.707031 1345.257812 C 660.027344 1345.84375 658.347656 1346.382812 656.632812 1346.835938 C 656.632812 1346.835938 656.617188 1346.835938 656.617188 1346.835938 C 656.734375 1346.398438 656.851562 1345.964844 656.96875 1345.542969 C 657.105469 1345.105469 657.222656 1344.667969 657.355469 1344.25 C 657.640625 1343.425781 657.945312 1342.585938 658.261719 1341.761719 C 659.203125 1339.292969 660.246094 1336.871094 661.339844 1334.46875 C 665.171875 1326.484375 669.625 1318.824219 674.296875 1311.328125 C 688.445312 1289.144531 704.460938 1268.375 721.03125 1248.359375 C 730.425781 1237.066406 740.039062 1226.007812 749.835938 1215.152344 C 753.128906 1211.503906 756.441406 1207.890625 759.765625 1204.277344 C 766.421875 1197.085938 773.144531 1189.976562 779.933594 1182.953125 C 783.328125 1179.441406 786.738281 1175.945312 790.167969 1172.484375 C 803.898438 1158.601562 817.863281 1145.089844 832.078125 1131.949219 C 835.441406 1128.855469 839.808594 1124.890625 844.382812 1120.789062 C 845.085938 1120.167969 845.792969 1119.546875 846.5 1118.890625 C 846.5 1118.890625 846.515625 1118.890625 846.515625 1118.890625 C 846.867188 1118.554688 847.222656 1118.253906 847.574219 1117.933594 C 850.429688 1115.414062 853.289062 1112.890625 856.144531 1110.40625 C 856.144531 1110.40625 856.160156 1110.40625 856.160156 1110.40625 C 859.035156 1107.882812 861.910156 1105.414062 864.78125 1102.960938 C 864.78125 1102.960938 864.800781 1102.960938 864.800781 1102.960938 C 867.691406 1100.472656 870.582031 1098.035156 873.503906 1095.617188 C 874.964844 1094.390625 876.429688 1093.179688 877.890625 1091.984375 C 880.816406 1089.582031 883.753906 1087.195312 886.714844 1084.84375 C 888.191406 1083.652344 889.671875 1082.472656 891.167969 1081.316406 C 900.074219 1074.289062 909.132812 1067.5 918.339844 1061.015625 C 919.734375 1060.039062 921.128906 1059.082031 922.542969 1058.125 C 927.785156 1054.542969 933.097656 1051.066406 938.507812 1047.789062 C 942.859375 1054.273438 948.152344 1060.054688 954.304688 1064.777344 Z M 954.304688 1064.777344 "/>
<path fill-rule="nonzero" fill="rgb(0%, 79.215688%, 93.725491%)" fill-opacity="1" d="M 941.195312 920.574219 C 945.363281 926.554688 949.429688 932.605469 953.246094 938.789062 C 946.640625 943.546875 940.824219 949.527344 936.238281 956.703125 C 914.660156 943.242188 894.394531 927.730469 874.699219 911.566406 C 874.53125 911.414062 874.34375 911.28125 874.175781 911.144531 C 873.957031 910.960938 873.757812 910.777344 873.539062 910.605469 C 869.691406 907.414062 865.859375 904.203125 862.042969 900.960938 C 859.757812 899.011719 857.488281 897.0625 855.21875 895.078125 C 851.4375 891.835938 847.691406 888.542969 843.960938 885.214844 C 834.230469 876.558594 824.636719 867.71875 815.171875 858.714844 C 811.628906 855.335938 808.097656 851.941406 804.585938 848.511719 C 804.585938 848.511719 804.570312 848.511719 804.570312 848.511719 C 801.058594 845.101562 797.578125 841.65625 794.117188 838.195312 C 782.519531 826.648438 771.144531 814.886719 759.96875 802.917969 C 734.289062 775.292969 708.832031 745.765625 686.195312 714.136719 C 681 706.8125 675.960938 699.347656 671.253906 691.6875 C 669.371094 688.628906 667.539062 685.535156 665.792969 682.394531 C 664.902344 680.828125 664.042969 679.25 663.203125 677.671875 C 662.332031 675.988281 661.488281 674.292969 660.683594 672.578125 C 660.128906 671.4375 659.609375 670.308594 659.105469 669.148438 C 658.597656 668.007812 658.113281 666.847656 657.640625 665.6875 C 657.640625 665.671875 657.640625 665.671875 657.640625 665.671875 C 657.40625 665.082031 657.171875 664.511719 656.953125 663.921875 C 656.667969 663.082031 656.382812 662.242188 656.113281 661.402344 C 655.859375 660.5625 655.609375 659.707031 655.390625 658.847656 C 656.246094 659.066406 657.105469 659.320312 657.960938 659.589844 C 661.289062 660.746094 664.546875 662.09375 667.742188 663.554688 C 671.742188 665.46875 675.65625 667.535156 679.503906 669.722656 C 683.355469 671.890625 687.152344 674.175781 690.882812 676.511719 C 693.65625 678.277344 696.410156 680.074219 699.132812 681.90625 C 700.496094 682.8125 701.855469 683.738281 703.21875 684.660156 C 705.367188 686.140625 707.519531 687.617188 709.636719 689.113281 C 711.535156 690.441406 713.402344 691.785156 715.285156 693.148438 C 717.367188 694.660156 719.433594 696.191406 721.5 697.734375 C 732.558594 705.953125 743.316406 714.523438 753.867188 723.261719 C 765.144531 732.640625 776.21875 742.269531 787.058594 752.050781 C 816.230469 778.382812 843.960938 805.878906 870.261719 834.3125 C 874.074219 838.429688 879.21875 844.09375 884.277344 849.804688 C 904.492188 872.578125 923.871094 895.988281 941.195312 920.574219 Z M 941.195312 920.574219 "/>
</svg>
