<?xml version="1.0" encoding="UTF-8"?>
<!-- Created by grConvert v0.1-0 -->
<svg xmlns="http://www.w3.org/2000/svg" xmlns:xlink="http://www.w3.org/1999/xlink" width="2000" height="2000" viewBox="0 0 2000 2000">
<path fill-rule="nonzero" fill="rgb(0%, 79.215688%, 93.725491%)" fill-opacity="1" d="M 1028.136719 712.558594 C 1029.109375 741.847656 1029.011719 771.257812 1028 800.683594 C 1027.832031 805.390625 1027.632812 810.128906 1027.414062 814.867188 C 1027.195312 819.488281 1026.941406 824.128906 1026.675781 828.765625 C 1026.523438 831.285156 1026.371094 833.789062 1026.203125 836.3125 C 1025.902344 840.917969 1025.566406 845.519531 1025.195312 850.140625 C 1025.179688 850.527344 1025.144531 850.898438 1025.109375 851.285156 C 1024.757812 855.671875 1024.371094 860.058594 1023.96875 864.445312 C 1023.480469 869.484375 1022.960938 874.527344 1022.390625 879.550781 C 1021.566406 886.777344 1020.640625 894.003906 1019.617188 901.214844 C 1019.261719 903.617188 1018.910156 906.019531 1018.539062 908.421875 C 1018.171875 910.824219 1017.785156 913.210938 1017.378906 915.617188 C 1017.078125 917.378906 1016.777344 919.160156 1016.457031 920.925781 C 1016.085938 922.925781 1015.71875 924.925781 1015.332031 926.910156 C 1005.382812 924.574219 994.929688 924.253906 984.796875 925.917969 C 984.695312 925.414062 984.59375 924.910156 984.511719 924.421875 C 983.90625 921.195312 983.332031 917.96875 982.777344 914.742188 C 979.769531 896.976562 977.671875 879.132812 975.988281 861.335938 C 974.644531 846.714844 973.621094 832.078125 972.878906 817.488281 C 970.878906 778.25 970.695312 739.195312 972.207031 700.492188 C 972.34375 696.960938 972.542969 692.644531 972.78125 688.023438 C 972.832031 687.132812 972.878906 686.222656 972.929688 685.316406 C 973.03125 683.453125 973.132812 681.535156 973.25 679.636719 C 973.519531 675.046875 973.820312 670.460938 974.15625 665.875 C 974.191406 665.535156 974.207031 665.199219 974.226562 664.863281 C 974.5625 660.292969 974.914062 655.738281 975.300781 651.183594 C 975.46875 649.117188 975.652344 647.050781 975.855469 644.984375 C 976.175781 641.386719 976.527344 637.792969 976.914062 634.195312 C 977.300781 630.429688 977.71875 626.667969 978.175781 622.917969 C 978.847656 617.273438 979.585938 611.660156 980.394531 606.0625 C 981.199219 600.46875 982.089844 594.90625 983.046875 589.34375 C 984.847656 579.292969 986.894531 569.308594 989.519531 559.53125 C 989.953125 557.898438 990.410156 556.269531 990.878906 554.640625 C 991.347656 553.027344 991.835938 551.394531 992.339844 549.800781 C 992.527344 549.246094 992.710938 548.707031 992.914062 548.167969 C 993.097656 547.613281 993.28125 547.078125 993.46875 546.539062 C 994.625 543.277344 995.871094 540.085938 997.296875 536.945312 C 998.121094 535.296875 998.996094 533.683594 999.9375 532.105469 C 1000.273438 532.675781 1000.59375 533.246094 1000.910156 533.816406 C 1002.121094 536.203125 1003.214844 538.640625 1004.222656 541.113281 C 1004.558594 541.933594 1004.878906 542.757812 1005.195312 543.582031 C 1005.550781 544.539062 1005.886719 545.515625 1006.222656 546.488281 C 1006.878906 548.4375 1007.515625 550.386719 1008.105469 552.355469 C 1008.40625 553.328125 1008.691406 554.320312 1008.976562 555.296875 C 1009.820312 558.253906 1010.609375 561.226562 1011.363281 564.203125 C 1011.601562 565.210938 1011.851562 566.203125 1012.085938 567.191406 C 1017.835938 591.996094 1021.195312 617.339844 1023.699219 642.714844 C 1023.75 643.21875 1023.800781 643.722656 1023.835938 644.226562 C 1024.910156 655.554688 1025.800781 666.933594 1026.507812 678.308594 C 1026.507812 678.324219 1026.507812 678.324219 1026.507812 678.324219 C 1026.792969 682.878906 1027.042969 687.449219 1027.277344 692.003906 C 1027.277344 692.003906 1027.277344 692.023438 1027.277344 692.023438 C 1027.632812 698.863281 1027.917969 705.703125 1028.136719 712.558594 Z M 1028.136719 712.558594 "/>
<path fill-rule="nonzero" fill="rgb(0%, 79.215688%, 93.725491%)" fill-opacity="1" d="M 1022.4375 1133.394531 C 1027.3125 1185.085938 1028.371094 1237.453125 1026.589844 1289.851562 C 1025.210938 1327.542969 1022.339844 1366.433594 1015.984375 1404.796875 C 1013.550781 1418.964844 1010.660156 1433.097656 1006.457031 1446.84375 C 1004.910156 1451.632812 1003.214844 1456.390625 1001.148438 1460.976562 C 1000.375 1462.574219 999.566406 1464.136719 998.675781 1465.667969 C 998.59375 1465.53125 998.507812 1465.398438 998.441406 1465.246094 C 998.140625 1464.742188 997.851562 1464.238281 997.601562 1463.734375 C 997.515625 1463.597656 997.433594 1463.464844 997.367188 1463.332031 C 995.835938 1460.15625 994.492188 1456.894531 993.265625 1453.601562 C 990.324219 1445.25 988.054688 1436.675781 986.074219 1428.074219 C 980.375 1402.394531 977.015625 1376.378906 974.578125 1350.5 C 973.25 1335.878906 972.207031 1321.242188 971.46875 1306.65625 C 969.46875 1267.414062 969.285156 1228.359375 970.796875 1189.65625 C 971.015625 1184.042969 971.386719 1176.414062 971.855469 1168.800781 C 973.671875 1138.402344 976.511719 1108.152344 981.636719 1078.507812 C 981.71875 1078.054688 981.804688 1077.582031 981.886719 1077.128906 C 993.652344 1079.96875 1004.859375 1080.238281 1015.179688 1078.457031 C 1018.339844 1096.136719 1020.523438 1114 1022.289062 1131.882812 C 1022.339844 1132.386719 1022.390625 1132.890625 1022.4375 1133.394531 Z M 1022.4375 1133.394531 "/>
</svg>
