<?xml version="1.0" encoding="UTF-8"?>
<!-- Created by grConvert v0.1-0 -->
<svg xmlns="http://www.w3.org/2000/svg" xmlns:xlink="http://www.w3.org/1999/xlink" width="2000" height="2000" viewBox="0 0 2000 2000">
<path fill-rule="nonzero" fill="rgb(0%, 79.215688%, 93.725491%)" fill-opacity="1" d="M 997.277344 911.566406 C 1045.871094 911.566406 1086.433594 952.128906 1086.433594 1000.726562 C 1086.433594 1049.320312 1045.871094 1089.882812 997.277344 1089.882812 C 948.679688 1089.882812 908.117188 1049.320312 908.117188 1000.726562 C 908.117188 952.128906 948.679688 911.566406 997.277344 911.566406 Z M 997.277344 911.566406 "/>
<path fill-rule="nonzero" fill="rgb(0%, 0%, 0%)" fill-opacity="1" d="M 908.117188 1000.734375 C 908.117188 952.136719 948.679688 911.574219 997.277344 911.574219 C 1045.875 911.574219 1086.4375 952.136719 1086.4375 1000.734375 C 1086.4375 1049.328125 1045.875 1089.890625 997.277344 1089.890625 C 948.679688 1089.890625 908.117188 1049.328125 908.117188 1000.734375 Z M 908.117188 1000.734375 "/>
<path fill-rule="nonzero" fill="rgb(0%, 0%, 0%)" fill-opacity="1" d="M 1495.433594 502.300781 C 1495.433594 501.164062 1496.371094 500.226562 1497.507812 500.226562 C 1498.640625 500.226562 1499.578125 501.164062 1499.578125 502.300781 C 1499.578125 503.433594 1498.640625 504.371094 1497.507812 504.371094 C 1496.371094 504.371094 1495.433594 503.433594 1495.433594 502.300781 Z M 1495.433594 502.300781 "/>
<path fill-rule="nonzero" fill="rgb(0%, 0%, 0%)" fill-opacity="1" d="M 500.417969 502.074219 C 500.417969 500.941406 501.355469 500 502.492188 500 C 503.625 500 504.566406 500.941406 504.566406 502.074219 C 504.566406 503.207031 503.625 504.148438 502.492188 504.148438 C 501.355469 504.148438 500.417969 503.207031 500.417969 502.074219 Z M 500.417969 502.074219 "/>
<path fill-rule="nonzero" fill="rgb(0%, 0%, 0%)" fill-opacity="1" d="M 1495.433594 1497.925781 C 1495.433594 1496.792969 1496.375 1495.851562 1497.507812 1495.851562 C 1498.644531 1495.851562 1499.582031 1496.792969 1499.582031 1497.925781 C 1499.582031 1499.058594 1498.644531 1500 1497.507812 1500 C 1496.375 1500 1495.433594 1499.058594 1495.433594 1497.925781 Z M 1495.433594 1497.925781 "/>
<path fill-rule="nonzero" fill="rgb(0%, 0%, 0%)" fill-opacity="1" d="M 502.867188 1499.238281 C 502.847656 1499.238281 502.816406 1499.238281 502.800781 1499.222656 C 500.578125 1499.246094 500.207031 1495.933594 502.363281 1495.449219 C 505.113281 1494.660156 505.6875 1499.277344 502.867188 1499.238281 Z M 502.867188 1499.238281 "/>
</svg>
