<?xml version="1.0" encoding="UTF-8"?>
<!-- Created by grConvert v0.1-0 -->
<svg xmlns="http://www.w3.org/2000/svg" xmlns:xlink="http://www.w3.org/1999/xlink" width="2000" height="2000" viewBox="0 0 2000 2000">
<path fill-rule="nonzero" fill="rgb(0%, 0%, 0%)" fill-opacity="1" d="M 988.71875 1496 C 976.617188 1487.867188 970.667969 1473.292969 966.113281 1459.859375 C 960.09375 1442.144531 956.582031 1423.648438 953.621094 1405.402344 C 949.71875 1381.410156 947.316406 1357.296875 945.558594 1333.28125 C 942.613281 1293.132812 941.832031 1253.128906 942.71875 1213.476562 C 943.527344 1178.0625 945.578125 1142.84375 949.769531 1108.140625 C 951.660156 1092.472656 954.007812 1076.90625 957.089844 1061.554688 C 959.804688 1048.066406 963.105469 1034.671875 967.863281 1021.871094 C 971.578125 1011.859375 976.570312 1001 985.132812 994.402344 C 985.421875 994.175781 985.71875 993.964844 986.019531 993.769531 C 991.023438 990.335938 996.789062 988.503906 1003.023438 989.394531 C 1017.664062 991.5 1026.152344 1006.386719 1031.289062 1018.863281 C 1038.578125 1036.5625 1042.660156 1055.5 1046.027344 1074.214844 C 1049.300781 1092.421875 1051.636719 1110.808594 1053.476562 1129.246094 C 1058.628906 1181.175781 1060.078125 1233.753906 1058.523438 1286.414062 C 1057.113281 1334.117188 1053.792969 1382.492188 1044.210938 1429.582031 C 1041.472656 1443.027344 1038.105469 1456.515625 1033.074219 1469.210938 C 1030.871094 1474.820312 1028.25 1480.175781 1025.027344 1485.1875 C 1022.988281 1488.355469 1020.511719 1491.140625 1017.753906 1493.628906 C 1013.273438 1497.699219 1007.464844 1499.925781 1001.582031 1499.925781 C 997.160156 1499.925781 992.699219 1498.671875 988.71875 1496 Z M 1000.820312 1465.617188 C 1001.710938 1464.085938 1002.527344 1462.511719 1003.296875 1460.914062 C 1005.367188 1456.335938 1007.0625 1451.582031 1008.59375 1446.777344 C 1012.796875 1433.046875 1015.703125 1418.90625 1018.128906 1404.738281 C 1024.484375 1366.378906 1027.351562 1327.5 1028.730469 1289.8125 C 1030.523438 1237.421875 1029.460938 1185.074219 1024.578125 1133.378906 C 1024.527344 1132.878906 1024.480469 1132.375 1024.433594 1131.875 C 1021.929688 1106.492188 1018.566406 1081.167969 1012.824219 1056.367188 C 1010.917969 1048.398438 1008.738281 1040.476562 1005.933594 1032.757812 C 1004.664062 1029.441406 1003.269531 1026.175781 1001.660156 1022.996094 C 1001.339844 1022.417969 1001.015625 1021.84375 1000.675781 1021.277344 C 999.730469 1022.855469 998.859375 1024.472656 998.039062 1026.117188 C 996.132812 1030.292969 994.539062 1034.597656 993.085938 1038.96875 C 989.03125 1051.839844 986.175781 1065.121094 983.789062 1078.503906 C 978.65625 1108.136719 975.8125 1138.382812 974 1168.777344 C 973.542969 1176.398438 973.167969 1184.023438 972.949219 1189.640625 C 971.441406 1228.335938 971.621094 1267.382812 973.617188 1306.621094 C 974.367188 1321.210938 975.394531 1335.832031 976.730469 1350.449219 C 979.164062 1376.328125 982.53125 1402.339844 988.214844 1428.023438 C 990.203125 1436.617188 992.472656 1445.183594 995.414062 1453.546875 C 996.636719 1456.839844 997.980469 1460.09375 999.511719 1463.265625 C 999.933594 1464.0625 1000.367188 1464.84375 1000.820312 1465.617188 Z M 1000.820312 1465.617188 "/>
<path fill-rule="nonzero" fill="rgb(0%, 0%, 0%)" fill-opacity="1" d="M 990.125 1006.902344 C 978.023438 998.769531 972.074219 984.195312 967.519531 970.761719 C 961.5 953.046875 957.988281 934.550781 955.027344 916.304688 C 951.125 892.3125 948.722656 868.199219 946.964844 844.183594 C 944.019531 804.035156 943.238281 764.03125 944.125 724.378906 C 944.933594 688.964844 946.984375 653.746094 951.175781 619.042969 C 953.066406 603.375 955.414062 587.808594 958.496094 572.457031 C 961.210938 558.96875 964.511719 545.574219 969.265625 532.773438 C 972.984375 522.761719 977.976562 511.902344 986.539062 505.304688 C 986.828125 505.078125 987.125 504.871094 987.425781 504.671875 C 992.429688 501.238281 998.195312 499.40625 1004.429688 500.300781 C 1019.070312 502.402344 1027.558594 517.289062 1032.695312 529.765625 C 1039.980469 547.464844 1044.066406 566.40625 1047.433594 585.117188 C 1050.707031 603.324219 1053.042969 621.710938 1054.882812 640.148438 C 1060.035156 692.078125 1061.480469 744.65625 1059.929688 797.316406 C 1058.519531 845.019531 1055.199219 893.394531 1045.617188 940.484375 C 1042.878906 953.929688 1039.511719 967.417969 1034.480469 980.113281 C 1032.277344 985.726562 1029.65625 991.078125 1026.433594 996.089844 C 1024.394531 999.257812 1021.917969 1002.042969 1019.160156 1004.535156 C 1014.679688 1008.601562 1008.871094 1010.828125 1002.988281 1010.828125 C 998.566406 1010.828125 994.105469 1009.574219 990.125 1006.902344 Z M 1002.226562 976.519531 C 1003.117188 974.988281 1003.929688 973.414062 1004.703125 971.816406 C 1006.773438 967.238281 1008.46875 962.484375 1010 957.679688 C 1014.203125 943.953125 1017.109375 929.808594 1019.53125 915.640625 C 1025.890625 877.28125 1028.757812 838.402344 1030.136719 800.71875 C 1031.929688 748.324219 1030.867188 695.976562 1025.984375 644.28125 C 1025.933594 643.78125 1025.886719 643.277344 1025.839844 642.777344 C 1023.335938 617.394531 1019.972656 592.070312 1014.230469 567.269531 C 1012.324219 559.300781 1010.140625 551.382812 1007.339844 543.660156 C 1006.070312 540.34375 1004.675781 537.078125 1003.066406 533.898438 C 1002.746094 533.320312 1002.421875 532.746094 1002.082031 532.179688 C 1001.136719 533.757812 1000.265625 535.375 999.445312 537.019531 C 997.539062 541.195312 995.945312 545.5 994.492188 549.871094 C 990.4375 562.742188 987.582031 576.023438 985.195312 589.40625 C 980.0625 619.039062 977.21875 649.285156 975.40625 679.683594 C 974.949219 687.300781 974.574219 694.925781 974.355469 700.542969 C 972.847656 739.238281 973.027344 778.285156 975.023438 817.523438 C 975.773438 832.113281 976.800781 846.734375 978.136719 861.351562 C 980.570312 887.230469 983.9375 913.242188 989.621094 938.925781 C 991.609375 947.519531 993.878906 956.085938 996.816406 964.449219 C 998.039062 967.742188 999.386719 970.996094 1000.917969 974.171875 C 1001.339844 974.964844 1001.773438 975.746094 1002.226562 976.519531 Z M 1002.226562 976.519531 "/>
<path fill-rule="nonzero" fill="rgb(0%, 0%, 0%)" fill-opacity="1" d="M 993.171875 990.199219 C 1001.304688 978.097656 1015.878906 972.148438 1029.3125 967.59375 C 1047.027344 961.574219 1065.523438 958.0625 1083.769531 955.101562 C 1107.761719 951.199219 1131.875 948.796875 1155.890625 947.039062 C 1196.039062 944.09375 1236.042969 943.3125 1275.695312 944.199219 C 1311.109375 945.007812 1346.328125 947.058594 1381.03125 951.25 C 1396.699219 953.140625 1412.265625 955.488281 1427.617188 958.570312 C 1441.105469 961.285156 1454.5 964.585938 1467.300781 969.339844 C 1477.3125 973.058594 1488.171875 978.050781 1494.769531 986.613281 C 1494.996094 986.902344 1495.203125 987.199219 1495.402344 987.5 C 1498.835938 992.503906 1500.667969 998.269531 1499.773438 1004.503906 C 1497.671875 1019.144531 1482.785156 1027.632812 1470.308594 1032.769531 C 1452.609375 1040.054688 1433.667969 1044.140625 1414.957031 1047.507812 C 1396.75 1050.78125 1378.363281 1053.117188 1359.925781 1054.957031 C 1307.996094 1060.109375 1255.417969 1061.554688 1202.757812 1060.003906 C 1155.054688 1058.59375 1106.679688 1055.273438 1059.589844 1045.691406 C 1046.144531 1042.949219 1032.65625 1039.585938 1019.960938 1034.554688 C 1014.347656 1032.351562 1008.996094 1029.730469 1003.984375 1026.507812 C 1000.816406 1024.46875 998.03125 1021.992188 995.539062 1019.234375 C 991.472656 1014.753906 989.246094 1008.945312 989.246094 1003.0625 C 989.246094 998.640625 990.5 994.179688 993.171875 990.199219 Z M 1023.554688 1002.300781 C 1025.085938 1003.191406 1026.660156 1004.003906 1028.257812 1004.777344 C 1032.835938 1006.847656 1037.589844 1008.542969 1042.394531 1010.074219 C 1056.121094 1014.277344 1070.265625 1017.183594 1084.433594 1019.605469 C 1122.792969 1025.960938 1161.671875 1028.832031 1199.355469 1030.210938 C 1251.75 1032.003906 1304.097656 1030.941406 1355.792969 1026.054688 C 1356.292969 1026.007812 1356.796875 1025.960938 1357.296875 1025.914062 C 1382.679688 1023.410156 1408.003906 1020.046875 1432.804688 1014.304688 C 1440.773438 1012.398438 1448.691406 1010.214844 1456.414062 1007.414062 C 1459.730469 1006.144531 1462.996094 1004.75 1466.175781 1003.140625 C 1466.753906 1002.820312 1467.328125 1002.492188 1467.894531 1002.15625 C 1466.316406 1001.210938 1464.699219 1000.339844 1463.054688 999.519531 C 1458.878906 997.613281 1454.574219 996.019531 1450.203125 994.566406 C 1437.332031 990.511719 1424.050781 987.65625 1410.667969 985.269531 C 1381.035156 980.136719 1350.789062 977.292969 1320.390625 975.480469 C 1312.773438 975.023438 1305.148438 974.648438 1299.53125 974.429688 C 1260.835938 972.921875 1221.789062 973.101562 1182.550781 975.097656 C 1167.960938 975.847656 1153.339844 976.875 1138.722656 978.210938 C 1112.84375 980.644531 1086.832031 984.011719 1061.148438 989.695312 C 1052.554688 991.683594 1043.988281 993.953125 1035.625 996.890625 C 1032.332031 998.113281 1029.078125 999.460938 1025.902344 1000.992188 C 1025.109375 1001.414062 1024.328125 1001.847656 1023.554688 1002.300781 Z M 1023.554688 1002.300781 "/>
<path fill-rule="nonzero" fill="rgb(0%, 0%, 0%)" fill-opacity="1" d="M 503.925781 990.199219 C 512.058594 978.097656 526.632812 972.148438 540.066406 967.59375 C 557.78125 961.574219 576.277344 958.0625 594.523438 955.101562 C 618.515625 951.199219 642.628906 948.796875 666.644531 947.039062 C 706.792969 944.09375 746.796875 943.3125 786.449219 944.199219 C 821.863281 945.007812 857.082031 947.058594 891.785156 951.25 C 907.453125 953.140625 923.019531 955.488281 938.371094 958.570312 C 951.859375 961.285156 965.253906 964.585938 978.054688 969.339844 C 988.066406 973.058594 998.925781 978.050781 1005.523438 986.613281 C 1005.75 986.902344 1005.960938 987.199219 1006.15625 987.5 C 1009.589844 992.503906 1011.421875 998.269531 1010.53125 1004.503906 C 1008.425781 1019.144531 993.539062 1027.632812 981.0625 1032.769531 C 963.363281 1040.054688 944.425781 1044.140625 925.710938 1047.507812 C 907.503906 1050.78125 889.117188 1053.117188 870.679688 1054.957031 C 818.75 1060.109375 766.171875 1061.554688 713.511719 1060.003906 C 665.808594 1058.59375 617.433594 1055.273438 570.34375 1045.691406 C 556.898438 1042.953125 543.410156 1039.585938 530.714844 1034.554688 C 525.105469 1032.351562 519.75 1029.730469 514.738281 1026.507812 C 511.570312 1024.46875 508.785156 1021.992188 506.296875 1019.234375 C 502.226562 1014.753906 500 1008.945312 500 1003.0625 C 500 998.640625 501.253906 994.179688 503.925781 990.199219 Z M 534.308594 1002.300781 C 535.839844 1003.191406 537.414062 1004.003906 539.011719 1004.777344 C 543.589844 1006.847656 548.34375 1008.542969 553.148438 1010.074219 C 566.878906 1014.277344 581.019531 1017.183594 595.1875 1019.605469 C 633.546875 1025.964844 672.425781 1028.832031 710.113281 1030.210938 C 762.503906 1032.003906 814.851562 1030.941406 866.546875 1026.058594 C 867.046875 1026.007812 867.550781 1025.960938 868.050781 1025.914062 C 893.433594 1023.410156 918.757812 1020.046875 943.558594 1014.304688 C 951.527344 1012.398438 959.449219 1010.214844 967.167969 1007.414062 C 970.484375 1006.144531 973.75 1004.75 976.929688 1003.140625 C 977.507812 1002.820312 978.082031 1002.496094 978.648438 1002.15625 C 977.070312 1001.210938 975.453125 1000.339844 973.808594 999.519531 C 969.632812 997.613281 965.328125 996.019531 960.957031 994.566406 C 948.085938 990.511719 934.804688 987.65625 921.421875 985.269531 C 891.789062 980.136719 861.542969 977.292969 831.148438 975.480469 C 823.527344 975.023438 815.902344 974.648438 810.285156 974.429688 C 771.589844 972.921875 732.542969 973.101562 693.304688 975.097656 C 678.714844 975.847656 664.09375 976.875 649.476562 978.210938 C 623.601562 980.644531 597.585938 984.011719 571.902344 989.695312 C 563.308594 991.683594 554.742188 993.953125 546.378906 996.890625 C 543.085938 998.113281 539.832031 999.460938 536.660156 1000.992188 C 535.863281 1001.414062 535.082031 1001.847656 534.308594 1002.300781 Z M 534.308594 1002.300781 "/>
<path fill-rule="nonzero" fill="rgb(0%, 0%, 0%)" fill-opacity="1" d="M 998.902344 988.304688 C 996.09375 973.992188 1002.195312 959.484375 1008.472656 946.761719 C 1016.742188 929.980469 1027.339844 914.417969 1038.144531 899.425781 C 1052.351562 879.699219 1067.707031 860.949219 1083.441406 842.722656 C 1109.75 812.253906 1137.480469 783.414062 1166.148438 756.003906 C 1191.765625 731.53125 1218.117188 708.078125 1245.621094 686.503906 C 1258.035156 676.761719 1270.703125 667.414062 1283.734375 658.738281 C 1295.195312 651.121094 1306.996094 643.980469 1319.414062 638.296875 C 1329.121094 633.84375 1340.328125 629.691406 1351.050781 631.082031 C 1351.414062 631.128906 1351.769531 631.191406 1352.125 631.265625 C 1358.089844 632.375 1363.464844 635.15625 1367.242188 640.195312 C 1376.105469 652.035156 1371.578125 668.5625 1366.390625 681.019531 C 1359.027344 698.6875 1348.523438 714.964844 1337.671875 730.582031 C 1327.113281 745.765625 1315.765625 760.421875 1304.027344 774.757812 C 1270.953125 815.121094 1234.796875 853.324219 1196.460938 889.464844 C 1161.734375 922.195312 1125.179688 954.054688 1085.105469 980.578125 C 1073.660156 988.144531 1061.746094 995.304688 1049.207031 1000.726562 C 1043.683594 1003.132812 1038.042969 1005.066406 1032.222656 1006.328125 C 1028.539062 1007.128906 1024.820312 1007.347656 1021.109375 1007.160156 C 1015.0625 1006.867188 1009.382812 1004.332031 1005.222656 1000.171875 C 1002.09375 997.046875 999.828125 993.003906 998.902344 988.304688 Z M 1028.941406 975.375 C 1030.652344 974.921875 1032.34375 974.386719 1034.019531 973.800781 C 1038.722656 972.027344 1043.28125 969.867188 1047.761719 967.550781 C 1060.441406 960.816406 1072.496094 952.867188 1084.230469 944.566406 C 1115.847656 921.9375 1145.367188 896.472656 1172.988281 870.800781 C 1211.304688 835.019531 1247.570312 797.253906 1280.667969 757.246094 C 1280.988281 756.859375 1281.3125 756.46875 1281.632812 756.082031 C 1297.808594 736.363281 1313.339844 716.078125 1326.816406 694.480469 C 1331.101562 687.496094 1335.160156 680.355469 1338.636719 672.914062 C 1340.082031 669.671875 1341.40625 666.375 1342.515625 662.988281 C 1342.699219 662.355469 1342.875 661.71875 1343.035156 661.078125 C 1341.253906 661.523438 1339.492188 662.050781 1337.75 662.636719 C 1333.449219 664.242188 1329.277344 666.15625 1325.160156 668.222656 C 1313.191406 674.453125 1301.78125 681.824219 1290.628906 689.601562 C 1266.050781 706.925781 1242.648438 726.304688 1219.875 746.515625 C 1214.164062 751.578125 1208.507812 756.707031 1204.378906 760.523438 C 1175.953125 786.820312 1148.46875 814.554688 1122.136719 843.714844 C 1112.347656 854.558594 1102.734375 865.625 1093.34375 876.90625 C 1076.769531 896.925781 1060.753906 917.699219 1046.613281 939.878906 C 1041.941406 947.363281 1037.488281 955.023438 1033.652344 963.015625 C 1032.191406 966.210938 1030.839844 969.464844 1029.679688 972.789062 C 1029.414062 973.648438 1029.167969 974.507812 1028.941406 975.375 Z M 1028.941406 975.375 "/>
<path fill-rule="nonzero" fill="rgb(0%, 0%, 0%)" fill-opacity="1" d="M 628.785156 1359.71875 C 625.976562 1345.410156 632.078125 1330.898438 638.355469 1318.179688 C 646.625 1301.394531 657.222656 1285.832031 668.027344 1270.839844 C 682.234375 1251.113281 697.585938 1232.363281 713.324219 1214.140625 C 739.632812 1183.667969 767.363281 1154.828125 796.03125 1127.417969 C 821.644531 1102.949219 847.996094 1079.496094 875.503906 1057.917969 C 887.917969 1048.175781 900.585938 1038.828125 913.617188 1030.152344 C 925.074219 1022.535156 936.878906 1015.398438 949.292969 1009.710938 C 959.003906 1005.257812 970.210938 1001.109375 980.929688 1002.496094 C 981.292969 1002.542969 981.652344 1002.605469 982.007812 1002.679688 C 987.972656 1003.792969 993.34375 1006.570312 997.121094 1011.609375 C 1005.988281 1023.453125 1001.460938 1039.976562 996.273438 1052.433594 C 988.910156 1070.101562 978.40625 1086.382812 967.554688 1101.996094 C 956.996094 1117.183594 945.644531 1131.839844 933.910156 1146.175781 C 900.832031 1186.539062 864.679688 1224.738281 826.34375 1260.878906 C 791.617188 1293.613281 755.0625 1325.46875 714.988281 1351.992188 C 703.542969 1359.5625 691.625 1366.71875 679.089844 1372.140625 C 673.566406 1374.546875 667.925781 1376.480469 662.105469 1377.746094 C 658.421875 1378.542969 654.703125 1378.761719 650.992188 1378.574219 C 644.945312 1378.28125 639.265625 1375.75 635.101562 1371.589844 C 631.976562 1368.460938 629.710938 1364.421875 628.785156 1359.71875 Z M 658.824219 1346.789062 C 660.535156 1346.335938 662.226562 1345.800781 663.902344 1345.21875 C 668.601562 1343.445312 673.164062 1341.28125 677.644531 1338.96875 C 690.324219 1332.230469 702.378906 1324.285156 714.109375 1315.980469 C 745.730469 1293.351562 775.25 1267.886719 802.871094 1242.214844 C 841.183594 1206.4375 877.449219 1168.667969 910.550781 1128.660156 C 910.871094 1128.273438 911.191406 1127.886719 911.515625 1127.496094 C 927.691406 1107.777344 943.222656 1087.492188 956.699219 1065.894531 C 960.980469 1058.914062 965.042969 1051.769531 968.519531 1044.328125 C 969.964844 1041.085938 971.289062 1037.792969 972.398438 1034.402344 C 972.582031 1033.769531 972.757812 1033.132812 972.917969 1032.492188 C 971.132812 1032.941406 969.375 1033.46875 967.632812 1034.054688 C 963.332031 1035.65625 959.160156 1037.570312 955.042969 1039.636719 C 943.074219 1045.871094 931.664062 1053.242188 920.511719 1061.015625 C 895.933594 1078.34375 872.53125 1097.71875 849.757812 1117.929688 C 844.046875 1122.992188 838.386719 1128.121094 834.261719 1131.9375 C 805.835938 1158.234375 778.351562 1185.96875 752.019531 1215.128906 C 742.230469 1225.972656 732.617188 1237.039062 723.226562 1248.320312 C 706.652344 1268.339844 690.636719 1289.117188 676.496094 1311.296875 C 671.824219 1318.777344 667.371094 1326.441406 663.535156 1334.433594 C 662.070312 1337.625 660.722656 1340.878906 659.5625 1344.207031 C 659.296875 1345.0625 659.050781 1345.925781 658.824219 1346.789062 Z M 658.824219 1346.789062 "/>
<path fill-rule="nonzero" fill="rgb(0%, 0%, 0%)" fill-opacity="1" d="M 644.65625 628.859375 C 658.96875 626.050781 673.476562 632.152344 686.195312 638.429688 C 702.980469 646.699219 718.542969 657.296875 733.535156 668.101562 C 753.261719 682.308594 772.011719 697.660156 790.234375 713.398438 C 820.707031 739.707031 849.546875 767.4375 876.957031 796.105469 C 901.429688 821.71875 924.878906 848.070312 946.457031 875.578125 C 956.199219 887.992188 965.546875 900.660156 974.222656 913.691406 C 981.839844 925.148438 988.976562 936.953125 994.664062 949.367188 C 999.117188 959.078125 1003.265625 970.285156 1001.878906 981.003906 C 1001.832031 981.367188 1001.769531 981.726562 1001.695312 982.082031 C 1000.585938 988.046875 997.804688 993.417969 992.765625 997.195312 C 980.921875 1006.0625 964.398438 1001.535156 951.941406 996.347656 C 934.273438 988.984375 917.992188 978.480469 902.378906 967.628906 C 887.191406 957.070312 872.539062 945.71875 858.203125 933.984375 C 817.835938 900.90625 779.636719 864.753906 743.496094 826.417969 C 710.761719 791.691406 678.90625 755.136719 652.382812 715.0625 C 644.8125 703.617188 637.65625 691.699219 632.234375 679.164062 C 629.828125 673.640625 627.894531 668 626.628906 662.179688 C 625.832031 658.496094 625.613281 654.777344 625.800781 651.066406 C 626.09375 645.019531 628.625 639.339844 632.789062 635.175781 C 635.914062 632.050781 639.957031 629.785156 644.65625 628.859375 Z M 657.585938 658.898438 C 658.039062 660.609375 658.574219 662.300781 659.15625 663.976562 C 660.933594 668.675781 663.09375 673.238281 665.410156 677.71875 C 672.144531 690.398438 680.09375 702.453125 688.394531 714.183594 C 711.023438 745.804688 736.488281 775.324219 762.160156 802.945312 C 797.941406 841.257812 835.707031 877.523438 875.714844 910.625 C 876.101562 910.945312 876.488281 911.265625 876.878906 911.589844 C 896.597656 927.765625 916.882812 943.296875 938.480469 956.773438 C 945.464844 961.054688 952.605469 965.117188 960.046875 968.59375 C 963.289062 970.039062 966.582031 971.363281 969.972656 972.472656 C 970.605469 972.65625 971.242188 972.832031 971.882812 972.992188 C 971.433594 971.207031 970.90625 969.449219 970.324219 967.707031 C 968.71875 963.40625 966.804688 959.234375 964.738281 955.117188 C 958.503906 943.148438 951.132812 931.738281 943.359375 920.585938 C 926.035156 896.003906 906.65625 872.605469 886.445312 849.832031 C 881.382812 844.121094 876.253906 838.460938 872.4375 834.335938 C 846.140625 805.910156 818.40625 778.425781 789.246094 752.09375 C 778.402344 742.304688 767.335938 732.691406 756.054688 723.300781 C 736.035156 706.726562 715.261719 690.710938 693.078125 676.570312 C 685.597656 671.898438 677.9375 667.445312 669.945312 663.609375 C 666.75 662.144531 663.496094 660.796875 660.167969 659.636719 C 659.3125 659.371094 658.453125 659.125 657.585938 658.898438 Z M 657.585938 658.898438 "/>
<path fill-rule="nonzero" fill="rgb(0%, 0%, 0%)" fill-opacity="1" d="M 1021.070312 1002.925781 C 1035.378906 1000.121094 1049.890625 1006.21875 1062.609375 1012.496094 C 1079.394531 1020.765625 1094.957031 1031.363281 1109.949219 1042.171875 C 1129.675781 1056.375 1148.421875 1071.730469 1166.648438 1087.464844 C 1197.121094 1113.773438 1225.960938 1141.507812 1253.371094 1170.175781 C 1277.839844 1195.789062 1301.292969 1222.140625 1322.871094 1249.644531 C 1332.613281 1262.0625 1341.960938 1274.726562 1350.636719 1287.761719 C 1358.25 1299.21875 1365.390625 1311.023438 1371.078125 1323.4375 C 1375.53125 1333.148438 1379.679688 1344.355469 1378.289062 1355.074219 C 1378.246094 1355.4375 1378.183594 1355.796875 1378.109375 1356.148438 C 1376.996094 1362.117188 1374.21875 1367.488281 1369.175781 1371.265625 C 1357.335938 1380.128906 1340.8125 1375.605469 1328.355469 1370.417969 C 1310.6875 1363.050781 1294.40625 1352.550781 1278.792969 1341.699219 C 1263.605469 1331.136719 1248.949219 1319.789062 1234.613281 1308.050781 C 1194.25 1274.976562 1156.050781 1238.820312 1119.910156 1200.484375 C 1087.175781 1165.757812 1055.316406 1129.203125 1028.796875 1089.128906 C 1021.226562 1077.6875 1014.070312 1065.769531 1008.648438 1053.234375 C 1006.238281 1047.707031 1004.304688 1042.070312 1003.042969 1036.246094 C 1002.246094 1032.566406 1002.027344 1028.84375 1002.214844 1025.132812 C 1002.503906 1019.085938 1005.039062 1013.40625 1009.199219 1009.246094 C 1012.324219 1006.121094 1016.367188 1003.851562 1021.070312 1002.925781 Z M 1034 1032.96875 C 1034.449219 1034.679688 1034.988281 1036.367188 1035.570312 1038.046875 C 1037.34375 1042.746094 1039.507812 1047.308594 1041.820312 1051.789062 C 1048.558594 1064.464844 1056.503906 1076.519531 1064.808594 1088.253906 C 1087.4375 1119.871094 1112.902344 1149.394531 1138.574219 1177.015625 C 1174.351562 1215.328125 1212.121094 1251.59375 1252.125 1284.695312 C 1252.515625 1285.015625 1252.902344 1285.335938 1253.289062 1285.65625 C 1273.011719 1301.835938 1293.296875 1317.363281 1314.890625 1330.839844 C 1321.875 1335.125 1329.019531 1339.183594 1336.457031 1342.660156 C 1339.703125 1344.109375 1342.996094 1345.429688 1346.382812 1346.542969 C 1347.015625 1346.722656 1347.65625 1346.898438 1348.296875 1347.0625 C 1347.847656 1345.277344 1347.320312 1343.515625 1346.734375 1341.773438 C 1345.128906 1337.472656 1343.214844 1333.300781 1341.152344 1329.183594 C 1334.917969 1317.214844 1327.546875 1305.808594 1319.769531 1294.65625 C 1302.445312 1270.074219 1283.070312 1246.675781 1262.859375 1223.898438 C 1257.792969 1218.1875 1252.667969 1212.53125 1248.851562 1208.402344 C 1222.554688 1179.980469 1194.816406 1152.492188 1165.660156 1126.160156 C 1154.8125 1116.375 1143.75 1106.761719 1132.46875 1097.367188 C 1112.449219 1080.792969 1091.671875 1064.78125 1069.492188 1050.636719 C 1062.011719 1045.964844 1054.347656 1041.515625 1046.355469 1037.679688 C 1043.164062 1036.214844 1039.910156 1034.867188 1036.582031 1033.707031 C 1035.726562 1033.441406 1034.863281 1033.195312 1034 1032.96875 Z M 1034 1032.96875 "/>
<path fill-rule="nonzero" fill="rgb(0%, 0%, 0%)" fill-opacity="1" d="M 972.148438 1017.476562 C 948.113281 999.070312 969.015625 968.242188 996.09375 974.410156 C 1011.375 978.753906 1015.242188 1001.511719 1005 1012.550781 C 997.328125 1020.386719 981.609375 1022.886719 972.148438 1017.476562 Z M 972.148438 1017.476562 "/>
<path fill-rule="nonzero" fill="rgb(0%, 0%, 0%)" fill-opacity="1" d="M 1005.925781 1009.136719 C 1001.066406 1009.976562 995.886719 1008.953125 991.757812 1005.683594 C 991 1005.082031 990.285156 1004.425781 989.625 1003.71875 C 955.226562 1002.574219 970.589844 952.765625 998.796875 955.496094 C 1018.699219 955.738281 1039.425781 979.652344 1030.824219 999.113281 C 1026.316406 1007.792969 1015.15625 1012.328125 1005.925781 1009.136719 Z M 1005.925781 1009.136719 "/>
<path fill-rule="nonzero" fill="rgb(0%, 0%, 0%)" fill-opacity="1" d="M 988.171875 1041.765625 C 983.5 1039.246094 979.828125 1035.660156 977.15625 1031.453125 C 967.835938 1026.859375 960.792969 1018.320312 958.484375 1008.230469 C 954.566406 1004.199219 953.226562 998.542969 952.9375 993.085938 C 953.09375 978.800781 964.691406 963.6875 979.710938 963.675781 C 996.226562 946.933594 1032.640625 953.460938 1039.242188 977.089844 C 1054.652344 1007.914062 1025.054688 1059.25 988.171875 1041.765625 Z M 988.171875 1041.765625 "/>
<path fill-rule="nonzero" fill="rgb(0%, 0%, 0%)" fill-opacity="1" d="M 982.097656 1076.648438 C 932.960938 1066.230469 912.175781 1001.796875 936.140625 960.511719 C 961.398438 914.441406 1034.523438 912.269531 1060.671875 958.53125 C 1106.886719 1017.742188 1054.648438 1095.675781 982.097656 1076.648438 Z M 982.097656 1076.648438 "/>
</svg>
