<?xml version="1.0" encoding="UTF-8"?>
<!-- Created by grConvert v0.1-0 -->
<svg xmlns="http://www.w3.org/2000/svg" xmlns:xlink="http://www.w3.org/1999/xlink" width="2000" height="2000" viewBox="0 0 2000 2000">
<path fill-rule="nonzero" fill="rgb(0%, 79.215688%, 93.725491%)" fill-opacity="1" d="M 936.167969 835.445312 C 940.945312 842.304688 945.613281 849.246094 949.988281 856.335938 C 942.410156 861.792969 935.742188 868.652344 930.480469 876.882812 C 905.734375 861.445312 882.488281 843.65625 859.898438 825.113281 C 859.707031 824.941406 859.496094 824.785156 859.300781 824.632812 C 859.050781 824.417969 858.820312 824.207031 858.570312 824.015625 C 854.15625 820.351562 849.761719 816.671875 845.386719 812.953125 C 842.765625 810.714844 840.164062 808.480469 837.558594 806.207031 C 833.222656 802.484375 828.925781 798.707031 824.648438 794.890625 C 813.488281 784.964844 802.480469 774.828125 791.628906 764.496094 C 787.5625 760.621094 783.515625 756.730469 779.488281 752.796875 C 779.488281 752.796875 779.46875 752.796875 779.46875 752.796875 C 775.441406 748.882812 771.449219 744.933594 767.480469 740.960938 C 754.179688 727.722656 741.132812 714.230469 728.3125 700.503906 C 698.863281 668.820312 669.664062 634.953125 643.699219 598.679688 C 637.746094 590.277344 631.960938 581.71875 626.566406 572.929688 C 624.40625 569.421875 622.304688 565.875 620.300781 562.269531 C 619.28125 560.480469 618.296875 558.667969 617.332031 556.855469 C 616.332031 554.929688 615.367188 552.980469 614.441406 551.015625 C 613.804688 549.703125 613.207031 548.414062 612.628906 547.082031 C 612.050781 545.773438 611.492188 544.441406 610.953125 543.113281 C 610.953125 543.09375 610.953125 543.09375 610.953125 543.09375 C 610.683594 542.417969 610.414062 541.761719 610.164062 541.089844 C 609.835938 540.125 609.507812 539.160156 609.199219 538.199219 C 608.910156 537.234375 608.621094 536.25 608.371094 535.269531 C 609.355469 535.519531 610.335938 535.808594 611.320312 536.117188 C 615.136719 537.445312 618.875 538.988281 622.539062 540.664062 C 627.125 542.863281 631.617188 545.234375 636.03125 547.738281 C 640.441406 550.226562 644.800781 552.847656 649.078125 555.523438 C 652.257812 557.550781 655.417969 559.613281 658.542969 561.710938 C 660.101562 562.753906 661.664062 563.8125 663.226562 564.875 C 665.691406 566.570312 668.160156 568.265625 670.589844 569.980469 C 672.765625 571.503906 674.90625 573.046875 677.0625 574.605469 C 679.453125 576.339844 681.824219 578.09375 684.195312 579.867188 C 696.878906 589.292969 709.214844 599.125 721.316406 609.144531 C 734.25 619.902344 746.953125 630.945312 759.382812 642.164062 C 792.84375 672.367188 824.648438 703.898438 854.8125 736.511719 C 859.1875 741.230469 865.085938 747.726562 870.886719 754.28125 C 894.074219 780.398438 916.296875 807.246094 936.167969 835.445312 Z M 936.167969 835.445312 "/>
<path fill-rule="nonzero" fill="rgb(0%, 79.215688%, 93.725491%)" fill-opacity="1" d="M 1394.625 537.753906 C 1394.449219 538.507812 1394.238281 539.21875 1394.046875 539.953125 C 1392.753906 543.84375 1391.25 547.621094 1389.59375 551.34375 C 1387.589844 555.621094 1385.429688 559.785156 1383.15625 563.910156 C 1380.878906 568.035156 1378.492188 572.082031 1376.023438 576.070312 C 1360.566406 600.859375 1342.757812 624.121094 1324.195312 646.730469 C 1323.828125 647.191406 1323.464844 647.636719 1323.097656 648.078125 C 1285.125 693.972656 1243.511719 737.28125 1199.570312 778.335938 C 1167.882812 807.785156 1134.035156 836.988281 1097.761719 862.949219 C 1096.085938 864.144531 1094.390625 865.320312 1092.691406 866.496094 C 1089.300781 868.847656 1085.890625 871.160156 1082.4375 873.433594 C 1078.910156 875.765625 1075.328125 878.058594 1071.722656 880.257812 C 1071.394531 879.8125 1071.066406 879.390625 1070.738281 878.964844 C 1066.210938 870.964844 1060.464844 864.238281 1053.875 858.746094 C 1054.125 858.363281 1054.355469 857.957031 1054.605469 857.570312 C 1070.835938 832.128906 1089.203125 808.304688 1108.207031 785.332031 C 1118.984375 772.398438 1130.007812 759.695312 1141.246094 747.265625 C 1171.449219 713.804688 1202.980469 682.003906 1235.574219 651.839844 C 1240.3125 647.464844 1246.808594 641.566406 1253.363281 635.765625 C 1279.480469 612.578125 1306.328125 590.355469 1334.527344 570.480469 C 1347.304688 561.558594 1360.390625 553.097656 1374.136719 545.964844 C 1378.855469 543.59375 1383.636719 541.398438 1388.570312 539.546875 C 1390.574219 538.871094 1392.582031 538.273438 1394.625 537.753906 Z M 1394.625 537.753906 "/>
<path fill-rule="nonzero" fill="rgb(0%, 79.215688%, 93.725491%)" fill-opacity="1" d="M 1029.339844 1079.53125 C 1034.929688 1138.820312 1036.140625 1198.878906 1034.097656 1258.976562 C 1032.519531 1302.207031 1029.222656 1346.808594 1021.9375 1390.8125 C 1019.144531 1407.058594 1015.828125 1423.269531 1011.007812 1439.035156 C 1009.234375 1444.527344 1007.289062 1449.984375 1004.917969 1455.246094 C 1004.03125 1457.074219 1003.105469 1458.867188 1002.085938 1460.621094 C 1001.988281 1460.46875 1001.890625 1460.3125 1001.816406 1460.140625 C 1001.46875 1459.5625 1001.140625 1458.984375 1000.851562 1458.40625 C 1000.753906 1458.25 1000.660156 1458.097656 1000.582031 1457.941406 C 998.828125 1454.300781 997.285156 1450.5625 995.878906 1446.785156 C 992.503906 1437.203125 989.902344 1427.375 987.628906 1417.507812 C 981.09375 1388.054688 977.242188 1358.21875 974.445312 1328.535156 C 972.921875 1311.769531 971.726562 1294.980469 970.878906 1278.25 C 968.585938 1233.246094 968.375 1188.453125 970.109375 1144.0625 C 970.359375 1137.625 970.785156 1128.875 971.324219 1120.144531 C 973.40625 1085.277344 976.664062 1050.582031 982.539062 1016.582031 C 982.636719 1016.0625 982.734375 1015.523438 982.828125 1015.003906 C 996.320312 1018.261719 1009.179688 1018.570312 1021.011719 1016.527344 C 1024.636719 1036.800781 1027.140625 1057.289062 1029.164062 1077.796875 C 1029.222656 1078.375 1029.28125 1078.953125 1029.339844 1079.53125 Z M 1029.339844 1079.53125 "/>
</svg>
