<?xml version="1.0" encoding="UTF-8"?>
<!-- Created by grConvert v0.1-0 -->
<svg xmlns="http://www.w3.org/2000/svg" xmlns:xlink="http://www.w3.org/1999/xlink" width="2000" height="2000" viewBox="0 0 2000 2000">
<path fill-rule="nonzero" fill="rgb(0%, 79.215688%, 93.725491%)" fill-opacity="1" d="M 967.402344 712.558594 C 968.375 741.847656 968.273438 771.257812 967.265625 800.683594 C 967.097656 805.390625 966.898438 810.128906 966.679688 814.867188 C 966.460938 819.488281 966.207031 824.128906 965.9375 828.765625 C 965.789062 831.285156 965.636719 833.789062 965.46875 836.3125 C 965.164062 840.917969 964.828125 845.519531 964.460938 850.140625 C 964.441406 850.527344 964.410156 850.898438 964.375 851.285156 C 964.023438 855.671875 963.636719 860.058594 963.234375 864.445312 C 962.746094 869.484375 962.226562 874.527344 961.652344 879.550781 C 960.832031 886.777344 959.90625 894.003906 958.878906 901.214844 C 958.527344 903.617188 958.175781 906.019531 957.804688 908.421875 C 957.433594 910.824219 957.050781 913.210938 956.644531 915.617188 C 956.34375 917.378906 956.039062 919.160156 955.722656 920.925781 C 955.351562 922.925781 954.980469 924.925781 954.59375 926.910156 C 944.648438 924.574219 934.195312 924.253906 924.058594 925.917969 C 923.960938 925.414062 923.859375 924.910156 923.773438 924.421875 C 923.167969 921.195312 922.597656 917.96875 922.042969 914.742188 C 919.035156 896.976562 916.933594 879.132812 915.253906 861.335938 C 913.910156 846.714844 912.886719 832.078125 912.144531 817.488281 C 910.144531 778.25 909.960938 739.195312 911.472656 700.492188 C 911.609375 696.960938 911.808594 692.644531 912.042969 688.023438 C 912.09375 687.132812 912.144531 686.222656 912.195312 685.316406 C 912.296875 683.453125 912.398438 681.535156 912.515625 679.636719 C 912.785156 675.046875 913.085938 670.460938 913.421875 665.875 C 913.457031 665.535156 913.472656 665.199219 913.488281 664.863281 C 913.824219 660.292969 914.179688 655.738281 914.566406 651.183594 C 914.734375 649.117188 914.917969 647.050781 915.121094 644.984375 C 915.4375 641.386719 915.792969 637.792969 916.179688 634.195312 C 916.566406 630.429688 916.984375 626.667969 917.4375 622.917969 C 918.109375 617.273438 918.851562 611.660156 919.65625 606.0625 C 920.464844 600.46875 921.355469 594.90625 922.3125 589.34375 C 924.109375 579.292969 926.160156 569.308594 928.78125 559.53125 C 929.21875 557.898438 929.671875 556.269531 930.144531 554.640625 C 930.613281 553.027344 931.101562 551.394531 931.605469 549.800781 C 931.789062 549.246094 931.976562 548.707031 932.175781 548.167969 C 932.363281 547.613281 932.546875 547.078125 932.730469 546.539062 C 933.890625 543.277344 935.136719 540.085938 936.5625 536.945312 C 937.386719 535.296875 938.261719 533.683594 939.203125 532.105469 C 939.539062 532.675781 939.855469 533.246094 940.175781 533.816406 C 941.386719 536.203125 942.480469 538.640625 943.488281 541.113281 C 943.824219 541.933594 944.140625 542.757812 944.460938 543.582031 C 944.816406 544.539062 945.152344 545.515625 945.488281 546.488281 C 946.140625 548.4375 946.78125 550.386719 947.367188 552.355469 C 947.671875 553.328125 947.957031 554.320312 948.242188 555.296875 C 949.082031 558.253906 949.875 561.226562 950.628906 564.203125 C 950.863281 565.210938 951.117188 566.203125 951.351562 567.191406 C 957.097656 591.996094 960.460938 617.339844 962.964844 642.714844 C 963.015625 643.21875 963.066406 643.722656 963.097656 644.226562 C 964.175781 655.554688 965.066406 666.933594 965.769531 678.308594 C 965.769531 678.324219 965.769531 678.324219 965.769531 678.324219 C 966.054688 682.878906 966.308594 687.449219 966.542969 692.003906 C 966.542969 692.003906 966.542969 692.023438 966.542969 692.023438 C 966.898438 698.863281 967.183594 705.703125 967.402344 712.558594 Z M 967.402344 712.558594 "/>
<path fill-rule="nonzero" fill="rgb(0%, 79.215688%, 93.725491%)" fill-opacity="1" d="M 1280.195312 661.015625 C 1280.046875 661.671875 1279.859375 662.292969 1279.691406 662.933594 C 1278.566406 666.328125 1277.253906 669.621094 1275.808594 672.863281 C 1274.0625 676.59375 1272.179688 680.226562 1270.195312 683.820312 C 1268.214844 687.417969 1266.128906 690.945312 1263.980469 694.425781 C 1250.5 716.035156 1234.972656 736.320312 1218.789062 756.03125 C 1218.46875 756.4375 1218.152344 756.824219 1217.832031 757.210938 C 1184.726562 797.222656 1148.445312 834.984375 1110.128906 870.777344 C 1082.5 896.457031 1052.988281 921.917969 1021.363281 944.554688 C 1019.898438 945.597656 1018.421875 946.621094 1016.941406 947.644531 C 1013.984375 949.695312 1011.011719 951.714844 1008.003906 953.695312 C 1005.363281 955.445312 1002.691406 957.15625 999.984375 958.820312 C 999.414062 958.9375 998.859375 959.058594 998.289062 959.175781 C 998.136719 958.957031 997.96875 958.738281 997.800781 958.519531 C 993.851562 951.542969 988.84375 945.679688 983.097656 940.890625 C 983.316406 940.554688 983.515625 940.203125 983.734375 939.867188 C 997.886719 917.683594 1013.902344 896.910156 1030.472656 876.878906 C 1039.863281 865.601562 1049.476562 854.527344 1059.273438 843.6875 C 1085.609375 814.515625 1113.101562 786.785156 1141.519531 760.488281 C 1145.652344 756.671875 1151.316406 751.53125 1157.03125 746.472656 C 1179.800781 726.253906 1203.210938 706.878906 1227.796875 689.550781 C 1238.9375 681.769531 1250.351562 674.394531 1262.332031 668.175781 C 1266.449219 666.109375 1270.617188 664.191406 1274.917969 662.578125 C 1276.667969 661.992188 1278.414062 661.46875 1280.195312 661.015625 Z M 1280.195312 661.015625 "/>
<path fill-rule="nonzero" fill="rgb(0%, 79.215688%, 93.725491%)" fill-opacity="1" d="M 1405.074219 1002.144531 C 1404.503906 1002.480469 1403.933594 1002.816406 1403.363281 1003.136719 C 1400.183594 1004.75 1396.910156 1006.144531 1393.597656 1007.40625 C 1385.882812 1010.210938 1377.953125 1012.398438 1369.988281 1014.296875 C 1345.183594 1020.042969 1319.855469 1023.402344 1294.464844 1025.90625 C 1293.960938 1025.957031 1293.457031 1026.007812 1292.96875 1026.058594 C 1283.894531 1026.917969 1274.800781 1027.65625 1265.691406 1028.277344 C 1261.140625 1028.597656 1256.601562 1028.882812 1252.046875 1029.132812 C 1252.03125 1029.132812 1252.03125 1029.132812 1252.03125 1029.132812 C 1247.476562 1029.386719 1242.90625 1029.621094 1238.351562 1029.824219 C 1236.066406 1029.925781 1233.761719 1030.023438 1231.476562 1030.109375 C 1227.476562 1030.261719 1223.480469 1030.394531 1219.480469 1030.511719 C 1211.5625 1030.746094 1203.632812 1030.882812 1195.683594 1030.964844 C 1183.902344 1031.066406 1172.089844 1031.015625 1160.273438 1030.816406 C 1152.359375 1030.679688 1144.425781 1030.480469 1136.511719 1030.210938 C 1098.816406 1028.832031 1059.929688 1025.957031 1021.5625 1019.605469 C 1019.160156 1019.203125 1016.742188 1018.765625 1014.335938 1018.328125 C 1014.335938 1018.328125 1014.335938 1018.328125 1014.335938 1018.3125 C 1015.96875 1008.195312 1015.480469 997.492188 1012.457031 986.835938 C 1012.507812 986.820312 1012.539062 986.785156 1012.589844 986.75 C 1033.613281 982.785156 1054.769531 980.179688 1075.863281 978.199219 C 1079.523438 977.863281 1083.171875 977.558594 1086.820312 977.257812 C 1097.792969 976.367188 1108.75 975.660156 1119.691406 975.089844 C 1125.085938 974.820312 1130.480469 974.566406 1135.855469 974.367188 C 1141.570312 974.148438 1147.285156 973.964844 1152.996094 973.828125 C 1176.742188 973.242188 1200.386719 973.308594 1223.914062 973.980469 C 1228.167969 974.113281 1232.4375 974.25 1236.6875 974.417969 C 1237.746094 974.449219 1238.871094 974.5 1240.046875 974.550781 C 1240.839844 974.585938 1241.644531 974.636719 1242.484375 974.667969 C 1243.292969 974.703125 1244.132812 974.753906 1244.988281 974.785156 C 1245.878906 974.835938 1246.789062 974.871094 1247.710938 974.921875 C 1248.621094 974.972656 1249.542969 975.023438 1250.46875 975.070312 C 1251.375 975.121094 1252.28125 975.171875 1253.207031 975.222656 C 1254.652344 975.308594 1256.097656 975.390625 1257.558594 975.476562 C 1287.960938 977.289062 1318.210938 980.128906 1347.835938 985.257812 C 1361.230469 987.640625 1374.507812 990.5 1387.378906 994.566406 C 1391.765625 996.011719 1396.066406 997.609375 1400.234375 999.507812 C 1401.882812 1000.332031 1403.496094 1001.203125 1405.074219 1002.144531 Z M 1405.074219 1002.144531 "/>
<path fill-rule="nonzero" fill="rgb(0%, 79.215688%, 93.725491%)" fill-opacity="1" d="M 1285.101562 1345.777344 C 1285.238281 1346.214844 1285.355469 1346.652344 1285.457031 1347.105469 C 1284.816406 1346.9375 1284.179688 1346.769531 1283.558594 1346.585938 C 1281.859375 1346.03125 1280.179688 1345.425781 1278.53125 1344.769531 C 1276.886719 1344.113281 1275.238281 1343.425781 1273.625 1342.703125 C 1266.179688 1339.222656 1259.039062 1335.175781 1252.0625 1330.890625 C 1249.359375 1329.207031 1246.6875 1327.492188 1244.015625 1325.746094 C 1241.359375 1324 1238.722656 1322.21875 1236.097656 1320.417969 C 1234.789062 1319.511719 1233.476562 1318.605469 1232.167969 1317.695312 C 1229.5625 1315.863281 1226.972656 1314.015625 1224.402344 1312.132812 C 1220.539062 1309.3125 1216.707031 1306.453125 1212.90625 1303.546875 C 1210.371094 1301.613281 1207.867188 1299.648438 1205.347656 1297.679688 C 1202.84375 1295.714844 1200.355469 1293.730469 1197.867188 1291.734375 C 1195.378906 1289.734375 1192.910156 1287.734375 1190.441406 1285.699219 C 1190.253906 1285.53125 1190.054688 1285.378906 1189.867188 1285.210938 C 1189.667969 1285.042969 1189.480469 1284.894531 1189.28125 1284.726562 C 1184.273438 1280.589844 1179.316406 1276.40625 1174.375 1272.171875 C 1166.980469 1265.820312 1159.652344 1259.347656 1152.410156 1252.792969 C 1140.34375 1241.871094 1128.480469 1230.664062 1116.816406 1219.21875 C 1114.480469 1216.914062 1112.160156 1214.628906 1109.84375 1212.3125 C 1098.261719 1200.765625 1086.886719 1189.003906 1075.710938 1177.035156 C 1050.03125 1149.410156 1024.570312 1119.882812 1001.9375 1088.253906 C 996.492188 1080.558594 991.195312 1072.726562 986.324219 1064.675781 C 992.542969 1059.972656 997.9375 1054.324219 1002.320312 1047.988281 C 1003.765625 1048.863281 1005.195312 1049.753906 1006.625 1050.644531 C 1008.003906 1051.535156 1009.398438 1052.425781 1010.773438 1053.316406 C 1013.515625 1055.117188 1016.253906 1056.929688 1018.960938 1058.777344 C 1021.664062 1060.628906 1024.355469 1062.507812 1027.027344 1064.410156 C 1029.699219 1066.308594 1032.351562 1068.222656 1034.992188 1070.171875 C 1037.613281 1072.105469 1040.234375 1074.070312 1042.839844 1076.054688 C 1045.445312 1078.019531 1048.015625 1080.019531 1050.585938 1082.039062 C 1053.15625 1084.054688 1055.710938 1086.070312 1058.265625 1088.121094 C 1059.527344 1089.144531 1060.804688 1090.171875 1062.066406 1091.195312 C 1064.585938 1093.246094 1067.105469 1095.3125 1069.609375 1097.378906 C 1080.886719 1106.773438 1091.960938 1116.386719 1102.800781 1126.167969 C 1131.957031 1152.5 1159.703125 1179.996094 1186.003906 1208.429688 C 1189.816406 1212.5625 1194.945312 1218.210938 1200.019531 1223.921875 C 1201.277344 1225.351562 1202.554688 1226.78125 1203.800781 1228.226562 C 1206.320312 1231.066406 1208.824219 1233.941406 1211.292969 1236.8125 C 1213.78125 1239.6875 1216.234375 1242.578125 1218.6875 1245.484375 C 1222.351562 1249.835938 1225.984375 1254.222656 1229.5625 1258.625 C 1231.949219 1261.585938 1234.300781 1264.523438 1236.636719 1267.5 C 1243.660156 1276.421875 1250.433594 1285.464844 1256.9375 1294.691406 C 1264.71875 1305.847656 1272.078125 1317.257812 1278.3125 1329.226562 C 1280.382812 1333.34375 1282.296875 1337.511719 1283.910156 1341.8125 C 1284.078125 1342.316406 1284.230469 1342.804688 1284.378906 1343.308594 C 1284.648438 1344.132812 1284.886719 1344.953125 1285.101562 1345.777344 Z M 1285.101562 1345.777344 "/>
<path fill-rule="nonzero" fill="rgb(0%, 79.215688%, 93.725491%)" fill-opacity="1" d="M 961.703125 1133.394531 C 966.578125 1185.085938 967.636719 1237.453125 965.855469 1289.851562 C 964.476562 1327.542969 961.601562 1366.433594 955.25 1404.796875 C 952.8125 1418.964844 949.921875 1433.097656 945.722656 1446.84375 C 944.175781 1451.632812 942.480469 1456.390625 940.410156 1460.976562 C 939.640625 1462.574219 938.832031 1464.136719 937.941406 1465.667969 C 937.855469 1465.53125 937.773438 1465.398438 937.707031 1465.246094 C 937.402344 1464.742188 937.117188 1464.238281 936.867188 1463.734375 C 936.78125 1463.597656 936.699219 1463.464844 936.628906 1463.332031 C 935.101562 1460.15625 933.757812 1456.894531 932.53125 1453.601562 C 929.589844 1445.25 927.320312 1436.675781 925.335938 1428.074219 C 919.640625 1402.394531 916.28125 1376.378906 913.84375 1350.5 C 912.515625 1335.878906 911.472656 1321.242188 910.734375 1306.65625 C 908.734375 1267.414062 908.550781 1228.359375 910.0625 1189.65625 C 910.28125 1184.042969 910.648438 1176.414062 911.121094 1168.800781 C 912.933594 1138.402344 915.773438 1108.152344 920.902344 1078.507812 C 920.984375 1078.054688 921.070312 1077.582031 921.152344 1077.128906 C 932.917969 1079.96875 944.125 1080.238281 954.445312 1078.457031 C 957.601562 1096.136719 959.789062 1114 961.550781 1131.882812 C 961.601562 1132.386719 961.652344 1132.890625 961.703125 1133.394531 Z M 961.703125 1133.394531 "/>
<path fill-rule="nonzero" fill="rgb(0%, 79.215688%, 93.725491%)" fill-opacity="1" d="M 893.574219 1064.777344 C 893.425781 1065.5 893.289062 1066.222656 893.140625 1066.945312 C 893.140625 1066.964844 893.140625 1066.964844 893.140625 1066.964844 C 879.828125 1088.171875 864.535156 1108.101562 848.621094 1127.511719 C 848.300781 1127.898438 847.984375 1128.285156 847.664062 1128.671875 C 845.597656 1131.175781 843.511719 1133.664062 841.414062 1136.148438 C 837.226562 1141.109375 832.992188 1146.046875 828.707031 1150.9375 C 826.574219 1153.390625 824.421875 1155.828125 822.253906 1158.265625 C 813.601562 1167.996094 804.761719 1177.574219 795.769531 1187.035156 C 784.511719 1198.867188 773.015625 1210.480469 761.285156 1221.90625 C 754.261719 1228.746094 747.152344 1235.535156 739.960938 1242.242188 C 731.339844 1250.257812 722.515625 1258.257812 713.507812 1266.171875 C 699.089844 1278.808594 684.183594 1291.210938 668.753906 1303.007812 C 664.90625 1305.964844 661.007812 1308.875 657.09375 1311.746094 C 655.144531 1313.175781 653.175781 1314.605469 651.195312 1316.015625 C 648.253906 1318.082031 645.296875 1320.148438 642.320312 1322.167969 C 639.347656 1324.183594 636.339844 1326.167969 633.3125 1328.097656 C 630.273438 1330.03125 627.214844 1331.914062 624.121094 1333.746094 C 624.121094 1333.746094 624.105469 1333.746094 624.105469 1333.746094 C 621.011719 1335.558594 617.886719 1337.324219 614.710938 1339.003906 C 613.585938 1339.59375 612.476562 1340.148438 611.332031 1340.71875 C 610.207031 1341.273438 609.0625 1341.8125 607.921875 1342.332031 C 606.777344 1342.871094 605.636719 1343.375 604.476562 1343.863281 C 603.316406 1344.351562 602.15625 1344.820312 600.980469 1345.257812 C 599.300781 1345.84375 597.621094 1346.382812 595.90625 1346.835938 C 595.90625 1346.835938 595.886719 1346.835938 595.886719 1346.835938 C 596.007812 1346.398438 596.125 1345.964844 596.242188 1345.542969 C 596.375 1345.105469 596.492188 1344.667969 596.628906 1344.25 C 596.914062 1343.425781 597.214844 1342.585938 597.535156 1341.761719 C 598.476562 1339.292969 599.519531 1336.871094 600.609375 1334.46875 C 604.441406 1326.484375 608.894531 1318.824219 613.566406 1311.328125 C 627.71875 1289.144531 643.734375 1268.375 660.300781 1248.359375 C 669.695312 1237.066406 679.308594 1226.007812 689.105469 1215.152344 C 692.402344 1211.503906 695.710938 1207.890625 699.039062 1204.277344 C 705.695312 1197.085938 712.414062 1189.976562 719.203125 1182.953125 C 722.597656 1179.441406 726.011719 1175.945312 729.4375 1172.484375 C 743.167969 1158.601562 757.132812 1145.089844 771.351562 1131.949219 C 774.710938 1128.855469 779.082031 1124.890625 783.652344 1120.789062 C 784.359375 1120.167969 785.066406 1119.546875 785.769531 1118.890625 C 785.769531 1118.890625 785.785156 1118.890625 785.785156 1118.890625 C 786.140625 1118.554688 786.492188 1118.253906 786.847656 1117.933594 C 789.703125 1115.414062 792.558594 1112.890625 795.417969 1110.40625 C 795.417969 1110.40625 795.433594 1110.40625 795.433594 1110.40625 C 798.308594 1107.882812 801.179688 1105.414062 804.054688 1102.960938 C 804.054688 1102.960938 804.070312 1102.960938 804.070312 1102.960938 C 806.960938 1100.472656 809.851562 1098.035156 812.777344 1095.617188 C 814.238281 1094.390625 815.699219 1093.179688 817.164062 1091.984375 C 820.085938 1089.582031 823.027344 1087.195312 825.984375 1084.84375 C 827.464844 1083.652344 828.941406 1082.472656 830.4375 1081.316406 C 839.34375 1074.289062 848.402344 1067.5 857.613281 1061.015625 C 859.007812 1060.039062 860.402344 1059.082031 861.8125 1058.125 C 867.058594 1054.542969 872.367188 1051.066406 877.777344 1047.789062 C 882.132812 1054.273438 887.425781 1060.054688 893.574219 1064.777344 Z M 893.574219 1064.777344 "/>
<path fill-rule="nonzero" fill="rgb(0%, 79.215688%, 93.725491%)" fill-opacity="1" d="M 880.46875 920.574219 C 884.636719 926.554688 888.703125 932.605469 892.515625 938.789062 C 885.914062 943.546875 880.097656 949.527344 875.511719 956.703125 C 853.933594 943.242188 833.664062 927.730469 813.96875 911.566406 C 813.800781 911.414062 813.617188 911.28125 813.449219 911.144531 C 813.230469 910.960938 813.027344 910.777344 812.808594 910.605469 C 808.960938 907.414062 805.128906 904.203125 801.316406 900.960938 C 799.03125 899.011719 796.761719 897.0625 794.492188 895.078125 C 790.710938 891.835938 786.964844 888.542969 783.234375 885.214844 C 773.503906 876.558594 763.90625 867.71875 754.445312 858.714844 C 750.898438 855.335938 747.371094 851.941406 743.859375 848.511719 C 743.859375 848.511719 743.839844 848.511719 743.839844 848.511719 C 740.328125 845.101562 736.851562 841.65625 733.386719 838.195312 C 721.792969 826.648438 710.414062 814.886719 699.242188 802.917969 C 673.5625 775.292969 648.101562 745.765625 625.464844 714.136719 C 620.273438 706.8125 615.230469 699.347656 610.527344 691.6875 C 608.644531 688.628906 606.8125 685.535156 605.0625 682.394531 C 604.171875 680.828125 603.316406 679.25 602.476562 677.671875 C 601.601562 675.988281 600.761719 674.292969 599.957031 672.578125 C 599.402344 671.4375 598.878906 670.308594 598.375 669.148438 C 597.871094 668.007812 597.382812 666.847656 596.914062 665.6875 C 596.914062 665.671875 596.914062 665.671875 596.914062 665.671875 C 596.679688 665.082031 596.441406 664.511719 596.222656 663.921875 C 595.9375 663.082031 595.652344 662.242188 595.382812 661.402344 C 595.132812 660.5625 594.878906 659.707031 594.660156 658.847656 C 595.519531 659.066406 596.375 659.320312 597.234375 659.589844 C 600.558594 660.746094 603.820312 662.09375 607.011719 663.554688 C 611.011719 665.46875 614.929688 667.535156 618.777344 669.722656 C 622.625 671.890625 626.421875 674.175781 630.152344 676.511719 C 632.925781 678.277344 635.683594 680.074219 638.40625 681.90625 C 639.765625 682.8125 641.128906 683.738281 642.488281 684.660156 C 644.640625 686.140625 646.792969 687.617188 648.910156 689.113281 C 650.808594 690.441406 652.671875 691.785156 654.554688 693.148438 C 656.640625 694.660156 658.707031 696.191406 660.773438 697.734375 C 671.832031 705.953125 682.585938 714.523438 693.140625 723.261719 C 704.417969 732.640625 715.492188 742.269531 726.332031 752.050781 C 755.503906 778.382812 783.234375 805.878906 809.53125 834.3125 C 813.347656 838.429688 818.488281 844.09375 823.546875 849.804688 C 843.765625 872.578125 863.140625 895.988281 880.46875 920.574219 Z M 880.46875 920.574219 "/>
</svg>
