<?xml version="1.0" encoding="UTF-8"?>
<!-- Created by grConvert v0.1-0 -->
<svg xmlns="http://www.w3.org/2000/svg" xmlns:xlink="http://www.w3.org/1999/xlink" width="2000" height="2000" viewBox="0 0 2000 2000">
<path fill-rule="nonzero" fill="rgb(0%, 0%, 0%)" fill-opacity="1" d="M 988.203125 1495.496094 C 974.320312 1486.167969 967.496094 1469.449219 962.273438 1454.039062 C 955.367188 1433.71875 951.339844 1412.5 947.945312 1391.574219 C 943.464844 1364.054688 940.710938 1336.390625 938.691406 1308.84375 C 935.316406 1262.789062 934.417969 1216.902344 935.4375 1171.417969 C 936.367188 1130.792969 938.71875 1090.394531 943.523438 1050.585938 C 945.695312 1032.613281 948.386719 1014.757812 951.917969 997.148438 C 955.035156 981.675781 958.820312 966.3125 964.277344 951.628906 C 968.539062 940.140625 974.265625 927.683594 984.085938 920.117188 C 984.417969 919.859375 984.761719 919.617188 985.105469 919.390625 C 990.847656 915.457031 997.460938 913.351562 1004.613281 914.375 C 1021.40625 916.789062 1031.140625 933.863281 1037.035156 948.175781 C 1045.394531 968.480469 1050.078125 990.203125 1053.941406 1011.671875 C 1057.695312 1032.554688 1060.378906 1053.648438 1062.484375 1074.796875 C 1068.398438 1134.363281 1070.054688 1194.675781 1068.277344 1255.082031 C 1066.660156 1309.800781 1062.847656 1365.292969 1051.859375 1419.308594 C 1048.714844 1434.730469 1044.855469 1450.203125 1039.082031 1464.769531 C 1036.554688 1471.203125 1033.550781 1477.34375 1029.851562 1483.09375 C 1027.511719 1486.726562 1024.671875 1489.921875 1021.511719 1492.777344 C 1016.367188 1497.449219 1009.707031 1500 1002.957031 1500 C 997.886719 1500 992.765625 1498.558594 988.203125 1495.496094 Z M 1002.082031 1460.644531 C 1003.105469 1458.890625 1004.039062 1457.082031 1004.925781 1455.25 C 1007.300781 1450 1009.246094 1444.542969 1011.003906 1439.035156 C 1015.824219 1423.285156 1019.15625 1407.0625 1021.9375 1390.808594 C 1029.226562 1346.808594 1032.519531 1302.210938 1034.101562 1258.984375 C 1036.15625 1198.886719 1034.9375 1138.835938 1029.335938 1079.535156 C 1029.28125 1078.960938 1029.226562 1078.386719 1029.171875 1077.8125 C 1026.300781 1048.695312 1022.441406 1019.644531 1015.855469 991.195312 C 1013.664062 982.058594 1011.164062 972.972656 1007.949219 964.117188 C 1006.492188 960.3125 1004.894531 956.566406 1003.046875 952.917969 C 1002.679688 952.253906 1002.304688 951.597656 1001.917969 950.945312 C 1000.835938 952.757812 999.832031 954.613281 998.894531 956.5 C 996.707031 961.289062 994.878906 966.226562 993.214844 971.242188 C 988.558594 986.003906 985.285156 1001.238281 982.546875 1016.589844 C 976.660156 1050.582031 973.398438 1085.277344 971.316406 1120.144531 C 970.792969 1128.882812 970.363281 1137.632812 970.113281 1144.074219 C 968.386719 1188.460938 968.589844 1233.253906 970.882812 1278.261719 C 971.738281 1294.996094 972.917969 1311.769531 974.449219 1328.539062 C 977.246094 1358.21875 981.105469 1388.058594 987.625 1417.523438 C 989.90625 1427.378906 992.507812 1437.207031 995.878906 1446.796875 C 997.285156 1450.578125 998.828125 1454.308594 1000.585938 1457.949219 C 1001.066406 1458.859375 1001.566406 1459.757812 1002.082031 1460.644531 Z M 1002.082031 1460.644531 "/>
<path fill-rule="nonzero" fill="rgb(0%, 0%, 0%)" fill-opacity="1" d="M 999.882812 913.125 C 996.664062 896.707031 1003.660156 880.0625 1010.863281 865.472656 C 1020.347656 846.21875 1032.503906 828.367188 1044.902344 811.167969 C 1061.195312 788.542969 1078.808594 767.035156 1096.859375 746.128906 C 1127.035156 711.175781 1158.847656 678.09375 1191.730469 646.652344 C 1221.113281 618.582031 1251.34375 591.679688 1282.890625 566.929688 C 1297.136719 555.753906 1311.664062 545.03125 1326.613281 535.078125 C 1339.757812 526.34375 1353.296875 518.152344 1367.539062 511.628906 C 1378.675781 506.523438 1391.53125 501.761719 1403.828125 503.355469 C 1404.246094 503.410156 1404.65625 503.480469 1405.0625 503.566406 C 1411.90625 504.839844 1418.070312 508.03125 1422.402344 513.808594 C 1432.570312 527.394531 1427.378906 546.347656 1421.429688 560.636719 C 1412.980469 580.902344 1400.933594 599.578125 1388.484375 617.488281 C 1376.371094 634.910156 1363.355469 651.722656 1349.890625 668.167969 C 1311.949219 714.46875 1270.476562 758.289062 1226.5 799.746094 C 1186.667969 837.292969 1144.734375 873.835938 1098.765625 904.261719 C 1085.640625 912.941406 1071.96875 921.152344 1057.589844 927.371094 C 1051.25 930.132812 1044.785156 932.351562 1038.105469 933.800781 C 1033.882812 934.714844 1029.613281 934.96875 1025.355469 934.75 C 1018.421875 934.417969 1011.90625 931.511719 1007.132812 926.738281 C 1003.546875 923.152344 1000.945312 918.515625 999.882812 913.125 Z M 1034.34375 898.292969 C 1036.304688 897.773438 1038.246094 897.15625 1040.167969 896.488281 C 1045.558594 894.453125 1050.792969 891.972656 1055.929688 889.316406 C 1070.476562 881.589844 1084.304688 872.472656 1097.761719 862.949219 C 1134.03125 836.992188 1167.894531 807.78125 1199.578125 778.335938 C 1243.527344 737.292969 1285.128906 693.96875 1323.097656 648.078125 C 1323.464844 647.632812 1323.832031 647.1875 1324.199219 646.742188 C 1342.757812 624.125 1360.574219 600.855469 1376.03125 576.082031 C 1380.945312 568.070312 1385.601562 559.875 1389.589844 551.34375 C 1391.25 547.621094 1392.765625 543.84375 1394.042969 539.957031 C 1394.25 539.230469 1394.453125 538.5 1394.636719 537.761719 C 1392.589844 538.277344 1390.570312 538.882812 1388.574219 539.554688 C 1383.640625 541.394531 1378.855469 543.589844 1374.132812 545.960938 C 1360.402344 553.109375 1347.316406 561.5625 1334.523438 570.484375 C 1306.328125 590.355469 1279.484375 612.582031 1253.359375 635.769531 C 1246.808594 641.578125 1240.320312 647.457031 1235.585938 651.835938 C 1202.980469 682 1171.449219 713.816406 1141.246094 747.265625 C 1130.019531 759.703125 1118.992188 772.398438 1108.21875 785.339844 C 1089.203125 808.304688 1070.835938 832.132812 1054.613281 857.574219 C 1049.253906 866.160156 1044.148438 874.949219 1039.746094 884.117188 C 1038.066406 887.777344 1036.519531 891.511719 1035.1875 895.328125 C 1034.886719 896.3125 1034.605469 897.296875 1034.34375 898.292969 Z M 1034.34375 898.292969 "/>
<path fill-rule="nonzero" fill="rgb(0%, 0%, 0%)" fill-opacity="1" d="M 593.53125 500.804688 C 609.949219 497.585938 626.589844 504.582031 641.183594 511.785156 C 660.433594 521.269531 678.285156 533.425781 695.484375 545.820312 C 718.109375 562.117188 739.617188 579.730469 760.523438 597.78125 C 795.476562 627.957031 828.558594 659.769531 860.003906 692.652344 C 888.070312 722.035156 914.972656 752.265625 939.726562 783.8125 C 950.898438 798.058594 961.621094 812.585938 971.574219 827.535156 C 980.3125 840.679688 988.5 854.21875 995.023438 868.460938 C 1000.132812 879.597656 1004.890625 892.453125 1003.296875 904.75 C 1003.246094 905.167969 1003.175781 905.578125 1003.089844 905.984375 C 1001.8125 912.828125 998.625 918.992188 992.84375 923.324219 C 979.261719 933.492188 960.304688 928.300781 946.015625 922.351562 C 925.75 913.902344 907.074219 901.855469 889.164062 889.40625 C 871.742188 877.292969 854.933594 864.277344 838.488281 850.8125 C 792.1875 812.871094 748.367188 771.398438 706.910156 727.421875 C 669.363281 687.589844 632.820312 645.65625 602.394531 599.6875 C 593.710938 586.5625 585.5 572.890625 579.28125 558.511719 C 576.519531 552.171875 574.304688 545.707031 572.855469 539.027344 C 571.9375 534.804688 571.6875 530.535156 571.902344 526.277344 C 572.238281 519.34375 575.144531 512.828125 579.917969 508.054688 C 583.503906 504.46875 588.140625 501.867188 593.53125 500.804688 Z M 608.363281 535.265625 C 608.882812 537.226562 609.496094 539.167969 610.167969 541.089844 C 612.203125 546.480469 614.683594 551.714844 617.335938 556.851562 C 625.0625 571.394531 634.179688 585.226562 643.703125 598.683594 C 669.660156 634.953125 698.871094 668.816406 728.320312 700.5 C 769.363281 744.449219 812.683594 786.050781 858.574219 824.019531 C 859.019531 824.386719 859.464844 824.753906 859.910156 825.121094 C 882.53125 843.679688 905.800781 861.496094 930.574219 876.953125 C 938.585938 881.867188 946.777344 886.523438 955.3125 890.511719 C 959.03125 892.171875 962.8125 893.6875 966.699219 894.964844 C 967.425781 895.171875 968.15625 895.375 968.890625 895.558594 C 968.375 893.511719 967.773438 891.492188 967.101562 889.496094 C 965.261719 884.5625 963.0625 879.777344 960.695312 875.054688 C 953.546875 861.324219 945.089844 848.238281 936.171875 835.445312 C 916.296875 807.25 894.070312 780.40625 870.886719 754.28125 C 865.078125 747.730469 859.195312 741.242188 854.816406 736.507812 C 824.652344 703.902344 792.835938 672.371094 759.390625 642.167969 C 746.949219 630.941406 734.257812 619.914062 721.316406 609.140625 C 698.351562 590.125 674.519531 571.757812 649.078125 555.535156 C 640.496094 550.175781 631.707031 545.070312 622.539062 540.667969 C 618.875 538.988281 615.144531 537.441406 611.328125 536.109375 C 610.34375 535.808594 609.355469 535.527344 608.363281 535.265625 Z M 608.363281 535.265625 "/>
<path fill-rule="nonzero" fill="rgb(0%, 0%, 0%)" fill-opacity="1" d="M 969.195312 946.585938 C 941.625 925.472656 965.597656 890.109375 996.664062 897.183594 C 1014.191406 902.167969 1018.625 928.273438 1006.878906 940.9375 C 998.078125 949.925781 980.050781 952.792969 969.195312 946.585938 Z M 969.195312 946.585938 "/>
<path fill-rule="nonzero" fill="rgb(0%, 0%, 0%)" fill-opacity="1" d="M 1007.941406 937.019531 C 1002.363281 937.984375 996.421875 936.808594 991.6875 933.058594 C 990.820312 932.367188 990 931.613281 989.242188 930.804688 C 949.785156 929.492188 967.40625 872.355469 999.765625 875.488281 C 1022.59375 875.765625 1046.367188 903.195312 1036.5 925.523438 C 1031.332031 935.476562 1018.53125 940.683594 1007.941406 937.019531 Z M 1007.941406 937.019531 "/>
<path fill-rule="nonzero" fill="rgb(0%, 0%, 0%)" fill-opacity="1" d="M 987.574219 974.445312 C 982.214844 971.558594 978.003906 967.445312 974.941406 962.621094 C 964.25 957.351562 956.167969 947.554688 953.519531 935.980469 C 949.027344 931.355469 947.492188 924.867188 947.15625 918.609375 C 947.335938 902.222656 960.640625 884.886719 977.871094 884.875 C 996.8125 865.664062 1038.585938 873.152344 1046.15625 900.261719 C 1063.835938 935.617188 1029.882812 994.503906 987.574219 974.445312 Z M 987.574219 974.445312 "/>
<path fill-rule="nonzero" fill="rgb(0%, 0%, 0%)" fill-opacity="1" d="M 980.605469 1014.464844 C 924.242188 1002.511719 900.402344 928.601562 927.890625 881.242188 C 956.863281 828.394531 1040.742188 825.90625 1070.738281 878.972656 C 1123.753906 946.890625 1063.832031 1036.289062 980.605469 1014.464844 Z M 980.605469 1014.464844 "/>
</svg>
