<?xml version="1.0" encoding="UTF-8"?>
<!-- Created by grConvert v0.1-0 -->
<svg xmlns="http://www.w3.org/2000/svg" xmlns:xlink="http://www.w3.org/1999/xlink" width="2000" height="2000" viewBox="0 0 2000 2000">
<path fill-rule="nonzero" fill="rgb(0%, 0%, 0%)" fill-opacity="1" d="M 925.839844 1496.074219 C 913.734375 1487.9375 907.785156 1473.363281 903.230469 1459.929688 C 897.210938 1442.210938 893.699219 1423.710938 890.738281 1405.464844 C 886.832031 1381.46875 884.433594 1357.351562 882.671875 1333.332031 C 879.726562 1293.175781 878.945312 1253.167969 879.832031 1213.507812 C 880.640625 1178.089844 882.691406 1142.867188 886.882812 1108.15625 C 888.777344 1092.484375 891.125 1076.917969 894.203125 1061.5625 C 896.921875 1048.074219 900.21875 1034.675781 904.980469 1021.875 C 908.695312 1011.859375 913.6875 1001 922.25 994.398438 C 922.539062 994.175781 922.835938 993.964844 923.140625 993.769531 C 928.144531 990.335938 933.910156 988.503906 940.148438 989.394531 C 954.789062 991.5 963.277344 1006.386719 968.417969 1018.867188 C 975.703125 1036.566406 979.789062 1055.511719 983.15625 1074.226562 C 986.429688 1092.433594 988.769531 1110.824219 990.605469 1129.265625 C 995.761719 1181.203125 997.207031 1233.789062 995.65625 1286.457031 C 994.246094 1334.167969 990.921875 1382.546875 981.339844 1429.648438 C 978.597656 1443.09375 975.234375 1456.582031 970.203125 1469.28125 C 967.996094 1474.890625 965.375 1480.246094 962.152344 1485.257812 C 960.113281 1488.425781 957.636719 1491.210938 954.878906 1493.703125 C 950.394531 1497.773438 944.589844 1500 938.703125 1500 C 934.28125 1500 929.820312 1498.746094 925.839844 1496.074219 Z M 937.941406 1465.683594 C 938.832031 1464.15625 939.648438 1462.582031 940.421875 1460.980469 C 942.488281 1456.402344 944.1875 1451.648438 945.71875 1446.84375 C 949.921875 1433.113281 952.824219 1418.96875 955.25 1404.796875 C 961.609375 1366.433594 964.476562 1327.546875 965.855469 1289.855469 C 967.648438 1237.457031 966.585938 1185.101562 961.703125 1133.398438 C 961.65625 1132.898438 961.609375 1132.394531 961.558594 1131.894531 C 959.054688 1106.507812 955.691406 1081.179688 949.949219 1056.375 C 948.039062 1048.40625 945.859375 1040.484375 943.054688 1032.765625 C 941.789062 1029.445312 940.390625 1026.179688 938.78125 1023 C 938.464844 1022.421875 938.136719 1021.847656 937.796875 1021.28125 C 936.851562 1022.859375 935.980469 1024.476562 935.160156 1026.121094 C 933.253906 1030.296875 931.660156 1034.601562 930.207031 1038.976562 C 926.152344 1051.847656 923.296875 1065.128906 920.90625 1078.515625 C 915.777344 1108.152344 912.929688 1138.402344 911.117188 1168.804688 C 910.660156 1176.421875 910.285156 1184.050781 910.066406 1189.667969 C 908.5625 1228.367188 908.738281 1267.421875 910.738281 1306.664062 C 911.484375 1321.257812 912.511719 1335.882812 913.847656 1350.5 C 916.285156 1376.382812 919.652344 1402.398438 925.335938 1428.085938 C 927.324219 1436.683594 929.59375 1445.25 932.535156 1453.613281 C 933.757812 1456.90625 935.105469 1460.164062 936.636719 1463.335938 C 937.054688 1464.128906 937.488281 1464.914062 937.941406 1465.683594 Z M 937.941406 1465.683594 "/>
<path fill-rule="nonzero" fill="rgb(0%, 0%, 0%)" fill-opacity="1" d="M 927.246094 1006.90625 C 915.140625 998.769531 909.191406 984.195312 904.636719 970.757812 C 898.617188 953.039062 895.105469 934.539062 892.144531 916.292969 C 888.238281 892.296875 885.839844 868.179688 884.078125 844.160156 C 881.132812 804.007812 880.351562 764 881.238281 724.339844 C 882.046875 688.917969 884.097656 653.695312 888.289062 618.984375 C 890.183594 603.316406 892.53125 587.746094 895.609375 572.394531 C 898.328125 558.902344 901.625 545.507812 906.386719 532.707031 C 910.101562 522.691406 915.09375 511.828125 923.65625 505.230469 C 923.945312 505.007812 924.242188 504.796875 924.546875 504.597656 C 929.550781 501.167969 935.316406 499.332031 941.554688 500.226562 C 956.195312 502.332031 964.683594 517.214844 969.824219 529.695312 C 977.109375 547.398438 981.195312 566.339844 984.5625 585.054688 C 987.835938 603.265625 990.175781 621.65625 992.011719 640.09375 C 997.167969 692.03125 998.613281 744.617188 997.0625 797.289062 C 995.652344 844.996094 992.328125 893.378906 982.746094 940.476562 C 980.003906 953.921875 976.640625 967.414062 971.609375 980.113281 C 969.402344 985.722656 966.78125 991.078125 963.558594 996.085938 C 961.519531 999.257812 959.042969 1002.042969 956.285156 1004.535156 C 951.800781 1008.605469 945.996094 1010.828125 940.109375 1010.828125 C 935.6875 1010.828125 931.226562 1009.574219 927.246094 1006.90625 Z M 939.347656 976.515625 C 940.238281 974.984375 941.054688 973.410156 941.828125 971.8125 C 943.894531 967.234375 945.59375 962.476562 947.125 957.671875 C 951.328125 943.941406 954.230469 929.796875 956.65625 915.628906 C 963.015625 877.261719 965.882812 838.378906 967.261719 800.6875 C 969.054688 748.289062 967.992188 695.929688 963.109375 644.230469 C 963.0625 643.726562 963.015625 643.226562 962.964844 642.726562 C 960.460938 617.335938 957.097656 592.007812 951.355469 567.203125 C 949.445312 559.234375 947.265625 551.316406 944.460938 543.59375 C 943.195312 540.277344 941.796875 537.011719 940.1875 533.828125 C 939.871094 533.253906 939.542969 532.679688 939.203125 532.109375 C 938.257812 533.6875 937.386719 535.304688 936.566406 536.953125 C 934.660156 541.128906 933.066406 545.433594 931.613281 549.804688 C 927.558594 562.679688 924.703125 575.960938 922.3125 589.34375 C 917.183594 618.980469 914.335938 649.234375 912.523438 679.632812 C 912.066406 687.253906 911.691406 694.882812 911.472656 700.5 C 909.96875 739.199219 910.144531 778.253906 912.144531 817.496094 C 912.890625 832.085938 913.917969 846.710938 915.253906 861.332031 C 917.691406 887.210938 921.058594 913.230469 926.742188 938.917969 C 928.730469 947.511719 931 956.078125 933.941406 964.445312 C 935.164062 967.738281 936.511719 970.992188 938.042969 974.167969 C 938.460938 974.960938 938.894531 975.742188 939.347656 976.515625 Z M 939.347656 976.515625 "/>
<path fill-rule="nonzero" fill="rgb(0%, 0%, 0%)" fill-opacity="1" d="M 930.292969 990.199219 C 938.425781 978.09375 953.003906 972.144531 966.4375 967.589844 C 984.15625 961.566406 1002.65625 958.054688 1020.902344 955.09375 C 1044.898438 951.191406 1069.015625 948.789062 1093.035156 947.03125 C 1133.191406 944.085938 1173.199219 943.304688 1212.859375 944.191406 C 1248.277344 945 1283.5 947.050781 1318.210938 951.242188 C 1333.882812 953.136719 1349.449219 955.480469 1364.804688 958.5625 C 1378.292969 961.28125 1391.6875 964.578125 1404.492188 969.335938 C 1414.507812 973.054688 1425.367188 978.046875 1431.964844 986.609375 C 1432.191406 986.898438 1432.398438 987.195312 1432.597656 987.5 C 1436.03125 992.503906 1437.863281 998.269531 1436.972656 1004.503906 C 1434.867188 1019.148438 1419.980469 1027.636719 1407.5 1032.777344 C 1389.796875 1040.0625 1370.855469 1044.148438 1352.140625 1047.515625 C 1333.929688 1050.789062 1315.539062 1053.125 1297.101562 1054.964844 C 1245.164062 1060.121094 1192.578125 1061.566406 1139.90625 1060.015625 C 1092.199219 1058.601562 1043.816406 1055.28125 996.71875 1045.699219 C 983.273438 1042.957031 969.785156 1039.59375 957.085938 1034.5625 C 951.472656 1032.355469 946.117188 1029.734375 941.109375 1026.511719 C 937.941406 1024.472656 935.152344 1021.996094 932.664062 1019.238281 C 928.589844 1014.753906 926.367188 1008.945312 926.367188 1003.0625 C 926.367188 998.640625 927.621094 994.175781 930.292969 990.199219 Z M 960.679688 1002.300781 C 962.210938 1003.191406 963.785156 1004.007812 965.382812 1004.78125 C 969.960938 1006.847656 974.71875 1008.546875 979.523438 1010.078125 C 993.253906 1014.277344 1007.398438 1017.183594 1021.570312 1019.609375 C 1059.933594 1025.964844 1098.820312 1028.835938 1136.507812 1030.214844 C 1188.90625 1032.007812 1241.265625 1030.945312 1292.96875 1026.058594 C 1293.46875 1026.011719 1293.96875 1025.964844 1294.472656 1025.917969 C 1319.859375 1023.414062 1345.1875 1020.050781 1369.992188 1014.308594 C 1377.960938 1012.398438 1385.882812 1010.21875 1393.601562 1007.414062 C 1396.917969 1006.144531 1400.183594 1004.75 1403.367188 1003.140625 C 1403.945312 1002.820312 1404.519531 1002.496094 1405.085938 1002.15625 C 1403.507812 1001.210938 1401.890625 1000.339844 1400.242188 999.519531 C 1396.066406 997.613281 1391.761719 996.015625 1387.390625 994.566406 C 1374.519531 990.507812 1361.238281 987.652344 1347.851562 985.265625 C 1318.214844 980.136719 1287.960938 977.289062 1257.5625 975.476562 C 1249.941406 975.019531 1242.316406 974.644531 1236.695312 974.425781 C 1197.996094 972.917969 1158.945312 973.097656 1119.699219 975.09375 C 1105.109375 975.84375 1090.484375 976.871094 1075.863281 978.207031 C 1049.984375 980.644531 1023.96875 984.007812 998.277344 989.695312 C 989.683594 991.679688 981.117188 993.953125 972.753906 996.890625 C 969.457031 998.113281 966.203125 999.460938 963.03125 1000.992188 C 962.234375 1001.414062 961.453125 1001.847656 960.679688 1002.300781 Z M 960.679688 1002.300781 "/>
<path fill-rule="nonzero" fill="rgb(0%, 0%, 0%)" fill-opacity="1" d="M 936.023438 988.300781 C 933.214844 973.988281 939.316406 959.476562 945.597656 946.753906 C 953.867188 929.96875 964.464844 914.40625 975.273438 899.410156 C 989.480469 879.679688 1004.835938 860.929688 1020.574219 842.699219 C 1046.886719 812.226562 1074.625 783.382812 1103.296875 755.964844 C 1128.914062 731.492188 1155.269531 708.035156 1182.777344 686.457031 C 1195.195312 676.714844 1207.867188 667.363281 1220.898438 658.6875 C 1232.359375 651.070312 1244.164062 643.929688 1256.582031 638.242188 C 1266.292969 633.789062 1277.5 629.636719 1288.222656 631.027344 C 1288.585938 631.074219 1288.945312 631.136719 1289.296875 631.210938 C 1295.265625 632.320312 1300.640625 635.101562 1304.417969 640.140625 C 1313.28125 651.984375 1308.757812 668.511719 1303.566406 680.972656 C 1296.203125 698.640625 1285.699219 714.925781 1274.84375 730.539062 C 1264.28125 745.730469 1252.933594 760.386719 1241.195312 774.726562 C 1208.113281 815.09375 1171.953125 853.300781 1133.613281 889.449219 C 1098.878906 922.183594 1062.320312 954.046875 1022.238281 980.574219 C 1010.792969 988.144531 998.875 995.304688 986.339844 1000.726562 C 980.8125 1003.132812 975.171875 1005.066406 969.347656 1006.332031 C 965.667969 1007.128906 961.945312 1007.347656 958.234375 1007.160156 C 952.1875 1006.867188 946.503906 1004.335938 942.34375 1000.171875 C 939.21875 997.046875 936.949219 993.003906 936.023438 988.300781 Z M 966.070312 975.371094 C 967.78125 974.917969 969.472656 974.382812 971.148438 973.796875 C 975.847656 972.023438 980.410156 969.859375 984.890625 967.546875 C 997.570312 960.808594 1009.628906 952.859375 1021.363281 944.558594 C 1052.984375 921.925781 1082.511719 896.457031 1110.136719 870.78125 C 1148.457031 834.996094 1184.726562 797.222656 1217.832031 757.210938 C 1218.152344 756.820312 1218.476562 756.433594 1218.796875 756.046875 C 1234.976562 736.324219 1250.507812 716.035156 1263.988281 694.433594 C 1268.269531 687.449219 1272.332031 680.308594 1275.808594 672.867188 C 1277.257812 669.621094 1278.578125 666.328125 1279.6875 662.9375 C 1279.871094 662.304688 1280.046875 661.667969 1280.210938 661.027344 C 1278.425781 661.476562 1276.664062 662 1274.921875 662.585938 C 1270.621094 664.191406 1266.449219 666.105469 1262.332031 668.171875 C 1250.359375 674.40625 1238.949219 681.777344 1227.792969 689.554688 C 1203.210938 706.882812 1179.808594 726.261719 1157.027344 746.476562 C 1151.316406 751.542969 1145.660156 756.667969 1141.53125 760.488281 C 1113.101562 786.789062 1085.613281 814.527344 1059.277344 843.691406 C 1049.488281 854.539062 1039.875 865.605469 1030.480469 876.886719 C 1013.902344 896.910156 997.886719 917.6875 983.742188 939.871094 C 979.070312 947.355469 974.617188 955.015625 970.78125 963.011719 C 969.316406 966.203125 967.96875 969.460938 966.808594 972.785156 C 966.542969 973.644531 966.296875 974.503906 966.070312 975.371094 Z M 966.070312 975.371094 "/>
<path fill-rule="nonzero" fill="rgb(0%, 0%, 0%)" fill-opacity="1" d="M 565.851562 1359.773438 C 563.042969 1345.460938 569.144531 1330.949219 575.421875 1318.226562 C 583.695312 1301.441406 594.292969 1285.875 605.101562 1270.878906 C 619.308594 1251.152344 634.664062 1232.398438 650.402344 1214.171875 C 676.714844 1183.695312 704.453125 1154.851562 733.125 1127.4375 C 758.742188 1102.964844 785.097656 1079.507812 812.605469 1057.925781 C 825.023438 1048.183594 837.691406 1038.835938 850.726562 1030.15625 C 862.1875 1022.539062 873.992188 1015.398438 886.410156 1009.710938 C 896.121094 1005.257812 907.328125 1001.109375 918.050781 1002.496094 C 918.414062 1002.542969 918.773438 1002.605469 919.125 1002.679688 C 925.09375 1003.792969 930.464844 1006.574219 934.246094 1011.613281 C 943.109375 1023.457031 938.585938 1039.984375 933.394531 1052.441406 C 926.03125 1070.113281 915.523438 1086.394531 904.671875 1102.011719 C 894.109375 1117.199219 882.761719 1131.859375 871.019531 1146.195312 C 837.941406 1186.566406 801.78125 1224.773438 763.4375 1260.917969 C 728.707031 1293.65625 692.148438 1325.519531 652.066406 1352.046875 C 640.621094 1359.617188 628.703125 1366.773438 616.164062 1372.195312 C 610.636719 1374.605469 605 1376.539062 599.175781 1377.800781 C 595.492188 1378.597656 591.773438 1378.820312 588.0625 1378.628906 C 582.011719 1378.339844 576.332031 1375.804688 572.171875 1371.644531 C 569.042969 1368.515625 566.777344 1364.472656 565.851562 1359.773438 Z M 595.894531 1346.839844 C 597.609375 1346.390625 599.296875 1345.851562 600.976562 1345.269531 C 605.675781 1343.496094 610.238281 1341.332031 614.71875 1339.015625 C 627.398438 1332.28125 639.457031 1324.332031 651.191406 1316.027344 C 682.8125 1293.394531 712.339844 1267.925781 739.964844 1242.25 C 778.285156 1206.464844 814.554688 1168.691406 847.660156 1128.679688 C 847.980469 1128.292969 848.300781 1127.90625 848.621094 1127.515625 C 864.804688 1107.792969 880.335938 1087.507812 893.816406 1065.90625 C 898.097656 1058.921875 902.15625 1051.777344 905.636719 1044.335938 C 907.082031 1041.09375 908.40625 1037.796875 909.515625 1034.410156 C 909.699219 1033.777344 909.875 1033.140625 910.035156 1032.496094 C 908.253906 1032.945312 906.492188 1033.472656 904.75 1034.058594 C 900.449219 1035.664062 896.273438 1037.578125 892.15625 1039.644531 C 880.1875 1045.875 868.777344 1053.25 857.621094 1061.027344 C 833.039062 1078.355469 809.632812 1097.734375 786.855469 1117.949219 C 781.144531 1123.011719 775.488281 1128.140625 771.359375 1131.957031 C 742.929688 1158.257812 715.4375 1186 689.105469 1215.160156 C 679.316406 1226.007812 669.699219 1237.074219 660.308594 1248.359375 C 643.730469 1268.378906 627.714844 1289.160156 613.570312 1311.34375 C 608.894531 1318.824219 604.445312 1326.488281 600.609375 1334.480469 C 599.144531 1337.675781 597.796875 1340.929688 596.632812 1344.257812 C 596.371094 1345.113281 596.125 1345.976562 595.894531 1346.839844 Z M 595.894531 1346.839844 "/>
<path fill-rule="nonzero" fill="rgb(0%, 0%, 0%)" fill-opacity="1" d="M 581.726562 628.804688 C 596.039062 625.996094 610.550781 632.097656 623.273438 638.375 C 640.058594 646.644531 655.625 657.246094 670.617188 668.054688 C 690.347656 682.261719 709.097656 697.617188 727.328125 713.355469 C 757.804688 739.667969 786.644531 767.402344 814.0625 796.074219 C 838.535156 821.695312 861.992188 848.050781 883.570312 875.558594 C 893.3125 887.976562 902.664062 900.644531 911.339844 913.679688 C 918.957031 925.140625 926.097656 936.945312 931.785156 949.363281 C 936.238281 959.070312 940.390625 970.28125 939 981.003906 C 938.953125 981.367188 938.894531 981.726562 938.820312 982.078125 C 937.707031 988.046875 934.925781 993.417969 929.886719 997.195312 C 918.042969 1006.0625 901.515625 1001.535156 889.054688 996.347656 C 871.386719 988.984375 855.101562 978.476562 839.488281 967.625 C 824.296875 957.0625 809.640625 945.710938 795.300781 933.972656 C 754.933594 900.894531 716.726562 864.730469 680.578125 826.390625 C 647.84375 791.660156 615.980469 755.097656 589.453125 715.019531 C 581.882812 703.574219 574.722656 691.65625 569.300781 679.117188 C 566.894531 673.589844 564.960938 667.953125 563.695312 662.128906 C 562.898438 658.445312 562.679688 654.726562 562.867188 651.011719 C 563.160156 644.964844 565.695312 639.285156 569.855469 635.125 C 572.980469 631.996094 577.023438 629.730469 581.726562 628.804688 Z M 594.65625 658.847656 C 595.109375 660.558594 595.644531 662.25 596.230469 663.929688 C 598.003906 668.628906 600.167969 673.191406 602.480469 677.671875 C 609.21875 690.351562 617.167969 702.410156 625.472656 714.144531 C 648.101562 745.765625 673.570312 775.289062 699.246094 802.917969 C 735.03125 841.234375 772.804688 877.507812 812.816406 910.613281 C 813.207031 910.933594 813.59375 911.253906 813.980469 911.574219 C 833.703125 927.757812 853.992188 943.289062 875.59375 956.765625 C 882.578125 961.050781 889.71875 965.109375 897.160156 968.585938 C 900.40625 970.035156 903.699219 971.359375 907.089844 972.46875 C 907.722656 972.652344 908.359375 972.828125 909 972.988281 C 908.554688 971.203125 908.027344 969.445312 907.441406 967.703125 C 905.835938 963.398438 903.921875 959.226562 901.855469 955.109375 C 895.621094 943.140625 888.25 931.730469 880.472656 920.574219 C 863.144531 895.992188 843.765625 872.585938 823.550781 849.808594 C 818.484375 844.097656 813.359375 838.4375 809.539062 834.3125 C 783.242188 805.882812 755.5 778.390625 726.335938 752.054688 C 715.492188 742.265625 704.421875 732.652344 693.140625 723.257812 C 673.117188 706.683594 652.339844 690.664062 630.15625 676.519531 C 622.671875 671.847656 615.011719 667.394531 607.015625 663.558594 C 603.824219 662.097656 600.570312 660.746094 597.242188 659.585938 C 596.382812 659.320312 595.523438 659.074219 594.65625 658.847656 Z M 594.65625 658.847656 "/>
<path fill-rule="nonzero" fill="rgb(0%, 0%, 0%)" fill-opacity="1" d="M 958.195312 1002.929688 C 972.507812 1000.121094 987.019531 1006.21875 999.742188 1012.5 C 1016.527344 1020.769531 1032.09375 1031.371094 1047.085938 1042.175781 C 1066.816406 1056.382812 1085.566406 1071.742188 1103.796875 1087.480469 C 1134.269531 1113.792969 1163.113281 1141.527344 1190.53125 1170.199219 C 1215.003906 1195.816406 1238.460938 1222.171875 1260.039062 1249.683594 C 1269.78125 1262.101562 1279.132812 1274.769531 1287.808594 1287.804688 C 1295.425781 1299.261719 1302.566406 1311.070312 1308.253906 1323.484375 C 1312.707031 1333.195312 1316.859375 1344.40625 1315.46875 1355.125 C 1315.421875 1355.488281 1315.363281 1355.847656 1315.285156 1356.203125 C 1314.175781 1362.167969 1311.394531 1367.542969 1306.355469 1371.320312 C 1294.511719 1380.1875 1277.984375 1375.660156 1265.523438 1370.472656 C 1247.855469 1363.105469 1231.570312 1352.601562 1215.957031 1341.75 C 1200.765625 1331.1875 1186.109375 1319.835938 1171.769531 1308.097656 C 1131.402344 1275.015625 1093.195312 1238.855469 1057.046875 1200.515625 C 1024.3125 1165.785156 992.449219 1129.222656 965.921875 1089.144531 C 958.351562 1077.699219 951.191406 1065.777344 945.769531 1053.242188 C 943.363281 1047.714844 941.429688 1042.074219 940.164062 1036.253906 C 939.367188 1032.570312 939.148438 1028.847656 939.335938 1025.136719 C 939.628906 1019.089844 942.160156 1013.410156 946.324219 1009.246094 C 949.449219 1006.121094 953.492188 1003.851562 958.195312 1002.929688 Z M 971.125 1032.972656 C 971.578125 1034.683594 972.113281 1036.375 972.699219 1038.050781 C 974.472656 1042.753906 976.636719 1047.3125 978.949219 1051.796875 C 985.6875 1064.476562 993.636719 1076.53125 1001.941406 1088.265625 C 1024.570312 1119.890625 1050.039062 1149.414062 1075.714844 1177.039062 C 1111.5 1215.359375 1149.273438 1251.632812 1189.285156 1284.734375 C 1189.675781 1285.058594 1190.0625 1285.378906 1190.449219 1285.699219 C 1210.171875 1301.878906 1230.460938 1317.410156 1252.0625 1330.890625 C 1259.046875 1335.175781 1266.1875 1339.234375 1273.628906 1342.710938 C 1276.875 1344.160156 1280.167969 1345.480469 1283.558594 1346.59375 C 1284.191406 1346.777344 1284.828125 1346.949219 1285.46875 1347.113281 C 1285.019531 1345.328125 1284.496094 1343.566406 1283.910156 1341.824219 C 1282.304688 1337.523438 1280.390625 1333.351562 1278.324219 1329.234375 C 1272.089844 1317.261719 1264.71875 1305.851562 1256.941406 1294.699219 C 1239.613281 1270.113281 1220.234375 1246.710938 1200.019531 1223.933594 C 1194.953125 1218.222656 1189.828125 1212.5625 1186.007812 1208.433594 C 1159.707031 1180.003906 1131.96875 1152.515625 1102.804688 1126.179688 C 1091.960938 1116.390625 1080.890625 1106.777344 1069.609375 1097.382812 C 1049.585938 1080.804688 1028.808594 1064.789062 1006.625 1050.644531 C 999.140625 1045.972656 991.480469 1041.519531 983.484375 1037.683594 C 980.292969 1036.21875 977.035156 1034.871094 973.710938 1033.710938 C 972.851562 1033.445312 971.992188 1033.199219 971.125 1032.972656 Z M 971.125 1032.972656 "/>
<path fill-rule="nonzero" fill="rgb(0%, 0%, 0%)" fill-opacity="1" d="M 909.265625 1017.476562 C 885.226562 999.070312 906.132812 968.234375 933.214844 974.40625 C 948.496094 978.75 952.363281 1001.511719 942.121094 1012.554688 C 934.449219 1020.390625 918.730469 1022.890625 909.265625 1017.476562 Z M 909.265625 1017.476562 "/>
<path fill-rule="nonzero" fill="rgb(0%, 0%, 0%)" fill-opacity="1" d="M 943.050781 1009.136719 C 938.1875 1009.976562 933.007812 1008.953125 928.878906 1005.6875 C 928.121094 1005.082031 927.40625 1004.425781 926.746094 1003.71875 C 892.34375 1002.574219 907.707031 952.757812 935.917969 955.488281 C 955.824219 955.730469 976.550781 979.648438 967.949219 999.113281 C 963.441406 1007.792969 952.28125 1012.332031 943.050781 1009.136719 Z M 943.050781 1009.136719 "/>
<path fill-rule="nonzero" fill="rgb(0%, 0%, 0%)" fill-opacity="1" d="M 925.292969 1041.769531 C 920.621094 1039.25 916.945312 1035.667969 914.277344 1031.460938 C 904.953125 1026.863281 897.910156 1018.324219 895.597656 1008.234375 C 891.683594 1004.199219 890.34375 998.542969 890.050781 993.085938 C 890.207031 978.800781 901.808594 963.683594 916.832031 963.671875 C 933.347656 946.925781 969.765625 953.453125 976.371094 977.085938 C 991.78125 1007.914062 962.179688 1059.257812 925.292969 1041.769531 Z M 925.292969 1041.769531 "/>
<path fill-rule="nonzero" fill="rgb(0%, 0%, 0%)" fill-opacity="1" d="M 919.214844 1076.660156 C 870.074219 1066.242188 849.285156 1001.796875 873.25 960.507812 C 898.511719 914.429688 971.648438 912.257812 997.800781 958.527344 C 1044.027344 1017.746094 991.78125 1095.691406 919.214844 1076.660156 Z M 919.214844 1076.660156 "/>
</svg>
