<?xml version="1.0" encoding="UTF-8"?>
<!-- Created by grConvert v0.1-0 -->
<svg xmlns="http://www.w3.org/2000/svg" xmlns:xlink="http://www.w3.org/1999/xlink" width="2000" height="2000" viewBox="0 0 2000 2000">
<path fill-rule="nonzero" fill="rgb(0%, 79.215688%, 93.725491%)" fill-opacity="1" d="M 671.71875 1402.773438 C 671.71875 1402.773438 670.816406 1401.539062 670.816406 1401.539062 C 670.816406 1401.539062 669.9375 1400.324219 669.9375 1400.324219 C 669.9375 1400.324219 669.054688 1399.125 669.054688 1399.125 C 669.054688 1399.125 668.191406 1397.960938 668.191406 1397.960938 C 668.191406 1397.960938 667.34375 1396.851562 667.34375 1396.851562 C 667.34375 1396.851562 666.550781 1395.808594 666.550781 1395.808594 C 666.550781 1395.808594 665.792969 1394.839844 665.792969 1394.839844 C 665.792969 1394.839844 665.070312 1393.921875 665.070312 1393.921875 C 665.070312 1393.921875 664.328125 1393.023438 664.328125 1393.023438 C 664.328125 1393.023438 663.640625 1392.195312 663.640625 1392.195312 C 663.640625 1392.195312 662.96875 1391.417969 662.96875 1391.417969 C 662.96875 1391.417969 662.335938 1390.695312 662.335938 1390.695312 C 662.335938 1390.695312 661.734375 1390.058594 661.734375 1390.058594 C 661.734375 1390.058594 661.152344 1389.476562 661.152344 1389.476562 C 661.152344 1389.476562 660.605469 1388.933594 660.605469 1388.933594 C 660.605469 1388.933594 660.078125 1388.4375 660.078125 1388.4375 C 660.078125 1388.4375 659.585938 1387.996094 659.585938 1387.996094 C 659.585938 1387.996094 659.089844 1387.574219 659.089844 1387.574219 C 659.089844 1387.574219 658.632812 1387.203125 658.632812 1387.203125 C 658.632812 1387.203125 658.191406 1386.832031 658.191406 1386.832031 C 658.191406 1386.832031 657.734375 1386.480469 657.734375 1386.480469 C 657.734375 1386.480469 657.273438 1386.128906 657.273438 1386.128906 C 657.273438 1386.128906 656.832031 1385.757812 656.832031 1385.757812 C 656.832031 1385.757812 656.355469 1385.40625 656.355469 1385.40625 C 656.355469 1385.40625 655.898438 1385.035156 655.898438 1385.035156 C 655.898438 1385.035156 655.40625 1384.664062 655.40625 1384.664062 C 655.40625 1384.664062 654.910156 1384.277344 654.910156 1384.277344 C 654.910156 1384.277344 654.398438 1383.871094 654.398438 1383.871094 C 654.398438 1383.871094 653.871094 1383.449219 653.871094 1383.449219 C 653.871094 1383.449219 653.339844 1383.007812 653.339844 1383.007812 C 653.339844 1383.007812 652.8125 1382.582031 652.8125 1382.582031 C 652.8125 1382.582031 652.265625 1382.125 652.265625 1382.125 C 652.265625 1382.125 651.71875 1381.648438 651.71875 1381.648438 C 651.71875 1381.648438 651.15625 1381.171875 651.15625 1381.171875 C 651.15625 1381.171875 650.609375 1380.695312 650.609375 1380.695312 C 650.609375 1380.695312 650.042969 1380.203125 650.042969 1380.203125 C 650.042969 1380.203125 649.496094 1379.691406 649.496094 1379.691406 C 649.496094 1379.691406 648.933594 1379.179688 648.933594 1379.179688 C 648.933594 1379.179688 648.351562 1378.652344 648.351562 1378.652344 C 648.351562 1378.652344 647.785156 1378.121094 647.785156 1378.121094 C 647.785156 1378.121094 647.203125 1377.574219 647.203125 1377.574219 C 647.203125 1377.574219 646.640625 1377.011719 646.640625 1377.011719 C 646.640625 1377.011719 646.074219 1376.480469 646.074219 1376.480469 C 646.074219 1376.480469 645.511719 1375.933594 645.511719 1375.933594 C 645.511719 1375.933594 644.945312 1375.386719 644.945312 1375.386719 C 644.945312 1375.386719 644.402344 1374.859375 644.402344 1374.859375 C 644.402344 1374.859375 643.835938 1374.3125 643.835938 1374.3125 C 643.835938 1374.3125 643.273438 1373.785156 643.273438 1373.785156 C 643.273438 1373.785156 642.707031 1373.273438 642.707031 1373.273438 C 642.707031 1373.273438 642.144531 1372.742188 642.144531 1372.742188 C 642.144531 1372.742188 641.5625 1372.214844 641.5625 1372.214844 C 641.5625 1372.214844 640.980469 1371.703125 640.980469 1371.703125 C 640.980469 1371.703125 640.378906 1371.171875 640.378906 1371.171875 C 640.378906 1371.171875 639.796875 1370.660156 639.796875 1370.660156 C 639.796875 1370.660156 639.199219 1370.132812 639.199219 1370.132812 C 639.199219 1370.132812 638.5625 1369.605469 638.5625 1369.605469 C 638.5625 1369.605469 637.945312 1369.058594 637.945312 1369.058594 C 637.945312 1369.058594 637.292969 1368.527344 637.292969 1368.527344 C 637.292969 1368.527344 637.097656 1368.351562 637.097656 1368.351562 C 661.367188 1356.535156 684.695312 1342.9375 707.816406 1329.078125 C 720.917969 1319.273438 740.351562 1315.621094 748.414062 1300.472656 C 753.261719 1280.210938 754.585938 1259.507812 761.726562 1239.652344 C 771.144531 1204.980469 776.734375 1169.390625 786.398438 1134.808594 C 839.515625 1102.785156 903 1093.824219 958.957031 1067.957031 C 997.3125 1056.527344 999.429688 1013.496094 1000.417969 979.746094 C 1005.691406 945.390625 1013.273438 917.878906 1024.347656 883.738281 C 1032.144531 870.070312 1051.984375 866.914062 1065.6875 860.582031 C 1110.320312 846.476562 1155.605469 834.132812 1199.273438 817.078125 C 1205.585938 814.433594 1214.03125 810.675781 1216.414062 803.710938 C 1220.664062 787.097656 1223.113281 770.257812 1228.773438 753.925781 C 1239.410156 722.007812 1236.199219 686.050781 1251.824219 655.859375 C 1281.472656 619.519531 1329.96875 614.6875 1370.859375 597.335938 C 1370.859375 597.335938 1371.441406 598.242188 1371.441406 598.242188 C 1371.441406 598.242188 1372.132812 599.320312 1372.132812 599.320312 C 1372.132812 599.320312 1372.855469 600.414062 1372.855469 600.414062 C 1372.855469 600.414062 1373.578125 601.507812 1373.578125 601.507812 C 1373.578125 601.507812 1374.300781 602.601562 1374.300781 602.601562 C 1374.300781 602.601562 1375.003906 603.65625 1375.003906 603.65625 C 1375.003906 603.65625 1375.730469 604.699219 1375.730469 604.699219 C 1375.730469 604.699219 1376.453125 605.703125 1376.453125 605.703125 C 1376.453125 605.703125 1377.175781 606.691406 1377.175781 606.691406 C 1377.175781 606.691406 1377.878906 607.609375 1377.878906 607.609375 C 1377.878906 607.609375 1378.550781 608.472656 1378.550781 608.472656 C 1378.550781 608.472656 1379.238281 609.320312 1379.238281 609.320312 C 1379.238281 609.320312 1379.890625 610.113281 1379.890625 610.113281 C 1379.890625 610.113281 1380.542969 610.851562 1380.542969 610.851562 C 1380.542969 610.851562 1381.140625 611.558594 1381.140625 611.558594 C 1381.140625 611.558594 1381.742188 612.230469 1381.742188 612.230469 C 1381.742188 612.230469 1382.324219 612.863281 1382.324219 612.863281 C 1382.324219 612.863281 1382.886719 613.5 1382.886719 613.5 C 1382.886719 613.5 1383.46875 614.152344 1383.46875 614.152344 C 1383.46875 614.152344 1384.035156 614.820312 1384.035156 614.820312 C 1384.035156 614.820312 1384.617188 615.472656 1384.617188 615.472656 C 1384.617188 615.472656 1385.199219 616.160156 1385.199219 616.160156 C 1385.199219 616.160156 1385.78125 616.867188 1385.78125 616.867188 C 1385.78125 616.867188 1386.378906 617.605469 1386.378906 617.605469 C 1386.378906 617.605469 1386.996094 618.402344 1386.996094 618.402344 C 1386.996094 618.402344 1387.632812 619.210938 1387.632812 619.210938 C 1387.632812 619.210938 1388.285156 620.078125 1388.285156 620.078125 C 1388.285156 620.078125 1388.953125 620.976562 1388.953125 620.976562 C 1388.953125 620.976562 1389.625 621.910156 1389.625 621.910156 C 1389.625 621.910156 1390.296875 622.878906 1390.296875 622.878906 C 1390.296875 622.878906 1390.984375 623.902344 1390.984375 623.902344 C 1390.984375 623.902344 1391.671875 624.960938 1391.671875 624.960938 C 1391.671875 624.960938 1392.339844 626.054688 1392.339844 626.054688 C 1392.339844 626.054688 1393.027344 627.164062 1393.027344 627.164062 C 1393.027344 627.164062 1393.664062 628.292969 1393.664062 628.292969 C 1393.664062 628.292969 1394.296875 629.441406 1394.296875 629.441406 C 1394.296875 629.441406 1394.933594 630.621094 1394.933594 630.621094 C 1394.933594 630.621094 1395.515625 631.785156 1395.515625 631.785156 C 1395.515625 631.785156 1396.097656 632.949219 1396.097656 632.949219 C 1396.097656 632.949219 1396.660156 634.132812 1396.660156 634.132812 C 1396.660156 634.132812 1397.226562 635.3125 1397.226562 635.3125 C 1397.226562 635.3125 1397.808594 636.53125 1397.808594 636.53125 C 1397.808594 636.53125 1398.390625 637.800781 1398.390625 637.800781 C 1398.390625 637.800781 1398.972656 639.070312 1398.972656 639.070312 C 1398.972656 639.070312 1399.589844 640.355469 1399.589844 640.355469 C 1399.589844 640.355469 1400.1875 641.660156 1400.1875 641.660156 C 1400.1875 641.660156 1400.789062 642.964844 1400.789062 642.964844 C 1400.789062 642.964844 1401.386719 644.273438 1401.386719 644.273438 C 1401.386719 644.273438 1402.003906 645.59375 1402.003906 645.59375 C 1402.003906 645.59375 1402.605469 646.898438 1402.605469 646.898438 C 1402.605469 646.898438 1403.203125 648.1875 1403.203125 648.1875 C 1403.203125 648.1875 1403.785156 649.457031 1403.785156 649.457031 C 1403.785156 649.457031 1403.90625 649.710938 1403.90625 649.710938 C 1378.097656 663.183594 1353.046875 678.1875 1327.019531 691.214844 C 1315.59375 696.011719 1303.652344 700.703125 1297.253906 712.027344 C 1235.511719 855.734375 1301.695312 849.898438 1130.054688 918.460938 C 1099.757812 930.101562 1074.042969 948.722656 1065.949219 981.703125 C 1053.183594 1024.203125 1036.800781 1065.484375 1023.34375 1107.738281 C 1013.167969 1120.242188 995.003906 1125.339844 980.894531 1132.730469 C 938.5 1151.476562 897.042969 1162.179688 853.007812 1178.085938 C 839.058594 1181.136719 832.585938 1194.132812 832.390625 1207.464844 C 831.933594 1247.164062 826.675781 1287.316406 815.230469 1325.304688 C 775.992188 1362.039062 720.476562 1379.039062 672.492188 1403.816406 C 672.492188 1403.816406 671.71875 1402.773438 671.71875 1402.773438 Z M 671.71875 1402.773438 "/>
</svg>
