<?xml version="1.0" encoding="UTF-8"?>
<!-- Created by grConvert v0.1-0 -->
<svg xmlns="http://www.w3.org/2000/svg" xmlns:xlink="http://www.w3.org/1999/xlink" width="2000" height="2000" viewBox="0 0 2000 2000">
<path fill-rule="nonzero" fill="rgb(0%, 0%, 0%)" fill-opacity="1" d="M 751.460938 1498.851562 C 751.460938 1498.851562 750.332031 1497.601562 750.332031 1497.601562 C 750.332031 1497.601562 749.152344 1496.296875 749.152344 1496.296875 C 749.152344 1496.296875 747.933594 1494.957031 747.933594 1494.957031 C 747.933594 1494.957031 746.683594 1493.5625 746.683594 1493.5625 C 746.683594 1493.5625 745.394531 1492.132812 745.394531 1492.132812 C 745.394531 1492.132812 744.074219 1490.671875 744.074219 1490.671875 C 744.074219 1490.671875 742.75 1489.1875 742.75 1489.1875 C 742.75 1489.1875 741.375 1487.65625 741.375 1487.65625 C 741.375 1487.65625 739.964844 1486.066406 739.964844 1486.066406 C 739.964844 1486.066406 738.554688 1484.460938 738.554688 1484.460938 C 738.554688 1484.460938 737.125 1482.824219 737.125 1482.824219 C 737.125 1482.824219 735.714844 1481.183594 735.714844 1481.183594 C 735.714844 1481.183594 734.320312 1479.523438 734.320312 1479.523438 C 734.320312 1479.523438 732.929688 1477.851562 732.929688 1477.851562 C 732.929688 1477.851562 731.535156 1476.121094 731.535156 1476.121094 C 731.535156 1476.121094 730.125 1474.359375 730.125 1474.359375 C 730.125 1474.359375 728.730469 1472.558594 728.730469 1472.558594 C 728.730469 1472.558594 727.371094 1470.777344 727.371094 1470.777344 C 727.371094 1470.777344 726.050781 1469.015625 726.050781 1469.015625 C 726.050781 1469.015625 724.726562 1467.25 724.726562 1467.25 C 724.726562 1467.25 723.421875 1465.453125 723.421875 1465.453125 C 723.421875 1465.453125 722.136719 1463.671875 722.136719 1463.671875 C 722.136719 1463.671875 720.882812 1461.925781 720.882812 1461.925781 C 720.882812 1461.925781 719.648438 1460.214844 719.648438 1460.214844 C 719.648438 1460.214844 718.46875 1458.59375 718.46875 1458.59375 C 718.46875 1458.59375 717.304688 1457.003906 717.304688 1457.003906 C 717.304688 1457.003906 716.15625 1455.453125 716.15625 1455.453125 C 716.15625 1455.453125 715.046875 1453.988281 715.046875 1453.988281 C 715.046875 1453.988281 713.988281 1452.613281 713.988281 1452.613281 C 713.988281 1452.613281 712.984375 1451.34375 712.984375 1451.34375 C 712.984375 1451.34375 712.046875 1450.164062 712.046875 1450.164062 C 712.046875 1450.164062 711.128906 1449.035156 711.128906 1449.035156 C 711.128906 1449.035156 710.230469 1447.941406 710.230469 1447.941406 C 710.230469 1447.941406 709.347656 1446.898438 709.347656 1446.898438 C 709.347656 1446.898438 708.503906 1445.914062 708.503906 1445.914062 C 708.503906 1445.914062 707.691406 1444.960938 707.691406 1444.960938 C 707.691406 1444.960938 706.898438 1444.042969 706.898438 1444.042969 C 706.898438 1444.042969 706.121094 1443.160156 706.121094 1443.160156 C 706.121094 1443.160156 705.347656 1442.28125 705.347656 1442.28125 C 705.347656 1442.28125 704.554688 1441.378906 704.554688 1441.378906 C 704.554688 1441.378906 703.777344 1440.515625 703.777344 1440.515625 C 703.777344 1440.515625 702.984375 1439.632812 702.984375 1439.632812 C 702.984375 1439.632812 702.207031 1438.769531 702.207031 1438.769531 C 702.207031 1438.769531 701.414062 1437.871094 701.414062 1437.871094 C 701.414062 1437.871094 700.601562 1436.972656 700.601562 1436.972656 C 700.601562 1436.972656 699.773438 1436.070312 699.773438 1436.070312 C 699.773438 1436.070312 698.960938 1435.171875 698.960938 1435.171875 C 698.960938 1435.171875 698.132812 1434.253906 698.132812 1434.253906 C 698.132812 1434.253906 697.289062 1433.339844 697.289062 1433.339844 C 697.289062 1433.339844 696.457031 1432.421875 696.457031 1432.421875 C 696.457031 1432.421875 695.59375 1431.46875 695.59375 1431.46875 C 695.59375 1431.46875 694.746094 1430.535156 694.746094 1430.535156 C 694.746094 1430.535156 693.882812 1429.582031 693.882812 1429.582031 C 693.882812 1429.582031 693.019531 1428.628906 693.019531 1428.628906 C 693.019531 1428.628906 692.15625 1427.675781 692.15625 1427.675781 C 692.15625 1427.675781 691.292969 1426.707031 691.292969 1426.707031 C 691.292969 1426.707031 690.410156 1425.71875 690.410156 1425.71875 C 690.410156 1425.71875 689.527344 1424.730469 689.527344 1424.730469 C 689.527344 1424.730469 688.628906 1423.726562 688.628906 1423.726562 C 688.628906 1423.726562 687.730469 1422.703125 687.730469 1422.703125 C 687.730469 1422.703125 686.8125 1421.679688 686.8125 1421.679688 C 686.8125 1421.679688 685.894531 1420.640625 685.894531 1420.640625 C 685.894531 1420.640625 684.960938 1419.566406 684.960938 1419.566406 C 684.960938 1419.566406 684.027344 1418.507812 684.027344 1418.507812 C 684.027344 1418.507812 683.109375 1417.429688 683.109375 1417.429688 C 683.109375 1417.429688 682.191406 1416.339844 682.191406 1416.339844 C 682.191406 1416.339844 681.257812 1415.246094 681.257812 1415.246094 C 681.257812 1415.246094 680.320312 1414.097656 680.320312 1414.097656 C 680.320312 1414.097656 679.386719 1412.933594 679.386719 1412.933594 C 679.386719 1412.933594 678.433594 1411.734375 678.433594 1411.734375 C 678.433594 1411.734375 677.484375 1410.519531 677.484375 1410.519531 C 677.484375 1410.519531 676.53125 1409.265625 676.53125 1409.265625 C 676.53125 1409.265625 675.578125 1407.996094 675.578125 1407.996094 C 675.578125 1407.996094 674.609375 1406.691406 674.609375 1406.691406 C 674.609375 1406.691406 673.636719 1405.367188 673.636719 1405.367188 C 673.636719 1405.367188 672.667969 1404.046875 672.667969 1404.046875 C 672.667969 1404.046875 672.492188 1403.816406 672.492188 1403.816406 C 720.476562 1379.039062 775.992188 1362.023438 815.230469 1325.304688 C 826.675781 1287.320312 831.933594 1247.164062 832.390625 1207.464844 C 832.585938 1194.132812 839.054688 1181.136719 853.007812 1178.085938 C 897.042969 1162.179688 938.5 1151.476562 980.898438 1132.730469 C 995.003906 1125.339844 1013.167969 1120.242188 1023.328125 1107.738281 C 1036.800781 1065.484375 1053.183594 1024.203125 1065.953125 981.699219 C 1074.046875 948.722656 1099.757812 930.101562 1130.054688 918.460938 C 1301.699219 849.894531 1235.515625 855.730469 1297.253906 712.023438 C 1303.65625 700.703125 1315.59375 696.011719 1327.023438 691.214844 C 1353.03125 678.183594 1378.089844 663.195312 1403.886719 649.722656 C 1403.886719 649.722656 1404.351562 650.722656 1404.351562 650.722656 C 1404.351562 650.722656 1404.933594 651.976562 1404.933594 651.976562 C 1404.933594 651.976562 1405.535156 653.28125 1405.535156 653.28125 C 1405.535156 653.28125 1406.152344 654.585938 1406.152344 654.585938 C 1406.152344 654.585938 1406.769531 655.90625 1406.769531 655.90625 C 1406.769531 655.90625 1407.386719 657.25 1407.386719 657.25 C 1407.386719 657.25 1408.003906 658.589844 1408.003906 658.589844 C 1408.003906 658.589844 1408.621094 659.910156 1408.621094 659.910156 C 1408.621094 659.910156 1409.238281 661.234375 1409.238281 661.234375 C 1409.238281 661.234375 1409.820312 662.503906 1409.820312 662.503906 C 1409.820312 662.503906 1410.367188 663.738281 1410.367188 663.738281 C 1410.367188 663.738281 1410.894531 664.9375 1410.894531 664.9375 C 1410.894531 664.9375 1411.390625 666.136719 1411.390625 666.136719 C 1411.390625 666.136719 1411.882812 667.300781 1411.882812 667.300781 C 1411.882812 667.300781 1412.308594 668.375 1412.308594 668.375 C 1412.308594 668.375 1412.675781 669.398438 1412.675781 669.398438 C 1412.675781 669.398438 1413.03125 670.386719 1413.03125 670.386719 C 1413.03125 670.386719 1413.347656 671.339844 1413.347656 671.339844 C 1413.347656 671.339844 1413.664062 672.324219 1413.664062 672.324219 C 1413.664062 672.324219 1413.980469 673.332031 1413.980469 673.332031 C 1413.980469 673.332031 1414.28125 674.355469 1414.28125 674.355469 C 1414.28125 674.355469 1414.582031 675.359375 1414.582031 675.359375 C 1414.582031 675.359375 1414.847656 676.382812 1414.847656 676.382812 C 1414.847656 676.382812 1415.109375 677.386719 1415.109375 677.386719 C 1415.109375 677.386719 1415.359375 678.394531 1415.359375 678.394531 C 1415.359375 678.394531 1415.585938 679.398438 1415.585938 679.398438 C 1415.585938 679.398438 1415.816406 680.421875 1415.816406 680.421875 C 1415.816406 680.421875 1416.027344 681.445312 1416.027344 681.445312 C 1416.027344 681.445312 1416.222656 682.449219 1416.222656 682.449219 C 1416.222656 682.449219 1416.433594 683.453125 1416.433594 683.453125 C 1416.433594 683.453125 1416.628906 684.476562 1416.628906 684.476562 C 1416.628906 684.476562 1416.820312 685.535156 1416.820312 685.535156 C 1416.820312 685.535156 1417.015625 686.574219 1417.015625 686.574219 C 1417.015625 686.574219 1417.210938 687.652344 1417.210938 687.652344 C 1417.210938 687.652344 1417.402344 688.726562 1417.402344 688.726562 C 1417.402344 688.726562 1417.597656 689.820312 1417.597656 689.820312 C 1417.597656 689.820312 1417.792969 690.949219 1417.792969 690.949219 C 1417.792969 690.949219 1418.003906 692.128906 1418.003906 692.128906 C 1418.003906 692.128906 1418.230469 693.328125 1418.230469 693.328125 C 1418.230469 693.328125 1418.460938 694.5625 1418.460938 694.5625 C 1418.460938 694.5625 1418.707031 695.816406 1418.707031 695.816406 C 1418.707031 695.816406 1418.972656 697.066406 1418.972656 697.066406 C 1418.972656 697.066406 1419.253906 698.339844 1419.253906 698.339844 C 1419.253906 698.339844 1419.554688 699.644531 1419.554688 699.644531 C 1419.554688 699.644531 1419.890625 700.964844 1419.890625 700.964844 C 1419.890625 700.964844 1420.03125 701.53125 1420.03125 701.53125 C 1420.03125 701.53125 1420.226562 702.289062 1420.226562 702.289062 C 1420.226562 702.289062 1420.613281 703.628906 1420.613281 703.628906 C 1420.613281 703.628906 1421 704.96875 1421 704.96875 C 1421 704.96875 1421.425781 706.308594 1421.425781 706.308594 C 1421.425781 706.308594 1421.898438 707.667969 1421.898438 707.667969 C 1421.898438 707.667969 1422.394531 709.042969 1422.394531 709.042969 C 1422.394531 709.042969 1422.921875 710.402344 1422.921875 710.402344 C 1422.921875 710.402344 1423.488281 711.742188 1423.488281 711.742188 C 1423.488281 711.742188 1424.085938 713.027344 1424.085938 713.027344 C 1424.085938 713.027344 1424.703125 714.296875 1424.703125 714.296875 C 1424.703125 714.296875 1425.355469 715.566406 1425.355469 715.566406 C 1425.355469 715.566406 1426.042969 716.800781 1426.042969 716.800781 C 1426.042969 716.800781 1426.75 718.035156 1426.75 718.035156 C 1426.75 718.035156 1427.492188 719.269531 1427.492188 719.269531 C 1427.492188 719.269531 1428.25 720.488281 1428.25 720.488281 C 1428.25 720.488281 1429.023438 721.722656 1429.023438 721.722656 C 1429.023438 721.722656 1429.855469 722.957031 1429.855469 722.957031 C 1429.855469 722.957031 1430.699219 724.207031 1430.699219 724.207031 C 1430.699219 724.207031 1431.5625 725.460938 1431.5625 725.460938 C 1431.5625 725.460938 1432.464844 726.730469 1432.464844 726.730469 C 1432.464844 726.730469 1433.378906 728.019531 1433.378906 728.019531 C 1433.378906 728.019531 1434.316406 729.304688 1434.316406 729.304688 C 1434.316406 729.304688 1435.285156 730.628906 1435.285156 730.628906 C 1435.285156 730.628906 1436.289062 731.984375 1436.289062 731.984375 C 1436.289062 731.984375 1437.296875 733.34375 1437.296875 733.34375 C 1437.296875 733.34375 1438.285156 734.683594 1438.285156 734.683594 C 1438.285156 734.683594 1439.253906 735.972656 1439.253906 735.972656 C 1439.253906 735.972656 1440.207031 737.242188 1440.207031 737.242188 C 1440.207031 737.242188 1441.175781 738.546875 1441.175781 738.546875 C 1441.175781 738.546875 1442.144531 739.867188 1442.144531 739.867188 C 1442.144531 739.867188 1443.132812 741.175781 1443.132812 741.175781 C 1443.132812 741.175781 1444.101562 742.480469 1444.101562 742.480469 C 1444.101562 742.480469 1445.074219 743.785156 1445.074219 743.785156 C 1445.074219 743.785156 1446.058594 745.125 1446.058594 745.125 C 1446.058594 745.125 1447.082031 746.464844 1447.082031 746.464844 C 1447.082031 746.464844 1448.105469 747.804688 1448.105469 747.804688 C 1448.105469 747.804688 1449.09375 749.09375 1449.09375 749.09375 C 1449.09375 749.09375 1450.046875 750.292969 1450.046875 750.292969 C 1450.046875 750.292969 1451 751.492188 1451 751.492188 C 1451 751.492188 1451.96875 752.65625 1451.96875 752.65625 C 1451.96875 752.65625 1452.921875 753.78125 1452.921875 753.78125 C 1452.921875 753.78125 1453.855469 754.875 1453.855469 754.875 C 1453.855469 754.875 1454.738281 755.882812 1454.738281 755.882812 C 1454.738281 755.882812 1455.566406 756.78125 1455.566406 756.78125 C 1455.566406 756.78125 1456.324219 757.59375 1456.324219 757.59375 C 1456.324219 757.59375 1457.046875 758.367188 1457.046875 758.367188 C 1457.046875 758.367188 1457.753906 759.125 1457.753906 759.125 C 1457.753906 759.125 1458.296875 759.710938 1458.296875 759.710938 C 1436.199219 771.683594 1414.105469 783.621094 1391.761719 794.554688 C 1375.429688 828.839844 1371.179688 860.617188 1360.28125 895.835938 C 1351.871094 927.015625 1343.175781 946.128906 1314.519531 963.308594 C 1289.972656 980.414062 1263.34375 992.847656 1235.585938 1003.710938 C 1209.0625 1016.070312 1172.414062 1023.019531 1163.949219 1055.257812 C 1152.859375 1090.457031 1141.164062 1125.410156 1128.097656 1159.921875 C 1123.105469 1173.058594 1121.765625 1187.75 1112.277344 1198.683594 C 1060.484375 1239.316406 992.378906 1250.953125 931.941406 1274.074219 C 930.707031 1312.042969 925.628906 1381.542969 905.824219 1413.304688 C 892.648438 1426.9375 875.703125 1436.867188 860.042969 1447.445312 C 826.871094 1467.550781 790.046875 1480.390625 755.746094 1498.394531 C 754.636719 1498.921875 753.5625 1499.453125 752.484375 1500 C 752.484375 1500 751.460938 1498.851562 751.460938 1498.851562 Z M 751.460938 1498.851562 "/>
<path fill-rule="nonzero" fill="rgb(0%, 0%, 0%)" fill-opacity="1" d="M 636.671875 1367.933594 C 636.671875 1367.933594 636.019531 1367.40625 636.019531 1367.40625 C 636.019531 1367.40625 635.367188 1366.875 635.367188 1366.875 C 635.367188 1366.875 634.714844 1366.328125 634.714844 1366.328125 C 634.714844 1366.328125 634.023438 1365.800781 634.023438 1365.800781 C 634.023438 1365.800781 633.355469 1365.253906 633.355469 1365.253906 C 633.355469 1365.253906 632.667969 1364.722656 632.667969 1364.722656 C 632.667969 1364.722656 631.996094 1364.210938 631.996094 1364.210938 C 631.996094 1364.210938 631.308594 1363.703125 631.308594 1363.703125 C 631.308594 1363.703125 630.605469 1363.191406 630.605469 1363.191406 C 630.605469 1363.191406 629.898438 1362.679688 629.898438 1362.679688 C 629.898438 1362.679688 629.191406 1362.203125 629.191406 1362.203125 C 629.191406 1362.203125 628.503906 1361.726562 628.503906 1361.726562 C 628.503906 1361.726562 627.835938 1361.285156 627.835938 1361.285156 C 627.835938 1361.285156 627.164062 1360.863281 627.164062 1360.863281 C 627.164062 1360.863281 626.511719 1360.457031 626.511719 1360.457031 C 626.511719 1360.457031 625.859375 1360.085938 625.859375 1360.085938 C 625.859375 1360.085938 625.242188 1359.734375 625.242188 1359.734375 C 625.242188 1359.734375 624.625 1359.414062 624.625 1359.414062 C 624.625 1359.414062 624.0625 1359.132812 624.0625 1359.132812 C 624.0625 1359.132812 623.496094 1358.851562 623.496094 1358.851562 C 623.496094 1358.851562 622.949219 1358.605469 622.949219 1358.605469 C 622.949219 1358.605469 622.421875 1358.375 622.421875 1358.375 C 622.421875 1358.375 621.910156 1358.164062 621.910156 1358.164062 C 621.910156 1358.164062 621.398438 1357.96875 621.398438 1357.96875 C 621.398438 1357.96875 620.90625 1357.777344 620.90625 1357.777344 C 620.90625 1357.777344 620.394531 1357.582031 620.394531 1357.582031 C 620.394531 1357.582031 619.847656 1357.371094 619.847656 1357.371094 C 619.847656 1357.371094 619.28125 1357.160156 619.28125 1357.160156 C 619.28125 1357.160156 618.71875 1356.945312 618.71875 1356.945312 C 618.71875 1356.945312 618.117188 1356.734375 618.117188 1356.734375 C 618.117188 1356.734375 617.5 1356.488281 617.5 1356.488281 C 617.5 1356.488281 616.847656 1356.257812 616.847656 1356.257812 C 616.847656 1356.257812 616.179688 1355.996094 616.179688 1355.996094 C 616.179688 1355.996094 615.492188 1355.730469 615.492188 1355.730469 C 615.492188 1355.730469 614.785156 1355.464844 614.785156 1355.464844 C 614.785156 1355.464844 614.097656 1355.199219 614.097656 1355.199219 C 614.097656 1355.199219 613.410156 1354.917969 613.410156 1354.917969 C 613.410156 1354.917969 612.722656 1354.65625 612.722656 1354.65625 C 612.722656 1354.65625 612.035156 1354.371094 612.035156 1354.371094 C 612.035156 1354.371094 611.363281 1354.089844 611.363281 1354.089844 C 611.363281 1354.089844 610.695312 1353.824219 610.695312 1353.824219 C 610.695312 1353.824219 610.058594 1353.5625 610.058594 1353.5625 C 610.058594 1353.5625 609.425781 1353.296875 609.425781 1353.296875 C 609.425781 1353.296875 608.789062 1353.015625 608.789062 1353.015625 C 608.789062 1353.015625 608.136719 1352.75 608.136719 1352.75 C 608.136719 1352.75 607.484375 1352.46875 607.484375 1352.46875 C 607.484375 1352.46875 606.832031 1352.183594 606.832031 1352.183594 C 606.832031 1352.183594 606.179688 1351.886719 606.179688 1351.886719 C 606.179688 1351.886719 605.527344 1351.605469 605.527344 1351.605469 C 605.527344 1351.605469 604.875 1351.285156 604.875 1351.285156 C 604.875 1351.285156 604.1875 1350.96875 604.1875 1350.96875 C 604.1875 1350.96875 603.515625 1350.652344 603.515625 1350.652344 C 603.515625 1350.652344 602.828125 1350.316406 602.828125 1350.316406 C 602.828125 1350.316406 602.140625 1349.964844 602.140625 1349.964844 C 602.140625 1349.964844 601.453125 1349.609375 601.453125 1349.609375 C 601.453125 1349.609375 600.746094 1349.222656 600.746094 1349.222656 C 600.746094 1349.222656 600.023438 1348.835938 600.023438 1348.835938 C 600.023438 1348.835938 599.285156 1348.410156 599.285156 1348.410156 C 599.285156 1348.410156 598.542969 1347.972656 598.542969 1347.972656 C 598.542969 1347.972656 597.800781 1347.53125 597.800781 1347.53125 C 597.800781 1347.53125 597.0625 1347.070312 597.0625 1347.070312 C 597.0625 1347.070312 596.304688 1346.578125 596.304688 1346.578125 C 596.304688 1346.578125 595.546875 1346.066406 595.546875 1346.066406 C 595.546875 1346.066406 594.804688 1345.554688 594.804688 1345.554688 C 594.804688 1345.554688 594.0625 1345.027344 594.0625 1345.027344 C 594.0625 1345.027344 593.359375 1344.496094 593.359375 1344.496094 C 593.359375 1344.496094 592.652344 1343.96875 592.652344 1343.96875 C 592.652344 1343.96875 591.964844 1343.4375 591.964844 1343.4375 C 591.964844 1343.4375 591.3125 1342.925781 591.3125 1342.925781 C 591.3125 1342.925781 590.679688 1342.433594 590.679688 1342.433594 C 590.679688 1342.433594 590.0625 1341.941406 590.0625 1341.941406 C 590.0625 1341.941406 589.460938 1341.480469 589.460938 1341.480469 C 589.460938 1341.480469 588.878906 1341.023438 588.878906 1341.023438 C 588.878906 1341.023438 588.296875 1340.582031 588.296875 1340.582031 C 588.296875 1340.582031 587.734375 1340.140625 587.734375 1340.140625 C 587.734375 1340.140625 587.152344 1339.71875 587.152344 1339.71875 C 587.152344 1339.71875 586.585938 1339.292969 586.585938 1339.292969 C 586.585938 1339.292969 586.039062 1338.886719 586.039062 1338.886719 C 586.039062 1338.886719 585.476562 1338.484375 585.476562 1338.484375 C 585.476562 1338.484375 584.910156 1338.078125 584.910156 1338.078125 C 584.910156 1338.078125 584.347656 1337.652344 584.347656 1337.652344 C 584.347656 1337.652344 583.78125 1337.25 583.78125 1337.25 C 583.78125 1337.25 583.234375 1336.824219 583.234375 1336.824219 C 583.234375 1336.824219 582.6875 1336.417969 582.6875 1336.417969 C 582.6875 1336.417969 582.125 1335.996094 582.125 1335.996094 C 582.125 1335.996094 581.578125 1335.554688 581.578125 1335.554688 C 581.578125 1335.554688 581.050781 1335.132812 581.050781 1335.132812 C 581.050781 1335.132812 580.519531 1334.691406 580.519531 1334.691406 C 580.519531 1334.691406 580.007812 1334.25 580.007812 1334.25 C 580.007812 1334.25 579.496094 1333.808594 579.496094 1333.808594 C 579.496094 1333.808594 578.984375 1333.367188 578.984375 1333.367188 C 578.984375 1333.367188 578.457031 1332.910156 578.457031 1332.910156 C 578.457031 1332.910156 577.925781 1332.433594 577.925781 1332.433594 C 577.925781 1332.433594 577.382812 1331.941406 577.382812 1331.941406 C 577.382812 1331.941406 576.835938 1331.445312 576.835938 1331.445312 C 576.835938 1331.445312 576.289062 1330.953125 576.289062 1330.953125 C 576.289062 1330.953125 575.722656 1330.421875 575.722656 1330.421875 C 575.722656 1330.421875 575.140625 1329.894531 575.140625 1329.894531 C 575.140625 1329.894531 574.542969 1329.332031 574.542969 1329.332031 C 574.542969 1329.332031 573.941406 1328.785156 573.941406 1328.785156 C 573.941406 1328.785156 573.34375 1328.203125 573.34375 1328.203125 C 573.34375 1328.203125 572.726562 1327.601562 572.726562 1327.601562 C 572.726562 1327.601562 572.109375 1326.96875 572.109375 1326.96875 C 572.109375 1326.96875 571.457031 1326.296875 571.457031 1326.296875 C 571.457031 1326.296875 570.769531 1325.589844 570.769531 1325.589844 C 570.769531 1325.589844 570.078125 1324.851562 570.078125 1324.851562 C 570.078125 1324.851562 569.375 1324.058594 569.375 1324.058594 C 569.375 1324.058594 568.632812 1323.210938 568.632812 1323.210938 C 568.632812 1323.210938 567.859375 1322.3125 567.859375 1322.3125 C 567.859375 1322.3125 567.046875 1321.324219 567.046875 1321.324219 C 567.046875 1321.324219 566.199219 1320.25 566.199219 1320.25 C 566.199219 1320.25 565.320312 1319.085938 565.320312 1319.085938 C 565.320312 1319.085938 564.417969 1317.832031 564.417969 1317.832031 C 564.417969 1317.832031 563.503906 1316.492188 563.503906 1316.492188 C 563.503906 1316.492188 562.53125 1315.046875 562.53125 1315.046875 C 562.53125 1315.046875 561.542969 1313.457031 561.542969 1313.457031 C 561.542969 1313.457031 560.523438 1311.800781 560.523438 1311.800781 C 560.523438 1311.800781 559.480469 1310.054688 559.480469 1310.054688 C 559.480469 1310.054688 558.421875 1308.238281 558.421875 1308.238281 C 558.421875 1308.238281 557.347656 1306.351562 557.347656 1306.351562 C 557.347656 1306.351562 556.199219 1304.375 556.199219 1304.375 C 556.199219 1304.375 555.019531 1302.332031 555.019531 1302.332031 C 555.019531 1302.332031 553.820312 1300.285156 553.820312 1300.285156 C 553.820312 1300.285156 552.601562 1298.273438 552.601562 1298.273438 C 552.601562 1298.273438 551.402344 1296.316406 551.402344 1296.316406 C 551.402344 1296.316406 550.257812 1294.464844 550.257812 1294.464844 C 550.257812 1294.464844 549.113281 1292.648438 549.113281 1292.648438 C 549.113281 1292.648438 547.984375 1290.832031 547.984375 1290.832031 C 547.984375 1290.832031 546.90625 1289.070312 546.90625 1289.070312 C 546.90625 1289.070312 545.847656 1287.304688 545.847656 1287.304688 C 545.847656 1287.304688 544.828125 1285.542969 544.828125 1285.542969 C 544.828125 1285.542969 543.804688 1283.742188 543.804688 1283.742188 C 543.804688 1283.742188 542.78125 1281.890625 542.78125 1281.890625 C 542.78125 1281.890625 541.792969 1280.039062 541.792969 1280.039062 C 541.792969 1280.039062 541.703125 1279.882812 541.703125 1279.882812 C 554.015625 1273.78125 566.5 1267.996094 578.527344 1261.292969 C 603.304688 1247.539062 627.359375 1232.652344 652.3125 1219.25 C 654.445312 1187.417969 667.671875 1157.492188 673.121094 1126.101562 C 678.078125 1103.671875 681.941406 1080.902344 689.046875 1059 C 690.757812 1053.746094 692.097656 1050.253906 696.136719 1046.179688 C 739.132812 1014.523438 794.257812 1004.4375 843.691406 986.097656 C 888.90625 968.054688 900.28125 974.582031 900.527344 920.210938 C 902.890625 892.542969 920.316406 805.8125 938.777344 788.492188 C 966.132812 767.5625 1000.820312 759.976562 1033.144531 749.925781 C 1062.667969 741.074219 1092.171875 732.027344 1120.828125 720.652344 C 1126.292969 689.914062 1137.121094 660.445312 1140.402344 629.195312 C 1144.8125 604.875 1149.308594 578.988281 1167.527344 560.804688 C 1192.972656 534.386719 1228.050781 521.144531 1262.789062 512.078125 C 1273.476562 507.566406 1283.511719 503.421875 1293.066406 500 C 1293.066406 500 1293.386719 500.527344 1293.386719 500.527344 C 1293.386719 500.527344 1293.933594 501.429688 1293.933594 501.429688 C 1293.933594 501.429688 1294.464844 502.328125 1294.464844 502.328125 C 1294.464844 502.328125 1295.011719 503.226562 1295.011719 503.226562 C 1295.011719 503.226562 1295.558594 504.144531 1295.558594 504.144531 C 1295.558594 504.144531 1296.121094 505.078125 1296.121094 505.078125 C 1296.121094 505.078125 1296.6875 506.046875 1296.6875 506.046875 C 1296.6875 506.046875 1297.269531 507.019531 1297.269531 507.019531 C 1297.269531 507.019531 1297.832031 507.988281 1297.832031 507.988281 C 1297.832031 507.988281 1298.394531 508.941406 1298.394531 508.941406 C 1298.394531 508.941406 1298.960938 509.894531 1298.960938 509.894531 C 1298.960938 509.894531 1299.523438 510.863281 1299.523438 510.863281 C 1299.523438 510.863281 1300.089844 511.851562 1300.089844 511.851562 C 1300.089844 511.851562 1300.671875 512.835938 1300.671875 512.835938 C 1300.671875 512.835938 1301.234375 513.808594 1301.234375 513.808594 C 1301.234375 513.808594 1301.78125 514.796875 1301.78125 514.796875 C 1301.78125 514.796875 1302.363281 515.78125 1302.363281 515.78125 C 1302.363281 515.78125 1302.945312 516.789062 1302.945312 516.789062 C 1302.945312 516.789062 1303.546875 517.847656 1303.546875 517.847656 C 1303.546875 517.847656 1304.164062 518.902344 1304.164062 518.902344 C 1304.164062 518.902344 1304.78125 519.960938 1304.78125 519.960938 C 1304.78125 519.960938 1305.414062 521.019531 1305.414062 521.019531 C 1305.414062 521.019531 1306.03125 522.0625 1306.03125 522.0625 C 1306.03125 522.0625 1306.683594 523.117188 1306.683594 523.117188 C 1306.683594 523.117188 1307.335938 524.140625 1307.335938 524.140625 C 1307.335938 524.140625 1307.972656 525.148438 1307.972656 525.148438 C 1307.972656 525.148438 1308.625 526.117188 1308.625 526.117188 C 1308.625 526.117188 1309.257812 527.070312 1309.257812 527.070312 C 1309.257812 527.070312 1309.894531 527.96875 1309.894531 527.96875 C 1309.894531 527.96875 1310.53125 528.851562 1310.53125 528.851562 C 1310.53125 528.851562 1311.183594 529.75 1311.183594 529.75 C 1311.183594 529.75 1311.835938 530.632812 1311.835938 530.632812 C 1311.835938 530.632812 1312.488281 531.511719 1312.488281 531.511719 C 1312.488281 531.511719 1313.175781 532.414062 1313.175781 532.414062 C 1313.175781 532.414062 1313.878906 533.3125 1313.878906 533.3125 C 1313.878906 533.3125 1314.621094 534.246094 1314.621094 534.246094 C 1314.621094 534.246094 1315.363281 535.179688 1315.363281 535.179688 C 1315.363281 535.179688 1316.121094 536.117188 1316.121094 536.117188 C 1316.121094 536.117188 1316.878906 537.015625 1316.878906 537.015625 C 1316.878906 537.015625 1317.636719 537.914062 1317.636719 537.914062 C 1317.636719 537.914062 1318.394531 538.796875 1318.394531 538.796875 C 1318.394531 538.796875 1319.171875 539.679688 1319.171875 539.679688 C 1319.171875 539.679688 1319.929688 540.542969 1319.929688 540.542969 C 1319.929688 540.542969 1320.703125 541.390625 1320.703125 541.390625 C 1320.703125 541.390625 1321.5 542.234375 1321.5 542.234375 C 1321.5 542.234375 1322.292969 543.082031 1322.292969 543.082031 C 1322.292969 543.082031 1323.101562 543.910156 1323.101562 543.910156 C 1323.101562 543.910156 1323.933594 544.757812 1323.933594 544.757812 C 1323.933594 544.757812 1324.777344 545.605469 1324.777344 545.605469 C 1324.777344 545.605469 1325.625 546.433594 1325.625 546.433594 C 1325.625 546.433594 1326.488281 547.261719 1326.488281 547.261719 C 1326.488281 547.261719 1327.351562 548.074219 1327.351562 548.074219 C 1327.351562 548.074219 1328.21875 548.902344 1328.21875 548.902344 C 1328.21875 548.902344 1329.082031 549.695312 1329.082031 549.695312 C 1329.082031 549.695312 1329.929688 550.488281 1329.929688 550.488281 C 1329.929688 550.488281 1330.757812 551.28125 1330.757812 551.28125 C 1330.757812 551.28125 1331.605469 552.074219 1331.605469 552.074219 C 1331.605469 552.074219 1332.449219 552.886719 1332.449219 552.886719 C 1332.449219 552.886719 1333.296875 553.699219 1333.296875 553.699219 C 1333.296875 553.699219 1334.160156 554.546875 1334.160156 554.546875 C 1334.160156 554.546875 1335.023438 555.390625 1335.023438 555.390625 C 1335.023438 555.390625 1335.90625 556.273438 1335.90625 556.273438 C 1335.90625 556.273438 1336.824219 557.15625 1336.824219 557.15625 C 1336.824219 557.15625 1337.722656 558.070312 1337.722656 558.070312 C 1337.722656 558.070312 1338.675781 559.023438 1338.675781 559.023438 C 1338.675781 559.023438 1339.628906 559.996094 1339.628906 559.996094 C 1339.628906 559.996094 1340.613281 561 1340.613281 561 C 1340.613281 561 1341.621094 562.003906 1341.621094 562.003906 C 1341.621094 562.003906 1342.625 563.027344 1342.625 563.027344 C 1342.625 563.027344 1343.628906 564.050781 1343.628906 564.050781 C 1343.628906 564.050781 1344.636719 565.054688 1344.636719 565.054688 C 1344.636719 565.054688 1345.640625 566.0625 1345.640625 566.0625 C 1345.640625 566.0625 1346.628906 567.046875 1346.628906 567.046875 C 1346.628906 567.046875 1347.582031 568 1347.582031 568 C 1347.582031 568 1348.515625 568.917969 1348.515625 568.917969 C 1348.515625 568.917969 1349.398438 569.816406 1349.398438 569.816406 C 1349.398438 569.816406 1350.277344 570.714844 1350.277344 570.714844 C 1350.277344 570.714844 1351.160156 571.617188 1351.160156 571.617188 C 1351.160156 571.617188 1352.023438 572.515625 1352.023438 572.515625 C 1352.023438 572.515625 1352.890625 573.433594 1352.890625 573.433594 C 1352.890625 573.433594 1353.734375 574.347656 1353.734375 574.347656 C 1353.734375 574.347656 1354.566406 575.265625 1354.566406 575.265625 C 1354.566406 575.265625 1355.410156 576.183594 1355.410156 576.183594 C 1355.410156 576.183594 1356.238281 577.117188 1356.238281 577.117188 C 1356.238281 577.117188 1357.050781 578.035156 1357.050781 578.035156 C 1357.050781 578.035156 1357.84375 578.953125 1357.84375 578.953125 C 1357.84375 578.953125 1358.601562 579.851562 1358.601562 579.851562 C 1358.601562 579.851562 1359.324219 580.714844 1359.324219 580.714844 C 1359.324219 580.714844 1360.03125 581.578125 1360.03125 581.578125 C 1360.03125 581.578125 1360.71875 582.460938 1360.71875 582.460938 C 1360.71875 582.460938 1361.40625 583.34375 1361.40625 583.34375 C 1361.40625 583.34375 1362.078125 584.226562 1362.078125 584.226562 C 1362.078125 584.226562 1362.730469 585.105469 1362.730469 585.105469 C 1362.730469 585.105469 1363.363281 585.988281 1363.363281 585.988281 C 1363.363281 585.988281 1363.980469 586.871094 1363.980469 586.871094 C 1363.980469 586.871094 1364.597656 587.769531 1364.597656 587.769531 C 1364.597656 587.769531 1365.214844 588.6875 1365.214844 588.6875 C 1365.214844 588.6875 1365.816406 589.585938 1365.816406 589.585938 C 1365.816406 589.585938 1366.414062 590.503906 1366.414062 590.503906 C 1366.414062 590.503906 1367.015625 591.421875 1367.015625 591.421875 C 1367.015625 591.421875 1367.632812 592.355469 1367.632812 592.355469 C 1367.632812 592.355469 1368.230469 593.308594 1368.230469 593.308594 C 1368.230469 593.308594 1368.847656 594.277344 1368.847656 594.277344 C 1368.847656 594.277344 1369.484375 595.230469 1369.484375 595.230469 C 1369.484375 595.230469 1370.101562 596.21875 1370.101562 596.21875 C 1370.101562 596.21875 1370.753906 597.222656 1370.753906 597.222656 C 1370.753906 597.222656 1370.835938 597.347656 1370.835938 597.347656 C 1329.957031 614.679688 1281.484375 619.515625 1251.839844 655.839844 C 1236.214844 686.03125 1239.425781 721.992188 1228.789062 753.910156 C 1223.128906 770.222656 1220.679688 787.082031 1216.429688 803.695312 C 1214.046875 810.660156 1205.601562 814.417969 1199.285156 817.0625 C 1155.621094 834.117188 1110.335938 846.460938 1065.699219 860.570312 C 1051.996094 866.898438 1032.15625 870.054688 1024.363281 883.722656 C 1013.289062 917.867188 1005.703125 945.375 1000.433594 979.730469 C 999.445312 1013.484375 997.328125 1056.511719 958.972656 1067.941406 C 903.015625 1093.8125 839.527344 1102.769531 786.410156 1134.796875 C 776.746094 1169.378906 771.15625 1204.96875 761.738281 1239.636719 C 754.597656 1259.496094 753.273438 1280.199219 748.425781 1300.460938 C 740.367188 1315.609375 720.929688 1319.261719 707.828125 1329.066406 C 684.707031 1342.925781 661.378906 1356.523438 637.128906 1368.339844 C 637.128906 1368.339844 636.671875 1367.933594 636.671875 1367.933594 Z M 636.671875 1367.933594 "/>
</svg>
