<?xml version="1.0" encoding="UTF-8"?>
<!-- Created by grConvert v0.1-0 -->
<svg xmlns="http://www.w3.org/2000/svg" xmlns:xlink="http://www.w3.org/1999/xlink" width="2000" height="2000" viewBox="0 0 2000 2000">
<path fill-rule="nonzero" fill="rgb(0%, 0%, 0%)" fill-opacity="1" d="M 987.679688 1362.503906 C 981.835938 1352.773438 979.96875 1342.28125 974.558594 1332.453125 C 966.871094 1317.960938 955.488281 1306.042969 942.589844 1296.09375 C 927.308594 1280.757812 907.035156 1270.5 886.875 1264.183594 C 849.492188 1250.757812 810.597656 1239.441406 777.246094 1217.234375 C 756.453125 1202.375 738.136719 1182.710938 727.988281 1159.039062 C 707.035156 1101.972656 736.511719 1033.015625 788.425781 1003.375 C 816.097656 988.765625 846.117188 978.953125 875.089844 967.238281 C 895.230469 960.613281 916.421875 954.40625 932.964844 940.5625 C 986.355469 883.828125 927.1875 875.035156 884.617188 851.867188 C 857.0625 834.109375 831.332031 801.855469 842.636719 767.425781 C 849.972656 736.511719 880.378906 721.429688 908.394531 713.0625 C 934.484375 702.738281 960.101562 685.25 974.109375 660.414062 C 975.242188 658.3125 976.609375 653.335938 976.726562 652.542969 C 977.667969 639.46875 992.484375 630.371094 1004.242188 637.390625 C 1031.246094 655.933594 988.203125 705.574219 970.277344 718.125 C 959.953125 726.378906 948.71875 733.949219 936.867188 739.878906 C 917.261719 750.726562 886.78125 751.304688 877.757812 775.066406 C 872.398438 787.398438 878.988281 798.679688 887.417969 807.570312 C 908.472656 832.550781 945.148438 833.671875 968.175781 856.203125 C 1009.753906 892.644531 984.394531 950.601562 944.507812 976.570312 C 914.71875 995.328125 879.265625 1001.769531 847.558594 1016.609375 C 824.804688 1025.378906 800.601562 1033.644531 783.8125 1052.246094 C 763.78125 1075.363281 753.386719 1106.082031 758.25 1136.566406 C 763.871094 1158.492188 780.980469 1175.722656 798.824219 1188.671875 C 838.761719 1214.242188 886.390625 1222.96875 928.992188 1242.679688 C 940.179688 1247.980469 950.320312 1255.058594 959.476562 1263.402344 C 976.9375 1277.421875 993.460938 1292.777344 1004.523438 1312.53125 C 1010.488281 1325.003906 1017.613281 1337.863281 1019.335938 1351.703125 C 1019.816406 1367.914062 997.320312 1375.859375 987.679688 1362.503906 Z M 987.679688 1362.503906 "/>
<path fill-rule="nonzero" fill="rgb(0%, 0%, 0%)" fill-opacity="1" d="M 1012.320312 1360.832031 C 1018.164062 1351.101562 1020.03125 1340.609375 1025.441406 1330.78125 C 1033.128906 1316.289062 1044.511719 1304.371094 1057.410156 1294.421875 C 1072.691406 1279.085938 1092.964844 1268.828125 1113.125 1262.507812 C 1150.507812 1249.085938 1189.402344 1237.769531 1222.753906 1215.5625 C 1243.546875 1200.703125 1261.863281 1181.039062 1272.011719 1157.363281 C 1292.964844 1100.296875 1263.488281 1031.34375 1211.574219 1001.699219 C 1183.90625 987.09375 1153.882812 977.28125 1124.910156 965.566406 C 1104.769531 958.941406 1083.578125 952.734375 1067.035156 938.890625 C 1013.644531 882.152344 1072.8125 873.363281 1115.382812 850.195312 C 1142.9375 832.4375 1168.667969 800.183594 1157.363281 765.753906 C 1150.027344 734.839844 1119.621094 719.753906 1091.605469 711.390625 C 1065.515625 701.066406 1039.898438 683.578125 1025.890625 658.742188 C 1024.757812 656.640625 1023.390625 651.664062 1023.273438 650.871094 C 1022.332031 637.796875 1007.515625 628.695312 995.757812 635.71875 C 968.753906 654.261719 1011.796875 703.898438 1029.722656 716.453125 C 1040.046875 724.707031 1051.28125 732.277344 1063.132812 738.207031 C 1082.738281 749.054688 1113.21875 749.632812 1122.242188 773.394531 C 1127.601562 785.726562 1121.011719 797.007812 1112.582031 805.898438 C 1091.527344 830.878906 1054.851562 832 1031.824219 854.53125 C 990.246094 890.972656 1015.605469 948.929688 1055.492188 974.898438 C 1085.28125 993.65625 1120.734375 1000.097656 1152.441406 1014.9375 C 1175.195312 1023.707031 1199.398438 1031.972656 1216.1875 1050.574219 C 1236.21875 1073.691406 1246.613281 1104.410156 1241.75 1134.894531 C 1236.128906 1156.816406 1219.019531 1174.046875 1201.175781 1187 C 1161.238281 1212.570312 1113.609375 1221.296875 1071.007812 1241.007812 C 1059.820312 1246.308594 1049.679688 1253.382812 1040.523438 1261.726562 C 1023.0625 1275.75 1006.539062 1291.105469 995.476562 1310.859375 C 989.511719 1323.332031 982.386719 1336.191406 980.664062 1350.027344 C 980.183594 1366.242188 1002.679688 1374.1875 1012.320312 1360.832031 Z M 1012.320312 1360.832031 "/>
<path fill-rule="nonzero" fill="rgb(0%, 0%, 0%)" fill-opacity="1" d="M 971.355469 664.023438 C 972.347656 621.796875 972.757812 579.527344 973.472656 537.300781 C 973.515625 534.082031 973.582031 530.863281 973.625 527.648438 C 973.882812 512.570312 986.019531 500 1001.269531 500 C 1016.152344 500 1029.175781 512.570312 1028.917969 527.648438 C 1028.226562 569.398438 1027.535156 611.148438 1026.820312 652.898438 C 1026.757812 656.613281 1026.734375 660.308594 1026.648438 664.023438 C 1026.28125 679.074219 1014.335938 691.667969 999.003906 691.667969 C 984.207031 691.667969 970.988281 679.097656 971.355469 664.023438 Z M 971.355469 664.023438 "/>
<path fill-rule="nonzero" fill="rgb(0%, 0%, 0%)" fill-opacity="1" d="M 969.046875 1472.796875 C 969.269531 1435.757812 971.71875 1398.753906 970.234375 1361.714844 C 970.414062 1345.992188 966.113281 1328.140625 975.851562 1314.414062 C 985.3125 1302.707031 1002.527344 1300.050781 1014.640625 1309.425781 C 1028.964844 1319.828125 1024.191406 1337.074219 1025.160156 1351.929688 C 1027.042969 1392.21875 1024.710938 1432.5 1024.339844 1472.796875 C 1023.484375 1509.019531 969.902344 1509.113281 969.046875 1472.796875 Z M 969.046875 1472.796875 "/>
</svg>
