<?xml version="1.0" encoding="UTF-8"?>
<!-- Created by grConvert v0.1-0 -->
<svg xmlns="http://www.w3.org/2000/svg" xmlns:xlink="http://www.w3.org/1999/xlink" width="2000" height="2000" viewBox="0 0 2000 2000">
<path fill-rule="nonzero" fill="rgb(0%, 79.215688%, 93.725491%)" fill-opacity="1" d="M 1240.210938 942.328125 C 1262.59375 953.707031 1285.886719 963.515625 1305.46875 979.582031 C 1276.75 968.339844 1249.148438 954.480469 1220.550781 943.320312 C 1205.28125 938.535156 1188.875 942.703125 1173.746094 937.957031 C 1151.601562 932.140625 1130.871094 901.953125 1106.898438 918.160156 C 1090.914062 932.835938 1101 957.121094 1103.1875 975.53125 C 1107.296875 1003.867188 1114.742188 1031.53125 1121.296875 1059.335938 C 1132.734375 1144.390625 1159.167969 1238.957031 1113.789062 1318.550781 C 1107.257812 1337.554688 1094.152344 1352.6875 1079.851562 1366.429688 C 1060.550781 1381.679688 1038.746094 1397.507812 1033.324219 1416.234375 C 1032.46875 1415.71875 1031.398438 1415.480469 1030.144531 1415.621094 C 1027.722656 1415.957031 1025.0625 1415.859375 1022.5 1416.078125 C 1022.460938 1416.273438 1022.359375 1416.472656 1022.203125 1416.632812 C 1021.167969 1417.664062 1019.621094 1418.222656 1018.308594 1418.796875 C 1018.03125 1418.917969 1017.734375 1419.035156 1017.457031 1419.15625 C 1017.457031 1419.175781 1017.4375 1419.195312 1017.4375 1419.214844 C 1016.839844 1420.386719 1015.429688 1420.542969 1014.238281 1420.804688 C 1013.742188 1420.921875 1013.246094 1421.019531 1012.75 1421.121094 C 1012.152344 1421.339844 1011.539062 1421.578125 1010.921875 1421.816406 C 1009.175781 1422.472656 1007.425781 1422.988281 1005.621094 1422.589844 C 1005.460938 1422.628906 1005.300781 1422.667969 1005.125 1422.710938 C 1002.640625 1423.644531 1000.078125 1424.4375 997.496094 1425.113281 C 996.742188 1425.410156 995.929688 1425.609375 995.15625 1425.789062 C 994.578125 1425.984375 994.003906 1426.164062 993.40625 1426.324219 C 993.089844 1426.402344 992.773438 1426.421875 992.433594 1426.402344 C 991.957031 1426.503906 991.480469 1426.601562 991.003906 1426.699219 C 990.84375 1426.722656 990.667969 1426.761719 990.507812 1426.800781 C 988.78125 1427.375 987.070312 1427.992188 985.363281 1428.585938 C 983.378906 1429.261719 981.414062 1429.957031 979.445312 1430.671875 C 977.679688 1431.308594 975.972656 1432.023438 974.203125 1432.617188 C 974.023438 1432.679688 973.847656 1432.699219 973.648438 1432.71875 C 973.609375 1432.917969 973.507812 1433.117188 973.371094 1433.292969 C 973.011719 1433.691406 972.515625 1433.832031 972 1433.832031 C 971.683594 1433.832031 971.363281 1433.769531 971.066406 1433.730469 C 969.734375 1433.492188 968.40625 1433.234375 967.074219 1432.976562 C 966.757812 1432.996094 966.457031 1432.996094 966.179688 1433.015625 C 964.949219 1433.074219 963.71875 1433.117188 962.488281 1433.117188 C 960.0625 1433.09375 957.660156 1433.015625 955.257812 1432.878906 C 953.191406 1432.757812 951.128906 1432.578125 949.0625 1432.359375 C 948.109375 1432.261719 947.15625 1432.140625 946.203125 1432.023438 C 945.6875 1431.964844 945.171875 1431.882812 944.632812 1431.804688 C 944.039062 1431.707031 943.503906 1431.585938 942.964844 1431.40625 C 942.050781 1431.507812 941.117188 1431.585938 940.207031 1431.683594 C 938.894531 1431.804688 937.542969 1431.804688 936.253906 1431.46875 C 935.359375 1431.230469 934.484375 1430.792969 933.710938 1430.277344 C 932.261719 1430.535156 930.714844 1430.097656 929.285156 1429.859375 C 927.894531 1429.621094 926.503906 1429.34375 925.113281 1429.0625 C 922.273438 1428.507812 919.472656 1427.851562 916.652344 1427.21875 C 915.5 1426.9375 914.328125 1426.660156 913.15625 1426.382812 C 910.992188 1426.105469 908.808594 1425.828125 906.625 1425.527344 C 905.3125 1425.351562 904.082031 1424.695312 903.050781 1423.859375 C 902.058594 1423.601562 901.0625 1423.324219 900.089844 1423.046875 C 899.117188 1422.75 898.203125 1422.292969 897.390625 1421.695312 C 894.511719 1421.019531 891.351562 1420.207031 888.949219 1418.617188 C 888.574219 1418.519531 888.214844 1418.417969 887.859375 1418.339844 C 887.203125 1418.160156 886.546875 1417.984375 885.890625 1417.785156 C 881.523438 1417.683594 877.371094 1418.539062 873.578125 1421.101562 C 867.027344 1415.0625 844.167969 1423.800781 837.335938 1424.179688 C 833.367188 1424.675781 830.070312 1421.398438 826.453125 1420.285156 C 832.332031 1405.015625 824.25 1389.882812 816.445312 1364.125 C 807.132812 1335.371094 803.179688 1305.226562 797.519531 1275.617188 C 786.816406 1216.097656 787.769531 1155.449219 786.5 1095.101562 C 785.527344 1075.636719 787.890625 1056.296875 789.515625 1036.953125 C 789.914062 1024.800781 779.984375 1017.632812 769.679688 1017.632812 C 764.375 1017.632812 758.976562 1019.539062 754.824219 1023.628906 C 734.707031 1038.601562 723.289062 1061.398438 709.863281 1081.933594 C 692.648438 1105.664062 674 1128.542969 661.371094 1155.230469 C 661.429688 1154.617188 661.46875 1154.019531 661.546875 1153.40625 C 663.472656 1142.164062 665.878906 1131.0625 667.960938 1119.765625 C 668.261719 1116.785156 668.757812 1113.847656 669.410156 1110.988281 C 675.667969 1096.074219 682.996094 1081.554688 689.488281 1066.601562 C 690.363281 1066.144531 691.117188 1065.429688 691.613281 1064.515625 C 694.492188 1059.292969 697.3125 1054.050781 700.371094 1048.949219 C 702.675781 1045.292969 705.117188 1041.640625 707.621094 1037.984375 C 707.640625 1037.964844 707.640625 1037.945312 707.660156 1037.925781 C 714.015625 1029.347656 720.804688 1021.066406 727.460938 1012.707031 C 731.292969 1008.59375 735.003906 1004.40625 738.601562 1000.074219 C 739.671875 998.785156 740.726562 997.496094 741.777344 996.183594 C 753.296875 983.792969 765.984375 965.523438 769.242188 961.570312 C 770.074219 960.378906 770.910156 959.1875 771.722656 957.996094 C 783.71875 950.707031 801.375 908.070312 804.53125 900.980469 C 805.34375 898.777344 804.691406 896.910156 803.378906 895.71875 C 804.035156 894.945312 804.472656 893.992188 804.589844 892.9375 C 805.285156 888.925781 805.78125 884.933594 806.140625 880.902344 C 825.402344 800.078125 810.824219 782.484375 784.234375 700.109375 C 774.226562 674.53125 767.039062 657.75 753.929688 643.3125 C 771.027344 637.4375 790.292969 637.914062 808.164062 640.335938 C 827.507812 646.351562 843.75 659.9375 859.082031 673.082031 C 904.183594 710.753906 949.261719 761.671875 1011.957031 765.207031 C 1014.753906 768.402344 1017.613281 771.542969 1020.59375 774.582031 C 1031.695312 787.390625 1043.351562 800.238281 1050.996094 815.488281 C 1058.722656 830.203125 1061.285156 848.257812 1074.390625 859.535156 C 1079.238281 863.625 1084.28125 867.339844 1089.464844 870.734375 C 1097.445312 877.984375 1106.066406 884.953125 1115.71875 889.839844 C 1134.664062 902.667969 1156.109375 911.464844 1178.292969 917.285156 C 1186.355469 919.847656 1194.636719 921.933594 1202.976562 923.441406 C 1207.027344 924.832031 1211.15625 925.941406 1215.308594 926.996094 C 1223.011719 932.316406 1230.996094 937.660156 1240.210938 942.328125 Z M 1240.210938 942.328125 "/>
<path fill-rule="nonzero" fill="rgb(0%, 79.215688%, 93.725491%)" fill-opacity="1" d="M 734.371094 580.582031 C 741.9375 580.679688 740.605469 567.015625 732.921875 569.042969 C 726.425781 570.371094 727.835938 580.996094 734.371094 580.582031 Z M 757.644531 566.421875 C 757.742188 568.664062 757.328125 570.890625 756.550781 572.996094 C 756.292969 573.828125 755.976562 574.664062 755.597656 575.457031 C 755.378906 576.09375 755.0625 576.707031 754.664062 577.363281 C 754.148438 578.335938 753.554688 579.230469 752.898438 580.0625 C 749.421875 584.828125 744.257812 588.445312 738.777344 590.46875 C 737.804688 590.847656 736.773438 591.144531 735.699219 591.34375 C 734.410156 592.175781 733.019531 592.773438 731.53125 593.070312 C 730.496094 593.628906 729.425781 594.003906 728.253906 594.125 C 728.234375 594.125 728.195312 594.125 728.175781 594.125 C 728.09375 594.125 728.015625 594.125 727.914062 594.105469 C 727.339844 594.242188 726.746094 594.34375 726.167969 594.441406 C 725.433594 594.5625 724.71875 594.621094 723.984375 594.621094 C 723.167969 594.621094 722.355469 594.5625 721.519531 594.441406 C 720.230469 594.261719 718.878906 593.90625 717.789062 593.191406 C 717.074219 592.714844 716.457031 592.199219 715.921875 591.582031 C 713.617188 590.488281 711.671875 588.425781 711.117188 585.84375 C 710.460938 582.625 711.632812 579.171875 713.238281 576.410156 C 713.261719 576.410156 713.261719 576.390625 713.28125 576.371094 C 713.359375 576.09375 713.457031 575.835938 713.578125 575.554688 C 713.65625 575.316406 713.757812 575.078125 713.855469 574.859375 C 714.730469 572.796875 715.839844 570.871094 717.113281 569.003906 C 717.886719 567.890625 718.761719 566.878906 719.613281 565.84375 C 720.726562 564.554688 721.9375 563.304688 723.367188 562.371094 C 724.003906 561.851562 724.660156 561.375 725.355469 560.921875 C 726.1875 560.402344 727.0625 559.988281 727.996094 559.648438 C 729.625 558.597656 731.371094 557.742188 733.160156 557.027344 C 734.984375 556.292969 736.933594 555.796875 738.859375 555.796875 C 739.671875 555.796875 740.488281 555.875 741.300781 556.09375 C 741.699219 556.113281 742.074219 556.152344 742.453125 556.234375 C 744.777344 555.757812 747.257812 555.71875 749.503906 556.472656 C 752.082031 557.34375 754.03125 559.011719 755.460938 561.257812 C 756.789062 562.609375 757.566406 564.574219 757.644531 566.421875 Z M 757.644531 566.421875 "/>
</svg>
