<?xml version="1.0" encoding="UTF-8"?>
<!-- Created by grConvert v0.1-0 -->
<svg xmlns="http://www.w3.org/2000/svg" xmlns:xlink="http://www.w3.org/1999/xlink" width="2000" height="2000" viewBox="0 0 2000 2000">
<path fill-rule="nonzero" fill="rgb(0%, 0%, 0%)" fill-opacity="1" d="M 819.816406 581.777344 C 825.707031 578.722656 829.882812 586.40625 827.222656 589.144531 C 826.277344 590.839844 824.722656 592.257812 822.890625 592.59375 C 822.632812 592.652344 822.378906 592.671875 822.101562 592.671875 C 821.667969 592.671875 821.214844 592.613281 820.761719 592.472656 C 817.589844 591.765625 816.507812 588.515625 817.15625 585.640625 C 817.195312 585.539062 817.214844 585.421875 817.253906 585.324219 C 817.570312 584.160156 818.199219 583.078125 819.105469 582.308594 C 819.125 582.269531 819.144531 582.25 819.1875 582.25 C 819.382812 582.054688 819.597656 581.914062 819.816406 581.777344 Z M 819.816406 581.777344 "/>
<path fill-rule="nonzero" fill="rgb(0%, 0%, 0%)" fill-opacity="1" d="M 830.199219 584.890625 C 830.652344 588.808594 826.710938 592.082031 822.890625 592.59375 C 822.632812 592.632812 822.355469 592.671875 822.101562 592.671875 C 821.371094 592.710938 820.644531 592.632812 819.972656 592.414062 C 817.058594 591.214844 816.386719 588.277344 817.15625 585.640625 C 817.195312 585.539062 817.214844 585.421875 817.253906 585.324219 C 817.628906 584.199219 818.261719 583.136719 819.105469 582.308594 C 819.125 582.269531 819.144531 582.25 819.1875 582.25 C 820.011719 581.421875 821.019531 580.851562 822.160156 580.636719 C 825.6875 579.316406 829.488281 581.050781 830.199219 584.890625 Z M 830.199219 584.890625 "/>
<path fill-rule="nonzero" fill="rgb(0%, 0%, 0%)" fill-opacity="1" d="M 885.207031 1485.914062 C 877.601562 1479.769531 869.011719 1475.414062 859.183594 1474.214844 C 849.390625 1473.5625 841.867188 1482.921875 832.195312 1484.378906 C 810.191406 1490.070312 781.3125 1499.566406 762.890625 1481.148438 C 732.417969 1477.898438 738.664062 1439.660156 761.296875 1429.0625 C 777.960938 1417.398438 797.347656 1409.363281 812.613281 1395.847656 C 816.910156 1384.109375 812.140625 1370.671875 810.328125 1358.714844 C 760.332031 1321.03125 753.457031 1252.0625 749.8125 1193.988281 C 739.332031 1171.808594 724.992188 1151.476562 717.070312 1128.054688 C 713.878906 1154.453125 708.601562 1196.726562 673.988281 1195.957031 C 646.191406 1190.835938 636.539062 1151.359375 627.914062 1128.332031 C 613.53125 1082.882812 628.464844 1035.84375 637.484375 990.867188 C 644.875 964.214844 653.066406 937.757812 662.523438 911.753906 C 669.261719 892.882812 683.167969 877.164062 682.992188 856.339844 C 687.523438 818.398438 692.367188 780.636719 700.308594 743.207031 C 706.335938 715.332031 719.886719 687.417969 720.875 659.070312 C 709.191406 648.492188 698.691406 636.496094 686.539062 626.449219 C 670.109375 616.105469 628.738281 616.953125 640.183594 587.800781 C 634.589844 549.246094 701.410156 571.113281 717.703125 546.960938 C 737.242188 512.566406 769.292969 497.222656 808.496094 500.414062 C 838.539062 504.570312 874.960938 507.207031 893.734375 534.375 C 902.265625 548.125 911.308594 561.34375 923.660156 571.941406 C 943.476562 593.136719 948.246094 622.234375 955.121094 648.039062 C 959.15625 668.269531 967.964844 686.808594 976.375 705.523438 C 982.875 719.921875 986.699219 735.683594 995.324219 749.039062 C 1007.441406 767.082031 1022 783.75 1030.804688 803.824219 C 1047.195312 845.941406 1075.71875 882.421875 1087.441406 926.332031 C 1094.277344 949.617188 1098.925781 973.375 1105.976562 996.621094 C 1119.628906 1040.667969 1118.78125 1107.527344 1153.058594 1140.011719 C 1170.136719 1132.902344 1186.351562 1124.035156 1202.464844 1114.996094 C 1224.648438 1103.507812 1249.015625 1096.96875 1273.125 1090.980469 C 1286.976562 1083.652344 1304.804688 1076.601562 1319.085938 1075.101562 C 1331.0625 1072.660156 1346.171875 1069.113281 1354.976562 1080.5 C 1364.394531 1092.949219 1353.855469 1107.351562 1347.058594 1118.285156 C 1369.554688 1115.46875 1389.136719 1137.371094 1370.835938 1155.96875 C 1356.394531 1167.453125 1337.957031 1172.949219 1322.90625 1183.726562 C 1336.714844 1194.519531 1337.5625 1218.535156 1319.792969 1225.726562 C 1308.347656 1229.683594 1296.117188 1230.746094 1284.140625 1232.382812 C 1291.308594 1242.449219 1286.285156 1257.734375 1274.171875 1261.085938 C 1257.210938 1262.917969 1239.875 1256.808594 1222.734375 1256.476562 C 1221.691406 1294.832031 1174.078125 1273.632812 1153.570312 1264.277344 C 1140.707031 1286.242188 1112.8125 1296.582031 1088.246094 1293.136719 C 1083.144531 1320.953125 1072.566406 1347.898438 1057.457031 1371.796875 C 1051.152344 1383.476562 1037.699219 1392.855469 1037.402344 1406.703125 C 1035.175781 1431.03125 1035.945312 1469.445312 1016.9375 1485.679688 C 1007.363281 1492.515625 995.070312 1492.574219 984 1495.488281 C 971.882812 1496.671875 959.925781 1499.921875 947.730469 1500 C 925.332031 1497.339844 905.652344 1494.167969 885.207031 1485.914062 Z M 878.605469 1398.035156 C 889.738281 1413.363281 905.515625 1429.417969 902.816406 1449.984375 C 902.621094 1451.480469 901.734375 1452.742188 900.53125 1453.507812 C 902.226562 1454.472656 904.039062 1455.164062 906.105469 1455.339844 C 906.71875 1455.597656 907.328125 1455.832031 907.9375 1456.070312 C 915.640625 1441.589844 932.445312 1436.546875 946.234375 1429.890625 C 957.816406 1422.265625 962.722656 1408.398438 965.953125 1395.515625 C 971.410156 1378.019531 967.53125 1359.601562 962.171875 1342.679688 C 951.101562 1341.144531 940.050781 1342.957031 929.273438 1339.429688 C 912.46875 1336.140625 897.578125 1326.960938 881.109375 1322.921875 C 877.1875 1347.488281 877.859375 1373.3125 878.605469 1398.035156 Z M 1007.894531 1375.875 C 1008.839844 1376.289062 1009.546875 1376.859375 1010.023438 1377.527344 C 1017.824219 1365.316406 1028.125 1354.558594 1034.429688 1341.398438 C 1044.179688 1321.996094 1051.960938 1301.46875 1054.621094 1279.820312 C 1055.449219 1271.289062 1056.511719 1260.90625 1065.082031 1256.554688 C 1067.1875 1255.3125 1069.316406 1254.644531 1071.464844 1254.386719 C 1071.285156 1254.089844 1071.167969 1253.777344 1071.070312 1253.441406 C 1071.347656 1253.480469 1071.601562 1253.5 1071.878906 1253.5 C 1074.023438 1253.5 1075.875 1252.199219 1077.375 1250.308594 C 1077.808594 1249.757812 1078.203125 1249.167969 1078.574219 1248.554688 C 1079.1875 1247.945312 1079.699219 1247.316406 1079.953125 1246.941406 C 1080.210938 1246.566406 1080.445312 1246.171875 1080.664062 1245.777344 C 1082.574219 1244.261719 1083.816406 1241.78125 1084.625 1239.59375 C 1084.664062 1239.476562 1084.722656 1239.335938 1084.761719 1239.199219 C 1085.707031 1237.425781 1086.414062 1235.554688 1086.910156 1233.980469 C 1087.953125 1230.667969 1088.5625 1227.222656 1088.761719 1223.753906 C 1089.449219 1221.292969 1089.863281 1218.710938 1090.101562 1216.070312 C 1090.355469 1214.851562 1090.632812 1213.628906 1090.867188 1212.40625 C 1091.359375 1210.714844 1091.871094 1209.039062 1092.40625 1207.363281 C 1093.054688 1205.199219 1093.390625 1202.875 1093.488281 1200.507812 C 1094.769531 1194.480469 1095.871094 1188.394531 1096.816406 1182.269531 C 1097.429688 1180.140625 1097.800781 1178.109375 1097.980469 1176.613281 C 1098.648438 1170.824219 1099.199219 1165.03125 1099.574219 1159.199219 C 1099.890625 1158.371094 1100.046875 1157.445312 1099.949219 1156.421875 C 1099.910156 1156.046875 1099.832031 1155.671875 1099.734375 1155.320312 C 1099.773438 1152.855469 1099.671875 1150.394531 1099.359375 1147.972656 C 1099.339844 1145.726562 1099.160156 1143.5 1098.808594 1141.292969 C 1098.886719 1140.40625 1098.964844 1139.519531 1099.0625 1138.613281 C 1099.261719 1136.40625 1099.300781 1134.179688 1099.179688 1131.9375 C 1099.574219 1129.335938 1099.496094 1126.695312 1098.609375 1124.429688 C 1098.550781 1124.273438 1098.472656 1124.136719 1098.414062 1123.976562 C 1098.375 1123.542969 1098.355469 1123.089844 1098.3125 1122.636719 C 1097.921875 1118.304688 1096.875 1112.53125 1093.664062 1109.085938 C 1093.46875 1108.671875 1093.25 1108.257812 1093.015625 1107.84375 C 1091.734375 1105.695312 1089.507812 1102.957031 1086.691406 1102.976562 C 1084.640625 1102.988281 1082.65625 1103.539062 1080.777344 1104.386719 C 1077.441406 1103.601562 1075.011719 1105.542969 1072.390625 1107.371094 C 1072.128906 1107.507812 1071.863281 1107.644531 1071.597656 1107.773438 C 1070.972656 1099.097656 1070.589844 1090.386719 1070.480469 1081.644531 C 1070.339844 1066.769531 1060.453125 1025.65625 1072.351562 1016.261719 C 1072.921875 1015.964844 1073.472656 1015.789062 1074.003906 1015.710938 C 1069.433594 998.039062 1065.4375 980.132812 1060.867188 962.402344 C 1041.738281 939.707031 1031.511719 910.949219 1014.613281 886.558594 C 1013.804688 895.699219 1011.460938 912.523438 998.554688 908.109375 C 988.960938 902.8125 986.460938 890.5 981.378906 881.496094 C 972.613281 863.414062 966.566406 844.109375 963.019531 824.367188 C 954.648438 796.574219 958.152344 763.222656 938.453125 740.074219 C 927.421875 727.546875 912.941406 720.375 898.898438 712.003906 C 888.613281 706.289062 879.355469 698.648438 868.207031 694.589844 C 841.394531 685.449219 813.835938 693.78125 786.886719 697.191406 C 780.699219 697.976562 761.925781 700.855469 749.851562 698.960938 C 743.488281 722.601562 734.09375 745.789062 731.453125 770.15625 C 722.46875 807.425781 721.289062 845.78125 714.746094 883.46875 C 710.648438 895.246094 702.847656 907.835938 697.273438 919.890625 C 697.429688 929.859375 699.5 939.789062 700.523438 949.714844 C 703.320312 972.667969 705.644531 995.851562 710.234375 1018.488281 C 711.871094 1026.523438 714.136719 1034.402344 716.875 1041.929688 C 717.9375 1044.175781 718.648438 1047.109375 717.484375 1049.199219 C 718.332031 1049.632812 719.140625 1050.144531 719.929688 1050.734375 C 732.652344 1063.027344 736.96875 1081.9375 743.488281 1097.972656 C 751.289062 1122.855469 763.601562 1145.6875 776.484375 1168.222656 C 785.921875 1182.640625 786.355469 1199.503906 786.550781 1216.171875 C 789.839844 1253.777344 796.777344 1289.273438 818.917969 1319.613281 C 825.988281 1327.019531 835.523438 1331.84375 841.039062 1340.75 C 842.28125 1344.667969 843.402344 1348.394531 844.371094 1351.957031 C 851.558594 1351.878906 858.078125 1350.914062 864.976562 1348.746094 C 866.394531 1348.394531 867.632812 1348.589844 868.621094 1349.140625 C 868.660156 1347.820312 868.679688 1346.519531 868.679688 1345.203125 C 870.292969 1335.292969 866.492188 1312.164062 881.445312 1312.757812 C 900.21875 1316.558594 916.765625 1327.355469 935.792969 1330.644531 C 945.878906 1333.105469 956.734375 1330.40625 966.625 1333.539062 C 966.9375 1333.714844 967.234375 1333.914062 967.472656 1334.128906 C 968.769531 1334.445312 969.992188 1335.371094 970.839844 1337.085938 C 974.347656 1347.269531 977.242188 1358.046875 978.265625 1368.898438 C 978.421875 1368.859375 978.582031 1368.820312 978.738281 1368.800781 C 981.0625 1367.777344 983.347656 1367.34375 985.574219 1367.34375 C 993.433594 1367.34375 1000.722656 1372.664062 1007.894531 1375.875 Z M 826.953125 541.957031 C 821.105469 548.378906 818.347656 556.910156 815.035156 564.789062 C 811.511719 574.285156 806.035156 583.976562 807.414062 594.417969 C 807.847656 597.824219 812.121094 597.886719 814.820312 598.277344 C 823.054688 599.222656 831.742188 595.875 838.183594 591.207031 C 848.566406 584.175781 857.84375 575.703125 867.398438 567.605469 C 869.050781 566.207031 871.476562 566.285156 873.210938 567.390625 C 869.78125 562.011719 866.765625 556.910156 862.789062 551.847656 C 853.84375 544.675781 842.28125 540.972656 830.265625 538.847656 C 829.773438 540.324219 828.648438 541.523438 826.953125 541.957031 Z M 826.953125 541.957031 "/>
<path fill-rule="nonzero" fill="rgb(0%, 0%, 0%)" fill-opacity="1" d="M 1071.226562 1052.652344 C 1060.300781 1033.484375 1047.945312 1020.4375 1034.863281 1003.777344 C 1011.550781 968.625 994.011719 929.519531 982.066406 889.109375 C 979.257812 880.222656 978.574219 870.90625 977.34375 861.738281 C 974.835938 845.910156 963.601562 822.183594 980.550781 811.15625 C 988.765625 806.40625 1000.011719 809.074219 1004.703125 817.480469 C 1008.476562 824.074219 1006.265625 832.191406 1008.285156 839.363281 C 1013.875 863.347656 1015.835938 888.082031 1026.765625 910.621094 C 1036.5 935.507812 1047.855469 959.996094 1062.820312 982.214844 C 1076.570312 999.492188 1090.78125 1015.566406 1101.703125 1034.824219 C 1112.941406 1054.910156 1083.609375 1072.414062 1071.226562 1052.652344 Z M 1071.226562 1052.652344 "/>
<path fill-rule="nonzero" fill="rgb(0%, 0%, 0%)" fill-opacity="1" d="M 1063.53125 994.722656 C 1051.085938 992.964844 1046.769531 979.765625 1040.917969 970.414062 C 1026.011719 944.898438 1012.359375 918.535156 1001.894531 890.867188 C 998.464844 881.882812 1002.1875 871.582031 1011.269531 867.71875 C 1027.601562 861.75 1034.871094 875.449219 1039.078125 888.765625 C 1050.984375 895.035156 1053.226562 910.664062 1059.578125 921.554688 C 1069.996094 929.25 1071.234375 945.601562 1076.226562 957.039062 C 1079.394531 964.28125 1084.558594 971.351562 1083.429688 979.632812 C 1082.050781 988.820312 1072.929688 996.550781 1063.53125 994.722656 Z M 1063.53125 994.722656 "/>
<path fill-rule="nonzero" fill="rgb(0%, 0%, 0%)" fill-opacity="1" d="M 1054.125 1096.898438 C 1025.707031 1081.925781 1011.832031 1026.789062 1003.105469 997.257812 C 985.917969 952.894531 979.089844 905.058594 973.558594 858.082031 C 972.183594 843.007812 988.109375 825.101562 1003.34375 834.304688 C 1013.0625 840.269531 1013.6875 852.269531 1016.433594 862.265625 C 1028.304688 866.058594 1029.742188 879.53125 1029.308594 890.308594 C 1029.0625 900.988281 1031 911.554688 1031.765625 922.125 C 1026.804688 949.460938 1031.042969 981.007812 1046.394531 1004.769531 C 1056.621094 1000.214844 1069.097656 1006.90625 1071.183594 1017.875 C 1081.882812 1007.785156 1100.859375 1016.328125 1100.480469 1031.082031 C 1099.898438 1037.941406 1100.863281 1044.792969 1100.992188 1051.667969 C 1101.363281 1059.730469 1101.195312 1067.542969 1099.484375 1075.382812 C 1100.566406 1081.007812 1099.101562 1087.105469 1094.6875 1091.101562 C 1083.175781 1102.566406 1068.449219 1106.335938 1054.125 1096.898438 Z M 1054.125 1096.898438 "/>
<path fill-rule="nonzero" fill="rgb(0%, 0%, 0%)" fill-opacity="1" d="M 1049.335938 1114.648438 C 1049.1875 1114.605469 1049.039062 1114.570312 1048.886719 1114.539062 C 1006.136719 1098.179688 985.847656 1045.367188 973.023438 1003.917969 C 956.867188 946.710938 960.257812 886.84375 970.382812 828.988281 C 971.308594 805.800781 1005.09375 805.722656 1005.683594 828.988281 C 1005.46875 839.566406 1003.121094 849.867188 1001.269531 860.230469 C 993.726562 910.820312 995.300781 960.324219 1011.398438 1008.269531 C 1022.390625 1037.328125 1036 1075.132812 1067.992188 1083.820312 C 1069.589844 1071.820312 1085.03125 1065.695312 1094.429688 1073.378906 C 1106.484375 1085.21875 1103.628906 1100.207031 1094.035156 1109.78125 C 1093.898438 1109.625 1093.757812 1109.449219 1093.621094 1109.289062 C 1093.40625 1108.855469 1093.1875 1108.421875 1092.933594 1107.988281 C 1091.652344 1105.84375 1089.425781 1103.105469 1086.609375 1103.125 C 1084.640625 1103.132812 1082.734375 1103.640625 1080.921875 1104.429688 C 1077.511719 1103.554688 1075.042969 1105.523438 1072.386719 1107.378906 C 1070.710938 1108.246094 1068.957031 1108.953125 1067.285156 1109.941406 C 1064.960938 1111.320312 1062.4375 1112.382812 1059.875 1113.308594 C 1058.183594 1113.761719 1056.46875 1113.976562 1054.832031 1114.746094 C 1054.664062 1114.828125 1054.492188 1114.910156 1054.320312 1114.992188 C 1053.753906 1114.949219 1053.160156 1114.988281 1052.546875 1115.121094 C 1052.277344 1115.191406 1052.019531 1115.261719 1051.761719 1115.355469 C 1050.941406 1115.148438 1050.125 1114.859375 1049.335938 1114.648438 Z M 1049.335938 1114.648438 "/>
<path fill-rule="nonzero" fill="rgb(0%, 0%, 0%)" fill-opacity="1" d="M 1065.660156 1095.625 C 1062.589844 1092.546875 1061.015625 1088.882812 1060.667969 1085.078125 C 1030.398438 1051.863281 1073.050781 1025.363281 1084.828125 1056.898438 C 1096.164062 1061.421875 1096.867188 1076.605469 1095.367188 1086.871094 C 1092.992188 1100.042969 1074.964844 1105.554688 1065.660156 1095.625 Z M 1065.660156 1095.625 "/>
<path fill-rule="nonzero" fill="rgb(0%, 0%, 0%)" fill-opacity="1" d="M 1057.195312 1116.988281 C 1050.378906 1116.0625 1044.667969 1112.417969 1041.867188 1105.976562 C 1041.554688 1105.285156 1041.257812 1104.578125 1040.941406 1103.886719 C 1040.195312 1102.175781 1039.445312 1100.441406 1038.695312 1098.726562 C 1037.238281 1095.398438 1035.78125 1092.066406 1034.324219 1088.738281 C 1027.664062 1073.511719 1020.890625 1058.324219 1014.507812 1042.976562 C 1014.078125 1041.949219 1013.785156 1040.917969 1013.5625 1039.871094 C 1012.792969 1037.230469 1012.035156 1034.578125 1011.296875 1031.925781 C 1010.824219 1030.195312 1010.273438 1028.390625 1009.804688 1026.554688 C 1009.105469 1025.453125 1008.53125 1024.269531 1008.105469 1023.023438 C 1005.347656 1015.003906 1009.070312 1005.941406 1016.632812 1002.160156 C 1024.238281 998.378906 1033.714844 1000.917969 1038.441406 1007.933594 C 1040.039062 1010.308594 1040.976562 1013.148438 1041.226562 1016.058594 C 1041.703125 1017.203125 1042.148438 1018.355469 1042.597656 1019.476562 C 1043.65625 1022.125 1044.597656 1024.820312 1045.621094 1027.472656 C 1045.621094 1027.472656 1045.640625 1027.523438 1045.640625 1027.523438 C 1047.492188 1030.683594 1048.847656 1034.125 1050.359375 1037.480469 C 1052.210938 1041.597656 1054.003906 1045.734375 1055.816406 1049.851562 C 1058.949219 1057.023438 1062.082031 1064.195312 1065.210938 1071.363281 C 1065.582031 1072.210938 1065.949219 1073.054688 1066.320312 1073.902344 C 1070.441406 1066.515625 1079.351562 1062.699219 1087.648438 1065.613281 C 1096.59375 1068.765625 1101.832031 1079.105469 1098.464844 1088.128906 C 1097.914062 1089.585938 1097.363281 1091.0625 1096.828125 1092.539062 C 1096.4375 1093.566406 1096.0625 1094.589844 1095.667969 1095.613281 C 1093.992188 1100.105469 1090.820312 1103.632812 1087.886719 1107.335938 C 1083.984375 1112.261719 1079.457031 1116.613281 1072.578125 1116.769531 C 1070.964844 1116.789062 1069.328125 1116.832031 1067.714844 1116.871094 C 1065.347656 1116.910156 1062.789062 1117.171875 1060.320312 1117.171875 C 1059.253906 1117.171875 1058.203125 1117.125 1057.195312 1116.988281 Z M 1057.195312 1116.988281 "/>
<path fill-rule="nonzero" fill="rgb(0%, 0%, 0%)" fill-opacity="1" d="M 1041.164062 1111.09375 C 1035.195312 1103.472656 1034.585938 1092.675781 1037.324219 1083.671875 C 1037.617188 1082.699219 1037.980469 1081.761719 1038.40625 1080.863281 C 1040.234375 1075.742188 1042.519531 1070.878906 1045.992188 1066.515625 C 1046.3125 1066.113281 1046.648438 1065.726562 1046.996094 1065.355469 C 1050.144531 1061.777344 1053.414062 1058.609375 1057.4375 1055.976562 C 1065.453125 1050.695312 1076.898438 1054.222656 1081.609375 1062.222656 C 1084.921875 1067.851562 1084.652344 1074.234375 1081.796875 1079.449219 C 1082.175781 1079.695312 1082.542969 1079.949219 1082.90625 1080.226562 C 1090.53125 1086 1092.148438 1097.34375 1086.277344 1104.949219 C 1085.25 1106.308594 1084.109375 1107.570312 1082.964844 1108.808594 C 1082.613281 1109.191406 1082.242188 1109.550781 1081.859375 1109.886719 C 1079.710938 1111.988281 1077.363281 1113.871094 1074.792969 1115.507812 C 1070.230469 1118.410156 1064.972656 1119.929688 1059.800781 1119.929688 C 1052.757812 1119.929688 1045.878906 1117.105469 1041.164062 1111.09375 Z M 1041.164062 1111.09375 "/>
<path fill-rule="nonzero" fill="rgb(0%, 0%, 0%)" fill-opacity="1" d="M 1067.25 1111.515625 C 1048.269531 1106.746094 1051.523438 1077.457031 1071.121094 1076.945312 C 1101.390625 1074.316406 1096.609375 1118.585938 1067.25 1111.515625 Z M 1067.25 1111.515625 "/>
<path fill-rule="nonzero" fill="rgb(0%, 0%, 0%)" fill-opacity="1" d="M 1045.453125 1110.363281 C 1025.28125 1091.527344 1052.816406 1070.566406 1072.796875 1077.25 C 1081.464844 1080.914062 1086.152344 1091.628906 1082.191406 1100.378906 C 1076.457031 1112.808594 1056.628906 1118.582031 1045.453125 1110.363281 Z M 1045.453125 1110.363281 "/>
<path fill-rule="nonzero" fill="rgb(0%, 0%, 0%)" fill-opacity="1" d="M 1056.703125 1117.257812 C 1048.960938 1117.1875 1043.164062 1112.433594 1037.339844 1108.078125 C 1026.765625 1098.433594 1033.683594 1079.324219 1047.75 1078.125 C 1055.53125 1075.3125 1061.726562 1080.480469 1067.578125 1084.515625 C 1083.707031 1094.101562 1074.621094 1118.144531 1056.703125 1117.257812 Z M 1056.703125 1117.257812 "/>
<path fill-rule="nonzero" fill="rgb(0%, 0%, 0%)" fill-opacity="1" d="M 1042.542969 1116.230469 C 1027.605469 1105.519531 1039.53125 1080.699219 1057.175781 1084.886719 C 1087.097656 1091.761719 1067.636719 1133.714844 1042.542969 1116.230469 Z M 1042.542969 1116.230469 "/>
<path fill-rule="nonzero" fill="rgb(0%, 0%, 0%)" fill-opacity="1" d="M 1040.882812 1114.386719 C 1040.660156 1114.238281 1040.441406 1114.09375 1040.21875 1113.949219 C 1039.503906 1113.371094 1038.824219 1112.738281 1038.1875 1112.050781 C 1038.390625 1112.28125 1038.59375 1112.511719 1038.800781 1112.742188 C 1039.199219 1113.101562 1039.597656 1113.449219 1039.988281 1113.792969 C 1016.773438 1101.109375 1036.144531 1068.136719 1057.761719 1083.042969 C 1081.804688 1096.136719 1062.828125 1129.695312 1040.25 1113.96875 C 1040.25 1113.96875 1040.882812 1114.386719 1040.882812 1114.386719 Z M 1040.882812 1114.386719 "/>
<path fill-rule="nonzero" fill="rgb(0%, 0%, 0%)" fill-opacity="1" d="M 1044.417969 1112.539062 C 1029.847656 1108.359375 1020.054688 1088.113281 1033.9375 1077.433594 C 1041.207031 1071.800781 1052.492188 1072.792969 1058.285156 1080.066406 C 1076.679688 1090.113281 1064.257812 1118.761719 1044.417969 1112.539062 Z M 1037.289062 1083.070312 C 1036.8125 1083.707031 1036.105469 1084.292969 1035.664062 1085.007812 C 1038.175781 1081.707031 1041.753906 1079.40625 1042.84375 1079.324219 C 1040.75 1080.261719 1038.957031 1081.496094 1037.289062 1083.070312 Z M 1037.289062 1083.070312 "/>
<path fill-rule="nonzero" fill="rgb(0%, 0%, 0%)" fill-opacity="1" d="M 1038.96875 1100.183594 C 1010.742188 1087.488281 1031.757812 1049.695312 1055.359375 1068.761719 C 1072.929688 1080.515625 1058.90625 1108.328125 1038.96875 1100.183594 Z M 1038.96875 1100.183594 "/>
<path fill-rule="nonzero" fill="rgb(0%, 0%, 0%)" fill-opacity="1" d="M 642.660156 592.257812 C 634.398438 580.855469 652.800781 569.140625 659.796875 581.265625 C 665.777344 592.132812 650.152344 602.082031 642.660156 592.257812 Z M 642.660156 592.257812 "/>
<path fill-rule="nonzero" fill="rgb(0%, 0%, 0%)" fill-opacity="1" d="M 632.679688 586.65625 C 632.78125 581.097656 637.429688 576.726562 642.925781 576.726562 C 648.421875 576.726562 652.933594 581.53125 652.851562 586.96875 C 652.753906 592.523438 648.105469 596.898438 642.609375 596.898438 C 637.113281 596.898438 632.601562 592.089844 632.679688 586.65625 Z M 632.679688 586.65625 "/>
<path fill-rule="nonzero" fill="rgb(0%, 0%, 0%)" fill-opacity="1" d="M 642.089844 586.40625 C 640.480469 572.214844 665.402344 570.601562 665.117188 585.125 C 665.070312 597.75 643.429688 599.167969 642.089844 586.40625 Z M 642.089844 586.40625 "/>
<path fill-rule="nonzero" fill="rgb(0%, 0%, 0%)" fill-opacity="1" d="M 650.726562 590.820312 C 640.8125 591 637.113281 576.476562 646.039062 572.027344 C 664.753906 563.03125 672.109375 591.953125 650.726562 590.820312 Z M 650.726562 590.820312 "/>
<path fill-rule="nonzero" fill="rgb(0%, 0%, 0%)" fill-opacity="1" d="M 632.84375 580.703125 C 632.941406 575.148438 637.589844 570.773438 643.085938 570.773438 C 648.582031 570.773438 653.09375 575.582031 653.015625 581.015625 C 652.917969 586.574219 648.265625 590.945312 642.769531 590.945312 C 637.273438 590.945312 632.765625 586.140625 632.84375 580.703125 Z M 632.84375 580.703125 "/>
<path fill-rule="nonzero" fill="rgb(0%, 0%, 0%)" fill-opacity="1" d="M 634.707031 590.398438 C 630.296875 582.535156 637.652344 576.3125 644.300781 573.296875 C 649.046875 570.539062 655.390625 572.53125 658.011719 577.238281 C 664.878906 589.25 641.402344 602.90625 634.707031 590.398438 Z M 634.707031 590.398438 "/>
<path fill-rule="nonzero" fill="rgb(0%, 0%, 0%)" fill-opacity="1" d="M 642.691406 595.789062 C 626.46875 593.800781 632.363281 572.855469 647.105469 575.023438 C 661.4375 578.710938 656.488281 596.390625 642.691406 595.789062 Z M 642.691406 595.789062 "/>
<path fill-rule="nonzero" fill="rgb(0%, 0%, 0%)" fill-opacity="1" d="M 628.875 591.894531 C 625.5625 577.113281 650.542969 573.996094 650.660156 589.3125 C 650.597656 601.070312 631.558594 603.550781 628.875 591.894531 Z M 628.875 591.894531 "/>
<path fill-rule="nonzero" fill="rgb(0%, 0%, 0%)" fill-opacity="1" d="M 641.605469 596.828125 C 629.003906 596.835938 627.800781 578.257812 640.308594 576.730469 C 655.921875 574.628906 657.304688 597.855469 641.605469 596.828125 Z M 641.605469 596.828125 "/>
<path fill-rule="nonzero" fill="rgb(0%, 0%, 0%)" fill-opacity="1" d="M 638.628906 595.25 C 624.398438 595.578125 624.457031 574.84375 638.660156 575.074219 C 654.066406 573.984375 654.078125 596.894531 638.628906 595.25 Z M 638.628906 595.25 "/>
<path fill-rule="nonzero" fill="rgb(0%, 0%, 0%)" fill-opacity="1" d="M 628.515625 590.09375 C 625.140625 581.566406 633.917969 574.714844 641.972656 575.613281 C 653.886719 577.210938 652.933594 595.191406 640.992188 595.605469 C 641.214844 595.605469 641.4375 595.609375 641.65625 595.609375 C 641.65625 595.609375 641.636719 595.628906 641.636719 595.628906 C 642.015625 595.558594 642.378906 595.492188 642.753906 595.421875 C 643.042969 595.328125 643.339844 595.230469 643.625 595.136719 C 638.09375 597.675781 630.945312 596.40625 628.515625 590.09375 Z M 628.515625 590.09375 "/>
<path fill-rule="nonzero" fill="rgb(0%, 0%, 0%)" fill-opacity="1" d="M 633.945312 598.117188 C 625.984375 590.789062 634.230469 577.117188 644.40625 580.800781 C 660.632812 586.703125 646.597656 609.269531 633.945312 598.117188 Z M 633.945312 598.117188 "/>
<path fill-rule="nonzero" fill="rgb(0%, 0%, 0%)" fill-opacity="1" d="M 634.402344 592.476562 C 634.5 586.917969 639.152344 582.546875 644.648438 582.546875 C 650.144531 582.546875 654.652344 587.351562 654.574219 592.789062 C 654.476562 598.34375 649.828125 602.71875 644.332031 602.71875 C 638.835938 602.71875 634.324219 597.910156 634.402344 592.476562 Z M 634.402344 592.476562 "/>
<path fill-rule="nonzero" fill="rgb(0%, 0%, 0%)" fill-opacity="1" d="M 632.511719 594.097656 C 632.609375 588.542969 637.257812 584.171875 642.753906 584.171875 C 648.25 584.171875 652.761719 588.976562 652.683594 594.414062 C 652.585938 599.96875 647.9375 604.34375 642.441406 604.34375 C 636.941406 604.34375 632.433594 599.535156 632.511719 594.097656 Z M 632.511719 594.097656 "/>
<path fill-rule="nonzero" fill="rgb(0%, 0%, 0%)" fill-opacity="1" d="M 631.082031 594.484375 C 631.179688 588.929688 635.828125 584.558594 641.324219 584.558594 C 646.820312 584.558594 651.332031 589.363281 651.253906 594.800781 C 651.15625 600.355469 646.507812 604.730469 641.011719 604.730469 C 635.515625 604.730469 631.003906 599.921875 631.082031 594.484375 Z M 631.082031 594.484375 "/>
<path fill-rule="nonzero" fill="rgb(0%, 0%, 0%)" fill-opacity="1" d="M 646.558594 606.320312 C 632.515625 605.707031 634.074219 584.742188 648.230469 586.246094 C 660.523438 587.988281 658.894531 606.6875 646.558594 606.320312 Z M 646.558594 606.320312 "/>
<path fill-rule="nonzero" fill="rgb(0%, 0%, 0%)" fill-opacity="1" d="M 641.53125 605.773438 C 628.863281 598.558594 640.804688 580.308594 652.464844 588.820312 C 662.726562 596.203125 652.480469 612 641.53125 605.773438 Z M 641.53125 605.773438 "/>
<path fill-rule="nonzero" fill="rgb(0%, 0%, 0%)" fill-opacity="1" d="M 643.09375 607.617188 C 627.328125 604.464844 635.183594 581.660156 649.472656 588.878906 C 649.472656 588.867188 649.476562 588.859375 649.480469 588.851562 C 659.160156 594.078125 653.820312 609.296875 643.09375 607.617188 Z M 643.09375 607.617188 "/>
<path fill-rule="nonzero" fill="rgb(0%, 0%, 0%)" fill-opacity="1" d="M 651.277344 594.785156 C 634.085938 585.335938 653.585938 566.082031 665.332031 580.644531 C 672.167969 589.734375 660.394531 601.5625 651.277344 594.785156 Z M 651.277344 594.785156 "/>
<path fill-rule="nonzero" fill="rgb(0%, 0%, 0%)" fill-opacity="1" d="M 656.054688 591.800781 C 640.050781 592.261719 640.574219 570.753906 656.367188 571.628906 C 669.617188 572.183594 669.277344 591.722656 656.054688 591.800781 Z M 656.054688 591.800781 "/>
<path fill-rule="nonzero" fill="rgb(0%, 0%, 0%)" fill-opacity="1" d="M 640.320312 581.273438 C 635.636719 569.199219 654.601562 561.816406 662.421875 569.691406 C 666.246094 573.628906 666.265625 580.070312 662.324219 583.953125 C 660.164062 586.070312 657.1875 587.019531 654.3125 586.773438 C 648.992188 588.867188 642.414062 586.902344 640.320312 581.273438 Z M 640.320312 581.273438 "/>
<path fill-rule="nonzero" fill="rgb(0%, 0%, 0%)" fill-opacity="1" d="M 634.902344 584.21875 C 632.339844 579.589844 634.882812 573.109375 640.242188 571.984375 C 640.902344 571.847656 641.5625 571.738281 642.230469 571.636719 C 647.273438 565.945312 657.324219 568.4375 659.054688 575.90625 C 660.878906 583.144531 653.441406 590.40625 646.25 587.515625 C 642.296875 589.617188 637.148438 588.296875 634.902344 584.21875 Z M 634.902344 584.21875 "/>
<path fill-rule="nonzero" fill="rgb(0%, 0%, 0%)" fill-opacity="1" d="M 634.359375 585.164062 C 627.300781 570.789062 651.871094 563.492188 660.597656 571.730469 C 667.824219 578.902344 660.34375 591.183594 650.667969 588.636719 C 648.074219 588.628906 645.90625 590.589844 643.300781 590.429688 C 639.707031 590.429688 636.101562 588.296875 634.359375 585.164062 Z M 634.359375 585.164062 "/>
<path fill-rule="nonzero" fill="rgb(0%, 0%, 0%)" fill-opacity="1" d="M 628.21875 589.617188 C 623.414062 579.917969 632.492188 574.601562 640.726562 572.515625 C 648.195312 568.578125 660.089844 570.398438 660.03125 580.710938 C 659.96875 586.445312 655.011719 590.699219 649.453125 590.847656 C 642.246094 593.347656 633.191406 598.378906 628.21875 589.617188 Z M 628.21875 589.617188 "/>
<path fill-rule="nonzero" fill="rgb(0%, 0%, 0%)" fill-opacity="1" d="M 626.875 588.113281 C 623.523438 574.996094 646.28125 569.375 649.410156 582.558594 C 652.746094 595.734375 630.0625 601.367188 626.875 588.113281 Z M 626.875 588.113281 "/>
<path fill-rule="nonzero" fill="rgb(0%, 0%, 0%)" fill-opacity="1" d="M 629.785156 590.402344 C 626.378906 577.414062 647.664062 571.328125 651.058594 584.6875 C 653.949219 597.546875 633.535156 603.808594 629.785156 590.402344 Z M 629.785156 590.402344 "/>
<path fill-rule="nonzero" fill="rgb(0%, 0%, 0%)" fill-opacity="1" d="M 638.523438 598.636719 C 626.316406 592.820312 634.265625 575.449219 646.660156 579.527344 C 661.027344 584.847656 652.097656 604.050781 638.523438 598.636719 Z M 638.523438 598.636719 "/>
<path fill-rule="nonzero" fill="rgb(0%, 0%, 0%)" fill-opacity="1" d="M 639.394531 600.355469 C 639.277344 600.316406 639.160156 600.277344 639.039062 600.234375 C 639.0625 600.242188 639.085938 600.246094 639.109375 600.25 C 625.671875 596.550781 631.5625 576.988281 644.8125 580.910156 C 657.488281 584.921875 652.136719 603.679688 639.394531 600.355469 Z M 639.394531 600.355469 "/>
<path fill-rule="nonzero" fill="rgb(0%, 0%, 0%)" fill-opacity="1" d="M 632.863281 593.386719 C 629.863281 585.9375 636.691406 578.859375 644.171875 579.105469 C 655.976562 579.242188 657.5625 596.515625 646.21875 599.019531 C 641.105469 601.039062 634.945312 598.734375 632.863281 593.386719 Z M 632.863281 593.386719 "/>
<path fill-rule="nonzero" fill="rgb(0%, 0%, 0%)" fill-opacity="1" d="M 653.882812 592.285156 C 653.332031 587.222656 657.171875 581.84375 662.472656 581.53125 C 671.421875 581.363281 686.359375 576.59375 688.339844 589.371094 C 688.910156 594.589844 684.929688 600.203125 679.433594 600.519531 C 670.664062 600.203125 655.773438 604.628906 653.882812 592.285156 Z M 653.882812 592.285156 "/>
<path fill-rule="nonzero" fill="rgb(0%, 0%, 0%)" fill-opacity="1" d="M 1326.230469 1088.832031 C 1326.222656 1078.757812 1341.277344 1073.566406 1346.480469 1082.824219 C 1349.671875 1088.234375 1346.925781 1094.835938 1341.496094 1097.460938 C 1342.230469 1096.972656 1343.015625 1096.480469 1343.566406 1095.789062 C 1337.75 1102.363281 1325.964844 1097.636719 1326.230469 1088.832031 Z M 1326.230469 1088.832031 "/>
<path fill-rule="nonzero" fill="rgb(0%, 0%, 0%)" fill-opacity="1" d="M 1336.148438 1089.433594 C 1332.011719 1082.476562 1337.648438 1074.160156 1345.386719 1073.832031 C 1358.875 1072.59375 1361.066406 1091.75 1347.792969 1093.964844 C 1347.980469 1093.898438 1348.167969 1093.832031 1348.359375 1093.765625 C 1343.824219 1095.207031 1338.734375 1093.863281 1336.148438 1089.433594 Z M 1336.148438 1089.433594 "/>
<path fill-rule="nonzero" fill="rgb(0%, 0%, 0%)" fill-opacity="1" d="M 1342.851562 1095.4375 C 1328.363281 1094.382812 1330.203125 1074.789062 1344.503906 1074.933594 C 1349.839844 1073.597656 1355.4375 1076.589844 1356.914062 1081.96875 C 1359.339844 1090.613281 1350.453125 1096.019531 1342.851562 1095.4375 Z M 1342.851562 1095.4375 "/>
<path fill-rule="nonzero" fill="rgb(0%, 0%, 0%)" fill-opacity="1" d="M 1349.53125 1082.683594 C 1349.53125 1077.1875 1354.121094 1072.597656 1359.617188 1072.597656 C 1365.113281 1072.597656 1369.703125 1077.1875 1369.703125 1082.683594 C 1369.703125 1088.179688 1365.113281 1092.769531 1359.617188 1092.769531 C 1354.121094 1092.769531 1349.53125 1088.179688 1349.53125 1082.683594 Z M 1349.53125 1082.683594 "/>
<path fill-rule="nonzero" fill="rgb(0%, 0%, 0%)" fill-opacity="1" d="M 1334.503906 1093.300781 C 1321.9375 1091.933594 1322.722656 1073.417969 1335.414062 1073.171875 C 1344.765625 1073.0625 1359.289062 1064.394531 1362.5 1079 C 1363.554688 1086.535156 1356.714844 1090.945312 1349.910156 1090.941406 C 1344.867188 1092.15625 1339.777344 1094.628906 1334.503906 1093.300781 Z M 1334.503906 1093.300781 "/>
<path fill-rule="nonzero" fill="rgb(0%, 0%, 0%)" fill-opacity="1" d="M 1349.859375 1097.035156 C 1348.847656 1096.449219 1347.964844 1095.679688 1347.234375 1094.789062 C 1339.65625 1094.855469 1332.894531 1087.480469 1336.105469 1079.957031 C 1339.777344 1071.128906 1349.738281 1074.386719 1356.890625 1075.703125 C 1372.890625 1079.753906 1364.667969 1104.324219 1349.859375 1097.035156 Z M 1349.859375 1097.035156 "/>
<path fill-rule="nonzero" fill="rgb(0%, 0%, 0%)" fill-opacity="1" d="M 1328.511719 1106.351562 C 1322.449219 1098.402344 1330.574219 1091.242188 1336.824219 1086.847656 C 1341.121094 1083.421875 1347.660156 1084.386719 1350.988281 1088.679688 C 1357.132812 1096.945312 1348.898438 1103.492188 1342.675781 1108.164062 C 1338.515625 1111.738281 1331.75 1110.539062 1328.511719 1106.351562 Z M 1328.511719 1106.351562 "/>
<path fill-rule="nonzero" fill="rgb(0%, 0%, 0%)" fill-opacity="1" d="M 1339.640625 1104.734375 C 1331.09375 1101.136719 1332.292969 1089.605469 1339.601562 1085.351562 C 1344.738281 1079.996094 1353.445312 1075.722656 1359.023438 1082.945312 C 1364.753906 1090.378906 1357.824219 1097.4375 1351.667969 1101.542969 C 1349 1105.125 1343.753906 1106.480469 1339.640625 1104.734375 Z M 1339.640625 1104.734375 "/>
<path fill-rule="nonzero" fill="rgb(0%, 0%, 0%)" fill-opacity="1" d="M 1339.386719 1094.804688 C 1331.492188 1085.972656 1340.542969 1077.585938 1349.257812 1074.867188 C 1354.238281 1072.523438 1360.40625 1075.320312 1362.472656 1080.242188 C 1365.449219 1087.121094 1360.035156 1092.960938 1353.761719 1095.046875 C 1349.539062 1098.386719 1343.363281 1098.839844 1339.386719 1094.804688 Z M 1339.386719 1094.804688 "/>
<path fill-rule="nonzero" fill="rgb(0%, 0%, 0%)" fill-opacity="1" d="M 1345.546875 1093.625 C 1330.21875 1083.8125 1354.070312 1062.382812 1363.199219 1076.960938 C 1369.207031 1086.398438 1354.296875 1098.925781 1345.546875 1093.625 Z M 1345.546875 1093.625 "/>
<path fill-rule="nonzero" fill="rgb(0%, 0%, 0%)" fill-opacity="1" d="M 1337.972656 1086.199219 C 1337.972656 1080.425781 1342.425781 1077.433594 1346.757812 1074.773438 C 1353.582031 1070.136719 1362.757812 1067.152344 1367.1875 1076.386719 C 1371.03125 1085.796875 1361.585938 1089.621094 1355.0625 1093.402344 C 1349.140625 1099.652344 1337.722656 1094.839844 1337.972656 1086.199219 Z M 1337.972656 1086.199219 "/>
<path fill-rule="nonzero" fill="rgb(0%, 0%, 0%)" fill-opacity="1" d="M 1335.410156 1087.820312 C 1335.292969 1078.136719 1346.117188 1077.703125 1352.84375 1075.152344 C 1358.464844 1072.238281 1365.878906 1073.242188 1368.503906 1079.601562 C 1372.289062 1089.652344 1362.640625 1093.8125 1354.617188 1095.777344 C 1346.75 1099.503906 1335.859375 1098.433594 1335.410156 1087.820312 Z M 1335.410156 1087.820312 "/>
<path fill-rule="nonzero" fill="rgb(0%, 0%, 0%)" fill-opacity="1" d="M 1331.464844 1124.648438 C 1321.191406 1117.847656 1329.074219 1107.828125 1335.347656 1101.445312 C 1341.265625 1095.023438 1348.050781 1081.796875 1358.257812 1089.152344 C 1367.707031 1097.011719 1357.835938 1106.253906 1352.167969 1112.808594 C 1346.578125 1118.617188 1341.089844 1130.199219 1331.464844 1124.648438 Z M 1331.464844 1124.648438 "/>
<path fill-rule="nonzero" fill="rgb(0%, 0%, 0%)" fill-opacity="1" d="M 1347.792969 1107.242188 C 1339.183594 1103.550781 1340.785156 1092.6875 1347.0625 1087.542969 C 1351.152344 1082.453125 1357.914062 1077.511719 1364.101562 1082.421875 C 1370.363281 1087.214844 1367.597656 1095.066406 1362.960938 1099.894531 C 1359.609375 1105.003906 1354.375 1110.152344 1347.792969 1107.242188 Z M 1347.792969 1107.242188 "/>
<path fill-rule="nonzero" fill="rgb(0%, 0%, 0%)" fill-opacity="1" d="M 1313.523438 1211.824219 C 1304.875 1208.796875 1295.988281 1199.257812 1304.113281 1190.867188 C 1308.152344 1186.542969 1315.792969 1187.433594 1319.179688 1192.066406 C 1324.964844 1194.40625 1329.5 1200.066406 1326.742188 1206.464844 C 1324.695312 1211.335938 1318.414062 1214.242188 1313.523438 1211.824219 Z M 1313.523438 1211.824219 "/>
<path fill-rule="nonzero" fill="rgb(0%, 0%, 0%)" fill-opacity="1" d="M 1318.398438 1209.78125 C 1310.746094 1200.707031 1315.210938 1185.769531 1328.542969 1189.863281 C 1333.195312 1191.476562 1333.648438 1196.109375 1335.832031 1199.613281 C 1342.308594 1211.050781 1325.566406 1221.03125 1318.398438 1209.78125 Z M 1318.398438 1209.78125 "/>
<path fill-rule="nonzero" fill="rgb(0%, 0%, 0%)" fill-opacity="1" d="M 1312.9375 1218.855469 C 1312.285156 1214.0625 1315.179688 1209.667969 1319.519531 1208.046875 C 1319.015625 1200.886719 1327.011719 1195.566406 1333.484375 1198.46875 C 1340.386719 1202.0625 1343.113281 1212.144531 1339.789062 1218.996094 C 1334.65625 1228.109375 1315.140625 1232.300781 1312.9375 1218.855469 Z M 1312.9375 1218.855469 "/>
<path fill-rule="nonzero" fill="rgb(0%, 0%, 0%)" fill-opacity="1" d="M 1308.609375 1221.742188 C 1303.535156 1209.386719 1322.65625 1201.308594 1327.992188 1213.542969 C 1333.074219 1225.777344 1313.90625 1233.945312 1308.609375 1221.742188 Z M 1308.609375 1221.742188 "/>
<path fill-rule="nonzero" fill="rgb(0%, 0%, 0%)" fill-opacity="1" d="M 1305.5625 1219.863281 C 1302.175781 1205.199219 1325.425781 1201.796875 1326.03125 1217.027344 C 1326.203125 1228.5625 1308.449219 1231.058594 1305.5625 1219.863281 Z M 1305.5625 1219.863281 "/>
</svg>
