<?xml version="1.0" encoding="UTF-8"?>
<!-- Created by grConvert v0.1-0 -->
<svg xmlns="http://www.w3.org/2000/svg" xmlns:xlink="http://www.w3.org/1999/xlink" width="2000" height="2000" viewBox="0 0 2000 2000">
<path fill-rule="nonzero" fill="rgb(0%, 0%, 0%)" fill-opacity="1" d="M 836.738281 584.351562 C 841.667969 580.542969 849.867188 586.296875 845.738281 591.949219 C 843.773438 594.695312 840.425781 597.421875 836.839844 597.101562 C 834.351562 598.324219 831.246094 597.519531 829.363281 595.617188 C 823.347656 589.042969 829.78125 584.332031 836.738281 584.351562 Z M 836.738281 584.351562 "/>
<path fill-rule="nonzero" fill="rgb(0%, 0%, 0%)" fill-opacity="1" d="M 907.496094 591.207031 C 907.59375 591.148438 907.675781 591.085938 907.773438 591.046875 C 890.757812 585.996094 873.679688 581.144531 856.363281 577.757812 C 835.355469 573.105469 814.207031 571.464844 793.644531 565.230469 C 789.835938 563.425781 785.164062 562.082031 780.714844 560.378906 C 772.9375 563.804688 765.140625 567.234375 757.300781 570.5 C 757.804688 570.800781 758.324219 571.0625 758.847656 571.324219 C 767.144531 574.789062 775.582031 577.898438 783.820312 581.527344 C 787.808594 583.511719 794.324219 584.894531 794.425781 590.304688 C 794.246094 593.332031 792.097656 595.296875 789.253906 595.898438 C 782.800781 597.101562 776.363281 598.683594 770.070312 600.628906 C 764.898438 601.511719 754.855469 609.085938 749.285156 607.183594 C 748.785156 607.824219 748.121094 608.324219 747.339844 608.664062 C 746.679688 608.90625 746.019531 609.167969 745.335938 609.46875 C 756.5 616.222656 766.261719 624.21875 772.714844 633.78125 C 778.992188 629.453125 785.304688 625.921875 788.050781 624.5 C 806.230469 614.078125 827.417969 616.402344 847.5625 615.199219 C 869.289062 613.234375 890.4375 604.296875 907.496094 591.207031 Z M 1031.046875 1286.441406 C 1032.429688 1262.070312 1037.742188 1237.773438 1037.222656 1213.480469 C 1033.433594 1194.960938 1034.996094 1176.179688 1034.777344 1157.398438 C 1030.425781 1107.246094 1033.132812 1055.875 1023.511719 1006.585938 C 1005.03125 1042.824219 1014.210938 1084.816406 1018.019531 1123.242188 C 1019.242188 1142.503906 1038.0625 1256.15625 1010.382812 1252.527344 C 981.476562 1248.117188 958.507812 1224.605469 950.667969 1197.023438 C 945.339844 1181.871094 945.316406 1165.515625 939.785156 1150.441406 C 932.570312 1130.898438 923.128906 1112.078125 918.277344 1091.691406 C 913.46875 1070.546875 914.789062 1048.597656 914.269531 1027.070312 C 913.246094 1001.472656 914.769531 975.414062 919.941406 950.441406 C 920.503906 936.007812 907.253906 926.585938 900.179688 915.382812 C 884.0625 891.953125 883.800781 861.402344 887.351562 834.164062 C 889.773438 814.839844 895.566406 796.019531 903.585938 778.300781 C 908.035156 766.914062 918.359375 752.382812 908.558594 741.199219 C 881.496094 712.957031 841.609375 705.738281 893.644531 672.488281 C 914.609375 656.492188 935.796875 640.4375 958.285156 626.605469 C 958.789062 626.324219 959.269531 625.984375 959.730469 625.625 C 957.464844 618.1875 954.71875 610.871094 951.371094 603.496094 C 939.304688 600.40625 927.296875 596.839844 915.292969 593.273438 C 918.257812 600.347656 903.164062 605.519531 898.734375 609.328125 C 876.046875 623.316406 849.304688 626.304688 823.25 626.464844 C 806.332031 625.664062 790.835938 633.078125 777.667969 643 C 782.679688 655.449219 782.257812 670.179688 773.238281 687.660156 C 761.472656 713.976562 743.652344 737.371094 733.890625 764.671875 C 723.910156 809.449219 713.765625 855.511719 708.515625 900.429688 C 706.46875 952.40625 710.578125 1004.320312 722.886719 1054.75 C 735.433594 1107.949219 749.527344 1160.644531 758.085938 1214.722656 C 762.113281 1238.878906 769.949219 1261.988281 778.167969 1284.980469 C 786.746094 1311.796875 796.207031 1338.859375 811.421875 1362.730469 C 824.933594 1385.402344 851.75 1396.105469 865.902344 1417.691406 C 866.722656 1420.179688 867.207031 1422.484375 867.347656 1424.628906 C 868.105469 1425.328125 868.808594 1426.109375 869.429688 1426.972656 C 871.816406 1430.058594 872.335938 1434.550781 876.226562 1436.253906 C 882.898438 1439.101562 890.71875 1437.878906 897.511719 1439.140625 C 902.683594 1439.5 906.472656 1434.910156 910.28125 1432.042969 C 919.882812 1423.746094 932.230469 1407.027344 946.421875 1414.023438 C 950.710938 1416.992188 952.914062 1420.800781 958.066406 1421.621094 C 962.074219 1422.523438 969.332031 1419.796875 975.125 1419.296875 C 979.050781 1415.1875 983.824219 1412.339844 990.757812 1412.660156 C 995.167969 1412.980469 999.597656 1413.28125 1004.007812 1413.644531 C 1003.925781 1413.542969 1003.867188 1413.441406 1003.808594 1413.34375 C 986.289062 1389.308594 1004.1875 1363.671875 1017.398438 1342.507812 C 1025.054688 1324.867188 1028.5 1305.445312 1031.046875 1286.441406 Z M 1343.214844 1423.523438 C 1361.4375 1427.976562 1359.992188 1456.539062 1340.871094 1458.644531 C 1295.429688 1453.128906 1252.714844 1473.09375 1207.476562 1473.136719 C 1173.28125 1471.171875 1139.085938 1473.957031 1105.089844 1469.285156 C 1087.832031 1468.382812 1070.234375 1469.746094 1053.515625 1464.414062 C 1034.777344 1459.425781 1017.859375 1448.5 997.894531 1449.261719 C 974.804688 1476.5625 937.320312 1500.894531 900.457031 1499.972656 C 886.730469 1499.171875 871.152344 1493.441406 857.90625 1492.957031 C 839.285156 1490.210938 821.003906 1493.359375 802.484375 1494.140625 C 777.246094 1491.535156 751.949219 1487.347656 727.015625 1483.15625 C 710.300781 1479.410156 696.667969 1462.25 706.269531 1445.613281 C 714.308594 1430.640625 732.308594 1433.347656 746.519531 1431.824219 C 767.886719 1422.34375 790.695312 1420.71875 813.507812 1417.109375 C 777.546875 1389.050781 759.988281 1345.53125 746.378906 1303.339844 C 727.65625 1255.074219 719.136719 1204.441406 710.238281 1153.710938 C 689.632812 1074.632812 668.90625 994.71875 672.09375 912.277344 C 672.175781 877.738281 682.257812 840.757812 688.191406 808.265625 C 693.039062 784.554688 695.246094 759.839844 706.109375 737.851562 C 713.667969 721.753906 722.527344 706.382812 731.324219 690.949219 C 736.417969 679.703125 747.441406 666.792969 743.632812 654.105469 C 719.417969 625.964844 677.265625 626.203125 649.042969 604.035156 C 636.355469 591.289062 649.683594 571.824219 662.3125 564.75 C 673.816406 558.113281 686.867188 554.6875 697.429688 552.523438 C 719.941406 547.570312 737.359375 540.394531 757.683594 531.59375 C 812.984375 504.136719 891.398438 479.699219 943.292969 525.742188 C 970.394531 556.75 990.257812 594.554688 999.65625 634.722656 C 1004.769531 655.328125 1001.964844 676.796875 1006.273438 697.5 C 1013.929688 723.136719 1014.890625 750.019531 1021.828125 775.753906 C 1038.542969 812.554688 1063.820312 846.128906 1067.085938 887.800781 C 1069.992188 901.734375 1077.890625 913.839844 1083.761719 926.628906 C 1095.710938 955.933594 1104.128906 986.820312 1111.464844 1017.589844 C 1115.8125 1050.902344 1122.929688 1084.054688 1122.929688 1117.808594 C 1120.824219 1165.917969 1124.675781 1214.144531 1120.183594 1262.1875 C 1119.824219 1281.933594 1117.296875 1301.875 1119.28125 1321.519531 C 1121.867188 1332.945312 1132.191406 1340.441406 1140.449219 1347.71875 C 1167.589844 1369.90625 1202.847656 1378.066406 1235.960938 1386.882812 C 1261.617188 1396.386719 1287.351562 1405.445312 1313.371094 1413.882812 C 1323.113281 1417.832031 1332.613281 1422.625 1343.214844 1423.523438 Z M 1343.214844 1423.523438 "/>
</svg>
