<?xml version="1.0" encoding="UTF-8"?>
<!-- Created by grConvert v0.1-0 -->
<svg xmlns="http://www.w3.org/2000/svg" xmlns:xlink="http://www.w3.org/1999/xlink" width="2000" height="2000" viewBox="0 0 2000 2000">
<path fill-rule="nonzero" fill="rgb(0%, 79.215688%, 93.725491%)" fill-opacity="1" d="M 1099.957031 1156.417969 C 1100.054688 1157.441406 1099.898438 1158.367188 1099.582031 1159.195312 C 1099.207031 1165.023438 1098.65625 1170.816406 1097.988281 1176.609375 C 1097.808594 1178.105469 1097.433594 1180.132812 1096.824219 1182.261719 C 1095.878906 1188.386719 1094.777344 1194.476562 1093.496094 1200.503906 C 1093.398438 1202.867188 1093.0625 1205.191406 1092.410156 1207.359375 C 1091.878906 1209.035156 1091.367188 1210.707031 1090.875 1212.402344 C 1090.640625 1213.625 1090.363281 1214.84375 1090.105469 1216.066406 C 1089.871094 1218.707031 1089.457031 1221.285156 1088.765625 1223.75 C 1088.570312 1227.214844 1087.960938 1230.664062 1086.914062 1233.972656 C 1086.421875 1235.546875 1085.714844 1237.421875 1084.769531 1239.191406 C 1084.730469 1239.332031 1084.671875 1239.46875 1084.628906 1239.585938 C 1083.824219 1241.773438 1082.582031 1244.253906 1080.671875 1245.773438 C 1080.453125 1246.167969 1080.21875 1246.5625 1079.960938 1246.933594 C 1079.707031 1247.308594 1079.195312 1247.941406 1078.582031 1248.550781 C 1078.207031 1249.160156 1077.816406 1249.75 1077.382812 1250.304688 C 1075.882812 1252.195312 1074.03125 1253.496094 1071.886719 1253.496094 C 1071.609375 1253.496094 1071.351562 1253.476562 1071.078125 1253.4375 C 1071.175781 1253.769531 1071.292969 1254.085938 1071.472656 1254.382812 C 1069.324219 1254.636719 1067.195312 1255.308594 1065.089844 1256.546875 C 1056.519531 1260.902344 1055.457031 1271.285156 1054.628906 1279.8125 C 1051.96875 1301.460938 1044.1875 1321.988281 1034.4375 1341.394531 C 1028.132812 1354.554688 1017.828125 1365.308594 1010.027344 1377.523438 C 1009.554688 1376.851562 1008.847656 1376.28125 1007.902344 1375.867188 C 1000.730469 1372.65625 993.441406 1367.335938 985.582031 1367.335938 C 983.355469 1367.335938 981.070312 1367.769531 978.746094 1368.796875 C 978.589844 1368.816406 978.429688 1368.855469 978.273438 1368.894531 C 977.25 1358.039062 974.351562 1347.265625 970.847656 1337.078125 C 970 1335.367188 968.777344 1334.441406 967.476562 1334.125 C 967.242188 1333.90625 966.945312 1333.710938 966.632812 1333.535156 C 956.742188 1330.402344 945.886719 1333.101562 935.800781 1330.636719 C 916.773438 1327.347656 900.222656 1316.550781 881.449219 1312.75 C 866.5 1312.160156 870.300781 1335.285156 868.6875 1345.195312 C 868.6875 1346.515625 868.664062 1347.816406 868.625 1349.136719 C 867.640625 1348.582031 866.402344 1348.386719 864.980469 1348.742188 C 858.085938 1350.910156 851.566406 1351.875 844.375 1351.953125 C 843.410156 1348.386719 842.289062 1344.664062 841.046875 1340.742188 C 835.53125 1331.839844 825.996094 1327.011719 818.925781 1319.605469 C 796.78125 1289.269531 789.847656 1253.769531 786.558594 1216.164062 C 786.363281 1199.5 785.929688 1182.636719 776.492188 1168.214844 C 763.609375 1145.679688 751.296875 1122.847656 743.496094 1097.96875 C 736.976562 1081.933594 732.660156 1063.019531 719.933594 1050.730469 C 719.148438 1050.136719 718.339844 1049.625 717.492188 1049.191406 C 718.65625 1047.105469 717.945312 1044.167969 716.882812 1041.921875 C 714.144531 1034.398438 711.878906 1026.519531 710.242188 1018.480469 C 705.652344 995.847656 703.328125 972.660156 700.53125 949.710938 C 699.507812 939.78125 697.4375 929.851562 697.28125 919.886719 C 702.855469 907.828125 710.65625 895.242188 714.753906 883.460938 C 721.292969 845.777344 722.476562 807.421875 731.460938 770.148438 C 734.097656 745.78125 743.496094 722.597656 749.859375 698.957031 C 761.933594 700.847656 780.707031 697.972656 786.894531 697.183594 C 813.84375 693.777344 841.402344 685.441406 868.214844 694.582031 C 879.363281 698.640625 888.621094 706.285156 898.90625 711.996094 C 912.949219 720.371094 927.429688 727.539062 938.460938 740.070312 C 958.160156 763.214844 954.652344 796.566406 963.027344 824.363281 C 964.285156 831.355469 965.84375 838.289062 967.753906 845.144531 C 959.816406 897.941406 958.378906 952.015625 973.035156 1003.902344 C 983.925781 1039.125 1000.238281 1082.582031 1031.128906 1104.863281 C 1032.703125 1108.152344 1035.460938 1111.207031 1039.636719 1113.570312 C 1040.464844 1114.515625 1041.429688 1115.402344 1042.550781 1116.210938 C 1048.5 1120.347656 1054.117188 1121.152344 1058.84375 1119.894531 C 1059.160156 1119.914062 1059.492188 1119.914062 1059.808594 1119.914062 C 1064.164062 1119.914062 1068.59375 1118.828125 1072.59375 1116.761719 C 1079.46875 1116.605469 1084 1112.25 1087.902344 1107.324219 C 1088.648438 1106.398438 1089.398438 1105.472656 1090.144531 1104.546875 C 1091.308594 1105.511719 1092.253906 1106.832031 1092.945312 1107.976562 C 1093.199219 1108.410156 1093.417969 1108.84375 1093.632812 1109.277344 C 1093.769531 1109.433594 1093.910156 1109.609375 1094.046875 1109.769531 C 1094.085938 1109.730469 1094.125 1109.6875 1094.164062 1109.648438 C 1097 1113.136719 1097.949219 1118.535156 1098.320312 1122.632812 C 1098.359375 1123.085938 1098.378906 1123.539062 1098.421875 1123.972656 C 1098.480469 1124.128906 1098.558594 1124.265625 1098.617188 1124.425781 C 1099.503906 1126.691406 1099.582031 1129.328125 1099.1875 1131.929688 C 1099.304688 1134.175781 1099.265625 1136.402344 1099.070312 1138.609375 C 1098.972656 1139.515625 1098.894531 1140.402344 1098.8125 1141.285156 C 1099.167969 1143.492188 1099.347656 1145.71875 1099.367188 1147.964844 C 1099.679688 1150.386719 1099.78125 1152.851562 1099.738281 1155.3125 C 1099.839844 1155.667969 1099.917969 1156.042969 1099.957031 1156.417969 Z M 1099.957031 1156.417969 "/>
<path fill-rule="nonzero" fill="rgb(0%, 79.215688%, 93.725491%)" fill-opacity="1" d="M 822.902344 592.578125 C 826.726562 592.066406 830.664062 588.796875 830.210938 584.878906 C 829.503906 581.035156 825.703125 579.300781 822.175781 580.621094 C 821.03125 580.839844 820.027344 581.410156 819.199219 582.238281 C 819.160156 582.238281 819.140625 582.257812 819.121094 582.296875 C 818.214844 583.066406 817.585938 584.148438 817.269531 585.3125 C 817.230469 585.410156 817.210938 585.527344 817.171875 585.625 C 816.402344 588.265625 817.074219 591.199219 819.988281 592.402344 C 820.660156 592.617188 821.386719 592.699219 822.117188 592.660156 C 822.390625 592.660156 822.648438 592.640625 822.902344 592.578125 Z M 873.214844 567.382812 C 871.484375 566.28125 869.058594 566.203125 867.40625 567.601562 C 857.851562 575.699219 848.574219 584.167969 838.191406 591.199219 C 831.75 595.871094 823.0625 599.21875 814.828125 598.273438 C 812.128906 597.878906 807.855469 597.820312 807.421875 594.410156 C 806.042969 583.972656 811.519531 574.277344 815.042969 564.785156 C 818.355469 556.902344 821.113281 548.375 826.960938 541.953125 C 828.65625 541.519531 829.78125 540.316406 830.273438 538.839844 C 842.289062 540.96875 853.851562 544.671875 862.796875 551.839844 C 866.773438 556.902344 869.789062 562.007812 873.214844 567.382812 Z M 873.214844 567.382812 "/>
</svg>
