<?xml version="1.0" encoding="UTF-8"?>
<!-- Created by grConvert v0.1-0 -->
<svg xmlns="http://www.w3.org/2000/svg" xmlns:xlink="http://www.w3.org/1999/xlink" width="2000" height="2000" viewBox="0 0 2000 2000">
<path fill-rule="nonzero" fill="rgb(0%, 79.215688%, 93.725491%)" fill-opacity="1" d="M 1441.425781 901.890625 C 1432.640625 929.734375 1423.953125 957.621094 1415.214844 985.488281 C 1388.027344 1072.261719 1360.839844 1159.015625 1333.652344 1245.789062 C 1315.78125 1302.785156 1297.960938 1359.824219 1280.066406 1416.816406 C 1253.484375 1417.167969 1226.949219 1417.425781 1200.371094 1417.777344 C 1115.8125 1418.828125 1031.257812 1419.855469 946.699219 1420.882812 C 877.703125 1421.746094 808.703125 1422.425781 739.679688 1423.40625 C 735.101562 1410.324219 730.523438 1397.242188 725.945312 1384.140625 C 695.019531 1295.824219 664.09375 1207.507812 633.167969 1119.167969 C 608.757812 1049.371094 584.324219 979.554688 559.84375 909.761719 C 620.761719 864.75 681.703125 819.761719 742.621094 774.777344 C 808.234375 726.332031 873.824219 677.886719 939.4375 629.441406 C 959.804688 614.398438 980.195312 599.378906 1000.542969 584.3125 C 1000.679688 584.40625 1000.820312 584.523438 1000.960938 584.617188 C 1036.933594 610.523438 1072.882812 636.425781 1108.851562 662.328125 C 1171.640625 707.574219 1234.449219 752.820312 1297.234375 798.039062 C 1345.304688 832.65625 1393.375 867.25 1441.425781 901.890625 Z M 1441.425781 901.890625 "/>
</svg>
