<?xml version="1.0" encoding="UTF-8"?>
<!-- Created by grConvert v0.1-0 -->
<svg xmlns="http://www.w3.org/2000/svg" xmlns:xlink="http://www.w3.org/1999/xlink" width="2000" height="2000" viewBox="0 0 2000 2000">
<path fill-rule="nonzero" fill="rgb(0%, 79.215688%, 93.725491%)" fill-opacity="1" d="M 1398.648438 1194.675781 C 1398.734375 1204.402344 1398.800781 1214.125 1398.953125 1223.824219 C 1389.691406 1228.90625 1380.425781 1234.03125 1371.164062 1239.132812 C 1310.019531 1272.816406 1248.875 1306.496094 1187.734375 1340.175781 C 1123.699219 1375.433594 1059.707031 1410.738281 995.695312 1445.972656 C 984.460938 1439.558594 973.226562 1433.164062 961.972656 1426.722656 C 907.660156 1395.734375 853.371094 1364.75 799.0625 1333.738281 C 734.109375 1296.683594 669.132812 1259.695312 604.222656 1222.554688 C 603.871094 1149.761719 603.457031 1076.945312 603.082031 1004.128906 C 602.753906 941.5625 602.425781 878.976562 602.097656 816.386719 C 602.03125 804.035156 601.964844 791.660156 601.902344 779.289062 C 631.179688 762.90625 660.351562 746.328125 689.585938 729.859375 C 762.949219 688.535156 836.3125 647.210938 909.675781 605.886719 C 940.402344 588.585938 971.105469 571.289062 1001.828125 553.964844 C 1018.558594 563.578125 1035.246094 573.28125 1051.957031 582.9375 C 1104.777344 613.378906 1157.597656 643.839844 1210.421875 674.300781 C 1272.550781 710.085938 1334.570312 746.023438 1396.742188 781.71875 C 1396.761719 790.609375 1396.808594 799.480469 1396.828125 808.371094 C 1397.070312 869.996094 1397.289062 931.621094 1397.550781 993.246094 C 1397.75 1036.015625 1397.925781 1078.808594 1398.144531 1121.578125 C 1398.273438 1145.949219 1398.425781 1170.324219 1398.648438 1194.675781 Z M 1398.648438 1194.675781 "/>
</svg>
